<svg width="1087" height="434" viewBox="0 0 1087 434" fill="none" xmlns="http://www.w3.org/2000/svg">
<path d="M848.134 -0.000151271L306 321.247L322.304 348.762L864.438 27.5148L848.134 -0.000151271Z" fill="#008E00"/>
<path d="M965.965 26.9329L423.832 348.18L440.136 375.695L982.27 54.4479L965.965 26.9329Z" fill="#008E00"/>
<path d="M1070.33 56.3905L528.196 377.638L544.501 405.153L1086.63 83.9054L1070.33 56.3905Z" fill="#008E00"/>
<path d="M659.121 376.579C752.863 376.579 828.856 300.586 828.856 206.844C828.856 113.101 752.863 37.1079 659.121 37.1079C565.378 37.1079 489.385 113.101 489.385 206.844C489.385 300.586 565.378 376.579 659.121 376.579Z" fill="black"/>
<path d="M488.122 206.844C488.122 112.555 564.831 35.8457 659.12 35.8457C753.409 35.8457 830.118 112.555 830.118 206.844C830.118 301.132 753.409 377.842 659.12 377.842C564.831 377.842 488.122 301.132 488.122 206.844ZM490.647 206.844C490.647 299.74 566.224 375.317 659.12 375.317C752.017 375.317 827.594 299.74 827.594 206.844C827.594 113.948 752.017 38.3707 659.12 38.3707C566.224 38.3707 490.647 113.948 490.647 206.844Z" fill="#3F3D56"/>
<path d="M628.863 207.582C628.863 201.597 630.638 195.747 633.963 190.771C637.287 185.796 642.013 181.918 647.542 179.627C653.07 177.337 659.154 176.738 665.023 177.906C670.893 179.073 676.284 181.955 680.516 186.186C684.747 190.418 687.629 195.809 688.796 201.679C689.964 207.548 689.365 213.632 687.075 219.16C684.784 224.689 680.906 229.415 675.931 232.74C670.955 236.064 665.105 237.839 659.121 237.839C651.096 237.839 643.4 234.651 637.725 228.977C632.051 223.302 628.863 215.606 628.863 207.582ZM659.121 178.8C651.49 178.809 644.174 181.844 638.779 187.24C633.383 192.635 630.348 199.951 630.339 207.582C630.339 213.274 632.027 218.839 635.19 223.572C638.352 228.305 642.847 231.994 648.106 234.172C653.365 236.35 659.152 236.92 664.735 235.81C670.318 234.699 675.447 231.958 679.472 227.933C683.497 223.908 686.238 218.78 687.349 213.196C688.459 207.613 687.889 201.827 685.711 196.567C683.533 191.308 679.844 186.813 675.111 183.651C670.377 180.488 664.813 178.8 659.121 178.8Z" fill="#3F3D56"/>
<path d="M601.558 207.582C601.558 196.197 604.934 185.068 611.259 175.602C617.584 166.135 626.574 158.758 637.092 154.401C647.61 150.044 659.184 148.904 670.35 151.125C681.516 153.346 691.773 158.829 699.823 166.879C707.873 174.929 713.356 185.186 715.577 196.352C717.798 207.518 716.658 219.092 712.301 229.61C707.944 240.128 700.566 249.118 691.1 255.443C681.634 261.768 670.505 265.144 659.12 265.144C651.561 265.144 644.076 263.655 637.092 260.762C630.108 257.87 623.762 253.63 618.417 248.284C613.072 242.939 608.832 236.594 605.939 229.61C603.046 222.626 601.558 215.141 601.558 207.582ZM659.12 151.495C648.027 151.495 637.183 154.784 627.96 160.947C618.737 167.11 611.548 175.87 607.303 186.118C603.058 196.367 601.947 207.644 604.111 218.524C606.275 229.403 611.617 239.397 619.461 247.241C627.305 255.085 637.298 260.426 648.178 262.591C659.058 264.755 670.335 263.644 680.584 259.399C690.832 255.154 699.592 247.965 705.754 238.742C711.917 229.518 715.207 218.675 715.207 207.582C715.19 192.712 709.276 178.456 698.761 167.941C688.246 157.426 673.99 151.512 659.12 151.495Z" fill="#CCCCCC"/>
<path d="M546.947 207.581C546.947 185.396 553.526 163.708 565.852 145.261C578.178 126.815 595.697 112.437 616.194 103.947C636.691 95.4568 659.245 93.2354 681.004 97.5636C702.764 101.892 722.751 112.575 738.439 128.263C754.127 143.951 764.81 163.938 769.138 185.698C773.467 207.457 771.245 230.011 762.755 250.508C754.265 271.005 739.887 288.524 721.441 300.85C702.994 313.176 681.306 319.755 659.121 319.755C629.381 319.721 600.868 307.892 579.839 286.863C558.81 265.834 546.981 237.321 546.947 207.581ZM659.121 96.8843C637.227 96.8843 615.824 103.377 597.62 115.54C579.416 127.704 565.228 144.992 556.85 165.22C548.471 185.447 546.279 207.704 550.55 229.177C554.822 250.651 565.364 270.375 580.846 285.856C596.327 301.338 616.051 311.88 637.525 316.152C658.998 320.423 681.255 318.231 701.483 309.852C721.71 301.474 738.998 287.286 751.162 269.082C763.325 250.878 769.818 229.475 769.818 207.582C769.785 178.233 758.111 150.096 737.359 129.343C716.606 108.591 688.469 96.9175 659.121 96.8843Z" fill="#CCCCCC"/>
<path d="M659.12 220.866C666.864 220.866 673.142 214.588 673.142 206.844C673.142 199.1 666.864 192.822 659.12 192.822C651.376 192.822 645.099 199.1 645.099 206.844C645.099 214.588 651.376 220.866 659.12 220.866Z" fill="#008E00"/>
<path d="M622.959 261.454C630.703 261.454 636.981 255.177 636.981 247.433C636.981 239.689 630.703 233.411 622.959 233.411C615.215 233.411 608.938 239.689 608.938 247.433C608.938 255.177 615.215 261.454 622.959 261.454Z" fill="#008E00"/>
<path d="M764.035 255.55C771.779 255.55 778.057 249.272 778.057 241.528C778.057 233.785 771.779 227.507 764.035 227.507C756.291 227.507 750.014 233.785 750.014 241.528C750.014 249.272 756.291 255.55 764.035 255.55Z" fill="#008E00"/>
<path d="M659.12 213.486C662.789 213.486 665.762 210.512 665.762 206.844C665.762 203.176 662.789 200.202 659.12 200.202C655.452 200.202 652.479 203.176 652.479 206.844C652.479 210.512 655.452 213.486 659.12 213.486Z" fill="#2F2E41"/>
<path d="M764.035 248.17C767.704 248.17 770.677 245.197 770.677 241.529C770.677 237.86 767.704 234.887 764.035 234.887C760.367 234.887 757.394 237.86 757.394 241.529C757.394 245.197 760.367 248.17 764.035 248.17Z" fill="#2F2E41"/>
<path d="M622.959 254.812C626.627 254.812 629.601 251.839 629.601 248.171C629.601 244.502 626.627 241.529 622.959 241.529C619.291 241.529 616.317 244.502 616.317 248.171C616.317 251.839 619.291 254.812 622.959 254.812Z" fill="#2F2E41"/>
<path d="M349.168 138.95C352.836 138.95 355.81 135.976 355.81 132.308C355.81 128.64 352.836 125.666 349.168 125.666C345.5 125.666 342.526 128.64 342.526 132.308C342.526 135.976 345.5 138.95 349.168 138.95Z" fill="#008E00"/>
<path d="M658.751 132.677H367.248V131.201H660.228V207.212H658.751V132.677Z" fill="#2F2E41"/>
<path d="M329.98 132.308C329.98 128.513 331.106 124.803 333.214 121.648C335.322 118.492 338.319 116.033 341.825 114.581C345.331 113.128 349.189 112.748 352.911 113.489C356.633 114.229 360.052 116.057 362.736 118.74C365.419 121.423 367.246 124.842 367.987 128.564C368.727 132.286 368.347 136.144 366.895 139.65C365.443 143.156 362.983 146.153 359.828 148.262C356.673 150.37 352.963 151.495 349.168 151.495C346.648 151.495 344.153 150.999 341.825 150.035C339.497 149.07 337.382 147.657 335.6 145.875C333.819 144.094 332.405 141.978 331.441 139.65C330.477 137.323 329.98 134.827 329.98 132.308ZM349.168 114.596C345.665 114.596 342.241 115.635 339.328 117.581C336.415 119.527 334.145 122.293 332.805 125.53C331.464 128.766 331.113 132.327 331.797 135.763C332.48 139.199 334.167 142.355 336.644 144.832C339.121 147.309 342.277 148.996 345.713 149.679C349.148 150.362 352.71 150.012 355.946 148.671C359.182 147.331 361.948 145.06 363.895 142.148C365.841 139.235 366.88 135.811 366.88 132.308C366.874 127.612 365.006 123.11 361.686 119.79C358.366 116.469 353.864 114.602 349.168 114.596Z" fill="#2F2E41"/>
<path d="M393.447 330.086C397.115 330.086 400.089 327.113 400.089 323.445C400.089 319.776 397.115 316.803 393.447 316.803C389.779 316.803 386.805 319.776 386.805 323.445C386.805 327.113 389.779 330.086 393.447 330.086Z" fill="#008E00"/>
<path d="M374.259 323.445C374.259 319.65 375.385 315.94 377.493 312.785C379.601 309.629 382.598 307.17 386.104 305.718C389.61 304.266 393.468 303.886 397.19 304.626C400.912 305.366 404.331 307.194 407.014 309.877C409.698 312.561 411.525 315.98 412.266 319.702C413.006 323.424 412.626 327.282 411.174 330.788C409.721 334.294 407.262 337.29 404.107 339.399C400.951 341.507 397.242 342.632 393.447 342.632C388.358 342.632 383.478 340.611 379.879 337.012C376.281 333.414 374.259 328.534 374.259 323.445ZM393.447 305.733C389.944 305.733 386.519 306.772 383.607 308.718C380.694 310.664 378.424 313.431 377.083 316.667C375.743 319.903 375.392 323.464 376.076 326.9C376.759 330.336 378.446 333.492 380.923 335.969C383.4 338.446 386.556 340.133 389.991 340.816C393.427 341.499 396.988 341.149 400.225 339.808C403.461 338.468 406.227 336.198 408.173 333.285C410.12 330.372 411.158 326.948 411.158 323.445C411.153 318.749 409.285 314.247 405.965 310.927C402.644 307.606 398.143 305.739 393.447 305.733Z" fill="#2F2E41"/>
<path d="M969.932 169.945C973.601 169.945 976.574 166.971 976.574 163.303C976.574 159.635 973.601 156.661 969.932 156.661C966.264 156.661 963.291 159.635 963.291 163.303C963.291 166.971 966.264 169.945 969.932 169.945Z" fill="#008E00"/>
<path d="M950.745 163.303C950.745 159.508 951.87 155.798 953.978 152.643C956.087 149.487 959.083 147.028 962.589 145.576C966.095 144.124 969.953 143.744 973.675 144.484C977.397 145.224 980.816 147.052 983.5 149.735C986.183 152.419 988.011 155.837 988.751 159.559C989.491 163.281 989.111 167.139 987.659 170.646C986.207 174.152 983.748 177.148 980.592 179.257C977.437 181.365 973.727 182.49 969.932 182.49C967.412 182.49 964.917 181.994 962.589 181.03C960.261 180.065 958.146 178.652 956.365 176.87C954.583 175.089 953.169 172.973 952.205 170.646C951.241 168.318 950.745 165.823 950.745 163.303ZM969.932 145.591C965.236 145.597 960.735 147.464 957.414 150.785C954.094 154.105 952.226 158.607 952.221 163.303C952.221 166.806 953.259 170.23 955.206 173.143C957.152 176.055 959.918 178.326 963.154 179.666C966.391 181.007 969.952 181.357 973.388 180.674C976.823 179.991 979.979 178.304 982.456 175.827C984.933 173.35 986.62 170.194 987.303 166.758C987.987 163.322 987.636 159.761 986.296 156.525C984.955 153.288 982.685 150.522 979.772 148.576C976.86 146.63 973.435 145.591 969.932 145.591Z" fill="#2F2E41"/>
<path d="M763.297 165.528L951.471 162.565L951.494 164.04L764.773 166.981V241.529H763.297V165.528Z" fill="#2F2E41"/>
<path d="M411.897 322.707H622.221V248.171H623.697V324.182H411.897V322.707Z" fill="#2F2E41"/>
<path d="M389.757 166.993H308.579V172.159H389.757V166.993Z" fill="#003200"/>
<path d="M389.757 181.752H308.579V186.918H389.757V181.752Z" fill="#003200"/>
<path d="M389.757 196.512H308.579V201.678H389.757V196.512Z" fill="#003200"/>
<path d="M434.036 358.13H352.858V363.296H434.036V358.13Z" fill="#003200"/>
<path d="M434.036 372.89H352.858V378.056H434.036V372.89Z" fill="#003200"/>
<path d="M434.036 387.649H352.858V392.815H434.036V387.649Z" fill="#003200"/>
<path d="M1010.52 198.726H929.343V203.891H1010.52V198.726Z" fill="#003200"/>
<path d="M1010.52 213.485H929.343V218.651H1010.52V213.485Z" fill="#003200"/>
<path d="M1010.52 228.245H929.343V233.411H1010.52V228.245Z" fill="#003200"/>
<path d="M57.4027 406.945L70.5515 411.645L94.9355 363.162L75.5279 356.226L57.4027 406.945Z" fill="#FFB8B8"/>
<path d="M91.8926 433.646L92.0845 433.11C93.6431 428.732 93.4018 423.916 91.4136 419.716C89.4253 415.516 85.8525 412.277 81.4788 410.708L55.5827 401.453L49.4927 418.493L91.8926 433.646Z" fill="#2F2E41"/>
<path d="M142.91 419.952L156.874 419.95L163.517 366.089L142.907 366.09L142.91 419.952Z" fill="#FFB8B8"/>
<path d="M139.349 433.487L184.375 433.486V432.916C184.375 430.615 183.922 428.336 183.041 426.21C182.16 424.083 180.869 422.151 179.242 420.524C177.614 418.897 175.682 417.606 173.556 416.725C171.43 415.844 169.151 415.391 166.849 415.391L139.348 415.392L139.349 433.487Z" fill="#2F2E41"/>
<path d="M111.086 75.8442L117.158 63.8442C117.158 63.8442 139.782 69.5124 141.839 82.6245L111.086 75.8442Z" fill="#008E00"/>
<path d="M86.027 213.055L102.543 305.216L58.6907 382.768L84.888 393.02L129.31 317.845L135.005 297.342L138.422 404.41L162.048 403.692L172.881 303.717L155.507 210.777L86.027 213.055Z" fill="#2F2E41"/>
<path d="M164.908 229.681C165.42 227.399 166.891 157.726 166.891 157.726C166.891 157.726 142.601 77.9852 142.378 77.33L142.292 77.0742L123.85 70.16C123.592 70.0421 117.448 67.3047 112.42 69.586C111.13 70.2135 109.993 71.1149 109.088 72.2273C108.183 73.3396 107.531 74.6362 107.179 76.0264C105.087 77.5847 90.0139 94.4697 90.0139 117.372L89.4449 171.418L76.8075 230.009L77.3662 230.128C77.7113 230.201 93.1158 234.842 117.378 234.842C130.859 234.842 164.908 229.681 164.908 229.681Z" fill="#3F3D56"/>
<path d="M136.021 60.0661C122.256 60.0661 111.097 48.9068 111.097 35.1412C111.097 21.3756 122.256 10.2163 136.021 10.2163C149.787 10.2163 160.946 21.3756 160.946 35.1412C160.946 48.9068 149.787 60.0661 136.021 60.0661Z" fill="#FFB8B8"/>
<path opacity="0.2" d="M100.512 144.949L144.117 205.791L150.557 177.378L100.512 144.949Z" fill="black"/>
<path d="M177.905 207.103C176.342 207.041 174.813 206.637 173.423 205.919C172.034 205.202 170.818 204.189 169.863 202.951C168.907 201.713 168.234 200.281 167.892 198.755C167.55 197.23 167.547 195.647 167.882 194.12L135.482 174.245L153.373 165.875L181.398 186.032C183.926 186.765 186.098 188.401 187.501 190.629C188.904 192.857 189.441 195.521 189.01 198.119C188.58 200.716 187.212 203.065 185.165 204.721C183.118 206.377 180.535 207.224 177.905 207.103Z" fill="#FFB8B8"/>
<path d="M155.507 166.355L166.604 174.132L157.193 190.844L144.117 180.024L155.507 166.355Z" fill="#008E00"/>
<path d="M161.317 166.846L135.214 136.59L145.215 94.858C146.249 90.5452 145.677 86.0037 143.608 82.0812C141.538 78.1587 138.112 75.1235 133.969 73.5423C129.825 71.9611 125.248 71.9419 121.091 73.4884C116.935 75.0348 113.483 78.0412 111.381 81.9462L111.154 82.3689L101.938 144.341L148.244 191.804L161.317 166.846Z" fill="#3F3D56"/>
<path d="M114.791 56.7816L135.479 57.5242C136.74 57.5694 140.162 43.9602 140.61 41.1369C140.964 39.2989 141.975 37.6526 143.454 36.5056C144.934 35.3585 146.78 34.7891 148.648 34.9036C150.197 35.0499 154.102 32.1567 158.131 28.7309C165.782 22.2268 165.384 10.0113 156.98 4.51543C156.75 4.36521 156.525 4.22804 156.303 4.10394C151.002 1.13658 144.8 0.140133 138.725 0.0641382C133.218 -0.00473794 127.554 0.688407 122.703 3.29507C114.005 7.96826 109.375 18.1805 108.969 28.0461C108.562 37.9118 111.725 47.5586 115.314 56.7572" fill="#2F2E41"/>
<path d="M1.13902 433.829H252.861C253.163 433.829 253.453 433.709 253.666 433.496C253.88 433.282 254 432.992 254 432.69C254 432.388 253.88 432.099 253.666 431.885C253.453 431.671 253.163 431.551 252.861 431.551H1.13902C0.836938 431.551 0.547242 431.671 0.333635 431.885C0.120029 432.099 9.65595e-06 432.388 9.65595e-06 432.69C9.65595e-06 432.992 0.120029 433.282 0.333635 433.496C0.547242 433.709 0.836938 433.829 1.13902 433.829Z" fill="#3F3D56"/>
</svg>
