<svg width="1087" height="434" viewBox="0 0 1087 434" fill="none" xmlns="http://www.w3.org/2000/svg">
<path d="M848.134 -2.92004e-05L306 321.247L322.304 348.762L864.438 27.5149L848.134 -2.92004e-05Z" fill="#008E00"/>
<path d="M965.965 26.9328L423.832 348.18L440.136 375.695L982.27 54.4477L965.965 26.9328Z" fill="#008E00"/>
<path d="M1070.33 56.3907L528.196 377.638L544.501 405.153L1086.63 83.9057L1070.33 56.3907Z" fill="#008E00"/>
<path d="M659.121 376.579C752.863 376.579 828.856 300.586 828.856 206.844C828.856 113.101 752.863 37.1079 659.121 37.1079C565.378 37.1079 489.385 113.101 489.385 206.844C489.385 300.586 565.378 376.579 659.121 376.579Z" fill="white"/>
<path d="M488.122 206.844C488.122 112.555 564.831 35.8455 659.12 35.8455C753.409 35.8455 830.118 112.555 830.118 206.844C830.118 301.132 753.409 377.842 659.12 377.842C564.831 377.842 488.122 301.132 488.122 206.844ZM490.647 206.844C490.647 299.74 566.224 375.317 659.12 375.317C752.017 375.317 827.594 299.74 827.594 206.844C827.594 113.947 752.017 38.3704 659.12 38.3704C566.224 38.3704 490.647 113.947 490.647 206.844Z" fill="#3F3D56"/>
<path d="M628.863 207.582C628.863 201.597 630.638 195.747 633.963 190.771C637.287 185.796 642.013 181.918 647.542 179.627C653.07 177.337 659.154 176.738 665.023 177.906C670.893 179.073 676.284 181.955 680.516 186.186C684.747 190.418 687.629 195.809 688.796 201.679C689.964 207.548 689.365 213.632 687.075 219.16C684.784 224.689 680.906 229.415 675.931 232.74C670.955 236.064 665.105 237.839 659.121 237.839C651.096 237.839 643.4 234.651 637.725 228.977C632.051 223.302 628.863 215.606 628.863 207.582ZM659.121 178.8C651.49 178.809 644.174 181.844 638.779 187.24C633.383 192.635 630.348 199.951 630.339 207.582C630.339 213.274 632.027 218.839 635.19 223.572C638.352 228.305 642.847 231.994 648.106 234.172C653.365 236.35 659.152 236.92 664.735 235.81C670.318 234.699 675.447 231.958 679.472 227.933C683.497 223.908 686.238 218.78 687.349 213.196C688.459 207.613 687.889 201.827 685.711 196.567C683.533 191.308 679.844 186.813 675.111 183.651C670.377 180.488 664.813 178.8 659.121 178.8Z" fill="#3F3D56"/>
<path d="M601.558 207.582C601.558 196.197 604.934 185.068 611.259 175.602C617.584 166.135 626.574 158.758 637.092 154.401C647.61 150.044 659.184 148.904 670.35 151.125C681.516 153.346 691.773 158.829 699.823 166.879C707.873 174.929 713.356 185.186 715.577 196.352C717.798 207.518 716.658 219.092 712.301 229.61C707.944 240.128 700.566 249.118 691.1 255.443C681.634 261.768 670.505 265.144 659.12 265.144C651.561 265.144 644.076 263.655 637.092 260.762C630.108 257.87 623.762 253.63 618.417 248.284C613.072 242.939 608.832 236.594 605.939 229.61C603.046 222.626 601.558 215.141 601.558 207.582ZM659.12 151.495C648.027 151.495 637.183 154.784 627.96 160.947C618.737 167.11 611.548 175.87 607.303 186.118C603.058 196.367 601.947 207.644 604.111 218.524C606.275 229.403 611.617 239.397 619.461 247.241C627.305 255.085 637.298 260.426 648.178 262.591C659.058 264.755 670.335 263.644 680.584 259.399C690.832 255.154 699.592 247.965 705.754 238.742C711.917 229.518 715.207 218.675 715.207 207.582C715.19 192.712 709.276 178.456 698.761 167.941C688.246 157.426 673.99 151.512 659.12 151.495Z" fill="#CCCCCC"/>
<path d="M546.947 207.582C546.947 185.396 553.526 163.708 565.852 145.262C578.178 126.815 595.697 112.437 616.194 103.947C636.691 95.457 659.245 93.2356 681.004 97.5639C702.764 101.892 722.751 112.576 738.439 128.263C754.127 143.951 764.81 163.938 769.138 185.698C773.467 207.457 771.245 230.012 762.755 250.509C754.265 271.006 739.887 288.525 721.441 300.85C702.994 313.176 681.306 319.755 659.121 319.755C629.381 319.721 600.868 307.892 579.839 286.863C558.81 265.834 546.981 237.322 546.947 207.582ZM659.121 96.8845C637.227 96.8845 615.824 103.377 597.62 115.54C579.416 127.704 565.228 144.992 556.85 165.22C548.471 185.447 546.279 207.705 550.55 229.178C554.822 250.651 565.364 270.375 580.846 285.857C596.327 301.338 616.051 311.881 637.525 316.152C658.998 320.423 681.255 318.231 701.483 309.853C721.71 301.474 738.998 287.286 751.162 269.082C763.325 250.878 769.818 229.476 769.818 207.582C769.785 178.233 758.111 150.096 737.359 129.344C716.606 108.591 688.469 96.9177 659.121 96.8845Z" fill="#CCCCCC"/>
<path d="M659.12 220.865C666.864 220.865 673.142 214.588 673.142 206.844C673.142 199.1 666.864 192.822 659.12 192.822C651.376 192.822 645.099 199.1 645.099 206.844C645.099 214.588 651.376 220.865 659.12 220.865Z" fill="#008E00"/>
<path d="M622.959 261.454C630.703 261.454 636.981 255.176 636.981 247.433C636.981 239.689 630.703 233.411 622.959 233.411C615.215 233.411 608.938 239.689 608.938 247.433C608.938 255.176 615.215 261.454 622.959 261.454Z" fill="#008E00"/>
<path d="M764.035 255.55C771.779 255.55 778.057 249.273 778.057 241.529C778.057 233.785 771.779 227.507 764.035 227.507C756.291 227.507 750.014 233.785 750.014 241.529C750.014 249.273 756.291 255.55 764.035 255.55Z" fill="#008E00"/>
<path d="M659.12 213.486C662.789 213.486 665.762 210.512 665.762 206.844C665.762 203.176 662.789 200.202 659.12 200.202C655.452 200.202 652.479 203.176 652.479 206.844C652.479 210.512 655.452 213.486 659.12 213.486Z" fill="#2F2E41"/>
<path d="M764.035 248.171C767.704 248.171 770.677 245.197 770.677 241.529C770.677 237.861 767.704 234.887 764.035 234.887C760.367 234.887 757.394 237.861 757.394 241.529C757.394 245.197 760.367 248.171 764.035 248.171Z" fill="#2F2E41"/>
<path d="M622.959 254.812C626.627 254.812 629.601 251.839 629.601 248.171C629.601 244.502 626.627 241.529 622.959 241.529C619.291 241.529 616.317 244.502 616.317 248.171C616.317 251.839 619.291 254.812 622.959 254.812Z" fill="#2F2E41"/>
<path d="M349.168 138.949C352.836 138.949 355.81 135.976 355.81 132.308C355.81 128.639 352.836 125.666 349.168 125.666C345.5 125.666 342.526 128.639 342.526 132.308C342.526 135.976 345.5 138.949 349.168 138.949Z" fill="#008E00"/>
<path d="M658.751 132.677H367.248V131.201H660.228V207.212H658.751V132.677Z" fill="#2F2E41"/>
<path d="M329.98 132.307C329.98 128.512 331.106 124.803 333.214 121.647C335.322 118.492 338.319 116.033 341.825 114.58C345.331 113.128 349.189 112.748 352.911 113.489C356.633 114.229 360.052 116.056 362.736 118.74C365.419 121.423 367.246 124.842 367.987 128.564C368.727 132.286 368.347 136.144 366.895 139.65C365.443 143.156 362.983 146.153 359.828 148.261C356.673 150.37 352.963 151.495 349.168 151.495C346.648 151.495 344.153 150.999 341.825 150.034C339.497 149.07 337.382 147.657 335.6 145.875C333.819 144.093 332.405 141.978 331.441 139.65C330.477 137.322 329.98 134.827 329.98 132.307ZM349.168 114.596C345.665 114.596 342.241 115.635 339.328 117.581C336.415 119.527 334.145 122.293 332.805 125.53C331.464 128.766 331.113 132.327 331.797 135.763C332.48 139.198 334.167 142.354 336.644 144.831C339.121 147.308 342.277 148.995 345.713 149.679C349.148 150.362 352.71 150.011 355.946 148.671C359.182 147.33 361.948 145.06 363.895 142.147C365.841 139.235 366.88 135.81 366.88 132.307C366.874 127.612 365.006 123.11 361.686 119.789C358.366 116.469 353.864 114.601 349.168 114.596Z" fill="#2F2E41"/>
<path d="M393.447 330.087C397.115 330.087 400.089 327.113 400.089 323.445C400.089 319.777 397.115 316.803 393.447 316.803C389.779 316.803 386.805 319.777 386.805 323.445C386.805 327.113 389.779 330.087 393.447 330.087Z" fill="#008E00"/>
<path d="M374.259 323.445C374.259 319.65 375.385 315.94 377.493 312.785C379.601 309.629 382.598 307.17 386.104 305.718C389.61 304.266 393.468 303.886 397.19 304.626C400.912 305.366 404.331 307.194 407.014 309.877C409.698 312.561 411.525 315.979 412.266 319.701C413.006 323.423 412.626 327.281 411.174 330.787C409.721 334.294 407.262 337.29 404.107 339.399C400.951 341.507 397.242 342.632 393.447 342.632C388.358 342.632 383.478 340.611 379.879 337.012C376.281 333.414 374.259 328.534 374.259 323.445ZM393.447 305.733C389.944 305.733 386.519 306.772 383.607 308.718C380.694 310.664 378.424 313.43 377.083 316.667C375.743 319.903 375.392 323.464 376.076 326.9C376.759 330.336 378.446 333.492 380.923 335.969C383.4 338.446 386.556 340.133 389.991 340.816C393.427 341.499 396.988 341.149 400.225 339.808C403.461 338.468 406.227 336.197 408.173 333.285C410.12 330.372 411.158 326.948 411.158 323.445C411.153 318.749 409.285 314.247 405.965 310.927C402.644 307.606 398.143 305.739 393.447 305.733Z" fill="#2F2E41"/>
<path d="M969.932 169.945C973.601 169.945 976.574 166.971 976.574 163.303C976.574 159.635 973.601 156.661 969.932 156.661C966.264 156.661 963.291 159.635 963.291 163.303C963.291 166.971 966.264 169.945 969.932 169.945Z" fill="#008E00"/>
<path d="M950.745 163.303C950.745 159.508 951.87 155.798 953.978 152.643C956.087 149.487 959.083 147.028 962.589 145.576C966.095 144.124 969.953 143.744 973.675 144.484C977.397 145.224 980.816 147.052 983.5 149.735C986.183 152.419 988.011 155.837 988.751 159.559C989.491 163.281 989.111 167.139 987.659 170.646C986.207 174.152 983.748 177.148 980.592 179.257C977.437 181.365 973.727 182.49 969.932 182.49C967.412 182.49 964.917 181.994 962.589 181.03C960.261 180.065 958.146 178.652 956.365 176.87C954.583 175.089 953.169 172.973 952.205 170.646C951.241 168.318 950.745 165.823 950.745 163.303ZM969.932 145.591C965.236 145.597 960.735 147.464 957.414 150.785C954.094 154.105 952.226 158.607 952.221 163.303C952.221 166.806 953.259 170.23 955.206 173.143C957.152 176.055 959.918 178.326 963.154 179.666C966.391 181.007 969.952 181.357 973.388 180.674C976.823 179.991 979.979 178.304 982.456 175.827C984.933 173.35 986.62 170.194 987.303 166.758C987.987 163.322 987.636 159.761 986.296 156.525C984.955 153.288 982.685 150.522 979.772 148.576C976.86 146.63 973.435 145.591 969.932 145.591Z" fill="#2F2E41"/>
<path d="M763.297 165.528L951.471 162.565L951.494 164.04L764.773 166.981V241.529H763.297V165.528Z" fill="#2F2E41"/>
<path d="M411.897 322.707H622.221V248.171H623.697V324.182H411.897V322.707Z" fill="#2F2E41"/>
<path d="M389.757 166.993H308.579V172.159H389.757V166.993Z" fill="#CCCCCC"/>
<path d="M389.757 181.752H308.579V186.918H389.757V181.752Z" fill="#CCCCCC"/>
<path d="M389.757 196.512H308.579V201.678H389.757V196.512Z" fill="#CCCCCC"/>
<path d="M434.036 358.13H352.858V363.296H434.036V358.13Z" fill="#CCCCCC"/>
<path d="M434.036 372.89H352.858V378.055H434.036V372.89Z" fill="#CCCCCC"/>
<path d="M434.036 387.649H352.858V392.815H434.036V387.649Z" fill="#CCCCCC"/>
<path d="M1010.52 198.726H929.343V203.892H1010.52V198.726Z" fill="#CCCCCC"/>
<path d="M1010.52 213.485H929.343V218.651H1010.52V213.485Z" fill="#CCCCCC"/>
<path d="M1010.52 228.245H929.343V233.411H1010.52V228.245Z" fill="#CCCCCC"/>
<path d="M57.4108 406.942L70.5614 411.642L94.9487 363.152L75.5384 356.215L57.4108 406.942Z" fill="#FFB8B8"/>
<path d="M91.9052 433.646L92.0971 433.11C93.6558 428.732 93.4145 423.914 91.426 419.714C89.4375 415.514 85.8642 412.274 81.4899 410.705L55.5902 401.449L49.4994 418.491L91.9052 433.646Z" fill="#2F2E41"/>
<path d="M142.93 419.95L156.896 419.948L163.54 366.079L142.927 366.08L142.93 419.95Z" fill="#FFB8B8"/>
<path d="M139.368 433.487L184.4 433.486V432.916C184.4 430.614 183.947 428.335 183.066 426.209C182.185 424.082 180.894 422.15 179.266 420.522C177.639 418.895 175.707 417.604 173.58 416.723C171.453 415.842 169.174 415.389 166.872 415.389L139.367 415.39L139.368 433.487Z" fill="#2F2E41"/>
<path d="M111.101 75.7951L117.175 63.7935C117.175 63.7935 139.801 69.4624 141.858 82.5763L111.101 75.7951Z" fill="#008E00"/>
<path d="M86.039 213.025L102.557 305.199L58.699 382.762L84.8999 393.014L129.327 317.829L135.023 297.324L138.441 404.406L162.071 403.688L172.905 303.7L155.528 210.747L86.039 213.025Z" fill="#2F2E41"/>
<path d="M164.931 229.653C165.443 227.371 166.914 157.688 166.914 157.688C166.914 157.688 142.62 77.9364 142.398 77.2811L142.311 77.0253L123.867 70.1101C123.609 69.9922 117.464 67.2544 112.435 69.5361C111.145 70.1637 110.008 71.0652 109.103 72.1777C108.198 73.2902 107.546 74.5869 107.194 75.9773C105.102 77.5359 90.0263 94.4232 90.0263 117.329L89.4572 171.382L76.8181 229.981L77.3768 230.1C77.722 230.174 93.1286 234.815 117.394 234.815C130.877 234.815 164.931 229.653 164.931 229.653Z" fill="#3F3D56"/>
<path d="M136.04 60.0146C122.272 60.0146 111.112 48.8538 111.112 35.0863C111.112 21.3187 122.272 10.158 136.04 10.158C149.807 10.158 160.968 21.3187 160.968 35.0863C160.968 48.8538 149.807 60.0146 136.04 60.0146Z" fill="#FFB8B8"/>
<path opacity="0.2" d="M100.526 144.91L144.137 205.76L150.578 177.343L100.526 144.91Z" fill="black"/>
<path d="M177.929 207.072C176.367 207.01 174.836 206.606 173.447 205.888C172.057 205.171 170.842 204.158 169.886 202.92C168.93 201.682 168.257 200.249 167.915 198.723C167.573 197.197 167.57 195.615 167.905 194.087L135.5 174.21L153.394 165.838L181.423 185.998C183.952 186.732 186.123 188.368 187.527 190.596C188.93 192.824 189.467 195.489 189.036 198.087C188.606 200.684 187.237 203.034 185.19 204.69C183.143 206.346 180.56 207.193 177.929 207.072Z" fill="#FFB8B8"/>
<path d="M155.529 166.319L166.627 174.096L157.214 190.811L144.137 179.989L155.529 166.319Z" fill="#008E00"/>
<path d="M161.339 166.809L135.233 136.549L145.235 94.8113C146.269 90.4979 145.697 85.9557 143.627 82.0327C141.558 78.1097 138.131 75.0741 133.987 73.4926C129.843 71.9112 125.265 71.892 121.108 73.4387C116.951 74.9854 113.498 77.9922 111.396 81.8977L111.169 82.3205L101.952 144.301L148.264 191.771L161.339 166.809Z" fill="#3F3D56"/>
<path d="M114.807 56.7298L135.497 57.4725C136.758 57.5178 140.181 43.9066 140.63 41.083C140.984 39.2447 141.995 37.5982 143.474 36.451C144.953 35.3038 146.8 34.7343 148.668 34.8489C150.217 34.9952 154.123 32.1016 158.153 28.6752C165.804 22.1703 165.406 9.9531 157.001 4.45647C156.772 4.30623 156.546 4.16904 156.325 4.04492C151.023 1.07716 144.82 0.080574 138.744 0.00456853C133.236 -0.0643171 127.572 0.628924 122.72 3.23595C114.02 7.90978 109.39 18.1234 108.984 27.9904C108.577 37.8574 111.74 47.5055 115.33 56.7055" fill="#2F2E41"/>
<path d="M1.13938 433.829H252.896C253.198 433.829 253.488 433.709 253.701 433.495C253.915 433.282 254.035 432.992 254.035 432.69C254.035 432.388 253.915 432.098 253.701 431.884C253.488 431.671 253.198 431.551 252.896 431.551H1.13938C0.837252 431.551 0.547516 431.671 0.33388 431.884C0.120244 432.098 0.000208378 432.388 0.000208378 432.69C0.000208378 432.992 0.120244 433.282 0.33388 433.495C0.547516 433.709 0.837252 433.829 1.13938 433.829Z" fill="#3F3D56"/>
</svg>
