<svg width="821" height="715" viewBox="0 0 821 715" fill="none" xmlns="http://www.w3.org/2000/svg">
<g clip-path="url(#clip0_3417_926)">
<path d="M229.899 559.819C229.495 561.944 229.01 564.048 228.445 566.13C228.384 566.372 228.315 566.61 228.247 566.852H220.384C219.714 566.852 219.072 567.119 218.599 567.592C218.125 568.066 217.859 568.708 217.858 569.377V591.792C217.62 592.236 217.378 592.676 217.137 593.117C215.888 595.39 214.589 597.638 213.261 599.857C191.609 635.924 161.41 666.106 125.33 687.738L127.466 682.917C126.683 682.863 125.896 682.809 125.113 682.755C108.064 681.589 90.9568 680.298 74.3079 676.465C56.8905 672.457 39.852 665.503 26.2017 653.975C12.5476 642.443 2.53819 625.974 1.14895 608.156C0.68571 602.033 1.30502 595.875 2.97849 589.967C6.17894 578.593 13.172 568.36 23.2609 562.305C39.1087 552.797 59.7809 554.735 76.4874 562.644C93.1903 570.55 106.787 583.638 120.062 596.498C106.659 573.514 87.997 554.035 65.6083 539.659C58.1895 534.911 50.3162 530.682 44.0088 524.529C37.705 518.381 33.0538 509.76 34.1689 501.025C35.4354 491.116 43.5506 483.596 51.6801 477.798C54.9276 475.481 58.2797 473.284 61.7366 471.263C71.4898 465.548 82.0406 461.236 93.1831 459.637C108.277 457.469 124.579 460.759 136.151 470.689C149.188 481.879 154.536 499.924 154.027 517.186C162.059 505.51 174.446 496.572 188.436 496.193C202.959 495.803 216.765 504.979 224.039 517.558C231.31 530.133 232.616 545.548 229.899 559.819Z" fill="#008E00" fill-opacity="0.47"/>
<path d="M138.011 608.313C146.517 607.564 154.375 606.689 162.618 604.356C170.608 602.095 178.297 598.31 183.985 592.13C190.102 585.483 193.405 576.851 195.735 568.257C197.034 563.466 198.101 558.608 199.109 553.748C200.201 548.475 201.172 543.179 202.022 537.859C203.712 527.271 204.919 516.62 205.642 505.906C205.729 504.606 205.809 503.305 205.882 502.003C205.927 501.201 204.679 501.203 204.634 502.003C204.04 512.564 202.971 523.083 201.428 533.561C199.905 543.856 197.956 554.106 195.484 564.216C193.389 572.781 190.678 581.479 185.306 588.609C180.269 595.295 172.994 599.664 165.139 602.276C157.145 604.935 148.717 605.996 140.364 606.785C139.339 606.882 139.036 606.974 138.01 607.064C137.216 607.134 137.209 608.384 138.011 608.313Z" fill="#0F0F0F"/>
<path d="M3.69886 590.888C14.4314 591.483 25.0547 593.355 35.3442 596.464C45.6382 599.567 55.5303 603.873 64.8158 609.292C73.7879 614.533 82.117 620.805 89.6339 627.979C96.9291 634.945 103.431 642.697 109.02 651.094C114.635 659.512 119.289 668.533 122.893 677.988C123.333 679.145 123.756 680.309 124.163 681.478C124.426 682.231 125.633 681.907 125.367 681.146C121.995 671.491 117.55 662.245 112.114 653.583C106.68 644.919 100.303 636.885 93.0982 629.626C85.7786 622.256 77.6323 615.755 68.8212 610.253C50.3209 598.728 29.3509 591.757 7.63319 589.91C6.32314 589.801 5.0117 589.71 3.69887 589.639C2.89602 589.595 2.89847 590.844 3.69886 590.888Z" fill="#0F0F0F"/>
<path d="M62.0736 472.727C68.9358 474.909 75.4402 478.087 81.3787 482.16C87.4468 486.35 92.981 491.265 97.8587 496.796C102.999 502.614 107.569 508.912 111.505 515.603C115.681 522.668 119.308 530.042 122.356 537.662C125.493 545.485 128.133 553.499 130.257 561.656C132.417 569.909 134.104 578.279 135.31 586.725C136.51 595.081 137.236 603.498 137.485 611.936C137.736 620.005 137.497 628.081 136.771 636.121C136.106 643.621 134.892 651.063 133.139 658.386C131.583 665.001 129.389 671.448 126.589 677.639C125.94 679.044 125.252 680.43 124.524 681.796C124.146 682.505 125.223 683.137 125.602 682.426C128.696 676.513 131.167 670.294 132.975 663.869C135.003 656.717 136.473 649.418 137.372 642.039C138.368 634.033 138.854 625.971 138.825 617.903C138.807 609.427 138.302 600.959 137.314 592.541C136.325 584.017 134.856 575.557 132.915 567.199C130.979 558.827 128.523 550.584 125.561 542.518C122.706 534.709 119.289 527.119 115.334 519.805C111.568 512.826 107.179 506.202 102.221 500.013C97.5125 494.12 92.1367 488.793 86.2015 484.138C80.4783 479.662 74.1541 476.014 67.4146 473.301C65.7677 472.646 64.098 472.053 62.4055 471.523C61.6373 471.281 61.3086 472.486 62.0736 472.727Z" fill="#0F0F0F"/>
<path d="M136.129 689.896C185.452 689.896 225.436 688.28 225.436 686.288C225.436 684.295 185.452 682.679 136.129 682.679C86.807 682.679 46.8232 684.295 46.8232 686.288C46.8232 688.28 86.807 689.896 136.129 689.896Z" fill="#252525"/>
<path d="M519.033 169.224H515.12V62.0368C515.12 53.89 513.516 45.823 510.398 38.2963C507.281 30.7696 502.711 23.9307 496.95 18.1701C491.19 12.4094 484.351 7.83984 476.824 4.72221C469.297 1.60458 461.23 -3.02037e-05 453.083 4.26382e-10H225.994C217.847 -2.88905e-05 209.78 1.60458 202.254 4.72221C194.727 7.83984 187.888 12.4094 182.127 18.1701C176.367 23.9308 171.797 30.7696 168.679 38.2963C165.562 45.823 163.957 53.89 163.957 62.0368V650.072C163.957 658.218 165.562 666.285 168.679 673.812C171.797 681.339 176.367 688.178 182.127 693.938C187.888 699.699 194.727 704.269 202.254 707.386C209.78 710.504 217.847 712.108 225.994 712.108H453.083C461.23 712.108 469.297 710.504 476.824 707.386C484.351 704.269 491.19 699.699 496.95 693.938C502.711 688.178 507.281 681.339 510.398 673.812C513.516 666.285 515.12 658.218 515.12 650.072V245.521H519.033L519.033 169.224Z" fill="#3F3D56"/>
<path d="M356.5 25H325.5C324.837 25 324.201 24.7366 323.732 24.2678C323.263 23.7989 323 23.163 323 22.5C323 21.837 323.263 21.2011 323.732 20.7322C324.201 20.2634 324.837 20 325.5 20H356.5C357.163 20 357.799 20.2634 358.268 20.7322C358.737 21.2011 359 21.837 359 22.5C359 23.163 358.737 23.7989 358.268 24.2678C357.799 24.7366 357.163 25 356.5 25Z" fill="black"/>
<path d="M370.5 24.5C371.605 24.5 372.5 23.6046 372.5 22.5C372.5 21.3954 371.605 20.5 370.5 20.5C369.395 20.5 368.5 21.3954 368.5 22.5C368.5 23.6046 369.395 24.5 370.5 24.5Z" fill="black"/>
<path d="M718.244 682.871H0.244141V684.871H718.244V682.871Z" fill="#3F3D56"/>
<path d="M257.84 6L254.979 12.9121C253.89 15.5426 253.475 18.3939 253.769 21.2148C254.062 24.0357 255.056 26.7472 256.668 29.1104C258.28 31.4741 260.464 33.4191 263.03 34.7666C265.597 36.1142 268.466 36.821 271.383 36.8213H405.599C408.515 36.8211 411.384 36.1142 413.951 34.7666C416.518 33.4191 418.701 31.4741 420.313 29.1104C421.925 26.7472 422.919 24.0357 423.213 21.2148C423.507 18.3938 423.093 15.5426 422.004 12.9121L419.142 6H457.204C464.127 5.99999 470.985 7.3433 477.385 9.95508C483.785 12.5669 489.604 16.3973 494.51 21.2305C499.416 26.064 503.311 31.8067 505.971 38.1318C508.63 44.457 510 51.239 510 58.0898V654.91C510 661.761 508.63 668.544 505.971 674.869C503.311 681.194 499.416 686.936 494.51 691.77C489.604 696.603 483.785 700.433 477.385 703.045C470.985 705.657 464.127 707 457.204 707H221.796C214.873 707 208.016 705.657 201.616 703.045C195.216 700.433 189.396 696.603 184.49 691.77C179.584 686.936 175.689 681.194 173.029 674.869C170.37 668.544 169 661.761 169 654.91V58.0898L169.004 57.4473C169.087 50.8152 170.453 44.2593 173.029 38.1318C175.689 31.8067 179.584 26.064 184.49 21.2305C189.396 16.3972 195.216 12.5669 201.616 9.95508C208.016 7.3434 214.873 5.99999 221.796 6H257.84Z" fill="#0E2E0E" stroke="#3F3D56" stroke-width="10"/>
<path d="M426.098 344.5L426.589 344.513C429.036 344.636 431.357 345.662 433.098 347.402C434.838 349.143 435.864 351.464 435.987 353.911L436 354.402V464.71C435.997 467.335 434.954 469.851 433.098 471.707C431.241 473.564 428.723 474.608 426.098 474.61H256.403C253.778 474.607 251.261 473.562 249.404 471.705C247.664 469.965 246.637 467.644 246.513 465.197L246.5 464.707V354.403C246.504 351.778 247.548 349.261 249.404 347.404C251.145 345.664 253.466 344.637 255.912 344.513L256.403 344.5H426.098Z" fill="black" fill-opacity="0.9" stroke="#1A1E1A" stroke-width="5"/>
<path d="M372.132 389.558C356.954 416.328 340.229 442.19 322.037 467.012H296.736C313.944 446.049 331.164 425.086 348.396 404.123L348.397 404.122C353.402 398.012 358.729 391.755 366.038 389.304L372.132 389.558Z" fill="#3F3D56" stroke="#1A1E1A"/>
<path d="M315.149 376.922C322.084 376.206 329.024 378.235 334.48 382.573L334.483 382.576C335.341 383.245 336.153 383.97 336.914 384.746C334.251 387.54 331.695 390.441 329.282 393.451C323.768 400.091 318.331 406.79 312.878 413.466C309.577 417.502 306.275 421.54 303.009 425.578C302.101 424.971 301.234 424.303 300.416 423.579L300.413 423.576L299.925 423.143C294.946 418.603 291.864 412.34 291.315 405.608C290.749 398.66 292.927 391.766 297.382 386.404C301.837 381.042 308.215 377.638 315.149 376.922Z" fill="#008E00" stroke="#1A1E1A"/>
<path d="M374.298 362.199C382.716 362.071 390.868 364.74 398.791 367.591V367.59C407.32 370.679 415.816 373.819 424.338 376.939L438 381.939V384.903L436.872 384.49L411.542 375.23H411.541C403.325 372.233 395.054 368.777 386.507 366.599H386.508C379.001 364.451 371.029 364.554 363.58 366.893L363.568 366.896L363.557 366.901C357.144 369.274 351.258 372.876 346.23 377.505L345.747 377.956C343.492 380.041 341.305 382.177 339.188 384.395L339.187 384.396C338.497 385.126 337.805 385.857 337.124 386.589L337.122 386.592C335.078 388.816 333.102 391.092 331.226 393.45C325.714 400.092 320.272 406.795 314.823 413.464C311.424 417.623 308.022 421.774 304.661 425.925C293.493 439.591 282.39 453.284 271.354 467.003C270.246 466.976 269.142 466.853 268.056 466.635C279.198 452.796 290.392 438.994 301.638 425.227V425.226C301.768 425.066 301.898 424.905 302.028 424.745C302.158 424.585 302.288 424.425 302.418 424.265L302.42 424.263C303.759 422.594 305.128 420.916 306.488 419.245L306.487 419.244C309.332 415.76 312.178 412.277 315.024 408.796L323.567 398.356C327.711 393.292 331.81 388.226 336.257 383.44L336.262 383.435L336.268 383.428C336.531 383.126 336.805 382.832 337.096 382.521C337.54 382.046 337.935 381.631 338.395 381.141C348.057 371.161 360.025 362.436 374.298 362.199Z" fill="#3F3D56" stroke="#1A1E1A"/>
<path d="M276 513.5H409.174C412.211 513.5 414.674 515.962 414.674 519V616.965C414.674 620.002 412.211 622.465 409.174 622.465H276C272.962 622.465 270.5 620.002 270.5 616.965V519C270.5 515.962 272.962 513.5 276 513.5Z" fill="#010501" stroke="#1A1E1A" stroke-width="5"/>
<path d="M349.743 578.918L310.172 589.108C308.829 589.452 307.405 589.25 306.212 588.545C305.019 587.841 304.154 586.691 303.807 585.35L291.84 538.878C291.496 537.535 291.698 536.111 292.402 534.918C293.107 533.725 294.256 532.86 295.598 532.513L332.412 523.033L341.835 527.251L353.501 572.551C353.846 573.893 353.644 575.318 352.939 576.512C352.234 577.705 351.085 578.571 349.743 578.918Z" fill="#3F3F3F"/>
<path d="M295.977 533.969C295.022 534.216 294.204 534.832 293.702 535.681C293.2 536.531 293.056 537.545 293.301 538.501L305.268 584.974C305.515 585.929 306.131 586.747 306.981 587.249C307.83 587.75 308.844 587.894 309.8 587.65L349.371 577.46C350.326 577.212 351.145 576.596 351.646 575.747C352.148 574.897 352.292 573.883 352.047 572.928L340.562 528.328L332.281 524.621L295.977 533.969Z" fill="#2F2F2F"/>
<path d="M341.734 527.49L335.61 529.067C335.163 529.182 334.688 529.115 334.29 528.88C333.893 528.645 333.605 528.262 333.49 527.815L332.325 523.292C332.32 523.272 332.32 523.251 332.326 523.232C332.333 523.212 332.344 523.195 332.36 523.182C332.375 523.169 332.394 523.16 332.414 523.157C332.434 523.154 332.455 523.157 332.474 523.165L341.75 527.285C341.769 527.295 341.784 527.31 341.794 527.329C341.805 527.348 341.809 527.369 341.807 527.39C341.806 527.412 341.798 527.432 341.784 527.449C341.771 527.466 341.753 527.478 341.733 527.485L341.734 527.49Z" fill="#717171"/>
<path d="M338.512 567.175L320.494 571.815C320.383 571.843 320.268 571.85 320.155 571.834C320.041 571.818 319.933 571.78 319.834 571.721C319.736 571.663 319.65 571.586 319.581 571.495C319.512 571.404 319.462 571.3 319.434 571.189C319.405 571.078 319.399 570.963 319.415 570.85C319.431 570.737 319.469 570.628 319.527 570.529C319.585 570.431 319.662 570.345 319.754 570.276C319.845 570.207 319.949 570.157 320.06 570.129L338.076 565.49C338.186 565.461 338.302 565.455 338.415 565.471C338.528 565.487 338.637 565.525 338.735 565.583C338.834 565.642 338.92 565.718 338.989 565.81C339.057 565.901 339.107 566.005 339.136 566.116C339.164 566.227 339.171 566.342 339.155 566.455C339.139 566.568 339.1 566.677 339.042 566.776C338.984 566.874 338.907 566.96 338.816 567.029C338.724 567.097 338.62 567.147 338.51 567.176L338.512 567.175Z" fill="#CCCCCC"/>
<path d="M342.722 569.124L321.229 574.656C321.006 574.714 320.768 574.68 320.569 574.563C320.371 574.445 320.227 574.254 320.169 574.03C320.112 573.807 320.145 573.569 320.263 573.371C320.38 573.172 320.572 573.028 320.795 572.97L342.288 567.435C342.512 567.378 342.749 567.411 342.948 567.529C343.147 567.646 343.291 567.838 343.348 568.061C343.406 568.285 343.372 568.522 343.255 568.721C343.137 568.92 342.946 569.064 342.722 569.121V569.124Z" fill="#CCCCCC"/>
<path d="M313.143 577.402C314.842 577.402 316.219 576.024 316.219 574.326C316.219 572.627 314.842 571.25 313.143 571.25C311.445 571.25 310.067 572.627 310.067 574.326C310.067 576.024 311.445 577.402 313.143 577.402Z" fill="#4C4C4C"/>
<path d="M336.595 559.124L312.668 565.283C311.977 565.459 311.244 565.354 310.63 564.991C310.015 564.628 309.569 564.037 309.389 563.347L304.376 543.865C304.2 543.173 304.305 542.44 304.668 541.826C305.031 541.211 305.622 540.766 306.312 540.586L330.239 534.427C330.931 534.251 331.664 534.356 332.278 534.718C332.893 535.081 333.339 535.672 333.518 536.363L338.532 555.842C338.709 556.534 338.605 557.268 338.242 557.883C337.879 558.498 337.287 558.944 336.595 559.124Z" fill="#0A0A0A"/>
<path d="M336.595 559.124L312.668 565.283C311.977 565.459 311.244 565.354 310.63 564.991C310.015 564.628 309.569 564.037 309.389 563.347L304.376 543.865C304.2 543.173 304.305 542.44 304.668 541.826C305.031 541.211 305.622 540.766 306.312 540.586L330.239 534.427C330.931 534.251 331.664 534.356 332.278 534.718C332.893 535.081 333.339 535.672 333.518 536.363L338.532 555.842C338.709 556.534 338.605 557.268 338.242 557.883C337.879 558.498 337.287 558.944 336.595 559.124ZM306.395 540.896C305.786 541.053 305.263 541.447 304.943 541.989C304.623 542.531 304.531 543.179 304.687 543.789L309.701 563.268C309.859 563.878 310.252 564.4 310.795 564.72C311.337 565.04 311.984 565.132 312.594 564.976L336.521 558.817C337.131 558.659 337.654 558.266 337.974 557.723C338.294 557.181 338.386 556.534 338.229 555.924L333.215 536.445C333.058 535.835 332.665 535.313 332.122 534.992C331.58 534.672 330.933 534.58 330.322 534.737L306.395 540.896Z" fill="#E6E6E6"/>
<path d="M329.025 540.98L316.949 544.088C316.843 544.117 316.73 544.106 316.633 544.055C316.536 544.005 316.461 543.919 316.425 543.816C316.408 543.762 316.402 543.705 316.407 543.648C316.413 543.592 316.43 543.538 316.458 543.488C316.485 543.439 316.522 543.395 316.567 543.361C316.612 543.326 316.663 543.301 316.718 543.287L329.01 540.123C329.51 540.375 329.376 540.889 329.024 540.98H329.025Z" fill="#F2F2F2"/>
<path d="M329.57 543.099L317.494 546.207C317.389 546.236 317.276 546.225 317.179 546.174C317.081 546.124 317.007 546.038 316.97 545.935C316.953 545.881 316.948 545.824 316.953 545.768C316.959 545.711 316.976 545.657 317.003 545.607C317.031 545.558 317.068 545.514 317.113 545.48C317.157 545.445 317.209 545.42 317.263 545.406L329.555 542.242C330.055 542.494 329.921 543.008 329.569 543.099H329.57Z" fill="#F2F2F2"/>
<path d="M315.195 548.084L311.51 549.033C311.39 549.064 311.262 549.046 311.155 548.982C311.048 548.919 310.971 548.816 310.94 548.696L309.819 544.347C309.788 544.226 309.807 544.099 309.87 543.992C309.933 543.884 310.036 543.807 310.156 543.776L313.841 542.827C313.962 542.796 314.09 542.814 314.197 542.877C314.304 542.94 314.381 543.043 314.412 543.164L315.532 547.513C315.563 547.633 315.545 547.761 315.482 547.868C315.419 547.975 315.316 548.053 315.195 548.084Z" fill="#E6E6E6"/>
<path d="M330.652 547.444L312.222 552.188C312.116 552.218 312.004 552.206 311.906 552.156C311.809 552.105 311.735 552.02 311.698 551.916C311.681 551.862 311.675 551.806 311.681 551.749C311.686 551.693 311.704 551.638 311.731 551.589C311.758 551.54 311.796 551.496 311.84 551.461C311.885 551.427 311.936 551.402 311.991 551.387L330.637 546.587C331.135 546.839 331.004 547.353 330.652 547.444Z" fill="#F2F2F2"/>
<path d="M331.198 549.564L312.768 554.308C312.662 554.337 312.55 554.325 312.452 554.275C312.355 554.224 312.281 554.139 312.244 554.036C312.227 553.982 312.221 553.925 312.227 553.868C312.232 553.812 312.249 553.758 312.277 553.708C312.304 553.659 312.341 553.615 312.386 553.581C312.431 553.546 312.482 553.521 312.537 553.507L331.183 548.707C331.68 548.954 331.55 549.473 331.198 549.564Z" fill="#F2F2F2"/>
<path d="M331.743 551.681L313.313 556.425C313.208 556.454 313.095 556.442 312.998 556.392C312.9 556.341 312.826 556.256 312.789 556.153C312.772 556.099 312.766 556.042 312.772 555.986C312.777 555.929 312.794 555.875 312.822 555.825C312.849 555.776 312.886 555.732 312.931 555.698C312.976 555.663 313.027 555.638 313.082 555.624L331.728 550.824C332.226 551.076 332.095 551.59 331.743 551.681Z" fill="#F2F2F2"/>
<path d="M332.289 553.798L313.859 558.542C313.753 558.572 313.64 558.56 313.543 558.509C313.446 558.459 313.371 558.373 313.335 558.27C313.318 558.216 313.312 558.159 313.318 558.103C313.323 558.047 313.34 557.992 313.368 557.943C313.395 557.893 313.432 557.85 313.477 557.815C313.522 557.78 313.573 557.755 313.628 557.741L332.274 552.941C332.774 553.193 332.642 553.707 332.289 553.798Z" fill="#F2F2F2"/>
<path d="M332.834 555.917L314.404 560.661C314.298 560.69 314.185 560.679 314.088 560.628C313.991 560.578 313.916 560.492 313.88 560.389C313.863 560.335 313.857 560.278 313.862 560.222C313.868 560.166 313.885 560.111 313.913 560.062C313.94 560.012 313.977 559.969 314.022 559.934C314.067 559.899 314.118 559.874 314.173 559.86L332.819 555.06C333.317 555.312 333.186 555.826 332.834 555.917Z" fill="#F2F2F2"/>
<path d="M313.369 575.399C313.303 575.416 313.233 575.411 313.169 575.385L312.331 575.03C312.292 575.013 312.257 574.989 312.228 574.959C312.198 574.929 312.175 574.894 312.159 574.855C312.143 574.815 312.135 574.774 312.136 574.731C312.136 574.689 312.145 574.648 312.161 574.609C312.178 574.57 312.202 574.535 312.232 574.505C312.262 574.476 312.297 574.452 312.337 574.437C312.376 574.421 312.417 574.413 312.46 574.413C312.502 574.414 312.543 574.422 312.582 574.439L313.125 574.67L313.837 572.996C313.854 572.957 313.878 572.922 313.908 572.892C313.938 572.863 313.973 572.839 314.013 572.824C314.052 572.808 314.093 572.8 314.136 572.8C314.178 572.801 314.219 572.809 314.258 572.826C314.336 572.859 314.398 572.922 314.43 573.001C314.462 573.08 314.461 573.168 314.428 573.247L313.591 575.215C313.572 575.26 313.542 575.301 313.505 575.333C313.467 575.365 313.423 575.388 313.375 575.4L313.369 575.399Z" fill="white"/>
<path d="M364.921 596.624H324.058C322.673 596.623 321.344 596.071 320.364 595.092C319.385 594.112 318.834 592.784 318.832 591.398V543.409C318.834 542.024 319.385 540.695 320.364 539.716C321.344 538.736 322.673 538.185 324.058 538.183H362.073L370.146 544.618V591.398C370.144 592.783 369.593 594.112 368.614 595.091C367.634 596.071 366.306 596.622 364.921 596.624Z" fill="#3F3F3F"/>
<path d="M324.062 539.689C323.075 539.69 322.129 540.083 321.431 540.78C320.733 541.478 320.341 542.424 320.34 543.411V591.4C320.341 592.387 320.733 593.333 321.431 594.031C322.129 594.728 323.075 595.121 324.062 595.122H364.924C365.911 595.121 366.857 594.728 367.555 594.031C368.252 593.333 368.645 592.387 368.646 591.4V545.344L361.551 539.689H324.062Z" fill="#2F2F2F"/>
<path d="M356.972 553.643H338.364C338.133 553.643 337.911 553.551 337.748 553.388C337.585 553.225 337.493 553.003 337.493 552.772C337.493 552.541 337.585 552.32 337.748 552.157C337.911 551.994 338.133 551.902 338.364 551.902H356.964C357.194 551.902 357.416 551.994 357.579 552.157C357.742 552.32 357.834 552.541 357.834 552.772C357.834 553.003 357.742 553.225 357.579 553.388C357.416 553.551 357.194 553.643 356.964 553.643H356.972Z" fill="#008E00"/>
<path d="M360.564 556.58H338.364C338.133 556.58 337.911 556.489 337.748 556.325C337.585 556.162 337.493 555.941 337.493 555.71C337.493 555.479 337.585 555.258 337.748 555.094C337.911 554.931 338.133 554.839 338.364 554.839H360.564C360.795 554.839 361.016 554.931 361.179 555.094C361.342 555.258 361.434 555.479 361.434 555.71C361.434 555.941 361.342 556.162 361.179 556.325C361.016 556.489 360.795 556.58 360.564 556.58Z" fill="#008E00"/>
<path d="M356.972 565.066H338.372C338.142 565.066 337.92 565.158 337.757 565.321C337.594 565.484 337.502 565.706 337.502 565.936C337.502 566.167 337.594 566.389 337.757 566.552C337.92 566.715 338.142 566.807 338.372 566.807H356.972C357.203 566.807 357.425 566.715 357.588 566.552C357.751 566.389 357.843 566.167 357.843 565.936C357.843 565.706 357.751 565.484 357.588 565.321C357.425 565.158 357.203 565.066 356.972 565.066Z" fill="#CCCCCC"/>
<path d="M360.56 568.003H338.37C338.139 568.003 337.917 568.095 337.754 568.258C337.591 568.422 337.499 568.643 337.499 568.874C337.499 569.105 337.591 569.326 337.754 569.489C337.917 569.653 338.139 569.744 338.37 569.744H360.56C360.79 569.744 361.012 569.653 361.175 569.489C361.338 569.326 361.43 569.105 361.43 568.874C361.43 568.643 361.338 568.422 361.175 568.258C361.012 568.095 360.79 568.003 360.56 568.003Z" fill="#CCCCCC"/>
<path d="M356.972 579.965H338.364C338.133 579.965 337.911 579.873 337.748 579.71C337.585 579.547 337.493 579.326 337.493 579.095C337.493 578.864 337.585 578.642 337.748 578.479C337.911 578.316 338.133 578.224 338.364 578.224H356.964C357.194 578.224 357.416 578.316 357.579 578.479C357.742 578.642 357.834 578.864 357.834 579.095C357.834 579.326 357.742 579.547 357.579 579.71C357.416 579.873 357.194 579.965 356.964 579.965H356.972Z" fill="#CCCCCC"/>
<path d="M360.564 582.907H338.364C338.133 582.907 337.911 582.815 337.748 582.652C337.585 582.488 337.493 582.267 337.493 582.036C337.493 581.805 337.585 581.584 337.748 581.421C337.911 581.257 338.133 581.166 338.364 581.166H360.564C360.795 581.166 361.016 581.257 361.179 581.421C361.342 581.584 361.434 581.805 361.434 582.036C361.434 582.267 361.342 582.488 361.179 582.652C361.016 582.815 360.795 582.907 360.564 582.907Z" fill="#CCCCCC"/>
<path d="M331.076 557.318C332.775 557.318 334.152 555.94 334.152 554.242C334.152 552.543 332.775 551.166 331.076 551.166C329.377 551.166 328 552.543 328 554.242C328 555.94 329.377 557.318 331.076 557.318Z" fill="#008E00"/>
<path d="M330.318 555.413C330.249 555.413 330.182 555.391 330.126 555.349L329.403 554.796C329.336 554.744 329.291 554.668 329.28 554.583C329.269 554.499 329.292 554.413 329.344 554.346C329.396 554.278 329.472 554.234 329.557 554.223C329.641 554.211 329.727 554.234 329.794 554.286L330.262 554.645L331.369 553.201C331.421 553.134 331.498 553.089 331.582 553.078C331.666 553.067 331.752 553.09 331.819 553.142C331.886 553.194 331.93 553.271 331.941 553.355C331.952 553.439 331.93 553.524 331.878 553.592L330.578 555.292C330.548 555.331 330.509 555.363 330.465 555.385C330.42 555.406 330.372 555.417 330.322 555.417L330.318 555.413Z" fill="white"/>
<path d="M334.152 567.074C334.152 567.478 334.073 567.878 333.918 568.251C333.764 568.625 333.537 568.964 333.251 569.25C332.966 569.535 332.627 569.762 332.253 569.917C331.88 570.071 331.48 570.151 331.076 570.151C331.05 570.153 331.023 570.153 330.997 570.151C330.392 570.135 329.805 569.942 329.31 569.594C328.815 569.247 328.433 568.761 328.212 568.198C327.991 567.635 327.942 567.019 328.069 566.427C328.197 565.836 328.496 565.295 328.929 564.873C329.363 564.451 329.911 564.166 330.506 564.053C331.1 563.941 331.715 564.007 332.272 564.242C332.829 564.477 333.305 564.872 333.64 565.376C333.974 565.88 334.152 566.472 334.152 567.077V567.074Z" fill="#008E00"/>
<path d="M330.622 583.644C332.321 583.644 333.698 582.267 333.698 580.568C333.698 578.869 332.321 577.492 330.622 577.492C328.923 577.492 327.546 578.869 327.546 580.568C327.546 582.267 328.923 583.644 330.622 583.644Z" fill="#4C4C4C"/>
<path d="M369.99 544.824H363.663C363.201 544.824 362.758 544.641 362.432 544.314C362.105 543.988 361.922 543.545 361.922 543.083V538.412C361.922 538.392 361.928 538.372 361.939 538.355C361.95 538.338 361.965 538.324 361.983 538.315C362.002 538.306 362.022 538.303 362.042 538.305C362.063 538.307 362.082 538.315 362.098 538.327L370.054 544.627C370.071 544.641 370.084 544.661 370.09 544.682C370.097 544.704 370.096 544.727 370.089 544.748C370.081 544.77 370.067 544.788 370.049 544.801C370.03 544.814 370.008 544.821 369.986 544.821L369.99 544.824Z" fill="#717171"/>
<path d="M343.685 568.003C343.685 568.591 343.607 569.177 343.454 569.744H338.37C338.139 569.744 337.917 569.653 337.754 569.489C337.591 569.326 337.499 569.105 337.499 568.874C337.499 568.643 337.591 568.422 337.754 568.258C337.917 568.095 338.139 568.003 338.37 568.003H343.685Z" fill="#008E00"/>
<path d="M393.238 612.095C393.117 612.292 392.96 612.463 392.773 612.599C392.587 612.735 392.376 612.833 392.152 612.888C391.928 612.942 391.695 612.952 391.467 612.916C391.239 612.88 391.02 612.8 390.824 612.68L370.334 600.18C369.936 599.938 369.65 599.547 369.541 599.094C369.431 598.641 369.505 598.163 369.748 597.766C369.991 597.368 370.381 597.083 370.834 596.973C371.287 596.863 371.765 596.938 372.163 597.18L392.653 609.68C392.85 609.8 393.021 609.958 393.157 610.144C393.293 610.331 393.391 610.542 393.446 610.766C393.5 610.991 393.51 611.223 393.474 611.451C393.438 611.679 393.358 611.898 393.238 612.095Z" fill="#3F3D56"/>
<path d="M372.748 599.598C371.301 601.97 369.183 603.86 366.662 605.029C364.141 606.198 361.33 606.593 358.584 606.164C355.839 605.735 353.282 604.501 351.237 602.619C349.193 600.737 347.752 598.291 347.098 595.59C346.444 592.889 346.605 590.055 347.562 587.446C348.518 584.837 350.227 582.57 352.472 580.932C354.717 579.294 357.397 578.359 360.173 578.244C362.95 578.129 365.698 578.84 368.07 580.288C371.251 582.228 373.531 585.353 374.408 588.974C375.285 592.595 374.688 596.417 372.748 599.598ZM351.758 586.798C350.673 588.577 350.14 590.638 350.226 592.72C350.312 594.802 351.014 596.812 352.243 598.496C353.471 600.179 355.171 601.46 357.128 602.178C359.084 602.895 361.21 603.016 363.235 602.525C365.261 602.034 367.095 600.954 368.507 599.421C369.918 597.887 370.843 595.97 371.165 593.911C371.487 591.852 371.191 589.744 370.314 587.853C369.438 585.962 368.02 584.374 366.241 583.289C365.06 582.568 363.748 582.087 362.381 581.874C361.014 581.66 359.618 581.718 358.273 582.044C356.928 582.369 355.661 582.957 354.543 583.773C353.425 584.588 352.479 585.616 351.758 586.798Z" fill="#3F3D56"/>
<path d="M71.5624 684.765L70.4891 684.363C70.2533 684.274 46.7806 675.281 35.785 654.889C24.7889 634.497 30.1732 609.944 30.2289 609.699L30.4823 608.581L31.5551 608.983C31.7909 609.072 55.2631 618.065 66.2592 638.457C77.2553 658.849 71.871 683.402 71.8153 683.647L71.5624 684.765ZM37.5458 653.94C46.8422 671.181 65.391 680.019 70.0907 682.037C70.9843 677 73.7865 656.63 64.4984 639.406C55.2113 622.183 36.6551 613.332 31.9535 611.309C31.0594 616.349 28.2582 636.716 37.5458 653.94Z" fill="#3F3D56"/>
<path d="M44.1883 647.736C63.9489 659.625 71.5594 683.239 71.5594 683.239C71.5594 683.239 47.1315 687.578 27.371 675.689C7.61043 663.801 0 640.186 0 640.186C0 640.186 24.4278 635.848 44.1883 647.736Z" fill="#008E00"/>
<path d="M258.962 230H215V240.583H258.962V230Z" fill="white" fill-opacity="0.7"/>
<path d="M409.468 230H394V240.583H409.468V230Z" fill="white" fill-opacity="0.7"/>
<path d="M439.468 230H424V240.583H439.468V230Z" fill="white" fill-opacity="0.7"/>
<path d="M379.019 230H274V240.583H379.019V230Z" fill="white" fill-opacity="0.7"/>
<path d="M379.507 298.272H364.039V308.855H379.507V298.272Z" fill="white" fill-opacity="0.7"/>
<path d="M410.443 298.272H394.975V308.855H410.443V298.272Z" fill="white" fill-opacity="0.7"/>
<path d="M347.758 298.272H242.738V308.855H347.758V298.272Z" fill="white" fill-opacity="0.7"/>
<path d="M408.962 253H365V263.583H408.962V253Z" fill="white" fill-opacity="0.7"/>
<path d="M467.962 253H424V263.583H467.962V253Z" fill="white" fill-opacity="0.7"/>
<path d="M229.712 253H214.244V263.583H229.712V253Z" fill="white" fill-opacity="0.7"/>
<path d="M350.019 253H245V263.583H350.019V253Z" fill="white" fill-opacity="0.7"/>
<path d="M273.038 287H317V276.417H273.038V287Z" fill="white" fill-opacity="0.7"/>
<path d="M215.038 287H259V276.417H215.038V287Z" fill="white" fill-opacity="0.7"/>
<path d="M452.776 286.875H468.244V276.291H452.776V286.875Z" fill="white" fill-opacity="0.7"/>
<path d="M331.981 287H437V276.417H331.981V287Z" fill="white" fill-opacity="0.7"/>
<path d="M341 197C370.823 197 395 172.823 395 143C395 113.177 370.823 89 341 89C311.177 89 287 113.177 287 143C287 172.823 311.177 197 341 197Z" fill="#070600"/>
<path d="M320.488 157.174L321.223 160.112C322.154 163.932 324.188 165.891 328.231 165.891H354.622C358.69 165.891 360.699 163.981 361.655 160.112L362.39 157.174H320.488ZM319.679 153.82H363.223L367.83 134.967L365.82 133.817L354.524 142.043C353.691 142.631 353.127 142.41 352.662 141.749L342.027 125.688L340.851 125.639L330.118 141.823C329.701 142.459 329.211 142.655 328.378 142.068L317.302 133.988L314.95 134.6L319.679 153.82ZM315.856 139.864C319.091 139.864 321.688 137.244 321.688 133.988C321.688 130.805 319.091 128.161 315.856 128.161C312.622 128.161 310 130.781 310 133.988C310 137.244 312.646 139.864 315.856 139.864ZM341.439 129.679C344.649 129.679 347.271 127.059 347.271 123.827C347.271 120.644 344.649 118 341.439 118C338.18 118 335.582 120.62 335.582 123.827C335.582 127.059 338.204 129.679 341.439 129.679ZM366.996 139.864C370.206 139.864 372.853 137.244 372.853 133.988C372.853 130.781 370.231 128.161 366.996 128.161C363.786 128.161 361.164 130.805 361.164 133.988C361.164 137.244 363.786 139.864 366.996 139.864Z" fill="#FFD61E"/>
<path d="M599.414 217.483C587.807 197.871 564.843 196.957 564.843 196.957C564.843 196.957 542.467 194.096 528.112 223.965C514.733 251.806 496.268 278.687 525.14 285.204L530.355 268.973L533.584 286.413C537.695 286.708 541.819 286.779 545.938 286.624C576.857 285.626 606.303 286.916 605.355 275.821C604.095 261.071 610.582 236.354 599.414 217.483Z" fill="#2F2E41"/>
<path d="M557.615 254.417C557.615 254.417 572.615 275.417 563.615 292.417C554.615 309.417 584.615 327.417 584.615 327.417L606.615 279.417C606.615 279.417 580.615 262.417 587.615 246.417L557.615 254.417Z" fill="#FBBEBE"/>
<path d="M567.615 263.417C581.975 263.417 593.615 251.777 593.615 237.417C593.615 223.058 581.975 211.417 567.615 211.417C553.256 211.417 541.615 223.058 541.615 237.417C541.615 251.777 553.256 263.417 567.615 263.417Z" fill="#FBBEBE"/>
<path d="M477.635 267.473L499.363 239.439C499.363 239.439 507.013 210.054 518.094 211.544C529.175 213.034 513.717 246.784 513.717 246.784L492.128 277.814L477.635 267.473Z" fill="#FBBEBE"/>
<path d="M587.615 640.417L594.615 677.417L609.615 681.417L605.615 637.417L587.615 640.417Z" fill="#FBBEBE"/>
<path d="M738.615 600.417L765.615 637.417L776.615 642.417L785.615 627.417L758.615 592.417L738.615 600.417Z" fill="#FBBEBE"/>
<path d="M581.615 311.417L564.934 289.458C564.934 289.458 532.615 295.417 529.615 298.417C526.615 301.417 537.615 356.417 537.615 356.417C537.615 356.417 539.615 371.417 548.615 379.417L557.615 385.417L631.615 370.417L634.398 337.492C635.411 325.499 633.908 313.427 629.985 302.048C626.062 290.67 619.805 280.237 611.615 271.417L598.739 273.178L581.615 311.417Z" fill="#005D00"/>
<path d="M533.615 300.417L528.615 298.417L505.615 296.417C505.615 296.417 497.615 294.417 499.615 290.417C501.615 286.417 503.615 285.417 499.615 284.417C495.615 283.417 494.615 282.417 495.615 279.417C496.615 276.417 502.615 270.417 502.615 270.417L485.615 256.417C485.615 256.417 484.695 257.068 483.207 258.272C474.767 265.106 448.06 289.762 467.615 314.417C490.615 343.417 517.615 360.417 539.615 354.417L533.615 300.417Z" fill="#005D00"/>
<path d="M555.615 380.417V394.417C555.615 394.417 546.615 411.418 549.615 427.418C552.615 443.418 553.615 451.418 553.615 451.418C553.942 465.025 556.301 478.508 560.615 491.418C567.615 511.418 544.615 642.418 573.615 644.418C602.615 646.418 618.615 648.418 627.615 638.418C636.615 628.418 612.615 456.418 612.615 456.418C612.615 456.418 694.615 627.418 711.615 620.418C728.615 613.418 771.615 597.418 766.615 588.418C761.615 579.418 635.615 379.417 635.615 379.417L631.615 370.417L555.615 380.417Z" fill="#2F2E41"/>
<path d="M603.615 670.418C603.615 670.418 587.615 669.418 587.615 674.418C587.615 679.418 579.615 696.418 579.615 696.418C579.615 696.418 573.615 716.418 589.615 714.418C605.615 712.418 615.615 694.418 615.615 694.418L611.615 675.418L603.615 670.418Z" fill="#2F2E41"/>
<path d="M770.615 635.418C770.615 635.418 756.615 626.418 757.615 632.418C758.615 638.418 759.615 654.418 766.615 655.418C773.615 656.418 794.615 662.418 795.615 664.418C796.615 666.418 820.615 674.418 820.615 661.418C820.615 648.418 805.615 638.418 805.615 638.418L788.615 625.418C788.615 625.418 777.615 624.418 775.615 631.418C773.615 638.418 770.615 635.418 770.615 635.418Z" fill="#2F2E41"/>
<path d="M567.655 213.661C576.825 213.661 584.258 206.227 584.258 197.057C584.258 187.887 576.825 180.453 567.655 180.453C558.485 180.453 551.051 187.887 551.051 197.057C551.051 206.227 558.485 213.661 567.655 213.661Z" fill="#2F2E41"/>
<path d="M549.303 192.687C549.303 188.587 550.821 184.631 553.564 181.583C556.307 178.534 560.081 176.609 564.159 176.177C561.843 175.93 559.501 176.174 557.286 176.891C555.07 177.608 553.031 178.784 551.299 180.341C549.567 181.898 548.183 183.802 547.235 185.929C546.287 188.056 545.797 190.359 545.797 192.687C545.797 195.016 546.287 197.319 547.235 199.446C548.183 201.573 549.567 203.477 551.299 205.034C553.031 206.591 555.07 207.766 557.286 208.484C559.501 209.201 561.843 209.444 564.159 209.198C560.081 208.766 556.307 206.84 553.564 203.792C550.821 200.744 549.303 196.788 549.303 192.687Z" fill="#2F2E41"/>
<path d="M594.282 215.593L571.596 203.709L540.266 208.571L533.785 237.199L549.92 236.579L554.428 226.061V236.405L561.873 236.119L566.194 219.374L568.895 237.199L595.363 236.659L594.282 215.593Z" fill="#2F2E41"/>
<path d="M592.924 382.734L557.936 383.68C557.936 383.68 528.082 389.489 529.757 377.439C531.432 365.39 560.557 369.604 560.557 369.604L592.437 364.741L592.924 382.734Z" fill="#FBBEBE"/>
<path d="M620.606 269.722C622.365 269.456 624.16 269.826 625.67 270.766C627.18 271.707 628.305 273.155 628.842 274.85C635.691 296.434 656.793 368.664 635.827 378.573C611.134 390.245 593.113 389.732 593.113 389.732L583.468 365.984L592.248 357.743L601.623 297.468L606.115 271.917L620.606 269.722Z" fill="#005D00"/>
<path opacity="0.4" d="M614.115 309.917L610.115 349.917L575.115 364.917L614.115 355.917V309.917Z" fill="black"/>
<path d="M232 36H205C203.674 36 202.402 35.4732 201.464 34.5355C200.527 33.5979 200 32.3261 200 31C200 29.6739 200.527 28.4021 201.464 27.4645C202.402 26.5268 203.674 26 205 26H232C233.326 26 234.598 26.5268 235.536 27.4645C236.473 28.4021 237 29.6739 237 31C237 32.3261 236.473 33.5979 235.536 34.5355C234.598 35.4732 233.326 36 232 36Z" fill="#034903"/>
<path d="M446.5 35C448.985 35 451 32.9853 451 30.5C451 28.0147 448.985 26 446.5 26C444.015 26 442 28.0147 442 30.5C442 32.9853 444.015 35 446.5 35Z" fill="#034903"/>
<path d="M460.5 35C462.985 35 465 32.9853 465 30.5C465 28.0147 462.985 26 460.5 26C458.015 26 456 28.0147 456 30.5C456 32.9853 458.015 35 460.5 35Z" fill="#034903"/>
<path d="M474.5 35C476.985 35 479 32.9853 479 30.5C479 28.0147 476.985 26 474.5 26C472.015 26 470 28.0147 470 30.5C470 32.9853 472.015 35 474.5 35Z" fill="#034903"/>
</g>
<defs>
<clipPath id="clip0_3417_926">
<rect width="820.615" height="714.558" fill="white"/>
</clipPath>
</defs>
</svg>
