<svg width="1000" height="800" viewBox="0 0 1000 800" fill="none" xmlns="http://www.w3.org/2000/svg">
<g clip-path="url(#clip0_3426_99)">
<path d="M389.899 602.819C389.495 604.944 389.01 607.048 388.445 609.13C388.384 609.372 388.315 609.61 388.247 609.852H380.384C379.714 609.852 379.072 610.119 378.599 610.592C378.125 611.066 377.859 611.708 377.858 612.377V634.792C377.62 635.236 377.378 635.676 377.137 636.117C375.888 638.39 374.589 640.638 373.261 642.857C351.609 678.924 321.41 709.106 285.33 730.738L287.466 725.917C286.683 725.863 285.896 725.809 285.113 725.755C268.064 724.589 250.957 723.298 234.308 719.465C216.89 715.457 199.852 708.503 186.202 696.975C172.548 685.443 162.538 668.974 161.149 651.156C160.686 645.033 161.305 638.875 162.978 632.967C166.179 621.593 173.172 611.36 183.261 605.305C199.109 595.797 219.781 597.735 236.487 605.644C253.19 613.55 266.787 626.638 280.062 639.498C266.659 616.514 247.997 597.035 225.608 582.659C218.19 577.911 210.316 573.682 204.009 567.529C197.705 561.381 193.054 552.76 194.169 544.025C195.435 534.116 203.551 526.596 211.68 520.798C214.928 518.481 218.28 516.284 221.737 514.263C231.49 508.548 242.041 504.236 253.183 502.637C268.277 500.469 284.579 503.759 296.151 513.689C309.188 524.879 314.536 542.924 314.027 560.186C322.059 548.51 334.446 539.572 348.436 539.193C362.959 538.803 376.765 547.979 384.039 560.558C391.31 573.133 392.616 588.548 389.899 602.819Z" fill="#008E00" fill-opacity="0.47"/>
<path d="M298.011 651.313C306.517 650.564 314.375 649.689 322.618 647.356C330.608 645.095 338.297 641.311 343.985 635.13C350.102 628.483 353.405 619.851 355.735 611.257C357.034 606.466 358.101 601.608 359.109 596.748C360.201 591.475 361.172 586.179 362.022 580.86C363.712 570.271 364.919 559.62 365.642 548.906C365.729 547.606 365.809 546.305 365.882 545.004C365.927 544.201 364.679 544.203 364.634 545.004C364.04 555.564 362.971 566.083 361.428 576.561C359.905 586.856 357.956 597.106 355.484 607.216C353.389 615.781 350.678 624.479 345.306 631.609C340.269 638.295 332.994 642.664 325.139 645.277C317.145 647.935 308.717 648.996 300.364 649.785C299.339 649.882 299.036 649.974 298.01 650.065C297.216 650.135 297.209 651.384 298.011 651.313Z" fill="#0F0F0F"/>
<path d="M163.699 633.888C174.431 634.483 185.055 636.355 195.344 639.464C205.638 642.567 215.53 646.873 224.816 652.292C233.788 657.533 242.117 663.804 249.634 670.978C256.929 677.945 263.431 685.697 269.02 694.094C274.635 702.512 279.289 711.533 282.893 720.988C283.333 722.145 283.756 723.308 284.163 724.477C284.426 725.231 285.633 724.907 285.367 724.145C281.995 714.491 277.55 705.245 272.114 696.582C266.68 687.919 260.303 679.885 253.098 672.626C245.779 665.255 237.632 658.754 228.821 653.252C210.321 641.728 189.351 634.757 167.633 632.91C166.323 632.8 165.012 632.71 163.699 632.639C162.896 632.595 162.898 633.844 163.699 633.888Z" fill="#0F0F0F"/>
<path d="M222.074 515.727C228.936 517.909 235.44 521.088 241.379 525.16C247.447 529.351 252.981 534.265 257.859 539.796C262.999 545.614 267.569 551.912 271.505 558.603C275.681 565.668 279.308 573.043 282.356 580.663C285.493 588.486 288.133 596.5 290.257 604.656C292.417 612.91 294.104 621.28 295.31 629.725C296.51 638.081 297.236 646.498 297.485 654.936C297.736 663.005 297.497 671.081 296.771 679.121C296.106 686.622 294.892 694.064 293.139 701.387C291.583 708.001 289.389 714.449 286.589 720.64C285.94 722.045 285.252 723.43 284.524 724.797C284.146 725.505 285.223 726.137 285.602 725.427C288.696 719.513 291.167 713.294 292.975 706.869C295.003 699.717 296.473 692.419 297.372 685.039C298.368 677.033 298.854 668.971 298.825 660.903C298.807 652.427 298.302 643.959 297.314 635.541C296.325 627.018 294.856 618.557 292.915 610.199C290.979 601.827 288.523 593.584 285.561 585.518C282.706 577.71 279.289 570.119 275.334 562.805C271.568 555.827 267.179 549.202 262.221 543.013C257.512 537.121 252.137 531.793 246.201 527.138C240.478 522.663 234.154 519.015 227.415 516.301C225.768 515.646 224.098 515.053 222.406 514.523C221.637 514.281 221.309 515.486 222.074 515.727Z" fill="#0F0F0F"/>
<path d="M296.129 732.896C345.452 732.896 385.436 731.28 385.436 729.287C385.436 727.294 345.452 725.679 296.129 725.679C246.807 725.679 206.823 727.294 206.823 729.287C206.823 731.28 246.807 732.896 296.129 732.896Z" fill="#252525"/>
<path d="M679.033 212.224H675.12V105.037C675.12 96.89 673.516 88.823 670.398 81.2963C667.281 73.7696 662.711 66.9307 656.95 61.1701C651.19 55.4094 644.351 50.8398 636.824 47.7222C629.297 44.6046 621.23 43 613.083 43H385.994C377.847 43 369.78 44.6046 362.254 47.7222C354.727 50.8398 347.888 55.4094 342.127 61.1701C336.367 66.9308 331.797 73.7696 328.679 81.2963C325.562 88.823 323.957 96.89 323.957 105.037V693.072C323.957 701.218 325.562 709.285 328.679 716.812C331.797 724.339 336.367 731.178 342.127 736.938C347.888 742.699 354.727 747.269 362.254 750.386C369.78 753.504 377.847 755.108 385.994 755.108H613.083C621.23 755.108 629.297 753.504 636.824 750.386C644.351 747.269 651.19 742.699 656.95 736.938C662.711 731.178 667.281 724.339 670.398 716.812C673.516 709.285 675.12 701.218 675.12 693.072V288.521H679.033L679.033 212.224Z" fill="#3F3D56"/>
<path d="M516.5 68H485.5C484.837 68 484.201 67.7366 483.732 67.2678C483.263 66.7989 483 66.163 483 65.5C483 64.837 483.263 64.2011 483.732 63.7322C484.201 63.2634 484.837 63 485.5 63H516.5C517.163 63 517.799 63.2634 518.268 63.7322C518.737 64.2011 519 64.837 519 65.5C519 66.163 518.737 66.7989 518.268 67.2678C517.799 67.7366 517.163 68 516.5 68Z" fill="black"/>
<path d="M530.5 67.5C531.605 67.5 532.5 66.6046 532.5 65.5C532.5 64.3954 531.605 63.5 530.5 63.5C529.395 63.5 528.5 64.3954 528.5 65.5C528.5 66.6046 529.395 67.5 530.5 67.5Z" fill="black"/>
<path d="M878.244 725.871H160.244V727.871H878.244V725.871Z" fill="#3F3D56"/>
<path d="M417.84 49L414.979 55.9121C413.89 58.5426 413.475 61.3939 413.769 64.2148C414.062 67.0357 415.056 69.7472 416.668 72.1104C418.28 74.4741 420.464 76.4191 423.03 77.7666C425.597 79.1142 428.466 79.821 431.383 79.8213H565.599C568.515 79.8211 571.384 79.1142 573.951 77.7666C576.518 76.4191 578.701 74.4741 580.313 72.1104C581.925 69.7472 582.919 67.0357 583.213 64.2148C583.507 61.3938 583.093 58.5426 582.004 55.9121L579.142 49H617.204C624.127 49 630.985 50.3433 637.385 52.9551C643.785 55.5669 649.604 59.3973 654.51 64.2305C659.416 69.064 663.311 74.8067 665.971 81.1318C668.63 87.457 670 94.239 670 101.09V697.91C670 704.761 668.63 711.544 665.971 717.869C663.311 724.194 659.416 729.936 654.51 734.77C649.604 739.603 643.785 743.433 637.385 746.045C630.985 748.657 624.127 750 617.204 750H381.796C374.873 750 368.016 748.657 361.616 746.045C355.216 743.433 349.396 739.603 344.49 734.77C339.584 729.936 335.689 724.194 333.029 717.869C330.37 711.544 329 704.761 329 697.91V101.09L329.004 100.447C329.087 93.8152 330.453 87.2593 333.029 81.1318C335.689 74.8067 339.584 69.064 344.49 64.2305C349.396 59.3972 355.216 55.5669 361.616 52.9551C368.016 50.3434 374.873 49 381.796 49H417.84Z" fill="#0E2E0E" stroke="#3F3D56" stroke-width="10"/>
<path d="M586.098 387.5L586.589 387.513C589.036 387.636 591.357 388.662 593.098 390.402C594.838 392.143 595.864 394.464 595.987 396.911L596 397.402V507.71C595.997 510.335 594.954 512.851 593.098 514.707C591.241 516.564 588.723 517.608 586.098 517.61H416.403C413.778 517.607 411.261 516.562 409.404 514.705C407.664 512.965 406.637 510.644 406.513 508.197L406.5 507.707V397.403C406.504 394.778 407.548 392.261 409.404 390.404C411.145 388.664 413.466 387.637 415.912 387.513L416.403 387.5H586.098Z" fill="black" fill-opacity="0.9" stroke="#1A1E1A" stroke-width="5"/>
<path d="M532.132 432.558C516.954 459.328 500.229 485.19 482.037 510.012H456.736C473.944 489.049 491.164 468.086 508.396 447.123L508.397 447.122C513.402 441.012 518.729 434.755 526.038 432.304L532.132 432.558Z" fill="#3F3D56" stroke="#1A1E1A"/>
<path d="M475.149 419.922C482.084 419.206 489.024 421.234 494.48 425.573L494.483 425.576C495.341 426.245 496.153 426.97 496.914 427.746C494.251 430.539 491.695 433.44 489.282 436.451C483.768 443.091 478.331 449.79 472.878 456.466C469.577 460.502 466.275 464.54 463.009 468.578C462.101 467.971 461.234 467.303 460.416 466.579L460.413 466.576L459.925 466.142C454.946 461.603 451.864 455.339 451.315 448.608C450.749 441.66 452.927 434.766 457.382 429.404C461.837 424.042 468.215 420.638 475.149 419.922Z" fill="#008E00" stroke="#1A1E1A"/>
<path d="M534.298 405.199C542.716 405.071 550.868 407.74 558.791 410.591V410.59C567.32 413.68 575.816 416.819 584.338 419.94L598 424.94V427.904L596.872 427.49L571.542 418.231H571.541C563.325 415.233 555.054 411.777 546.507 409.599H546.508C539.001 407.452 531.029 407.554 523.58 409.893L523.568 409.897L523.557 409.902C517.144 412.274 511.258 415.877 506.23 420.505L505.747 420.956C503.492 423.041 501.305 425.178 499.188 427.395L499.187 427.397C498.497 428.126 497.805 428.858 497.124 429.589L497.122 429.592C495.078 431.816 493.102 434.092 491.226 436.45C485.714 443.092 480.272 449.796 474.823 456.464C471.424 460.623 468.022 464.774 464.661 468.925C453.493 482.592 442.39 496.284 431.354 510.003C430.246 509.977 429.142 509.854 428.056 509.635C439.198 495.797 450.392 481.994 461.638 468.227V468.226C461.768 468.066 461.898 467.905 462.028 467.745C462.158 467.585 462.288 467.425 462.418 467.265L462.42 467.263C463.759 465.595 465.128 463.916 466.488 462.245L466.487 462.244C469.332 458.76 472.178 455.277 475.024 451.796L483.567 441.357C487.711 436.293 491.81 431.227 496.257 426.441L496.262 426.435L496.268 426.428C496.531 426.126 496.805 425.832 497.096 425.522C497.54 425.046 497.935 424.632 498.395 424.141C508.057 414.161 520.025 405.436 534.298 405.199Z" fill="#3F3D56" stroke="#1A1E1A"/>
<path d="M436 556.5H569.174C572.211 556.5 574.674 558.962 574.674 562V659.965C574.674 663.002 572.211 665.465 569.174 665.465H436C432.962 665.465 430.5 663.002 430.5 659.965V562C430.5 558.962 432.962 556.5 436 556.5Z" fill="#010501" stroke="#1A1E1A" stroke-width="5"/>
<path d="M509.743 621.918L470.172 632.108C468.829 632.452 467.405 632.25 466.212 631.545C465.019 630.841 464.154 629.691 463.807 628.35L451.84 581.878C451.496 580.535 451.698 579.111 452.402 577.918C453.107 576.725 454.256 575.86 455.598 575.513L492.412 566.033L501.835 570.251L513.501 615.551C513.846 616.893 513.644 618.318 512.939 619.512C512.234 620.705 511.085 621.571 509.743 621.918Z" fill="#3F3F3F"/>
<path d="M455.977 576.969C455.022 577.216 454.204 577.832 453.702 578.681C453.2 579.531 453.056 580.545 453.301 581.501L465.268 627.974C465.515 628.929 466.131 629.747 466.981 630.249C467.83 630.75 468.844 630.894 469.8 630.65L509.371 620.46C510.326 620.212 511.145 619.596 511.646 618.747C512.148 617.897 512.292 616.883 512.047 615.928L500.562 571.328L492.281 567.621L455.977 576.969Z" fill="#2F2F2F"/>
<path d="M501.734 570.49L495.61 572.067C495.163 572.182 494.688 572.115 494.29 571.88C493.893 571.645 493.605 571.262 493.49 570.815L492.325 566.292C492.32 566.272 492.32 566.251 492.326 566.232C492.333 566.212 492.344 566.195 492.36 566.182C492.375 566.169 492.394 566.16 492.414 566.157C492.434 566.154 492.455 566.157 492.474 566.165L501.75 570.285C501.769 570.295 501.784 570.31 501.794 570.329C501.805 570.348 501.809 570.369 501.807 570.39C501.806 570.412 501.798 570.432 501.784 570.449C501.771 570.466 501.753 570.478 501.733 570.485L501.734 570.49Z" fill="#717171"/>
<path d="M498.512 610.175L480.494 614.815C480.383 614.843 480.268 614.85 480.155 614.834C480.041 614.818 479.933 614.78 479.834 614.721C479.736 614.663 479.65 614.586 479.581 614.495C479.512 614.404 479.462 614.3 479.434 614.189C479.405 614.078 479.399 613.963 479.415 613.85C479.431 613.737 479.469 613.628 479.527 613.529C479.585 613.431 479.662 613.345 479.754 613.276C479.845 613.207 479.949 613.157 480.06 613.129L498.076 608.49C498.186 608.461 498.302 608.455 498.415 608.471C498.528 608.487 498.637 608.525 498.735 608.583C498.834 608.642 498.92 608.718 498.989 608.81C499.057 608.901 499.107 609.005 499.136 609.116C499.164 609.227 499.171 609.342 499.155 609.455C499.139 609.568 499.1 609.677 499.042 609.776C498.984 609.874 498.907 609.96 498.816 610.029C498.724 610.097 498.62 610.147 498.51 610.176L498.512 610.175Z" fill="#CCCCCC"/>
<path d="M502.722 612.124L481.229 617.656C481.006 617.714 480.768 617.68 480.569 617.563C480.371 617.445 480.227 617.254 480.169 617.03C480.112 616.807 480.145 616.569 480.263 616.371C480.38 616.172 480.572 616.028 480.795 615.97L502.288 610.435C502.512 610.378 502.749 610.411 502.948 610.529C503.147 610.646 503.291 610.838 503.348 611.061C503.406 611.285 503.372 611.522 503.255 611.721C503.137 611.92 502.946 612.064 502.722 612.121V612.124Z" fill="#CCCCCC"/>
<path d="M473.143 620.402C474.842 620.402 476.219 619.024 476.219 617.326C476.219 615.627 474.842 614.25 473.143 614.25C471.445 614.25 470.067 615.627 470.067 617.326C470.067 619.024 471.445 620.402 473.143 620.402Z" fill="#4C4C4C"/>
<path d="M496.595 602.124L472.668 608.283C471.977 608.459 471.244 608.354 470.63 607.991C470.015 607.628 469.569 607.037 469.389 606.347L464.376 586.865C464.2 586.173 464.305 585.44 464.668 584.826C465.031 584.211 465.622 583.766 466.312 583.586L490.239 577.427C490.931 577.251 491.664 577.356 492.278 577.718C492.893 578.081 493.339 578.672 493.518 579.363L498.532 598.842C498.709 599.534 498.605 600.268 498.242 600.883C497.879 601.498 497.287 601.944 496.595 602.124Z" fill="#0A0A0A"/>
<path d="M496.595 602.124L472.668 608.283C471.977 608.459 471.244 608.354 470.63 607.991C470.015 607.628 469.569 607.037 469.389 606.347L464.376 586.865C464.2 586.173 464.305 585.44 464.668 584.826C465.031 584.211 465.622 583.766 466.312 583.586L490.239 577.427C490.931 577.251 491.664 577.356 492.278 577.718C492.893 578.081 493.339 578.672 493.518 579.363L498.532 598.842C498.709 599.534 498.605 600.268 498.242 600.883C497.879 601.498 497.287 601.944 496.595 602.124ZM466.395 583.896C465.786 584.053 465.263 584.447 464.943 584.989C464.623 585.531 464.531 586.179 464.687 586.789L469.701 606.268C469.859 606.878 470.252 607.4 470.795 607.72C471.337 608.04 471.984 608.132 472.594 607.976L496.521 601.817C497.131 601.659 497.654 601.266 497.974 600.723C498.294 600.181 498.386 599.534 498.229 598.924L493.215 579.445C493.058 578.835 492.665 578.313 492.122 577.992C491.58 577.672 490.933 577.58 490.322 577.737L466.395 583.896Z" fill="#E6E6E6"/>
<path d="M489.025 583.98L476.949 587.088C476.843 587.117 476.73 587.106 476.633 587.055C476.536 587.005 476.461 586.919 476.425 586.816C476.408 586.762 476.402 586.705 476.407 586.648C476.413 586.592 476.43 586.538 476.458 586.488C476.485 586.439 476.522 586.395 476.567 586.361C476.612 586.326 476.663 586.301 476.718 586.287L489.01 583.123C489.51 583.375 489.376 583.889 489.024 583.98H489.025Z" fill="#F2F2F2"/>
<path d="M489.57 586.099L477.494 589.207C477.389 589.236 477.276 589.225 477.179 589.174C477.081 589.124 477.007 589.038 476.97 588.935C476.953 588.881 476.948 588.824 476.953 588.768C476.959 588.711 476.976 588.657 477.003 588.607C477.031 588.558 477.068 588.514 477.113 588.48C477.157 588.445 477.209 588.42 477.263 588.406L489.555 585.242C490.055 585.494 489.921 586.008 489.569 586.099H489.57Z" fill="#F2F2F2"/>
<path d="M475.195 591.084L471.51 592.033C471.39 592.064 471.262 592.046 471.155 591.982C471.048 591.919 470.971 591.816 470.94 591.696L469.819 587.347C469.788 587.226 469.807 587.099 469.87 586.992C469.933 586.884 470.036 586.807 470.156 586.776L473.841 585.827C473.962 585.796 474.09 585.814 474.197 585.877C474.304 585.94 474.381 586.043 474.412 586.164L475.532 590.513C475.563 590.633 475.545 590.761 475.482 590.868C475.419 590.975 475.316 591.053 475.195 591.084Z" fill="#E6E6E6"/>
<path d="M490.652 590.444L472.222 595.188C472.116 595.218 472.004 595.206 471.906 595.156C471.809 595.105 471.735 595.02 471.698 594.916C471.681 594.862 471.675 594.806 471.681 594.749C471.686 594.693 471.704 594.638 471.731 594.589C471.758 594.54 471.796 594.496 471.84 594.461C471.885 594.427 471.936 594.402 471.991 594.387L490.637 589.587C491.135 589.839 491.004 590.353 490.652 590.444Z" fill="#F2F2F2"/>
<path d="M491.198 592.564L472.768 597.308C472.662 597.337 472.55 597.325 472.452 597.275C472.355 597.224 472.281 597.139 472.244 597.036C472.227 596.982 472.221 596.925 472.227 596.868C472.232 596.812 472.249 596.758 472.277 596.708C472.304 596.659 472.341 596.615 472.386 596.581C472.431 596.546 472.482 596.521 472.537 596.507L491.183 591.707C491.68 591.954 491.55 592.473 491.198 592.564Z" fill="#F2F2F2"/>
<path d="M491.743 594.681L473.313 599.425C473.208 599.454 473.095 599.442 472.998 599.392C472.9 599.341 472.826 599.256 472.789 599.153C472.772 599.099 472.766 599.042 472.772 598.986C472.777 598.929 472.794 598.875 472.822 598.825C472.849 598.776 472.886 598.732 472.931 598.698C472.976 598.663 473.027 598.638 473.082 598.624L491.728 593.824C492.226 594.076 492.095 594.59 491.743 594.681Z" fill="#F2F2F2"/>
<path d="M492.289 596.798L473.859 601.542C473.753 601.572 473.64 601.56 473.543 601.509C473.446 601.459 473.371 601.373 473.335 601.27C473.318 601.216 473.312 601.159 473.318 601.103C473.323 601.047 473.34 600.992 473.368 600.943C473.395 600.893 473.432 600.85 473.477 600.815C473.522 600.78 473.573 600.755 473.628 600.741L492.274 595.941C492.774 596.193 492.642 596.707 492.289 596.798Z" fill="#F2F2F2"/>
<path d="M492.834 598.917L474.404 603.661C474.298 603.69 474.185 603.679 474.088 603.628C473.991 603.578 473.916 603.492 473.88 603.389C473.863 603.335 473.857 603.278 473.862 603.222C473.868 603.166 473.885 603.111 473.913 603.062C473.94 603.012 473.977 602.969 474.022 602.934C474.067 602.899 474.118 602.874 474.173 602.86L492.819 598.06C493.317 598.312 493.186 598.826 492.834 598.917Z" fill="#F2F2F2"/>
<path d="M473.369 618.399C473.303 618.416 473.233 618.411 473.169 618.385L472.331 618.03C472.292 618.013 472.257 617.989 472.228 617.959C472.198 617.929 472.175 617.894 472.159 617.855C472.143 617.815 472.135 617.774 472.136 617.731C472.136 617.689 472.145 617.648 472.161 617.609C472.178 617.57 472.202 617.535 472.232 617.505C472.262 617.476 472.297 617.452 472.337 617.437C472.376 617.421 472.417 617.413 472.46 617.413C472.502 617.414 472.543 617.422 472.582 617.439L473.125 617.67L473.837 615.996C473.854 615.957 473.878 615.922 473.908 615.892C473.938 615.863 473.973 615.839 474.013 615.824C474.052 615.808 474.093 615.8 474.136 615.8C474.178 615.801 474.219 615.809 474.258 615.826C474.336 615.859 474.398 615.922 474.43 616.001C474.462 616.08 474.461 616.168 474.428 616.247L473.591 618.215C473.572 618.26 473.542 618.301 473.505 618.333C473.467 618.365 473.423 618.388 473.375 618.4L473.369 618.399Z" fill="white"/>
<path d="M524.921 639.624H484.058C482.673 639.623 481.344 639.071 480.364 638.092C479.385 637.112 478.834 635.784 478.832 634.398V586.409C478.834 585.024 479.385 583.695 480.364 582.716C481.344 581.736 482.673 581.185 484.058 581.183H522.073L530.146 587.618V634.398C530.144 635.783 529.593 637.112 528.614 638.091C527.634 639.071 526.306 639.622 524.921 639.624Z" fill="#3F3F3F"/>
<path d="M484.062 582.689C483.075 582.69 482.129 583.083 481.431 583.78C480.733 584.478 480.341 585.424 480.34 586.411V634.4C480.341 635.387 480.733 636.333 481.431 637.031C482.129 637.728 483.075 638.121 484.062 638.122H524.924C525.911 638.121 526.857 637.728 527.555 637.031C528.252 636.333 528.645 635.387 528.646 634.4V588.344L521.551 582.689H484.062Z" fill="#2F2F2F"/>
<path d="M516.972 596.643H498.364C498.133 596.643 497.911 596.551 497.748 596.388C497.585 596.225 497.493 596.003 497.493 595.772C497.493 595.541 497.585 595.32 497.748 595.157C497.911 594.994 498.133 594.902 498.364 594.902H516.964C517.194 594.902 517.416 594.994 517.579 595.157C517.742 595.32 517.834 595.541 517.834 595.772C517.834 596.003 517.742 596.225 517.579 596.388C517.416 596.551 517.194 596.643 516.964 596.643H516.972Z" fill="#008E00"/>
<path d="M520.564 599.58H498.364C498.133 599.58 497.911 599.489 497.748 599.325C497.585 599.162 497.493 598.941 497.493 598.71C497.493 598.479 497.585 598.258 497.748 598.094C497.911 597.931 498.133 597.839 498.364 597.839H520.564C520.795 597.839 521.016 597.931 521.179 598.094C521.342 598.258 521.434 598.479 521.434 598.71C521.434 598.941 521.342 599.162 521.179 599.325C521.016 599.489 520.795 599.58 520.564 599.58Z" fill="#008E00"/>
<path d="M516.972 608.066H498.372C498.142 608.066 497.92 608.158 497.757 608.321C497.594 608.484 497.502 608.706 497.502 608.936C497.502 609.167 497.594 609.389 497.757 609.552C497.92 609.715 498.142 609.807 498.372 609.807H516.972C517.203 609.807 517.425 609.715 517.588 609.552C517.751 609.389 517.843 609.167 517.843 608.936C517.843 608.706 517.751 608.484 517.588 608.321C517.425 608.158 517.203 608.066 516.972 608.066Z" fill="#CCCCCC"/>
<path d="M520.56 611.003H498.37C498.139 611.003 497.917 611.095 497.754 611.258C497.591 611.422 497.499 611.643 497.499 611.874C497.499 612.105 497.591 612.326 497.754 612.489C497.917 612.653 498.139 612.744 498.37 612.744H520.56C520.79 612.744 521.012 612.653 521.175 612.489C521.338 612.326 521.43 612.105 521.43 611.874C521.43 611.643 521.338 611.422 521.175 611.258C521.012 611.095 520.79 611.003 520.56 611.003Z" fill="#CCCCCC"/>
<path d="M516.972 622.965H498.364C498.133 622.965 497.911 622.873 497.748 622.71C497.585 622.547 497.493 622.326 497.493 622.095C497.493 621.864 497.585 621.642 497.748 621.479C497.911 621.316 498.133 621.224 498.364 621.224H516.964C517.194 621.224 517.416 621.316 517.579 621.479C517.742 621.642 517.834 621.864 517.834 622.095C517.834 622.326 517.742 622.547 517.579 622.71C517.416 622.873 517.194 622.965 516.964 622.965H516.972Z" fill="#CCCCCC"/>
<path d="M520.564 625.907H498.364C498.133 625.907 497.911 625.815 497.748 625.652C497.585 625.488 497.493 625.267 497.493 625.036C497.493 624.805 497.585 624.584 497.748 624.421C497.911 624.257 498.133 624.166 498.364 624.166H520.564C520.795 624.166 521.016 624.257 521.179 624.421C521.342 624.584 521.434 624.805 521.434 625.036C521.434 625.267 521.342 625.488 521.179 625.652C521.016 625.815 520.795 625.907 520.564 625.907Z" fill="#CCCCCC"/>
<path d="M491.076 600.318C492.775 600.318 494.152 598.94 494.152 597.242C494.152 595.543 492.775 594.166 491.076 594.166C489.377 594.166 488 595.543 488 597.242C488 598.94 489.377 600.318 491.076 600.318Z" fill="#008E00"/>
<path d="M490.318 598.413C490.249 598.413 490.182 598.391 490.126 598.349L489.403 597.796C489.336 597.744 489.291 597.668 489.28 597.583C489.269 597.499 489.292 597.413 489.344 597.346C489.396 597.278 489.472 597.234 489.557 597.223C489.641 597.211 489.727 597.234 489.794 597.286L490.262 597.645L491.369 596.201C491.421 596.134 491.498 596.089 491.582 596.078C491.666 596.067 491.752 596.09 491.819 596.142C491.886 596.194 491.93 596.271 491.941 596.355C491.952 596.439 491.93 596.524 491.878 596.592L490.578 598.292C490.548 598.331 490.509 598.363 490.465 598.385C490.42 598.406 490.372 598.417 490.322 598.417L490.318 598.413Z" fill="white"/>
<path d="M494.152 610.074C494.152 610.478 494.073 610.878 493.918 611.251C493.764 611.625 493.537 611.964 493.251 612.25C492.966 612.535 492.627 612.762 492.253 612.917C491.88 613.071 491.48 613.151 491.076 613.151C491.05 613.153 491.023 613.153 490.997 613.151C490.392 613.135 489.805 612.942 489.31 612.594C488.815 612.247 488.433 611.761 488.212 611.198C487.991 610.635 487.942 610.019 488.069 609.427C488.197 608.836 488.496 608.295 488.929 607.873C489.363 607.451 489.911 607.166 490.506 607.053C491.1 606.941 491.715 607.007 492.272 607.242C492.829 607.477 493.305 607.872 493.64 608.376C493.974 608.88 494.152 609.472 494.152 610.077V610.074Z" fill="#008E00"/>
<path d="M490.622 626.644C492.321 626.644 493.698 625.267 493.698 623.568C493.698 621.869 492.321 620.492 490.622 620.492C488.923 620.492 487.546 621.869 487.546 623.568C487.546 625.267 488.923 626.644 490.622 626.644Z" fill="#4C4C4C"/>
<path d="M529.99 587.824H523.663C523.201 587.824 522.758 587.641 522.432 587.314C522.105 586.988 521.922 586.545 521.922 586.083V581.412C521.922 581.392 521.928 581.372 521.939 581.355C521.95 581.338 521.965 581.324 521.983 581.315C522.002 581.306 522.022 581.303 522.042 581.305C522.063 581.307 522.082 581.315 522.098 581.327L530.054 587.627C530.071 587.641 530.084 587.661 530.09 587.682C530.097 587.704 530.096 587.727 530.089 587.748C530.081 587.77 530.067 587.788 530.049 587.801C530.03 587.814 530.008 587.821 529.986 587.821L529.99 587.824Z" fill="#717171"/>
<path d="M503.685 611.003C503.685 611.591 503.607 612.177 503.454 612.744H498.37C498.139 612.744 497.917 612.653 497.754 612.489C497.591 612.326 497.499 612.105 497.499 611.874C497.499 611.643 497.591 611.422 497.754 611.258C497.917 611.095 498.139 611.003 498.37 611.003H503.685Z" fill="#008E00"/>
<path d="M553.238 655.095C553.117 655.292 552.96 655.463 552.773 655.599C552.587 655.735 552.376 655.833 552.152 655.888C551.928 655.942 551.695 655.952 551.467 655.916C551.239 655.88 551.02 655.8 550.824 655.68L530.334 643.18C529.936 642.938 529.65 642.547 529.541 642.094C529.431 641.641 529.505 641.163 529.748 640.766C529.991 640.368 530.381 640.083 530.834 639.973C531.287 639.863 531.765 639.938 532.163 640.18L552.653 652.68C552.85 652.8 553.021 652.958 553.157 653.144C553.293 653.331 553.391 653.542 553.446 653.766C553.5 653.991 553.51 654.223 553.474 654.451C553.438 654.679 553.358 654.898 553.238 655.095Z" fill="#3F3D56"/>
<path d="M532.748 642.598C531.301 644.97 529.183 646.86 526.662 648.029C524.141 649.198 521.33 649.593 518.584 649.164C515.839 648.735 513.282 647.501 511.237 645.619C509.193 643.737 507.752 641.291 507.098 638.59C506.444 635.889 506.605 633.055 507.562 630.446C508.518 627.837 510.227 625.57 512.472 623.932C514.717 622.294 517.397 621.359 520.173 621.244C522.95 621.129 525.698 621.84 528.07 623.288C531.251 625.228 533.531 628.353 534.408 631.974C535.285 635.595 534.688 639.417 532.748 642.598ZM511.758 629.798C510.673 631.577 510.14 633.638 510.226 635.72C510.312 637.802 511.014 639.812 512.243 641.496C513.471 643.179 515.171 644.46 517.128 645.178C519.084 645.895 521.21 646.016 523.235 645.525C525.261 645.034 527.095 643.954 528.507 642.421C529.918 640.887 530.843 638.97 531.165 636.911C531.487 634.852 531.191 632.744 530.314 630.853C529.438 628.962 528.02 627.374 526.241 626.289C525.06 625.568 523.748 625.087 522.381 624.874C521.014 624.66 519.618 624.718 518.273 625.044C516.928 625.369 515.661 625.957 514.543 626.773C513.425 627.588 512.479 628.616 511.758 629.798Z" fill="#3F3D56"/>
<path d="M231.562 727.765L230.489 727.363C230.253 727.274 206.781 718.281 195.785 697.889C184.789 677.497 190.173 652.944 190.229 652.699L190.482 651.581L191.555 651.983C191.791 652.072 215.263 661.065 226.259 681.457C237.255 701.849 231.871 726.402 231.815 726.647L231.562 727.765ZM197.546 696.94C206.842 714.181 225.391 723.019 230.091 725.037C230.984 720 233.787 699.63 224.498 682.406C215.211 665.183 196.655 656.332 191.953 654.309C191.059 659.349 188.258 679.716 197.546 696.94Z" fill="#3F3D56"/>
<path d="M204.188 690.736C223.949 702.625 231.559 726.239 231.559 726.239C231.559 726.239 207.132 730.578 187.371 718.689C167.61 706.8 160 683.186 160 683.186C160 683.186 184.428 678.847 204.188 690.736Z" fill="#008E00"/>
<path d="M418.962 273H375V283.583H418.962V273Z" fill="white" fill-opacity="0.7"/>
<path d="M569.468 273H554V283.583H569.468V273Z" fill="white" fill-opacity="0.7"/>
<path d="M599.468 273H584V283.583H599.468V273Z" fill="white" fill-opacity="0.7"/>
<path d="M539.019 273H434V283.583H539.019V273Z" fill="white" fill-opacity="0.7"/>
<path d="M539.507 341.272H524.039V351.855H539.507V341.272Z" fill="white" fill-opacity="0.7"/>
<path d="M570.443 341.272H554.975V351.855H570.443V341.272Z" fill="white" fill-opacity="0.7"/>
<path d="M507.758 341.272H402.738V351.855H507.758V341.272Z" fill="white" fill-opacity="0.7"/>
<path d="M568.962 296H525V306.583H568.962V296Z" fill="white" fill-opacity="0.7"/>
<path d="M627.962 296H584V306.583H627.962V296Z" fill="white" fill-opacity="0.7"/>
<path d="M389.712 296H374.244V306.583H389.712V296Z" fill="white" fill-opacity="0.7"/>
<path d="M510.019 296H405V306.583H510.019V296Z" fill="white" fill-opacity="0.7"/>
<path d="M433.038 330H477V319.417H433.038V330Z" fill="white" fill-opacity="0.7"/>
<path d="M375.038 330H419V319.417H375.038V330Z" fill="white" fill-opacity="0.7"/>
<path d="M612.776 329.874H628.244V319.291H612.776V329.874Z" fill="white" fill-opacity="0.7"/>
<path d="M491.981 330H597V319.417H491.981V330Z" fill="white" fill-opacity="0.7"/>
<path d="M501 240C530.823 240 555 215.823 555 186C555 156.177 530.823 132 501 132C471.177 132 447 156.177 447 186C447 215.823 471.177 240 501 240Z" fill="#070600"/>
<path d="M480.488 200.174L481.223 203.112C482.154 206.932 484.188 208.891 488.231 208.891H514.622C518.69 208.891 520.699 206.981 521.655 203.112L522.39 200.174H480.488ZM479.679 196.82H523.223L527.83 177.967L525.82 176.817L514.524 185.043C513.691 185.631 513.127 185.41 512.662 184.749L502.027 168.688L500.851 168.639L490.118 184.823C489.701 185.459 489.211 185.655 488.378 185.068L477.302 176.988L474.95 177.6L479.679 196.82ZM475.856 182.864C479.091 182.864 481.688 180.244 481.688 176.988C481.688 173.805 479.091 171.161 475.856 171.161C472.622 171.161 470 173.781 470 176.988C470 180.244 472.646 182.864 475.856 182.864ZM501.439 172.679C504.649 172.679 507.271 170.059 507.271 166.827C507.271 163.644 504.649 161 501.439 161C498.18 161 495.582 163.62 495.582 166.827C495.582 170.059 498.204 172.679 501.439 172.679ZM526.996 182.864C530.206 182.864 532.853 180.244 532.853 176.988C532.853 173.781 530.231 171.161 526.996 171.161C523.786 171.161 521.164 173.805 521.164 176.988C521.164 180.244 523.786 182.864 526.996 182.864Z" fill="#FFD61E"/>
<path d="M759.414 260.483C747.807 240.871 724.843 239.957 724.843 239.957C724.843 239.957 702.467 237.096 688.112 266.965C674.733 294.806 656.268 321.687 685.14 328.204L690.355 311.973L693.584 329.413C697.695 329.708 701.819 329.779 705.938 329.624C736.857 328.626 766.303 329.916 765.355 318.821C764.095 304.071 770.582 279.354 759.414 260.483Z" fill="#2F2E41"/>
<path d="M717.615 297.417C717.615 297.417 732.615 318.417 723.615 335.417C714.615 352.417 744.615 370.417 744.615 370.417L766.615 322.417C766.615 322.417 740.615 305.417 747.615 289.417L717.615 297.417Z" fill="#FBBEBE"/>
<path d="M727.615 306.417C741.975 306.417 753.615 294.777 753.615 280.417C753.615 266.058 741.975 254.417 727.615 254.417C713.256 254.417 701.615 266.058 701.615 280.417C701.615 294.777 713.256 306.417 727.615 306.417Z" fill="#FBBEBE"/>
<path d="M637.635 310.473L659.363 282.439C659.363 282.439 667.013 253.055 678.094 254.544C689.175 256.034 673.717 289.784 673.717 289.784L652.128 320.815L637.635 310.473Z" fill="#FBBEBE"/>
<path d="M747.615 683.417L754.615 720.417L769.615 724.417L765.615 680.417L747.615 683.417Z" fill="#FBBEBE"/>
<path d="M898.615 643.417L925.615 680.417L936.615 685.417L945.615 670.417L918.615 635.417L898.615 643.417Z" fill="#FBBEBE"/>
<path d="M741.615 354.417L724.934 332.458C724.934 332.458 692.615 338.417 689.615 341.417C686.615 344.417 697.615 399.417 697.615 399.417C697.615 399.417 699.615 414.417 708.615 422.417L717.615 428.417L791.615 413.417L794.398 380.491C795.411 368.499 793.908 356.426 789.985 345.048C786.062 333.67 779.805 323.237 771.615 314.417L758.739 316.177L741.615 354.417Z" fill="#005D00"/>
<path d="M693.615 343.417L688.615 341.417L665.615 339.417C665.615 339.417 657.615 337.417 659.615 333.417C661.615 329.417 663.615 328.417 659.615 327.417C655.615 326.417 654.615 325.417 655.615 322.417C656.615 319.417 662.615 313.417 662.615 313.417L645.615 299.417C645.615 299.417 644.695 300.068 643.207 301.272C634.767 308.106 608.06 332.762 627.615 357.417C650.615 386.417 677.615 403.417 699.615 397.417L693.615 343.417Z" fill="#005D00"/>
<path d="M715.615 423.417V437.417C715.615 437.417 706.615 454.417 709.615 470.417C712.615 486.417 713.615 494.417 713.615 494.417C713.942 508.025 716.301 521.507 720.615 534.417C727.615 554.417 704.615 685.417 733.615 687.417C762.615 689.417 778.615 691.417 787.615 681.417C796.615 671.417 772.615 499.417 772.615 499.417C772.615 499.417 854.615 670.417 871.615 663.417C888.615 656.417 931.615 640.417 926.615 631.417C921.615 622.417 795.615 422.417 795.615 422.417L791.615 413.417L715.615 423.417Z" fill="#2F2E41"/>
<path d="M763.615 713.417C763.615 713.417 747.615 712.417 747.615 717.417C747.615 722.417 739.615 739.417 739.615 739.417C739.615 739.417 733.615 759.417 749.615 757.417C765.615 755.417 775.615 737.417 775.615 737.417L771.615 718.417L763.615 713.417Z" fill="#2F2E41"/>
<path d="M930.615 678.417C930.615 678.417 916.615 669.417 917.615 675.417C918.615 681.417 919.615 697.417 926.615 698.417C933.615 699.417 954.615 705.417 955.615 707.417C956.615 709.417 980.615 717.417 980.615 704.417C980.615 691.417 965.615 681.417 965.615 681.417L948.615 668.417C948.615 668.417 937.615 667.417 935.615 674.417C933.615 681.417 930.615 678.417 930.615 678.417Z" fill="#2F2E41"/>
<path d="M727.655 256.66C736.825 256.66 744.258 249.227 744.258 240.057C744.258 230.887 736.825 223.453 727.655 223.453C718.485 223.453 711.051 230.887 711.051 240.057C711.051 249.227 718.485 256.66 727.655 256.66Z" fill="#2F2E41"/>
<path d="M709.303 235.687C709.303 231.587 710.821 227.631 713.564 224.583C716.307 221.534 720.081 219.609 724.159 219.177C721.843 218.93 719.501 219.174 717.286 219.891C715.07 220.608 713.031 221.784 711.299 223.341C709.567 224.898 708.183 226.802 707.235 228.929C706.287 231.056 705.797 233.359 705.797 235.687C705.797 238.016 706.287 240.319 707.235 242.446C708.183 244.573 709.567 246.477 711.299 248.034C713.031 249.591 715.07 250.766 717.286 251.484C719.501 252.201 721.843 252.444 724.159 252.198C720.081 251.766 716.307 249.84 713.564 246.792C710.821 243.744 709.303 239.788 709.303 235.687Z" fill="#2F2E41"/>
<path d="M754.282 258.593L731.596 246.709L700.266 251.571L693.785 280.199L709.92 279.579L714.428 269.061V279.405L721.873 279.119L726.194 262.374L728.895 280.199L755.363 279.659L754.282 258.593Z" fill="#2F2E41"/>
<path d="M752.924 425.734L717.936 426.68C717.936 426.68 688.082 432.489 689.757 420.439C691.432 408.389 720.557 412.604 720.557 412.604L752.437 407.74L752.924 425.734Z" fill="#FBBEBE"/>
<path d="M780.606 312.722C782.365 312.456 784.16 312.826 785.67 313.766C787.18 314.706 788.305 316.154 788.842 317.85C795.691 339.434 816.793 411.663 795.827 421.573C771.134 433.245 753.113 432.731 753.113 432.731L743.468 408.983L752.248 400.743L761.623 340.468L766.115 314.917L780.606 312.722Z" fill="#005D00"/>
<path opacity="0.4" d="M774.115 352.917L770.115 392.917L735.115 407.917L774.115 398.917V352.917Z" fill="black"/>
<path d="M392 79H365C363.674 79 362.402 78.4732 361.464 77.5355C360.527 76.5979 360 75.3261 360 74C360 72.6739 360.527 71.4021 361.464 70.4645C362.402 69.5268 363.674 69 365 69H392C393.326 69 394.598 69.5268 395.536 70.4645C396.473 71.4021 397 72.6739 397 74C397 75.3261 396.473 76.5979 395.536 77.5355C394.598 78.4732 393.326 79 392 79Z" fill="#034903"/>
<path d="M606.5 78C608.985 78 611 75.9853 611 73.5C611 71.0147 608.985 69 606.5 69C604.015 69 602 71.0147 602 73.5C602 75.9853 604.015 78 606.5 78Z" fill="#034903"/>
<path d="M620.5 78C622.985 78 625 75.9853 625 73.5C625 71.0147 622.985 69 620.5 69C618.015 69 616 71.0147 616 73.5C616 75.9853 618.015 78 620.5 78Z" fill="#034903"/>
<path d="M634.5 78C636.985 78 639 75.9853 639 73.5C639 71.0147 636.985 69 634.5 69C632.015 69 630 71.0147 630 73.5C630 75.9853 632.015 78 634.5 78Z" fill="#034903"/>
</g>
<defs>
<clipPath id="clip0_3426_99">
<rect width="820.615" height="714.558" fill="white" transform="translate(160 43)"/>
</clipPath>
</defs>
</svg>
