<svg width="781" height="504" viewBox="0 0 781 504" fill="none" xmlns="http://www.w3.org/2000/svg">
<path d="M777.553 308.937H467.196C466.349 308.936 465.536 308.599 464.937 307.999C464.338 307.4 464.001 306.588 464 305.741V3.19589C464.001 2.34858 464.338 1.53625 464.937 0.937103C465.536 0.33796 466.349 0.00094228 467.196 0H777.553C778.4 0.00092643 779.213 0.337926 779.812 0.937073C780.411 1.53622 780.748 2.34857 780.749 3.19589V305.741C780.748 306.588 780.411 307.4 779.812 307.999C779.213 308.599 778.4 308.936 777.553 308.937Z" fill="#013201"/>
<path d="M743.819 27.6982H500.931C500.083 27.6995 499.271 28.0366 498.672 28.6357C498.073 29.2348 497.736 30.0469 497.735 30.8941V219.097C497.736 219.944 498.073 220.756 498.672 221.355C499.271 221.954 500.083 222.291 500.931 222.293H743.819C744.666 222.291 745.478 221.954 746.077 221.355C746.676 220.756 747.013 219.944 747.015 219.097V30.8941C747.013 30.0469 746.676 29.2348 746.077 28.6357C745.478 28.0366 744.666 27.6995 743.819 27.6982Z" fill="black"/>
<path d="M729.969 259.223H514.779C514.308 259.222 513.857 259.035 513.524 258.702C513.192 258.369 513.004 257.918 513.004 257.447V247.504C513.004 247.034 513.192 246.582 513.524 246.25C513.857 245.917 514.308 245.73 514.779 245.729H729.969C730.44 245.73 730.892 245.917 731.224 246.25C731.557 246.582 731.744 247.034 731.745 247.504V257.447C731.744 257.918 731.557 258.369 731.224 258.702C730.892 259.035 730.44 259.222 729.969 259.223Z" fill="black"/>
<path d="M655.399 283.369H514.779C514.308 283.369 513.857 283.181 513.524 282.849C513.192 282.516 513.004 282.065 513.004 281.594V271.651C513.004 271.18 513.192 270.729 513.524 270.396C513.857 270.063 514.308 269.876 514.779 269.875H655.399C655.869 269.876 656.321 270.063 656.653 270.396C656.986 270.729 657.174 271.18 657.174 271.651V281.594C657.174 282.065 656.986 282.516 656.653 282.849C656.321 283.181 655.869 283.369 655.399 283.369Z" fill="black"/>
<path d="M682.159 222.293C683.53 217.357 684.595 213.103 685.142 210.092C685.311 209.163 685.328 208.213 685.192 207.279C683.146 192.727 646.202 180.427 641.465 178.907L640.321 166.237L593.817 161.23L587.93 177.437L571.24 183.694C570.636 183.917 570.061 184.212 569.529 184.574C568.129 185.519 567.052 186.871 566.444 188.447C565.836 190.023 565.725 191.747 566.127 193.388L573.236 222.293L682.159 222.293Z" fill="#008E00"/>
<path d="M585.757 222.293H549.671C550.964 214.239 552.122 207.116 552.875 202.585C555.63 186.094 567.647 184.688 569.529 184.574C569.678 184.56 569.77 184.56 569.777 184.56H577.369L585.757 222.293Z" fill="#008E00"/>
<path d="M682.159 222.293H690.909C690.135 215.184 687.677 210.397 685.192 207.279C683.533 205.088 681.392 203.306 678.935 202.074L678.274 201.79L670.583 222.293H682.159Z" fill="#008E00"/>
<path d="M615.253 153.211C633.745 153.211 648.736 138.22 648.736 119.727C648.736 101.235 633.745 86.2437 615.253 86.2437C596.76 86.2437 581.769 101.235 581.769 119.727C581.769 138.22 596.76 153.211 615.253 153.211Z" fill="#A0616A"/>
<path d="M592.778 103.414C596.245 107.516 602.11 108.673 607.521 109.143C618.51 110.107 634.489 108.544 645.229 106.065C646 113.493 643.906 121.504 648.281 127.616C650.332 120.217 651.525 112.607 651.835 104.935C651.967 101.645 651.916 98.2418 650.579 95.2217C649.243 92.2016 646.326 89.6376 642.969 89.6112C645.464 87.7192 648.386 86.4705 651.477 85.9752L640.846 80.6324L643.576 77.8293L624.328 76.6515L629.903 73.1102C621.509 71.9576 613.018 71.6906 604.568 72.3136C600.645 72.6023 596.544 73.1543 593.367 75.4274C590.189 77.7005 588.352 82.2169 590.326 85.5532C587.856 85.9589 585.53 86.9884 583.569 88.5442C581.608 90.1001 580.077 92.1307 579.121 94.4439C577.704 98.0359 577.834 102.026 578.27 105.853C578.995 111.975 580.418 117.994 582.51 123.792" fill="#2F2E41"/>
<path d="M313.553 310.937H3.19589C2.34858 310.936 1.53623 310.599 0.937088 309.999C0.337946 309.4 0.000939629 308.588 0 307.741V5.19589C0.000939629 4.34858 0.337946 3.53622 0.937088 2.93707C1.53623 2.33793 2.34858 2.00094 3.19589 2H313.553C314.4 2.00093 315.213 2.33793 315.812 2.93707C316.411 3.53622 316.748 4.34857 316.749 5.19589V307.741C316.748 308.588 316.411 309.4 315.812 309.999C315.213 310.599 314.4 310.936 313.553 310.937Z" fill="#013301"/>
<path d="M279.818 29.6978H36.9303C36.0831 29.699 35.2709 30.0362 34.6718 30.6352C34.0728 31.2343 33.7356 32.0464 33.7344 32.8936V221.096C33.7357 221.944 34.0728 222.756 34.6719 223.355C35.2709 223.954 36.0831 224.291 36.9303 224.292H279.818C280.666 224.291 281.478 223.954 282.077 223.355C282.676 222.756 283.013 221.944 283.014 221.096V32.8936C283.013 32.0464 282.676 31.2343 282.077 30.6352C281.478 30.0362 280.666 29.699 279.818 29.6978Z" fill="black"/>
<path d="M265.969 261.223H50.7792C50.3084 261.222 49.8572 261.035 49.5243 260.702C49.1915 260.369 49.0042 259.918 49.0037 259.447V249.504C49.0042 249.034 49.1915 248.582 49.5243 248.25C49.8572 247.917 50.3084 247.73 50.7792 247.729H265.969C266.44 247.73 266.891 247.917 267.224 248.25C267.557 248.582 267.744 249.034 267.745 249.504V259.447C267.744 259.918 267.557 260.369 267.224 260.702C266.891 261.035 266.44 261.222 265.969 261.223Z" fill="black"/>
<path d="M191.399 285.369H50.7792C50.3084 285.369 49.8572 285.181 49.5243 284.849C49.1915 284.516 49.0042 284.065 49.0037 283.594V273.651C49.0042 273.18 49.1915 272.729 49.5243 272.396C49.8572 272.063 50.3084 271.876 50.7792 271.875H191.399C191.869 271.876 192.321 272.063 192.653 272.396C192.986 272.729 193.174 273.18 193.174 273.651V283.594C193.174 284.065 192.986 284.516 192.653 284.849C192.321 285.181 191.869 285.369 191.399 285.369Z" fill="black"/>
<path d="M152.374 157.227C169.43 157.227 183.256 143.401 183.256 126.345C183.256 109.289 169.43 95.4629 152.374 95.4629C135.318 95.4629 121.492 109.289 121.492 126.345C121.492 143.401 135.318 157.227 152.374 157.227Z" fill="#FFB8B8"/>
<path d="M197.556 224.292H129.086L131.323 173.953L131.856 173.392L139.54 165.275H163.992L173.054 174.053L173.786 174.763L193.082 193.257L197.556 224.292Z" fill="#008E00"/>
<path d="M140.861 224.292H89.0588C88.9312 212.929 88.8601 206.125 88.8601 206.125L91.857 204.3C91.8607 204.296 91.8657 204.294 91.8712 204.293H91.8784L124.888 184.251L131.82 172.995L131.856 173.392L133.894 197.12C133.894 197.12 137.26 208 140.861 224.292Z" fill="#2F2E41"/>
<path d="M227.924 224.292H173.054C173.885 191.154 169.411 172.995 171.712 172.995L173.054 174.053L189.225 186.822L210.539 194.642H210.553L225.247 200.032L227.825 200.976V202.191C227.832 205.103 227.846 213.064 227.924 224.292Z" fill="#2F2E41"/>
<path d="M123.158 136.007C123.158 136.007 125.782 131.399 125.172 116.006C124.562 100.612 148.002 109.319 167.589 107.85C187.176 106.382 183.03 133.55 183.03 133.55C183.03 133.55 184.443 131.935 187.468 118.823C190.494 105.71 183.624 92.6437 183.624 92.6437C181.601 78.8652 170.698 83.2812 170.698 83.2812C175.949 85.3253 174.941 89.696 174.941 89.696C170.496 81.9034 159.593 86.3194 159.593 86.3194C145.051 77.1942 130.313 89.211 130.313 89.211C112.746 93.1979 123.049 107.168 123.049 107.168C105.382 116.096 123.158 136.007 123.158 136.007Z" fill="#2F2E41"/>
<path d="M95.9764 224.292H74.6916C74.8576 221.67 74.8623 219.039 74.7058 216.416C73.4345 211.352 91.3175 204.506 91.857 204.3C91.8608 204.296 91.8658 204.294 91.8713 204.293H91.8785L95.2874 206.125L95.9764 224.292Z" fill="#2F2E41"/>
<path d="M231.767 224.292H209.409L206.618 196.737L209.75 194.45C209.75 194.45 210.035 194.514 210.539 194.641H210.553C213.06 195.259 220.815 197.305 225.247 200.032C226.233 200.585 227.107 201.317 227.825 202.191C228.264 202.718 228.483 203.395 228.436 204.08C228.322 205.11 229.629 212.695 231.767 224.292Z" fill="#2F2E41"/>
<path d="M546.553 503.937H236.196C235.349 503.936 234.536 503.599 233.937 502.999C233.338 502.4 233.001 501.588 233 500.741V198.196C233.001 197.349 233.338 196.536 233.937 195.937C234.536 195.338 235.349 195.001 236.196 195H546.553C547.4 195.001 548.213 195.338 548.812 195.937C549.411 196.536 549.748 197.349 549.749 198.196V500.741C549.748 501.588 549.411 502.4 548.812 502.999C548.213 503.599 547.4 503.936 546.553 503.937Z" fill="#013301"/>
<path d="M512.819 222.698H269.931C269.083 222.7 268.271 223.037 267.672 223.636C267.073 224.235 266.736 225.047 266.735 225.894V414.097C266.736 414.944 267.073 415.756 267.672 416.355C268.271 416.954 269.083 417.291 269.931 417.293H512.819C513.666 417.291 514.478 416.954 515.077 416.355C515.676 415.756 516.013 414.944 516.014 414.097V225.894C516.013 225.047 515.676 224.235 515.077 223.636C514.478 223.037 513.666 222.7 512.819 222.698Z" fill="black"/>
<path d="M498.969 454.222H283.779C283.308 454.222 282.857 454.035 282.524 453.702C282.191 453.369 282.004 452.918 282.004 452.447V442.504C282.004 442.033 282.191 441.582 282.524 441.249C282.857 440.916 283.308 440.729 283.779 440.729H498.969C499.44 440.729 499.891 440.916 500.224 441.249C500.557 441.582 500.744 442.033 500.745 442.504V452.447C500.744 452.918 500.557 453.369 500.224 453.702C499.891 454.035 499.44 454.222 498.969 454.222Z" fill="black"/>
<path d="M424.399 478.369H283.779C283.308 478.369 282.857 478.181 282.524 477.849C282.191 477.516 282.004 477.064 282.004 476.594V466.651C282.004 466.18 282.191 465.729 282.524 465.396C282.857 465.063 283.308 464.876 283.779 464.875H424.399C424.869 464.876 425.321 465.063 425.653 465.396C425.986 465.729 426.174 466.18 426.174 466.651V476.594C426.174 477.064 425.986 477.516 425.653 477.849C425.321 478.181 424.869 478.369 424.399 478.369Z" fill="black"/>
<path d="M415.273 417.293H366.39L369.437 371.57L387.071 375.64L404.222 369.042L404.677 368.872L404.705 368.857C404.711 368.871 404.716 368.885 404.719 368.9C404.989 369.987 410.372 391.541 415.273 417.293Z" fill="#008E00"/>
<path d="M444.732 379.034L440.165 417.292H398.967L404.222 369.042L404.272 368.573L404.677 368.871L404.719 368.899L414.882 376.314L444.732 379.034Z" fill="#2F2E41"/>
<path d="M373.62 417.293H336.725L336.192 387.173L363.343 378.168L369.436 371.57C369.436 371.57 371.361 391.42 373.62 417.293Z" fill="#2F2E41"/>
<path d="M462.494 417.293H431.92L433.88 389.886L444.732 379.034C444.732 379.034 453.318 397.045 462.494 417.293Z" fill="#2F2E41"/>
<path d="M345.425 417.293H329.296C329.367 408.515 329.41 402.45 329.41 400.738C329.329 398.092 329.906 395.468 331.09 393.1C332.274 390.733 334.027 388.696 336.192 387.173L344.338 389.886L345.425 417.293Z" fill="#2F2E41"/>
<path d="M342.909 324.505C342.933 317.068 344.888 309.764 348.582 303.309C352.276 296.854 357.582 291.468 363.982 287.679C377.578 279.653 393.981 279.798 408.985 288.076C419.675 293.975 428.372 308.817 428.372 321.161V357.182H342.909V324.505Z" fill="#2F2E41"/>
<path d="M398.755 352.512C413.714 344.335 419.212 325.579 411.034 310.619C402.857 295.66 384.101 290.163 369.142 298.34C354.182 306.517 348.685 325.273 356.862 340.232C365.04 355.192 383.796 360.689 398.755 352.512Z" fill="#FFB8B8"/>
<path d="M351.757 325.718C351.523 325.448 350.976 324.815 354.783 295.516L354.904 295.038H355.249C374.549 285.543 394.13 285.304 413.453 294.325C414.048 294.607 414.559 295.039 414.937 295.578C415.315 296.117 415.546 296.746 415.608 297.401C417.863 324.928 417.318 325.528 417.086 325.785C416.732 326.173 416.301 326.483 415.82 326.696C415.34 326.908 414.821 327.018 414.295 327.019H405.734L405.554 326.695C404.084 323.964 402.472 321.311 400.723 318.749C399.918 321.299 399.26 323.893 398.75 326.518L398.646 327.019H354.607C354.066 327.019 353.532 326.903 353.041 326.678C352.549 326.454 352.111 326.126 351.757 325.718Z" fill="#2F2E41"/>
</svg>
