<svg width="130" height="23" viewBox="0 0 130 23" fill="none" xmlns="http://www.w3.org/2000/svg">
<g clip-path="url(#clip0_3320_8894)">
<path fill-rule="evenodd" clip-rule="evenodd" d="M8.43253 6.89797C9.37662 5.51835 10.1953 4.83619 11.4211 5.21513C12.1629 5.44444 12.4673 6.39132 12.1629 7.57942C11.6275 9.66847 11.4211 10.8676 11.4211 12.2948C13.3041 8.34818 16.7848 3.10273 18.2934 1.33845C19.3361 0.119013 20.8307 0.274523 21.3933 0.546524C22.3075 0.988482 22.3558 1.94679 22.0402 2.86327C19.8571 9.20382 19.7811 12.5902 19.513 15.8801C20.8698 12.2314 22.5194 8.79928 24.5115 6.38208C25.3509 5.22272 26.8219 4.85878 27.7511 5.2354C28.6803 5.61202 28.8921 6.51308 28.6803 7.64223C28.128 10.5867 27.8539 11.9668 27.8539 13.1075C28.8629 12.3358 29.6663 11.6838 31.5031 11.5348C33.3399 11.3858 37.1359 12.117 37.1359 12.117C37.1359 12.117 34.9445 12.4894 33.787 12.7732C31.4142 13.355 30.5856 14.0355 29.0496 16.2851C28.6033 16.9387 27.8539 17.4406 27.0097 17.3768C26.1654 17.3129 25.5985 16.7818 25.3509 16.0645C25.0066 15.0676 24.9043 13.5764 25.3509 10.3494C23.1625 13.6788 22.0402 18.2014 20.5408 21.2006C20.1574 21.9674 19.5027 22.8412 18.6154 22.8412C17.7281 22.8412 16.5774 22.4971 16.428 19.8608C16.0453 13.1075 17.3211 7.73355 17.3211 7.73355C14.8362 11.6735 14.0426 13.9701 13.1783 15.1677C12.3139 16.3653 11.4752 17.4024 10.455 17.3768C9.43478 17.3511 8.84103 16.2106 8.71194 15.1677C8.58284 14.1248 8.54569 12.7928 8.92275 10.3494C7.94125 11.3309 7.07823 11.9956 5.53265 12.4118C3.98707 12.8281 2.14146 12.5632 0 12.117C2.14146 12.117 5.74519 10.825 8.43253 6.89797Z" fill="black"/>
<path d="M122.211 8.12402L125.324 16.9423L124.048 19.3596L119.716 8.12402H122.211ZM119.968 22.1056V20.1524H121.379C121.689 20.1524 121.96 20.1138 122.192 20.0364C122.424 19.972 122.63 19.843 122.81 19.6497C123.004 19.4563 123.165 19.1726 123.294 18.7988L127.258 8.12402H129.695L125.015 19.8044C124.667 20.681 124.229 21.3192 123.7 21.7188C123.171 22.1185 122.514 22.3183 121.727 22.3183C121.392 22.3183 121.076 22.299 120.78 22.2603C120.496 22.2345 120.226 22.183 119.968 22.1056Z" fill="black"/>
<path d="M113.298 8.12411H119.293V10.0966H113.298V8.12411ZM119.313 3.38624V5.39741C119.184 5.39741 119.048 5.39741 118.906 5.39741C118.778 5.39741 118.642 5.39741 118.5 5.39741C117.907 5.39741 117.508 5.53923 117.301 5.82286C117.108 6.10648 117.011 6.4868 117.011 6.96381V17.6772H114.671V6.96381C114.671 6.08715 114.813 5.38452 115.097 4.85594C115.38 4.31447 115.78 3.92126 116.296 3.67631C116.811 3.41847 117.411 3.28955 118.094 3.28955C118.288 3.28955 118.487 3.29599 118.694 3.30889C118.913 3.32178 119.119 3.34756 119.313 3.38624Z" fill="black"/>
<path d="M109.449 17.677V8.12391H111.809V17.677H109.449ZM110.61 6.20942C110.21 6.20942 109.868 6.07405 109.585 5.80332C109.314 5.51969 109.179 5.17805 109.179 4.77839C109.179 4.37873 109.314 4.04354 109.585 3.7728C109.868 3.50207 110.21 3.3667 110.61 3.3667C111.009 3.3667 111.345 3.50207 111.615 3.7728C111.899 4.04354 112.041 4.37873 112.041 4.77839C112.041 5.17805 111.899 5.51969 111.615 5.80332C111.345 6.07405 111.009 6.20942 110.61 6.20942Z" fill="black"/>
<path d="M100.421 17.6772H98.0615V3.28955H100.44V9.36175C100.737 8.89764 101.149 8.53021 101.678 8.25948C102.219 7.97585 102.838 7.83403 103.534 7.83403C104.707 7.83403 105.597 8.18857 106.203 8.89764C106.822 9.60671 107.131 10.5736 107.131 11.7984V17.6772H104.772V12.3592C104.772 11.8177 104.688 11.373 104.52 11.0249C104.353 10.6768 104.121 10.4189 103.824 10.2513C103.528 10.0708 103.18 9.98058 102.78 9.98058C102.29 9.98058 101.865 10.0902 101.504 10.3093C101.156 10.5156 100.885 10.8057 100.692 11.1796C100.511 11.5534 100.421 11.9789 100.421 12.4559V17.6772Z" fill="black"/>
<path d="M86.8691 12.8813C86.8691 11.9015 87.0689 11.0313 87.4685 10.2706C87.8811 9.50996 88.4419 8.91692 89.151 8.49148C89.8729 8.05315 90.7045 7.83398 91.6456 7.83398C92.9477 7.83398 94.0113 8.17562 94.8364 8.85891C95.6744 9.5293 96.1579 10.4382 96.2868 11.5856H93.9275C93.7857 11.0441 93.5214 10.638 93.1346 10.3673C92.7608 10.0837 92.2902 9.94185 91.723 9.94185C91.233 9.94185 90.7947 10.0643 90.408 10.3093C90.0341 10.5414 89.744 10.8766 89.5377 11.3149C89.3315 11.7532 89.2283 12.2754 89.2283 12.8813C89.2283 13.4872 89.325 14.0093 89.5184 14.4477C89.7118 14.886 89.989 15.2277 90.3499 15.4726C90.7238 15.7047 91.1621 15.8207 91.6649 15.8207C92.258 15.8207 92.7479 15.6789 93.1346 15.3953C93.5343 15.1116 93.7986 14.7055 93.9275 14.1769H96.3061C96.203 14.9247 95.9387 15.5822 95.5132 16.1494C95.1007 16.7038 94.5657 17.1421 93.9082 17.4644C93.2507 17.7739 92.5029 17.9286 91.6649 17.9286C90.698 17.9286 89.8536 17.7223 89.1316 17.3097C88.4097 16.8843 87.8489 16.2977 87.4492 15.55C87.0624 14.7893 86.8691 13.8998 86.8691 12.8813Z" fill="black"/>
<path d="M80.9381 17.9286C79.9969 17.9286 79.1589 17.7158 78.4241 17.2904C77.7021 16.8521 77.1349 16.259 76.7223 15.5113C76.3098 14.7506 76.1035 13.8804 76.1035 12.9006C76.1035 11.9079 76.3033 11.0313 76.703 10.2706C77.1026 9.50996 77.6635 8.91692 78.3854 8.49148C79.1074 8.05315 79.9325 7.83398 80.8607 7.83398C81.8276 7.83398 82.6592 8.04026 83.3553 8.4528C84.0515 8.85246 84.5865 9.41327 84.9604 10.1353C85.3472 10.8572 85.5406 11.721 85.5406 12.7266V13.4421L77.3412 13.4614L77.3798 11.953H83.2006C83.2006 11.2955 82.9879 10.767 82.5625 10.3673C82.1499 9.96763 81.5891 9.7678 80.88 9.7678C80.3257 9.7678 79.8551 9.88384 79.4684 10.1159C79.0945 10.348 78.8109 10.6961 78.6175 11.1602C78.4241 11.6243 78.3274 12.1915 78.3274 12.8619C78.3274 13.8933 78.5466 14.6733 78.9849 15.2019C79.4361 15.7304 80.1001 15.9947 80.9767 15.9947C81.6213 15.9947 82.1499 15.8723 82.5625 15.6273C82.9879 15.3824 83.2651 15.0343 83.394 14.583H85.5792C85.373 15.6273 84.8573 16.446 84.0322 17.039C83.22 17.632 82.1886 17.9286 80.9381 17.9286Z" fill="black"/>
<path d="M70.1744 17.9286C69.2333 17.9286 68.3953 17.7158 67.6604 17.2904C66.9385 16.8521 66.3712 16.259 65.9587 15.5113C65.5461 14.7506 65.3398 13.8804 65.3398 12.9006C65.3398 11.9079 65.5397 11.0313 65.9393 10.2706C66.339 9.50996 66.8998 8.91692 67.6218 8.49148C68.3437 8.05315 69.1688 7.83398 70.0971 7.83398C71.064 7.83398 71.8955 8.04026 72.5917 8.4528C73.2879 8.85246 73.8229 9.41327 74.1968 10.1353C74.5835 10.8572 74.7769 11.721 74.7769 12.7266V13.4421L66.5775 13.4614L66.6162 11.953H72.437C72.437 11.2955 72.2243 10.767 71.7988 10.3673C71.3863 9.96763 70.8255 9.7678 70.1164 9.7678C69.562 9.7678 69.0915 9.88384 68.7047 10.1159C68.3308 10.348 68.0472 10.6961 67.8538 11.1602C67.6604 11.6243 67.5637 12.1915 67.5637 12.8619C67.5637 13.8933 67.7829 14.6733 68.2212 15.2019C68.6725 15.7304 69.3364 15.9947 70.2131 15.9947C70.8577 15.9947 71.3863 15.8723 71.7988 15.6273C72.2243 15.3824 72.5014 15.0343 72.6304 14.583H74.8156C74.6093 15.6273 74.0936 16.446 73.2685 17.039C72.4563 17.632 71.4249 17.9286 70.1744 17.9286Z" fill="black"/>
<path d="M53.9268 22.1056V8.12406H56.1121L56.2668 9.57442C56.5504 9.02006 56.9887 8.59462 57.5818 8.2981C58.1748 7.98869 58.8259 7.83398 59.5349 7.83398C60.4503 7.83398 61.2367 8.04026 61.8942 8.4528C62.5646 8.86535 63.0867 9.43906 63.4606 10.1739C63.8345 10.9088 64.0214 11.779 64.0214 12.7846C64.0214 13.7773 63.8474 14.6604 63.4993 15.4339C63.1512 16.2075 62.6419 16.8198 61.9716 17.2711C61.3141 17.7094 60.5083 17.9286 59.5543 17.9286C58.8452 17.9286 58.1942 17.7932 57.6011 17.5225C57.021 17.2517 56.5826 16.8779 56.2861 16.4008V22.1056H53.9268ZM56.3054 12.9006C56.3054 13.4679 56.415 13.9707 56.6342 14.409C56.8534 14.8473 57.1628 15.1954 57.5624 15.4533C57.975 15.6982 58.452 15.8207 58.9935 15.8207C59.5478 15.8207 60.0248 15.6982 60.4245 15.4533C60.8242 15.1954 61.1271 14.8473 61.3334 14.409C61.5397 13.9707 61.6428 13.4679 61.6428 12.9006C61.6428 12.3334 61.5397 11.8306 61.3334 11.3922C61.1271 10.9539 60.8242 10.6123 60.4245 10.3673C60.0248 10.1095 59.5478 9.98053 58.9935 9.98053C58.452 9.98053 57.975 10.103 57.5624 10.348C57.1628 10.5929 56.8534 10.9346 56.6342 11.3729C56.415 11.8112 56.3054 12.3205 56.3054 12.9006Z" fill="black"/>
<path d="M42.0196 7.48595C42.0196 6.66085 42.2323 5.93244 42.6577 5.30072C43.0832 4.66901 43.6698 4.17911 44.4175 3.83102C45.1781 3.47004 46.0548 3.28955 47.0475 3.28955C48.0015 3.28955 48.8266 3.45715 49.5228 3.79234C50.2319 4.12754 50.7798 4.60455 51.1666 5.22337C51.5662 5.8422 51.7789 6.57705 51.8047 7.42793H49.3294C49.3036 6.822 49.0845 6.35144 48.6719 6.01624C48.2594 5.66815 47.705 5.49411 47.0088 5.49411C46.2482 5.49411 45.6358 5.66815 45.1717 6.01624C44.7205 6.35144 44.4949 6.81555 44.4949 7.40859C44.4949 7.91139 44.6302 8.31104 44.901 8.60756C45.1846 8.89119 45.6229 9.10391 46.216 9.24573L48.4399 9.74852C49.6517 10.0063 50.5542 10.4511 51.1472 11.0828C51.7403 11.7017 52.0368 12.5397 52.0368 13.5968C52.0368 14.4606 51.8241 15.2212 51.3986 15.8787C50.9732 16.5362 50.3672 17.0455 49.5808 17.4064C48.8073 17.7545 47.8984 17.9286 46.8541 17.9286C45.8614 17.9286 44.9912 17.761 44.2435 17.4258C43.4957 17.0777 42.9091 16.5942 42.4837 15.9754C42.0711 15.3566 41.852 14.6282 41.8262 13.7902H44.3015C44.3144 14.3832 44.5464 14.8538 44.9977 15.2019C45.4618 15.5371 46.087 15.7047 46.8735 15.7047C47.6986 15.7047 48.3496 15.5371 48.8266 15.2019C49.3165 14.8538 49.5615 14.3961 49.5615 13.8289C49.5615 13.339 49.4326 12.9522 49.1747 12.6686C48.9169 12.3721 48.4979 12.1658 47.9177 12.0498L45.6745 11.547C44.4755 11.2891 43.5666 10.825 42.9478 10.1546C42.329 9.47134 42.0196 8.58178 42.0196 7.48595Z" fill="black"/>
</g>
<defs>
<clipPath id="clip0_3320_8894">
<rect width="130" height="23" fill="white"/>
</clipPath>
</defs>
</svg>
