<svg width="729" height="555" viewBox="0 0 729 555" fill="none" xmlns="http://www.w3.org/2000/svg">
<g clip-path="url(#clip0_3410_1726)">
<path d="M442.042 167.244C442.949 167.286 443.846 167.048 444.614 166.562C445.381 166.077 445.98 165.367 446.33 164.529C446.681 163.692 446.765 162.766 446.572 161.879C446.379 160.992 445.918 160.186 445.251 159.569C445.139 159.126 445.059 158.807 444.947 158.363C444.987 158.267 445.028 158.17 445.068 158.074C449.145 148.353 462.961 148.42 467.003 158.155C470.591 166.796 475.159 175.451 476.283 184.587C476.779 188.625 476.57 192.718 475.666 196.685C484.092 178.305 488.468 158.327 488.496 138.107C488.498 133.033 488.216 127.963 487.652 122.921C487.185 118.787 486.538 114.683 485.711 110.608C481.194 88.4979 471.497 67.7746 457.416 50.1397C450.601 46.4213 445.09 40.7032 441.625 33.7561C440.369 31.2588 439.482 28.5929 438.99 25.8415C439.759 25.9423 441.889 14.2342 441.309 13.5158C442.381 11.8901 444.298 11.082 445.469 9.49562C451.288 1.60596 459.306 2.98354 463.491 13.705C472.432 18.2175 472.519 25.7013 467.033 32.899C463.542 37.4782 463.063 43.6744 460 48.5768C460.315 48.9801 460.643 49.3709 460.958 49.7742C466.718 57.1802 471.738 65.1328 475.946 73.5181C474.755 64.2181 476.513 53.014 479.51 45.7917C482.921 37.5627 489.315 30.6322 494.946 23.5183C501.709 14.9733 515.577 18.7025 516.769 29.5346C516.78 29.6395 516.792 29.7443 516.803 29.8491C515.966 30.3209 515.148 30.8217 514.347 31.3514C513.34 32.0237 512.561 32.9843 512.11 34.1073C511.659 35.2303 511.558 36.4633 511.819 37.6448C512.081 38.8263 512.694 39.9012 513.577 40.7286C514.46 41.556 515.572 42.0974 516.768 42.2818L516.891 42.3007C516.593 45.3148 516.066 48.3019 515.316 51.2361C522.539 79.1697 506.944 89.3437 484.677 89.8007C484.186 90.0528 483.707 90.3048 483.215 90.5443C487.443 102.526 490.095 115.007 491.105 127.672C491.676 135.144 491.642 142.651 491.004 150.118L491.042 149.853C492.655 141.55 497.084 134.058 503.582 128.643C513.232 120.715 526.867 117.796 537.278 111.424C542.289 108.357 548.711 112.321 547.837 118.131C547.823 118.224 547.808 118.316 547.794 118.409C546.242 119.041 544.731 119.769 543.269 120.589C542.433 121.061 541.614 121.562 540.813 122.092C539.807 122.764 539.028 123.725 538.577 124.848C538.126 125.971 538.024 127.204 538.286 128.385C538.548 129.567 539.16 130.641 540.044 131.469C540.927 132.296 542.039 132.838 543.235 133.022L543.358 133.041C543.446 133.054 543.522 133.066 543.61 133.079C540.958 139.41 537.236 145.238 532.607 150.307C528.091 174.692 508.692 177.005 487.941 169.904H487.929C485.652 179.797 482.353 189.427 478.086 198.639H442.923C442.797 198.248 442.683 197.845 442.57 197.454C445.825 197.658 449.092 197.464 452.3 196.874C449.691 193.673 447.082 190.447 444.473 187.246C444.415 187.186 444.36 187.123 444.309 187.057C442.986 185.418 441.65 183.792 440.326 182.154L440.326 182.152C440.255 177.13 440.832 172.12 442.04 167.245L442.042 167.244Z" fill="#008E00" fill-opacity="0.2"/>
<path d="M554.939 77.2577C548.401 53.421 601.134 32.9806 614.982 52.1763C616.907 49.4472 624.023 47.7896 627.289 48.6267C630.554 49.4639 633.299 51.5568 635.978 53.5828C639.662 56.4124 643.48 59.3424 645.74 63.411C648.017 67.4629 648.369 72.9882 645.305 76.5042C642.877 79.3003 635.711 81.1086 632.06 81.8453C629.515 82.3644 627.372 82.7829 625.53 83.0843C623.857 80.6741 623.087 77.7517 623.354 74.8299C622.114 75.6661 621.075 76.7664 620.31 78.0516C619.546 79.3369 619.076 80.7754 618.933 82.2639C618.883 82.8834 639.511 158.78 639.511 158.78C637.033 160.191 634.426 161.363 631.726 162.28C626.384 154.116 622.292 145.199 619.586 135.825C618.964 142.093 619.043 148.411 619.821 154.662C620.234 158.167 620.827 161.648 621.596 165.093C597.083 170.383 560.213 168.642 544.173 146.139C544.17 146.046 544.167 145.953 544.164 145.86C544.152 144.972 543.831 144.115 543.257 143.438C542.682 142.76 541.89 142.303 541.016 142.145C540.142 141.988 539.24 142.139 538.465 142.573C537.69 143.007 537.089 143.697 536.767 144.524C536.378 145.517 536.02 146.377 535.7 147.06C531.029 130.35 537.073 111.012 554.939 77.2577Z" fill="#2F2E41"/>
<path d="M513.225 476.888V477.668C513.195 477.409 513.195 477.147 513.225 476.888Z" fill="#2F2E41"/>
<path d="M537.231 341.988C537.854 341.819 538.489 341.696 539.13 341.619C538.394 341.739 537.761 341.862 537.231 341.988Z" fill="#2F2E41"/>
<path d="M536.675 342.13C536.844 342.082 537.031 342.035 537.231 341.988C537.045 342.036 536.866 342.072 536.675 342.13Z" fill="#2F2E41"/>
<path d="M714.029 554.997H624.178C622.896 553.974 622.005 552.541 621.654 550.939C621.304 549.336 621.516 547.662 622.254 546.198C624.708 540.569 619.898 535.425 619.898 535.425C618.266 533.512 617.13 531.225 616.593 528.768C616.056 526.311 616.133 523.76 616.819 521.34C619.2 513.026 609.87 489.558 609.87 489.558C609.87 489.558 604.841 519.86 598.678 554.997H513.225C511.794 552.559 511.039 549.782 511.039 546.955C511.039 544.127 511.794 541.351 513.225 538.913C518.205 530.469 513.225 528.85 513.225 528.85C513.225 528.85 508.246 519.402 513.225 512.541C518.205 505.681 513.225 477.668 513.225 477.668C513.413 478.907 514.832 476.655 517.016 471.934C520.342 464.75 525.423 451.832 530.558 436.835C534.228 426.131 537.929 414.354 541.022 402.84H541.029C541.84 399.815 542.608 396.817 543.334 393.847C544.752 388.022 545.968 382.363 546.892 377.048C548.896 365.601 549.556 355.768 548.018 349.373C546.741 344.051 543.949 341.116 539.13 341.619C541.712 341.191 545.495 340.786 550.157 340.403C550.998 340.336 551.868 340.268 552.769 340.193C587.539 337.566 662.137 336.057 662.137 336.057L684.987 376.973L713.924 428.803C713.924 428.803 713.136 498.333 714.029 554.997Z" fill="#2F2E41"/>
<path d="M618.125 159.211L565.482 148.044L555.03 169.083L519.831 189.461C519.831 189.461 542.52 282.228 542.39 295.275C542.062 328.4 489.059 402.656 529.094 396.944C569.129 391.231 577.261 367.303 590.113 371.087C601.704 374.499 615.857 389.678 625.333 378.822C634.808 367.966 638.145 380.502 644.137 380.935C646.984 381.141 645.269 367.227 652.433 381.368C659.597 395.509 697.586 376.473 684.711 363.598C663.267 342.155 658.909 184.084 658.909 184.084L635.038 176.74L618.125 159.211Z" fill="#43AB43"/>
<path d="M518.835 496.102C520.95 493.58 521.998 490.332 521.755 487.05C521.512 483.767 519.997 480.709 517.534 478.526C517.026 478.09 516.483 477.697 515.91 477.35L524.712 434.154L504.364 421.976L498.705 482.453C497.452 484.939 497.058 487.769 497.584 490.502C498.109 493.235 499.525 495.717 501.609 497.561C502.805 498.599 504.194 499.391 505.697 499.892C507.199 500.393 508.785 500.593 510.365 500.481C511.945 500.369 513.487 499.947 514.904 499.239C516.32 498.532 517.584 497.552 518.621 496.355C518.694 496.272 518.765 496.188 518.835 496.102Z" fill="#A0616A"/>
<path d="M582.014 268.412C581.886 267.023 580.115 266.392 577.66 265.522C575.195 264.762 572.852 263.653 570.702 262.227C565.267 258.301 567.407 254.195 570.364 248.52C570.942 247.417 571.543 246.269 572.106 245.075C573.78 241.54 571.115 226.955 564.171 201.719C562.032 193.951 562.04 188.464 560.561 184.823C559.09 181.183 556.14 179.389 548.1 179.013C538.383 178.523 528.868 181.905 521.64 188.419C521.445 188.591 521.242 188.779 521.047 188.959C520.679 189.304 520.319 189.657 519.966 190.017C513.282 196.741 509.458 205.789 509.292 215.268L509.255 216.882L507.596 293.985L502.934 361.646L496.509 454.85L501.268 455.082L520.259 456.028L522.564 456.141L528.028 433.217L534.604 405.632L537.021 395.498L544.52 364.063L548.018 349.373L550.157 340.403L551.028 336.74L555.276 318.936C555.374 318.56 565.147 280.001 576.414 273.553C580.618 271.151 582.134 269.755 582.014 268.412Z" fill="#43AB43"/>
<path d="M708.43 495.643C706.057 493.363 704.666 490.246 704.555 486.956C704.444 483.666 705.622 480.463 707.836 478.028C708.294 477.54 708.792 477.091 709.324 476.685L695.934 434.684L714.856 420.392L726.978 479.911C728.49 482.247 729.186 485.019 728.957 487.792C728.728 490.566 727.588 493.186 725.713 495.243C724.636 496.403 723.34 497.34 721.9 498C720.46 498.659 718.905 499.029 717.322 499.087C715.739 499.145 714.161 498.891 712.676 498.34C711.192 497.788 709.83 496.949 708.67 495.872C708.589 495.797 708.509 495.72 708.43 495.643Z" fill="#A0616A"/>
<path d="M717.687 404.505C717.687 404.505 702.929 352.583 707.43 346.962C711.931 341.341 698.638 340.243 704.366 329.775C710.094 319.306 702.188 317.556 702.188 317.556L697.898 293.487L690.228 234.367L689.995 232.609L687.764 215.409C687.141 210.496 685.534 205.76 683.038 201.482C680.543 197.205 677.21 193.475 673.24 190.515C673.037 190.36 672.83 190.211 672.623 190.062C671.679 189.382 670.714 188.752 669.729 188.172C662.366 183.829 653.72 182.187 645.278 183.528C629.371 186.005 634.322 191.937 631.742 207.829C627.549 233.668 626.461 248.45 628.506 251.79C629.194 252.915 629.918 253.991 630.608 255.024C634.16 260.356 636.727 264.202 631.743 268.697C629.757 270.34 627.547 271.692 625.18 272.713C622.837 273.847 621.141 274.661 621.164 276.056C621.19 277.406 622.846 278.626 627.281 280.561C632.654 282.912 638.426 291.803 643.153 300.885C646.903 308.205 650.248 315.726 653.173 323.414L693.803 437.681L700.429 456.316L702.715 455.954L721.488 452.978L726.196 452.233L717.687 404.505Z" fill="#43AB43"/>
<path d="M595.915 147.255C619.635 147.255 638.863 128.027 638.863 104.308C638.863 80.5889 619.635 61.3608 595.915 61.3608C572.195 61.3608 552.966 80.5889 552.966 104.308C552.966 128.027 572.195 147.255 595.915 147.255Z" fill="#A0616A"/>
<path d="M531.497 80.6063C524.959 56.7696 577.693 36.3292 591.54 55.5249C593.466 52.7959 600.582 51.1382 603.847 51.9754C607.112 52.8125 609.858 54.9054 612.537 56.9314C616.221 59.761 620.038 62.6911 622.299 66.7597C624.576 70.8115 624.927 76.3368 621.863 79.8529C619.435 82.649 612.269 84.4573 608.619 85.194C606.074 85.713 603.931 86.1316 602.089 86.4329C600.416 84.0227 599.645 81.1003 599.912 78.1785C598.673 79.0148 597.633 80.115 596.869 81.4003C596.105 82.6856 595.635 84.124 595.492 85.6125C595.442 86.232 616.07 162.129 616.07 162.129C613.591 163.54 610.984 164.711 608.284 165.628C602.942 157.464 598.851 148.548 596.145 139.174C595.523 145.442 595.602 151.76 596.379 158.01C596.793 161.515 597.385 164.997 598.154 168.441C573.641 173.732 536.772 171.991 520.731 149.488C520.728 149.395 520.726 149.302 520.723 149.208C520.71 148.32 520.39 147.464 519.815 146.786C519.241 146.109 518.449 145.652 517.574 145.494C516.7 145.336 515.798 145.487 515.023 145.921C514.248 146.355 513.648 147.045 513.326 147.873C512.937 148.866 512.578 149.725 512.259 150.409C507.587 133.699 513.632 114.361 531.497 80.6063Z" fill="#2F2E41"/>
<path d="M318.499 229.007C317.592 229.049 316.694 228.811 315.927 228.325C315.16 227.84 314.56 227.13 314.21 226.292C313.86 225.455 313.776 224.53 313.969 223.642C314.162 222.755 314.623 221.949 315.29 221.333C315.401 220.889 315.481 220.57 315.593 220.126C315.553 220.03 315.513 219.933 315.472 219.837C311.396 210.116 297.579 210.183 293.537 219.918C289.949 228.559 285.382 237.214 284.257 246.35C283.762 250.388 283.971 254.481 284.875 258.448C276.448 240.068 272.073 220.09 272.045 199.871C272.043 194.797 272.325 189.727 272.889 184.684C273.355 180.55 274.002 176.446 274.83 172.371C279.346 150.261 289.043 129.538 303.124 111.903C309.939 108.184 315.451 102.466 318.916 95.5192C320.171 93.022 321.058 90.3561 321.55 87.6046C320.781 87.7055 318.651 75.9974 319.231 75.279C318.16 73.6533 316.242 72.8452 315.072 71.2588C309.253 63.3691 301.235 64.7467 297.049 75.4681C288.108 79.9807 288.021 87.4645 293.508 94.6622C296.998 99.2414 297.478 105.438 300.54 110.34C300.225 110.743 299.898 111.134 299.582 111.537C293.823 118.943 288.803 126.896 284.595 135.281C285.785 125.981 284.027 114.777 281.031 107.555C277.619 99.3259 271.226 92.3954 265.595 85.2815C258.832 76.7365 244.963 80.4657 243.772 91.2978C243.76 91.4027 243.749 91.5075 243.738 91.6123C244.574 92.0841 245.393 92.5849 246.194 93.1146C247.2 93.7869 247.98 94.7475 248.431 95.8705C248.882 96.9935 248.983 98.2265 248.721 99.408C248.459 100.589 247.847 101.664 246.964 102.492C246.081 103.319 244.968 103.861 243.772 104.045L243.65 104.064C243.948 107.078 244.474 110.065 245.225 112.999C238.002 140.933 253.596 151.107 275.863 151.564C276.355 151.816 276.834 152.068 277.325 152.308C273.097 164.289 270.445 176.77 269.436 189.435C268.864 196.908 268.898 204.414 269.537 211.881L269.499 211.616C267.885 203.313 263.456 195.821 256.958 190.406C247.308 182.479 233.674 179.559 223.263 173.187C218.251 170.12 211.829 174.084 212.704 179.894C212.718 179.987 212.732 180.08 212.746 180.172C214.298 180.804 215.81 181.533 217.271 182.353C218.107 182.824 218.926 183.325 219.727 183.855C220.733 184.527 221.513 185.488 221.964 186.611C222.415 187.734 222.516 188.967 222.254 190.148C221.993 191.33 221.38 192.405 220.497 193.232C219.614 194.06 218.501 194.601 217.305 194.785L217.183 194.804C217.095 194.817 217.019 194.829 216.931 194.842C219.583 201.173 223.304 207.001 227.933 212.07C232.45 236.455 251.849 238.769 272.599 231.667H272.612C274.888 241.561 278.187 251.19 282.455 260.402H317.618C317.744 260.011 317.857 259.608 317.971 259.217C314.716 259.422 311.448 259.227 308.241 258.637C310.85 255.436 313.459 252.21 316.068 249.009C316.126 248.949 316.18 248.886 316.231 248.82C317.555 247.181 318.891 245.556 320.214 243.917L320.215 243.915C320.285 238.893 319.709 233.883 318.5 229.008L318.499 229.007Z" fill="#008E00" fill-opacity="0.2"/>
<path d="M154.426 52.1772C153.628 54.037 129.021 53.8377 127.894 55.4937C119.204 68.2787 150.528 122.676 141.839 135.477L140.628 136.92C143.463 135.614 146.186 134.077 148.77 132.327C149.002 127.087 149.235 121.83 149.483 116.59C152.086 119.92 154.187 123.612 155.718 127.551C157.742 126.125 159.401 123.481 168.073 118.281C171.583 114.425 175.63 111.094 180.09 108.39L154.426 52.1772Z" fill="#2F2E41"/>
<path d="M172.295 156.957C169.58 155.189 166.481 154.093 163.258 153.761C160.034 153.429 156.777 153.871 153.758 155.05C150.74 156.228 148.045 158.11 145.899 160.538C143.753 162.967 142.217 165.872 141.419 169.013L104.024 266.445L39.747 229.954C39.4647 225.76 37.8614 221.762 35.1669 218.536C32.4724 215.309 28.8251 213.018 24.7483 211.992C20.6714 210.966 16.3743 211.258 12.4734 212.825C8.57252 214.392 5.26815 217.155 3.03424 220.716C0.800329 224.277 -0.248348 228.454 0.0386167 232.648C0.325581 236.842 1.93345 240.838 4.6316 244.061C7.32975 247.285 10.9796 249.572 15.0576 250.593C19.1356 251.614 23.4323 251.318 27.3315 249.746C40.8677 264.193 99.552 323.424 123.847 300.281C144.268 280.828 173.738 205.436 180.832 179.402C181.968 175.239 181.754 170.823 180.22 166.789C178.686 162.756 175.911 159.313 172.295 156.957Z" fill="#FFB6B6"/>
<path d="M102.078 304.364L113.879 357.699L200.169 365.504L208.099 319.063L102.078 304.364Z" fill="#FFB6B6"/>
<path d="M233.888 441.135C233.848 441.9 233.801 442.657 233.746 443.421C232.918 454.472 231.972 467.218 230.947 481.186C229.331 503.351 227.526 528.591 225.705 554.997H44.7117L79.8135 449.494C79.8135 449.494 93.9868 441.691 86.771 428.582C79.5552 415.474 93.7533 425.92 93.8854 407.199C94.0175 388.478 106.74 368.562 106.74 368.562L108.829 340.217L110.02 340.24L204.209 341.809L205.928 341.841L208.821 366.174C226.386 387.075 235.347 413.873 233.888 441.135Z" fill="#2F2E41"/>
<path d="M155.935 131.109L198.885 128.897L218.835 160.418C218.835 160.418 256.37 166.694 253.768 210.923C251.166 255.152 208.099 293.964 208.099 293.964L209.94 287.652L206.743 296.788L207.153 301.918L211.514 307.35L211.963 312.969L208.099 321.858C208.601 322.663 208.868 323.593 208.869 324.543C208.869 325.492 208.604 326.423 208.102 327.229C207.601 328.035 206.884 328.684 206.032 329.104C205.18 329.523 204.228 329.695 203.283 329.6L141.222 323.381C139.81 319.494 138.676 314.844 133.012 322.585L127.166 322.019L102.863 319.664L101.433 314.454C100.62 311.493 100.493 308.386 101.063 305.369C101.632 302.352 102.882 299.504 104.717 297.043C102.606 290.433 103.159 283.26 106.258 277.052L106.374 276.819L108.955 274.668C108.955 274.668 80.72 232.25 113.133 200.302L126.142 178.187L140.698 160.429L155.935 131.109Z" fill="#008E00"/>
<path d="M166.624 112.502C189.118 112.502 207.353 94.2679 207.353 71.7746C207.353 49.2813 189.118 31.0469 166.624 31.0469C144.13 31.0469 125.895 49.2813 125.895 71.7746C125.895 94.2679 144.13 112.502 166.624 112.502Z" fill="#FFB6B6"/>
<path d="M197.558 130.446C194.242 127.675 191.933 123.885 190.991 119.667C190.238 124.789 190.435 130.005 191.572 135.056C189.366 136.714 187.227 138.289 185.204 139.715C183.672 135.777 181.572 132.084 178.969 128.754C178.72 133.994 178.488 139.251 178.256 144.491C175.672 146.242 172.949 147.778 170.114 149.084L171.324 147.642C180.014 134.84 157.527 111.277 166.217 98.4916C168.654 94.9097 157.643 66.6037 149.252 65.3269C141.79 64.1993 142.105 66.355 134.875 67.9303C134.124 64.7991 132.959 61.782 131.409 58.9592C131.822 62.1047 131.727 65.2959 131.127 68.4112C128.557 68.5107 126.535 66.8729 123.798 66.4545C106.336 63.7848 108.11 44.8975 112.969 38.9112C117.844 32.9416 134.029 31.1507 141.492 29.2105C142.172 28.5473 143.714 28.9618 144.394 28.3317C158.695 15.244 177.821 13.0766 195.034 18.8774C213.389 25.0634 224.834 37.0362 230.707 55.4936L232.392 70.2642C233.903 75.0135 232.002 97.1113 230.707 101.924C225.675 120.632 214.956 111.293 197.558 130.446Z" fill="#2F2E41"/>
<path d="M256.945 323.403L255.342 198.527C255.258 193.236 253.098 188.191 249.327 184.479C245.556 180.768 240.477 178.687 235.185 178.687C232.448 178.687 229.739 179.245 227.225 180.326C224.71 181.407 222.442 182.988 220.558 184.974C218.674 186.961 217.215 189.31 216.269 191.878C215.323 194.447 214.91 197.181 215.055 199.914L220.697 329.579L220.805 408.513C217.479 409.924 214.668 412.323 212.754 415.387C210.84 418.45 209.915 422.028 210.106 425.635C210.296 429.242 211.592 432.703 213.818 435.548C216.044 438.393 219.092 440.483 222.547 441.536C226.003 442.588 229.699 442.551 233.132 441.43C236.566 440.309 239.572 438.158 241.74 435.269C243.909 432.381 245.136 428.895 245.254 425.284C245.373 421.674 244.377 418.115 242.402 415.091L256.945 323.403Z" fill="#FFB6B6"/>
<path d="M467.152 484.964C467.152 484.964 464.672 529.564 463.533 555H378.158C376.401 531.852 375.809 514.845 375.809 514.845L371.138 555H284.841L279.491 480.632L305.345 416.546C305.345 416.546 445.456 406.83 458.452 419.156C471.44 431.474 467.152 484.964 467.152 484.964Z" fill="#2F2E41"/>
<path d="M391.656 109.786C417.411 109.786 438.29 88.9082 438.29 63.1537C438.29 37.3992 417.411 16.521 391.656 16.521C365.9 16.521 345.021 37.3992 345.021 63.1537C345.021 88.9082 365.9 109.786 391.656 109.786Z" fill="#FFB6B6"/>
<path d="M446.012 48.0009C441.222 50.185 438.119 66.003 434.354 62.3257C430.589 58.6483 430.84 53.8628 425.765 52.5056C421.666 51.405 417.255 52.6629 413.516 54.6467C412.848 54.9968 412.201 55.3774 411.57 55.7559C411.154 55.4777 410.739 55.216 410.294 54.9745C406.95 53.1848 403.047 52.7458 399.388 53.7478C402.279 54.716 404.793 56.5684 406.573 59.043C405.322 59.8816 404.054 60.7223 402.758 61.4672C391.927 67.7172 376.515 54.1268 365.115 49.0212C372.256 62.4211 368.74 67.9706 362.539 81.829L362.325 82.6182C362.677 79.1449 351.929 76.5564 352.552 81.4458C352.995 84.9173 355.999 92.6334 357.682 95.6984C345.696 81.8394 337.505 64.8798 339.233 47.3845C339.609 43.7093 339.496 39.8315 341.392 36.6417C343.289 33.4683 347.246 31.2413 350.746 32.4515C350.449 26.872 351.67 21.3165 354.279 16.3755C356.887 11.4346 360.786 7.29282 365.561 4.39063C370.336 1.48845 375.807 -0.0656997 381.395 -0.106594C386.982 -0.147487 392.476 1.32641 397.293 4.1584C401.768 6.78451 405.505 10.4987 409.607 13.7024C413.709 16.9062 418.437 19.6987 423.639 19.9632C426.939 20.1224 430.53 19.3168 433.364 21.0258C436.648 23.0088 437.211 27.1606 437.704 31.1557C434.774 31.4444 431.998 32.5999 429.729 34.4744C432.76 34.1652 435.811 34.8196 438.448 36.3444C438.498 36.367 438.546 36.3942 438.591 36.4255C440.327 43.0281 440.149 44.4917 446.012 48.0009Z" fill="#2F2E41"/>
<path d="M285.048 439.107C324.761 392.624 311.347 333.501 295.585 273.82L298.584 185.652C298.731 181.327 299.917 177.101 302.041 173.331C304.165 169.56 307.165 166.357 310.788 163.99L351.33 137.505L367.11 114.691L410.606 119.04L434.726 144.548L461.425 164.929C468.129 170.047 473.229 176.974 476.126 184.895C479.022 192.815 479.594 201.399 477.773 209.634L452.223 325.174C452.223 325.174 462.909 385.071 456.389 391.687C449.868 398.302 433.067 391.69 446.391 399.116C462.38 408.028 476.918 406.383 468.827 414.474C460.735 422.565 470.976 433.814 470.976 433.814L285.048 439.107Z" fill="#095909"/>
<path d="M302.027 506.664L308.648 459.497L282.23 451.956L277.005 502.072C274.819 504.077 273.235 506.651 272.432 509.507C271.628 512.362 271.638 515.385 272.458 518.235C273.279 521.085 274.878 523.65 277.077 525.641C279.275 527.633 281.985 528.971 284.903 529.506C287.82 530.042 290.829 529.753 293.592 528.672C296.354 527.591 298.76 525.761 300.539 523.387C302.318 521.014 303.4 518.192 303.663 515.237C303.926 512.283 303.359 509.314 302.027 506.664Z" fill="#FFB6B6"/>
<path d="M352.321 146.007C352.321 146.007 277.126 170.48 275.333 188.387C273.54 206.293 274.134 217.255 266.198 288.909L266.616 481.925C266.616 481.925 317.03 492.718 311.86 481.178C306.69 469.638 308.494 464.209 308.494 464.209C308.494 464.209 319.302 459.943 316.597 446.394C313.891 432.844 327.46 365.695 327.46 365.695L336.024 245.267L352.321 146.007Z" fill="#095909"/>
<path d="M445.038 504.166L441.515 456.667L468.369 450.869L470.307 501.22C472.358 503.363 473.77 506.036 474.385 508.937C474.999 511.839 474.793 514.855 473.788 517.645C472.782 520.436 471.019 522.891 468.695 524.734C466.371 526.577 463.579 527.736 460.633 528.079C457.686 528.423 454.703 527.937 452.017 526.678C449.332 525.419 447.05 523.436 445.43 520.951C443.81 518.467 442.915 515.579 442.846 512.614C442.777 509.649 443.536 506.723 445.038 504.166Z" fill="#FFB6B6"/>
<path d="M418.427 140.993C418.427 140.993 491.862 170.329 492.48 188.314C493.099 206.3 491.789 217.199 495.025 289.218L481.991 481.795C481.991 481.795 430.979 489.27 436.892 478.092C442.806 466.915 441.361 461.379 441.361 461.379C441.361 461.379 430.854 456.416 434.439 443.072C438.025 429.728 428.875 361.836 428.875 361.836L428.201 241.106L418.427 140.993Z" fill="#095909"/>
</g>
<defs>
<clipPath id="clip0_3410_1726">
<rect width="729" height="555" fill="white"/>
</clipPath>
</defs>
</svg>
