<svg width="764" height="809" viewBox="0 0 764 809" fill="none" xmlns="http://www.w3.org/2000/svg">
<path d="M763.977 640.169C763.98 640.548 763.84 640.914 763.584 641.193C763.463 641.325 763.316 641.431 763.152 641.504C762.988 641.576 762.811 641.614 762.631 641.615H1.34933C0.983086 641.59 0.640137 641.426 0.389709 641.158C0.139282 640.889 0 640.536 0 640.169C0 639.801 0.139282 639.448 0.389709 639.179C0.640137 638.911 0.983086 638.748 1.34933 638.722H762.631C762.811 638.723 762.988 638.761 763.152 638.834C763.316 638.907 763.463 639.013 763.584 639.145C763.84 639.425 763.98 639.79 763.977 640.169Z" fill="#F2F2F2"/>
<path d="M333.1 578.495C477.451 578.495 594.471 461.475 594.471 317.124C594.471 172.773 477.451 55.7529 333.1 55.7529C188.748 55.7529 71.7285 172.773 71.7285 317.124C71.7285 461.475 188.748 578.495 333.1 578.495Z" fill="#003E00"/>
<path d="M558.001 317.124C558.027 352.217 549.83 386.827 534.066 418.18C518.302 449.533 495.41 476.756 467.227 497.665C465.343 499.075 463.422 500.449 461.489 501.786C423.8 527.984 379 542.025 333.101 542.025C287.202 542.025 242.401 527.984 204.713 501.786C202.78 500.449 200.859 499.075 198.975 497.665C170.81 476.738 147.933 449.511 132.171 418.163C116.409 386.814 108.2 352.212 108.2 317.124C108.2 282.036 116.409 247.435 132.171 216.086C147.933 184.738 170.81 157.511 198.975 136.584C200.859 135.174 202.78 133.8 204.713 132.463C242.401 106.265 287.202 92.2239 333.101 92.2239C379 92.2239 423.8 106.265 461.489 132.463C463.422 133.8 465.343 135.174 467.227 136.584C495.41 157.493 518.302 184.715 534.066 216.068C549.83 247.421 558.028 282.032 558.002 317.125L558.001 317.124Z" fill="white"/>
<path d="M333.099 522.574C446.566 522.574 538.549 430.591 538.549 317.124C538.549 203.657 446.566 111.674 333.099 111.674C219.633 111.674 127.649 203.657 127.649 317.124C127.649 430.591 219.633 522.574 333.099 522.574Z" fill="#008E00"/>
<path d="M333.708 97.085C331.936 97.0887 330.238 97.7943 328.985 99.0473C327.732 100.3 327.026 101.999 327.022 103.771V132.947C327.022 134.72 327.727 136.421 328.981 137.675C330.235 138.929 331.935 139.633 333.708 139.633C335.482 139.633 337.182 138.929 338.436 137.675C339.69 136.421 340.394 134.72 340.394 132.947V103.772C340.391 102 339.685 100.301 338.432 99.0483C337.179 97.7953 335.481 97.0897 333.708 97.086V97.085Z" fill="white"/>
<path d="M467.226 136.583C465.342 135.173 463.421 133.799 461.488 132.462C460.328 132.386 459.169 132.614 458.124 133.124C457.08 133.633 456.186 134.406 455.531 135.367L439.107 159.474C438.607 160.199 438.255 161.017 438.071 161.879C437.888 162.741 437.877 163.63 438.038 164.497C438.2 165.363 438.531 166.189 439.013 166.927C439.496 167.665 440.119 168.3 440.847 168.796C441.576 169.292 442.395 169.639 443.258 169.817C444.121 169.995 445.011 170.001 445.876 169.834C446.742 169.667 447.566 169.331 448.3 168.844C449.035 168.358 449.667 167.73 450.158 166.999L466.582 142.892C467.207 141.977 467.593 140.921 467.706 139.819C467.818 138.717 467.653 137.605 467.226 136.583Z" fill="white"/>
<path d="M541.846 246.506C541.178 244.866 539.887 243.557 538.256 242.869C536.624 242.181 534.786 242.168 533.146 242.835L506.109 253.813C504.483 254.492 503.19 255.785 502.513 257.412C501.835 259.039 501.828 260.867 502.491 262.499C503.154 264.132 504.435 265.436 506.055 266.13C507.675 266.823 509.503 266.848 511.142 266.201L538.179 255.223C539.819 254.551 541.125 253.256 541.812 251.622C542.5 249.988 542.512 248.149 541.846 246.506Z" fill="white"/>
<path d="M227.094 159.474L210.67 135.367C210.015 134.406 209.121 133.633 208.077 133.124C207.032 132.614 205.873 132.386 204.713 132.462C202.78 133.799 200.859 135.173 198.975 136.583C198.548 137.605 198.383 138.717 198.495 139.819C198.608 140.921 198.994 141.977 199.619 142.892L216.043 166.999C217.046 168.452 218.583 169.45 220.319 169.774C222.055 170.098 223.848 169.722 225.308 168.728C226.767 167.734 227.775 166.203 228.109 164.469C228.444 162.735 228.079 160.94 227.094 159.474Z" fill="white"/>
<path d="M160.097 253.812L133.061 242.834C131.422 242.187 129.594 242.212 127.974 242.906C126.354 243.599 125.073 244.903 124.41 246.536C123.746 248.168 123.754 249.997 124.432 251.623C125.109 253.25 126.402 254.543 128.028 255.222L155.065 266.2C156.703 266.847 158.531 266.822 160.151 266.129C161.771 265.435 163.052 264.131 163.715 262.498C164.379 260.866 164.371 259.038 163.693 257.411C163.016 255.784 161.722 254.491 160.097 253.812Z" fill="white"/>
<path d="M333.708 494.613C331.936 494.617 330.238 495.322 328.985 496.575C327.732 497.828 327.026 499.527 327.022 501.299V530.475C327.022 532.248 327.727 533.949 328.981 535.203C330.235 536.457 331.935 537.161 333.708 537.161C335.482 537.161 337.182 536.457 338.436 535.203C339.69 533.949 340.394 532.248 340.394 530.475V501.3C340.391 499.528 339.685 497.829 338.432 496.576C337.179 495.323 335.481 494.617 333.708 494.613Z" fill="white"/>
<path d="M466.582 491.355L450.158 467.247C449.667 466.516 449.035 465.888 448.3 465.402C447.566 464.915 446.742 464.579 445.876 464.412C445.011 464.245 444.121 464.251 443.258 464.429C442.395 464.607 441.576 464.954 440.847 465.45C440.119 465.946 439.496 466.581 439.013 467.319C438.531 468.057 438.2 468.883 438.038 469.749C437.877 470.616 437.888 471.505 438.071 472.367C438.255 473.229 438.607 474.047 439.107 474.772L455.531 498.879C456.186 499.84 457.079 500.613 458.124 501.123C459.169 501.632 460.328 501.861 461.488 501.785C463.421 500.448 465.342 499.074 467.226 497.664C467.653 496.642 467.818 495.53 467.706 494.428C467.593 493.326 467.207 492.27 466.582 491.355Z" fill="white"/>
<path d="M538.174 379.027L511.138 368.049C509.499 367.402 507.671 367.427 506.051 368.12C504.431 368.814 503.15 370.118 502.487 371.751C501.824 373.383 501.832 375.211 502.509 376.838C503.187 378.465 504.479 379.758 506.105 380.437L533.142 391.415C534.78 392.062 536.609 392.037 538.229 391.343C539.848 390.65 541.129 389.346 541.792 387.713C542.456 386.081 542.448 384.252 541.77 382.626C541.093 380.999 539.801 379.706 538.175 379.027H538.174Z" fill="white"/>
<path d="M225.331 465.486C223.865 464.488 222.063 464.114 220.322 464.444C218.58 464.775 217.041 465.784 216.043 467.249L199.619 491.356C198.994 492.271 198.608 493.327 198.495 494.429C198.383 495.531 198.548 496.643 198.975 497.665C200.859 499.075 202.78 500.449 204.713 501.786C205.873 501.862 207.032 501.633 208.077 501.124C209.122 500.614 210.015 499.841 210.67 498.88L227.094 474.773C227.588 474.047 227.934 473.232 228.113 472.372C228.292 471.513 228.3 470.626 228.136 469.764C227.972 468.901 227.64 468.079 227.159 467.345C226.678 466.611 226.056 465.98 225.331 465.486Z" fill="white"/>
<path d="M163.768 371.721C163.101 370.081 161.81 368.772 160.178 368.084C158.547 367.396 156.709 367.383 155.068 368.05L128.031 379.028C127.21 379.353 126.46 379.837 125.827 380.453C125.194 381.069 124.688 381.804 124.341 382.616C123.993 383.428 123.81 384.301 123.802 385.185C123.794 386.068 123.961 386.944 124.293 387.763C124.626 388.581 125.117 389.326 125.739 389.953C126.361 390.581 127.102 391.079 127.917 391.418C128.733 391.758 129.607 391.933 130.491 391.932C131.374 391.932 132.249 391.756 133.064 391.416L160.101 380.438C161.742 379.766 163.049 378.472 163.737 376.838C164.425 375.205 164.438 373.365 163.772 371.722L163.768 371.721Z" fill="white"/>
<path d="M342.383 313.807C343 317.462 342.142 321.212 339.997 324.235C337.853 327.258 334.598 329.307 330.945 329.934L212.297 350.115C208.644 350.733 204.894 349.875 201.873 347.73C198.852 345.585 196.806 342.328 196.184 338.675C195.563 335.022 196.417 331.272 198.559 328.249C200.701 325.225 203.956 323.176 207.608 322.551L326.256 302.369C329.911 301.752 333.661 302.61 336.684 304.754C339.707 306.899 341.757 310.154 342.383 313.807Z" fill="#090814"/>
<path d="M467.258 445.26C465.553 446.974 463.239 447.942 460.821 447.952C458.404 447.961 456.082 447.012 454.364 445.311L326.641 318.589C324.954 316.88 324.009 314.574 324.012 312.172C324.015 309.77 324.965 307.467 326.657 305.762C328.348 304.057 330.645 303.088 333.046 303.066C335.448 303.044 337.761 303.97 339.484 305.644L467.208 432.365C468.922 434.069 469.89 436.384 469.9 438.802C469.909 441.219 468.96 443.541 467.259 445.259L467.258 445.26Z" fill="#090814"/>
<path d="M333.1 332.928C341.828 332.928 348.904 325.852 348.904 317.124C348.904 308.396 341.828 301.32 333.1 301.32C324.372 301.32 317.296 308.396 317.296 317.124C317.296 325.852 324.372 332.928 333.1 332.928Z" fill="#CCCCCC"/>
<path d="M224.243 43.084C199.984 81.223 162.971 106.534 117.324 123.161C116.422 123.837 115.396 124.328 114.304 124.607C113.213 124.886 112.076 124.947 110.961 124.787C109.845 124.627 108.772 124.249 107.803 123.674C106.834 123.099 105.987 122.339 105.311 121.437C80.5164 88.331 86.1114 41.016 118.839 15.719C126.751 9.61363 135.797 5.14065 145.451 2.55975C155.105 -0.0211403 165.176 -0.658524 175.079 0.684602C184.982 2.02773 194.519 5.3246 203.137 10.3838C211.756 15.4431 219.283 22.1639 225.282 30.156L225.968 31.072C226.644 31.974 227.135 33.0002 227.414 34.0921C227.693 35.1839 227.755 36.3201 227.595 37.4356C227.435 38.5511 227.056 39.6242 226.481 40.5935C225.907 41.5629 225.146 42.4095 224.244 43.085L224.243 43.084Z" fill="#003E00"/>
<path d="M440.919 30.1561C446.918 22.1642 454.446 15.4436 463.064 10.3846C471.682 5.32549 481.219 2.02872 491.122 0.685599C501.024 -0.657518 511.095 -0.0202096 520.749 2.56052C530.404 5.14125 539.449 9.614 547.361 15.7191C580.085 41.0191 585.684 88.3311 560.889 121.437C560.213 122.339 559.367 123.099 558.397 123.674C557.428 124.249 556.355 124.627 555.239 124.787C554.124 124.947 552.988 124.886 551.896 124.607C550.804 124.328 549.778 123.837 548.876 123.161C506.501 106.937 471.75 78.8611 441.957 43.0841C441.055 42.4086 440.295 41.562 439.72 40.5926C439.145 39.6233 438.767 38.5502 438.607 37.4347C438.446 36.3192 438.508 35.183 438.787 34.0911C439.066 32.9993 439.557 31.9731 440.233 31.0711L440.919 30.1561Z" fill="#003E00"/>
<path d="M430.286 543.566C428.741 544.435 427.603 545.88 427.121 547.585C426.64 549.291 426.853 551.118 427.716 552.666L466.304 621.623C467.174 623.162 468.619 624.293 470.321 624.769C472.023 625.246 473.845 625.029 475.388 624.165C476.931 623.302 478.069 621.863 478.553 620.163C479.037 618.463 478.829 616.64 477.973 615.093L439.385 546.136C438.516 544.591 437.071 543.454 435.366 542.972C433.661 542.491 431.834 542.704 430.286 543.566Z" fill="#008E00"/>
<path d="M226.814 546.137L188.226 615.094C187.36 616.641 187.145 618.47 187.627 620.176C188.109 621.883 189.249 623.328 190.796 624.194C192.344 625.06 194.172 625.276 195.879 624.794C197.585 624.312 199.03 623.171 199.896 621.624L238.483 552.667C238.912 551.901 239.186 551.057 239.289 550.185C239.392 549.313 239.322 548.43 239.083 547.585C238.844 546.74 238.442 545.95 237.898 545.261C237.354 544.571 236.68 543.996 235.913 543.567C235.147 543.138 234.304 542.865 233.432 542.762C232.56 542.659 231.676 542.729 230.831 542.967C229.986 543.206 229.196 543.609 228.507 544.153C227.818 544.696 227.243 545.371 226.814 546.137Z" fill="#008E00"/>
<path d="M474.119 639.28C485.533 639.28 494.786 630.027 494.786 618.613C494.786 607.199 485.533 597.946 474.119 597.946C462.705 597.946 453.452 607.199 453.452 618.613C453.452 630.027 462.705 639.28 474.119 639.28Z" fill="#008E00"/>
<path d="M488.708 110.459C500.122 110.459 509.375 101.206 509.375 89.792C509.375 78.3779 500.122 69.125 488.708 69.125C477.294 69.125 468.041 78.3779 468.041 89.792C468.041 101.206 477.294 110.459 488.708 110.459Z" fill="#008E00"/>
<path d="M331.885 61.832C343.299 61.832 352.552 52.5791 352.552 41.165C352.552 29.751 343.299 20.498 331.885 20.498C320.471 20.498 311.218 29.751 311.218 41.165C311.218 52.5791 320.471 61.832 331.885 61.832Z" fill="#008E00"/>
<path d="M182.355 108.028C193.77 108.028 203.022 98.7752 203.022 87.3611C203.022 75.947 193.77 66.6941 182.355 66.6941C170.941 66.6941 161.688 75.947 161.688 87.3611C161.688 98.7752 170.941 108.028 182.355 108.028Z" fill="#008E00"/>
<path d="M195.729 639.28C207.143 639.28 216.396 630.027 216.396 618.613C216.396 607.199 207.143 597.946 195.729 597.946C184.314 597.946 175.062 607.199 175.062 618.613C175.062 630.027 184.314 639.28 195.729 639.28Z" fill="#008E00"/>
<path d="M561.789 709.462L562.606 711.528H561.789V709.462Z" fill="#2F2E41"/>
<path d="M657.441 403.371H634.774V447.371H657.441V403.371Z" fill="#ED9DA0"/>
<path d="M618.076 383.687C618.076 389.292 619.738 394.771 622.852 399.431C625.966 404.092 630.392 407.724 635.57 409.869C640.748 412.014 646.446 412.575 651.943 411.482C657.441 410.388 662.49 407.689 666.454 403.726C670.417 399.763 673.116 394.713 674.21 389.216C675.303 383.719 674.742 378.021 672.597 372.843C670.453 367.665 666.82 363.239 662.16 360.124C657.5 357.01 652.021 355.348 646.416 355.348C642.695 355.348 639.009 356.081 635.571 357.505C632.133 358.929 629.008 361.016 626.377 363.648C623.745 366.279 621.658 369.404 620.233 372.842C618.809 376.28 618.076 379.965 618.076 383.687Z" fill="#ED9DA0"/>
<path d="M602.221 537.162H657.688V598.352L599.314 591.114L602.221 537.162Z" fill="#ED9DA0"/>
<path d="M598.232 742.492C598.232 742.492 600.59 747.219 603.82 752.892C605.083 755.127 606.491 757.53 607.933 759.843C613.04 768.013 607.933 794.043 607.933 794.043L619.109 795.574L630.285 789.986L632.33 771.099V757.292L619.589 743.043L614.001 736.874L598.232 742.492Z" fill="#ED9DA0"/>
<path d="M543.592 647.029C543.592 647.029 570.649 704.708 569.621 709.815C568.593 714.922 585.446 755.759 585.446 755.759C589.29 757.569 596.354 754.966 603.015 751.512C608.038 748.835 612.89 745.849 617.544 742.571L618.527 741.878L619.119 741.453L574.706 618.43L614.001 589.609L616.907 587.474L634.476 574.509L580.831 584.209C580.831 584.209 578.965 583.974 569.096 589.495C564.357 592.144 557.775 596.111 548.677 602.079C520.637 620.487 543.592 647.029 543.592 647.029Z" fill="#A6D7A6"/>
<path d="M625.791 752.698C625.791 752.698 639.068 750.653 634.463 772.098C634.463 772.098 634.263 797.244 632.418 801.155C630.573 805.066 609.954 810.342 606.389 806.262C602.824 802.182 609.944 779.225 609.944 779.225C609.944 779.225 616.124 784.961 622.554 780.347C628.984 775.733 625.791 752.698 625.791 752.698Z" fill="#090814"/>
<path d="M634.989 748.616C636.437 749.995 637.616 751.633 638.465 753.444C639.519 755.495 640.19 757.722 640.443 760.015C640.577 761.758 640.857 763.491 641.143 765.215C642.417 772.491 637.533 794.049 637.533 794.049L656.933 797.111L664.074 789.456L665.605 772.614C663.699 766.84 662.667 760.813 662.543 754.733C662.543 750.341 660.308 746.418 658.073 743.557C656.557 741.648 654.821 739.926 652.899 738.427C652.899 738.427 630.898 745.04 634.989 748.616Z" fill="#ED9DA0"/>
<path d="M572.197 631.718C572.197 631.718 584.949 655.713 593.13 675.618C598.494 688.694 609.581 719.83 616.6 739.656L617.628 742.584C620.713 751.357 622.769 757.292 622.769 757.292C624.129 757.301 625.482 757.101 626.781 756.699C627.988 756.375 629.34 755.939 630.781 755.399L632.401 754.784C634.01 754.158 635.754 753.432 637.419 752.672C645.533 749.051 654.183 744.335 657.319 742.614L658.504 741.955C652.516 729.955 648.045 717.255 645.197 704.149C640.604 682.714 624.778 651.622 624.778 651.622L622.73 641.409L661.019 636.302C689.864 621.885 675.85 593.465 667.613 580.847C666.209 578.656 664.69 576.541 663.064 574.509L632.431 581.215C632.431 581.215 627.603 582.757 616.874 587.507L611.945 589.742C605.932 592.502 598.534 596.056 589.593 600.616C559.441 615.86 572.197 631.718 572.197 631.718Z" fill="#A6D7A6"/>
<path d="M637.728 792.517C636.636 794.357 636.114 796.479 636.226 798.616C636.338 800.753 637.08 802.809 638.358 804.525C639.636 806.241 641.394 807.54 643.409 808.259C645.424 808.978 647.607 809.084 649.683 808.565C655.953 807.012 663.383 804.352 665.62 800.165C669.699 792.51 667.665 760.859 667.665 760.859L662.3 752.946C662.3 752.946 663 766.109 658.57 776.163C654.14 786.217 640.815 775.157 640.815 775.157L637.728 792.517Z" fill="#090814"/>
<path d="M457.91 433.636C458.725 434.912 459.809 435.993 461.087 436.804C462.365 437.615 463.805 438.136 465.306 438.331C466.807 438.525 468.332 438.388 469.775 437.929C471.217 437.47 472.541 436.7 473.654 435.674L506.085 453.052L504.346 434.013L473.815 420.43C471.966 418.68 469.541 417.668 466.997 417.586C464.453 417.503 461.967 418.356 460.008 419.982C458.05 421.608 456.756 423.896 456.37 426.412C455.984 428.928 456.534 431.498 457.915 433.636H457.91Z" fill="#ED9DA0"/>
<path d="M481.537 440.28L494.245 422.738L555.466 451.679L631.649 437.385C635.415 436.678 639.29 436.809 643 437.768C646.709 438.728 650.162 440.492 653.112 442.936C656.063 445.38 658.44 448.444 660.073 451.91C661.707 455.376 662.557 459.159 662.564 462.99C662.569 469.91 659.829 476.55 654.945 481.453C650.06 486.355 643.431 489.12 636.51 489.14L549.204 489.302L481.537 440.28Z" fill="#008E00"/>
<path d="M668.162 596.568C667.296 596.566 666.444 596.355 665.678 595.952L601.133 550.82L600.244 547.181L598.569 535.666L593.536 506.766C593.402 506.476 593.122 506.001 592.805 505.466C589.539 499.933 579.6 483.091 598.569 459.902L631.869 421.074L660.453 419.844L660.778 420.255C668.421 429.848 673.576 441.182 675.784 453.248C677.991 465.313 677.184 477.738 673.433 489.416L670.457 543.169L673.649 554.025C675.515 560.404 675.206 567.223 672.772 573.408L673.504 590.986C673.532 591.707 673.415 592.425 673.16 593.1C672.904 593.774 672.516 594.39 672.017 594.911C671.519 595.432 670.921 595.847 670.258 596.132C669.596 596.416 668.883 596.565 668.162 596.568Z" fill="#008E00"/>
<path d="M601.637 637.242C602.941 636.472 604.059 635.426 604.914 634.177C605.769 632.928 606.34 631.507 606.586 630.014C606.833 628.521 606.749 626.992 606.341 625.534C605.932 624.077 605.209 622.727 604.222 621.579L622.716 589.779L603.628 590.855L588.992 620.892C587.175 622.678 586.075 625.068 585.902 627.61C585.729 630.152 586.494 632.669 588.052 634.684C589.611 636.7 591.854 638.074 594.358 638.546C596.862 639.018 599.452 638.556 601.637 637.246V637.242Z" fill="#ED9DA0"/>
<path d="M608.901 617.516L591.812 604.205L622.865 544.027L611.229 467.393C610.653 463.605 610.919 459.737 612.006 456.063C613.094 452.389 614.978 448.999 617.523 446.135C620.068 443.271 623.212 441.003 626.733 439.491C630.254 437.979 634.064 437.261 637.894 437.387C644.81 437.622 651.35 440.592 656.08 445.644C660.809 450.695 663.342 457.417 663.122 464.334L660.247 551.592L608.901 617.516Z" fill="#008E00"/>
<path d="M632.264 367.252C628.783 372.9 631.992 380.338 636.281 385.4C640.57 390.462 646.1 394.905 648.014 401.257C649.731 406.957 648.169 413.094 646.15 418.689C644.131 424.284 641.621 429.863 641.413 435.807C641.205 441.751 639.156 437.375 644.755 439.382C650.501 441.441 657.294 438.205 662.829 440.782C670.038 444.135 671.894 460.343 679.753 461.547C684.59 462.288 688.853 453.495 690.201 448.793C691.549 444.091 690.582 439.071 689.601 434.277C686.924 421.141 689.109 418.946 686.432 405.81L679.749 373.02C678.419 366.494 676.841 359.514 671.936 355.008C665.943 349.502 656.909 349.372 648.778 349.702C641.307 350.002 633.535 350.516 627.031 354.202C620.527 357.888 617.831 365.887 620.078 373.017C622.178 367.999 626.383 365.027 631.528 366.797" fill="#090814"/>
</svg>
