<svg width="38" height="23" viewBox="0 0 38 23" fill="none" xmlns="http://www.w3.org/2000/svg">
<path fill-rule="evenodd" clip-rule="evenodd" d="M8.43253 6.89797C9.37662 5.51835 10.1953 4.83619 11.4211 5.21513C12.1629 5.44444 12.4673 6.39132 12.1629 7.57942C11.6275 9.66847 11.4211 10.8676 11.4211 12.2948C13.3041 8.34818 16.7848 3.10273 18.2934 1.33845C19.3361 0.119013 20.8307 0.274523 21.3933 0.546524C22.3075 0.988482 22.3558 1.94679 22.0402 2.86327C19.8571 9.20382 19.7811 12.5902 19.513 15.8801C20.8698 12.2314 22.5194 8.79928 24.5115 6.38208C25.3509 5.22272 26.8219 4.85878 27.7511 5.2354C28.6803 5.61202 28.8921 6.51308 28.6803 7.64223C28.128 10.5867 27.8539 11.9668 27.8539 13.1075C28.8629 12.3358 29.6663 11.6838 31.5031 11.5348C33.3399 11.3858 37.1359 12.117 37.1359 12.117C37.1359 12.117 34.9445 12.4894 33.787 12.7732C31.4142 13.355 30.5856 14.0355 29.0496 16.2851C28.6033 16.9387 27.8539 17.4406 27.0097 17.3768C26.1654 17.3129 25.5985 16.7818 25.3509 16.0645C25.0066 15.0676 24.9043 13.5764 25.3509 10.3494C23.1625 13.6788 22.0402 18.2014 20.5408 21.2006C20.1574 21.9674 19.5027 22.8412 18.6154 22.8412C17.7281 22.8412 16.5774 22.4971 16.428 19.8608C16.0453 13.1075 17.3211 7.73355 17.3211 7.73355C14.8362 11.6735 14.0426 13.9701 13.1783 15.1677C12.3139 16.3653 11.4752 17.4024 10.455 17.3768C9.43478 17.3511 8.84103 16.2106 8.71194 15.1677C8.58284 14.1248 8.54569 12.7928 8.92275 10.3494C7.94125 11.3309 7.07823 11.9956 5.53265 12.4118C3.98707 12.8281 2.14146 12.5632 0 12.117C2.14146 12.117 5.74519 10.825 8.43253 6.89797Z" fill="black"/>
</svg>
