<svg width="500" height="528" viewBox="0 0 500 528" fill="none" xmlns="http://www.w3.org/2000/svg">
<path d="M250 500C388.071 500 500 388.071 500 250C500 111.929 388.071 0 250 0C111.929 0 0 111.929 0 250C0 388.071 111.929 500 250 500Z" fill="#008E00" fill-opacity="0.15"/>
<path d="M300.71 263.543L295.337 289.93L269.034 334.137L236.596 320.283C236.596 320.283 192.519 274.097 220.216 267.498C223.535 266.789 226.667 265.393 229.413 263.4C234.857 259.302 236.561 253.334 236.561 247.497C236.561 237.859 232.058 228.568 232.058 228.568L288.798 210.699C286.454 218.155 285.084 225.883 284.723 233.691C284.295 249.177 290.036 256.753 294.742 260.387C296.504 261.823 298.532 262.896 300.711 263.544L300.71 263.543Z" fill="#ED9DA0"/>
<path d="M295.337 203.503C295.291 213.831 291.667 223.823 285.082 231.78C278.498 239.737 269.36 245.167 259.224 247.146C249.087 249.124 238.578 247.53 229.485 242.633C220.392 237.737 213.276 229.841 209.349 220.289C205.421 210.737 204.925 200.119 207.944 190.242C210.963 180.365 217.311 171.84 225.907 166.116C234.504 160.392 244.818 157.824 255.095 158.848C265.372 159.872 274.977 164.426 282.275 171.734C286.432 175.912 289.726 180.868 291.967 186.319C294.208 191.77 295.354 197.609 295.337 203.503Z" fill="#ED9DA0"/>
<path d="M245.066 307.082C245.066 307.082 221.863 274.918 230.605 262.422L191.4 278.492C191.4 278.492 167.801 275.633 159.236 310.847C157.869 316.698 157.375 322.72 157.77 328.716C158.083 334.028 157.365 343.38 151.314 355.471C141.626 374.829 143.833 419.252 163.632 423.659C183.431 428.066 190.459 425.851 190.459 425.851C190.459 425.851 187.826 506.356 176.39 515.588C164.955 524.82 205.541 522.629 205.541 522.629C205.541 522.629 240.612 524.392 258.647 527.025C276.682 529.658 327.263 517.793 327.263 517.793C327.263 517.793 319.782 483.913 317.149 462.363C314.516 440.813 308.346 394.914 308.346 394.914L353.221 334.159C353.221 334.159 361.131 297.433 333.423 281.16C305.714 264.888 295.301 260.91 295.301 260.91C295.301 260.91 267.498 306.178 252.988 308.405C252.988 308.405 247.473 310.622 245.066 307.082Z" fill="#008E00"/>
<path opacity="0.1" d="M193.604 319.842C193.604 319.842 193.164 334.363 195.796 340.094C198.429 345.824 208.114 377.488 208.114 377.488H186.123C186.123 377.488 198.036 364.729 197.118 358.57C196.201 352.412 193.604 319.842 193.604 319.842Z" fill="black"/>
<path d="M258.706 429.378C258.706 429.378 210.127 417.465 205.6 407.375C201.074 397.286 188.577 374.625 188.577 374.625L193.699 367.715L217.334 386.265C217.334 386.265 245.483 408.697 258.682 410.9C271.881 413.104 258.706 429.378 258.706 429.378Z" fill="#ED9DA0"/>
<path opacity="0.05" d="M258.706 429.378C258.706 429.378 210.127 417.465 205.6 407.375C201.074 397.286 188.577 374.625 188.577 374.625L193.699 367.715L217.334 386.265C217.334 386.265 245.483 408.697 258.682 410.9C271.881 413.104 258.706 429.378 258.706 429.378Z" fill="black"/>
<path d="M300.71 372.197V398.548H296.469C275.548 398.551 254.972 403.877 236.677 414.023L228.722 418.443L226.59 419.634L212.95 388.923L225.709 377.487H226.364C229.486 377.785 242.982 378.917 248.7 376.987C254.132 375.141 260.875 369.292 276.874 373.414C284.76 375.427 291.49 384.266 299.139 381.503L300.71 372.197Z" fill="#ED9DA0"/>
<path d="M344.477 324.249L353.28 334.137V358.117C353.28 358.117 345.823 433.774 321.997 442.137C298.172 450.499 255.835 437.288 255.835 437.288C255.835 437.288 244.887 408.257 250.01 406.507C255.132 404.757 295.278 394.141 295.278 394.141C295.278 394.141 294.706 349.755 303.509 336.555C303.509 336.555 297.791 295.219 317.589 294.337C337.388 293.456 344.477 324.249 344.477 324.249Z" fill="#008E00"/>
<path opacity="0.1" d="M231.212 318.746L244.983 375.331C244.983 375.331 255.847 375.27 231.212 318.746Z" fill="black"/>
<path opacity="0.1" d="M278.278 309.288C278.278 309.288 260.242 338.831 267.283 369.366L270.642 369.616C270.642 369.616 264.636 355.473 278.278 309.288Z" fill="black"/>
<path d="M225.708 377.475C225.708 377.475 221.312 408.256 229.282 420.575C229.282 420.575 213.175 427.174 190.565 425.852L175.175 377.475H225.708Z" fill="#008E00"/>
<path d="M259.218 209.283C253.999 209.962 250.062 204.622 248.237 199.687C246.412 194.751 245.022 189.005 240.484 186.338C234.286 182.696 226.355 187.076 219.267 185.875C211.256 184.517 206.056 176.031 205.647 167.926C205.237 159.822 208.466 152.019 211.632 144.541L212.737 153.838C212.589 150.689 213.252 147.555 214.662 144.735C216.071 141.915 218.181 139.504 220.788 137.732L219.369 151.365C219.672 149.483 220.343 147.68 221.344 146.059C222.345 144.438 223.657 143.03 225.203 141.917C226.75 140.804 228.501 140.007 230.357 139.572C232.212 139.138 234.135 139.074 236.015 139.384L235.791 147.509C245.037 146.409 254.363 145.309 263.636 146.146C272.909 146.983 282.247 149.917 289.275 156.025C299.788 165.16 303.627 180.201 302.34 194.077C301.052 207.954 295.33 220.971 289.359 233.56C287.859 236.727 285.783 240.299 282.301 240.703C279.176 241.065 276.312 238.451 275.339 235.453C274.59 232.38 274.619 229.169 275.423 226.11C276.303 221.435 277.41 216.657 276.585 211.975C275.76 207.293 272.388 202.662 267.667 202.088C262.946 201.514 258.114 206.912 260.384 211.091L259.218 209.283Z" fill="#090814"/>
</svg>
