<svg width="680" height="506" viewBox="0 0 680 506" fill="none" xmlns="http://www.w3.org/2000/svg">
<path d="M496.228 253.435C496.15 293.177 481.192 331.453 454.295 360.737C427.398 390.021 390.508 408.195 350.877 411.686C311.246 415.178 271.74 403.734 240.128 379.604C208.515 355.475 187.081 320.406 180.041 281.291C173.001 242.176 180.863 201.845 202.082 168.227C223.301 134.609 256.341 110.136 294.708 99.6185C333.074 89.1014 373.992 93.3012 409.416 111.392C444.84 129.483 472.208 160.157 486.139 197.383C486.487 198.317 486.826 199.252 487.155 200.196V200.205C488.626 204.354 489.921 208.579 491.041 212.883C494.496 226.124 496.239 239.752 496.228 253.435Z" fill="#1C3F63"/>
<path d="M318.252 145.315C311.042 141.421 303.038 139.222 294.849 138.888C286.659 138.553 278.502 140.091 270.998 143.384C264.391 146.256 257.434 151.409 255.23 160.713C264.144 155.458 275.683 163.761 277.977 177.081L277.442 177.228C276.23 186.454 278.935 196.499 284.171 202.219C284.56 199.638 285.52 197.176 286.981 195.012C288.442 192.847 290.367 191.035 292.617 189.707C296.464 187.181 300.72 185.345 303.656 181.003C307.137 175.855 308.021 168.332 309.404 161.468C310.787 154.605 313.411 147.228 318.252 145.315Z" fill="#008E00"/>
<path d="M268.354 223.824C265.885 227.528 262.588 229.851 259.629 232.745C256.213 235.849 253.972 240.033 253.283 244.595C252.909 247.817 253.488 251.094 253.408 254.352C253.328 257.611 252.24 261.278 250.021 262.089C246.518 263.353 243.845 256.854 240.244 256.4C237.383 256.044 234.808 260.54 235.636 264.439C236.465 268.338 240.36 270.066 242.597 267.519C244.62 270.911 243.194 277.063 240.155 278.105C239.834 280.242 239.513 282.369 239.201 284.506C231.519 279.138 223.756 273.68 217.223 265.819C209.957 257.15 205.451 246.51 204.282 235.264C203.435 226.228 204.692 215.892 200.539 208.939C197.215 203.374 191.51 202.146 186.377 202.493C185.441 202.555 184.496 202.662 183.561 202.778C186.588 193.694 190.433 184.904 195.049 176.514C196.093 176.066 197.064 175.463 197.927 174.725C202.704 170.674 204.826 162.474 208.703 156.803C208.952 156.438 209.211 156.082 209.478 155.735C213.444 150.562 218.756 147.9 223.889 145.425C235.253 139.914 246.946 134.332 258.942 135.098L255.529 135.427C251.545 146.574 247.558 157.72 243.568 168.867C242.962 170.576 242.35 172.288 241.732 174.003C239.468 180.342 237.133 187.091 237.481 194.186C237.686 198.388 239.148 202.876 241.928 204.318C244.522 205.653 247.356 204.015 249.86 202.395C250.921 201.718 251.973 201.041 253.033 200.356C256.839 197.908 261.054 195.397 265.074 197.035C268.755 198.531 271.473 203.525 271.99 208.912C272.464 214.147 271.185 219.392 268.354 223.824Z" fill="#008E00"/>
<path d="M290.988 299.923C279.873 293.087 268.758 286.251 257.644 279.415L257.832 278.93C250.922 281.559 248.052 293.83 249.194 303.865C250.337 313.9 254.209 322.87 256.165 332.648C258.803 346.028 257.808 359.87 253.282 372.737C267.897 356.355 280.832 338.551 291.891 319.592C293.436 317.203 294.613 314.595 295.383 311.857C296.199 308.938 295.909 305.822 294.567 303.104C293.657 301.763 292.427 300.67 290.988 299.923Z" fill="#008E00"/>
<path d="M247.122 175.554C245.817 178.354 245.615 181.542 246.558 184.483C247.655 186.852 249.645 188.693 252.094 189.604L258.235 192.644C260.278 193.656 262.48 194.678 264.563 193.845C267.075 192.842 268.817 188.907 268.366 185.255C267.887 181.369 265.434 178.695 263.166 176.419C259.992 173.233 256.818 170.047 253.644 166.861L251.855 169.05C249.92 170.935 248.32 173.134 247.122 175.554Z" fill="#008E00"/>
<path d="M463.306 217.103C466.069 217.752 468.832 218.402 471.594 219.052C471.113 228.374 466.487 237.001 460.284 240.125C457.7 241.425 454.821 241.906 452.682 244.336C450.748 246.544 449.768 249.981 448.867 253.266C447.29 258.999 445.712 264.733 444.135 270.466C442.442 276.645 440.267 283.509 435.864 285.735C432.085 287.649 427.763 285.307 424.857 281.381C421.952 277.455 420.178 272.176 418.458 267.03C418.565 272.639 415.954 278.141 412.255 280.09C408.547 282.04 404.037 280.277 401.56 275.924C399.777 272.799 399.038 268.677 397.291 265.507C395.544 262.338 391.881 260.522 389.974 263.495C388.717 265.472 388.877 268.499 388.253 271.009C387.939 272.676 387.113 274.204 385.89 275.38C384.666 276.556 383.106 277.322 381.427 277.571C379.882 277.536 378.361 277.187 376.956 276.545C375.551 275.904 374.291 274.984 373.254 273.841C367.796 268.264 364.243 261.106 363.102 253.391C362.329 249.692 362.427 245.864 363.388 242.209C364.484 238.746 367.131 236.075 369.76 236.733C371.489 233.083 368.076 228.24 365.001 228.667C361.917 229.095 359.502 232.398 356.971 234.935C354.448 237.472 350.919 239.315 348.379 236.796C348.436 237.717 348.124 238.624 347.512 239.315C346.899 240.007 346.037 240.428 345.115 240.484C345.023 240.49 344.932 240.492 344.841 240.49C343.152 240.006 341.582 239.175 340.233 238.051C334.413 234.428 327.024 236.831 322.889 243.687C325.474 232.7 329.262 220.094 337.203 217.512C340.447 216.453 343.985 217.325 347.051 215.491C352.479 212.242 353.575 199.964 348.887 194.899C349.484 199.688 349.368 205.279 346.837 208.556C344.306 211.832 338.994 209.695 339.315 204.852C339.243 205.533 338.957 206.174 338.498 206.683C338.039 207.192 337.43 207.543 336.76 207.685C336.089 207.827 335.39 207.754 334.764 207.475C334.137 207.197 333.615 206.727 333.272 206.134C331.588 203.57 331.731 199.377 332.925 196.314C334.156 193.541 335.922 191.036 338.121 188.943C342.354 184.411 346.65 179.826 351.552 176.977C356.463 174.128 362.131 173.167 367.051 175.998C369.644 177.494 371.926 179.987 374.573 181.304C375.195 181.69 375.887 181.949 376.609 182.067C377.332 182.186 378.07 182.161 378.783 181.994C379.496 181.828 380.169 181.522 380.763 181.096C381.358 180.669 381.862 180.13 382.248 179.509C382.278 179.461 382.307 179.412 382.336 179.363C384.305 175.909 383.378 170.781 384.109 166.463C385.419 158.833 393.057 155.263 397.291 160.302C394.127 159.492 390.856 163.231 390.464 167.763C390.063 172.294 392.354 176.871 395.419 178.242C400.571 180.521 405.615 174.787 409.51 169.481C413.574 163.926 417.644 158.373 421.72 152.824C422.371 151.879 423.101 150.991 423.904 150.171C425.18 148.928 426.882 148.216 428.664 148.18C430.447 148.143 432.176 148.785 433.502 149.975C437.62 153.331 439.554 160.213 442.932 164.95C447.834 171.831 455.169 173.505 461.996 174.841C467.084 175.829 472.177 176.823 477.272 177.823C480.668 184.135 483.631 190.67 486.14 197.383C476.796 201.639 468.872 208.483 463.306 217.103Z" fill="#008E00"/>
<path d="M479.758 324.222C475.94 331.967 471.499 339.389 466.479 346.417C463.27 345.046 459.821 347.494 456.817 349.791C453.68 352.195 449.91 354.536 446.693 352.346C443.404 350.103 442.344 343.826 443.386 338.849C444.585 334.258 446.681 329.95 449.554 326.172C452.228 322.183 455.088 318.043 458.805 316.494C462.53 314.945 467.316 317.135 468.404 322.424L471.042 322.334C469.562 320.305 470.338 316.102 472.325 315.364C474.616 314.5 476.603 317.643 477.958 320.42C478.564 321.676 479.179 322.94 479.758 324.222Z" fill="#008E00"/>
<path d="M378.721 286.617C373.05 286.973 368.559 280 365.574 273.14C362.589 266.28 359.866 258.436 354.75 254.944C351.826 252.949 348.493 252.675 345.322 251.708C343.524 251.254 341.859 250.379 340.467 249.154C339.075 247.93 337.994 246.391 337.316 244.667L333.719 243.215C328.688 245.728 324.08 249.01 320.062 252.943C315.471 257.814 312.612 264.059 311.925 270.714C311.237 277.906 313.775 285.925 318.516 288.627C322.262 290.762 326.623 289.416 330.418 291.371C335.159 293.812 337.974 300.905 339.039 307.909C340.105 314.912 339.835 322.19 340.597 329.273C341.359 336.356 343.46 343.726 347.808 347.356C353.249 351.898 361.232 348.124 363.673 339.855C364.87 335.8 364.829 331.223 365.725 327.013C367.302 319.599 371.558 314.098 374.933 308.017C378.308 301.935 380.966 293.675 378.721 286.617Z" fill="#008E00"/>
<path d="M322.689 213.763C323.218 214.25 323.711 214.773 324.166 215.329C324.636 216.139 324.876 217.062 324.86 217.998C324.844 218.934 324.573 219.848 324.075 220.642C324.758 220.603 325.426 220.423 326.036 220.113C326.646 219.804 327.184 219.371 327.618 218.843C328.653 217.665 329.564 216.384 330.335 215.02C330.698 214.553 330.957 214.014 331.095 213.439C331.233 212.864 331.247 212.266 331.136 211.685C330.868 210.922 330.235 210.596 329.791 210.022C329.175 208.899 328.755 207.679 328.548 206.416C328.302 205.232 327.73 204.14 326.897 203.262C326.063 202.385 325.001 201.757 323.83 201.449L324.115 201.504C323.631 201.79 323.249 202.221 323.023 202.736C322.796 203.25 322.737 203.822 322.852 204.372C323.024 205.483 323.739 206.405 323.668 207.538C323.565 209.168 321.935 209.932 321.835 211.562C321.819 212.379 322.126 213.17 322.689 213.763Z" fill="#008E00"/>
<path d="M312.974 186.075L312.999 186.07C313.174 185.911 313.336 185.739 313.483 185.555L312.974 186.075Z" fill="#6C63FF"/>
<path d="M314.674 193.723C315.356 193.126 315.859 192.354 316.131 191.49C316.402 190.627 316.431 189.705 316.214 188.826C315.802 186.974 314.344 185.728 312.999 186.07C312.609 186.465 312.125 186.755 311.592 186.912C311.059 187.068 310.495 187.087 309.953 186.966C309.121 186.752 308.209 186.202 307.487 186.828C307.075 187.295 306.786 187.858 306.648 188.465C306.381 189.284 306.114 190.102 305.847 190.921C305.72 191.213 305.687 191.538 305.752 191.851C305.803 191.976 305.886 192.086 305.992 192.17C306.098 192.254 306.224 192.31 306.357 192.331L311.161 193.746C311.713 194 312.313 194.129 312.921 194.125C313.528 194.121 314.126 193.984 314.674 193.723Z" fill="#008E00"/>
<path d="M435.565 299.31C434.825 298.1 434.084 296.889 433.344 295.678C432.617 294.277 431.623 293.03 430.418 292.008C429.891 291.567 429.21 291.353 428.525 291.414C427.84 291.474 427.207 291.804 426.765 292.33L426.727 292.378L426.817 293.069C428.799 295.192 430.149 297.824 430.717 300.671C430.886 301.908 430.827 303.189 430.975 304.431C430.991 305.007 431.12 305.575 431.355 306.101C431.59 306.627 431.927 307.102 432.346 307.498C433.512 308.276 434.881 307.129 435.71 305.73C436.452 304.58 436.784 303.215 436.655 301.854C436.47 300.94 436.099 300.074 435.565 299.31Z" fill="#008E00"/>
<path d="M447.177 300.886C447.318 299.753 447.226 298.602 446.906 297.506C446.853 296.022 447.247 294.557 448.036 293.3C448.82 292.113 449.415 290.812 449.797 289.442C449.959 288.819 449.929 288.161 449.713 287.554C449.468 287.004 448.875 286.753 448.534 287.188L449.263 287.657C448.279 287.482 447.268 287.531 446.306 287.8C445.757 288.01 445.267 288.349 444.877 288.788C444.487 289.227 444.209 289.754 444.066 290.323C443.945 291.211 443.749 292.087 443.478 292.941C443.043 293.833 442.202 294.13 441.674 294.913C441.313 295.607 441.131 296.38 441.144 297.162C441.157 297.944 441.365 298.711 441.748 299.393C442.412 300.508 443.467 301.337 444.709 301.719C445.598 302.038 446.77 302.054 447.177 300.886Z" fill="#008E00"/>
<path d="M467.856 307.118C468.178 307.954 468.609 308.744 469.138 309.467C470.128 310.464 471.473 309.851 472.674 309.609C473.764 309.437 474.88 309.563 475.904 309.974C476.928 310.384 477.822 311.063 478.491 311.94C478.025 309.62 477.009 307.445 475.527 305.598C474.045 303.751 472.141 302.287 469.976 301.328C467.161 300.355 464.195 299.891 461.218 299.96L460.709 300.09C462.005 303.858 466.075 303.774 467.856 307.118Z" fill="#008E00"/>
<path d="M380.272 314.826L380.279 314.842L380.427 314.557L380.272 314.826Z" fill="#6C63FF"/>
<path d="M377.135 320.891C376.451 322.132 375.863 323.423 375.375 324.753C374.73 326.908 374.303 329.122 374.1 331.362C373.94 332.635 373.891 334.262 374.69 334.882C374.919 335.034 375.196 335.098 375.469 335.061C375.742 335.024 375.992 334.889 376.172 334.681C376.616 334.212 376.979 333.673 377.247 333.086C378.817 330.385 380.036 327.495 380.874 324.486C381.749 321.294 381.54 317.903 380.28 314.842C379.232 316.859 378.183 318.875 377.135 320.891Z" fill="#008E00"/>
<path d="M346.872 159.29C347.37 159.777 348 160.107 348.684 160.24C349.368 160.374 350.076 160.304 350.721 160.04C352.056 159.457 353.281 158.649 354.343 157.651C355.221 157.001 355.967 156.189 356.538 155.258C356.853 154.702 357.055 154.089 357.132 153.455C357.209 152.821 357.16 152.177 356.987 151.562C356.742 150.973 356.35 150.455 355.849 150.059C355.347 149.663 354.753 149.401 354.122 149.299C352.345 148.772 350.568 148.245 348.79 147.719L350.076 146.561C348.753 145.852 347.29 147.168 346.463 148.798C345.932 149.862 345.563 150.999 345.366 152.171C345.085 153.396 345.074 154.667 345.334 155.896C345.594 157.126 346.119 158.284 346.872 159.29Z" fill="#008E00"/>
<path d="M378.252 148.767C378.753 149.318 379.445 149.659 380.189 149.719C380.932 149.78 381.67 149.555 382.254 149.092C382.756 148.715 383.174 148.237 383.479 147.688C383.784 147.139 383.969 146.532 384.024 145.907C384.15 144.511 383.458 142.958 382.471 142.838L382.697 141.53C380.795 141.187 378.455 141.118 377.436 143.426C377.092 144.309 376.986 145.268 377.13 146.205C377.273 147.142 377.66 148.026 378.252 148.767Z" fill="#008E00"/>
<path d="M248.95 242.831C255.503 242.831 260.815 235.715 260.815 226.938C260.815 218.161 255.503 211.046 248.95 211.046C242.398 211.046 237.086 218.161 237.086 226.938C237.086 235.715 242.398 242.831 248.95 242.831Z" fill="#E6E6E6"/>
<path d="M334.814 236.999C341.367 236.999 346.679 229.884 346.679 221.106C346.679 212.329 341.367 205.214 334.814 205.214C328.262 205.214 322.95 212.329 322.95 221.106C322.95 229.884 328.262 236.999 334.814 236.999Z" fill="#E6E6E6"/>
<path d="M442.963 263.656C449.516 263.656 454.828 256.541 454.828 247.764C454.828 238.986 449.516 231.871 442.963 231.871C436.411 231.871 431.099 238.986 431.099 247.764C431.099 256.541 436.411 263.656 442.963 263.656Z" fill="#E6E6E6"/>
<path d="M284.251 318.374C290.804 318.374 296.116 311.258 296.116 302.481C296.116 293.704 290.804 286.589 284.251 286.589C277.699 286.589 272.387 293.704 272.387 302.481C272.387 311.258 277.699 318.374 284.251 318.374Z" fill="#E6E6E6"/>
<path d="M445.772 345.031C452.325 345.031 457.637 337.916 457.637 329.139C457.637 320.361 452.325 313.246 445.772 313.246C439.22 313.246 433.908 320.361 433.908 329.139C433.908 337.916 439.22 345.031 445.772 345.031Z" fill="#E6E6E6"/>
<path d="M250.832 483.233C255.61 486.625 261.399 486.682 263.761 483.362C266.123 480.042 264.164 474.6 259.386 471.209C254.607 467.817 248.819 467.759 246.457 471.08C244.095 474.4 246.054 479.841 250.832 483.233Z" fill="#7C957C"/>
<path d="M205.539 430.724C210.318 434.116 216.106 434.174 218.468 430.853C220.83 427.533 218.871 422.092 214.093 418.7C209.314 415.308 203.526 415.251 201.164 418.571C198.802 421.891 200.761 427.333 205.539 430.724Z" fill="#7C957C"/>
<path d="M303.121 455.883C307.9 459.275 313.688 459.333 316.05 456.012C318.412 452.692 316.453 447.251 311.675 443.859C306.897 440.468 301.108 440.41 298.746 443.73C296.384 447.051 298.343 452.492 303.121 455.883Z" fill="#7C957C"/>
<path d="M335.07 455.959C336.948 457.723 340.527 456.967 343.065 454.272C345.603 451.576 346.138 447.961 344.261 446.197C342.384 444.433 338.804 445.189 336.266 447.885C333.729 450.581 333.193 454.196 335.07 455.959Z" fill="#7C957C"/>
<path d="M371.889 432.159C373.767 433.923 377.346 433.167 379.884 430.472C382.422 427.776 382.957 424.161 381.08 422.397C379.203 420.634 375.623 421.389 373.085 424.085C370.547 426.781 370.012 430.396 371.889 432.159Z" fill="#7C957C"/>
<path d="M262.807 431.809C264.684 433.573 268.263 432.817 270.801 430.121C273.339 427.425 273.875 423.81 271.997 422.047C270.12 420.283 266.541 421.039 264.003 423.735C261.465 426.43 260.929 430.045 262.807 431.809Z" fill="#7C957C"/>
<path d="M275.438 466.87C277.315 468.633 280.895 467.878 283.433 465.182C285.971 462.486 286.506 458.871 284.629 457.108C282.751 455.344 279.172 456.1 276.634 458.795C274.096 461.491 273.561 465.106 275.438 466.87Z" fill="#7C957C"/>
<path d="M220.568 457.073C222.446 458.837 226.025 458.081 228.563 455.386C231.101 452.69 231.636 449.075 229.759 447.311C227.882 445.548 224.302 446.303 221.765 448.999C219.227 451.695 218.691 455.31 220.568 457.073Z" fill="#7C957C"/>
<path d="M75.4284 180.984C80.2066 184.376 85.9949 184.434 88.3568 181.113C90.7188 177.793 88.76 172.352 83.9818 168.96C79.2036 165.569 73.4153 165.511 71.0534 168.831C68.6914 172.152 70.6502 177.593 75.4284 180.984Z" fill="#7C957C"/>
<path d="M30.131 128.475C34.9093 131.866 40.6976 131.924 43.0595 128.604C45.4215 125.283 43.4627 119.842 38.6844 116.45C33.9062 113.059 28.118 113.001 25.756 116.321C23.3941 119.642 25.3528 125.083 30.131 128.475Z" fill="#7C957C"/>
<path d="M127.72 153.635C132.498 157.027 138.287 157.085 140.648 153.764C143.01 150.444 141.052 145.003 136.273 141.611C131.495 138.219 125.707 138.162 123.345 141.482C120.983 144.802 122.942 150.244 127.72 153.635Z" fill="#7C957C"/>
<path d="M159.667 153.711C161.544 155.474 165.123 154.719 167.661 152.023C170.199 149.327 170.735 145.712 168.857 143.949C166.98 142.185 163.401 142.941 160.863 145.636C158.325 148.332 157.789 151.947 159.667 153.711Z" fill="#7C957C"/>
<path d="M196.485 129.911C198.363 131.675 201.942 130.919 204.48 128.223C207.018 125.528 207.553 121.912 205.676 120.149C203.799 118.385 200.219 119.141 197.682 121.837C195.144 124.532 194.608 128.147 196.485 129.911Z" fill="#7C957C"/>
<path d="M87.4024 129.56C89.2798 131.323 92.8591 130.568 95.397 127.872C97.9349 125.176 98.4704 121.561 96.5931 119.798C94.7158 118.034 91.1364 118.79 88.5985 121.485C86.0605 124.181 85.5251 127.796 87.4024 129.56Z" fill="#7C957C"/>
<path d="M100.034 164.621C101.911 166.385 105.49 165.629 108.028 162.933C110.566 160.238 111.102 156.623 109.224 154.859C107.347 153.095 103.768 153.851 101.23 156.547C98.6919 159.243 98.1564 162.858 100.034 164.621Z" fill="#7C957C"/>
<path d="M45.164 154.825C47.0414 156.589 50.6207 155.833 53.1587 153.137C55.6966 150.441 56.2321 146.826 54.3548 145.063C52.4774 143.299 48.8981 144.055 46.3602 146.751C43.8223 149.446 43.2867 153.061 45.164 154.825Z" fill="#7C957C"/>
<path d="M549.901 334.801C554.679 338.192 560.467 338.25 562.829 334.93C565.191 331.609 563.232 326.168 558.454 322.777C553.676 319.385 547.888 319.327 545.526 322.648C543.164 325.968 545.122 331.409 549.901 334.801Z" fill="#7C957C"/>
<path d="M504.604 282.291C509.382 285.683 515.17 285.74 517.532 282.42C519.894 279.1 517.935 273.659 513.157 270.267C508.379 266.875 502.591 266.817 500.229 270.138C497.867 273.458 499.826 278.899 504.604 282.291Z" fill="#7C957C"/>
<path d="M602.194 307.451C606.972 310.842 612.76 310.9 615.122 307.58C617.484 304.259 615.525 298.818 610.747 295.426C605.969 292.035 600.18 291.977 597.819 295.297C595.457 298.618 597.415 304.059 602.194 307.451Z" fill="#7C957C"/>
<path d="M634.139 307.527C636.016 309.291 639.596 308.535 642.134 305.839C644.672 303.144 645.207 299.528 643.33 297.765C641.453 296.001 637.873 296.757 635.335 299.453C632.797 302.148 632.262 305.763 634.139 307.527Z" fill="#7C957C"/>
<path d="M561.875 283.376C563.752 285.14 567.332 284.384 569.87 281.689C572.408 278.993 572.943 275.378 571.066 273.614C569.188 271.851 565.609 272.606 563.071 275.302C560.533 277.998 559.998 281.613 561.875 283.376Z" fill="#7C957C"/>
<path d="M574.507 318.438C576.384 320.202 579.964 319.446 582.501 316.75C585.039 314.055 585.575 310.44 583.698 308.676C581.82 306.912 578.241 307.668 575.703 310.364C573.165 313.06 572.629 316.675 574.507 318.438Z" fill="#7C957C"/>
<path d="M519.637 308.641C521.514 310.405 525.093 309.649 527.631 306.953C530.169 304.257 530.705 300.643 528.827 298.879C526.95 297.115 523.371 297.871 520.833 300.567C518.295 303.262 517.759 306.877 519.637 308.641Z" fill="#7C957C"/>
<path d="M54.5198 171.257C47.2707 162.532 44.7282 155.06 46.9571 148.972C51.3519 136.968 73.1703 132.883 111.805 136.831L111.467 140.134C75.5785 136.467 53.7771 140.01 50.0779 150.113C47.7393 156.503 52.634 165.694 64.2397 176.695C75.7598 187.616 93.4253 200.101 116.745 213.804C164.753 242.013 231.272 272.191 304.049 298.778C376.824 325.365 447.139 345.175 502.041 354.56C512.588 356.362 522.451 357.755 531.355 358.703C542.891 360.073 554.517 360.521 566.124 360.043C582.095 359.117 591.773 355.25 594.112 348.859C598.02 338.185 581.943 320.281 548.838 298.444L550.67 295.674C586.186 319.103 601.854 337.381 597.233 350C594.363 357.841 583.961 362.335 566.317 363.358C554.528 363.847 542.72 363.394 531.004 362.004C522.029 361.05 512.096 359.646 501.481 357.833C446.387 348.414 375.865 328.549 302.908 301.896C229.948 275.242 163.235 244.973 115.059 216.666C91.5228 202.836 73.6546 190.198 61.9521 179.103C59.3222 176.636 56.8404 174.016 54.5198 171.257Z" fill="#3F3D56"/>
</svg>
