<svg width="1500" height="1000" viewBox="0 0 1500 1000" fill="none" xmlns="http://www.w3.org/2000/svg">
<g clip-path="url(#clip0_3627_1196)">
<mask id="mask0_3627_1196" style="mask-type:luminance" maskUnits="userSpaceOnUse" x="0" y="-262" width="1523" height="1523">
<path d="M1523 -262H0V1261H1523V-262Z" fill="white"/>
</mask>
<g mask="url(#mask0_3627_1196)">
<path d="M1206.25 813.375H1307.39V1070.64H566.398V641.86V443.961H779.684V718.822H823.659V320.821L913.81 197.683V114.125L929.202 92.1357L944.595 114.125V197.683L1032.55 320.821V826.569H1072.13V531.914L1206.25 633.067V813.375Z" fill="#50EC84" fill-opacity="0.15"/>
<path d="M349.584 908.755C349.584 902.435 354.709 897.308 361.032 897.308H559.464C565.784 897.308 570.912 902.435 570.912 908.755V1065.21C570.912 1071.53 565.784 1076.66 559.464 1076.66H361.032C354.709 1076.66 349.584 1071.53 349.584 1065.21V908.755Z" fill="#E5E5E5"/>
<path d="M1112.78 983.169C1112.78 1032.7 1072.63 1072.84 1023.11 1072.84C973.578 1072.84 933.432 1032.7 933.432 983.169C933.432 933.641 973.578 893.495 1023.11 893.495C1072.63 893.495 1112.78 933.641 1112.78 983.169Z" fill="#E5E5E5"/>
<path d="M418.271 908.755C418.271 902.435 423.397 897.308 429.719 897.308H628.151C634.471 897.308 639.599 902.435 639.599 908.755V1065.21C639.599 1071.53 634.471 1076.66 628.151 1076.66H429.719C423.397 1076.66 418.271 1071.53 418.271 1065.21V908.755Z" fill="#F1F1F1"/>
<path d="M628.151 351.2C625.095 384.782 654.859 402.079 670.125 406.531C701.291 427.523 772.014 469.878 805.596 471.406C839.173 472.934 846.295 446.601 845.661 433.244C851.387 431.975 864.739 424.467 872.374 404.627C880.005 384.782 866.648 369.644 859.018 364.557C866.648 360.105 880.385 345.479 874.283 322.583C868.176 299.687 843.752 299.053 832.304 301.596C835.487 293.326 836.122 272.593 813.226 255.805C790.33 239.012 761.708 260.252 750.26 272.974C746.448 259.617 730.035 235.958 694.93 248.169C659.824 260.379 659.951 293.961 664.404 309.226C653.59 309.226 631.202 317.618 628.151 351.2Z" fill="#3E3D3D"/>
<path d="M331.457 601.312C346.721 605.892 368.345 636.291 377.249 650.922L352.445 687.174C348.629 687.809 339.089 686.027 331.457 673.817C321.917 658.552 299.021 631.844 258.953 631.844C218.885 631.844 161.645 616.578 154.013 608.948C146.381 601.312 154.013 586.047 176.909 595.591C195.226 603.221 232.877 602.587 249.413 601.312C241.781 593.682 239.873 584.143 249.413 582.234C258.953 580.326 312.377 595.591 331.457 601.312Z" fill="#EFCB96"/>
<path d="M1189.1 601.312C1173.84 605.892 1152.22 636.291 1143.31 650.922L1168.12 687.174C1171.93 687.809 1181.47 686.027 1189.1 673.817C1198.64 658.552 1221.54 631.844 1261.61 631.844C1301.67 631.844 1358.91 616.578 1366.55 608.948C1374.18 601.312 1366.55 586.047 1343.65 595.591C1325.33 603.221 1287.68 602.587 1271.15 601.312C1278.78 593.682 1280.69 584.143 1271.15 582.234C1261.61 580.326 1208.18 595.591 1189.1 601.312Z" fill="#EFCB96"/>
<path d="M693.021 522.924C688.442 527.503 674.578 531.188 668.216 532.463C664.404 550.272 657.535 586.651 660.586 589.702C664.404 593.52 717.826 620.228 725.461 625.955C731.563 630.534 789.056 624.046 817.044 620.228L839.94 526.736C832.304 528.645 815.516 529.406 809.409 517.197C803.307 504.988 806.865 466.319 809.409 448.51C816.404 445.332 830.781 434.392 832.304 416.075C833.833 397.758 817.679 395.723 809.409 396.992C801.778 392.413 797.326 386.184 796.052 383.64C794.148 384.275 788.041 384.402 778.883 379.823C769.724 375.243 767.435 358.836 767.435 351.2C762.348 356.927 748.737 367.994 735 366.466C721.263 364.938 710.195 353.109 706.378 347.388C703.2 351.2 691.828 355.018 689.208 376.005C685.391 406.536 672.669 402.084 668.216 406.536C668.216 463.009 687.3 489.849 696.839 496.21C697.473 503.206 697.6 518.344 693.021 522.924Z" fill="#EFCB96"/>
<path d="M566.546 758.699C573.679 814.984 563.576 995.114 557.636 1078.15H946.179C933.35 1006.65 940.833 862.014 946.179 798.632C969.349 834.123 1024.96 900.927 1062.03 884.194C1099.1 867.462 1174.91 742.855 1208.18 682.64L1149.36 625.594C1120.85 664.258 1062.03 740.063 1054.9 733.981C1045.99 726.376 992.519 593.271 965.785 562.846C944.397 538.509 868.948 524.817 833.893 521.015C829.142 541.296 806.804 581.858 755.474 581.858C704.144 581.858 677.05 541.296 669.922 521.015C649.128 524.817 599.341 537.747 566.546 559.044C525.552 585.666 459.608 732.077 448.914 722.568C440.359 714.964 396.633 657.288 375.839 629.396L315.24 686.443C342.569 751.094 405.069 880.392 436.438 880.392C467.807 880.392 536.248 799.262 566.546 758.699Z" fill="#53B3CC"/>
<path fill-rule="evenodd" clip-rule="evenodd" d="M567.089 705.836L570.901 763.075L563.286 763.583L559.474 706.344L567.089 705.836ZM954.408 733.093L948.681 807.506L941.071 806.923L946.798 732.509L954.408 733.093Z" fill="#46A4BC"/>
<path d="M654.438 706.511C654.438 702.298 657.855 698.876 662.069 698.876H1010.38C1014.6 698.876 1018.02 702.298 1018.02 706.511V1065.21C1018.02 1069.43 1014.6 1072.84 1010.38 1072.84H662.069C657.855 1072.84 654.438 1069.43 654.438 1065.21V706.511Z" fill="#F1F1F1"/>
<path d="M498.619 706.511C498.619 702.298 502.036 698.876 506.251 698.876H854.566C858.779 698.876 862.196 702.298 862.196 706.511V1065.21C862.196 1069.43 858.779 1072.84 854.566 1072.84H506.251C502.036 1072.84 498.619 1069.43 498.619 1065.21V706.511Z" fill="#E5E5E5"/>
<path d="M628.471 698.876H716.769V1072.84H628.471V698.876Z" fill="#FAC22F"/>
<path d="M924.521 698.876H966.074V1072.84H924.521V698.876Z" fill="#FAC22F"/>
<path d="M941.666 787.174L862.201 698.876H1016.46L1095.93 787.174H941.666Z" fill="#E5E5E5"/>
<path d="M782.731 787.174L862.201 698.876H505.372L425.904 787.174H782.731Z" fill="#F1F1F1"/>
<path d="M329.8 315.227C313.469 335.396 329.8 344.641 340.007 346.743C387.638 348.144 486.573 349.266 501.271 342.539C519.643 334.137 517.602 315.227 495.147 308.921C472.692 302.616 472.692 275.304 440.031 275.304C407.37 275.304 397.163 308.921 382.874 311.023C368.585 313.125 350.213 290.011 329.8 315.227Z" fill="#50EC84" fill-opacity="0.15"/>
<path d="M680.953 156.39C674.902 157.56 668.896 153.604 668.556 147.451C668.338 143.513 668.526 140.033 669.125 137.011C670.232 131.415 673.288 124.931 678.293 117.558C683.355 110.107 686.457 104.908 687.614 101.96C689.396 97.4588 689.838 92.8771 688.934 88.2142C687.741 82.0404 685.33 77.6349 681.705 74.9976C678.126 72.2821 673.465 71.4805 667.714 72.5928C662.216 73.6558 658.083 76.1236 655.316 79.9971C654.783 80.7408 654.326 81.5165 653.941 82.3242C651.118 88.2005 647.64 94.8691 641.239 96.1063C634.791 97.3532 628.308 93.0375 628.857 86.4927C629.42 79.8113 631.7 73.8345 635.7 68.5619C642 60.3265 651.382 55.0041 663.845 52.5942C676.694 50.1097 687.345 51.5256 695.798 56.8404C704.316 62.1429 709.738 70.8037 712.063 82.8227C714.13 93.5279 711.312 105.008 703.6 117.264L694.112 131.465C692.219 134.795 691.158 138.755 690.934 143.344C690.64 149.441 686.949 155.231 680.953 156.39ZM674.293 189.462C673.542 185.587 674.125 182.239 676.029 179.417C677.928 176.53 680.887 174.697 684.913 173.918C689.005 173.127 692.472 173.751 695.32 175.789C698.158 177.762 699.935 180.621 700.661 184.364C701.357 187.976 700.793 191.22 698.96 194.095C697.128 196.97 694.102 198.815 689.883 199.631C685.665 200.447 682.172 199.862 679.4 197.877C676.694 195.879 674.993 193.074 674.293 189.462Z" fill="#F15846"/>
<path d="M610.317 200.835C606.362 203.499 600.89 202.503 598.788 198.227C597.443 195.492 596.524 192.958 596.031 190.627C595.128 186.31 595.341 180.772 596.671 174.011C598.016 167.178 598.651 162.539 598.58 160.092C598.483 156.35 597.412 152.957 595.361 149.912C592.64 145.88 589.594 143.475 586.213 142.696C582.847 141.846 579.288 142.687 575.532 145.22C571.943 147.64 569.749 150.646 568.952 154.239C568.8 154.929 568.709 155.62 568.678 156.312C568.45 161.346 567.993 167.145 563.815 169.962C559.601 172.8 553.682 171.692 552.093 166.869C550.473 161.944 550.285 157.001 551.534 152.04C553.524 144.274 558.586 137.648 566.729 132.16C575.115 126.504 583.126 124.288 590.747 125.511C598.412 126.706 604.89 131.228 610.185 139.076C614.896 146.067 616.363 155.089 614.587 166.142L612.135 179.118C611.794 182.061 612.241 185.2 613.47 188.532C615.104 192.96 614.231 198.197 610.317 200.835ZM615.587 226.384C613.881 223.853 613.277 221.295 613.779 218.71C614.257 216.082 615.81 213.882 618.44 212.109C621.11 210.308 623.765 209.702 626.41 210.291C629.025 210.836 631.157 212.331 632.802 214.776C634.391 217.135 634.969 219.614 634.538 222.214C634.106 224.814 632.512 227.043 629.756 228.9C627.004 230.757 624.339 231.398 621.765 230.825C619.237 230.223 617.176 228.742 615.587 226.384Z" fill="#F15846"/>
<path d="M769.115 163.512C764.699 161.721 762.47 156.624 764.846 152.492C766.364 149.847 767.953 147.671 769.613 145.964C772.689 142.802 777.401 139.886 783.757 137.217C790.173 134.519 794.377 132.457 796.372 131.032C799.423 128.865 801.637 126.08 803.017 122.677C804.845 118.172 805.14 114.3 803.901 111.063C802.728 107.796 800.043 105.31 795.844 103.607C791.834 101.979 788.112 101.838 784.691 103.184C784.031 103.441 783.406 103.751 782.812 104.111C778.512 106.733 773.446 109.589 768.775 107.695C764.069 105.785 761.683 100.255 764.8 96.2443C767.978 92.1504 771.979 89.2364 776.791 87.5033C784.345 84.8187 792.671 85.3218 801.764 89.0125C811.14 92.817 817.45 98.2231 820.689 105.232C823.979 112.259 823.842 120.158 820.283 128.929C817.115 136.742 810.45 142.996 800.286 147.692L788.148 152.899C785.518 154.259 783.163 156.38 781.081 159.261C778.319 163.088 773.487 165.287 769.115 163.512ZM750.86 182.145C752.007 179.317 753.794 177.39 756.221 176.365C758.663 175.292 761.358 175.351 764.293 176.544C767.283 177.755 769.268 179.621 770.253 182.143C771.258 184.617 771.207 187.22 770.1 189.951C769.029 192.588 767.298 194.452 764.897 195.544C762.501 196.636 759.759 196.557 756.683 195.308C753.601 194.059 751.586 192.207 750.626 189.752C749.712 187.316 749.789 184.78 750.86 182.145Z" fill="#F15846"/>
</g>
</g>
<defs>
<clipPath id="clip0_3627_1196">
<rect width="1500" height="1000" fill="white"/>
</clipPath>
</defs>
</svg>
