<svg width="201" height="37" viewBox="0 0 201 37" fill="none" xmlns="http://www.w3.org/2000/svg">
<g clip-path="url(#clip0_17589_3231)">
<path d="M20.086 14.0394C19.9578 14.1389 17.6931 15.4151 17.6931 18.2526C17.6931 21.5346 20.5748 22.6957 20.6611 22.7245C20.6478 22.7952 20.2033 24.3146 19.1417 25.8628C18.1951 27.2251 17.2065 28.5853 15.7026 28.5853C14.1987 28.5853 13.8117 27.7117 12.0756 27.7117C10.3837 27.7117 9.7821 28.614 8.40647 28.614C7.03084 28.614 6.071 27.3534 4.9674 25.8053C3.68908 23.9873 2.65625 21.1631 2.65625 18.4826C2.65625 14.1832 5.45174 11.903 8.203 11.903C9.66488 11.903 10.8835 12.8628 11.8013 12.8628C12.6749 12.8628 14.0373 11.8455 15.7004 11.8455C16.3307 11.8455 18.5954 11.903 20.086 14.0394ZM14.9108 10.0253C15.5987 9.20924 16.0852 8.07689 16.0852 6.94454C16.0852 6.78751 16.072 6.62827 16.0432 6.5C14.9241 6.54202 13.5927 7.24532 12.7899 8.17641C12.1596 8.89298 11.5713 10.0253 11.5713 11.1732C11.5713 11.3457 11.6001 11.5182 11.6133 11.5735C11.6841 11.5867 11.7991 11.6022 11.9141 11.6022C12.9182 11.6022 14.181 10.9299 14.9108 10.0253Z" fill="black"/>
</g>
<path d="M34.832 24H30.53V11.4H34.562C38.72 11.4 41.312 13.362 41.312 17.7C41.312 21.516 39.08 24 34.832 24ZM32.438 13.002V22.38H34.652C37.532 22.38 39.332 20.994 39.332 17.7C39.332 14.712 37.838 13.002 34.598 13.002H32.438ZM47.2244 24.288C44.6684 24.288 42.8684 22.47 42.8684 19.644C42.8684 16.872 44.6684 15 47.2244 15C49.7624 15 51.5804 16.872 51.5804 19.644C51.5804 22.47 49.7624 24.288 47.2244 24.288ZM47.2244 22.884C48.7724 22.884 49.7444 21.624 49.7444 19.644C49.7444 17.664 48.7364 16.422 47.2244 16.422C45.7124 16.422 44.7044 17.664 44.7044 19.644C44.7044 21.624 45.6764 22.884 47.2244 22.884ZM57.3511 24H55.1731L52.4011 15.288H54.3091L56.0911 21.534C56.1631 21.786 56.2351 22.056 56.2711 22.308C56.3611 22.038 56.4331 21.786 56.4871 21.534L58.2331 15.288H60.5191L62.3371 21.534C62.3911 21.768 62.4631 22.02 62.5171 22.29C62.5711 22.02 62.6431 21.768 62.7151 21.516L64.4791 15.288H66.2431L63.5431 24H61.3831L59.5831 17.664C59.5111 17.412 59.4391 17.16 59.3851 16.854C59.3131 17.16 59.2411 17.412 59.1691 17.664L57.3511 24ZM69.5361 24H67.7541V15.288H69.5361V15.81C69.5361 16.026 69.5361 16.242 69.5181 16.494C69.9681 15.684 70.9401 15 72.1821 15C74.1621 15 75.3501 16.296 75.3501 18.492V24H73.5681V18.744C73.5681 17.232 72.9921 16.422 71.7501 16.422C70.4001 16.422 69.5361 17.484 69.5361 18.798V24ZM77.7561 11.4H79.5381V24H77.7561V11.4ZM85.8612 24.288C83.3052 24.288 81.5052 22.47 81.5052 19.644C81.5052 16.872 83.3052 15 85.8612 15C88.3992 15 90.2172 16.872 90.2172 19.644C90.2172 22.47 88.3992 24.288 85.8612 24.288ZM85.8612 22.884C87.4092 22.884 88.3812 21.624 88.3812 19.644C88.3812 17.664 87.3732 16.422 85.8612 16.422C84.3492 16.422 83.3412 17.664 83.3412 19.644C83.3412 21.624 84.3132 22.884 85.8612 22.884ZM94.6897 24.288C93.0697 24.288 91.6837 23.28 91.6837 21.606C91.6837 19.824 93.0877 19.086 94.7617 18.834L96.3997 18.582C97.0837 18.474 97.3177 18.24 97.3177 17.754C97.3177 16.926 96.6697 16.368 95.6797 16.368C94.4737 16.368 93.7897 17.034 93.7357 18.042H91.9177C92.0077 16.368 93.3397 15 95.5537 15C97.9117 15 99.0817 16.332 99.0817 18.51V24H97.3897V23.586C97.3897 23.334 97.4077 23.082 97.4257 22.812C96.9937 23.694 96.0577 24.288 94.6897 24.288ZM95.0497 22.92C96.3457 22.92 97.3357 22.02 97.3357 20.67V19.518C97.1917 19.68 96.8857 19.788 96.3457 19.896L95.3017 20.094C94.2757 20.292 93.5197 20.706 93.5197 21.57C93.5197 22.434 94.2037 22.92 95.0497 22.92ZM104.943 24.288C102.657 24.288 100.947 22.668 100.947 19.662C100.947 16.836 102.675 15 104.979 15C106.401 15 107.319 15.756 107.751 16.494C107.715 16.224 107.715 15.972 107.715 15.72V11.4H109.515V24H107.715V23.55C107.715 23.28 107.715 23.028 107.751 22.794C107.337 23.55 106.365 24.288 104.943 24.288ZM105.321 22.884C106.779 22.884 107.841 21.606 107.841 19.644C107.841 17.664 106.779 16.422 105.321 16.422C103.845 16.422 102.783 17.718 102.783 19.644C102.783 21.606 103.827 22.884 105.321 22.884ZM118.614 16.728V24H116.814V16.728H115.14V15.288H116.814V13.902C116.814 12.066 117.966 11.094 119.442 11.094C119.874 11.094 120.234 11.184 120.432 11.256V12.732C120.27 12.696 120.072 12.66 119.838 12.66C119.082 12.66 118.614 13.092 118.614 13.902V15.288H120.432V16.728H118.614ZM125.64 24.288C123.084 24.288 121.284 22.47 121.284 19.644C121.284 16.872 123.084 15 125.64 15C128.178 15 129.996 16.872 129.996 19.644C129.996 22.47 128.178 24.288 125.64 24.288ZM125.64 22.884C127.188 22.884 128.16 21.624 128.16 19.644C128.16 17.664 127.152 16.422 125.64 16.422C124.128 16.422 123.12 17.664 123.12 19.644C123.12 21.624 124.092 22.884 125.64 22.884ZM133.749 24H131.967V15.288H133.749V15.774C133.749 16.116 133.749 16.458 133.731 16.782C134.163 15.792 135.063 15 136.395 15C136.521 15 136.665 15 136.809 15.018V16.782C136.683 16.746 136.521 16.728 136.269 16.728C134.721 16.728 133.749 17.574 133.749 19.5V24ZM143.733 24H141.951V15.288H143.733V15.864C143.733 16.062 143.733 16.278 143.715 16.494C144.201 15.666 145.047 15 146.253 15C147.369 15 148.305 15.666 148.737 16.674C149.295 15.738 150.321 15 151.581 15C153.327 15 154.605 16.206 154.605 18.492V24H152.823V18.816C152.823 17.304 152.319 16.422 151.131 16.422C149.925 16.422 149.169 17.484 149.169 18.852V24H147.369V18.834C147.369 17.322 146.883 16.422 145.713 16.422C144.507 16.422 143.733 17.484 143.733 18.906V24ZM159.518 24.288C157.898 24.288 156.512 23.28 156.512 21.606C156.512 19.824 157.916 19.086 159.59 18.834L161.228 18.582C161.912 18.474 162.146 18.24 162.146 17.754C162.146 16.926 161.498 16.368 160.508 16.368C159.302 16.368 158.618 17.034 158.564 18.042H156.746C156.836 16.368 158.168 15 160.382 15C162.74 15 163.91 16.332 163.91 18.51V24H162.218V23.586C162.218 23.334 162.236 23.082 162.254 22.812C161.822 23.694 160.886 24.288 159.518 24.288ZM159.878 22.92C161.174 22.92 162.164 22.02 162.164 20.67V19.518C162.02 19.68 161.714 19.788 161.174 19.896L160.13 20.094C159.104 20.292 158.348 20.706 158.348 21.57C158.348 22.434 159.032 22.92 159.878 22.92ZM170.131 24.288C167.611 24.288 165.775 22.65 165.775 19.626C165.775 16.818 167.719 15 170.203 15C172.453 15 173.947 16.35 174.127 18.348H172.291C172.183 17.268 171.463 16.422 170.185 16.422C168.673 16.422 167.611 17.718 167.611 19.644C167.611 21.588 168.637 22.884 170.185 22.884C171.481 22.884 172.273 22.092 172.399 20.922H174.199C173.983 22.938 172.597 24.288 170.131 24.288ZM181.633 24.288C178.195 24.288 175.585 21.768 175.585 17.7C175.585 13.704 178.177 11.094 181.633 11.094C185.089 11.094 187.699 13.722 187.699 17.7C187.699 21.75 185.071 24.288 181.633 24.288ZM181.633 22.686C184.063 22.686 185.701 20.832 185.701 17.7C185.701 14.622 184.045 12.714 181.633 12.714C179.221 12.714 177.565 14.604 177.565 17.7C177.565 20.814 179.203 22.686 181.633 22.686ZM194.354 24.288C191.186 24.288 189.188 22.56 189.098 19.842H191.06C191.168 21.642 192.536 22.686 194.408 22.686C196.226 22.686 197.36 21.93 197.36 20.616C197.36 19.5 196.478 18.96 195.02 18.654L193.04 18.222C191.096 17.808 189.53 16.674 189.53 14.712C189.53 12.606 191.528 11.094 194.246 11.094C197.144 11.094 198.926 12.66 199.07 15.036H197.108C197.018 13.668 195.974 12.714 194.174 12.714C192.644 12.714 191.492 13.452 191.492 14.55C191.492 15.594 192.266 16.116 193.67 16.44L195.848 16.908C197.846 17.34 199.322 18.438 199.322 20.418C199.322 22.596 197.504 24.288 194.354 24.288Z" fill="black"/>
<defs>
<clipPath id="clip0_17589_3231">
<rect width="24" height="24" fill="white" transform="translate(0 6.5)"/>
</clipPath>
</defs>
</svg>
