<svg width="141" height="36" viewBox="0 0 141 36" fill="none" xmlns="http://www.w3.org/2000/svg">
<path d="M101.136 15.8815V19.0889H99.1259V21.1923H101.136V28.3393C101.136 30.7797 102.24 31.7559 105.018 31.7559C105.506 31.7559 105.971 31.6978 106.377 31.6281V29.5479C106.029 29.5828 105.808 29.606 105.425 29.606C104.181 29.606 103.635 29.025 103.635 27.7001V21.1923H106.377V19.0889H103.635V15.8815H101.136Z" fill="black"/>
<path d="M113.453 31.9302C117.148 31.9302 119.414 29.4549 119.414 25.3527C119.414 21.2737 117.137 18.7868 113.453 18.7868C109.757 18.7868 107.48 21.2737 107.48 25.3527C107.48 29.4549 109.746 31.9302 113.453 31.9302ZM113.453 29.7106C111.28 29.7106 110.059 28.1185 110.059 25.3527C110.059 22.6101 111.28 21.0064 113.453 21.0064C115.614 21.0064 116.846 22.6101 116.846 25.3527C116.846 28.1069 115.614 29.7106 113.453 29.7106Z" fill="black"/>
<path d="M121.353 31.6862H123.852V24.2138C123.852 22.4358 125.188 21.2388 127.083 21.2388C127.524 21.2388 128.268 21.3202 128.477 21.3899V18.9262C128.21 18.8565 127.733 18.8216 127.361 18.8216C125.711 18.8216 124.305 19.7281 123.945 20.9715H123.759V19.0308H121.353V31.6862Z" fill="black"/>
<path d="M134.681 20.9134C136.529 20.9134 137.737 22.2034 137.795 24.1906H131.404C131.543 22.215 132.833 20.9134 134.681 20.9134ZM137.784 28.2696C137.319 29.2574 136.285 29.8036 134.774 29.8036C132.775 29.8036 131.485 28.3974 131.404 26.1778V26.0383H140.34V25.1668C140.34 21.1923 138.214 18.7868 134.692 18.7868C131.125 18.7868 128.859 21.355 128.859 25.3992C128.859 29.4433 131.078 31.9302 134.704 31.9302C137.598 31.9302 139.62 30.5357 140.189 28.2696H137.784Z" fill="black"/>
<path d="M84.7513 27.0128C84.944 30.1203 87.5337 32.1078 91.3881 32.1078C95.5074 32.1078 98.0851 30.024 98.0851 26.6996C98.0851 24.0858 96.6156 22.6404 93.0503 21.8093L91.1351 21.3396C88.8707 20.8096 87.9553 20.099 87.9553 18.8583C87.9553 17.2925 89.3766 16.2687 91.5085 16.2687C93.5321 16.2687 94.9293 17.2684 95.1822 18.8704H97.808C97.6514 15.9435 95.0738 13.8838 91.5447 13.8838C87.7505 13.8838 85.2211 15.9435 85.2211 19.039C85.2211 21.5925 86.6544 23.1102 89.7981 23.8449L92.0385 24.387C94.3391 24.929 95.3509 25.7239 95.3509 27.0489C95.3509 28.5906 93.7609 29.7108 91.5928 29.7108C89.2682 29.7108 87.6542 28.6629 87.4253 27.0128H84.7513Z" fill="black"/>
<path d="M58.8691 18.8216C57.1491 18.8216 55.6616 19.6816 54.8946 21.1226H54.7087V19.0308H52.3031V35.893H54.8017V29.7687H54.9992C55.6616 31.1051 57.091 31.8954 58.8923 31.8954C62.0881 31.8954 64.1218 29.3736 64.1218 25.3527C64.1218 21.3318 62.0881 18.8216 58.8691 18.8216ZM58.1602 29.6525C56.0684 29.6525 54.7552 28.0023 54.7552 25.3643C54.7552 22.7147 56.0684 21.0645 58.1718 21.0645C60.2868 21.0645 61.5535 22.6798 61.5535 25.3527C61.5535 28.0372 60.2868 29.6525 58.1602 29.6525Z" fill="black"/>
<path d="M72.8646 18.8216C71.1447 18.8216 69.6572 19.6816 68.8902 21.1226H68.7042V19.0308H66.2987V35.893H68.7972V29.7687H68.9948C69.6572 31.1051 71.0865 31.8954 72.8878 31.8954C76.0836 31.8954 78.1173 29.3736 78.1173 25.3527C78.1173 21.3318 76.0836 18.8216 72.8646 18.8216ZM72.1557 29.6525C70.0639 29.6525 68.7507 28.0023 68.7507 25.3643C68.7507 22.7147 70.0639 21.0645 72.1673 21.0645C74.2823 21.0645 75.549 22.6798 75.549 25.3527C75.549 28.0372 74.2823 29.6525 72.1557 29.6525Z" fill="black"/>
<path d="M47.8203 31.6862H50.687L44.4116 14.3054H41.5088L35.2334 31.6862H38.0037L39.6057 27.073H46.2304L47.8203 31.6862ZM42.8217 17.4611H43.0265L45.5439 24.8085H40.2923L42.8217 17.4611Z" fill="black"/>
<path d="M36.9121 1.19575V9.58037H39.9394C42.4379 9.58037 43.8848 8.04058 43.8848 5.36191C43.8848 2.72393 42.4263 1.19575 39.9394 1.19575H36.9121ZM38.2137 2.3811H39.7941C41.5315 2.3811 42.56 3.48511 42.56 5.37935C42.56 7.30264 41.5489 8.39502 39.7941 8.39502H38.2137V2.3811Z" fill="black"/>
<path d="M48.3159 9.70239C50.1636 9.70239 51.2967 8.46475 51.2967 6.41362C51.2967 4.37412 50.1578 3.13066 48.3159 3.13066C46.4681 3.13066 45.3293 4.37412 45.3293 6.41362C45.3293 8.46475 46.4623 9.70239 48.3159 9.70239ZM48.3159 8.59258C47.2293 8.59258 46.6192 7.79653 46.6192 6.41362C46.6192 5.04233 47.2293 4.24048 48.3159 4.24048C49.3967 4.24048 50.0126 5.04233 50.0126 6.41362C50.0126 7.79072 49.3967 8.59258 48.3159 8.59258Z" fill="black"/>
<path d="M60.9457 3.25269H59.6964L58.5692 8.08125H58.4704L57.1688 3.25269H55.9719L54.6703 8.08125H54.5773L53.4443 3.25269H52.1776L53.9207 9.58037H55.2049L56.5064 4.92031H56.6052L57.9126 9.58037H59.2083L60.9457 3.25269Z" fill="black"/>
<path d="M62.3844 9.58037H63.6336V5.87905C63.6336 4.89126 64.2205 4.27534 65.1444 4.27534C66.0683 4.27534 66.5099 4.78086 66.5099 5.79771V9.58037H67.7591V5.48394C67.7591 3.979 66.9805 3.13066 65.5686 3.13066C64.6156 3.13066 63.9881 3.55483 63.6801 4.25791H63.5872V3.25269H62.3844V9.58037Z" fill="black"/>
<path d="M69.7266 9.58037H70.9759V0.783203H69.7266V9.58037Z" fill="black"/>
<path d="M75.6743 9.70239C77.522 9.70239 78.6551 8.46475 78.6551 6.41362C78.6551 4.37412 77.5162 3.13066 75.6743 3.13066C73.8265 3.13066 72.6876 4.37412 72.6876 6.41362C72.6876 8.46475 73.8207 9.70239 75.6743 9.70239ZM75.6743 8.59258C74.5877 8.59258 73.9776 7.79653 73.9776 6.41362C73.9776 5.04233 74.5877 4.24048 75.6743 4.24048C76.755 4.24048 77.3709 5.04233 77.3709 6.41362C77.3709 7.79072 76.755 8.59258 75.6743 8.59258Z" fill="black"/>
<path d="M82.3773 8.63325C81.6975 8.63325 81.2036 8.30205 81.2036 7.73262C81.2036 7.1748 81.5987 6.87847 82.4703 6.82036L84.0159 6.72158V7.25034C84.0159 8.03477 83.3186 8.63325 82.3773 8.63325ZM82.0577 9.68496C82.8886 9.68496 83.5801 9.32471 83.9578 8.69136H84.0566V9.58037H85.2593V5.25732C85.2593 3.9209 84.3645 3.13066 82.7782 3.13066C81.343 3.13066 80.3204 3.82793 80.1925 4.9145H81.4011C81.5406 4.46709 82.0229 4.21143 82.7201 4.21143C83.5743 4.21143 84.0159 4.58911 84.0159 5.25732V5.80352L82.3018 5.90229C80.7968 5.99526 79.9485 6.65186 79.9485 7.79072C79.9485 8.94702 80.8375 9.68496 82.0577 9.68496Z" fill="black"/>
<path d="M89.4987 9.68496C90.3703 9.68496 91.1082 9.27241 91.4859 8.58096H91.5847V9.58037H92.7817V0.783203H91.5324V4.25791H91.4394C91.0966 3.56064 90.3645 3.1481 89.4987 3.1481C87.9008 3.1481 86.8723 4.41479 86.8723 6.41362C86.8723 8.41826 87.8892 9.68496 89.4987 9.68496ZM89.8532 4.26953C90.8991 4.26953 91.5556 5.10044 91.5556 6.41943C91.5556 7.74424 90.9049 8.56353 89.8532 8.56353C88.7956 8.56353 88.1623 7.75586 88.1623 6.41362C88.1623 5.08301 88.8015 4.26953 89.8532 4.26953Z" fill="black"/>
<path d="M100.883 9.70239C102.73 9.70239 103.864 8.46475 103.864 6.41362C103.864 4.37412 102.725 3.13066 100.883 3.13066C99.035 3.13066 97.8961 4.37412 97.8961 6.41362C97.8961 8.46475 99.0292 9.70239 100.883 9.70239ZM100.883 8.59258C99.7962 8.59258 99.1861 7.79653 99.1861 6.41362C99.1861 5.04233 99.7962 4.24048 100.883 4.24048C101.964 4.24048 102.579 5.04233 102.579 6.41362C102.579 7.79072 101.964 8.59258 100.883 8.59258Z" fill="black"/>
<path d="M105.517 9.58037H106.767V5.87905C106.767 4.89126 107.353 4.27534 108.277 4.27534C109.201 4.27534 109.643 4.78086 109.643 5.79771V9.58037H110.892V5.48394C110.892 3.979 110.113 3.13066 108.701 3.13066C107.748 3.13066 107.121 3.55483 106.813 4.25791H106.72V3.25269H105.517V9.58037Z" fill="black"/>
<path d="M116.646 1.67803V3.28174H115.64V4.33345H116.646V7.90693C116.646 9.12715 117.198 9.61523 118.586 9.61523C118.83 9.61523 119.063 9.58618 119.266 9.55132V8.51123C119.092 8.52866 118.981 8.54028 118.79 8.54028C118.168 8.54028 117.895 8.24976 117.895 7.58735V4.33345H119.266V3.28174H117.895V1.67803H116.646Z" fill="black"/>
<path d="M120.943 9.58037H122.192V5.88486C122.192 4.92612 122.762 4.28115 123.784 4.28115C124.668 4.28115 125.138 4.79248 125.138 5.80352V9.58037H126.388V5.49556C126.388 3.99062 125.557 3.13647 124.209 3.13647C123.256 3.13647 122.587 3.56064 122.279 4.26953H122.181V0.783203H120.943V9.58037Z" fill="black"/>
<path d="M130.894 4.19399C131.818 4.19399 132.422 4.83896 132.451 5.83257H129.256C129.325 4.84478 129.97 4.19399 130.894 4.19399ZM132.446 7.87207C132.213 8.36597 131.696 8.63906 130.941 8.63906C129.941 8.63906 129.296 7.93599 129.256 6.82617V6.75645H133.724V6.32065C133.724 4.33345 132.661 3.13066 130.9 3.13066C129.116 3.13066 127.983 4.41479 127.983 6.43687C127.983 8.45894 129.093 9.70239 130.906 9.70239C132.353 9.70239 133.364 9.00513 133.648 7.87207H132.446Z" fill="black"/>
<path d="M21.6762 17.4215C21.7065 15.0681 22.9704 12.8413 24.9754 11.6086C23.7105 9.80215 21.5919 8.65681 19.3878 8.58785C17.0368 8.34109 14.7577 9.99461 13.5597 9.99461C12.3385 9.99461 10.494 8.61235 8.5078 8.65322C5.91884 8.73686 3.50529 10.2088 2.24571 12.4722C-0.461889 17.16 1.55774 24.0495 4.15139 27.8387C5.44905 29.6942 6.96564 31.7669 8.95007 31.6934C10.892 31.6128 11.6172 30.4551 13.9612 30.4551C16.2835 30.4551 16.9639 31.6934 18.9886 31.6466C21.0724 31.6128 22.3852 29.7829 23.6373 27.9098C24.5697 26.5877 25.2872 25.1265 25.7631 23.5803C23.3144 22.5446 21.6791 20.0803 21.6762 17.4215Z" fill="black"/>
<path d="M17.8519 6.09585C18.988 4.73196 19.5477 2.97891 19.4122 1.20898C17.6764 1.39129 16.0731 2.22088 14.9216 3.53244C13.7956 4.8139 13.2096 6.53611 13.3204 8.23838C15.0568 8.25626 16.7638 7.44917 17.8519 6.09585Z" fill="black"/>
</svg>
