<svg width="1206" height="849" viewBox="0 0 1206 849" fill="none" xmlns="http://www.w3.org/2000/svg">
<path d="M997.611 645.912C993.81 648.271 990.043 650.717 986.312 653.252C986.312 653.252 989.512 654.181 993.385 655.189C988.734 665.05 983.712 674.424 978.717 683.312C978.522 683.648 978.328 683.985 978.142 684.321C974.393 691.033 970.671 697.392 967.161 703.299C967.028 703.503 966.949 703.662 966.825 703.856C957.983 718.758 950.45 730.794 946.825 736.384C945.888 737.825 945.216 738.833 944.862 739.355C944.685 739.629 944.579 739.762 944.579 739.762C944.579 739.762 944.455 739.638 944.234 739.382C943.854 738.948 943.173 738.161 942.245 737.02C933.881 727.496 903.191 684.321 908.443 627.031C908.443 626.783 908.443 626.527 908.514 626.235C909.37 617.09 911.163 608.058 913.863 599.279L914.182 598.297C914.297 597.82 914.465 597.307 914.615 596.838C920.078 580.575 928.488 565.457 939.425 552.239C939.089 557.13 941.334 560.101 944.73 562.215C942.802 558.05 941.865 550.462 948.036 542.626C954.636 535.913 961.824 529.804 969.513 524.373C969.707 524.204 969.928 524.072 970.132 523.913C996.347 505.659 1019.74 500.76 1023.18 499.928C1023.51 499.849 1023.69 499.822 1023.69 499.822C1023.69 499.822 1023.69 499.999 1023.69 500.326C1023.61 502.732 1022.9 513.795 1021.48 529.015C1021.44 529.261 1021.43 529.51 1021.43 529.758C1020.55 538.54 1019.58 548.622 1018.3 559.376C1018.26 559.743 1018.14 560.096 1017.95 560.411C1013.38 567.698 1007.34 571.236 999.035 570.723C1001.53 572.525 1004.42 573.7 1007.46 574.15C1010.5 574.599 1013.61 574.309 1016.51 573.305C1015.95 577.497 1015.3 581.751 1014.57 586.04C1014.57 586.288 1014.49 586.473 1014.45 586.721C1012.27 600.252 1009.08 613.599 1004.9 626.651C1002.77 633.292 1000.26 639.722 997.611 645.912Z" fill="#BAB20F"/>
<path d="M944.897 739.665C944.838 739.664 944.779 739.646 944.729 739.613C944.679 739.58 944.639 739.534 944.615 739.48C926.799 699.347 947.603 633.213 961.59 597.361C977.107 557.564 994.879 532.43 1022.25 499.956C1022.31 499.899 1022.39 499.867 1022.47 499.867C1022.55 499.867 1022.63 499.899 1022.69 499.956C1022.72 499.984 1022.74 500.017 1022.75 500.055C1022.77 500.092 1022.78 500.132 1022.78 500.172C1022.78 500.213 1022.77 500.253 1022.75 500.29C1022.74 500.327 1022.72 500.361 1022.69 500.389C995.366 532.819 977.594 557.918 962.13 597.67C948.178 633.426 927.417 699.373 945.145 739.312C945.178 739.387 945.179 739.472 945.149 739.548C945.12 739.624 945.061 739.686 944.986 739.719C944.953 739.706 944.923 739.688 944.897 739.665Z" fill="#0F0F5C"/>
<path d="M1059.03 388.594C1059.07 388.301 1059.09 388.005 1059.1 387.71C1059.1 382.625 1053.63 378.503 1046.89 378.503C1046.32 378.503 1045.77 378.503 1045.23 378.592C1045.54 377.297 1045.7 375.97 1045.7 374.639C1045.7 362.337 1032.44 352.361 1016.17 352.361C1001.86 352.361 989.945 360.029 987.213 370.208C984.553 369.295 981.759 368.835 978.946 368.846C967.965 368.846 957.505 376.372 957.134 384.65C956.816 391.787 958.133 395.307 959.212 397.155C954.482 397.898 936.179 397.96 928.187 400.922H1076.22C1076.22 400.922 1075.14 389.364 1059.03 388.594Z" fill="#E6E8ED"/>
<path d="M416.468 709.455H644.397C666.683 709.455 684.75 691.384 684.75 669.092L684.75 194.775C684.75 172.484 666.683 154.412 644.397 154.412H416.468C394.182 154.412 376.115 172.484 376.115 194.775L376.115 669.092C376.115 691.384 394.182 709.455 416.468 709.455Z" fill="#0B1557"/>
<path d="M644.406 188.902H416.477C394.19 188.902 376.124 206.973 376.124 229.265V703.582C376.124 725.874 394.19 743.945 416.477 743.945H644.406C666.692 743.945 684.759 725.874 684.759 703.582V229.265C684.759 206.973 666.692 188.902 644.406 188.902Z" fill="white"/>
<path d="M644.397 744.255H416.441C405.655 744.255 395.31 739.969 387.682 732.34C380.055 724.711 375.77 714.364 375.77 703.574V229.275C375.77 218.486 380.055 208.138 387.682 200.509C395.31 192.88 405.655 188.594 416.441 188.594H644.397C655.179 188.608 665.516 192.898 673.14 200.525C680.765 208.151 685.054 218.49 685.068 229.275V703.583C685.066 714.371 680.78 724.716 673.153 732.343C665.525 739.971 655.182 744.255 644.397 744.255ZM416.441 189.257C405.824 189.271 395.645 193.497 388.138 201.007C380.632 208.517 376.409 218.699 376.398 229.319V703.583C376.412 714.202 380.635 724.381 388.142 731.89C395.648 739.398 405.825 743.622 416.441 743.636H644.397C655.014 743.625 665.193 739.401 672.702 731.893C680.211 724.384 684.435 714.203 684.449 703.583V229.275C684.437 218.653 680.214 208.47 672.705 200.96C665.196 193.449 655.016 189.225 644.397 189.213L416.441 189.257Z" fill="#0F0F5C"/>
<path d="M599.012 231.6H654.653V225.586H599.012V231.6Z" fill="#617DFF"/>
<path d="M599.012 254.17H654.653V248.156H599.012V254.17Z" fill="#617DFF"/>
<path d="M414.549 254.16L573.955 254.16V225.577L414.549 225.577V254.16Z" fill="#617DFF"/>
<path d="M622.416 281.523H516.352V398.606H622.416V281.523Z" fill="#3F5DE3"/>
<path d="M541.268 281.523H516.352V398.606H541.268V281.523Z" fill="#FF6B3D"/>
<path d="M541.267 281.523H435.203V398.606H541.267V281.523Z" fill="#3F5DE3"/>
<path d="M622.416 291.968L536.52 341.192L622.416 390.417V398.615H607.058L521.692 349.691L516.352 352.751V329.633L521.692 332.693L610.975 281.523H622.416V291.968Z" fill="white"/>
<path d="M622.416 285.282L528.527 339.087L622.416 392.893V398.615H618.712L521.692 343.005L516.352 346.065V332.11L521.692 335.17L615.299 281.523H622.416V285.282Z" fill="#FF6B3D"/>
<path d="M435.203 291.968L521.1 341.192L435.203 390.417V398.615H450.57L535.927 349.691L541.267 352.751V329.633L535.927 332.693L446.644 281.523H435.203V291.968Z" fill="white"/>
<path d="M435.203 285.282L529.092 339.087L435.203 392.893V398.615H438.899L535.927 343.005L541.267 346.065V332.11L535.927 335.17L442.321 281.523H435.203V285.282Z" fill="#FF6B3D"/>
<path d="M545.671 325.424V281.523H541.267H516.352H511.949V325.424H435.203V354.714H511.949V398.615H516.352H541.267H545.671V354.714H622.416V325.424H545.671Z" fill="white"/>
<path d="M516.352 398.615H541.268V281.533H516.352V398.615Z" fill="#FF6B3D"/>
<path d="M541.268 350.893V329.252H435.203V350.893H541.268Z" fill="#FF6B3D"/>
<path d="M622.416 350.893V329.252H516.352V350.893H622.416Z" fill="#FF6B3D"/>
<path d="M464.133 444.107H404.664V503.59H464.133V444.107Z" fill="#F0F2F7"/>
<path d="M562.373 444.107H502.904V503.59H562.373V444.107Z" fill="#F0F2F7"/>
<path d="M660.621 444.107H601.152V503.59H660.621V444.107Z" fill="#F0F2F7"/>
<path d="M660.612 531.793H402.816V539.169H660.612V531.793Z" fill="#F0F2F7"/>
<path d="M660.612 564.135H402.816V571.51H660.612V564.135Z" fill="#F0F2F7"/>
<path d="M660.612 596.484H402.816V603.86H660.612V596.484Z" fill="#F0F2F7"/>
<path d="M660.612 628.834H402.816V636.21H660.612V628.834Z" fill="#F0F2F7"/>
<path d="M660.612 661.176H402.816V668.551H660.612V661.176Z" fill="#F0F2F7"/>
<path d="M660.612 693.527H402.816V700.903H660.612V693.527Z" fill="#F0F2F7"/>
<path d="M888.081 279.463C867.091 276.898 871.15 258.769 873.139 250.977C875.968 239.905 872.193 224.729 861.459 221.917C863.227 203.442 824.872 197.322 822.211 216.115C811.804 217.822 806.34 226.197 809.046 236.739C808.038 240.754 804.041 243.018 802.494 246.909C797.888 260.405 808.383 262.527 810.779 271.495C804.369 276.509 792.485 284.345 789.559 291.464C784.015 304.907 787.127 310.452 790.558 316.996C785.112 305.287 791.23 289.191 804.148 285.362C794.537 290.421 793.891 298.504 793.299 308.356C803.599 359.296 867.807 356.298 883.139 330.907C883.537 334.02 882.449 336.213 880.053 338.371C884.164 338.557 892.688 333.896 895.835 329.607C905.384 316.554 907.807 281.86 888.081 279.463Z" fill="#0F0F5C"/>
<path d="M811.937 556.67C813.882 519.323 818.241 467.914 818.789 447.83C820.195 395.997 770.699 412.703 768.48 459.557L760.602 555.016C756.287 601.375 809.514 603.011 811.937 556.67Z" fill="#FFB29C"/>
<path d="M918.143 498.15C896.383 468.674 867.896 426.817 855.747 411.349C824.404 371.437 791.327 422.165 818.851 458.99L871.901 536.559C897.241 574.552 945.172 534.728 918.143 498.15Z" fill="#FFB29C"/>
<path d="M812.069 546.649C812.388 511.115 768.471 503.89 760.991 547.127L750.965 701.99L802.697 703.511L812.069 546.649Z" fill="#FFB29C"/>
<path d="M751.973 673.045L779.55 648.973L804.121 672.585L803.175 690.582L750.965 697.896L751.973 673.045Z" fill="#0F0F5C"/>
<path d="M927.771 523.187C922.263 488.078 873.784 488.078 872.847 531.934L887.541 686.337L943.43 690.945L927.771 523.187Z" fill="#FFB29C"/>
<path d="M856.844 378.46C856.844 375.691 879.018 433.211 903.094 477.315C853.042 478.907 815.907 514.706 759.497 467.834C759.497 467.834 775.5 420.405 798.745 398.606C807.392 390.496 814.227 383.244 814.227 383.244L856.844 378.46Z" fill="#617DFF"/>
<path d="M824.58 479.73C800.938 479.73 780.169 472.301 765.819 458.664C765.789 458.636 765.765 458.603 765.748 458.566C765.732 458.529 765.723 458.489 765.721 458.448C765.72 458.407 765.727 458.367 765.741 458.329C765.756 458.291 765.777 458.256 765.805 458.226C765.833 458.197 765.867 458.173 765.904 458.156C765.941 458.14 765.981 458.13 766.021 458.129C766.062 458.128 766.103 458.135 766.141 458.149C766.179 458.163 766.213 458.185 766.243 458.213C781.088 472.363 802.883 479.721 827.631 479.076C849.814 478.474 871.467 471.939 892.413 465.624C892.452 465.612 892.493 465.607 892.534 465.611C892.574 465.614 892.614 465.626 892.65 465.645C892.686 465.664 892.718 465.69 892.744 465.721C892.771 465.752 892.79 465.789 892.802 465.828C892.825 465.906 892.816 465.99 892.778 466.063C892.741 466.135 892.676 466.19 892.599 466.217C871.609 472.549 849.911 479.093 827.648 479.695C826.623 479.721 825.597 479.73 824.58 479.73Z" fill="#0F0F5C"/>
<path d="M738.71 362.593C749.577 345.498 778.144 310.831 790.682 299.148C810.443 280.744 824.359 312.104 815.633 328.474C805.12 348.187 788.339 373.577 773.494 389.027C748.153 414.771 717.057 396.624 738.71 362.593Z" fill="#FFB29C"/>
<path d="M794.2 373.207C780.717 363.213 762.777 347.622 755.076 338.716C755.076 338.716 785.651 291.774 803.785 293.312C820.089 294.701 831.857 308.683 824.784 323.231C817.71 337.779 794.2 373.207 794.2 373.207Z" fill="#FF6B3D"/>
<path d="M814.245 383.226L859.434 384.022L884.783 301.713C874.792 288.668 847.374 289.615 843.599 287.236L832.326 286.537C832.326 286.537 803.148 287.483 796.437 295.337C791.769 300.846 814.245 383.226 814.245 383.226Z" fill="#FF6B3D"/>
<path d="M813.069 232.397C816.933 215.452 830.62 212.109 838.515 216.841C846.411 212.109 860.106 215.452 863.97 232.397C867.171 246.458 858.409 269.868 838.524 269.877C818.63 269.868 809.895 246.458 813.069 232.397Z" fill="#0F0F5C"/>
<path d="M855.11 253.815C855.11 253.815 858.399 248.279 862.184 251.622C865.968 254.965 861.361 266.727 856.083 260.81L855.11 253.815Z" fill="#FFB29C"/>
<path d="M820.31 253.815C820.31 253.815 817.012 248.279 813.237 251.622C809.461 254.965 814.05 266.727 819.329 260.81L820.31 253.815Z" fill="#FFB29C"/>
<path d="M821.769 240.878C823.732 235.757 830.814 228.576 837.896 228.443C844.978 228.311 852.175 235.253 854.014 240.878C855.853 246.502 861.132 259.202 854.333 266.277C852.295 268.434 849.836 270.15 847.109 271.318C843.572 272.812 841.406 278.862 842.202 282.567C842.458 283.752 843.758 287.679 846.428 288.492C842.671 295.815 831.344 296.735 827.587 289.005C831.822 287.882 832.706 284.017 832.989 283.045C834.121 279.18 832.335 272.874 828.639 271.274C826.033 270.129 823.66 268.517 821.636 266.516C814.315 259.458 819.62 246.599 821.769 240.878Z" fill="#FFB29C"/>
<path d="M844.766 272.432C843.889 273.432 842.816 274.241 841.612 274.807C840.409 275.373 839.102 275.685 837.772 275.722C835.889 275.722 833.661 275.306 831.017 272.432C832.379 273.316 834.934 273.758 837.693 273.767C840.451 273.776 843.325 273.316 844.766 272.432Z" fill="#0F0F5C"/>
<path d="M820.071 226.347C825.429 219.918 835.65 222.491 838.356 224.092C838.356 224.092 852.29 215.761 859.576 234.36C862.308 241.328 859.452 248.341 856.923 249.217C856.923 249.217 856.118 243.239 853.528 243.124C848.798 243.283 841.768 241.868 839.116 238.569C837.737 236.862 838.232 233.104 838.709 230.512C836.207 231.68 834.748 233.732 834.748 238.295C835.137 244.158 821.061 239.507 818.665 249.217C811.919 244.972 816.198 231.008 820.071 226.347Z" fill="#0F0F5C"/>
<path d="M691.071 330.906C691.071 330.906 732.494 346.498 749.939 359.206C779.116 381.068 757.896 413.339 730.682 396.5L673.645 361.223L691.071 330.906Z" fill="#FFB29C"/>
<path d="M892.944 310.3C876.189 289.075 856.941 302.447 859.699 318.799C863.024 338.485 872.369 371.667 881.211 390.672C896.525 422.625 924.535 407.82 917.727 376.867C912.457 352.865 903.978 324.282 892.944 310.3Z" fill="#FFB29C"/>
<path d="M871.609 367.458C886.113 364.864 900.234 360.461 913.642 354.351C907.939 335.514 894.067 296.867 873.439 293.771C857.091 294.426 852.9 311.583 857.524 327.077C862.148 342.571 871.609 367.458 871.609 367.458Z" fill="#FF6B3D"/>
<path d="M832.706 285.051C832.706 285.051 818.047 284.308 818.294 288.845C818.542 293.382 822.963 302.535 826.322 301.775C829.682 301.014 837.304 296.955 837.304 296.955C837.304 296.955 843.307 302.703 846.278 302.703C851.318 302.703 858.656 290.596 856.95 288.659C855.243 286.723 843.572 285.122 843.572 285.122C843.572 285.122 846.87 292.197 838.206 292.055C830.336 291.887 832.706 285.051 832.706 285.051Z" fill="white"/>
<path d="M837.64 311.185C838.729 311.185 839.611 310.302 839.611 309.212C839.611 308.123 838.729 307.24 837.64 307.24C836.551 307.24 835.668 308.123 835.668 309.212C835.668 310.302 836.551 311.185 837.64 311.185Z" fill="white"/>
<path d="M837.64 322.938C838.729 322.938 839.611 322.055 839.611 320.966C839.611 319.877 838.729 318.994 837.64 318.994C836.551 318.994 835.668 319.877 835.668 320.966C835.668 322.055 836.551 322.938 837.64 322.938Z" fill="white"/>
<path d="M807.976 351.938L800.257 336.443L803.9 358.34L807.976 351.938Z" fill="#0F0F5C"/>
<path d="M958.513 312.839C958.513 312.839 932.696 375.532 924.455 394.378C911.573 423.837 872.723 402.285 883.457 375.576C891.123 356.492 916.118 296.248 916.118 296.248L958.513 312.839Z" fill="#FFB29C"/>
<path d="M915.393 671.753L940.751 639.535C940.751 639.535 944.906 666.526 946.728 669.754C954.853 684.187 1003.86 679.659 1008.62 733.739H925.083L911.573 715.733L908.921 733.739H882.838L885.331 671.532L915.393 671.753Z" fill="#0F0F5C"/>
<path d="M908.868 733.74H882.785V743.946H908.868V733.74Z" fill="#FFC508"/>
<path d="M1008.62 733.74H924.889V743.946H1008.62V733.74Z" fill="#FFC508"/>
<path d="M779.55 675.078C788.46 675.078 797.006 678.619 803.307 684.921C809.608 691.224 813.148 699.771 813.148 708.684V732.907H745.907V708.72C745.903 704.3 746.77 699.922 748.459 695.838C750.148 691.754 752.626 688.043 755.751 684.918C758.876 681.793 762.587 679.315 766.67 677.627C770.754 675.938 775.131 675.072 779.55 675.078Z" fill="#0F0F5C"/>
<path d="M745.899 743.68H813.184V732.943H745.899V743.68Z" fill="#FFC508"/>
<path d="M868.117 358.853C868.294 357.8 874.881 334.037 874.881 334.037L871.609 367.458L868.117 358.853Z" fill="#0F0F5C"/>
<path d="M860.478 385.047H812.795C812.047 382.74 811.913 380.277 812.406 377.902L861.583 377.689C861.936 380.458 861.839 383.031 860.478 385.047Z" fill="#0F0F5C"/>
<path d="M820.929 377.689H817.816V386.79H820.929V377.689Z" fill="#617DFF"/>
<path d="M854.819 377.725H851.707V387.302H854.819V377.725Z" fill="#617DFF"/>
<path d="M842.034 386.472H830.946C830.518 386.472 830.093 386.387 829.698 386.223C829.302 386.059 828.942 385.819 828.639 385.516C828.336 385.213 828.096 384.853 827.932 384.457C827.768 384.061 827.684 383.637 827.684 383.208V379.467C827.686 378.603 828.031 377.776 828.642 377.166C829.254 376.555 830.082 376.213 830.946 376.213H842.034C842.897 376.213 843.726 376.555 844.337 377.166C844.949 377.776 845.294 378.603 845.296 379.467V383.208C845.296 384.074 844.952 384.904 844.341 385.516C843.729 386.128 842.899 386.472 842.034 386.472ZM830.946 377.982C830.75 377.98 830.556 378.018 830.375 378.092C830.194 378.166 830.029 378.276 829.89 378.414C829.751 378.552 829.641 378.716 829.566 378.897C829.491 379.078 829.452 379.272 829.452 379.467V383.208C829.452 383.605 829.609 383.985 829.89 384.265C830.17 384.545 830.55 384.703 830.946 384.703H842.034C842.43 384.703 842.81 384.545 843.09 384.265C843.37 383.985 843.528 383.605 843.528 383.208V379.467C843.525 379.073 843.367 378.695 843.087 378.416C842.807 378.138 842.428 377.982 842.034 377.982H830.946Z" fill="#FFC124"/>
<path d="M832.414 262.234C832.481 263.548 832.954 264.809 833.767 265.843C834.197 266.586 834.812 267.207 835.551 267.644C836.291 268.082 837.131 268.321 837.99 268.34C838.849 268.359 839.698 268.156 840.456 267.751C841.214 267.346 841.854 266.753 842.317 266.028C843.204 265.014 843.749 263.745 843.873 262.402C840.134 263.578 836.117 263.519 832.414 262.234Z" fill="#0F0F5C"/>
<path d="M833.767 265.843C834.197 266.587 834.811 267.208 835.551 267.645C836.291 268.082 837.13 268.322 837.989 268.341C838.848 268.359 839.698 268.156 840.455 267.752C841.213 267.347 841.854 266.754 842.316 266.029C840.964 265.394 839.487 265.07 837.993 265.083C836.546 265.03 835.105 265.29 833.767 265.843Z" fill="#FF6A33"/>
<path d="M843.157 246.741C843.093 246.741 843.031 246.72 842.98 246.684C842.928 246.647 842.889 246.595 842.867 246.535C842.846 246.475 842.844 246.41 842.861 246.349C842.878 246.288 842.913 246.233 842.962 246.193C843.716 245.485 844.568 244.89 845.491 244.424C846.488 243.996 847.588 243.87 848.656 244.061C849.723 244.261 850.705 244.775 851.477 245.538C851.512 245.565 851.541 245.599 851.563 245.638C851.584 245.677 851.597 245.72 851.6 245.764C851.603 245.808 851.596 245.853 851.581 245.894C851.565 245.936 851.541 245.973 851.51 246.005C851.478 246.036 851.441 246.06 851.399 246.076C851.358 246.091 851.313 246.098 851.269 246.095C851.225 246.091 851.182 246.079 851.143 246.058C851.104 246.036 851.07 246.007 851.043 245.972C850.355 245.302 849.485 244.85 848.541 244.672C847.596 244.497 846.62 244.608 845.738 244.99C844.869 245.426 844.068 245.986 843.36 246.653C843.304 246.704 843.233 246.735 843.157 246.741Z" fill="#0F0F5C"/>
<path d="M838.188 260.281C838.153 260.29 838.116 260.29 838.082 260.281C837.326 260.035 836.624 259.648 836.013 259.14C835.68 258.858 835.434 258.487 835.304 258.071C835.174 257.654 835.165 257.209 835.279 256.788C835.473 256.322 835.777 255.91 836.163 255.585L836.411 255.329C837.045 254.619 837.471 253.749 837.643 252.813C837.815 251.876 837.725 250.911 837.383 250.023C837.354 249.945 837.356 249.859 837.389 249.783C837.422 249.707 837.483 249.647 837.56 249.616C837.636 249.587 837.721 249.589 837.795 249.622C837.87 249.656 837.928 249.717 837.958 249.793C838.342 250.79 838.444 251.874 838.252 252.926C838.06 253.978 837.582 254.956 836.87 255.753L836.605 256.027C836.302 256.293 836.06 256.622 835.898 256.991C835.832 257.301 835.85 257.623 835.952 257.924C836.053 258.224 836.233 258.491 836.472 258.698C837.025 259.151 837.658 259.496 838.338 259.715C838.402 259.744 838.455 259.793 838.487 259.855C838.52 259.917 838.53 259.989 838.517 260.057C838.503 260.126 838.467 260.189 838.414 260.234C838.36 260.28 838.293 260.306 838.223 260.308L838.188 260.281Z" fill="#0F0F5C"/>
<path d="M852.98 251.729C852.98 251.729 850.495 258.167 841.698 252.746C841.698 252.746 843.846 247.139 848.205 247.21C852.564 247.28 852.98 251.729 852.98 251.729Z" fill="white"/>
<path d="M841.724 253.056H841.618C841.542 253.026 841.481 252.967 841.448 252.893C841.415 252.818 841.413 252.734 841.441 252.658C841.53 252.419 843.687 246.918 848.143 246.918H848.232C852.812 246.998 853.307 251.667 853.307 251.72C853.314 251.801 853.29 251.881 853.239 251.944C853.187 252.007 853.113 252.047 853.033 252.056C852.951 252.061 852.871 252.035 852.808 251.982C852.746 251.929 852.706 251.854 852.697 251.773C852.697 251.605 852.246 247.608 848.223 247.537H848.143C844.103 247.537 842.034 252.843 842.016 252.843C841.996 252.905 841.957 252.958 841.904 252.996C841.852 253.034 841.789 253.055 841.724 253.056Z" fill="#0F0F5C"/>
<path d="M851.679 251.72C851.71 249.908 850.179 248.413 848.26 248.38C846.341 248.348 844.761 249.79 844.73 251.602C844.7 253.414 846.23 254.909 848.149 254.942C850.068 254.974 851.648 253.532 851.679 251.72Z" fill="#0F0F5C"/>
<path d="M850.699 250.587C851.089 250.587 851.406 250.27 851.406 249.879C851.406 249.489 851.089 249.172 850.699 249.172C850.308 249.172 849.991 249.489 849.991 249.879C849.991 250.27 850.308 250.587 850.699 250.587Z" fill="white"/>
<path d="M853.068 252.047H852.944C852.864 252.038 852.79 251.998 852.739 251.935C852.687 251.872 852.663 251.792 852.67 251.711C852.672 251.67 852.683 251.63 852.701 251.593C852.72 251.556 852.745 251.523 852.777 251.497C852.808 251.47 852.845 251.45 852.884 251.438C852.924 251.427 852.965 251.423 853.006 251.428C853.475 251.414 853.924 251.239 854.279 250.933C854.308 250.904 854.342 250.881 854.379 250.865C854.417 250.849 854.457 250.84 854.497 250.84C854.538 250.839 854.578 250.847 854.616 250.862C854.654 250.877 854.688 250.9 854.717 250.928C854.746 250.957 854.769 250.991 854.785 251.028C854.801 251.065 854.81 251.106 854.81 251.146C854.81 251.187 854.803 251.227 854.788 251.265C854.772 251.303 854.75 251.337 854.722 251.366C854.262 251.772 853.68 252.012 853.068 252.047Z" fill="#0F0F5C"/>
<path d="M832.564 247.041C832.497 247.042 832.432 247.02 832.379 246.979C831.635 246.352 830.804 245.837 829.912 245.449C829.009 245.117 828.029 245.062 827.095 245.29C826.161 245.519 825.316 246.02 824.669 246.731C824.612 246.792 824.534 246.828 824.451 246.831C824.368 246.835 824.288 246.805 824.227 246.749C824.166 246.692 824.13 246.614 824.126 246.531C824.123 246.448 824.153 246.368 824.209 246.307C824.943 245.509 825.897 244.946 826.95 244.688C828.006 244.431 829.114 244.495 830.133 244.874C831.092 245.275 831.986 245.818 832.785 246.483C832.819 246.507 832.847 246.537 832.869 246.572C832.89 246.607 832.904 246.646 832.91 246.687C832.916 246.727 832.913 246.769 832.902 246.808C832.892 246.848 832.873 246.885 832.847 246.917C832.815 246.96 832.772 246.995 832.722 247.017C832.673 247.038 832.618 247.047 832.564 247.041Z" fill="#0F0F5C"/>
<path d="M822.865 252.286C822.865 252.286 825.703 258.574 834.183 252.684C834.183 252.684 831.725 247.201 827.383 247.511C823.042 247.82 822.865 252.286 822.865 252.286Z" fill="white"/>
<path d="M834.183 252.993C834.122 252.993 834.064 252.975 834.013 252.942C833.963 252.909 833.924 252.862 833.9 252.807C833.9 252.754 831.468 247.501 827.401 247.82C823.334 248.138 823.184 252.126 823.175 252.303C823.175 252.344 823.167 252.384 823.15 252.421C823.134 252.459 823.11 252.492 823.08 252.52C823.05 252.547 823.015 252.568 822.976 252.581C822.938 252.594 822.897 252.599 822.856 252.595C822.816 252.594 822.776 252.585 822.739 252.568C822.702 252.552 822.668 252.528 822.64 252.498C822.612 252.469 822.59 252.434 822.576 252.396C822.561 252.358 822.555 252.317 822.556 252.277C822.556 252.233 822.795 247.537 827.357 247.2C831.919 246.864 834.359 252.321 834.43 252.56C834.46 252.635 834.461 252.719 834.431 252.795C834.402 252.87 834.344 252.932 834.271 252.967L834.183 252.993Z" fill="#0F0F5C"/>
<path d="M811.964 315.677C813.941 315.677 815.545 314.156 815.545 312.281C815.545 310.405 813.941 308.885 811.964 308.885C809.986 308.885 808.383 310.405 808.383 312.281C808.383 314.156 809.986 315.677 811.964 315.677Z" fill="#0F0F5C"/>
<path d="M825.969 250.366C826.369 250.366 826.694 250.042 826.694 249.641C826.694 249.241 826.369 248.916 825.969 248.916C825.568 248.916 825.244 249.241 825.244 249.641C825.244 250.042 825.568 250.366 825.969 250.366Z" fill="white"/>
<path d="M822.706 252.603C822.12 252.581 821.557 252.374 821.097 252.011C821.04 251.953 821.008 251.875 821.008 251.794C821.008 251.713 821.04 251.635 821.097 251.577C821.126 251.548 821.16 251.524 821.198 251.509C821.236 251.493 821.277 251.484 821.318 251.484C821.359 251.484 821.4 251.493 821.438 251.509C821.476 251.524 821.51 251.548 821.539 251.577C821.91 251.865 822.369 252.018 822.839 252.011C822.879 252.003 822.92 252.004 822.96 252.013C823 252.022 823.038 252.039 823.071 252.063C823.104 252.087 823.132 252.117 823.152 252.152C823.173 252.187 823.187 252.227 823.192 252.267C823.2 252.349 823.177 252.43 823.128 252.496C823.079 252.561 823.007 252.606 822.927 252.621L822.706 252.603Z" fill="#0F0F5C"/>
<path d="M638.782 396.509L634.193 366.44C633.899 364.656 633.976 362.83 634.42 361.077C634.864 359.324 635.665 357.682 636.773 356.253C637.882 354.824 639.273 353.64 640.86 352.774C642.447 351.908 644.196 351.379 645.997 351.22L669.339 348.894C673.089 348.562 676.826 349.66 679.799 351.97C682.773 354.28 684.763 357.63 685.369 361.346L689.957 391.415L638.782 396.509Z" fill="#0F0F5C"/>
<path d="M672.716 679.378L692.168 714.443L699.675 727.709L707.429 741.39C709.506 745.051 714.909 744.565 715.908 740.638L719.869 724.994L724.024 708.703L733.697 672.807L734.157 671.135L733.485 671.224L732.601 664.6L674.661 672.391L675.546 679.015L672.716 679.378Z" fill="#FFB19E"/>
<path d="M724.051 708.685L719.895 724.976L715.934 740.62C714.935 744.547 709.533 745.042 707.455 741.372L699.701 727.691L692.194 714.425C697.914 711.597 704.058 709.721 710.382 708.871C714.914 708.258 719.504 708.196 724.051 708.685Z" fill="#0F0F5C"/>
<path d="M672.522 678.873L668.799 651.095C668.792 650.966 668.81 650.836 668.853 650.714L633.221 384.871L648.543 382.811L687.447 672.762C687.65 674.265 684.909 680.005 680.656 680.571C676.403 681.137 672.725 680.385 672.522 678.873Z" fill="#F5A004"/>
<path d="M687.402 672.761L648.499 382.81L664.007 380.74L702.91 670.815C702.903 670.762 702.903 670.709 702.91 670.656C703.105 672.168 700.373 677.899 696.111 678.474C691.85 679.049 687.606 674.264 687.402 672.761Z" fill="#FFC508"/>
<path d="M702.857 670.843L663.954 380.768L679.392 378.689L718.295 668.888C718.295 668.8 718.295 668.711 718.233 668.641C718.436 670.144 715.704 675.884 711.451 676.45C707.199 677.016 703.291 672.496 702.857 670.843Z" fill="#F5A004"/>
<path d="M718.304 668.861L679.4 378.662L694.688 376.602L730.319 642.445C730.397 642.552 730.457 642.672 730.496 642.798L734.219 670.577C734.422 672.089 731.115 673.778 726.862 674.353C722.839 674.892 718.869 670.594 718.304 668.861Z" fill="#FFC508"/>
<path d="M702.911 400.373C702.732 398.919 702.064 397.568 701.016 396.543C699.969 395.517 698.604 394.879 697.146 394.731L696.421 389.328C697.77 388.783 698.899 387.805 699.631 386.548C700.363 385.291 700.656 383.825 700.463 382.383C700.271 380.941 699.604 379.604 698.568 378.583C697.532 377.562 696.186 376.914 694.741 376.743V376.619L693.512 376.778L634.476 384.738L633.247 384.906V385.03C631.89 385.569 630.751 386.547 630.013 387.809C629.275 389.07 628.979 390.542 629.173 391.99C629.367 393.439 630.04 394.781 631.084 395.803C632.128 396.825 633.484 397.469 634.936 397.632L635.661 403.035C634.303 403.575 633.165 404.553 632.427 405.815C631.689 407.076 631.393 408.548 631.587 409.996C631.781 411.445 632.454 412.787 633.498 413.809C634.542 414.831 635.898 415.475 637.35 415.638L638.075 421.041C636.717 421.581 635.579 422.559 634.84 423.82C634.102 425.082 633.807 426.553 634.001 428.002C634.195 429.45 634.868 430.792 635.912 431.815C636.956 432.837 638.312 433.481 639.764 433.644V433.776L643.212 459.494L704.706 451.225L701.257 425.507V425.375C702.615 424.835 703.754 423.857 704.492 422.596C705.23 421.334 705.526 419.863 705.332 418.414C705.137 416.966 704.465 415.624 703.421 414.601C702.376 413.579 701.021 412.935 699.569 412.772L698.844 407.369C700.217 406.841 701.369 405.86 702.109 404.588C702.849 403.315 703.132 401.829 702.911 400.373Z" fill="#FF6B3D"/>
<path d="M637.199 415.664L698.817 407.271L699.48 412.33L637.862 420.714L637.199 415.664Z" fill="#0F0F5C"/>
<path d="M634.777 397.863L696.394 389.471L696.96 394.574L635.352 402.966L634.777 397.863Z" fill="#0F0F5C"/>
<path d="M702.778 349.992L695.819 333.189C688.366 328.236 659.922 324.955 655.537 325.795C637.482 329.28 624.14 360.931 631.779 368.882C658.357 358.473 668.366 357.385 684.016 369.696C679.392 393.123 701.796 403.541 701.46 373.631C701.452 372.844 702.778 349.992 702.778 349.992Z" fill="#FFB29C"/>
<path d="M693.035 392.743C691.946 392.73 690.878 392.441 689.931 391.902C685.21 389.311 681.549 381.051 683.618 370.235C668.11 358.128 658.083 359.304 631.833 369.581C631.772 369.598 631.708 369.598 631.647 369.581C631.223 369.475 630.71 368.935 630.109 367.954C629.507 366.972 628.464 364.787 628.685 363.859C630.798 355.13 640.718 347.109 646.368 345.641C651.673 344.261 664.635 344.518 669.109 345.729C669.189 345.75 669.257 345.802 669.298 345.874C669.34 345.945 669.351 346.03 669.33 346.109C669.309 346.189 669.257 346.257 669.186 346.299C669.114 346.34 669.03 346.352 668.95 346.331C664.635 345.163 651.629 344.907 646.519 346.242C641.028 347.675 631.355 355.493 629.295 364.009C629.162 364.549 629.79 366.238 630.648 367.626C630.905 368.14 631.274 368.59 631.727 368.944C658.251 358.579 668.349 357.447 684.157 369.828C684.205 369.863 684.241 369.911 684.261 369.966C684.282 370.021 684.286 370.081 684.272 370.138C682.177 380.75 685.687 388.834 690.241 391.319C691.269 391.947 692.483 392.202 693.678 392.041C694.872 391.88 695.975 391.312 696.801 390.434C696.83 390.406 696.864 390.383 696.902 390.368C696.94 390.353 696.98 390.345 697.021 390.346C697.061 390.346 697.102 390.355 697.139 390.371C697.176 390.387 697.21 390.41 697.239 390.439C697.267 390.468 697.29 390.502 697.305 390.54C697.32 390.578 697.328 390.618 697.327 390.659C697.327 390.699 697.318 390.739 697.302 390.777C697.286 390.814 697.263 390.848 697.234 390.877C696.691 391.448 696.041 391.907 695.32 392.227C694.599 392.548 693.823 392.723 693.035 392.743Z" fill="#0F0F5C"/>
<path d="M923.35 271.026C921.829 268.373 918.372 265.543 915.331 267.541C913.704 268.7 913.412 270.955 913.271 272.945C912.829 278.808 910.3 285.459 909.929 291.8C909.619 297.15 911.476 302.209 911.104 307.152L932.678 308.567C933.262 302.899 925.269 294.621 924.933 288.81C924.57 282.549 926.789 276.42 923.35 271.026Z" fill="#FFB29C"/>
<path d="M915.932 312.184L942.457 315.35C943.927 315.524 945.413 315.204 946.68 314.44C947.948 313.676 948.926 312.512 949.459 311.132L971.723 253.559C972.088 252.61 972.232 251.591 972.144 250.579C972.056 249.567 971.738 248.588 971.214 247.717C970.691 246.846 969.975 246.106 969.123 245.554C968.27 245.002 967.303 244.651 966.294 244.529L939.769 241.372C938.299 241.195 936.812 241.514 935.543 242.278C934.275 243.042 933.297 244.208 932.766 245.591L910.503 303.163C910.138 304.111 909.994 305.13 910.082 306.141C910.17 307.153 910.488 308.132 911.012 309.002C911.535 309.872 912.251 310.611 913.104 311.163C913.956 311.714 914.924 312.063 915.932 312.184Z" fill="#0F0F5C"/>
<path d="M910.504 303.138L932.767 245.565C933.298 244.182 934.275 243.016 935.543 242.252C936.812 241.488 938.299 241.169 939.769 241.347L942.678 241.692C941.681 241.965 940.762 242.468 939.995 243.161C939.227 243.853 938.632 244.716 938.257 245.68L915.994 303.262C915.629 304.209 915.485 305.228 915.573 306.24C915.661 307.252 915.979 308.23 916.503 309.1C917.026 309.97 917.742 310.71 918.595 311.261C919.447 311.812 920.415 312.162 921.423 312.282L945.039 315.095C944.197 315.345 943.313 315.423 942.44 315.325L915.915 312.159C914.908 312.036 913.943 311.684 913.092 311.132C912.241 310.579 911.528 309.84 911.006 308.97C910.484 308.1 910.168 307.123 910.081 306.112C909.994 305.102 910.138 304.084 910.504 303.138Z" fill="#0F0F5C"/>
<path d="M954.42 247.449L964.676 248.669C965.072 248.717 965.455 248.842 965.803 249.038C966.15 249.233 966.456 249.495 966.702 249.809C966.949 250.123 967.131 250.482 967.238 250.866C967.346 251.25 967.377 251.652 967.329 252.048C967.281 252.444 967.156 252.826 966.961 253.174C966.765 253.522 966.503 253.828 966.19 254.074C965.876 254.32 965.517 254.502 965.133 254.61C964.749 254.718 964.347 254.748 963.951 254.701L953.704 253.48C953.308 253.433 952.925 253.309 952.577 253.114C952.23 252.919 951.924 252.657 951.677 252.344C951.43 252.031 951.248 251.672 951.14 251.288C951.031 250.904 951 250.503 951.047 250.106C951.094 249.71 951.219 249.328 951.414 248.98C951.609 248.632 951.87 248.326 952.183 248.079C952.497 247.832 952.855 247.65 953.239 247.541C953.623 247.433 954.024 247.402 954.42 247.449Z" fill="#0F0F5C"/>
<path d="M950.671 265.41C950.671 265.41 970.83 270.858 974.013 278.835C977.47 287.484 958.284 324.38 952.528 325.76C939.265 328.935 931.449 320.674 928.39 319.233C920.972 315.978 924.04 304.128 931.998 304.765C924.659 301.652 927.338 290.004 935.163 290.27C927.78 286.033 932.961 274.068 941.069 276.465C936.728 270.442 943.969 261.925 950.671 265.41Z" fill="#FFB29C"/>
<path d="M965.163 286.14C965.128 286.149 965.091 286.149 965.056 286.14L940.954 276.775C940.878 276.743 940.816 276.683 940.783 276.607C940.75 276.531 940.748 276.445 940.777 276.368C940.792 276.33 940.814 276.296 940.842 276.267C940.87 276.238 940.903 276.215 940.941 276.199C940.978 276.184 941.018 276.176 941.058 276.176C941.098 276.176 941.138 276.184 941.175 276.2L965.277 285.565C965.342 285.594 965.394 285.643 965.427 285.705C965.459 285.767 965.47 285.839 965.456 285.907C965.443 285.976 965.407 286.039 965.353 286.084C965.3 286.13 965.233 286.156 965.163 286.158V286.14Z" fill="#0F0F5C"/>
<path d="M956.338 298.847C956.301 298.857 956.261 298.857 956.223 298.847L932.121 289.482C932.044 289.45 931.983 289.39 931.95 289.314C931.917 289.238 931.915 289.152 931.944 289.075C931.959 289.037 931.981 289.003 932.009 288.974C932.037 288.945 932.07 288.922 932.108 288.906C932.145 288.891 932.185 288.883 932.225 288.883C932.265 288.883 932.305 288.891 932.342 288.907L956.444 298.272C956.52 298.302 956.582 298.36 956.615 298.435C956.648 298.509 956.65 298.594 956.621 298.67C956.598 298.725 956.558 298.772 956.508 298.803C956.457 298.835 956.398 298.85 956.338 298.847Z" fill="#0F0F5C"/>
<path d="M952.289 312.53C952.251 312.538 952.212 312.538 952.174 312.53L928.072 303.164C927.995 303.133 927.934 303.073 927.901 302.997C927.868 302.921 927.866 302.835 927.895 302.757C927.925 302.682 927.983 302.62 928.058 302.587C928.132 302.554 928.217 302.552 928.293 302.581L952.395 311.955C952.471 311.985 952.532 312.043 952.565 312.118C952.599 312.192 952.601 312.277 952.572 312.353C952.549 312.408 952.509 312.454 952.458 312.486C952.408 312.517 952.349 312.533 952.289 312.53Z" fill="#0F0F5C"/>
<path d="M1057.59 744.254H130.105C130.023 744.254 129.944 744.221 129.886 744.163C129.828 744.105 129.795 744.026 129.795 743.944C129.795 743.862 129.828 743.783 129.886 743.725C129.944 743.667 130.023 743.635 130.105 743.635H1057.59C1057.68 743.635 1057.75 743.667 1057.81 743.725C1057.87 743.783 1057.9 743.862 1057.9 743.944C1057.9 744.026 1057.87 744.105 1057.81 744.163C1057.75 744.221 1057.68 744.254 1057.59 744.254Z" fill="#0F0F5C"/>
<path d="M394.603 543.254C391.091 553.623 385.358 563.101 377.803 571.023C367.378 584.31 353.663 594.642 338.016 600.995C337.052 601.384 336.062 601.755 335.063 602.118C332.596 603.002 330.014 603.816 327.326 604.523C292.57 613.677 264.551 599.367 257.142 595.396C248.68 590.868 218.716 573.517 208.902 538.637C198.521 501.777 212.438 451.686 244.905 441.356C248.468 440.253 252.166 439.64 255.895 439.534C257.992 439.454 260.092 439.516 262.181 439.72C272.995 440.737 282.402 445.106 287.716 447.953C289.832 449.416 291.848 450.736 293.764 451.915C296.47 453.515 299.306 454.881 302.243 456.001C304.6 456.89 307.032 457.565 309.511 458.018C313.926 458.766 318.422 458.92 322.879 458.478C329.44 457.947 336.327 456.647 344.656 456.037C350.845 455.586 361.888 456.408 371.119 461.051C394.682 472.875 404.717 512.716 394.603 543.254Z" fill="#FF6B3D"/>
<path d="M313.18 457.69C314.152 471.663 311.845 476.067 306.938 460.785C300.103 436.907 319.095 399.542 326.831 403.212C329.855 404.097 337.786 406.75 337.901 410.004C338.113 416.142 311.42 434.793 313.18 457.69Z" fill="#2B2054"/>
<path d="M296.946 463.031C296.31 463.633 302.437 470.283 311.738 471.406C320.492 472.468 327.203 468.046 326.822 467.489C326.539 467.082 322.543 468.824 316.115 468.594C305.16 468.196 297.592 462.421 296.946 463.031Z" fill="#2B2054"/>
<path d="M325.815 440.321C325.364 435.705 329.643 431.99 331.12 430.717C339.864 423.138 352.764 425.092 354.347 425.357C363.551 426.887 364.444 431.15 375.956 432.6C378.493 432.919 380.642 432.99 381.093 434.201C382.109 436.854 373.851 442.965 366.778 446.379C356.424 451.385 340.253 454.71 330.527 447.308C329.166 446.246 326.159 443.885 325.815 440.321Z" fill="#BAB20F"/>
<path d="M310.342 450.148C310.246 450.147 310.152 450.118 310.073 450.063C309.993 450.008 309.933 449.931 309.898 449.841C309.864 449.751 309.857 449.653 309.88 449.559C309.902 449.466 309.952 449.381 310.023 449.317C317.485 442.569 326.571 437.876 336.391 435.696C346.211 433.516 356.429 433.925 366.044 436.882C366.104 436.901 366.159 436.932 366.207 436.973C366.255 437.013 366.295 437.063 366.324 437.119C366.352 437.175 366.37 437.236 366.375 437.298C366.38 437.361 366.373 437.424 366.354 437.484C366.315 437.602 366.231 437.701 366.12 437.759C366.01 437.817 365.881 437.829 365.761 437.793C356.298 434.867 346.238 434.452 336.566 436.59C326.895 438.728 317.946 443.346 310.598 449.989C310.532 450.068 310.442 450.124 310.342 450.148Z" fill="#14142E"/>
<path d="M346.636 444.381C346.556 444.381 346.477 444.359 346.407 444.319C346.337 444.279 346.279 444.221 346.239 444.151C344.24 440.948 341.555 438.23 338.378 436.191C338.272 436.124 338.197 436.017 338.169 435.895C338.141 435.772 338.162 435.644 338.228 435.537C338.297 435.43 338.405 435.355 338.529 435.326C338.653 435.298 338.783 435.32 338.891 435.387C342.191 437.516 344.975 440.352 347.043 443.691C347.087 443.763 347.111 443.846 347.112 443.93C347.114 444.015 347.093 444.098 347.051 444.172C347.01 444.246 346.95 444.307 346.877 444.35C346.804 444.393 346.721 444.416 346.636 444.416V444.381Z" fill="#14142E"/>
<path d="M343.171 435.519C343.062 435.519 342.956 435.483 342.871 435.415C342.786 435.348 342.726 435.253 342.702 435.147C342.676 435.023 342.699 434.893 342.766 434.786C342.834 434.679 342.941 434.602 343.065 434.572C346.652 433.773 349.895 431.86 352.331 429.107C352.42 429.018 352.541 428.969 352.667 428.969C352.793 428.969 352.913 429.018 353.003 429.107C353.095 429.192 353.152 429.309 353.16 429.434C353.168 429.559 353.128 429.683 353.047 429.779C350.472 432.677 347.051 434.692 343.268 435.536L343.171 435.519Z" fill="#14142E"/>
<path d="M547.961 729.327H376.574V683.525H547.961C549.888 683.525 551.737 682.76 553.1 681.396C554.463 680.033 555.229 678.184 555.229 676.256C555.229 674.328 554.463 672.479 553.1 671.116C551.737 669.752 549.888 668.986 547.961 668.986H339.687V743.866H547.961C549.888 743.866 551.737 743.1 553.1 741.737C554.463 740.374 555.229 738.525 555.229 736.597C555.229 734.669 554.463 732.82 553.1 731.456C551.737 730.093 549.888 729.327 547.961 729.327Z" fill="#0F0F5C"/>
<path d="M339.687 668.986H167.001V743.866H339.687V668.986Z" fill="#0F0F5C"/>
<path d="M549.331 683.525H376.574V729.318H549.331V683.525Z" fill="white"/>
<path d="M478.218 698.418H376.574V699.037H478.218V698.418Z" fill="#B8C0D4"/>
<path d="M539.579 714.389H376.574V715.008H539.579V714.389Z" fill="#B8C0D4"/>
<path d="M278.264 668.986H264.056V743.866H278.264V668.986Z" fill="#FF6B3D"/>
<path d="M318.149 668.826H303.94V743.706H318.149V668.826Z" fill="#FF6B3D"/>
<path d="M174.278 654.279H345.708V608.451H174.278C173.301 608.485 172.328 608.322 171.416 607.972C170.504 607.622 169.672 607.091 168.969 606.412C168.266 605.734 167.707 604.92 167.326 604.021C166.944 603.121 166.747 602.154 166.747 601.177C166.747 600.2 166.944 599.233 167.326 598.333C167.707 597.434 168.266 596.62 168.969 595.941C169.672 595.263 170.504 594.732 171.416 594.382C172.328 594.032 173.301 593.869 174.278 593.903H382.542V668.792H174.278C173.301 668.826 172.328 668.663 171.416 668.313C170.504 667.962 169.672 667.432 168.969 666.753C168.266 666.074 167.707 665.261 167.326 664.362C166.944 663.462 166.747 662.495 166.747 661.518C166.747 660.541 166.944 659.573 167.326 658.674C167.707 657.774 168.266 656.961 168.969 656.282C169.672 655.603 170.504 655.073 171.416 654.723C172.328 654.373 173.301 654.21 174.278 654.244V654.279Z" fill="#FFC508"/>
<path d="M555.229 593.938H382.542V668.818H555.229V593.938Z" fill="#FFC508"/>
<path d="M380.261 623.361V629.304H388.219V633.071H380.261V639.403H389.262V643.268H375.513V619.496H389.262V623.361H380.261Z" fill="white"/>
<path d="M417.228 643.224H412.48L401.72 626.96V643.224H396.99V619.496H401.747L412.507 635.786V619.496H417.255L417.228 643.224Z" fill="white"/>
<path d="M441.799 626.66C441.292 625.7 440.514 624.909 439.562 624.387C438.539 623.847 437.395 623.576 436.238 623.6C434.928 623.575 433.635 623.905 432.498 624.555C431.407 625.196 430.526 626.139 429.96 627.27C429.336 628.536 429.033 629.936 429.076 631.347C429.042 632.782 429.361 634.203 430.004 635.486C430.594 636.621 431.496 637.563 432.604 638.201C433.787 638.858 435.124 639.187 436.476 639.156C438.075 639.214 439.643 638.7 440.897 637.706C442.096 636.667 442.898 635.245 443.169 633.682H435.009V630.056H447.838V634.195C447.516 635.858 446.817 637.425 445.795 638.776C444.736 640.2 443.358 641.357 441.772 642.154C440.067 643.019 438.176 643.456 436.264 643.428C434.103 643.458 431.97 642.928 430.075 641.889C428.26 640.883 426.757 639.396 425.734 637.591C424.695 635.669 424.151 633.519 424.151 631.334C424.151 629.149 424.695 626.999 425.734 625.077C426.752 623.265 428.255 621.774 430.075 620.77C432.108 619.689 434.388 619.158 436.689 619.229C438.991 619.3 441.234 619.972 443.196 621.177C445.155 622.469 446.595 624.41 447.263 626.66H441.799Z" fill="white"/>
<path d="M459.518 639.456H467.325V643.224H454.77V619.531H459.518V639.456Z" fill="white"/>
<path d="M478.492 619.531V643.224H473.744V619.531H478.492Z" fill="white"/>
<path d="M490.287 642.613C489.035 642.104 487.949 641.259 487.148 640.172C486.368 639.071 485.953 637.753 485.963 636.404H491.047C491.06 636.839 491.159 637.267 491.338 637.663C491.517 638.059 491.773 638.416 492.09 638.712C492.798 639.323 493.712 639.64 494.646 639.597C495.598 639.662 496.542 639.376 497.298 638.792C497.608 638.542 497.855 638.223 498.021 637.861C498.187 637.499 498.266 637.103 498.253 636.705C498.273 636.068 498.041 635.448 497.607 634.98C497.154 634.508 496.601 634.143 495.989 633.91C495.122 633.568 494.237 633.272 493.337 633.026C492.058 632.664 490.806 632.215 489.588 631.682C488.608 631.23 487.755 630.543 487.104 629.683C486.379 628.65 486.016 627.406 486.069 626.146C486.041 624.844 486.408 623.564 487.121 622.475C487.856 621.41 488.881 620.578 490.074 620.079C491.452 619.506 492.933 619.223 494.425 619.247C496.551 619.144 498.65 619.768 500.375 621.016C501.134 621.61 501.753 622.362 502.19 623.221C502.627 624.08 502.871 625.023 502.904 625.986H497.678C497.662 625.595 497.561 625.213 497.382 624.865C497.204 624.517 496.952 624.211 496.644 623.97C495.91 623.409 495.002 623.127 494.08 623.174C493.278 623.13 492.489 623.382 491.86 623.882C491.576 624.142 491.353 624.463 491.209 624.822C491.065 625.18 491.004 625.566 491.029 625.951C491.019 626.244 491.069 626.536 491.178 626.808C491.286 627.081 491.449 627.328 491.657 627.534C492.104 627.972 492.633 628.318 493.213 628.551C493.841 628.807 494.716 629.108 495.866 629.435C497.152 629.795 498.411 630.247 499.632 630.789C500.622 631.256 501.484 631.957 502.143 632.831C502.879 633.86 503.25 635.105 503.195 636.369C503.203 637.616 502.863 638.841 502.214 639.906C501.52 641.029 500.52 641.931 499.332 642.506C497.923 643.181 496.375 643.511 494.814 643.47C493.262 643.5 491.72 643.207 490.287 642.613Z" fill="white"/>
<path d="M530.286 619.531V643.224H525.538V633.142H515.388V643.224H510.64V619.531H515.388V629.259H525.538V619.531H530.286Z" fill="white"/>
<path d="M345.655 608.484H172.898V654.277H345.655V608.484Z" fill="white"/>
<path d="M345.664 623.379H244.021V623.998H345.664V623.379Z" fill="#B8C0D4"/>
<path d="M345.664 639.35H182.659V639.969H345.664V639.35Z" fill="#B8C0D4"/>
<path d="M542.391 654.588H360.854C360.813 654.589 360.772 654.582 360.734 654.567C360.696 654.552 360.661 654.529 360.632 654.5C360.603 654.471 360.581 654.436 360.566 654.398C360.551 654.36 360.543 654.319 360.545 654.278V608.45C360.545 608.368 360.577 608.289 360.635 608.231C360.693 608.173 360.772 608.141 360.854 608.141H542.391C542.473 608.141 542.551 608.173 542.609 608.231C542.668 608.289 542.7 608.368 542.7 608.45V654.243C542.705 654.287 542.701 654.331 542.688 654.372C542.674 654.414 542.652 654.453 542.623 654.485C542.594 654.518 542.558 654.544 542.518 654.562C542.478 654.579 542.434 654.588 542.391 654.588ZM361.137 653.969H542.081V608.795H361.163L361.137 653.969Z" fill="#0F0F5C"/>
<path d="M370.014 240.692C372.348 244.009 380.73 242.62 392.516 237.668C405.319 232.291 422.153 222.713 439.633 210.403C473.231 186.754 496.494 161.974 491.631 155.058C491.442 154.805 491.219 154.578 490.968 154.386C491.021 154.289 491.074 154.192 491.118 154.094L451.64 107.727L339.227 186.887C349.342 204.486 359.46 222.079 369.581 239.666C369.668 240.03 369.814 240.376 370.014 240.692Z" fill="#0F0F5C"/>
<path d="M494.071 71.4316L405.893 161.178L290.757 214.594L378.369 123.061L494.071 71.4316Z" fill="#36368A"/>
<path d="M334.709 297.884C332.65 300.345 330.271 302.519 327.636 304.349C322.72 307.763 316.831 309.894 316.177 308.647C314.824 306.065 326.787 301.041 326.787 299.892C326.707 297.575 315.929 305.339 314.656 304.243C312.817 302.651 311.199 297.663 311.898 295.514C313.082 291.844 319.625 290.96 322.72 290.508C325.962 290.066 329.258 290.219 332.446 290.96C335.284 287.793 339.156 287.095 341.287 288.642C341.883 289.07 342.358 289.643 342.668 290.308C342.978 290.972 343.111 291.705 343.056 292.436C342.737 295.125 339.369 297.849 334.709 297.884Z" fill="#FFC508"/>
<path d="M386.159 139.66C384.709 138.51 382.171 139.306 380.491 141.428C378.811 143.551 378.617 146.213 380.067 147.362C380.259 147.511 380.474 147.628 380.704 147.707C378.75 158.347 374.299 168.371 367.715 176.954C360.05 186.876 349.289 193.996 342.313 204.493C339.167 208.997 337.167 214.2 336.487 219.651C336.085 225.008 337.072 230.378 339.351 235.243C343.772 245.316 351.73 254.469 352.817 265.754C353.465 272.292 351.665 278.839 347.764 284.126C343.864 289.413 338.141 293.064 331.703 294.372C330.067 294.726 330.819 297.193 332.455 296.84C338.3 295.557 343.614 292.52 347.686 288.134C351.758 283.749 354.393 278.223 355.24 272.298C355.91 266.712 355.098 261.048 352.888 255.875C350.757 250.64 347.777 245.82 345.054 240.885C342.331 235.95 339.793 230.847 339.112 225.258C338.557 219.791 339.69 214.285 342.357 209.481C348.343 198.073 359.448 190.794 367.636 181.181C375.779 171.558 381.206 159.935 383.356 147.513C384.29 147.08 385.109 146.431 385.743 145.62C387.423 143.462 387.609 140.809 386.159 139.66Z" fill="#FFC508"/>
<path d="M663.344 126.333C660.111 122.169 655.819 118.949 650.916 117.013C646.014 115.076 640.681 114.492 635.475 115.323C635.944 115.208 634.432 115.199 634.9 115.084C636.154 112.725 636.471 109.98 635.79 107.397C635.109 104.814 633.478 102.583 631.225 101.149C628.971 99.7154 626.26 99.1848 623.632 99.6629C621.004 100.141 618.654 101.593 617.049 103.728C616.085 88.9417 602.505 76.0564 587.686 75.9325C572.867 75.8087 559.03 88.3669 557.766 103.136C555.095 101.577 551.978 100.959 548.914 101.381C545.85 101.802 543.016 103.239 540.864 105.461C538.713 107.684 537.368 110.563 537.045 113.64C536.723 116.716 537.44 119.812 539.084 122.433C532.709 118.895 523.46 123.636 522.567 130.87H689.957C681.425 128.535 672.194 126.218 663.344 126.333Z" fill="#E6E8ED"/>
<path d="M264.719 132.577C257.539 130.428 251.925 122.849 250.342 113.05L249.458 107.744L248.574 113.05C246.991 122.779 241.386 130.428 234.197 132.577L230.272 133.754L234.197 134.93C241.386 137.079 246.991 144.658 248.574 154.448L249.458 159.754L250.342 154.448C251.925 144.72 257.539 137.079 264.719 134.93L268.644 133.754L264.719 132.577Z" fill="#FFC508"/>
<path d="M987.903 457.099C980.715 454.95 975.109 447.327 973.527 437.572L972.642 432.266L971.758 437.572C970.176 447.3 964.561 454.95 957.382 457.099L953.456 458.266L957.382 459.442C964.561 461.592 970.176 469.171 971.758 478.969L972.642 484.276L973.527 478.969C975.109 469.241 980.715 461.592 987.903 459.442L991.82 458.266L987.903 457.099Z" fill="#FFC508"/>
<path d="M223.269 376.32C226.585 375.321 229.184 371.801 229.909 367.291L230.307 364.832L230.714 367.291C231.439 371.801 234.038 375.321 237.354 376.32L239.166 376.86L237.354 377.399C234.038 378.398 231.439 381.918 230.714 386.42L230.307 388.887L229.909 386.42C229.184 381.918 226.585 378.398 223.269 377.399L221.457 376.86L223.269 376.32Z" fill="#617DFF"/>
<path d="M743.918 114.897C747.243 113.907 749.833 110.387 750.567 105.877L750.965 103.418L751.363 105.877C752.097 110.387 754.687 113.907 758.012 114.897L759.78 115.445L758.012 115.985C754.687 116.975 752.097 120.495 751.363 125.006L750.965 127.464L750.567 125.006C749.833 120.495 747.243 116.975 743.918 115.985L742.15 115.445L743.918 114.897Z" fill="#FF6B3D"/>
<path d="M852.104 103.021H996.32C998.076 103.024 999.759 103.722 1001 104.964C1002.24 106.206 1002.94 107.889 1002.94 109.645V170.667C1002.94 172.425 1002.25 174.111 1001 175.354C999.762 176.598 998.078 177.298 996.32 177.3H896.41L870.831 202.408V177.3H852.104C851.234 177.3 850.372 177.129 849.568 176.795C848.764 176.462 848.034 175.973 847.418 175.357C846.803 174.741 846.316 174.01 845.984 173.205C845.651 172.4 845.481 171.538 845.482 170.667V109.663C845.48 108.792 845.649 107.929 845.981 107.123C846.313 106.317 846.8 105.585 847.415 104.968C848.031 104.351 848.761 103.861 849.566 103.527C850.371 103.193 851.233 103.021 852.104 103.021Z" fill="#FFC508"/>
<path d="M877 160.398C875.125 160.398 873.977 159.25 873.977 157.258V128.922C873.977 126.93 875.125 125.781 877 125.781C878.898 125.781 880.023 126.93 880.023 128.922V140.242H896.477V128.922C896.477 126.93 897.602 125.781 899.477 125.781C901.375 125.781 902.5 126.93 902.5 128.922V157.258C902.5 159.25 901.375 160.398 899.477 160.398C897.602 160.398 896.477 159.25 896.477 157.258V145.328H880.023V157.258C880.023 159.25 878.898 160.398 877 160.398ZM918.93 160.492C911.336 160.492 906.859 155.734 906.859 147.672C906.859 139.75 911.43 134.641 918.602 134.641C925.398 134.641 930.039 139.469 930.039 146.219C930.039 147.953 929.055 148.984 927.32 148.984H912.672V149.172C912.672 153.32 915.086 155.992 918.883 155.992C921.508 155.992 923.219 155.078 925.094 152.688C925.703 152.008 926.242 151.75 927.062 151.75C928.375 151.75 929.406 152.594 929.406 154C929.406 154.445 929.266 154.961 929.008 155.477C927.367 158.641 923.664 160.492 918.93 160.492ZM912.719 145.141H924.32C924.203 141.531 921.906 139.164 918.625 139.164C915.344 139.164 912.953 141.578 912.719 145.141ZM936.906 160.469C935.195 160.469 933.977 159.367 933.977 157.398V128.781C933.977 126.812 935.195 125.711 936.906 125.711C938.617 125.711 939.812 126.812 939.812 128.781V157.398C939.812 159.367 938.617 160.469 936.906 160.469ZM947.875 160.469C946.164 160.469 944.945 159.367 944.945 157.398V128.781C944.945 126.812 946.164 125.711 947.875 125.711C949.586 125.711 950.781 126.812 950.781 128.781V157.398C950.781 159.367 949.586 160.469 947.875 160.469ZM966.742 160.492C959.453 160.492 954.719 155.641 954.719 147.578C954.719 139.562 959.5 134.641 966.742 134.641C973.984 134.641 978.766 139.539 978.766 147.578C978.766 155.641 974.031 160.492 966.742 160.492ZM966.742 155.875C970.445 155.875 972.836 152.875 972.836 147.578C972.836 142.305 970.445 139.281 966.742 139.281C963.062 139.281 960.648 142.305 960.648 147.578C960.648 152.875 963.039 155.875 966.742 155.875Z" fill="white"/>
<path d="M389.289 536.958L379.563 530.767C389.059 514.849 425.54 513.487 434.814 531.05L424.744 536.657C419.271 526.832 394.505 528.353 389.289 536.958Z" fill="#617DFF"/>
<path d="M521.224 527.971C521.224 527.971 312.561 574.843 306.832 577.54C301.102 580.238 299.175 587.268 292.154 587.666C285.134 588.064 276.929 585.119 279.661 578.823C282.393 572.526 520.773 518.287 520.773 518.287L521.224 527.971Z" fill="#3F5DE3"/>
<path d="M292.968 527.972C292.968 527.972 501.631 574.844 507.36 577.541C513.089 580.238 515.017 587.269 522.046 587.667C529.075 588.065 537.262 585.12 534.53 578.824C531.798 572.527 293.463 518.297 293.463 518.297L292.968 527.972Z" fill="#3F5DE3"/>
<path d="M335.098 506.004C321.185 506.559 307.404 508.938 294.109 513.079C289.219 514.671 286.266 519.207 285.895 524.337C283.605 555.617 297.893 594.565 318.273 594.751H359.263C377.114 594.751 390.014 582.308 391.641 551.761C393.78 511.673 384.771 511.292 374.762 508.913C364.355 506.472 355.85 504.978 335.098 506.004Z" fill="#617DFF"/>
<path d="M318.299 587.658C300.271 585.58 290.996 545.562 293.03 524.867C293.171 522.931 294.117 520.605 296.336 519.88C317.512 512.875 351.977 510.151 373.144 515.865L374.39 516.156C378.979 517.218 380.5 517.677 381.888 520.269C384.496 525.124 385.425 535.595 384.541 551.399C383.259 575.445 374.762 587.658 359.28 587.658H318.299Z" fill="#EDEFFF"/>
<path d="M384.806 539.468L314.559 586.835C309.882 584.766 306.062 579.76 303.277 574.905L382.427 521.533C383.931 525.221 384.726 531.217 384.806 539.468Z" fill="white"/>
<path d="M373.162 515.9L299.042 565.876C298.061 563.312 297.168 560.623 296.39 557.829L361.818 513.689C365.595 514.232 369.343 514.964 373.047 515.883L373.162 515.9Z" fill="white"/>
<path d="M439.43 508.95C429.421 511.329 420.411 511.709 422.551 551.798C424.178 582.344 437.078 594.787 454.929 594.787H495.919C516.299 594.601 530.587 555.654 528.297 524.373C527.926 519.244 524.973 514.707 520.092 513.115C500.066 505.695 457.325 503.122 439.43 508.95Z" fill="#617DFF"/>
<path d="M495.937 587.658C513.965 585.58 523.24 545.562 521.206 524.867C521.065 522.931 520.127 520.605 517.899 519.88C496.679 512.875 462.259 510.151 441.092 515.865L439.845 516.156C435.256 517.218 433.736 517.677 432.348 520.269C429.739 525.124 428.811 535.595 429.695 551.399C430.977 575.445 439.483 587.658 454.956 587.658H495.937Z" fill="#EDEFFF"/>
<path d="M520.773 542.537L445.451 585.756C440.405 583.481 436.559 579.177 433.913 572.845L520.773 522.975C520.992 523.59 521.126 524.233 521.171 524.885C521.584 530.769 521.451 536.678 520.773 542.537Z" fill="white"/>
<path d="M509.597 517.535L430.968 562.638C430.417 559.608 430.034 556.549 429.819 553.476L496.9 514.988C501.321 515.669 505.539 516.518 509.597 517.535Z" fill="white"/>
<path d="M625.184 777.57H497.316C497.271 777.577 497.226 777.575 497.182 777.563C497.139 777.551 497.098 777.53 497.064 777.501C497.03 777.472 497.002 777.436 496.983 777.395C496.964 777.354 496.954 777.31 496.954 777.265C496.954 777.22 496.964 777.175 496.983 777.134C497.002 777.093 497.03 777.057 497.064 777.028C497.098 776.999 497.139 776.978 497.182 776.966C497.226 776.954 497.271 776.952 497.316 776.959H625.184C625.228 776.952 625.273 776.954 625.317 776.966C625.36 776.978 625.401 776.999 625.435 777.028C625.47 777.057 625.497 777.093 625.516 777.134C625.535 777.175 625.545 777.22 625.545 777.265C625.545 777.31 625.535 777.354 625.516 777.395C625.497 777.436 625.47 777.472 625.435 777.501C625.401 777.53 625.36 777.551 625.317 777.563C625.273 777.575 625.228 777.577 625.184 777.57Z" fill="#0F0F5C"/>
<path d="M738.896 777.57H702.858C702.813 777.577 702.768 777.575 702.724 777.563C702.681 777.551 702.64 777.53 702.606 777.501C702.572 777.472 702.544 777.436 702.525 777.395C702.506 777.354 702.496 777.31 702.496 777.265C702.496 777.22 702.506 777.175 702.525 777.134C702.544 777.093 702.572 777.057 702.606 777.028C702.64 776.999 702.681 776.978 702.724 776.966C702.768 776.954 702.813 776.952 702.858 776.959H738.896C738.941 776.952 738.986 776.954 739.03 776.966C739.073 776.978 739.113 776.999 739.148 777.028C739.182 777.057 739.21 777.093 739.229 777.134C739.248 777.175 739.258 777.22 739.258 777.265C739.258 777.31 739.248 777.354 739.229 777.395C739.21 777.436 739.182 777.472 739.148 777.501C739.113 777.53 739.073 777.551 739.03 777.563C738.986 777.575 738.941 777.577 738.896 777.57Z" fill="#0F0F5C"/>
</svg>
