<svg width="1206" height="849" viewBox="0 0 1206 849" fill="none" xmlns="http://www.w3.org/2000/svg">
<path d="M1123.06 648.341C1185.32 803.661 890.896 740.51 622.653 758.506C362.599 765.373 105.741 762.392 62.9277 692.244C31.9663 634.787 57.6454 596.459 91.0371 559.601C209.234 432.294 70.7735 419.217 56.9351 308.903C52.2077 261.204 79.3406 203.418 105.486 156.007C222.939 -38.2969 426.586 57.9062 577.476 113.426C797.757 192.636 887.878 24.8646 1068.82 166.789C1310.61 371.369 1000.49 493.597 1123.06 648.341Z" fill="#50EC84" fill-opacity="0.15"/>
<path d="M295.833 182.669C293.581 184.384 291.35 186.153 289.139 187.975C289.139 187.975 291.217 188.364 293.755 188.753C291.429 195.289 288.83 201.523 286.222 207.458L285.921 208.13C283.967 212.613 282.004 216.867 280.147 220.82C280.077 220.953 280.032 221.059 279.971 221.201C275.285 231.176 271.279 239.26 269.361 243.009C268.857 243.982 268.476 244.663 268.308 245.017C268.261 245.111 268.208 245.203 268.149 245.291C268.149 245.291 268.061 245.22 267.911 245.07C267.76 244.92 267.159 244.363 266.505 243.699C260.616 238.198 238.53 212.746 238.3 176.213C238.3 176.053 238.3 175.894 238.3 175.7C238.278 169.864 238.852 164.041 240.015 158.322C240.059 158.101 240.112 157.888 240.157 157.676C240.201 157.464 240.272 157.03 240.342 156.73C242.787 146.1 247.169 136.012 253.269 126.971C253.259 128.252 253.634 129.506 254.345 130.572C255.056 131.638 256.07 132.466 257.256 132.949C255.789 130.428 254.719 125.697 258.141 120.347C261.89 115.71 266.045 111.416 270.554 107.514C270.66 107.399 270.802 107.302 270.917 107.187C286.372 94.0099 300.872 89.4996 303.003 88.7214L303.321 88.6152C303.329 88.7242 303.329 88.8335 303.321 88.9425C303.419 90.4636 303.657 97.512 303.702 107.231C303.693 107.387 303.693 107.544 303.702 107.7C303.702 113.307 303.702 119.754 303.569 126.635C303.56 126.871 303.503 127.102 303.401 127.315C300.961 132.206 297.353 134.815 292.075 135.01C293.764 135.993 295.665 136.557 297.618 136.652C299.571 136.747 301.518 136.372 303.295 135.558C303.198 138.211 303.056 140.979 302.853 143.738C302.853 143.889 302.853 144.012 302.853 144.172C302.319 152.867 301.137 161.511 299.316 170.031C298.317 174.364 297.123 178.592 295.833 182.669Z" fill="#7C820B"/>
<path d="M268.273 245.37C268.219 245.369 268.166 245.354 268.119 245.326C268.073 245.298 268.034 245.258 268.008 245.211C254.224 220.891 263.295 177.724 269.926 154.12C277.283 127.969 286.973 110.954 302.278 88.6765C302.301 88.6426 302.331 88.6136 302.365 88.5912C302.399 88.5688 302.438 88.5535 302.478 88.5461C302.518 88.5387 302.56 88.5394 302.6 88.5481C302.64 88.5568 302.678 88.5734 302.711 88.5969C302.745 88.6191 302.774 88.6479 302.796 88.6814C302.818 88.715 302.833 88.7527 302.841 88.7923C302.848 88.8319 302.848 88.8726 302.839 88.9119C302.83 88.9513 302.814 88.9885 302.791 89.0214C287.521 111.219 277.857 128.199 270.519 154.262C263.914 177.733 254.878 220.714 268.547 244.848C268.567 244.883 268.581 244.921 268.586 244.961C268.591 245.001 268.588 245.042 268.577 245.08C268.567 245.119 268.548 245.155 268.523 245.187C268.498 245.218 268.467 245.245 268.432 245.264C268.39 245.313 268.335 245.35 268.273 245.37Z" fill="#0F0F5C"/>
<path d="M1065.21 639.517C1061.25 640.608 1057.3 641.787 1053.35 643.055C1053.35 643.055 1055.93 644.7 1059.12 646.592C1052.48 654.1 1045.64 661.069 1038.95 667.631L1038.18 668.365C1033.15 673.327 1028.23 677.979 1023.61 682.285C1023.45 682.436 1023.33 682.551 1023.16 682.692C1011.48 693.597 1001.76 702.281 997.16 706.279C995.958 707.313 995.109 708.047 994.658 708.392C994.547 708.498 994.429 708.595 994.304 708.684C994.304 708.684 994.225 708.543 994.101 708.251C993.88 707.773 993.473 706.906 992.952 705.659C988.018 695.1 972.059 649.113 991.422 599.915C991.51 599.702 991.581 599.481 991.687 599.234C994.801 591.389 998.709 583.882 1003.35 576.833L1003.88 576.045C1004.1 575.647 1004.38 575.241 1004.64 574.869C1013.64 561.923 1024.96 550.747 1038.01 541.9C1036.45 546.127 1037.67 549.329 1040.15 552.079C1039.52 547.905 1040.64 540.971 1048.11 535.647C1055.65 531.408 1063.57 527.857 1071.75 525.035C1071.96 524.937 1072.2 524.876 1072.41 524.787C1100.24 515.422 1122.15 517.128 1125.41 517.288H1125.89L1125.74 517.73C1125.05 519.826 1121.57 529.404 1116.41 542.492C1116.31 542.698 1116.23 542.911 1116.17 543.129C1113.17 550.664 1109.69 559.295 1105.8 568.458C1105.66 568.77 1105.46 569.05 1105.21 569.28C1099.3 574.533 1093.05 576.09 1085.88 573.507C1087.61 575.739 1089.86 577.52 1092.43 578.699C1095 579.878 1097.81 580.421 1100.63 580.282C1099.05 583.819 1097.39 587.427 1095.64 591.027C1095.55 591.23 1095.45 591.381 1095.36 591.593C1089.95 602.951 1083.7 613.889 1076.66 624.315C1073 629.674 1069.14 634.733 1065.21 639.517Z" fill="#BAB20F"/>
<path d="M994.685 708.702C994.611 708.703 994.539 708.676 994.484 708.627C994.429 708.578 994.393 708.51 994.384 708.437C988.982 668.428 1024.36 615.427 1045.92 587.392C1069.84 556.271 1091.94 538.672 1124.48 517.067C1124.51 517.044 1124.55 517.028 1124.59 517.02C1124.63 517.012 1124.68 517.012 1124.72 517.02C1124.76 517.028 1124.79 517.044 1124.83 517.068C1124.86 517.091 1124.89 517.121 1124.91 517.155C1124.96 517.223 1124.97 517.306 1124.96 517.386C1124.94 517.465 1124.89 517.535 1124.83 517.58C1092.38 539.15 1070.27 556.731 1046.38 587.773C1024.88 615.728 989.601 668.569 994.968 708.357C994.978 708.438 994.956 708.52 994.906 708.584C994.856 708.649 994.783 708.691 994.703 708.702H994.685Z" fill="#0F0F5C"/>
<path d="M188.937 235.517C192.887 236.608 196.839 237.787 200.794 239.055C200.794 239.055 198.203 240.7 195.011 242.592C201.652 250.101 208.495 257.07 215.188 263.632L215.957 264.366C220.988 269.327 225.913 273.979 230.537 278.286L230.97 278.692C242.633 289.561 252.349 298.246 256.983 302.243C258.176 303.278 259.034 304.012 259.476 304.357C259.706 304.56 259.83 304.649 259.83 304.649C259.83 304.649 259.909 304.507 260.042 304.216C260.263 303.738 260.661 302.871 261.191 301.624C266.125 291.065 282.084 245.077 262.712 195.88C262.632 195.667 262.553 195.446 262.447 195.199C259.34 187.352 255.435 179.845 250.793 172.797C250.617 172.532 250.44 172.267 250.254 172.01C250.033 171.612 249.75 171.206 249.502 170.834C240.496 157.893 229.188 146.717 216.143 137.865C217.699 142.092 216.47 145.293 214.003 148.044C214.631 143.869 213.508 136.936 206.046 131.612C198.502 127.373 190.592 123.821 182.412 121C182.2 120.902 181.961 120.84 181.749 120.752C153.915 111.386 132.015 113.093 128.699 113.252H128.222C128.222 113.252 128.266 113.412 128.372 113.695C129.07 115.791 132.545 125.368 137.709 138.457C137.804 138.663 137.884 138.876 137.947 139.094C140.945 146.629 144.428 155.26 148.319 164.422C148.453 164.735 148.652 165.015 148.902 165.245C154.808 170.498 161.068 172.055 168.239 169.472C166.504 171.703 164.257 173.484 161.688 174.663C159.12 175.842 156.305 176.385 153.482 176.246C155.056 179.784 156.727 183.392 158.478 186.992C158.566 187.195 158.663 187.345 158.752 187.558C164.158 198.919 170.412 209.858 177.461 220.28C181.139 225.71 185.003 230.733 188.937 235.517Z" fill="#BAB20F"/>
<path d="M259.475 304.703H259.431C259.392 304.698 259.353 304.685 259.319 304.664C259.284 304.644 259.254 304.617 259.231 304.585C259.207 304.553 259.189 304.516 259.18 304.477C259.17 304.438 259.169 304.398 259.175 304.358C264.533 264.562 229.255 211.729 207.752 183.774C183.879 152.732 161.775 135.133 129.318 113.581C129.283 113.56 129.254 113.531 129.231 113.498C129.208 113.465 129.191 113.427 129.183 113.388C129.175 113.348 129.175 113.307 129.183 113.267C129.191 113.228 129.206 113.19 129.229 113.157C129.251 113.122 129.279 113.093 129.312 113.07C129.345 113.046 129.383 113.03 129.423 113.022C129.462 113.014 129.503 113.014 129.543 113.021C129.583 113.029 129.62 113.045 129.654 113.068C162.156 134.673 184.313 152.281 208.247 183.394C229.812 211.428 265.178 264.429 259.785 304.438C259.774 304.512 259.737 304.58 259.68 304.629C259.623 304.678 259.55 304.704 259.475 304.703Z" fill="#0F0F5C"/>
<path d="M954.853 198.586H241.05C234.638 198.586 229.44 203.785 229.44 210.198V705.66C229.44 712.073 234.638 717.272 241.05 717.272H954.853C961.264 717.272 966.462 712.073 966.462 705.66V210.198C966.462 203.785 961.264 198.586 954.853 198.586Z" fill="#008E00"/>
<path d="M597.951 691.837C492.63 674.3 383.824 673.698 271.138 691.837V198.878C363.577 158.798 501.233 160.354 597.943 198.878L597.951 691.837Z" fill="white"/>
<path d="M597.951 691.837C703.264 674.3 812.078 673.698 924.756 691.837V198.878C832.317 158.798 694.661 160.354 597.951 198.878V691.837Z" fill="white"/>
<path d="M597.951 692.147H597.898C491.339 674.407 381.411 674.407 271.191 692.147C271.147 692.155 271.103 692.154 271.06 692.143C271.017 692.132 270.978 692.113 270.943 692.085C270.909 692.055 270.883 692.019 270.864 691.977C270.846 691.936 270.837 691.892 270.837 691.847V198.878C270.836 198.818 270.853 198.759 270.886 198.708C270.919 198.658 270.967 198.618 271.023 198.595C361.756 159.249 499.305 159.249 598.066 198.595C598.123 198.62 598.171 198.661 598.206 198.713C598.24 198.765 598.259 198.825 598.261 198.887V691.838C598.257 691.928 598.219 692.013 598.155 692.077C598.096 692.121 598.025 692.145 597.951 692.147ZM271.438 199.082V691.475C381.49 673.788 491.233 673.788 597.633 691.475V199.091C499.093 159.913 361.994 159.904 271.438 199.082Z" fill="#0F0F5C"/>
<path d="M597.952 692.148C597.878 692.146 597.807 692.121 597.748 692.077C597.715 692.047 597.688 692.01 597.67 691.969C597.651 691.928 597.642 691.883 597.642 691.838V198.879C597.643 198.816 597.663 198.756 597.697 198.704C597.731 198.653 597.78 198.612 597.837 198.587C696.598 159.25 834.138 159.25 924.88 198.587C924.936 198.61 924.983 198.649 925.017 198.7C925.05 198.75 925.067 198.809 925.066 198.87V691.838C925.066 691.883 925.057 691.928 925.038 691.969C925.02 692.01 924.993 692.047 924.96 692.077C924.925 692.104 924.885 692.124 924.843 692.134C924.8 692.145 924.755 692.147 924.712 692.139C814.483 674.398 704.555 674.398 598.005 692.139L597.952 692.148ZM759.983 678.21C815.067 678.253 870.06 682.689 924.438 691.475V199.082C833.9 159.904 696.792 159.913 598.252 199.082V691.475C651.707 682.616 705.8 678.179 759.983 678.21Z" fill="#0F0F5C"/>
<path d="M573.407 265.48H573.266C463.629 228.469 372.41 244.715 297.672 265.48C297.613 265.495 297.553 265.499 297.493 265.492C297.434 265.484 297.376 265.465 297.324 265.435C297.272 265.405 297.226 265.365 297.189 265.317C297.153 265.269 297.126 265.215 297.11 265.157C297.094 265.099 297.09 265.038 297.098 264.979C297.106 264.919 297.125 264.861 297.155 264.809C297.185 264.757 297.225 264.711 297.273 264.675C297.32 264.638 297.375 264.611 297.433 264.595C347.282 250.746 389.448 243.768 430.137 242.645C478.881 241.31 525.795 248.491 573.548 264.604C573.666 264.623 573.771 264.688 573.84 264.784C573.91 264.88 573.939 265 573.92 265.117C573.901 265.234 573.836 265.339 573.74 265.409C573.644 265.479 573.524 265.507 573.407 265.489V265.48Z" fill="#C9C9C9"/>
<path d="M573.407 351.981C573.36 351.991 573.312 351.991 573.266 351.981C463.629 314.97 372.41 331.216 297.672 351.981C297.558 352.009 297.438 351.993 297.336 351.935C297.234 351.878 297.158 351.784 297.123 351.672C297.093 351.558 297.109 351.437 297.167 351.335C297.224 351.232 297.32 351.157 297.433 351.124C347.282 337.274 389.448 330.297 430.137 329.182C478.89 327.838 525.795 335.019 573.548 351.132C573.666 351.151 573.771 351.216 573.84 351.312C573.91 351.408 573.939 351.528 573.92 351.645C573.901 351.763 573.837 351.868 573.74 351.937C573.644 352.007 573.524 352.036 573.407 352.017V351.981Z" fill="#C9C9C9"/>
<path d="M573.407 438.526C573.36 438.536 573.312 438.536 573.265 438.526C463.629 401.524 372.41 417.761 297.671 438.526C297.558 438.556 297.437 438.541 297.334 438.483C297.232 438.425 297.156 438.33 297.123 438.217C297.093 438.104 297.109 437.984 297.167 437.883C297.225 437.782 297.32 437.708 297.433 437.677C347.282 423.819 389.448 416.85 430.137 415.727C478.881 414.383 525.795 421.564 573.548 437.677C573.659 437.717 573.749 437.799 573.8 437.905C573.851 438.01 573.859 438.132 573.822 438.243C573.791 438.328 573.734 438.401 573.66 438.451C573.585 438.502 573.497 438.528 573.407 438.526Z" fill="#C9C9C9"/>
<path d="M573.407 525.044H573.266C463.629 488.033 372.41 504.279 297.672 525.044C297.554 525.076 297.429 525.06 297.324 524.999C297.219 524.939 297.142 524.839 297.11 524.721C297.078 524.604 297.095 524.479 297.155 524.374C297.216 524.268 297.316 524.191 297.433 524.16C347.282 510.31 389.448 503.333 430.137 502.21C478.881 500.874 525.795 508.055 573.548 524.169C573.666 524.187 573.771 524.252 573.84 524.348C573.91 524.444 573.939 524.564 573.92 524.682C573.901 524.799 573.836 524.904 573.74 524.973C573.644 525.043 573.524 525.072 573.407 525.053V525.044Z" fill="#C9C9C9"/>
<path d="M573.407 611.571C573.36 611.581 573.312 611.581 573.266 611.571C463.629 574.56 372.41 590.806 297.672 611.571C297.558 611.599 297.438 611.583 297.336 611.525C297.234 611.467 297.158 611.373 297.123 611.262C297.093 611.148 297.109 611.027 297.167 610.925C297.224 610.822 297.32 610.746 297.433 610.713C347.282 596.864 389.448 589.886 430.137 588.772C478.89 587.428 525.795 594.609 573.549 610.722C573.658 610.76 573.749 610.84 573.8 610.945C573.851 611.049 573.859 611.169 573.823 611.279C573.792 611.365 573.735 611.439 573.661 611.491C573.587 611.543 573.498 611.571 573.407 611.571Z" fill="#C9C9C9"/>
<path d="M622.496 265.481C622.438 265.49 622.379 265.488 622.321 265.474C622.264 265.461 622.21 265.436 622.163 265.401C622.115 265.367 622.075 265.323 622.044 265.273C622.013 265.223 621.992 265.167 621.983 265.109C621.974 265.051 621.976 264.992 621.99 264.935C622.003 264.877 622.028 264.824 622.063 264.776C622.097 264.728 622.141 264.688 622.191 264.657C622.241 264.626 622.296 264.606 622.355 264.596C670.099 248.483 717.022 241.302 765.766 242.637C806.438 243.76 848.621 250.738 898.47 264.588C898.528 264.603 898.583 264.63 898.63 264.667C898.678 264.704 898.718 264.749 898.748 264.801C898.778 264.854 898.797 264.911 898.805 264.971C898.813 265.03 898.809 265.091 898.793 265.149C898.777 265.207 898.75 265.262 898.714 265.309C898.677 265.357 898.631 265.397 898.579 265.427C898.527 265.457 898.469 265.476 898.41 265.484C898.35 265.492 898.289 265.488 898.231 265.472C823.493 244.707 732.292 228.461 622.637 265.472L622.496 265.481Z" fill="#C9C9C9"/>
<path d="M622.496 351.981C622.438 351.991 622.379 351.988 622.321 351.975C622.264 351.961 622.21 351.936 622.163 351.902C622.115 351.867 622.075 351.824 622.044 351.774C622.013 351.724 621.992 351.668 621.983 351.61C621.974 351.552 621.976 351.493 621.99 351.435C622.003 351.378 622.028 351.324 622.063 351.277C622.097 351.229 622.141 351.189 622.191 351.158C622.241 351.127 622.296 351.106 622.355 351.097C670.099 334.984 716.96 327.794 765.766 329.147C806.438 330.261 848.621 337.239 898.47 351.088C898.583 351.121 898.679 351.197 898.736 351.299C898.794 351.402 898.81 351.523 898.78 351.637C898.745 351.748 898.669 351.842 898.567 351.9C898.465 351.957 898.345 351.974 898.231 351.946C823.493 331.172 732.292 314.926 622.637 351.946C622.593 351.967 622.545 351.979 622.496 351.981Z" fill="#C9C9C9"/>
<path d="M622.496 438.526C622.403 438.527 622.313 438.498 622.239 438.444C622.164 438.39 622.108 438.314 622.08 438.226C622.043 438.114 622.051 437.993 622.102 437.887C622.153 437.781 622.244 437.7 622.354 437.66C670.099 421.546 717.022 414.365 765.766 415.71C806.437 416.833 848.621 423.802 898.47 437.66C898.582 437.691 898.677 437.765 898.735 437.866C898.793 437.967 898.809 438.087 898.779 438.199C898.746 438.312 898.671 438.408 898.568 438.465C898.466 438.523 898.345 438.539 898.231 438.509C823.493 417.735 732.291 401.498 622.637 438.509C622.591 438.523 622.543 438.529 622.496 438.526Z" fill="#C9C9C9"/>
<path d="M622.496 525.045C622.379 525.064 622.259 525.035 622.163 524.966C622.067 524.896 622.002 524.791 621.983 524.674C621.964 524.556 621.993 524.437 622.063 524.34C622.132 524.244 622.237 524.18 622.355 524.161C670.099 508.048 717.022 500.866 765.766 502.202C806.438 503.325 848.621 510.303 898.47 524.152C898.587 524.184 898.687 524.261 898.748 524.366C898.808 524.471 898.825 524.596 898.793 524.714C898.761 524.831 898.684 524.931 898.579 524.991C898.474 525.052 898.349 525.068 898.231 525.036C823.493 504.271 732.292 488.025 622.637 525.036L622.496 525.045Z" fill="#C9C9C9"/>
<path d="M622.496 611.571C622.403 611.57 622.313 611.539 622.238 611.484C622.163 611.428 622.108 611.351 622.08 611.262C622.044 611.152 622.052 611.031 622.103 610.927C622.154 610.823 622.245 610.743 622.354 610.705C670.099 594.591 716.96 587.41 765.766 588.754C806.437 589.869 848.621 596.846 898.47 610.696C898.528 610.711 898.582 610.738 898.63 610.775C898.678 610.812 898.718 610.858 898.748 610.91C898.778 610.962 898.797 611.019 898.805 611.079C898.812 611.139 898.808 611.199 898.793 611.257C898.777 611.315 898.75 611.37 898.713 611.418C898.677 611.465 898.631 611.505 898.579 611.535C898.527 611.565 898.469 611.584 898.409 611.592C898.35 611.6 898.289 611.596 898.231 611.58C823.493 590.806 732.291 574.56 622.637 611.58C622.59 611.586 622.542 611.583 622.496 611.571Z" fill="#C9C9C9"/>
<path d="M538.872 699.169H341.827V646.522H538.872C541.042 646.452 543.099 645.54 544.61 643.979C546.12 642.419 546.964 640.332 546.964 638.161C546.964 635.989 546.12 633.902 544.61 632.342C543.099 630.781 541.042 629.869 538.872 629.799H299.422V715.893H538.872C541.042 715.822 543.099 714.91 544.61 713.35C546.12 711.789 546.964 709.703 546.964 707.531C546.964 705.359 546.12 703.273 544.61 701.712C543.099 700.152 541.042 699.24 538.872 699.169Z" fill="#0F0F5C"/>
<path d="M299.431 629.799H100.892V715.893H299.431V629.799Z" fill="#0F0F5C"/>
<path d="M540.445 646.521H341.827V699.168H540.445V646.521Z" fill="white"/>
<path d="M458.687 663.68H341.827V664.299H458.687V663.68Z" fill="#B8C0D4"/>
<path d="M529.234 682.047H341.827V682.666H529.234V682.047Z" fill="#B8C0D4"/>
<path d="M146.214 629.799H129.875V715.893H146.214V629.799Z" fill="#FFC508"/>
<path d="M310.722 629.613H294.382V715.707H310.722V629.613Z" fill="#FFC508"/>
<path d="M109.247 612.871H306.292V560.242H109.247C107.031 560.242 104.906 559.362 103.339 557.794C101.772 556.227 100.892 554.101 100.892 551.885C100.892 549.668 101.772 547.542 103.339 545.975C104.906 544.408 107.031 543.527 109.247 543.527H348.697V629.612H109.247C107.031 629.612 104.906 628.732 103.339 627.165C101.772 625.597 100.892 623.472 100.892 621.255C100.892 619.039 101.772 616.913 103.339 615.346C104.906 613.778 107.031 612.898 109.247 612.898V612.871Z" fill="#FF6B3D"/>
<path d="M547.236 543.527H348.697V629.621H547.236V543.527Z" fill="#FF6B3D"/>
<path d="M306.292 560.242H107.673V612.889H306.292V560.242Z" fill="white"/>
<path d="M306.292 577.408H189.432V578.027H306.292V577.408Z" fill="#B8C0D4"/>
<path d="M306.292 595.768H118.885V596.387H306.292V595.768Z" fill="#B8C0D4"/>
<path d="M532.461 613.208H323.799C323.758 613.208 323.718 613.2 323.68 613.185C323.643 613.169 323.609 613.146 323.58 613.118C323.551 613.089 323.528 613.055 323.513 613.017C323.497 612.98 323.489 612.939 323.489 612.899V560.243C323.489 560.161 323.522 560.082 323.58 560.024C323.638 559.966 323.717 559.934 323.799 559.934H532.461C532.544 559.934 532.622 559.966 532.68 560.024C532.738 560.082 532.771 560.161 532.771 560.243V612.872C532.775 612.915 532.769 612.958 532.755 612.999C532.742 613.04 532.719 613.077 532.69 613.108C532.661 613.14 532.626 613.165 532.586 613.183C532.547 613.2 532.504 613.208 532.461 613.208ZM324.064 612.589H532.152V560.553H324.064V612.589Z" fill="#0F0F5C"/>
<path d="M370.712 518.509H422.348C427.944 518.509 432.471 511.523 432.471 502.909V410.05C432.471 401.436 427.944 394.449 422.348 394.449H381.517C376.61 394.449 372.41 399.862 371.544 407.299L360.739 500.15C359.625 509.719 364.4 518.509 370.712 518.509Z" fill="#FFC124"/>
<path d="M388.484 522.259H465.53C471.118 522.259 475.645 516.952 475.645 510.496V401.011C475.645 395.422 472.267 390.549 467.546 389.514C440.921 383.353 413.245 383.328 386.61 389.443C381.835 390.531 378.369 395.351 378.369 401.002V510.496C378.369 516.988 382.896 522.259 388.484 522.259Z" fill="#0F0F5C"/>
<path d="M409.713 474.723C409.713 474.723 395.982 520.463 406.521 542.616C414.328 559.039 485.061 550.045 485.061 550.045L470.738 474.086L409.713 474.723Z" fill="#617DFF"/>
<path d="M425.018 540.875V551.213C425.018 551.213 410.376 549.321 407.458 544.191C407.458 544.191 418.209 550.824 425.018 540.875Z" fill="#0F0F5C"/>
<path d="M551.25 638.52C551.25 638.52 550.153 659.32 554.742 663.45C563.761 671.569 602.629 668.235 607.111 704.936L502.594 705.732L504.115 637.414L551.25 638.52Z" fill="#FF6B3D"/>
<path d="M607.111 704.918L607.156 710.136C607.156 713.205 605.122 716.777 602.054 716.795L508.394 716.459C507.665 716.466 506.941 716.329 506.265 716.056C505.588 715.782 504.973 715.378 504.453 714.866C503.933 714.354 503.519 713.745 503.235 713.073C502.951 712.401 502.802 711.679 502.798 710.949L502.753 705.732L607.111 704.918Z" fill="#FFCA0A"/>
<path d="M525.954 705.661C525.886 705.66 525.82 705.637 525.766 705.596C525.712 705.555 525.672 705.497 525.653 705.431C524.644 701.914 522.657 698.755 519.924 696.322C515.418 692.183 509.567 689.815 503.452 689.654C503.371 689.652 503.295 689.618 503.239 689.56C503.183 689.503 503.151 689.425 503.151 689.345C503.154 689.263 503.187 689.186 503.244 689.128C503.302 689.071 503.379 689.037 503.461 689.035C509.723 689.201 515.715 691.626 520.331 695.863C523.155 698.374 525.206 701.638 526.246 705.272C526.256 705.312 526.259 705.353 526.254 705.394C526.248 705.434 526.235 705.473 526.214 705.509C526.194 705.544 526.167 705.575 526.134 705.6C526.101 705.624 526.064 705.642 526.025 705.653L525.954 705.661Z" fill="#0F0F5C"/>
<path d="M579.366 688.928C579.314 688.94 579.26 688.94 579.207 688.928C579.137 688.886 579.086 688.817 579.066 688.738C579.046 688.658 579.059 688.574 579.101 688.504C581.833 683.606 586.222 679.843 591.479 677.891C591.556 677.862 591.64 677.865 591.715 677.898C591.789 677.931 591.848 677.992 591.877 678.068C591.893 678.106 591.9 678.147 591.899 678.188C591.898 678.229 591.888 678.27 591.871 678.307C591.853 678.345 591.829 678.378 591.798 678.405C591.767 678.433 591.731 678.453 591.692 678.466C586.577 680.391 582.312 684.07 579.658 688.849C579.62 688.886 579.574 688.912 579.523 688.926C579.472 688.94 579.418 688.941 579.366 688.928Z" fill="#0F0F5C"/>
<path d="M567.006 681.27C566.95 681.268 566.895 681.253 566.846 681.226C566.811 681.206 566.779 681.179 566.755 681.146C566.73 681.113 566.712 681.076 566.702 681.036C566.692 680.997 566.69 680.955 566.697 680.915C566.703 680.874 566.718 680.836 566.74 680.801C569.393 676.317 575.432 671.701 580.127 671.957C580.167 671.96 580.207 671.97 580.244 671.988C580.28 672.005 580.313 672.03 580.34 672.061C580.368 672.091 580.388 672.126 580.402 672.165C580.415 672.203 580.421 672.244 580.418 672.285C580.412 672.366 580.374 672.442 580.313 672.496C580.252 672.55 580.173 672.579 580.091 672.577C575.67 672.311 569.8 676.875 567.271 681.111C567.245 681.159 567.207 681.199 567.16 681.227C567.114 681.255 567.06 681.27 567.006 681.27Z" fill="#0F0F5C"/>
<path d="M565.653 684.94C567.177 684.94 568.412 683.705 568.412 682.181C568.412 680.657 567.177 679.422 565.653 679.422C564.13 679.422 562.895 680.657 562.895 682.181C562.895 683.705 564.13 684.94 565.653 684.94Z" fill="#FFCA0A"/>
<path d="M579.393 691.776C580.916 691.776 582.151 690.541 582.151 689.017C582.151 687.493 580.916 686.258 579.393 686.258C577.869 686.258 576.634 687.493 576.634 689.017C576.634 690.541 577.869 691.776 579.393 691.776Z" fill="#FFCA0A"/>
<path d="M475.68 638.934C475.68 638.934 474.557 659.725 479.146 663.864C488.156 671.983 502.904 687.459 501.648 705.633L426.954 706.111L428.546 637.793L475.68 638.934Z" fill="#FF6B3D"/>
<path d="M501.604 705.635V710.861C501.609 711.591 501.47 712.314 501.195 712.989C500.92 713.665 500.515 714.28 500.003 714.799C499.491 715.318 498.881 715.731 498.209 716.014C497.537 716.298 496.816 716.446 496.087 716.451L432.692 716.84C431.963 716.846 431.24 716.708 430.564 716.434C429.888 716.16 429.273 715.756 428.753 715.244C428.234 714.733 427.82 714.124 427.535 713.452C427.251 712.781 427.101 712.059 427.096 711.33V706.112L501.604 705.635Z" fill="#FFCA0A"/>
<path d="M440.747 706.13C440.674 706.131 440.604 706.105 440.549 706.058C440.493 706.011 440.457 705.945 440.446 705.873C439.963 702.625 438.832 699.506 437.122 696.702C434.593 692.617 431.189 690.185 427.785 690.034C427.744 690.033 427.704 690.024 427.667 690.007C427.63 689.991 427.597 689.967 427.569 689.937C427.541 689.908 427.519 689.873 427.505 689.835C427.49 689.797 427.483 689.757 427.485 689.716C427.484 689.674 427.493 689.633 427.51 689.594C427.526 689.556 427.551 689.522 427.582 689.493C427.613 689.465 427.649 689.443 427.688 689.43C427.728 689.417 427.77 689.412 427.812 689.415C431.428 689.574 435.009 692.113 437.644 696.375C439.397 699.25 440.557 702.446 441.056 705.776C441.069 705.857 441.049 705.94 441.001 706.006C440.953 706.072 440.881 706.117 440.8 706.13H440.747Z" fill="#0F0F5C"/>
<path d="M489.261 674.627C489.205 674.625 489.151 674.61 489.102 674.583C484.142 671.62 472.303 672.646 465.963 674.494C465.885 674.514 465.802 674.503 465.731 674.464C465.661 674.424 465.608 674.359 465.583 674.282C465.571 674.243 465.567 674.201 465.571 674.16C465.575 674.119 465.587 674.079 465.607 674.043C465.627 674.007 465.654 673.975 465.686 673.949C465.718 673.923 465.755 673.904 465.795 673.893C472.205 672.027 484.31 671.001 489.42 674.043C489.489 674.087 489.538 674.156 489.558 674.235C489.577 674.314 489.566 674.397 489.526 674.468C489.499 674.515 489.461 674.554 489.414 674.582C489.368 674.61 489.315 674.625 489.261 674.627Z" fill="#0F0F5C"/>
<path d="M464.027 677.811C465.726 677.811 467.104 676.576 467.104 675.052C467.104 673.528 465.726 672.293 464.027 672.293C462.328 672.293 460.95 673.528 460.95 675.052C460.95 676.576 462.328 677.811 464.027 677.811Z" fill="#FFCA0A"/>
<path d="M467.997 689.555C467.935 689.554 467.874 689.535 467.823 689.5C467.771 689.466 467.73 689.417 467.705 689.361C467.677 689.284 467.679 689.2 467.71 689.125C467.741 689.049 467.799 688.989 467.873 688.954C476.211 685.487 490.127 683.975 497.554 687.247C497.592 687.262 497.627 687.285 497.655 687.314C497.684 687.343 497.707 687.378 497.721 687.416C497.736 687.454 497.743 687.495 497.742 687.536C497.741 687.577 497.731 687.617 497.713 687.654C497.679 687.727 497.617 687.785 497.542 687.814C497.466 687.844 497.382 687.843 497.307 687.813C490.136 684.656 476.166 686.186 468.129 689.529C468.088 689.548 468.042 689.558 467.997 689.555Z" fill="#0F0F5C"/>
<path d="M468.138 692.005C469.745 692.005 471.047 690.769 471.047 689.246C471.047 687.722 469.745 686.486 468.138 686.486C466.532 686.486 465.229 687.722 465.229 689.246C465.229 690.769 466.532 692.005 468.138 692.005Z" fill="#FFCA0A"/>
<path d="M515.936 562.667L448.687 542.733C408.015 530.679 420.252 476.263 460.933 488.317L531.851 508.658C567.138 519.129 551.223 573.12 515.936 562.667Z" fill="#617DFF"/>
<path d="M462.232 514.008L461.994 545.748L500.419 558.129C500.437 528.715 462.232 514.008 462.232 514.008Z" fill="#0F0F5C"/>
<path d="M497.617 546.844C496.582 498.477 554.743 501.794 556.856 538.69L560.941 665.155L501.18 665.748L497.617 546.844Z" fill="#617DFF"/>
<path d="M428.572 548.613C428.634 501.537 492.082 498.734 492.002 556.006L490.631 664.935L425.495 665.244L428.572 548.613Z" fill="#617DFF"/>
<path d="M439.191 648.248C439.11 648.245 439.034 648.212 438.978 648.154C438.921 648.096 438.89 648.019 438.89 647.938L440.199 533.633C424.204 532.598 410.774 526.841 410.19 520.756C410.185 520.675 410.212 520.594 410.264 520.531C410.317 520.469 410.392 520.429 410.473 520.42C410.514 520.415 410.555 520.419 410.595 520.431C410.634 520.442 410.671 520.462 410.702 520.489C410.734 520.515 410.76 520.548 410.778 520.585C410.796 520.622 410.807 520.662 410.809 520.703C411.295 525.788 422.798 531.944 440.535 533.084C440.614 533.089 440.688 533.123 440.742 533.181C440.796 533.239 440.826 533.315 440.826 533.394L439.509 647.982C439.498 648.058 439.46 648.127 439.401 648.176C439.342 648.225 439.267 648.251 439.191 648.248Z" fill="#0F0F5C"/>
<path d="M482.011 650.174L429.712 649.82C429.671 649.821 429.631 649.814 429.593 649.799C429.554 649.784 429.52 649.761 429.491 649.732C429.462 649.703 429.439 649.669 429.424 649.631C429.409 649.592 429.402 649.552 429.403 649.511C429.403 649.429 429.436 649.35 429.494 649.292C429.552 649.234 429.63 649.201 429.712 649.201L482.011 649.555C482.093 649.555 482.172 649.588 482.23 649.646C482.288 649.704 482.32 649.782 482.32 649.864C482.32 649.947 482.288 650.025 482.23 650.083C482.172 650.141 482.093 650.174 482.011 650.174Z" fill="#0F0F5C"/>
<path d="M524.955 453.145C511.79 437.155 493.7 419.538 483.399 407.237C467.166 387.842 450.04 411.022 456.229 427.25C463.709 446.786 482.002 457.398 496.069 473.901C518.023 499.671 544.645 477.067 524.955 453.145Z" fill="#FFB19E"/>
<path d="M486.22 406.025C500.932 419.167 514.911 437.624 514.911 437.624L483.47 465.88C483.47 465.88 462.621 442.081 455.106 430.938C447.59 419.795 460.49 383.049 486.22 406.025Z" fill="#FF6B3D"/>
<path d="M482.931 493.861C478.74 507.568 404.063 499.759 402.038 493.693C402.038 493.693 400.774 430.637 398.767 403.699C398.157 395.642 426.273 389.549 436.574 390.433L448.828 391.026C448.828 391.026 469.359 395.81 475.566 399.48C488.244 406.944 482.931 493.861 482.931 493.861Z" fill="#FF6B3D"/>
<path d="M417.591 433.025L407.998 452.906L401.808 483.47L399.704 438.438L417.591 433.025Z" fill="#0F0F5C"/>
<path d="M552.797 416.814C552.797 416.814 525.68 435.66 512.585 447.325C490.799 467.356 507.086 496.948 528.014 481.338C547.89 466.516 573.292 436.722 573.292 436.722L552.797 416.814Z" fill="#FFB19E"/>
<path d="M408.396 441.506C419.209 422.598 399.651 406.219 387.432 412.569C372.72 420.21 359.289 437.942 347.256 449.872C327.176 470.319 350.014 495.815 369.501 478.986C381.393 468.939 401.269 453.967 408.396 441.506Z" fill="#FFB19E"/>
<path d="M393.374 402.392C383.243 410.213 373.862 418.962 365.354 428.525L394.382 459.248C394.382 459.248 415.973 438.801 424.364 428.295C432.754 417.789 420.862 381.609 393.374 402.392Z" fill="#FF6B3D"/>
<path d="M461.003 340.617C458.068 334.984 449.191 328.882 441.03 329.58C432.595 330.314 424.912 338.044 423.506 344.915C422.1 351.787 418.811 367.069 427.688 374.356C429.677 376.001 434.973 377.478 436.68 380.052C439.545 384.376 435.292 389.329 435.292 389.329C436.176 401.002 456.635 401.586 451.675 391.911C450.385 390.085 449.411 388.055 448.793 385.906C448.006 382.979 448.899 380.6 451.649 379.335C456.07 377.248 459.403 376.815 464.575 370.421C472.038 361.179 464.319 346.976 461.003 340.617Z" fill="#FFB19E"/>
<path d="M464.337 323.68C463.95 322.053 463.138 320.558 461.985 319.347C460.917 318.277 459.558 317.545 458.077 317.242C457.062 317.035 456.012 317.093 455.026 317.41C455.362 309.044 437.644 309.398 436.83 316.632C433.506 314.474 426.733 314.244 426.804 319.374L426.477 319.038C426.025 318.591 425.527 318.194 424.991 317.852C423.924 317.159 422.716 316.712 421.455 316.544C420.124 316.425 418.784 316.632 417.551 317.149C416.319 317.665 415.231 318.474 414.381 319.506C414.32 319.577 414.434 319.701 414.505 319.63C415.8 318.307 417.524 317.49 419.368 317.328C421.212 317.166 423.053 317.669 424.558 318.746H424.611C418.97 316.685 411.446 320.055 412.958 327.253C414.222 330.066 412.958 330.455 410.924 332.657C402.967 341.165 417.335 348.24 418.21 357.508C423.647 352.104 427.723 348.063 425.195 340.377C430.486 342.306 436.194 342.8 441.739 341.807C447.283 340.815 452.465 338.372 456.759 334.726L461.693 341.695C461.048 336.849 462.33 333.842 463.09 329.049C463.426 325.414 462.851 321.823 460.88 319.604C461.075 319.751 461.261 319.91 461.437 320.081C463.682 322.221 464.655 325.865 464.337 328.925C464.332 328.938 464.331 328.952 464.333 328.966C464.335 328.98 464.341 328.993 464.349 329.004C464.357 329.016 464.368 329.025 464.381 329.031C464.393 329.038 464.407 329.041 464.421 329.041C464.435 329.041 464.448 329.038 464.461 329.031C464.473 329.025 464.484 329.016 464.492 329.004C464.501 328.993 464.506 328.98 464.508 328.966C464.51 328.952 464.509 328.938 464.505 328.925C464.776 327.182 464.719 325.403 464.337 323.68Z" fill="#0F0F5C"/>
<path d="M424.629 356.756C424.629 356.756 419.094 349.478 414.257 354.81C409.421 360.143 418.908 375.859 425.398 366.679L424.629 356.756Z" fill="#FFB19E"/>
<path d="M439.863 379.396C442.002 381.687 448.634 383.818 448.634 383.818C448.634 383.818 449.147 380.811 451.065 379.626C449.352 380.398 447.475 380.732 445.601 380.599C443.399 380.502 441.03 380.095 439.863 379.396Z" fill="#0F0F5C"/>
<path d="M335.982 463.333C330.067 444.425 321.323 401.365 321.323 401.365L351.897 391.885C351.897 391.885 367.494 427.348 372.401 454.622C378.263 487.07 346.433 495.127 335.982 463.333Z" fill="#FFB19E"/>
<path d="M445.663 406.813C441.972 406.81 438.375 405.653 435.375 403.502C432.375 401.351 430.123 398.316 428.935 394.821C428.909 394.743 428.916 394.659 428.952 394.586C428.989 394.514 429.052 394.458 429.129 394.432C429.168 394.418 429.208 394.412 429.249 394.415C429.289 394.417 429.329 394.428 429.365 394.446C429.402 394.464 429.434 394.489 429.46 394.52C429.487 394.551 429.506 394.587 429.518 394.626C430.686 398.066 432.921 401.042 435.898 403.122C438.876 405.201 442.44 406.274 446.07 406.185C449.162 406.17 452.161 405.124 454.593 403.214C455.781 402.255 456.739 401.043 457.397 399.665C458.054 398.288 458.396 396.781 458.395 395.254C458.394 395.214 458.401 395.173 458.415 395.135C458.43 395.097 458.452 395.062 458.479 395.033C458.507 395.003 458.541 394.979 458.578 394.963C458.615 394.946 458.655 394.937 458.696 394.936C458.776 394.936 458.854 394.967 458.911 395.023C458.969 395.08 459.003 395.156 459.005 395.237C459.015 396.855 458.657 398.454 457.958 399.914C457.26 401.374 456.239 402.657 454.973 403.665C452.443 405.671 449.317 406.779 446.088 406.813H445.663Z" fill="#0F0F5C"/>
<path d="M288.034 383.714C288.605 383.024 289.368 382.52 290.226 382.265C291.084 382.01 291.998 382.015 292.853 382.281L292.597 382.069C290.492 380.362 289.458 375.993 291.173 373.888C292.411 372.367 295.081 373.066 296.867 373.499L295.983 372.8C295.05 371.956 294.476 370.786 294.379 369.53C294.283 368.275 294.671 367.031 295.464 366.054C296.258 365.077 297.396 364.441 298.643 364.278C299.891 364.115 301.154 364.437 302.172 365.177L303.94 366.592C303.173 365.65 302.782 364.457 302.843 363.243C302.903 362.029 303.411 360.881 304.268 360.019C305.125 359.158 306.27 358.644 307.483 358.578C308.696 358.511 309.891 358.896 310.837 359.658C319.316 367.273 328.617 377.939 335.169 378.301L332.366 369.758C329.891 362.17 336.628 355.502 340.536 361.631C340.536 361.631 346.955 373.357 349.935 381.414C350.925 384.067 353.56 395.025 353.56 395.025L335.196 419.451C312.879 414.49 298.777 403.736 289.767 391.691C287.672 390.01 286.319 385.818 288.034 383.714Z" fill="#FFB19E"/>
<path d="M326.628 385.588C326.579 385.601 326.527 385.601 326.477 385.588C319.404 381.759 311.774 375.4 303.843 366.689C303.809 366.661 303.781 366.626 303.762 366.586C303.742 366.546 303.732 366.503 303.731 366.459C303.729 366.414 303.738 366.37 303.755 366.33C303.772 366.289 303.798 366.253 303.83 366.223C303.863 366.193 303.901 366.17 303.943 366.156C303.985 366.142 304.03 366.138 304.074 366.142C304.117 366.147 304.16 366.161 304.198 366.184C304.236 366.207 304.269 366.237 304.294 366.273C312.181 374.931 319.74 381.246 326.769 385.04C326.83 385.072 326.879 385.123 326.908 385.186C326.936 385.249 326.943 385.32 326.926 385.387C326.91 385.454 326.872 385.514 326.818 385.556C326.764 385.599 326.697 385.623 326.628 385.623V385.588Z" fill="#0F0F5C"/>
<path d="M319.82 391.902C319.776 391.914 319.73 391.914 319.687 391.902C312.481 388.293 304.656 382.174 296.46 373.728C296.403 373.67 296.372 373.592 296.372 373.511C296.372 373.43 296.403 373.352 296.46 373.294C296.519 373.237 296.599 373.205 296.681 373.205C296.764 373.205 296.843 373.237 296.902 373.294C305.054 381.705 312.817 387.772 319.952 391.344C320.019 391.374 320.073 391.425 320.105 391.49C320.137 391.555 320.146 391.629 320.129 391.7C320.112 391.77 320.071 391.833 320.013 391.876C319.955 391.92 319.883 391.941 319.811 391.937L319.82 391.902Z" fill="#0F0F5C"/>
<path d="M316.381 401.046C316.334 401.059 316.285 401.059 316.239 401.046C309.033 397.438 301.208 391.318 293.021 382.872C292.964 382.813 292.932 382.734 292.933 382.652C292.933 382.57 292.967 382.492 293.026 382.434C293.084 382.377 293.163 382.345 293.245 382.346C293.327 382.347 293.406 382.38 293.463 382.439C301.615 390.849 309.378 396.916 316.513 400.489C316.551 400.506 316.584 400.53 316.612 400.561C316.64 400.591 316.661 400.627 316.674 400.666C316.687 400.705 316.693 400.746 316.689 400.787C316.686 400.828 316.674 400.868 316.655 400.904C316.626 400.95 316.586 400.988 316.537 401.013C316.489 401.038 316.435 401.049 316.381 401.046Z" fill="#0F0F5C"/>
<path d="M338.096 397.367C338.034 397.369 337.973 397.351 337.923 397.316C337.872 397.281 337.833 397.231 337.813 397.173C335.76 391.975 334.942 386.371 335.426 380.803C335.434 380.722 335.474 380.647 335.537 380.594C335.599 380.542 335.68 380.515 335.762 380.52C335.802 380.523 335.842 380.535 335.878 380.554C335.914 380.572 335.947 380.598 335.973 380.629C335.999 380.66 336.019 380.697 336.031 380.736C336.044 380.775 336.048 380.816 336.044 380.856C335.572 386.328 336.374 391.834 338.387 396.943C338.417 397.02 338.415 397.106 338.382 397.182C338.349 397.258 338.287 397.318 338.211 397.35L338.096 397.367Z" fill="#0F0F5C"/>
<path d="M467.44 393.369C488.227 402.956 485.627 458.689 485.486 465.888L483.479 482.435C480.455 461.723 480.137 403.955 457.661 391.893L467.44 393.369Z" fill="#0F0F5C"/>
<path d="M409.722 385.809C409.722 385.809 421.287 400.525 419.739 435.44C418.192 470.355 402.056 491.306 402.056 491.306L399.713 478.04C399.713 478.04 411.287 452.561 410.226 424.022C409.439 402.647 404.036 390.911 400.5 391.619L409.722 385.809Z" fill="#0F0F5C"/>
<path d="M530.154 415.011L468.978 381.131L418.439 462.856L480.331 497.594L530.154 415.011Z" fill="#FFC508"/>
<path d="M530.154 415.011L543.116 412.854L490.729 497.727L480.331 497.594L530.154 415.011Z" fill="#0F0F5C"/>
<path d="M543.116 412.853L586.068 373.277L534.513 463.864L490.729 497.727L543.116 412.853Z" fill="#FFC508"/>
<path d="M468.979 381.166L530.154 415.046L536.573 413.976C536.573 413.976 536.396 388.887 468.979 381.166Z" fill="#F0F2F7"/>
<path d="M536.573 413.941C536.573 413.941 531.047 401.86 544.53 386.826C558.014 371.792 571.17 370.447 571.17 370.447L574.787 372.605C574.787 372.605 565.061 374.489 557.572 385.712C557.572 385.712 570.375 370.854 586.051 373.277L543.107 412.853L536.573 413.941Z" fill="#F0F2F7"/>
<path d="M565.069 412.419C565.069 412.419 582.894 420.803 584.769 428.471C586.811 436.802 564.318 466.34 558.845 466.561C546.237 467.074 540.127 458.336 537.501 456.514C531.109 452.305 535.485 442.285 542.727 444.239C536.387 440.18 540.375 430.266 547.536 431.858C541.347 426.791 547.643 417.018 554.778 420.582C551.586 414.462 559.366 408.13 565.069 412.419Z" fill="#FFB19E"/>
<path d="M574.928 433.035C574.876 433.049 574.821 433.049 574.769 433.035L554.619 420.901C554.584 420.88 554.554 420.852 554.53 420.818C554.506 420.785 554.489 420.748 554.479 420.708C554.47 420.668 554.468 420.627 554.475 420.586C554.481 420.546 554.496 420.507 554.517 420.472C554.539 420.437 554.567 420.407 554.6 420.383C554.633 420.359 554.671 420.342 554.71 420.333C554.75 420.323 554.792 420.322 554.832 420.328C554.872 420.335 554.911 420.349 554.946 420.371L575.087 432.46C575.157 432.502 575.208 432.571 575.228 432.65C575.248 432.73 575.235 432.814 575.193 432.885C575.165 432.93 575.126 432.967 575.08 432.994C575.033 433.02 574.981 433.034 574.928 433.035Z" fill="#0F0F5C"/>
<path d="M567.978 445.399C567.919 445.401 567.861 445.385 567.811 445.354L547.369 432.133C547.301 432.086 547.253 432.015 547.237 431.934C547.22 431.853 547.236 431.769 547.28 431.7C547.302 431.665 547.33 431.636 547.363 431.612C547.396 431.589 547.434 431.573 547.474 431.565C547.513 431.557 547.554 431.556 547.594 431.564C547.633 431.572 547.671 431.588 547.705 431.611L568.146 444.841C568.215 444.885 568.264 444.954 568.282 445.034C568.301 445.113 568.287 445.197 568.244 445.266C568.215 445.309 568.175 445.344 568.129 445.367C568.082 445.39 568.03 445.401 567.978 445.399Z" fill="#0F0F5C"/>
<path d="M561.444 456.117C561.389 456.13 561.332 456.13 561.276 456.117L542.576 444.549C542.507 444.506 542.459 444.437 542.44 444.357C542.422 444.278 542.436 444.194 542.479 444.125C542.51 444.05 542.57 443.991 542.644 443.96C542.718 443.929 542.802 443.927 542.877 443.957L561.577 455.524C561.647 455.567 561.698 455.635 561.718 455.715C561.738 455.794 561.725 455.879 561.683 455.949C561.66 455.994 561.626 456.033 561.584 456.062C561.543 456.091 561.495 456.11 561.444 456.117Z" fill="#0F0F5C"/>
<path d="M430.102 350.637C430.037 350.638 429.975 350.616 429.925 350.575C429.891 350.553 429.862 350.524 429.84 350.49C429.818 350.457 429.803 350.419 429.795 350.38C429.788 350.34 429.788 350.299 429.797 350.26C429.806 350.221 429.822 350.183 429.845 350.15C430.529 349.162 431.494 348.402 432.615 347.969C433.736 347.535 434.961 347.448 436.132 347.718C437.236 348.022 438.288 348.49 439.253 349.107C439.288 349.127 439.32 349.154 439.345 349.186C439.37 349.219 439.388 349.256 439.399 349.295C439.409 349.335 439.412 349.376 439.407 349.416C439.402 349.457 439.388 349.496 439.368 349.531C439.348 349.567 439.322 349.598 439.291 349.623C439.259 349.648 439.223 349.666 439.184 349.677C439.145 349.687 439.105 349.69 439.065 349.685C439.025 349.68 438.987 349.667 438.952 349.646C438.036 349.065 437.042 348.619 435.999 348.32C434.947 348.075 433.846 348.153 432.838 348.542C431.83 348.932 430.963 349.615 430.349 350.504C430.321 350.544 430.284 350.577 430.241 350.6C430.198 350.623 430.15 350.636 430.102 350.637Z" fill="#0F0F5C"/>
<path d="M447.281 363.478C447.213 363.478 447.148 363.456 447.094 363.415C447.04 363.374 447.001 363.317 446.983 363.251C446.965 363.186 446.969 363.117 446.994 363.054C447.019 362.991 447.064 362.938 447.122 362.904C447.824 362.522 448.448 362.012 448.961 361.4C449.188 361.12 449.334 360.784 449.384 360.427C449.434 360.07 449.385 359.706 449.244 359.375C448.981 359.012 448.643 358.711 448.254 358.49C448.139 358.411 448.024 358.331 447.918 358.243C446.981 357.52 446.261 356.554 445.837 355.45C445.413 354.345 445.301 353.145 445.513 351.982C445.52 351.941 445.536 351.903 445.558 351.869C445.58 351.835 445.609 351.806 445.643 351.783C445.676 351.76 445.714 351.743 445.754 351.735C445.794 351.727 445.835 351.726 445.875 351.734C445.915 351.741 445.953 351.757 445.988 351.779C446.022 351.801 446.051 351.83 446.074 351.864C446.097 351.898 446.113 351.935 446.122 351.975C446.13 352.015 446.13 352.056 446.123 352.096C445.93 353.142 446.029 354.221 446.408 355.214C446.787 356.208 447.431 357.078 448.271 357.73L448.598 357.969C449.071 358.245 449.471 358.63 449.766 359.092C449.965 359.52 450.041 359.995 449.985 360.464C449.929 360.933 449.743 361.377 449.447 361.745C448.885 362.421 448.202 362.985 447.431 363.408C447.389 363.445 447.337 363.47 447.281 363.478Z" fill="#0F0F5C"/>
<path d="M429.447 357.189C429.447 357.189 433.488 363.725 441.994 355.987C441.994 355.987 438.457 350.291 433.744 351.264C429.032 352.237 429.447 357.189 429.447 357.189Z" fill="white"/>
<path d="M429.447 357.5C429.371 357.5 429.297 357.473 429.24 357.422C429.183 357.371 429.147 357.301 429.138 357.226C429.138 357.173 428.722 351.981 433.683 350.964C438.643 349.947 442.109 355.59 442.259 355.828C442.293 355.897 442.3 355.976 442.279 356.05C442.258 356.124 442.211 356.187 442.146 356.228C442.081 356.268 442.003 356.284 441.928 356.27C441.852 356.257 441.784 356.216 441.737 356.156C441.737 356.094 438.271 350.655 433.78 351.575C429.288 352.494 429.713 356.978 429.73 357.164C429.734 357.204 429.73 357.245 429.717 357.284C429.705 357.323 429.685 357.359 429.659 357.391C429.633 357.422 429.6 357.448 429.564 357.466C429.528 357.485 429.488 357.496 429.447 357.5Z" fill="#0F0F5C"/>
<path d="M437.41 358.933C439.477 358.508 440.826 356.577 440.424 354.621C440.022 352.664 438.021 351.422 435.955 351.846C433.888 352.271 432.539 354.202 432.941 356.158C433.343 358.115 435.344 359.357 437.41 358.933Z" fill="#0F0F5C"/>
<path d="M433.276 355.352C433.71 355.352 434.063 354.999 434.063 354.564C434.063 354.13 433.71 353.777 433.276 353.777C432.841 353.777 432.489 354.13 432.489 354.564C432.489 354.999 432.841 355.352 433.276 355.352Z" fill="white"/>
<path d="M429.041 357.553C428.491 357.549 427.954 357.396 427.484 357.111C427.451 357.089 427.422 357.06 427.4 357.026C427.377 356.993 427.362 356.955 427.355 356.915C427.347 356.876 427.348 356.835 427.357 356.796C427.365 356.756 427.382 356.719 427.405 356.686C427.428 356.652 427.457 356.623 427.492 356.601C427.526 356.579 427.565 356.563 427.605 356.556C427.645 356.548 427.687 356.549 427.727 356.558C427.767 356.567 427.805 356.583 427.838 356.607C428.3 356.876 428.839 356.978 429.368 356.898C429.407 356.886 429.447 356.882 429.488 356.887C429.528 356.891 429.568 356.903 429.603 356.923C429.639 356.943 429.67 356.97 429.695 357.002C429.72 357.034 429.738 357.071 429.748 357.111C429.767 357.189 429.756 357.272 429.717 357.343C429.678 357.413 429.613 357.466 429.536 357.491C429.374 357.535 429.208 357.556 429.041 357.553Z" fill="#0F0F5C"/>
<path d="M450.756 347.834C450.678 347.833 450.603 347.804 450.544 347.754C450.487 347.696 450.455 347.618 450.455 347.537C450.455 347.456 450.487 347.379 450.544 347.321C451.272 346.434 452.127 345.659 453.081 345.021C454.111 344.405 455.301 344.109 456.499 344.172C457.698 344.235 458.85 344.654 459.81 345.375C459.873 345.426 459.915 345.499 459.927 345.579C459.938 345.66 459.919 345.742 459.871 345.808C459.848 345.842 459.818 345.87 459.783 345.892C459.748 345.913 459.709 345.927 459.668 345.933C459.628 345.939 459.586 345.936 459.547 345.925C459.507 345.915 459.47 345.896 459.438 345.87C458.579 345.219 457.544 344.84 456.468 344.783C455.391 344.726 454.322 344.994 453.399 345.552C452.497 346.158 451.69 346.894 451.003 347.736C450.972 347.77 450.933 347.795 450.89 347.812C450.847 347.829 450.802 347.836 450.756 347.834Z" fill="#0F0F5C"/>
<path d="M462.515 351.609C462.515 351.609 460.702 359.073 450.216 354.368C450.216 354.368 451.772 347.868 456.591 347.293C461.41 346.718 462.515 351.609 462.515 351.609Z" fill="white"/>
<path d="M450.216 354.679H450.146C450.106 354.671 450.068 354.655 450.034 354.631C450.001 354.608 449.972 354.578 449.951 354.543C449.929 354.508 449.915 354.47 449.909 354.429C449.903 354.389 449.905 354.348 449.916 354.308C449.978 354.034 451.578 347.587 456.556 347.021C461.534 346.455 462.807 351.505 462.816 351.558C462.825 351.634 462.805 351.71 462.76 351.773C462.716 351.835 462.65 351.879 462.575 351.895C462.5 351.912 462.422 351.9 462.355 351.862C462.289 351.824 462.239 351.763 462.215 351.69C462.215 351.505 461.1 347.127 456.627 347.631C452.153 348.135 450.535 354.388 450.517 354.45C450.499 354.516 450.46 354.574 450.406 354.616C450.352 354.657 450.285 354.68 450.216 354.679Z" fill="#0F0F5C"/>
<path d="M458.903 355.079C460.989 354.84 462.491 352.991 462.258 350.948C462.025 348.905 460.145 347.442 458.059 347.68C455.972 347.918 454.47 349.768 454.703 351.811C454.936 353.854 456.817 355.317 458.903 355.079Z" fill="#0F0F5C"/>
<path d="M455.504 350.69C455.953 350.69 456.317 350.325 456.317 349.876C456.317 349.427 455.953 349.062 455.504 349.062C455.055 349.062 454.69 349.427 454.69 349.876C454.69 350.325 455.055 350.69 455.504 350.69Z" fill="white"/>
<path d="M462.515 351.919C462.476 351.92 462.436 351.913 462.399 351.899C462.362 351.885 462.329 351.864 462.3 351.837C462.271 351.81 462.248 351.777 462.232 351.741C462.216 351.705 462.207 351.666 462.206 351.627C462.203 351.586 462.209 351.545 462.222 351.507C462.236 351.469 462.256 351.433 462.284 351.403C462.311 351.372 462.344 351.348 462.38 351.33C462.417 351.312 462.457 351.302 462.497 351.3C462.704 351.28 462.902 351.212 463.077 351.102C463.253 350.991 463.399 350.841 463.505 350.663C463.555 350.597 463.628 350.554 463.709 350.542C463.79 350.531 463.873 350.552 463.939 350.601C464.004 350.65 464.048 350.724 464.059 350.805C464.071 350.886 464.05 350.969 464 351.034C463.84 351.286 463.623 351.497 463.366 351.651C463.11 351.804 462.822 351.896 462.524 351.919H462.515Z" fill="#0F0F5C"/>
<path d="M454.372 366.273C454.316 367.805 453.781 369.281 452.843 370.492C452.307 371.325 451.589 372.026 450.744 372.542C449.899 373.058 448.948 373.376 447.962 373.472C446.984 373.438 446.026 373.188 445.156 372.74C444.287 372.292 443.527 371.657 442.931 370.881C441.883 369.721 441.227 368.261 441.057 366.707C445.427 367.996 450.095 367.844 454.372 366.273Z" fill="#0F0F5C"/>
<path d="M452.842 370.491C452.306 371.324 451.589 372.025 450.744 372.541C449.898 373.058 448.947 373.376 447.962 373.472C446.984 373.438 446.026 373.188 445.156 372.74C444.286 372.292 443.526 371.657 442.931 370.88C446.055 369.451 449.616 369.311 452.842 370.491Z" fill="#FF643D"/>
<path d="M910.433 601.985C910.433 601.985 919.54 627.349 915.402 634.176C907.267 647.592 857.931 657.931 866.083 705.085L995.675 667.181L968.328 583.086L910.433 601.985Z" fill="#0F0F5C"/>
<path d="M866.083 705.086L867.975 711.568C868.239 712.474 868.679 713.32 869.27 714.056C869.861 714.792 870.592 715.404 871.419 715.857C872.247 716.311 873.156 716.596 874.094 716.698C875.033 716.8 875.982 716.715 876.888 716.45L992.465 682.649C994.292 682.112 995.831 680.871 996.745 679.2C997.658 677.528 997.871 675.563 997.337 673.734L995.445 667.252L866.083 705.086Z" fill="#FF7D4D"/>
<path d="M966.639 675.724C966.559 675.724 966.481 675.693 966.423 675.637C966.366 675.58 966.332 675.504 966.33 675.423C966.261 670.552 967.577 665.762 970.123 661.609C974.237 654.66 980.73 649.438 988.398 646.911C988.473 646.895 988.551 646.907 988.617 646.945C988.683 646.983 988.733 647.044 988.757 647.116C988.781 647.188 988.777 647.267 988.747 647.337C988.717 647.407 988.662 647.463 988.593 647.495C981.068 649.978 974.696 655.102 970.653 661.919C968.167 665.973 966.882 670.65 966.949 675.406C966.949 675.487 966.918 675.566 966.862 675.625C966.806 675.684 966.729 675.72 966.648 675.724H966.639Z" fill="white"/>
<path d="M894.341 674.902C894.263 674.902 894.187 674.874 894.129 674.822C888.746 669.848 881.828 666.859 874.518 666.35C874.477 666.347 874.437 666.337 874.401 666.32C874.364 666.302 874.331 666.277 874.304 666.247C874.277 666.216 874.256 666.181 874.243 666.142C874.229 666.104 874.224 666.063 874.226 666.022C874.226 665.981 874.234 665.94 874.251 665.902C874.268 665.864 874.293 665.83 874.324 665.803C874.355 665.775 874.391 665.754 874.431 665.742C874.47 665.729 874.512 665.726 874.553 665.731C882.017 666.215 889.084 669.268 894.553 674.371C894.61 674.429 894.641 674.507 894.641 674.588C894.641 674.669 894.61 674.747 894.553 674.804C894.526 674.834 894.493 674.858 894.457 674.874C894.42 674.891 894.381 674.9 894.341 674.902Z" fill="white"/>
<path d="M906.763 660.77C906.686 660.769 906.611 660.741 906.551 660.691C901.821 656.366 892.802 652.908 887.418 654.872C887.38 654.886 887.339 654.892 887.298 654.89C887.257 654.889 887.217 654.879 887.18 654.862C887.143 654.844 887.11 654.82 887.083 654.79C887.055 654.76 887.034 654.724 887.02 654.686C886.994 654.609 886.999 654.524 887.033 654.45C887.068 654.376 887.13 654.318 887.206 654.288C892.882 652.219 902.007 655.694 906.976 660.231C907.022 660.273 907.055 660.329 907.07 660.39C907.084 660.451 907.08 660.516 907.057 660.574C907.033 660.633 906.993 660.683 906.941 660.718C906.888 660.753 906.826 660.772 906.763 660.77Z" fill="white"/>
<path d="M908.894 665.05C910.867 665.05 912.466 663.45 912.466 661.477C912.466 659.504 910.867 657.904 908.894 657.904C906.921 657.904 905.322 659.504 905.322 661.477C905.322 663.45 906.921 665.05 908.894 665.05Z" fill="#FF7D4D"/>
<path d="M894.447 678.634C896.42 678.634 898.019 677.034 898.019 675.061C898.019 673.088 896.42 671.488 894.447 671.488C892.474 671.488 890.875 673.088 890.875 675.061C890.875 677.034 892.474 678.634 894.447 678.634Z" fill="#FF7D4D"/>
<path d="M960.344 616.41C960.344 616.41 961.794 643.321 955.861 648.672C944.225 659.187 925.172 679.209 926.79 702.734L1023.29 703.344L1021.24 614.906L960.344 616.41Z" fill="#0F0F5C"/>
<path d="M926.79 702.689V709.446C926.783 710.39 926.962 711.326 927.317 712.2C927.672 713.075 928.195 713.871 928.858 714.543C929.521 715.215 930.309 715.749 931.179 716.116C932.048 716.483 932.981 716.674 933.925 716.68L1015.81 717.193C1016.75 717.2 1017.69 717.021 1018.56 716.666C1019.44 716.311 1020.23 715.787 1020.9 715.124C1021.57 714.462 1022.11 713.673 1022.48 712.803C1022.84 711.933 1023.03 711 1023.04 710.056V703.3L926.79 702.689Z" fill="#FF7D4D"/>
<path d="M1008.94 703.264C1008.86 703.253 1008.78 703.211 1008.73 703.146C1008.68 703.082 1008.66 703.001 1008.66 702.919C1009.15 698.714 1010.32 694.618 1012.14 690.794C1014.79 685.284 1018.47 682.003 1022.16 681.791C1022.24 681.789 1022.32 681.818 1022.38 681.872C1022.44 681.926 1022.48 682.002 1022.48 682.083C1022.49 682.124 1022.48 682.164 1022.47 682.203C1022.45 682.241 1022.43 682.277 1022.4 682.307C1022.38 682.338 1022.35 682.362 1022.31 682.38C1022.27 682.398 1022.23 682.408 1022.19 682.41C1018.73 682.605 1015.28 685.762 1012.7 691.068C1010.91 694.827 1009.76 698.855 1009.28 702.99C1009.28 703.03 1009.27 703.07 1009.25 703.106C1009.23 703.142 1009.2 703.173 1009.17 703.199C1009.14 703.224 1009.1 703.243 1009.06 703.254C1009.02 703.266 1008.98 703.269 1008.94 703.264Z" fill="white"/>
<path d="M942.74 662.459C942.687 662.459 942.634 662.445 942.588 662.419C942.541 662.392 942.502 662.354 942.475 662.309C942.435 662.238 942.424 662.154 942.444 662.075C942.463 661.996 942.513 661.928 942.581 661.884C949.168 657.957 964.765 659.284 973.032 661.698C973.072 661.71 973.109 661.729 973.141 661.754C973.173 661.78 973.2 661.812 973.22 661.848C973.24 661.884 973.252 661.924 973.256 661.965C973.26 662.007 973.256 662.048 973.244 662.088C973.233 662.126 973.214 662.162 973.189 662.193C973.164 662.225 973.132 662.251 973.097 662.27C973.061 662.289 973.022 662.3 972.982 662.304C972.942 662.308 972.902 662.303 972.864 662.291C964.703 659.912 949.336 658.577 942.899 662.415C942.853 662.447 942.797 662.462 942.74 662.459Z" fill="white"/>
<path d="M975.339 666.677C977.532 666.677 979.309 665.077 979.309 663.104C979.309 661.131 977.532 659.531 975.339 659.531C973.147 659.531 971.369 661.131 971.369 663.104C971.369 665.077 973.147 666.677 975.339 666.677Z" fill="#FF7D4D"/>
<path d="M970.211 681.783C970.173 681.791 970.134 681.791 970.096 681.783C959.68 677.45 941.599 675.469 932.307 679.563C932.269 679.583 932.228 679.594 932.186 679.597C932.144 679.6 932.101 679.594 932.061 679.58C932.022 679.566 931.985 679.544 931.954 679.515C931.923 679.486 931.898 679.451 931.881 679.412C931.864 679.374 931.856 679.332 931.855 679.289C931.855 679.247 931.864 679.205 931.88 679.166C931.897 679.127 931.922 679.092 931.952 679.063C931.983 679.034 932.019 679.012 932.059 678.997C941.635 674.779 959.574 676.733 970.335 681.217C970.371 681.233 970.405 681.255 970.433 681.284C970.461 681.312 970.483 681.346 970.498 681.383C970.512 681.42 970.52 681.459 970.519 681.499C970.518 681.539 970.51 681.579 970.494 681.615C970.469 681.668 970.429 681.713 970.378 681.743C970.328 681.773 970.269 681.787 970.211 681.783Z" fill="white"/>
<path d="M970.034 685.054C972.109 685.054 973.792 683.454 973.792 681.481C973.792 679.508 972.109 677.908 970.034 677.908C967.959 677.908 966.276 679.508 966.276 681.481C966.276 683.454 967.959 685.054 970.034 685.054Z" fill="#FF7D4D"/>
<path d="M943.085 492.959C951.626 470.355 971.378 400.383 971.378 400.383C993.341 351.955 939.725 333.171 917.763 381.608L879.452 465.553C860.389 507.552 926.781 536.143 943.085 492.959Z" fill="#FF6B3D"/>
<path d="M947.444 480.941C932.837 427.737 859.558 444.372 877.33 509.099L912.528 631.833L982.192 612.076L947.444 480.941Z" fill="#FF6B3D"/>
<path d="M953.722 391.309L965.967 399.445L968.16 440.418C968.16 440.418 948.885 478.862 948.505 480.409C948.125 481.957 958.956 521.86 958.956 521.86L939.204 480.409L953.722 391.309Z" fill="#0F0F5C"/>
<path d="M1021.6 472.442C1021.48 439.782 1022.85 400.728 1019.49 364C1016.31 310.097 962.024 355.492 962.024 355.492C962.024 355.492 953.447 411.49 955.065 470.806C956.383 517.624 1021.83 535.604 1021.6 472.442Z" fill="#FF6B3D"/>
<path d="M1021.13 481.154C1021.56 421.299 954.623 414.72 954.102 487.539L953.067 639.758L1024.44 639.952L1021.13 481.154Z" fill="#FF6B3D"/>
<path d="M995.436 377.203C995.436 377.203 993.898 399.374 1018.15 412.03L1020.57 440.799C1020.57 440.799 981.484 418.778 978.398 385.967L995.436 377.203Z" fill="#FF6B3D"/>
<path d="M1015.37 422.793H1015.29C1006.33 420.742 997.664 414.834 990.892 406.149C985.383 399.074 984.703 397.173 982.05 390.08C981.741 389.249 981.405 388.312 981.033 387.365C981.014 387.327 981.003 387.284 981 387.241C980.998 387.198 981.005 387.155 981.021 387.114C981.036 387.074 981.06 387.037 981.091 387.007C981.121 386.976 981.158 386.952 981.198 386.937C981.239 386.921 981.282 386.914 981.325 386.916C981.368 386.919 981.411 386.93 981.449 386.949C981.488 386.969 981.522 386.996 981.549 387.03C981.577 387.064 981.597 387.102 981.608 387.144C981.988 388.135 982.315 389.037 982.625 389.868C985.277 396.89 985.941 398.774 991.396 405.787C998.071 414.356 1006.61 420.184 1015.45 422.21C1015.52 422.228 1015.58 422.272 1015.63 422.334C1015.67 422.396 1015.69 422.471 1015.68 422.546C1015.67 422.621 1015.63 422.69 1015.58 422.741C1015.52 422.791 1015.45 422.819 1015.37 422.82L1015.37 422.793Z" fill="#0F0F5C"/>
<path d="M1010.07 622.882C1009.99 622.882 1009.91 622.85 1009.85 622.792C1009.79 622.734 1009.76 622.655 1009.76 622.573L1005.69 418.919C1005.69 418.837 1005.73 418.758 1005.78 418.7C1005.84 418.642 1005.92 418.609 1006 418.609C1006.08 418.609 1006.16 418.642 1006.22 418.7C1006.28 418.758 1006.31 418.837 1006.31 418.919L1010.38 622.582C1010.38 622.663 1010.35 622.741 1010.29 622.801C1010.24 622.86 1010.16 622.895 1010.08 622.9L1010.07 622.882Z" fill="#0F0F5C"/>
<path d="M1023.29 623.484H956.772C956.731 623.486 956.69 623.478 956.652 623.463C956.614 623.448 956.579 623.425 956.55 623.396C956.521 623.367 956.499 623.333 956.484 623.295C956.468 623.257 956.461 623.216 956.463 623.175C956.463 623.093 956.495 623.014 956.553 622.956C956.611 622.898 956.69 622.865 956.772 622.865H1023.29C1023.37 622.865 1023.45 622.898 1023.51 622.956C1023.56 623.014 1023.6 623.093 1023.6 623.175C1023.6 623.257 1023.56 623.336 1023.51 623.394C1023.45 623.452 1023.37 623.484 1023.29 623.484Z" fill="#0F0F5C"/>
<path d="M896.127 259.175C881.291 270.256 865.181 287.598 848.7 301.722C823.652 326.352 848.877 360.975 878.815 336.31C896.33 321.452 910.866 309.186 923.023 289.385C933.173 272.935 919.531 241.726 896.127 259.175Z" fill="#FFB19E"/>
<path d="M969.159 228.602L962.333 229.645C958.443 238.489 962.077 244.75 969.141 249.756C977.762 248.527 985.728 246.218 986.064 231.352L977.001 228.902L969.159 228.602Z" fill="#FFB19E"/>
<path d="M1002.47 188.078C1002.78 172.168 990.204 159.024 974.386 158.72C958.567 158.416 945.497 171.067 945.191 186.977C944.886 202.887 957.461 216.031 973.28 216.335C989.098 216.639 1002.17 203.988 1002.47 188.078Z" fill="#0F0F5C"/>
<path d="M951.546 183.949C954.279 178.546 961.767 171.816 969.575 171.789C977.638 171.789 985.587 178.457 987.497 184.86C989.406 191.263 994.711 201.663 985.109 216.344C981.502 221.862 983.845 229.689 984.667 231.458C974.942 243.574 960.176 246.492 963.12 231.29C968.089 226.673 967.028 222.667 966.772 221.827C966.401 220.598 962.793 221.597 957.568 217.644C947.241 209.835 947.356 192.262 951.546 183.949Z" fill="#FFB19E"/>
<path d="M966.471 221.475C967.355 223.491 966.33 227.055 966.33 227.055C971.511 225.499 976.329 223.42 980.936 216.717C973.323 220.803 971.131 221.616 966.471 221.475Z" fill="#0F0F5C"/>
<path d="M986.206 198.268C986.206 198.268 992.068 188.85 997.107 193.502C1002.15 198.153 994.455 213.842 987.541 205.706L986.206 198.268Z" fill="#FFB19E"/>
<path d="M957.426 181.199C961.504 181.388 965.554 180.429 969.115 178.431C968.156 180.257 966.68 181.759 964.871 182.747C970.803 182.163 977.576 181.138 982.147 177.264C984.473 179.917 986.957 184.012 986.657 187.549C986.144 193.492 987.063 196.605 990.29 197.843C990.75 189.53 1002.52 190.123 1001.5 178.387C1001.28 175.408 1000.26 172.544 998.532 170.105C996.808 167.666 994.45 165.744 991.714 164.547C991.714 164.547 989.309 152.165 979.336 150.795C972.492 149.84 966.498 157.746 960.848 158.949C946.577 162.009 942.926 180.881 957.426 181.199Z" fill="#0F0F5C"/>
<path d="M971.529 189.203C971.485 189.202 971.442 189.192 971.402 189.174C971.363 189.156 971.327 189.129 971.299 189.096C971.241 189.037 971.209 188.958 971.209 188.875C971.209 188.793 971.241 188.714 971.299 188.654C972.068 187.946 972.934 187.35 973.872 186.886C974.883 186.442 976.001 186.303 977.09 186.488C978.178 186.688 979.184 187.198 979.99 187.956C980.047 188.015 980.079 188.094 980.079 188.177C980.079 188.259 980.047 188.338 979.99 188.398C979.932 188.454 979.854 188.486 979.773 188.486C979.692 188.486 979.615 188.454 979.557 188.398C978.849 187.714 977.953 187.258 976.984 187.088C976.015 186.918 975.017 187.041 974.119 187.443C973.239 187.896 972.426 188.471 971.705 189.15C971.654 189.186 971.592 189.204 971.529 189.203Z" fill="#0F0F5C"/>
<path d="M965.693 204.564H965.578C964.809 204.317 964.093 203.93 963.465 203.423C963.125 203.138 962.873 202.763 962.737 202.34C962.601 201.918 962.586 201.466 962.695 201.036C962.894 200.564 963.196 200.144 963.58 199.806L963.836 199.541C964.478 198.812 964.906 197.92 965.071 196.963C965.236 196.006 965.133 195.022 964.773 194.12C964.743 194.044 964.744 193.958 964.776 193.883C964.808 193.807 964.869 193.748 964.946 193.717C965.022 193.687 965.107 193.688 965.183 193.72C965.258 193.753 965.317 193.814 965.348 193.89C965.747 194.901 965.859 196.002 965.672 197.073C965.485 198.143 965.005 199.141 964.287 199.957C964.207 200.054 964.119 200.142 964.031 200.24C963.718 200.51 963.473 200.849 963.314 201.23C963.24 201.552 963.256 201.888 963.363 202.2C963.469 202.513 963.66 202.79 963.916 202.999C964.481 203.457 965.129 203.803 965.825 204.016C965.865 204.029 965.901 204.049 965.931 204.077C965.962 204.104 965.987 204.137 966.005 204.175C966.022 204.212 966.032 204.252 966.033 204.294C966.034 204.335 966.026 204.376 966.011 204.414C965.978 204.467 965.93 204.509 965.874 204.536C965.817 204.562 965.755 204.572 965.693 204.564Z" fill="#0F0F5C"/>
<path d="M981.625 195.562C981.625 195.562 978.973 202.08 970.131 196.447C970.131 196.447 972.386 190.76 976.833 190.893C981.281 191.026 981.625 195.562 981.625 195.562Z" fill="white"/>
<path d="M970.105 196.773H969.99C969.914 196.742 969.852 196.682 969.819 196.606C969.786 196.53 969.784 196.444 969.813 196.366C969.911 196.128 972.21 190.476 976.816 190.618C981.423 190.759 981.926 195.5 981.935 195.553C981.94 195.634 981.914 195.715 981.861 195.777C981.808 195.84 981.734 195.88 981.652 195.889C981.571 195.892 981.492 195.864 981.43 195.812C981.368 195.76 981.327 195.686 981.316 195.606C981.316 195.429 980.901 191.352 976.798 191.237H976.657C972.572 191.237 970.415 196.543 970.388 196.605C970.363 196.658 970.323 196.703 970.273 196.733C970.222 196.763 970.164 196.777 970.105 196.773Z" fill="#0F0F5C"/>
<path d="M978 195.273C978.048 193.486 976.547 191.996 974.648 191.946C972.749 191.896 971.171 193.303 971.124 195.09C971.077 196.877 972.577 198.367 974.476 198.417C976.375 198.468 977.953 197.06 978 195.273Z" fill="#0F0F5C"/>
<path d="M976.994 194.008C977.395 194.006 977.718 193.68 977.717 193.28C977.715 192.879 977.389 192.556 976.989 192.558C976.588 192.559 976.265 192.885 976.267 193.286C976.268 193.686 976.594 194.01 976.994 194.008Z" fill="white"/>
<path d="M981.732 195.871H981.59C981.55 195.868 981.511 195.857 981.475 195.838C981.439 195.819 981.407 195.793 981.382 195.762C981.356 195.73 981.337 195.694 981.326 195.655C981.315 195.616 981.311 195.576 981.316 195.535C981.325 195.455 981.365 195.381 981.428 195.33C981.491 195.278 981.571 195.254 981.652 195.261C982.134 195.247 982.597 195.073 982.97 194.766C982.998 194.737 983.031 194.714 983.068 194.698C983.106 194.682 983.146 194.674 983.186 194.674C983.227 194.674 983.267 194.682 983.304 194.698C983.341 194.714 983.375 194.737 983.403 194.766C983.432 194.795 983.456 194.829 983.472 194.867C983.487 194.905 983.496 194.946 983.496 194.987C983.496 195.028 983.487 195.069 983.472 195.107C983.456 195.145 983.432 195.179 983.403 195.208C982.935 195.609 982.347 195.842 981.732 195.871Z" fill="#0F0F5C"/>
<path d="M960.202 189.681C960.135 189.682 960.07 189.66 960.017 189.619C959.249 188.991 958.395 188.479 957.479 188.098C956.556 187.76 955.552 187.708 954.598 187.947C953.644 188.187 952.784 188.708 952.13 189.442C952.072 189.499 951.994 189.531 951.913 189.531C951.832 189.531 951.755 189.499 951.697 189.442C951.668 189.414 951.644 189.38 951.628 189.343C951.613 189.306 951.604 189.266 951.604 189.225C951.604 189.185 951.613 189.145 951.628 189.108C951.644 189.071 951.668 189.037 951.697 189.009C952.434 188.184 953.402 187.598 954.475 187.329C955.549 187.059 956.678 187.118 957.718 187.497C958.69 187.9 959.598 188.442 960.415 189.106C960.478 189.157 960.52 189.23 960.532 189.31C960.543 189.391 960.524 189.473 960.476 189.539C960.446 189.584 960.405 189.62 960.357 189.645C960.309 189.669 960.256 189.682 960.202 189.681Z" fill="#0F0F5C"/>
<path d="M950.326 195.855C950.326 195.855 953.147 202.284 961.873 196.394C961.873 196.394 959.433 190.787 954.995 191.088C950.556 191.389 950.326 195.855 950.326 195.855Z" fill="white"/>
<path d="M953.991 198.517C955.849 198.419 957.277 196.868 957.181 195.054C957.085 193.24 955.501 191.849 953.643 191.947C951.785 192.045 950.357 193.596 950.453 195.41C950.549 197.225 952.133 198.616 953.991 198.517Z" fill="#0F0F5C"/>
<path d="M961.874 196.704C961.812 196.704 961.752 196.687 961.7 196.654C961.649 196.621 961.607 196.574 961.582 196.518C961.582 196.456 959.159 191.114 955.012 191.362C950.866 191.61 950.645 195.695 950.592 195.872C950.592 195.914 950.583 195.955 950.567 195.993C950.55 196.031 950.525 196.065 950.494 196.092C950.463 196.12 950.427 196.14 950.387 196.153C950.347 196.165 950.306 196.169 950.265 196.164C950.184 196.159 950.108 196.124 950.054 196.064C949.999 196.005 949.97 195.926 949.973 195.846C949.973 195.793 950.273 191.026 954.933 190.743C959.592 190.46 962.006 196.049 962.112 196.27C962.141 196.346 962.14 196.429 962.111 196.504C962.081 196.579 962.025 196.641 961.953 196.677L961.874 196.704Z" fill="#0F0F5C"/>
<path d="M956.669 194.389C957.079 194.387 957.41 194.053 957.409 193.643C957.407 193.233 957.073 192.902 956.663 192.903C956.253 192.905 955.922 193.239 955.923 193.649C955.925 194.059 956.259 194.391 956.669 194.389Z" fill="white"/>
<path d="M950.167 196.181C949.674 196.156 949.209 195.944 948.867 195.588C948.811 195.53 948.779 195.452 948.779 195.371C948.779 195.29 948.811 195.213 948.867 195.155C948.895 195.126 948.929 195.102 948.966 195.087C949.003 195.071 949.043 195.062 949.084 195.062C949.124 195.062 949.164 195.071 949.202 195.087C949.239 195.102 949.272 195.126 949.301 195.155C949.425 195.292 949.578 195.401 949.749 195.473C949.92 195.545 950.105 195.578 950.291 195.57C950.332 195.563 950.374 195.564 950.414 195.573C950.454 195.583 950.493 195.601 950.526 195.625C950.559 195.65 950.587 195.682 950.607 195.718C950.627 195.754 950.64 195.794 950.644 195.836C950.652 195.916 950.629 195.996 950.58 196.061C950.531 196.125 950.459 196.167 950.379 196.181H950.167Z" fill="#0F0F5C"/>
<path d="M973.465 207.555C973.362 209.049 972.797 210.474 971.847 211.632C971.35 212.475 970.643 213.175 969.795 213.665C968.948 214.154 967.988 214.416 967.009 214.425C966.03 214.434 965.066 214.19 964.209 213.716C963.353 213.242 962.634 212.554 962.121 211.72C961.129 210.558 960.529 209.113 960.406 207.59C964.648 208.994 969.231 208.982 973.465 207.555Z" fill="#0F0F5C"/>
<path d="M971.821 211.63C971.323 212.474 970.617 213.174 969.769 213.664C968.921 214.153 967.961 214.415 966.983 214.424C966.004 214.433 965.039 214.188 964.183 213.714C963.327 213.24 962.607 212.553 962.095 211.719C963.63 211.063 965.279 210.717 966.949 210.702C968.618 210.687 970.274 211.002 971.821 211.63Z" fill="#FF6B3D"/>
<path d="M956.533 276.234C949.46 288.615 904.995 322.682 904.995 322.682C891.989 312.272 874.66 297.035 870.575 281.62C870.575 281.62 910.053 235.739 926.463 235.907C926.463 236.703 936.763 241.726 937.365 241.752C942.758 257.547 966.392 259.873 956.533 276.234Z" fill="#FFC508"/>
<path d="M906.348 321.638L920.875 310.061V251.162C911.432 271.989 908.735 296.725 906.348 321.638Z" fill="#0F0F5C"/>
<path d="M918.646 239.18C931.502 231.566 962.351 229.646 962.351 229.646C962.616 235.528 966.365 244.354 969.159 249.757C974.897 246.326 986.082 231.353 986.082 231.353C998.389 233.361 1011.28 235.183 1017.31 239.198C1017.31 239.198 1004.34 301.06 1007.05 308.391C1006.96 319.004 1023.7 376.302 1019.51 387.242C1014.21 401.162 923.138 389.895 915.808 384.014C911.635 380.698 920.768 310.01 918.646 239.18Z" fill="#FFC508"/>
<path d="M695.607 348.355L684.113 316.031C683.405 314.119 683.099 312.081 683.215 310.046C683.331 308.01 683.866 306.02 684.786 304.201C685.707 302.382 686.993 300.773 688.565 299.474C690.136 298.175 691.959 297.215 693.918 296.654L719.25 289.075C723.329 287.899 727.702 288.312 731.489 290.23C735.277 292.148 738.198 295.429 739.665 299.413L751.203 331.737L695.607 348.355Z" fill="#0F0F5C"/>
<path d="M793.838 654.163L822.918 688.795L834.067 701.84L845.561 715.318C848.638 718.926 854.518 717.237 854.774 712.665L855.871 694.508L856.976 675.583L859.991 633.778L860.133 631.824L859.416 632.063L857.011 624.926L794.554 645.983L796.95 653.12L793.838 654.163Z" fill="#FFB19E"/>
<path d="M856.941 675.582L855.871 694.508L854.836 712.673C854.58 717.236 848.7 718.925 845.623 715.326L834.129 701.848L822.98 688.803C828.7 684.442 835.094 681.045 841.91 678.748C846.776 677.098 851.822 676.035 856.941 675.582Z" fill="#0F0F5C"/>
<path d="M793.52 653.651L783.431 623.697C783.405 623.554 783.405 623.407 783.431 623.264L686.996 336.664L703.512 331.102L808.727 643.684C809.276 645.311 807.472 652.245 802.892 653.783C798.312 655.322 794.059 655.269 793.52 653.651Z" fill="#F5A004"/>
<path d="M808.675 643.683L703.459 331.1L720.108 325.449L825.323 638.208C825.294 638.155 825.27 638.099 825.253 638.04C825.801 639.668 823.997 646.601 819.408 648.149C814.819 649.696 809.223 645.31 808.675 643.683Z" fill="#FFC508"/>
<path d="M825.367 638.245L720.107 325.451L736.747 319.844L842.042 632.736C841.992 632.652 841.951 632.563 841.919 632.47C842.467 634.098 840.663 641.031 836.083 642.579C831.503 644.126 826.198 639.979 825.367 638.245Z" fill="#F5A004"/>
<path d="M842.043 632.736L736.748 319.879L753.237 314.316L849.682 600.925C849.792 601.021 849.883 601.138 849.947 601.27L860.027 631.223C860.575 632.842 857.286 635.424 852.697 636.972C848.347 638.44 843.033 634.531 842.043 632.736Z" fill="#FFC508"/>
<path d="M767.454 338.866C766.948 337.292 765.921 335.939 764.541 335.029C763.162 334.118 761.514 333.706 759.868 333.86L757.906 328.032C759.298 327.144 760.352 325.815 760.9 324.257C761.448 322.699 761.458 321.002 760.929 319.438C760.399 317.874 759.361 316.532 757.979 315.627C756.598 314.723 754.953 314.308 753.308 314.448L753.255 314.307L751.937 314.758L688.278 336.213L686.951 336.655L687.004 336.796C685.615 337.684 684.563 339.01 684.015 340.565C683.467 342.12 683.455 343.813 683.981 345.376C684.507 346.938 685.54 348.28 686.916 349.187C688.293 350.094 689.933 350.514 691.576 350.38L693.538 356.208C692.149 357.096 691.097 358.422 690.549 359.977C690.001 361.532 689.989 363.225 690.515 364.788C691.041 366.35 692.074 367.692 693.45 368.599C694.827 369.506 696.467 369.926 698.11 369.792L700.064 375.62C698.669 376.509 697.613 377.84 697.065 379.4C696.517 380.96 696.508 382.659 697.04 384.224C697.572 385.79 698.614 387.132 699.999 388.035C701.384 388.938 703.032 389.35 704.679 389.204L704.732 389.346L714.06 417.071L780.372 394.723L770.991 367.015L770.938 366.874C772.327 365.987 773.379 364.66 773.927 363.105C774.475 361.55 774.487 359.857 773.962 358.295C773.436 356.732 772.402 355.391 771.026 354.484C769.65 353.577 768.01 353.156 766.367 353.29L764.413 347.462C765.823 346.59 766.893 345.262 767.446 343.699C767.999 342.136 768.002 340.431 767.454 338.866Z" fill="#FF6B3D"/>
<path d="M697.95 369.89L764.351 347.383L766.181 352.831L699.78 375.347L697.95 369.89Z" fill="#0F0F5C"/>
<path d="M691.452 350.709L757.852 328.201L759.585 333.72L693.185 356.236L691.452 350.709Z" fill="#0F0F5C"/>
<path d="M965.71 277.358C966.447 277.353 967.041 276.74 967.036 275.988C967.031 275.236 966.43 274.63 965.692 274.634C964.955 274.639 964.361 275.252 964.366 276.004C964.371 276.757 964.972 277.363 965.71 277.358Z" fill="white"/>
<path d="M962.772 298.036C963.509 298.031 964.103 297.418 964.098 296.665C964.093 295.913 963.492 295.307 962.755 295.312C962.017 295.317 961.423 295.93 961.428 296.682C961.433 297.434 962.034 298.04 962.772 298.036Z" fill="white"/>
<path d="M961.023 319.475C961.76 319.471 962.354 318.857 962.35 318.105C962.345 317.353 961.743 316.747 961.006 316.751C960.269 316.756 959.675 317.37 959.679 318.122C959.684 318.874 960.286 319.48 961.023 319.475Z" fill="white"/>
<path d="M960.744 341.178C961.481 341.174 962.075 340.56 962.07 339.808C962.066 339.056 961.464 338.45 960.727 338.455C959.989 338.459 959.395 339.073 959.4 339.825C959.405 340.577 960.006 341.183 960.744 341.178Z" fill="white"/>
<path d="M1044.53 262.703C1055.01 278.993 1071.68 313.89 1076.79 336C1086.93 379.874 1051.46 382.456 1031.15 347.329C1019.42 326.351 1009.66 309.009 1004.97 285.139C1001.07 265.312 1028.01 237.012 1044.53 262.703Z" fill="#FFB19E"/>
<path d="M1059.96 336.513C1045.48 337.786 1013.9 346.382 1013.9 346.382L1015.3 381.377C1015.3 381.377 1044.83 390.406 1064.65 384.207C1088.24 376.831 1084.44 335 1059.96 336.513Z" fill="#FFB19E"/>
<path d="M1001.02 248.597C1001.63 248.659 1015.56 238.966 1015.64 238.135C1043.11 244.998 1063.65 302.517 1068.95 307.487C1062.95 330.251 1044.59 333.789 1025.03 342.544C1017.5 334.717 977.134 284.874 1001.02 248.597Z" fill="#FFC508"/>
<path d="M1009.05 312.997L1011.24 279.17L1019.49 313.546L1009.05 312.997Z" fill="#0F0F5C"/>
<path d="M1043.76 354.962L1023.11 343.952L1023.04 343.704C1023.04 343.704 1023.04 343.615 1023.04 343.571C1022.95 343.235 1022.79 342.687 1022.6 341.997V341.917C1021.16 336.151 1021.66 331.597 1024.07 329.952C1025.29 329.259 1026.72 329.071 1028.07 329.43C1037.12 331.19 1042.9 351.814 1043.76 354.962Z" fill="#FFB19E"/>
<path d="M973.377 307.586C973.377 307.586 1041.92 307.586 1042.54 309.16C1043.15 310.734 1008.27 385.429 1007.62 385.42L948.143 383.395L973.377 307.586Z" fill="#0F0F5C"/>
<path d="M1020.86 311.857H995.728L998.708 304.924H1023.83L1020.86 311.857Z" fill="#FFC508"/>
<path d="M1043.31 350.981C1036.39 347.762 1004.23 329.27 994.738 331.693C993.085 332.108 989.681 333.055 988.549 337.282C988.169 338.715 988.416 341.704 989.053 342.429C988.066 342.89 987.18 343.542 986.446 344.346C985.712 345.15 985.143 346.092 984.774 347.116C984.051 349.231 984.184 351.545 985.145 353.563C983.863 354.08 982.756 354.951 981.953 356.075C981.15 357.2 980.685 358.53 980.613 359.91C980.541 361.29 980.864 362.661 981.544 363.864C982.225 365.066 983.235 366.049 984.455 366.696C983.438 368.17 982.898 369.92 982.908 371.711C983.209 380.413 999.61 386.276 1007.77 388.125C1013.08 389.319 1023.32 391.397 1035.81 384.189C1038.63 372.171 1040.41 363.009 1043.31 350.981Z" fill="#FFB19E"/>
<path d="M1016.36 351.982C1007.66 351 989.106 342.846 988.955 342.758C988.918 342.742 988.883 342.719 988.854 342.69C988.826 342.661 988.803 342.627 988.788 342.589C988.773 342.551 988.766 342.51 988.768 342.469C988.769 342.428 988.779 342.388 988.796 342.351C988.829 342.276 988.891 342.217 988.967 342.187C989.043 342.157 989.128 342.159 989.203 342.192C989.389 342.28 1007.86 350.399 1016.47 351.363C1016.55 351.363 1016.63 351.395 1016.69 351.453C1016.75 351.511 1016.78 351.59 1016.78 351.672C1016.78 351.754 1016.75 351.833 1016.69 351.891C1016.63 351.949 1016.55 351.982 1016.47 351.982H1016.36Z" fill="#0F0F5C"/>
<path d="M1012.66 362.77C1003.96 361.798 985.401 353.635 985.251 353.555C985.181 353.519 985.127 353.458 985.101 353.384C985.075 353.31 985.077 353.228 985.109 353.156C985.14 353.084 985.198 353.027 985.271 352.996C985.343 352.965 985.424 352.962 985.498 352.989C985.684 353.069 1004.15 361.187 1012.77 362.16C1012.85 362.169 1012.92 362.209 1012.97 362.272C1013.02 362.335 1013.05 362.416 1013.04 362.496C1013.03 362.54 1013.02 362.582 1013 362.62C1012.98 362.658 1012.95 362.691 1012.91 362.717C1012.87 362.743 1012.83 362.761 1012.79 362.77C1012.75 362.779 1012.7 362.779 1012.66 362.77Z" fill="#0F0F5C"/>
<path d="M1010.72 376.849C1002.01 375.868 983.456 367.714 983.314 367.625C983.241 367.591 983.183 367.529 983.154 367.454C983.124 367.378 983.125 367.294 983.155 367.219C983.19 367.143 983.253 367.084 983.33 367.054C983.408 367.025 983.494 367.026 983.571 367.059C983.756 367.148 1002.22 375.266 1010.83 376.23C1010.91 376.23 1010.99 376.263 1011.05 376.321C1011.11 376.379 1011.14 376.458 1011.14 376.54C1011.14 376.622 1011.11 376.701 1011.05 376.759C1010.99 376.817 1010.91 376.849 1010.83 376.849H1010.72Z" fill="#0F0F5C"/>
<path d="M753.352 277.508C753.352 277.508 817.56 286.705 846.004 293.656C893.881 306.038 880.336 352.397 837.472 345.313C796.8 338.574 743.149 314.254 743.149 314.254L753.352 277.508Z" fill="#FFB19E"/>
<path d="M764.607 297.149L754.979 278.082C754.979 278.082 723.768 266.736 718.233 267.47C703.459 269.406 678.578 288.88 686.244 300.819C713.308 293.559 730.222 300.678 744.157 314.359C737.083 336.707 757.817 349.319 760.744 320.108C760.823 319.259 764.607 297.149 764.607 297.149Z" fill="#FFB19E"/>
<path d="M751.142 337.46C749.868 337.436 748.633 337.019 747.605 336.266C743.281 333.224 740.602 324.77 743.803 314.44C727.888 298.84 710.108 294.727 686.332 301.113C686.272 301.13 686.207 301.13 686.147 301.113C685.89 301.015 685.652 300.732 685.413 300.228C684.661 298.636 683.892 294.798 684.246 293.825C687.447 285.026 705.855 280.215 711.001 280.666C716.375 281.188 721.697 282.146 726.916 283.531C726.993 283.556 727.057 283.609 727.097 283.679C727.136 283.75 727.147 283.833 727.128 283.911C727.118 283.951 727.1 283.988 727.075 284.021C727.05 284.053 727.019 284.081 726.984 284.101C726.948 284.122 726.909 284.135 726.869 284.141C726.828 284.146 726.787 284.143 726.748 284.133C721.567 282.732 716.279 281.761 710.939 281.232C705.245 280.719 687.721 286.016 684.821 293.985C684.467 294.948 685.607 299.892 686.288 300.449C710.311 294.038 728.233 298.256 744.378 314.104C744.418 314.145 744.446 314.197 744.46 314.253C744.474 314.308 744.473 314.367 744.457 314.422C741.257 324.549 743.794 332.809 747.994 335.736C748.924 336.463 750.076 336.848 751.257 336.825C752.437 336.803 753.573 336.374 754.475 335.612C754.507 335.586 754.544 335.568 754.584 335.557C754.623 335.546 754.664 335.544 754.705 335.549C754.746 335.555 754.785 335.569 754.819 335.591C754.854 335.612 754.885 335.64 754.908 335.674C754.958 335.739 754.981 335.82 754.971 335.902C754.961 335.983 754.92 336.057 754.855 336.107C753.804 336.962 752.496 337.438 751.142 337.46Z" fill="#0F0F5C"/>
<path d="M886.463 110.184H707.049C705.967 110.182 704.895 110.395 703.896 110.808C702.896 111.221 701.988 111.827 701.222 112.592C700.457 113.357 699.85 114.265 699.436 115.264C699.021 116.264 698.808 117.335 698.808 118.417V194.341C698.808 196.527 699.676 198.623 701.222 200.169C702.767 201.715 704.863 202.583 707.049 202.583H831.344L863.174 233.828V202.583H886.472C887.554 202.583 888.626 202.37 889.625 201.956C890.625 201.541 891.534 200.934 892.299 200.169C893.064 199.404 893.671 198.495 894.085 197.495C894.499 196.495 894.712 195.423 894.712 194.341V118.417C894.712 117.334 894.499 116.262 894.084 115.262C893.669 114.262 893.061 113.354 892.295 112.589C891.529 111.824 890.619 111.218 889.619 110.805C888.618 110.393 887.546 110.181 886.463 110.184Z" fill="#617DFF"/>
<path d="M732 180.531C729.5 180.531 727.969 179 727.969 176.344V138.562C727.969 135.906 729.5 134.375 732 134.375C734.531 134.375 736.031 135.906 736.031 138.562V153.656H757.969V138.562C757.969 135.906 759.469 134.375 761.969 134.375C764.5 134.375 766 135.906 766 138.562V176.344C766 179 764.5 180.531 761.969 180.531C759.469 180.531 757.969 179 757.969 176.344V160.438H736.031V176.344C736.031 179 734.531 180.531 732 180.531ZM787.906 180.656C777.781 180.656 771.812 174.312 771.812 163.562C771.812 153 777.906 146.188 787.469 146.188C796.531 146.188 802.719 152.625 802.719 161.625C802.719 163.938 801.406 165.312 799.094 165.312H779.562V165.562C779.562 171.094 782.781 174.656 787.844 174.656C791.344 174.656 793.625 173.438 796.125 170.25C796.938 169.344 797.656 169 798.75 169C800.5 169 801.875 170.125 801.875 172C801.875 172.594 801.688 173.281 801.344 173.969C799.156 178.188 794.219 180.656 787.906 180.656ZM779.625 160.188H795.094C794.938 155.375 791.875 152.219 787.5 152.219C783.125 152.219 779.938 155.438 779.625 160.188ZM811.875 180.625C809.594 180.625 807.969 179.156 807.969 176.531V138.375C807.969 135.75 809.594 134.281 811.875 134.281C814.156 134.281 815.75 135.75 815.75 138.375V176.531C815.75 179.156 814.156 180.625 811.875 180.625ZM826.5 180.625C824.219 180.625 822.594 179.156 822.594 176.531V138.375C822.594 135.75 824.219 134.281 826.5 134.281C828.781 134.281 830.375 135.75 830.375 138.375V176.531C830.375 179.156 828.781 180.625 826.5 180.625ZM851.656 180.656C841.938 180.656 835.625 174.188 835.625 163.438C835.625 152.75 842 146.188 851.656 146.188C861.312 146.188 867.688 152.719 867.688 163.438C867.688 174.188 861.375 180.656 851.656 180.656ZM851.656 174.5C856.594 174.5 859.781 170.5 859.781 163.438C859.781 156.406 856.594 152.375 851.656 152.375C846.75 152.375 843.531 156.406 843.531 163.438C843.531 170.5 846.719 174.5 851.656 174.5Z" fill="white"/>
<path d="M215.144 515.643H156.25L146.771 543.528H106.542L163.632 385.693H208.141L265.249 543.528H224.578L215.144 515.643ZM205.25 485.964L185.675 428.188L166.365 485.964H205.25Z" fill="#FFC508"/>
<path d="M465.822 140.696C469.961 142.903 473.217 146.465 475.044 150.786C477.85 157.207 477.829 163.271 474.982 168.978C472.135 174.685 466.706 179.293 458.696 182.801L422.958 198.428L389.43 121.673L423.966 106.577C431.764 103.169 438.649 102.284 444.62 103.923C450.591 105.563 454.911 109.448 457.582 115.58C459.556 120.102 460.013 124.37 458.952 128.385C457.858 132.466 455.5 136.095 452.215 138.75C456.836 137.728 461.672 138.419 465.822 140.696ZM421.684 144.552L433.921 139.245C436.992 137.907 439.055 136.206 440.11 134.143C441.163 132.082 441.11 129.721 439.969 127.112C438.828 124.503 437.122 122.84 434.876 122.177C432.63 121.514 429.987 121.841 426.919 123.176L414.673 128.483L421.684 144.552ZM455.168 163.84C456.258 161.676 456.214 159.244 455.035 156.544C454.575 155.327 453.847 154.23 452.904 153.334C451.96 152.438 450.827 151.767 449.589 151.37C447.131 150.616 444.337 150.925 441.207 152.299L427.653 158.224L435.053 175.169L448.828 169.146C451.958 167.784 454.071 166.007 455.168 163.84Z" fill="#FFC508"/>
<path d="M619.145 519.04C618.745 511.809 620.401 504.613 623.919 498.284C627.647 491.651 633.049 486.113 639.587 482.223C648.051 476.994 656.672 474.753 665.449 475.502C674.225 476.251 682.012 479.856 688.808 486.318L669.728 498.107C666.701 496.076 663.134 495.004 659.489 495.029C655.822 495.111 652.249 496.204 649.162 498.186C643.822 501.482 640.642 506.016 639.622 511.788C638.602 517.56 640.017 523.559 643.866 529.785C647.715 536.011 652.431 539.961 658.013 541.636C663.595 543.31 669.074 542.496 674.449 539.195C677.601 537.321 680.176 534.616 681.894 531.377C683.552 528.131 684.193 524.46 683.733 520.844L702.813 509.055C705.548 518.023 705.271 526.572 701.982 534.702C698.693 542.832 692.822 549.521 684.37 554.769C677.966 558.875 670.597 561.226 662.999 561.587C655.779 561.906 648.614 560.184 642.328 556.617C635.735 552.659 630.186 547.178 626.147 540.634C622.107 534.09 619.694 526.673 619.109 519.004L619.145 519.04Z" fill="#FF6B3D"/>
<path d="M328.184 163.513L363.047 263.907C323.657 258.468 294.338 282.028 263.684 301.732L228.822 201.346C259.485 181.643 288.803 158.083 328.184 163.513Z" fill="#3F5DE3"/>
<path d="M285.214 287.633C278.008 292.259 270.881 297.105 263.684 301.73L228.822 201.345C236.072 196.711 243.145 191.909 250.351 187.248L285.214 287.633Z" fill="#FF6B3D"/>
<path d="M150.989 225.073L185.851 325.449C225.232 330.888 254.551 307.328 285.214 287.625L250.351 187.248C219.697 206.943 190.378 230.512 150.989 225.073Z" fill="#3F5DE3"/>
<path d="M331.296 172.453C304.285 182.12 283.878 210.8 264.011 241.045C293.648 238.932 323.825 238.392 360.606 256.858L363.047 263.933C357.576 263.168 352.043 262.955 346.53 263.296C312.11 251.163 283.18 254.7 253.755 256.787C252.517 258.671 251.288 260.546 250.05 262.412L243.145 242.593L248.68 242.213C269.316 210.747 289.413 177.76 315.779 162.725C319.919 162.682 324.056 162.946 328.157 163.512L331.296 172.453Z" fill="white"/>
<path d="M329.307 166.74C299.776 177.3 278.14 210.587 256.487 243.813C288.821 241.346 321.137 238.808 361.34 258.998L363.046 263.906C361.667 263.712 360.314 263.562 358.962 263.438C318.043 244.388 285.214 248.642 251.748 251.056C250.51 252.94 249.281 254.815 248.043 256.681L243.888 244.715C245.739 244.603 247.581 244.48 249.414 244.344C271.058 211.348 292.101 176.636 320.394 162.805C322.95 162.92 325.549 163.15 328.184 163.512L329.307 166.74Z" fill="#FF6B3D"/>
<path d="M154.101 234.023C190.882 252.498 221.059 251.949 250.696 249.836C230.829 280.081 210.422 308.771 183.411 318.437L185.851 325.45C191.321 326.215 196.855 326.429 202.367 326.087C227.053 310.274 246.293 278.764 266.027 248.677C267.866 248.548 269.711 248.424 271.562 248.306L264.674 228.487C263.437 230.356 262.202 232.228 260.97 234.103C230.174 236.323 199.918 240.108 163.402 225.852C159.262 225.894 155.125 225.631 151.024 225.064L154.101 234.023Z" fill="white"/>
<path d="M152.076 228.292C192.279 248.483 224.578 245.98 256.938 243.486C235.276 276.703 213.614 310 184.11 320.559L185.851 325.45C187.222 325.644 188.583 325.795 189.936 325.919C219.821 313.184 241.607 277.145 264.038 242.947C265.877 242.811 267.722 242.687 269.573 242.575L265.417 230.609L261.704 236.234C229.414 238.56 197.726 242.602 158.787 225.772C156.229 225.666 153.629 225.43 150.989 225.064L152.076 228.292Z" fill="#FF6B3D"/>
<path d="M267.247 222.446L254.18 184.834C252.906 185.63 251.624 186.444 250.351 187.266C243.145 191.909 236.072 196.711 228.822 201.345C227.548 202.159 226.272 202.97 224.993 203.777L238.07 241.434C215.789 255.425 192.562 266.674 164.057 262.739L172.783 287.846C201.28 291.781 224.507 280.532 246.788 266.55L259.856 304.189C261.141 303.381 262.417 302.571 263.684 301.757C270.881 297.132 278.008 292.286 285.214 287.66C286.487 286.838 287.76 286.033 289.042 285.228L275.965 247.589C298.246 233.607 321.473 222.358 349.979 226.293L341.287 201.151C312.755 197.215 289.528 208.464 267.247 222.446Z" fill="white"/>
<path d="M263.684 301.73C270.881 297.105 278.008 292.259 285.214 287.633L250.351 187.248C243.145 191.909 236.072 196.711 228.822 201.345L263.684 301.73Z" fill="#FF6B3D"/>
<path d="M271.005 246.74L264.56 228.168C233.906 247.872 204.587 271.432 165.197 266.002L171.643 284.573C211.032 289.977 240.342 266.417 271.005 246.74Z" fill="#FF6B3D"/>
<path d="M249.476 260.81L243.03 242.238C273.693 222.535 303.012 198.975 342.393 204.414L348.838 222.986C309.458 217.556 280.13 241.106 249.476 260.81Z" fill="#FF6B3D"/>
<path d="M266.46 545.792C266.397 545.792 266.335 545.773 266.282 545.736C266.23 545.7 266.19 545.648 266.169 545.589L149.105 221.394C149.084 221.355 149.072 221.312 149.069 221.268C149.066 221.224 149.072 221.179 149.088 221.138C149.103 221.096 149.128 221.059 149.159 221.027C149.191 220.996 149.229 220.972 149.27 220.957C149.312 220.941 149.356 220.935 149.4 220.938C149.445 220.942 149.488 220.954 149.527 220.976C149.565 220.997 149.599 221.027 149.626 221.062C149.652 221.098 149.671 221.139 149.68 221.182L266.752 545.376C266.778 545.454 266.773 545.538 266.739 545.613C266.704 545.687 266.643 545.745 266.566 545.774L266.46 545.792Z" fill="#0F0F5C"/>
<path d="M1085.9 717.158H80.4589C80.3768 717.158 80.2981 717.126 80.24 717.068C80.182 717.009 80.1494 716.931 80.1494 716.849C80.1494 716.767 80.182 716.688 80.24 716.63C80.2981 716.572 80.3768 716.539 80.4589 716.539H1085.93C1086.01 716.539 1086.09 716.572 1086.15 716.63C1086.21 716.688 1086.24 716.767 1086.24 716.849C1086.24 716.892 1086.23 716.936 1086.21 716.976C1086.2 717.016 1086.17 717.052 1086.14 717.081C1086.1 717.11 1086.07 717.132 1086.02 717.146C1085.98 717.159 1085.94 717.163 1085.9 717.158Z" fill="#0F0F5C"/>
<path d="M1086.94 455.312C1079.75 453.163 1074.14 445.539 1072.55 435.785L1071.67 430.479L1070.78 435.785C1069.2 445.513 1063.59 453.163 1056.41 455.312L1052.48 456.479L1056.41 457.655C1063.59 459.804 1069.2 467.383 1070.78 477.182L1071.67 482.489L1072.55 477.182C1074.14 467.454 1079.75 459.804 1086.94 457.655L1090.86 456.479L1086.94 455.312Z" fill="#FFC508"/>
<path d="M1052.33 214.089C1055.66 213.098 1058.25 209.578 1058.98 205.068L1059.38 202.609L1059.78 205.068C1060.51 209.578 1063.1 213.098 1066.43 214.089L1068.19 214.637L1066.43 215.176C1063.1 216.167 1060.51 219.687 1059.78 224.197L1059.38 226.656L1058.98 224.197C1058.25 219.687 1055.66 216.167 1052.33 215.176L1050.56 214.637L1052.33 214.089Z" fill="#FF6B3D"/>
<path d="M577.854 127.792C581.179 126.801 583.769 123.281 584.503 118.771L584.901 116.312L585.299 118.771C586.033 123.281 588.623 126.801 591.948 127.792L593.716 128.331L591.948 128.879C588.623 129.87 586.033 133.39 585.299 137.9L584.901 140.359L584.503 137.9C583.769 133.39 581.179 129.87 577.854 128.879L576.086 128.331L577.854 127.792Z" fill="#FF6B3D"/>
<path d="M122.828 322.867C126.152 321.868 128.743 318.348 129.477 313.837L129.875 311.379L130.273 313.837C131.006 318.348 133.597 321.868 136.921 322.867L138.69 323.406L136.921 323.946C133.597 324.945 131.006 328.465 130.273 332.967L129.875 335.434L129.477 332.967C128.743 328.465 126.152 324.945 122.828 323.946L121.06 323.406L122.828 322.867Z" fill="#3F5DE3"/>
<path d="M647.827 760.403H511.728C511.654 760.391 511.586 760.352 511.538 760.295C511.489 760.237 511.462 760.165 511.462 760.089C511.462 760.014 511.489 759.941 511.538 759.884C511.586 759.826 511.654 759.788 511.728 759.775H647.827C647.901 759.788 647.969 759.826 648.017 759.884C648.066 759.941 648.093 760.014 648.093 760.089C648.093 760.165 648.066 760.237 648.017 760.295C647.969 760.352 647.901 760.391 647.827 760.403Z" fill="#0F0F5C"/>
<path d="M761.354 760.403H723.609C723.534 760.391 723.467 760.352 723.418 760.295C723.37 760.237 723.343 760.165 723.343 760.089C723.343 760.014 723.37 759.941 723.418 759.884C723.467 759.826 723.534 759.788 723.609 759.775H761.354C761.428 759.788 761.495 759.826 761.544 759.884C761.592 759.941 761.619 760.014 761.619 760.089C761.619 760.165 761.592 760.237 761.544 760.295C761.495 760.352 761.428 760.391 761.354 760.403Z" fill="#0F0F5C"/>
</svg>
