<svg width="801" height="541" viewBox="0 0 801 541" fill="none" xmlns="http://www.w3.org/2000/svg">
<g clip-path="url(#clip0_3417_597)">
<path d="M149.567 201.497L122.347 201.901L130.273 176.762L148.249 180.517C145.391 186.639 145.999 193.676 149.567 201.497Z" fill="#FFB9B9"/>
<path d="M783.757 102.047L781.016 102.403L799.395 33.424C800.75 28.8179 800.97 23.9526 800.037 19.243C799.229 15.395 797.229 11.8993 794.321 9.252C791.276 6.60363 787.544 4.87028 783.556 4.252C778.7 3.49983 773.742 3.72181 768.971 4.905L644.064 33.354C639.705 34.4119 635.532 36.1286 631.69 38.445C627.512 40.9298 623.626 43.8763 620.105 47.229C616.483 50.6477 613.232 54.439 610.405 58.54C607.644 62.5089 605.393 66.8093 603.705 71.34L473.017 430.8C470.845 436.711 469.434 442.874 468.817 449.141C468.245 454.705 468.515 460.323 469.617 465.806C470.538 470.57 472.461 475.084 475.258 479.049C477.824 482.654 481.438 485.38 485.609 486.857L617.581 532.29C623.444 534.287 629.737 534.661 635.795 533.375C642.271 531.964 648.362 529.16 653.644 525.156C659.576 520.699 664.676 515.233 668.712 509.008C673.182 502.168 676.522 494.654 678.604 486.753L767.082 154.686L769.858 154.464L783.757 102.047Z" fill="#2F2E41"/>
<path d="M774.21 98.2279L771.469 98.5839L789.848 29.6049C791.202 24.9989 791.423 20.1336 790.491 15.4239C789.682 11.5759 787.682 8.08021 784.775 5.43292C781.729 2.78456 777.998 1.05121 774.01 0.432924C769.153 -0.319266 764.195 -0.0972879 759.425 1.08592L634.517 29.5349C630.157 30.5928 625.984 32.3095 622.143 34.6259C617.964 37.1107 614.078 40.0572 610.558 43.4099C606.935 46.8287 603.684 50.62 600.858 54.7209C598.096 58.6898 595.845 62.9902 594.158 67.5209L463.47 426.981C461.297 432.892 459.886 439.055 459.27 445.322C458.697 450.886 458.967 456.504 460.07 461.987C460.99 466.751 462.913 471.265 465.711 475.23C468.276 478.835 471.89 481.561 476.062 483.038L608.034 528.471C613.896 530.468 620.189 530.842 626.248 529.556C632.724 528.145 638.815 525.341 644.097 521.337C650.028 516.88 655.129 511.414 659.165 505.189C663.635 498.349 666.975 490.835 669.057 482.934L757.535 150.867L760.311 150.645L774.21 98.2279Z" fill="#090814"/>
<path d="M758.319 10.0889L739.958 14.1109C740.159 15.6994 740.001 17.3126 739.495 18.8319C738.923 20.61 738.094 22.2946 737.033 23.8319C734.646 27.3199 731.46 30.1872 727.74 32.1949C727.295 32.4315 726.851 32.6502 726.408 32.8509C725.966 33.0516 725.523 33.2336 725.081 33.3969C724.641 33.5602 724.203 33.7046 723.768 33.8299C723.334 33.9552 722.904 34.0609 722.479 34.1469L650.692 48.6829C649.36 48.9923 647.974 48.9765 646.649 48.6369C645.583 48.3508 644.642 47.7174 643.976 46.8369C643.305 45.8911 642.926 44.769 642.886 43.6099C642.831 42.1313 643.065 40.6561 643.574 39.2669C643.702 38.8922 643.847 38.5149 644.009 38.1349C644.172 37.7549 644.35 37.3749 644.542 36.9949C644.733 36.6129 644.941 36.2329 645.167 35.8549C645.393 35.4769 645.632 35.0992 645.882 34.7219L632.289 37.6979C629.014 38.4653 625.877 39.7342 622.989 41.4599C619.835 43.3178 616.902 45.528 614.247 48.0479C611.51 50.6223 609.055 53.4811 606.924 56.5759C604.846 59.5664 603.157 62.8091 601.897 66.2259L471.458 428.807C469.835 433.262 468.794 437.908 468.358 442.63C467.955 446.798 468.191 451.003 469.058 455.099C469.782 458.639 471.259 461.981 473.39 464.899C475.344 467.546 478.068 469.525 481.19 470.565L614.135 513.758C618.521 515.164 623.204 515.374 627.698 514.366C632.485 513.27 636.981 511.161 640.883 508.18C645.248 504.875 649.006 500.837 651.989 496.246C655.29 491.203 657.767 485.667 659.328 479.846L780.796 31.6109C781.816 28.1893 782.004 24.574 781.347 21.0649C780.777 18.1891 779.322 15.5633 777.187 13.5539C774.95 11.545 772.187 10.2135 769.222 9.71489C765.6 9.1061 761.892 9.2333 758.319 10.0889Z" fill="#BFE3BF"/>
<path d="M687.025 181.814H422.569V92.197H687.029L687.025 181.814Z" fill="white"/>
<path d="M609.706 213.443H350.518V339.083H609.706V213.443Z" fill="white"/>
<path d="M392.625 273.777C402.979 273.777 411.373 265.383 411.373 255.029C411.373 244.675 402.979 236.281 392.625 236.281C382.271 236.281 373.877 244.675 373.877 255.029C373.877 265.383 382.271 273.777 392.625 273.777Z" fill="#008E00"/>
<path d="M435.924 242.53C435.105 242.545 434.324 242.88 433.75 243.465C433.176 244.049 432.854 244.835 432.854 245.654C432.854 246.474 433.176 247.26 433.75 247.844C434.324 248.429 435.105 248.764 435.924 248.779H583.23C584.049 248.764 584.829 248.429 585.403 247.844C585.977 247.26 586.299 246.474 586.299 245.654C586.299 244.835 585.977 244.049 585.403 243.465C584.829 242.88 584.049 242.545 583.23 242.53H435.924Z" fill="#E6E6E6"/>
<path d="M435.925 261.278C435.105 261.291 434.324 261.625 433.749 262.208C433.174 262.791 432.85 263.577 432.849 264.396C432.847 265.215 433.167 266.002 433.74 266.588C434.313 267.173 435.093 267.511 435.912 267.527H499.312C500.131 267.512 500.911 267.177 501.485 266.592C502.059 266.008 502.381 265.222 502.381 264.402C502.381 263.583 502.059 262.797 501.485 262.213C500.911 261.628 500.131 261.293 499.312 261.278H435.925Z" fill="#E6E6E6"/>
<path d="M378.245 291.25C375.868 291.25 373.934 292.65 373.934 294.375C373.934 296.1 375.868 297.5 378.245 297.5H581.482C583.859 297.5 585.793 296.1 585.793 294.375C585.793 292.65 583.859 291.25 581.482 291.25H378.245Z" fill="#E6E6E6"/>
<path d="M378.245 309.998C375.868 309.998 373.934 311.398 373.934 313.123C373.934 314.848 375.868 316.248 378.245 316.248H534.7C537.077 316.248 539.011 314.848 539.011 313.123C539.011 311.398 537.077 309.998 534.7 309.998H378.245Z" fill="#E6E6E6"/>
<path d="M612.343 341.72H347.883V210.808H612.343V341.72ZM353.155 336.448H607.072V216.079H353.155V336.448Z" fill="#E6E6E6"/>
<path d="M467.307 155.165C477.661 155.165 486.055 146.771 486.055 136.417C486.055 126.063 477.661 117.669 467.307 117.669C456.952 117.669 448.559 126.063 448.559 136.417C448.559 146.771 456.952 155.165 467.307 155.165Z" fill="#008E00"/>
<path d="M510.605 123.918C510.19 123.911 509.777 123.986 509.392 124.14C509.006 124.293 508.655 124.522 508.359 124.813C508.063 125.104 507.828 125.451 507.667 125.834C507.507 126.216 507.424 126.627 507.424 127.042C507.424 127.458 507.507 127.868 507.667 128.251C507.828 128.634 508.063 128.981 508.359 129.272C508.655 129.563 509.006 129.792 509.392 129.945C509.777 130.099 510.19 130.174 510.605 130.167H657.912C658.731 130.152 659.511 129.817 660.085 129.232C660.659 128.648 660.981 127.862 660.981 127.042C660.981 126.223 660.659 125.437 660.085 124.853C659.511 124.268 658.731 123.933 657.912 123.918H510.605Z" fill="#E6E6E6"/>
<path d="M510.606 142.666C510.191 142.658 509.779 142.732 509.393 142.885C509.007 143.038 508.655 143.266 508.359 143.556C508.062 143.847 507.826 144.193 507.665 144.576C507.503 144.958 507.42 145.369 507.419 145.784C507.418 146.199 507.5 146.61 507.66 146.993C507.819 147.376 508.054 147.724 508.349 148.015C508.645 148.306 508.995 148.536 509.381 148.691C509.766 148.845 510.178 148.921 510.593 148.915H626.503C626.918 148.922 627.33 148.847 627.716 148.693C628.102 148.54 628.453 148.311 628.749 148.02C629.045 147.729 629.28 147.382 629.441 146.999C629.601 146.616 629.684 146.205 629.684 145.79C629.684 145.375 629.601 144.964 629.441 144.582C629.28 144.199 629.045 143.852 628.749 143.561C628.453 143.27 628.102 143.041 627.716 142.887C627.33 142.734 626.918 142.658 626.503 142.666H510.606Z" fill="#E6E6E6"/>
<path d="M687.025 181.814H422.569V92.197H687.029L687.025 181.814ZM427.837 176.542H681.753V97.471H427.836L427.837 176.542Z" fill="#E6E6E6"/>
<path d="M150.564 525.267H164.4L170.982 479.991H150.561L150.564 525.267Z" fill="#FFB6B6"/>
<path d="M33.1895 511.775L43.9565 517.675L71.9115 479.088L56.0215 470.388L33.1895 511.775Z" fill="#FFB6B6"/>
<path d="M150.014 500.141C148.968 500.14 147.958 499.759 147.172 499.068C146.387 498.377 145.879 497.424 145.745 496.387L131.065 383.267C131 382.767 130.778 382.3 130.432 381.933C130.086 381.566 129.633 381.318 129.137 381.224C128.641 381.13 128.129 381.194 127.672 381.409C127.216 381.624 126.839 381.977 126.595 382.419L65.4158 493.419C64.9111 494.325 64.0978 495.02 63.1239 495.378C62.15 495.735 61.0801 495.731 60.1089 495.367L46.7748 490.282C46.2385 490.078 45.7483 489.768 45.3332 489.372C44.918 488.976 44.5863 488.5 44.3574 487.974C44.1285 487.448 44.0071 486.881 44.0003 486.307C43.9935 485.733 44.1015 485.163 44.3178 484.632L86.6978 380.523C86.805 380.258 86.8776 379.981 86.9138 379.698C92.6538 335.27 107.259 312.676 111.598 306.81C111.915 306.379 112.124 305.878 112.206 305.349C112.289 304.82 112.243 304.279 112.073 303.772L111.473 301.982C111.234 301.272 111.186 300.511 111.331 299.776C111.476 299.041 111.811 298.357 112.302 297.791C127.938 279.981 155.192 289.7 155.465 289.8L155.602 289.85L155.688 289.967C186.247 331.876 174.948 467.997 172.373 494.859C172.276 495.868 171.826 496.81 171.101 497.52C170.377 498.229 169.426 498.66 168.415 498.736L150.345 500.127C150.239 500.137 150.125 500.141 150.014 500.141Z" fill="#090814"/>
<path d="M199.902 530.045C195.743 533.682 190.378 535.636 184.855 535.526C174.665 535.377 155.627 535.072 151.207 534.884C145.292 534.618 147.254 529.458 147.445 525.903V525.551C147.514 521.988 148.211 514.268 149.391 513.062C150.571 511.856 154.608 518.433 154.608 518.433C154.608 518.433 162.491 520.782 164.66 513.733C166.829 506.684 171.233 506.005 171.233 506.005C173.233 505.12 173.333 510.437 173.333 510.437L190.019 519.23L199.81 520.796C200.124 520.945 200.41 521.096 200.676 521.242C205.104 523.781 203.142 527.18 199.902 530.045Z" fill="#090814"/>
<path d="M141.143 184.655C155.248 184.655 166.681 173.221 166.681 159.117C166.681 145.013 155.248 133.579 141.143 133.579C127.039 133.579 115.605 145.013 115.605 159.117C115.605 173.221 127.039 184.655 141.143 184.655Z" fill="#FFB8B8"/>
<path d="M101.342 325.924L178.209 332.924C171.509 309.624 165.367 286.4 170.372 263.264C176.727 242.608 177.318 231.164 160.553 221.438L149.233 196.186L128.746 195.441L118.756 192.703C110.686 205.678 107.385 221.059 109.419 236.203C113.763 269.136 112.59 299.697 101.342 325.924Z" fill="#008E00"/>
<path d="M766.42 535.88H0V533.797H766.769L766.42 535.88Z" fill="#CBCBCB"/>
<path d="M262.323 304.913L72.2035 439.356L26.6445 374.93L216.764 240.486L262.323 304.913Z" fill="white"/>
<path d="M90.801 397.442C98.2401 392.181 100.006 381.887 94.7462 374.447C89.4859 367.008 79.1911 365.242 71.7519 370.502C64.3128 375.763 62.5465 386.057 67.8068 393.497C73.067 400.936 83.3619 402.702 90.801 397.442Z" fill="#008E00"/>
<path d="M77.4719 534.289C72.2201 536.012 66.5142 535.714 61.4705 533.453C52.1438 529.332 34.729 521.607 30.7317 519.706C25.3889 517.148 29.2126 513.163 30.7765 509.968L30.9142 509.644C32.3728 506.385 36.0342 499.547 37.5916 498.898C39.149 498.248 40.2964 505.884 40.2964 505.884C40.2964 505.884 46.6382 511.13 51.392 505.486C56.1458 499.842 60.4671 500.941 60.4671 500.941C62.6551 500.908 60.6683 505.844 60.6683 505.844L72.598 520.467L81.0032 525.738C81.2342 525.998 81.4385 526.248 81.6264 526.487C84.7121 530.554 81.5774 532.916 77.4719 534.289Z" fill="#090814"/>
<path d="M106.064 352.979C105.468 353.4 105.064 354.041 104.941 354.76C104.818 355.479 104.985 356.218 105.406 356.814C105.828 357.41 106.468 357.814 107.187 357.937C107.907 358.061 108.645 357.893 109.241 357.472L215.141 282.586C215.436 282.377 215.687 282.113 215.88 281.807C216.073 281.501 216.203 281.161 216.264 280.805C216.326 280.449 216.316 280.084 216.236 279.732C216.156 279.379 216.008 279.046 215.799 278.751C215.591 278.456 215.326 278.205 215.02 278.012C214.715 277.819 214.374 277.689 214.018 277.628C213.662 277.567 213.297 277.576 212.945 277.656C212.592 277.736 212.259 277.884 211.964 278.093L106.064 352.979Z" fill="#E6E6E6"/>
<path d="M115.594 366.455C115.299 366.663 115.047 366.927 114.854 367.232C114.661 367.538 114.529 367.878 114.467 368.234C114.406 368.59 114.414 368.955 114.493 369.307C114.573 369.66 114.72 369.993 114.928 370.289C115.136 370.584 115.401 370.836 115.706 371.029C116.011 371.223 116.351 371.354 116.707 371.416C117.063 371.478 117.428 371.469 117.781 371.39C118.133 371.311 118.467 371.163 118.762 370.955L118.771 370.948L202.088 312.029C202.684 311.608 203.088 310.967 203.212 310.248C203.335 309.528 203.168 308.79 202.746 308.194C202.325 307.598 201.684 307.194 200.965 307.071C200.246 306.947 199.507 307.115 198.911 307.536L115.594 366.455Z" fill="#E6E6E6"/>
<path d="M262.323 304.913L72.2035 439.356L26.6445 374.93L216.764 240.486L262.323 304.913ZM73.3136 432.886L255.853 303.802L215.653 246.956L33.1145 376.04L73.3136 432.886Z" fill="#E6E6E6"/>
<path d="M161.928 346.578L149.565 278.993L150.436 237.193L122.572 236.322L127.797 283.343L145.814 348.543C144.319 350.361 143.403 352.585 143.184 354.928C142.965 357.271 143.453 359.627 144.586 361.69C145.718 363.753 147.443 365.43 149.538 366.503C151.633 367.576 154.001 367.997 156.337 367.711C158.673 367.426 160.87 366.446 162.645 364.9C164.419 363.353 165.689 361.311 166.291 359.035C166.893 356.76 166.799 354.356 166.022 352.135C165.245 349.913 163.82 347.976 161.93 346.572L161.928 346.578Z" fill="#FFB8B8"/>
<path d="M120.831 240.68C130.926 236.835 142.083 236.835 152.178 240.68L150.436 205.85C150.436 202.155 148.967 198.612 146.355 196C143.742 193.387 140.199 191.92 136.504 191.92C132.81 191.92 129.267 193.388 126.655 196.001C124.042 198.613 122.575 202.156 122.574 205.85L120.831 240.68Z" fill="#008E00"/>
<path d="M99.2619 197.505C99.2619 197.505 100.65 208.04 113.515 208.384L139.615 209.084C139.615 209.084 117.555 155.399 126.626 161.447C135.697 167.495 159.884 142.137 159.884 142.137L167.021 155.523C167.021 155.523 184.072 149.348 165.175 134.228C165.175 134.228 142.628 116.796 118.692 127.264C94.7559 137.732 99.2619 197.505 99.2619 197.505Z" fill="#090814"/>
</g>
<defs>
<clipPath id="clip0_3417_597">
<rect width="800.604" height="540.622" fill="white"/>
</clipPath>
</defs>
</svg>
