<svg width="1206" height="849" viewBox="0 0 1206 849" fill="none" xmlns="http://www.w3.org/2000/svg">
<path d="M141.466 630.647C148.54 655.879 160.715 680.278 179.821 700.787C181.041 702.114 182.297 703.417 183.588 704.696C191.293 712.4 199.79 719.268 208.937 725.187C222.81 734.099 237.843 741.06 253.614 745.873C259.173 747.601 264.83 748.998 270.554 750.056C274.869 750.852 279.083 751.441 283.198 751.824C288.619 752.302 294.064 752.435 299.502 752.222C301.518 752.146 303.507 752.022 305.47 751.851H305.691C306.885 751.736 308.06 751.63 309.228 751.488C313.454 751.002 317.574 750.33 321.606 749.507C381.924 737.17 423.851 690.528 489.323 731.82C635.21 823.883 696.801 766.178 791.088 753.204C816.676 749.667 856.295 768.822 912.086 764.648H912.581C917.238 764.294 922.001 763.764 926.869 763.056C933.483 762.092 940.3 760.783 947.329 759.05C949.457 758.531 951.605 757.974 953.774 757.378C964.005 754.546 973.942 750.741 983.447 746.014C988.609 743.453 993.627 740.61 998.478 737.498L1000.25 736.383C1013.12 727.864 1024.7 717.541 1034.64 705.731C1036.57 703.449 1038.44 701.114 1040.25 698.727C1041.61 696.958 1042.9 695.101 1044.22 693.243C1068.66 658.24 1080.24 614.295 1079.18 570.917C1076.44 507.029 1042.75 432.813 987.726 401.187C931.723 371.074 922.342 322.735 920.318 263.287C914.412 72.5006 655.068 -6.9516 541.241 148.451C519.137 178.015 501.454 216.212 465.504 226.276C421.932 238.542 378.352 201.434 333.144 204.679C243.941 215.672 235.418 322.637 212.969 391.353C198.636 430.849 167.823 444.716 150.573 483.089C131.661 523.956 127.974 582.582 141.466 630.647Z" fill="#50EC84" fill-opacity="0.15"/>
<path d="M261.403 687.16C261.122 687.16 260.848 687.066 260.625 686.894C260.554 686.841 258.998 685.665 256.576 683.507C256.434 683.399 256.317 683.262 256.23 683.106C256.144 682.951 256.091 682.779 256.073 682.601C256.056 682.424 256.076 682.245 256.13 682.076C256.185 681.906 256.274 681.75 256.392 681.616C256.51 681.482 256.654 681.374 256.815 681.299C256.977 681.223 257.152 681.181 257.33 681.176C257.508 681.171 257.685 681.203 257.85 681.269C258.016 681.335 258.166 681.435 258.291 681.562C260.643 683.649 262.172 684.816 262.19 684.825C262.407 684.99 262.566 685.218 262.646 685.478C262.726 685.738 262.722 686.017 262.635 686.275C262.548 686.533 262.382 686.757 262.161 686.916C261.94 687.074 261.675 687.16 261.403 687.16Z" fill="#988BD6"/>
<path d="M249.997 676.546C249.819 676.548 249.642 676.512 249.477 676.442C249.313 676.372 249.165 676.269 249.043 676.139C246.593 673.486 244.303 670.833 242.243 668.091C242.036 667.818 241.945 667.473 241.992 667.133C242.038 666.793 242.218 666.486 242.491 666.278C242.764 666.07 243.109 665.98 243.448 666.026C243.788 666.073 244.096 666.252 244.303 666.526C246.31 669.179 248.547 671.832 250.943 674.37C251.177 674.622 251.301 674.955 251.29 675.298C251.278 675.641 251.131 675.966 250.882 676.201C250.639 676.421 250.325 676.544 249.997 676.546ZM237.478 659.972C237.25 659.973 237.027 659.914 236.829 659.801C236.632 659.687 236.469 659.524 236.355 659.327C234.567 656.271 233.026 653.077 231.748 649.776C231.671 649.613 231.629 649.437 231.624 649.257C231.619 649.078 231.651 648.899 231.719 648.733C231.787 648.566 231.889 648.416 232.018 648.291C232.147 648.167 232.301 648.07 232.47 648.008C232.639 647.947 232.818 647.921 232.998 647.932C233.177 647.944 233.352 647.993 233.511 648.076C233.67 648.159 233.81 648.275 233.922 648.415C234.035 648.555 234.116 648.718 234.162 648.891C235.386 652.062 236.864 655.129 238.583 658.062C238.695 658.26 238.754 658.484 238.753 658.712C238.753 658.939 238.693 659.163 238.579 659.36C238.466 659.557 238.303 659.722 238.107 659.837C237.91 659.952 237.688 660.014 237.46 660.017L237.478 659.972ZM230.236 640.587C229.927 640.588 229.627 640.478 229.391 640.277C229.156 640.076 229.001 639.797 228.954 639.49C228.604 637.285 228.427 635.055 228.424 632.822C228.424 631.478 228.495 630.125 228.627 628.789C228.68 628.461 228.856 628.166 229.119 627.964C229.382 627.761 229.713 627.667 230.043 627.701C230.374 627.735 230.679 627.894 230.895 628.146C231.112 628.398 231.224 628.723 231.209 629.055C231.078 630.306 231.013 631.564 231.014 632.822C231.017 634.922 231.186 637.019 231.518 639.092C231.545 639.261 231.537 639.433 231.497 639.599C231.456 639.764 231.384 639.92 231.282 640.058C231.181 640.195 231.054 640.311 230.908 640.399C230.762 640.486 230.6 640.544 230.431 640.569L230.236 640.587ZM259.52 630.16C257.816 630.152 256.116 629.98 254.445 629.647C253.546 629.456 252.674 629.16 251.845 628.763C251.681 628.698 251.531 628.601 251.405 628.477C251.28 628.352 251.181 628.204 251.115 628.04C251.048 627.876 251.016 627.7 251.02 627.524C251.024 627.347 251.064 627.173 251.137 627.012C251.211 626.851 251.316 626.707 251.447 626.589C251.578 626.47 251.732 626.379 251.899 626.322C252.067 626.265 252.244 626.243 252.42 626.256C252.596 626.27 252.768 626.319 252.924 626.402C253.567 626.705 254.244 626.93 254.94 627.074C257.39 627.597 259.915 627.677 262.393 627.313C262.561 627.285 262.733 627.29 262.899 627.329C263.064 627.368 263.221 627.439 263.359 627.539C263.497 627.638 263.614 627.764 263.703 627.909C263.792 628.054 263.852 628.215 263.879 628.383C263.933 628.722 263.851 629.07 263.65 629.349C263.45 629.629 263.148 629.819 262.809 629.877C261.722 630.065 260.622 630.165 259.52 630.178V630.16ZM271.323 624.766C271.046 624.767 270.775 624.677 270.554 624.509C270.291 624.305 270.115 624.008 270.064 623.679C270.013 623.35 270.091 623.014 270.28 622.74C272.063 620.197 272.991 617.153 272.933 614.047V613.728C272.929 613.558 272.959 613.389 273.022 613.23C273.084 613.072 273.177 612.927 273.295 612.805C273.413 612.682 273.555 612.584 273.711 612.517C273.867 612.449 274.036 612.413 274.206 612.411C274.377 612.405 274.549 612.434 274.709 612.496C274.869 612.557 275.015 612.651 275.138 612.771C275.261 612.891 275.359 613.034 275.425 613.193C275.491 613.351 275.525 613.521 275.523 613.693V614.038C275.585 617.702 274.483 621.29 272.376 624.288C272.251 624.447 272.091 624.575 271.908 624.661C271.726 624.747 271.525 624.789 271.323 624.783V624.766ZM244.233 622.599C244.056 622.598 243.881 622.562 243.718 622.492C243.556 622.422 243.409 622.32 243.287 622.192C240.88 619.597 238.672 616.824 236.682 613.897C236.563 613.709 236.488 613.498 236.461 613.277C235.328 615.223 234.349 617.254 233.534 619.353C233.488 619.527 233.407 619.689 233.295 619.829C233.183 619.97 233.042 620.085 232.883 620.168C232.724 620.251 232.549 620.3 232.37 620.312C232.191 620.324 232.011 620.298 231.842 620.236C231.674 620.174 231.52 620.078 231.39 619.953C231.261 619.828 231.159 619.678 231.091 619.512C231.023 619.345 230.991 619.167 230.996 618.987C231.001 618.808 231.043 618.631 231.121 618.469C232.41 615.136 234.087 611.965 236.116 609.024C236.31 608.74 236.608 608.544 236.945 608.481C237.112 608.449 237.284 608.451 237.45 608.485C237.617 608.52 237.775 608.587 237.915 608.683C238.056 608.779 238.176 608.901 238.269 609.044C238.362 609.186 238.427 609.345 238.458 609.512C238.49 609.68 238.488 609.851 238.453 610.018C238.419 610.184 238.352 610.342 238.256 610.483C237.911 610.987 237.584 611.5 237.265 612.004C237.54 611.894 237.843 611.88 238.126 611.965C238.409 612.05 238.654 612.229 238.822 612.473C240.734 615.282 242.856 617.943 245.17 620.432C245.344 620.616 245.46 620.847 245.505 621.097C245.55 621.346 245.52 621.603 245.421 621.836C245.321 622.069 245.156 622.268 244.945 622.408C244.733 622.548 244.486 622.624 244.233 622.625V622.599ZM232.332 605.53C232.099 605.532 231.87 605.47 231.669 605.352C231.468 605.233 231.303 605.063 231.191 604.858C229.556 601.843 228.008 598.668 226.594 595.395C226.512 595.237 226.463 595.064 226.451 594.886C226.439 594.709 226.464 594.53 226.524 594.363C226.583 594.195 226.677 594.041 226.798 593.911C226.92 593.781 227.067 593.677 227.23 593.606C227.393 593.535 227.569 593.498 227.747 593.498C227.925 593.498 228.101 593.535 228.265 593.605C228.428 593.676 228.575 593.78 228.697 593.91C228.818 594.039 228.912 594.193 228.972 594.361C230.351 597.553 231.872 600.666 233.472 603.62C233.555 603.77 233.607 603.935 233.625 604.106C233.643 604.276 233.628 604.449 233.579 604.613C233.531 604.777 233.45 604.931 233.343 605.064C233.235 605.197 233.101 605.307 232.951 605.389C232.76 605.487 232.547 605.536 232.332 605.53ZM271.297 605.132C271.08 605.132 270.866 605.076 270.676 604.971C270.486 604.866 270.325 604.715 270.209 604.531C269.002 602.597 267.311 601.011 265.302 599.932C264.489 599.501 263.647 599.126 262.782 598.809C262.46 598.692 262.197 598.451 262.052 598.14C261.907 597.829 261.892 597.473 262.009 597.151C262.126 596.828 262.367 596.566 262.677 596.421C262.988 596.275 263.344 596.26 263.667 596.377C264.64 596.731 265.588 597.151 266.505 597.633C268.904 598.932 270.928 600.826 272.384 603.134C272.565 603.421 272.625 603.767 272.552 604.098C272.479 604.429 272.279 604.718 271.995 604.902C271.791 605.047 271.547 605.127 271.297 605.132ZM243.888 603.01C243.622 603.014 243.362 602.937 243.141 602.789C242.921 602.641 242.751 602.429 242.654 602.181C242.558 601.934 242.54 601.663 242.602 601.404C242.665 601.146 242.805 600.913 243.004 600.737C245.792 598.294 249.128 596.559 252.729 595.678C252.899 595.629 253.078 595.614 253.253 595.636C253.429 595.658 253.598 595.715 253.751 595.805C253.904 595.894 254.036 596.014 254.141 596.156C254.246 596.299 254.321 596.462 254.36 596.634C254.4 596.806 254.404 596.985 254.373 597.159C254.341 597.333 254.274 597.499 254.176 597.647C254.078 597.794 253.951 597.92 253.802 598.016C253.654 598.113 253.487 598.178 253.313 598.208C250.137 598.99 247.195 600.524 244.737 602.683C244.494 602.899 244.178 603.016 243.852 603.01H243.888ZM224.065 586.463C223.794 586.464 223.53 586.378 223.311 586.219C223.092 586.06 222.929 585.836 222.845 585.579C221.713 582.254 220.714 578.858 219.874 575.488C219.793 575.154 219.848 574.802 220.025 574.507C220.202 574.213 220.487 574 220.82 573.914C220.986 573.87 221.158 573.861 221.328 573.885C221.497 573.909 221.66 573.967 221.806 574.055C221.953 574.143 222.081 574.26 222.182 574.398C222.282 574.537 222.355 574.694 222.394 574.86C223.216 578.159 224.162 581.484 225.294 584.739C225.404 585.064 225.381 585.419 225.23 585.727C225.08 586.035 224.813 586.271 224.489 586.384C224.341 586.435 224.186 586.462 224.03 586.463H224.065ZM219.069 566.282C218.761 566.28 218.463 566.168 218.228 565.968C217.994 565.767 217.837 565.49 217.787 565.185C217.239 561.648 216.859 558.11 216.656 554.723C216.656 554.391 216.783 554.072 217.01 553.831C217.238 553.59 217.549 553.445 217.88 553.426C218.211 553.407 218.537 553.515 218.791 553.728C219.045 553.941 219.208 554.243 219.246 554.573C219.441 557.924 219.812 561.356 220.351 564.778C220.403 565.118 220.318 565.464 220.116 565.742C219.914 566.02 219.611 566.208 219.273 566.264L219.069 566.282ZM217.885 545.543H217.823C217.479 545.525 217.157 545.371 216.927 545.116C216.697 544.861 216.577 544.525 216.594 544.181C216.76 540.666 217.132 537.164 217.708 533.693C217.765 533.352 217.955 533.049 218.236 532.849C218.517 532.649 218.866 532.569 219.206 532.627C219.546 532.684 219.85 532.875 220.05 533.156C220.249 533.437 220.329 533.786 220.272 534.126C219.709 537.495 219.346 540.894 219.184 544.305C219.168 544.645 219.019 544.965 218.77 545.197C218.52 545.429 218.19 545.553 217.849 545.543H217.885ZM221.359 525.088C221.231 525.087 221.103 525.07 220.979 525.035C220.815 524.987 220.661 524.907 220.527 524.8C220.394 524.692 220.283 524.56 220.2 524.409C220.118 524.259 220.067 524.094 220.049 523.923C220.03 523.753 220.046 523.58 220.095 523.416C221.123 520.041 222.382 516.74 223.862 513.538C224.022 513.253 224.284 513.039 224.595 512.939C224.906 512.838 225.243 512.859 225.539 512.996C225.836 513.133 226.07 513.377 226.195 513.679C226.32 513.981 226.326 514.319 226.213 514.625C224.784 517.72 223.567 520.908 222.571 524.168C222.492 524.436 222.327 524.671 222.102 524.837C221.877 525.003 221.604 525.091 221.324 525.088H221.359ZM230.086 506.286C229.837 506.285 229.594 506.211 229.388 506.074C229.106 505.887 228.907 505.598 228.834 505.268C228.762 504.938 228.821 504.592 228.999 504.305C230.923 501.351 233.047 498.532 235.356 495.868C235.587 495.63 235.9 495.489 236.232 495.475C236.563 495.46 236.887 495.573 237.138 495.79C237.389 496.007 237.548 496.312 237.581 496.642C237.615 496.972 237.521 497.303 237.319 497.566C235.086 500.14 233.032 502.864 231.174 505.72C231.05 505.901 230.881 506.049 230.685 506.148C230.489 506.247 230.27 506.294 230.051 506.286H230.086ZM513.072 499.671C509.606 499.618 506.087 499.485 502.621 499.273C502.451 499.262 502.286 499.218 502.133 499.144C501.98 499.069 501.844 498.965 501.731 498.838C501.619 498.711 501.533 498.563 501.477 498.402C501.422 498.241 501.399 498.071 501.41 497.902C501.42 497.732 501.464 497.566 501.538 497.414C501.613 497.261 501.717 497.125 501.844 497.012C501.971 496.9 502.119 496.813 502.28 496.758C502.441 496.703 502.61 496.68 502.78 496.69C506.211 496.894 509.685 497.026 513.107 497.079C513.432 497.106 513.735 497.254 513.956 497.494C514.177 497.734 514.3 498.049 514.3 498.375C514.3 498.701 514.177 499.016 513.956 499.256C513.735 499.496 513.432 499.644 513.107 499.671H513.072ZM523.469 499.582C523.144 499.555 522.841 499.407 522.62 499.167C522.399 498.927 522.277 498.613 522.277 498.287C522.277 497.96 522.399 497.646 522.62 497.406C522.841 497.166 523.144 497.018 523.469 496.991C526.882 496.885 530.357 496.69 533.788 496.416C533.957 496.403 534.128 496.423 534.289 496.476C534.451 496.528 534.601 496.612 534.73 496.722C534.86 496.833 534.966 496.968 535.043 497.119C535.12 497.271 535.167 497.436 535.18 497.606C535.194 497.775 535.173 497.946 535.121 498.108C535.068 498.269 534.984 498.419 534.874 498.548C534.764 498.678 534.629 498.784 534.477 498.861C534.326 498.939 534.161 498.985 533.991 498.999C530.525 499.273 527.006 499.467 523.549 499.582H523.469ZM492.32 498.406H492.188C488.775 498.043 485.282 497.592 481.816 497.079C481.497 497.007 481.216 496.817 481.031 496.546C480.846 496.276 480.769 495.945 480.817 495.621C480.865 495.296 481.034 495.002 481.29 494.797C481.546 494.592 481.87 494.491 482.197 494.515C485.627 495.028 489.084 495.461 492.462 495.824C492.631 495.833 492.797 495.876 492.95 495.949C493.103 496.022 493.241 496.125 493.354 496.252C493.467 496.378 493.554 496.526 493.611 496.686C493.667 496.846 493.691 497.016 493.682 497.186C493.673 497.355 493.63 497.521 493.557 497.674C493.483 497.827 493.38 497.965 493.254 498.078C493.127 498.191 492.98 498.279 492.82 498.335C492.66 498.391 492.49 498.415 492.32 498.406ZM544.203 497.902C543.881 497.89 543.575 497.758 543.344 497.533C543.113 497.308 542.975 497.005 542.955 496.683C542.935 496.361 543.035 496.043 543.237 495.791C543.438 495.539 543.726 495.371 544.044 495.32C547.43 494.895 550.87 494.382 554.274 493.798C554.447 493.755 554.628 493.748 554.805 493.778C554.982 493.807 555.15 493.873 555.3 493.971C555.45 494.069 555.578 494.197 555.676 494.347C555.774 494.497 555.841 494.666 555.871 494.842C555.901 495.019 555.894 495.2 555.85 495.374C555.807 495.548 555.728 495.711 555.619 495.853C555.51 495.995 555.372 496.112 555.215 496.199C555.058 496.285 554.885 496.338 554.707 496.354C551.276 496.938 547.793 497.46 544.362 497.893L544.203 497.902ZM471.755 495.32C471.675 495.328 471.595 495.328 471.516 495.32C468.191 494.692 464.752 493.984 461.286 493.206C461.11 493.179 460.941 493.115 460.791 493.02C460.64 492.924 460.511 492.799 460.41 492.652C460.31 492.504 460.242 492.338 460.209 492.162C460.175 491.987 460.179 491.807 460.218 491.633C460.258 491.459 460.333 491.295 460.438 491.152C460.544 491.008 460.678 490.887 460.832 490.798C460.986 490.708 461.157 490.651 461.334 490.63C461.511 490.609 461.69 490.625 461.861 490.677C465.291 491.446 468.704 492.153 471.993 492.773C472.307 492.837 472.586 493.014 472.777 493.272C472.968 493.529 473.057 493.847 473.027 494.166C472.998 494.485 472.851 494.782 472.617 495C472.382 495.217 472.075 495.341 471.755 495.346V495.32ZM564.698 494.364C564.382 494.356 564.081 494.233 563.849 494.019C563.617 493.804 563.472 493.513 563.439 493.199C563.407 492.885 563.49 492.569 563.672 492.312C563.855 492.054 564.126 491.872 564.433 491.8C567.757 491.075 571.144 490.27 574.495 489.403C574.663 489.348 574.841 489.329 575.017 489.345C575.194 489.362 575.365 489.414 575.52 489.499C575.676 489.584 575.812 489.7 575.921 489.84C576.03 489.98 576.109 490.14 576.154 490.312C576.199 490.483 576.208 490.662 576.181 490.837C576.154 491.012 576.092 491.18 575.997 491.33C575.903 491.48 575.779 491.61 575.633 491.71C575.488 491.811 575.323 491.88 575.149 491.915C571.762 492.799 568.341 493.604 564.981 494.329C564.889 494.354 564.793 494.366 564.698 494.364ZM451.463 490.747C451.353 490.745 451.243 490.73 451.136 490.703C447.891 489.872 444.593 488.987 441.065 487.997C440.901 487.95 440.747 487.872 440.613 487.766C440.479 487.66 440.368 487.529 440.284 487.38C440.201 487.231 440.148 487.067 440.128 486.898C440.108 486.728 440.121 486.556 440.168 486.392C440.214 486.227 440.293 486.074 440.398 485.94C440.504 485.806 440.635 485.694 440.784 485.611C440.933 485.527 441.097 485.474 441.267 485.454C441.437 485.434 441.608 485.448 441.773 485.494C445.309 486.485 448.554 487.369 451.781 488.147C452.085 488.228 452.348 488.416 452.524 488.677C452.699 488.937 452.774 489.252 452.735 489.564C452.697 489.875 452.546 490.162 452.313 490.372C452.079 490.581 451.777 490.699 451.463 490.703V490.747ZM243.605 490.562C243.423 490.563 243.242 490.524 243.076 490.45C242.91 490.375 242.761 490.265 242.641 490.128C242.527 490.001 242.44 489.853 242.383 489.692C242.327 489.531 242.303 489.361 242.313 489.191C242.323 489.021 242.366 488.854 242.441 488.701C242.515 488.547 242.62 488.41 242.747 488.298C245.375 485.965 248.135 483.786 251.014 481.771C251.153 481.661 251.312 481.581 251.483 481.535C251.654 481.489 251.832 481.478 252.007 481.503C252.182 481.529 252.35 481.589 252.501 481.682C252.652 481.774 252.782 481.897 252.884 482.041C252.986 482.186 253.057 482.35 253.093 482.523C253.13 482.696 253.13 482.875 253.095 483.048C253.06 483.222 252.99 483.386 252.889 483.531C252.788 483.677 252.659 483.8 252.508 483.893C249.708 485.849 247.025 487.966 244.471 490.234C244.237 490.457 243.928 490.583 243.605 490.588V490.562ZM584.839 489.147C584.531 489.143 584.233 489.029 584.001 488.826C583.768 488.624 583.615 488.345 583.57 488.039C583.524 487.734 583.588 487.422 583.751 487.16C583.914 486.898 584.165 486.702 584.459 486.608C587.713 485.627 591.028 484.557 594.317 483.434C594.478 483.375 594.649 483.35 594.82 483.358C594.991 483.365 595.158 483.407 595.313 483.48C595.468 483.552 595.607 483.655 595.722 483.781C595.837 483.907 595.926 484.055 595.984 484.216C596.042 484.377 596.068 484.548 596.06 484.719C596.052 484.889 596.011 485.057 595.938 485.212C595.865 485.367 595.763 485.506 595.637 485.621C595.51 485.736 595.362 485.825 595.202 485.883C591.877 487.024 588.535 488.103 585.255 489.085C585.123 489.141 584.982 489.171 584.839 489.173V489.147ZM431.472 485.149C431.344 485.149 431.216 485.131 431.092 485.096C427.75 484.088 424.431 483.068 421.136 482.036C420.826 481.919 420.573 481.687 420.428 481.388C420.283 481.09 420.258 480.747 420.357 480.431C420.457 480.115 420.673 479.848 420.963 479.686C421.252 479.524 421.593 479.479 421.914 479.56C425.195 480.586 428.51 481.612 431.844 482.611C432.137 482.705 432.387 482.9 432.55 483.161C432.713 483.422 432.779 483.733 432.734 484.038C432.689 484.342 432.538 484.621 432.307 484.825C432.076 485.029 431.78 485.143 431.472 485.149ZM604.556 482.443C604.252 482.446 603.956 482.342 603.721 482.148C603.487 481.955 603.328 481.685 603.273 481.385C603.218 481.086 603.27 480.777 603.421 480.512C603.572 480.248 603.811 480.045 604.096 479.94C605.414 479.436 606.749 478.923 608.084 478.393L613.751 476.129C613.911 476.062 614.081 476.027 614.254 476.027C614.427 476.027 614.597 476.062 614.757 476.128C614.916 476.195 615.06 476.293 615.181 476.416C615.302 476.539 615.397 476.685 615.461 476.845C615.525 477.006 615.557 477.177 615.554 477.35C615.551 477.522 615.514 477.693 615.444 477.851C615.375 478.009 615.274 478.151 615.149 478.27C615.024 478.389 614.877 478.482 614.715 478.543L609.039 480.798C607.686 481.338 606.386 481.85 605.016 482.363C604.857 482.42 604.689 482.447 604.521 482.443H604.556ZM411.605 478.967C411.473 478.969 411.341 478.948 411.216 478.906C407.891 477.856 404.585 476.815 401.296 475.784C400.99 475.664 400.742 475.432 400.6 475.136C400.458 474.84 400.433 474.502 400.53 474.188C400.628 473.875 400.84 473.61 401.125 473.446C401.409 473.283 401.745 473.233 402.065 473.307C405.366 474.333 408.675 475.377 411.994 476.438C412.294 476.527 412.551 476.721 412.718 476.985C412.886 477.248 412.952 477.564 412.904 477.873C412.857 478.182 412.699 478.463 412.46 478.664C412.221 478.865 411.917 478.973 411.605 478.967ZM260.607 478.64C260.32 478.64 260.042 478.544 259.815 478.369C259.588 478.193 259.425 477.947 259.353 477.669C259.28 477.392 259.301 477.098 259.413 476.834C259.525 476.569 259.721 476.349 259.971 476.208C262.95 474.546 266.107 472.963 269.369 471.503C269.524 471.434 269.692 471.395 269.862 471.39C270.031 471.385 270.201 471.414 270.359 471.474C270.518 471.534 270.664 471.625 270.787 471.742C270.911 471.858 271.011 471.998 271.08 472.153C271.15 472.308 271.188 472.476 271.193 472.646C271.199 472.815 271.17 472.985 271.11 473.144C271.049 473.302 270.958 473.448 270.842 473.572C270.725 473.695 270.585 473.795 270.43 473.865C267.239 475.297 264.144 476.845 261.235 478.472C261.034 478.589 260.804 478.648 260.572 478.64H260.607ZM623.884 474.731C623.584 474.74 623.29 474.644 623.053 474.459C622.817 474.274 622.652 474.013 622.587 473.72C622.522 473.427 622.561 473.12 622.698 472.853C622.835 472.585 623.06 472.374 623.336 472.255C626.554 470.934 629.758 469.614 632.947 468.293C633.106 468.217 633.278 468.174 633.455 468.167C633.631 468.16 633.806 468.188 633.971 468.251C634.136 468.314 634.286 468.41 634.413 468.533C634.539 468.655 634.639 468.803 634.707 468.965C634.775 469.128 634.809 469.303 634.807 469.479C634.805 469.656 634.768 469.83 634.696 469.991C634.625 470.152 634.522 470.297 634.393 470.418C634.264 470.538 634.112 470.63 633.946 470.69C630.745 472.016 627.533 473.337 624.308 474.652C624.162 474.709 624.006 474.736 623.849 474.731H623.884ZM391.685 472.803C391.559 472.803 391.434 472.785 391.313 472.75C387.715 471.68 384.452 470.743 381.34 469.894C381.165 469.859 380.999 469.789 380.853 469.687C380.706 469.585 380.582 469.455 380.488 469.303C380.394 469.152 380.333 468.982 380.307 468.806C380.281 468.629 380.292 468.449 380.339 468.277C380.386 468.105 380.468 467.945 380.579 467.805C380.691 467.666 380.83 467.552 380.987 467.468C381.145 467.385 381.318 467.336 381.496 467.322C381.674 467.309 381.852 467.332 382.021 467.391C385.16 468.275 388.44 469.16 392.047 470.265C392.34 470.359 392.59 470.553 392.753 470.813C392.917 471.074 392.982 471.383 392.939 471.688C392.895 471.992 392.746 472.271 392.516 472.475C392.286 472.679 391.992 472.796 391.685 472.803ZM279.493 470.097C279.186 470.102 278.887 469.997 278.65 469.802C278.413 469.606 278.254 469.333 278.201 469.03C278.147 468.727 278.204 468.416 278.36 468.151C278.516 467.886 278.761 467.686 279.051 467.586L279.997 467.249C282.994 466.188 286.036 465.215 289.042 464.366C289.21 464.304 289.389 464.278 289.568 464.288C289.747 464.299 289.922 464.346 290.081 464.427C290.241 464.508 290.382 464.622 290.496 464.76C290.61 464.899 290.694 465.059 290.742 465.231C290.791 465.404 290.804 465.584 290.78 465.762C290.756 465.939 290.695 466.11 290.602 466.263C290.509 466.416 290.385 466.548 290.238 466.651C290.091 466.753 289.925 466.825 289.749 466.86C286.796 467.745 283.808 468.629 280.855 469.69L279.971 470.018C279.823 470.071 279.668 470.098 279.511 470.097H279.493ZM371.614 467.338C371.514 467.35 371.413 467.35 371.314 467.338C367.848 466.507 364.452 465.764 361.208 465.118C360.885 465.036 360.606 464.834 360.428 464.552C360.251 464.271 360.188 463.932 360.252 463.606C360.317 463.279 360.504 462.99 360.776 462.797C361.047 462.605 361.382 462.524 361.712 462.571C364.983 463.226 368.422 463.977 371.924 464.817C372.226 464.898 372.49 465.086 372.665 465.345C372.841 465.605 372.916 465.919 372.879 466.23C372.841 466.541 372.692 466.828 372.46 467.038C372.228 467.248 371.927 467.367 371.614 467.373V467.338ZM643.053 466.737C642.752 466.742 642.459 466.641 642.224 466.453C641.989 466.265 641.827 466.001 641.767 465.707C641.706 465.412 641.75 465.105 641.891 464.84C642.032 464.574 642.262 464.366 642.54 464.251C645.746 462.89 648.932 461.525 652.098 460.157C652.408 460.046 652.749 460.057 653.052 460.188C653.354 460.319 653.596 460.56 653.727 460.862C653.859 461.165 653.87 461.506 653.76 461.817C653.649 462.127 653.425 462.384 653.132 462.536C649.961 463.904 646.769 465.271 643.557 466.639C643.402 466.703 643.237 466.736 643.07 466.737H643.053ZM299.493 464.437C299.177 464.429 298.876 464.306 298.644 464.092C298.412 463.877 298.267 463.585 298.234 463.271C298.202 462.957 298.285 462.642 298.467 462.385C298.65 462.127 298.92 461.945 299.228 461.872C302.658 461.165 306.142 460.581 309.59 460.104C309.919 460.084 310.243 460.19 310.497 460.401C310.751 460.611 310.915 460.91 310.957 461.237C310.998 461.565 310.914 461.895 310.721 462.163C310.528 462.43 310.241 462.614 309.917 462.677C306.54 463.111 303.118 463.685 299.758 464.384L299.493 464.437ZM351.217 463.341H351.013C347.547 462.836 344.099 462.456 340.757 462.147C340.415 462.115 340.099 461.95 339.879 461.686C339.659 461.423 339.551 461.083 339.581 460.74C339.594 460.571 339.641 460.406 339.719 460.255C339.796 460.104 339.903 459.969 340.033 459.86C340.163 459.751 340.314 459.668 340.476 459.617C340.638 459.567 340.809 459.549 340.978 459.564C344.373 459.856 347.866 460.263 351.385 460.776C351.716 460.813 352.019 460.978 352.232 461.234C352.445 461.49 352.551 461.819 352.527 462.152C352.503 462.484 352.351 462.795 352.104 463.018C351.856 463.241 351.532 463.36 351.199 463.349L351.217 463.341ZM320.112 461.775C319.78 461.773 319.462 461.645 319.222 461.417C318.982 461.188 318.839 460.877 318.821 460.546C318.81 460.376 318.833 460.206 318.889 460.045C318.945 459.884 319.032 459.736 319.145 459.609C319.259 459.482 319.397 459.379 319.55 459.306C319.704 459.233 319.871 459.192 320.041 459.184C322.57 459.042 325.143 458.981 327.698 458.981H327.742C328.679 458.981 329.608 458.981 330.536 458.981C330.881 458.988 331.208 459.131 331.447 459.38C331.686 459.629 331.816 459.962 331.809 460.307C331.802 460.652 331.658 460.98 331.41 461.219C331.161 461.457 330.828 461.588 330.483 461.581C329.555 461.581 328.644 461.581 327.698 461.581C325.196 461.581 322.667 461.643 320.182 461.775H320.112ZM662.151 458.476C661.854 458.474 661.568 458.37 661.339 458.182C661.11 457.994 660.952 457.734 660.891 457.444C660.83 457.154 660.87 456.852 661.004 456.588C661.139 456.324 661.359 456.113 661.629 455.991C664.812 454.582 667.977 453.17 671.125 451.755C671.436 451.634 671.781 451.637 672.09 451.764C672.398 451.89 672.647 452.131 672.783 452.435C672.919 452.74 672.933 453.085 672.822 453.4C672.711 453.714 672.483 453.974 672.186 454.125C669.038 455.54 665.867 456.952 662.672 458.361C662.514 458.436 662.343 458.475 662.168 458.476H662.151ZM681.134 449.925C680.839 449.923 680.553 449.822 680.323 449.637C680.094 449.451 679.934 449.194 679.87 448.906C679.806 448.618 679.842 448.316 679.972 448.052C680.102 447.787 680.319 447.574 680.585 447.448C683.751 445.992 686.892 444.518 690.011 443.026C690.166 442.937 690.339 442.88 690.517 442.86C690.696 442.841 690.877 442.858 691.048 442.912C691.22 442.966 691.378 443.054 691.514 443.172C691.649 443.29 691.759 443.435 691.836 443.598C691.912 443.761 691.954 443.937 691.959 444.117C691.964 444.297 691.932 444.475 691.864 444.642C691.797 444.808 691.695 444.959 691.566 445.084C691.438 445.21 691.284 445.307 691.116 445.37C687.986 446.844 684.838 448.318 681.673 449.792C681.511 449.875 681.333 449.92 681.151 449.925H681.134ZM699.966 441.081C699.672 441.084 699.385 440.987 699.154 440.804C698.922 440.622 698.76 440.366 698.694 440.079C698.628 439.792 698.662 439.491 698.79 439.226C698.919 438.961 699.134 438.748 699.4 438.622C702.542 437.113 705.657 435.595 708.746 434.068C708.899 433.993 709.065 433.949 709.234 433.938C709.404 433.927 709.574 433.95 709.735 434.005C709.896 434.06 710.045 434.146 710.172 434.259C710.3 434.371 710.404 434.508 710.479 434.66C710.554 434.813 710.598 434.979 710.609 435.149C710.62 435.318 710.597 435.489 710.542 435.65C710.487 435.811 710.401 435.959 710.288 436.087C710.176 436.214 710.039 436.319 709.887 436.394C706.792 437.915 703.671 439.436 700.523 440.957C700.353 441.028 700.169 441.061 699.984 441.054L699.966 441.081ZM718.631 431.874C718.338 431.878 718.053 431.781 717.823 431.601C717.592 431.421 717.429 431.167 717.362 430.883C717.294 430.598 717.325 430.298 717.449 430.034C717.574 429.769 717.785 429.554 718.047 429.425C721.16 427.851 724.243 426.27 727.296 424.684C727.601 424.526 727.956 424.495 728.283 424.599C728.611 424.703 728.884 424.932 729.042 425.237C729.2 425.542 729.231 425.897 729.127 426.225C729.024 426.553 728.794 426.826 728.489 426.984C725.43 428.576 722.339 430.159 719.215 431.733C719.037 431.814 718.844 431.854 718.649 431.848L718.631 431.874ZM737.101 422.288C736.814 422.285 736.535 422.187 736.309 422.009C736.083 421.83 735.923 421.582 735.853 421.303C735.784 421.024 735.808 420.73 735.924 420.466C736.039 420.203 736.239 419.985 736.491 419.847C739.568 418.211 742.68 416.548 745.633 414.903C745.783 414.805 745.952 414.74 746.128 414.71C746.305 414.68 746.486 414.687 746.66 414.731C746.833 414.774 746.996 414.853 747.138 414.963C747.28 415.072 747.397 415.21 747.483 415.367C747.57 415.524 747.622 415.697 747.638 415.875C747.654 416.053 747.634 416.233 747.577 416.403C747.52 416.573 747.429 416.729 747.309 416.862C747.189 416.995 747.043 417.102 746.88 417.176C743.874 418.821 740.797 420.493 737.711 422.137C737.525 422.222 737.323 422.264 737.119 422.261L737.101 422.288ZM755.35 412.268C755.065 412.266 754.789 412.17 754.564 411.996C754.339 411.822 754.177 411.578 754.103 411.303C754.03 411.027 754.049 410.735 754.158 410.472C754.267 410.209 754.459 409.988 754.705 409.845C757.746 408.129 760.779 406.387 763.715 404.662C763.862 404.56 764.028 404.489 764.204 404.455C764.38 404.42 764.561 404.422 764.736 404.46C764.911 404.499 765.076 404.573 765.221 404.679C765.366 404.784 765.488 404.919 765.578 405.073C765.668 405.228 765.726 405.4 765.747 405.578C765.768 405.756 765.752 405.936 765.7 406.108C765.648 406.279 765.561 406.438 765.444 406.575C765.328 406.711 765.184 406.822 765.023 406.9C762.097 408.58 759.055 410.349 756.005 412.118C755.806 412.212 755.587 412.255 755.368 412.241L755.35 412.268ZM773.317 401.762C773.031 401.766 772.753 401.676 772.524 401.505C772.296 401.334 772.13 401.093 772.053 400.818C771.976 400.543 771.993 400.251 772.1 399.986C772.207 399.722 772.398 399.5 772.645 399.356C775.633 397.543 778.604 395.712 781.486 393.899C781.63 393.796 781.793 393.724 781.966 393.686C782.139 393.648 782.318 393.646 782.492 393.68C782.665 393.714 782.83 393.783 782.976 393.883C783.122 393.983 783.247 394.111 783.341 394.261C783.436 394.41 783.499 394.578 783.527 394.753C783.555 394.927 783.546 395.106 783.503 395.277C783.459 395.449 783.381 395.61 783.273 395.75C783.165 395.89 783.029 396.007 782.874 396.093C779.983 397.914 776.995 399.754 774.033 401.576C773.819 401.692 773.577 401.747 773.334 401.735L773.317 401.762ZM790.929 390.671C790.649 390.674 790.376 390.585 790.15 390.419C789.925 390.252 789.76 390.017 789.68 389.748C789.6 389.48 789.61 389.192 789.707 388.93C789.805 388.667 789.986 388.443 790.222 388.292C793.166 386.365 796.066 384.419 798.842 382.509C799.124 382.328 799.465 382.262 799.793 382.324C800.122 382.387 800.415 382.573 800.611 382.845C800.796 383.125 800.865 383.467 800.802 383.797C800.739 384.128 800.55 384.42 800.275 384.613C797.481 386.533 794.563 388.487 791.601 390.424C791.408 390.556 791.181 390.633 790.947 390.645L790.929 390.671ZM808.126 378.865C807.851 378.868 807.583 378.783 807.36 378.622C807.137 378.462 806.971 378.234 806.886 377.972C806.801 377.711 806.802 377.429 806.888 377.168C806.974 376.907 807.142 376.681 807.366 376.521C810.23 374.452 813.033 372.374 815.703 370.331C815.839 370.228 815.993 370.153 816.157 370.11C816.321 370.067 816.493 370.056 816.661 370.079C816.829 370.102 816.991 370.158 817.138 370.244C817.285 370.329 817.413 370.443 817.516 370.578C817.619 370.714 817.694 370.868 817.737 371.032C817.78 371.197 817.791 371.368 817.768 371.536C817.745 371.705 817.689 371.867 817.603 372.013C817.517 372.16 817.404 372.289 817.268 372.391C814.616 374.434 811.769 376.53 808.886 378.582C808.669 378.753 808.403 378.852 808.126 378.865ZM824.669 366.236C824.476 366.236 824.286 366.193 824.111 366.11C823.937 366.028 823.783 365.908 823.661 365.759C823.553 365.627 823.472 365.475 823.423 365.312C823.374 365.149 823.358 364.978 823.375 364.809C823.392 364.64 823.443 364.476 823.524 364.326C823.605 364.176 823.714 364.044 823.847 363.937C826.587 361.708 829.249 359.462 831.804 357.26C832.066 357.059 832.395 356.965 832.724 356.997C833.053 357.03 833.357 357.187 833.574 357.436C833.792 357.685 833.906 358.007 833.894 358.338C833.882 358.668 833.745 358.981 833.51 359.214C830.973 361.434 828.285 363.698 825.553 365.944C825.3 366.152 824.978 366.257 824.651 366.236H824.669ZM840.31 352.519C840.052 352.516 839.801 352.436 839.588 352.29C839.376 352.144 839.212 351.937 839.117 351.697C839.022 351.458 839.001 351.195 839.056 350.943C839.111 350.691 839.24 350.461 839.426 350.282C841.998 347.832 844.448 345.374 846.72 342.968C846.836 342.845 846.975 342.745 847.13 342.675C847.285 342.605 847.451 342.567 847.621 342.561C847.79 342.556 847.959 342.584 848.118 342.644C848.277 342.704 848.422 342.795 848.546 342.911C848.669 343.027 848.769 343.166 848.839 343.321C848.909 343.476 848.947 343.642 848.953 343.812C848.958 343.982 848.93 344.151 848.87 344.309C848.81 344.468 848.719 344.613 848.603 344.737C846.304 347.178 843.82 349.672 841.212 352.148C841.092 352.269 840.948 352.365 840.79 352.428C840.632 352.492 840.462 352.523 840.292 352.519H840.31ZM854.554 337.37C854.252 337.371 853.961 337.264 853.731 337.069C853.6 336.962 853.491 336.829 853.411 336.679C853.331 336.529 853.281 336.365 853.264 336.195C853.248 336.026 853.265 335.855 853.315 335.693C853.365 335.53 853.446 335.379 853.554 335.248C855.827 332.506 857.931 329.756 859.806 327.067C860.003 326.786 860.303 326.594 860.641 326.534C860.98 326.475 861.328 326.552 861.609 326.749C861.891 326.946 862.082 327.247 862.142 327.585C862.202 327.923 862.124 328.271 861.927 328.553C860.009 331.303 857.869 334.107 855.553 336.901C855.429 337.051 855.274 337.171 855.098 337.252C854.922 337.333 854.73 337.373 854.536 337.37H854.554ZM866.366 320.302C866.141 320.302 865.919 320.244 865.724 320.133C865.528 320.021 865.365 319.861 865.25 319.667C865.136 319.473 865.074 319.252 865.071 319.027C865.069 318.801 865.125 318.579 865.234 318.383C866.879 315.405 868.315 312.317 869.531 309.141C869.572 308.961 869.651 308.792 869.763 308.645C869.874 308.498 870.015 308.376 870.177 308.288C870.339 308.2 870.518 308.147 870.702 308.133C870.886 308.12 871.071 308.145 871.244 308.209C871.417 308.272 871.575 308.371 871.707 308.5C871.839 308.629 871.942 308.785 872.009 308.957C872.076 309.129 872.106 309.313 872.097 309.497C872.087 309.681 872.038 309.861 871.954 310.025C870.705 313.314 869.228 316.512 867.533 319.594C867.423 319.812 867.253 319.994 867.043 320.12C866.833 320.245 866.592 320.308 866.348 320.302H866.366ZM873.528 300.925H873.298C873.131 300.895 872.971 300.833 872.828 300.741C872.684 300.649 872.561 300.53 872.464 300.39C872.367 300.25 872.299 300.093 872.263 299.927C872.227 299.761 872.224 299.589 872.255 299.422C872.712 296.847 872.946 294.237 872.953 291.621C872.953 290.879 872.953 290.127 872.891 289.384C872.874 289.04 872.994 288.703 873.224 288.446C873.454 288.189 873.776 288.034 874.12 288.013H874.191C874.522 288.015 874.84 288.143 875.08 288.372C875.32 288.6 875.464 288.912 875.482 289.242C875.526 290.038 875.544 290.834 875.544 291.621C875.539 294.391 875.29 297.155 874.801 299.881C874.744 300.172 874.589 300.434 874.362 300.624C874.136 300.814 873.85 300.92 873.554 300.925H873.528ZM781.663 296.954C781.398 296.955 781.14 296.875 780.922 296.725C780.704 296.575 780.537 296.362 780.443 296.114C779.177 292.767 778.518 289.221 778.498 285.643V285.484C778.483 285.305 778.505 285.124 778.564 284.954C778.622 284.784 778.715 284.628 778.837 284.496C778.959 284.364 779.106 284.258 779.271 284.186C779.436 284.114 779.613 284.077 779.793 284.077C779.973 284.077 780.151 284.114 780.315 284.186C780.48 284.258 780.628 284.364 780.749 284.496C780.871 284.628 780.964 284.784 781.022 284.954C781.081 285.124 781.103 285.305 781.088 285.484V285.661C781.105 288.922 781.704 292.153 782.857 295.203C782.977 295.526 782.965 295.883 782.822 296.196C782.68 296.51 782.419 296.754 782.096 296.875C781.952 296.927 781.799 296.954 781.645 296.954H781.663ZM872.325 280.346C872.052 280.348 871.785 280.264 871.562 280.105C871.34 279.946 871.174 279.721 871.087 279.461L871.034 279.311C870.046 276.139 868.727 273.08 867.1 270.184C866.956 269.887 866.931 269.547 867.029 269.232C867.127 268.917 867.341 268.651 867.628 268.488C867.914 268.325 868.252 268.277 868.573 268.354C868.893 268.431 869.173 268.627 869.354 268.902C871.066 271.955 872.459 275.176 873.51 278.515L873.563 278.701C873.613 278.865 873.63 279.038 873.612 279.209C873.595 279.379 873.543 279.545 873.461 279.696C873.379 279.846 873.267 279.979 873.133 280.086C872.998 280.193 872.844 280.272 872.679 280.319C872.563 280.346 872.444 280.355 872.325 280.346ZM781.84 276.631C781.67 276.63 781.502 276.597 781.345 276.534C781.187 276.469 781.043 276.374 780.922 276.253C780.801 276.133 780.705 275.989 780.639 275.832C780.574 275.674 780.54 275.505 780.539 275.334C780.539 275.163 780.572 274.994 780.637 274.836C782.037 271.509 783.946 268.421 786.296 265.683C786.404 265.544 786.538 265.429 786.692 265.344C786.845 265.259 787.014 265.205 787.188 265.187C787.363 265.169 787.539 265.186 787.707 265.238C787.874 265.29 788.03 265.375 788.163 265.489C788.297 265.602 788.406 265.742 788.485 265.899C788.563 266.055 788.609 266.227 788.62 266.402C788.63 266.577 788.606 266.752 788.547 266.917C788.488 267.083 788.396 267.234 788.277 267.363C786.095 269.891 784.325 272.747 783.034 275.827C782.94 276.068 782.777 276.277 782.564 276.425C782.351 276.573 782.099 276.654 781.84 276.658V276.631ZM862.042 262.481C861.868 262.481 861.695 262.446 861.534 262.377C861.373 262.309 861.227 262.209 861.105 262.083C858.778 259.665 856.141 257.566 853.263 255.84C852.968 255.664 852.756 255.378 852.672 255.046C852.589 254.713 852.64 254.361 852.816 254.066C852.992 253.772 853.278 253.56 853.61 253.476C853.943 253.392 854.295 253.444 854.589 253.62C857.666 255.461 860.488 257.7 862.98 260.279C863.157 260.463 863.276 260.695 863.322 260.946C863.368 261.197 863.34 261.456 863.24 261.69C863.14 261.925 862.973 262.125 862.76 262.266C862.547 262.407 862.298 262.482 862.042 262.481ZM794.926 260.792C794.653 260.791 794.387 260.704 794.167 260.543C793.946 260.383 793.782 260.157 793.697 259.898C793.611 259.638 793.61 259.359 793.693 259.099C793.775 258.839 793.937 258.611 794.156 258.449C797.035 256.362 800.105 254.553 803.325 253.045C803.635 252.909 803.987 252.899 804.304 253.018C804.622 253.137 804.88 253.375 805.024 253.682C805.169 253.989 805.187 254.34 805.076 254.661C804.965 254.981 804.733 255.246 804.43 255.397C801.358 256.83 798.43 258.554 795.686 260.544C795.469 260.715 795.202 260.812 794.926 260.819V260.792ZM813.626 251.948C813.315 251.943 813.017 251.827 812.784 251.62C812.552 251.414 812.401 251.131 812.36 250.823C812.318 250.515 812.388 250.202 812.557 249.942C812.726 249.681 812.983 249.489 813.281 249.401C816.698 248.459 820.188 247.805 823.714 247.447C823.889 247.418 824.068 247.426 824.24 247.47C824.412 247.513 824.574 247.591 824.714 247.7C824.855 247.808 824.972 247.944 825.058 248.099C825.144 248.254 825.198 248.425 825.216 248.602C825.233 248.778 825.214 248.957 825.16 249.126C825.106 249.295 825.018 249.451 824.902 249.585C824.785 249.719 824.642 249.827 824.482 249.903C824.322 249.98 824.148 250.023 823.97 250.029C820.59 250.371 817.245 250.998 813.97 251.904C813.857 251.929 813.742 251.941 813.626 251.94V251.948ZM844.439 251.869C844.31 251.869 844.182 251.851 844.059 251.816C840.821 250.84 837.49 250.209 834.121 249.932C833.798 249.878 833.508 249.705 833.307 249.447C833.107 249.189 833.011 248.864 833.039 248.539C833.067 248.213 833.217 247.91 833.458 247.689C833.699 247.469 834.015 247.348 834.342 247.35C837.892 247.64 841.401 248.307 844.81 249.339C845.108 249.428 845.364 249.62 845.532 249.882C845.699 250.144 845.766 250.458 845.721 250.765C845.676 251.073 845.521 251.354 845.286 251.556C845.05 251.759 844.749 251.87 844.439 251.869Z" fill="#988BD6"/>
<path d="M790.045 310.362C789.861 310.364 789.679 310.326 789.512 310.251C789.344 310.176 789.194 310.066 789.072 309.929C787.861 308.558 786.738 307.169 785.739 305.79C785.639 305.652 785.567 305.496 785.528 305.331C785.488 305.166 785.482 304.994 785.508 304.826C785.535 304.658 785.594 304.497 785.683 304.352C785.772 304.207 785.889 304.081 786.026 303.981C786.164 303.881 786.32 303.81 786.485 303.77C786.651 303.73 786.822 303.724 786.99 303.75C787.158 303.777 787.319 303.837 787.464 303.926C787.609 304.014 787.735 304.131 787.834 304.269C788.825 305.633 789.885 306.947 791.009 308.204C791.177 308.39 791.287 308.62 791.327 308.868C791.366 309.115 791.333 309.369 791.23 309.598C791.128 309.826 790.962 310.02 790.751 310.156C790.541 310.292 790.295 310.363 790.045 310.362Z" fill="#988BD6"/>
<path d="M264.507 371.437L266.063 374.797L266.514 375.788L266.761 376.318L267 375.876C283.304 344.782 269.467 342.049 269.467 342.049C260.174 342.464 263.667 366.334 264.383 370.747C264.471 371.207 264.507 371.437 264.507 371.437Z" fill="#ACC924"/>
<path d="M263.879 372.065L265.373 375.443L265.815 376.443L266.054 376.973L265.55 376.841C231.067 367.74 238.318 355.881 238.318 355.881C244.887 349.434 260.581 368.023 263.437 371.508L263.879 372.065Z" fill="#ACC924"/>
<path d="M259.255 361.24L258.972 362.248L258.821 362.788L258.512 362.337C237.195 331.189 250.413 328.227 250.413 328.227C259.661 328.51 259.714 355.474 259.741 359.931L259.255 361.24Z" fill="#ACC924"/>
<path d="M281.474 397.897L283.454 401.028L284.038 401.912L284.347 402.408C284.4 402.24 284.462 402.08 284.515 401.921C296.098 368.156 282.225 367.607 282.225 367.607C273.224 369.491 279.944 392.883 281.261 397.19L281.474 397.897Z" fill="#ACC924"/>
<path d="M280.943 398.614L282.871 401.771L283.437 402.7L283.746 403.204L283.242 403.151C248.353 399.454 253.755 386.418 253.755 386.418C259.263 378.91 277.15 395.077 280.413 398.128L280.943 398.614Z" fill="#ACC924"/>
<path d="M307.689 419.822L310.766 421.652L311.65 422.192L312.137 422.484C312.137 422.298 312.083 422.121 312.048 421.944C306.027 384.871 294.321 391.645 294.321 391.645C287.76 398.093 304.108 416.045 307.176 419.309L307.689 419.822Z" fill="#ACC924"/>
<path d="M307.618 420.76L310.66 422.643L311.544 423.192L312.03 423.492L311.588 423.713C281.085 438.624 279.537 423.811 279.537 423.811C280.616 414.029 302.853 419.486 306.946 420.574L307.618 420.76Z" fill="#ACC924"/>
<path d="M338.794 424.668L342.11 425.774L343.082 426.101L343.613 426.269C343.542 426.092 343.48 425.924 343.418 425.756C330.023 390.222 320.235 399.738 320.235 399.738C315.302 407.697 334.612 421.767 338.219 424.297L338.794 424.668Z" fill="#ACC924"/>
<path d="M338.882 425.622L342.18 426.79L343.162 427.126L343.683 427.312L343.303 427.63C317.247 449.633 312.72 435.236 312.72 435.236C311.73 425.242 334.09 425.507 338.228 425.596L338.882 425.622Z" fill="#ACC924"/>
<path d="M366.088 437.641L369.351 438.976L370.306 439.366L370.827 439.578C370.765 439.401 370.712 439.224 370.659 439.056C359.484 402.859 349.05 411.552 349.05 411.552C343.586 419.096 362.074 434.431 365.54 437.199L366.088 437.641Z" fill="#ACC924"/>
<path d="M366.115 438.596L369.36 439.984L370.314 440.4L370.827 440.621L370.429 440.904C342.861 460.829 339.227 446.21 339.227 446.21C338.882 436.226 361.331 438.083 365.46 438.499L366.115 438.596Z" fill="#ACC924"/>
<path d="M386.159 459.069L388.599 461.819L389.315 462.633L389.704 463.066L389.784 462.553C395.345 426.559 381.826 428.638 381.826 428.638C373.436 432.237 383.851 454.373 385.84 458.432L386.159 459.069Z" fill="#ACC924"/>
<path d="M385.77 459.874L388.157 462.66L388.864 463.482L389.244 463.924H388.749C354.382 466.861 357.441 452.781 357.441 452.781C361.517 444.221 381.526 457.009 385.195 459.432L385.77 459.874Z" fill="#ACC924"/>
<path d="M382.242 436.041C385.399 444.109 387.517 452.546 388.546 461.148C388.546 461.343 388.546 461.573 388.599 461.821L389.315 462.634C389.271 462.236 389.236 461.962 389.236 461.962C387.317 444.628 382.242 436.041 382.242 436.041Z" fill="#6B9C28"/>
<path d="M369.837 438.649C360.633 423.615 352.649 418.22 352.649 418.22C358.689 423.994 364.007 430.48 368.484 437.535C360.828 431.578 351.952 427.384 342.49 425.251C332.446 410.96 324.232 406.149 324.232 406.149C330.808 411.696 336.657 418.052 341.641 425.065C336.598 423.995 331.456 423.467 326.301 423.491C321.111 423.483 315.961 422.57 311.084 420.794C304.091 405.114 297.035 398.685 297.035 398.685C302.32 405.386 306.773 412.703 310.297 420.476C299.882 416.531 291.093 409.12 284.055 401.072C284.993 384.057 281.403 374.842 281.403 374.842C283.218 383.209 283.932 391.777 283.525 400.329V400.4C280.446 396.821 277.591 393.055 274.975 389.124C271.95 384.562 269.175 379.839 266.664 374.974C269.98 358.516 267.619 348.956 267.619 348.956C268.275 357.359 267.806 365.812 266.222 374.09C262.938 367.742 260.084 361.18 257.681 354.448C257.618 354.25 257.503 354.073 257.347 353.936C257.191 353.799 257.001 353.707 256.797 353.67C255.067 347.583 253.913 341.347 253.348 335.045C253.348 335.045 252.836 341.846 256.213 353.785C256.023 353.91 255.881 354.097 255.81 354.314C255.739 354.531 255.744 354.765 255.824 354.979C258.262 361.81 261.157 368.47 264.489 374.913C257.277 370.532 250.657 365.244 244.79 359.18C244.79 359.18 250.413 367.272 265.002 375.921C267.542 380.816 270.337 385.574 273.375 390.177C275.933 394.033 278.711 397.739 281.695 401.276C274.129 398.021 267.019 393.793 260.546 388.7C260.546 388.7 267.15 395.934 282.57 402.302C291.217 412.233 300.572 419.105 310.351 422.642L310.05 422.695C302.134 423.774 294.101 423.652 286.222 422.333C286.222 422.333 295.063 425.543 310.978 423.217C310.978 423.217 311.235 423.217 311.597 423.129L311.297 422.952C316.194 424.65 321.339 425.523 326.522 425.534C331.531 425.545 336.525 426.088 341.42 427.153C334.182 430.01 326.548 431.74 318.785 432.282C318.785 432.282 327.919 433.405 342.543 427.409C352.13 429.612 361.08 433.998 368.696 440.224C361.188 442.579 353.365 443.772 345.496 443.761C345.496 443.761 354.444 445.53 369.298 440.763C371.28 442.42 373.163 444.192 374.939 446.069C379.589 450.964 383.54 456.479 386.68 462.457C378.897 460.62 371.392 457.756 364.364 453.94C364.364 453.94 371.676 459.698 387.052 463.173C388.104 465.26 388.608 466.543 388.626 466.578C388.709 466.838 388.891 467.055 389.131 467.184C389.372 467.313 389.654 467.343 389.916 467.268C389.961 467.259 390.003 467.241 390.04 467.215C390.25 467.089 390.406 466.892 390.481 466.659C390.556 466.426 390.544 466.174 390.447 465.95C387.052 458.078 382.259 450.887 376.3 444.725C374.277 442.565 372.118 440.535 369.837 438.649Z" fill="#799D2D"/>
<path d="M892.299 530.43C878.227 525.41 863.725 521.692 848.975 519.323C848.497 522.86 845.155 519.19 846.225 517.253C846.225 517.253 842.113 506.641 839.151 495.427C836.004 484.328 834.014 472.681 834.023 472.698C832.573 467.64 835.686 460.75 841.397 455.895C851.662 447.122 864.235 449.475 864.209 458.495C864.306 459.061 865.349 458.725 865.455 458.097C866.622 447.794 869.487 433.379 887.232 431.062C899.611 429.629 898.028 440.454 900.406 437.863C904.5 431.911 911.644 415.983 921.945 413.268C933.112 408.846 944.562 414.356 942.333 421.811C942.157 422.696 943.669 423.014 944.668 422.298C949.083 419.126 953.665 416.087 958.416 413.18C977.081 402.461 995.755 419.645 977.947 428.648C976.913 429.267 971.502 431.769 975.295 431.964C975.224 431.663 996.559 429.108 996.621 429.417C1017.89 428.665 1016.83 449.59 998.275 450.571C998.213 450.297 978.982 452.782 979.053 453.048C973.482 455.559 995.967 454.206 989.663 468.966C983.474 480.516 970.98 475.626 960.538 474.273C959.548 474.14 958.77 475.157 959.345 475.829C966.418 484.239 955.136 497.673 944.473 493.968C944.119 493.968 925.844 488.078 927.674 490.81C935.693 499.097 925.021 514.264 913.801 510.382C913.854 510.311 903.748 507.534 903.687 507.613C903.147 507.481 902.802 508.241 903.236 508.498C916.675 515.706 906.339 536.223 892.299 530.43Z" fill="#91B734"/>
<path d="M835.765 531.305C839.934 525.249 844.414 519.413 849.187 513.821C852.6 509.823 856.136 505.964 859.797 502.244C856.514 496.87 853.994 491.066 852.308 484.999C849.983 476.45 849.296 467.538 850.283 458.733C849.597 467.31 850.597 475.939 853.227 484.132C855.146 490 857.894 495.563 861.388 500.652C868.314 493.788 875.699 487.402 883.492 481.541C881.78 475.322 880.979 468.888 881.114 462.438C881.35 453.319 883.277 444.322 886.799 435.907C883.617 444.169 882.053 452.966 882.193 461.819C882.324 468.059 883.385 474.244 885.34 480.17C894.268 473.621 903.685 467.766 913.51 462.66C913.648 455.998 914.784 449.395 916.878 443.071C919.828 434.139 924.376 425.817 930.3 418.512C924.744 425.744 920.593 433.954 918.063 442.717C916.329 448.864 915.542 455.24 915.729 461.625C924.782 457.05 934.148 453.122 943.757 449.871C946.486 444.412 949.906 439.326 953.934 434.74C960.263 427.584 967.732 421.523 976.038 416.805C968.069 421.563 960.971 427.647 955.048 434.793C951.457 439.153 948.436 443.953 946.056 449.076C959.506 444.695 973.358 441.658 987.408 440.011C992.415 439.369 997.462 439.091 1002.51 439.179C1009.02 439.63 1003.86 440.161 987.665 442.036C973.781 443.815 960.109 446.973 946.851 451.463C951.06 453.736 955.994 456.186 961.617 458.653C970.344 462.492 978.115 465.286 984.287 467.347C977.85 465.375 969.849 462.757 960.804 459.228C954.668 456.823 949.239 454.444 944.597 452.242C935.145 455.558 925.942 459.541 917.055 464.163C922.077 467.893 927.334 471.297 932.793 474.351C939.801 478.27 947.027 481.784 954.438 484.875C948.248 482.478 940.565 479.286 931.927 474.935C926.113 472.027 920.466 468.797 915.013 465.26C905.368 470.402 896.139 476.289 887.409 482.868C892.504 486.309 897.844 489.374 903.386 492.038C910.573 495.486 917.974 498.47 925.543 500.971C917.736 498.641 910.061 495.887 902.555 492.719C896.72 490.251 891.047 487.416 885.57 484.229C877.959 490.083 870.756 496.451 864.014 503.288C869.136 506.659 874.534 509.591 880.15 512.052C887.43 515.247 894.933 517.908 902.599 520.011C894.719 518.09 886.968 515.676 879.39 512.786C873.577 510.547 867.936 507.887 862.511 504.827C858.974 508.523 855.538 512.356 852.202 516.323C847.588 521.86 843.261 527.631 839.24 533.613C832.874 543.023 827.746 551.61 827.171 551.3L825.403 550.345C824.828 550.08 829.143 540.838 835.765 531.305Z" fill="#799D2D"/>
<path d="M910.318 339.043L909.717 342.731L909.54 343.819L909.442 344.402L909.089 344.031C884.845 318.163 897.595 311.778 897.595 311.778C906.755 309.673 909.778 333.887 910.265 338.309C910.291 338.804 910.318 339.043 910.318 339.043Z" fill="#ACC924"/>
<path d="M911.096 339.466L910.556 343.163L910.389 344.251L910.309 344.834L910.751 344.578C941.865 326.422 931.617 316.835 931.617 316.835C923.492 312.325 913.218 334.646 911.379 338.812L911.096 339.466Z" fill="#ACC924"/>
<path d="M912.679 327.695L913.227 328.579L913.527 329.066C913.589 328.889 913.651 328.712 913.704 328.544C926.082 292.479 912.396 293.169 912.396 293.169C903.474 295.928 910.689 322.185 911.856 326.536L912.679 327.695Z" fill="#ACC924"/>
<path d="M900.963 369.36L899.885 372.897L899.566 373.95L899.39 374.516C899.292 374.365 899.186 374.224 899.098 374.091C878.762 344.35 892.086 340.069 892.086 340.069C901.352 339.477 901.114 364.062 900.99 368.608C900.963 369.112 900.963 369.36 900.963 369.36Z" fill="#ACC924"/>
<path d="M901.644 369.907L900.61 373.498L900.309 374.559L900.15 375.125L900.618 374.939C933.58 361.948 924.8 350.716 924.8 350.716C917.418 344.897 904.359 365.45 902.007 369.288L901.644 369.907Z" fill="#ACC924"/>
<path d="M881.282 397.764L878.78 400.417L878.046 401.187L877.648 401.602L877.595 401.054C873.475 363.353 886.693 366.785 886.693 366.785C894.818 371.295 883.74 393.174 881.627 397.18C881.397 397.543 881.282 397.764 881.282 397.764Z" fill="#ACC924"/>
<path d="M881.644 398.64L879.178 401.293L878.453 402.071L878.063 402.496L878.55 402.584C912.254 408.881 909.77 394.05 909.77 394.05C906.083 384.826 885.897 396.119 882.219 398.286L881.644 398.64Z" fill="#ACC924"/>
<path d="M852.334 410.854L849.408 412.818L848.524 413.401L848.055 413.711L848.108 413.163C851.574 374.966 863.66 381.564 863.66 381.564C870.61 387.993 855.597 406.875 852.767 410.315L852.334 410.854Z" fill="#ACC924"/>
<path d="M852.52 411.809L849.62 413.825L848.736 414.426L848.276 414.745L848.727 414.957C880.017 429.355 880.557 414.117 880.557 414.117C878.788 404.123 857.126 410.367 853.148 411.605L852.52 411.809Z" fill="#ACC924"/>
<path d="M829.275 430.831L826.464 433.007L825.633 433.652L825.19 433.997C825.19 433.803 825.19 433.617 825.19 433.44C826.322 395.2 838.824 400.851 838.824 400.851C846.172 406.714 832.299 426.63 829.682 430.265L829.275 430.831Z" fill="#ACC924"/>
<path d="M829.505 431.769L826.693 433.997L825.871 434.652L825.438 435.005L825.898 435.182C858.09 447.139 857.728 431.954 857.728 431.954C855.385 422.147 834.05 429.991 830.124 431.521L829.505 431.769Z" fill="#ACC924"/>
<path d="M815.509 457.098L813.882 460.432L813.405 461.413L813.139 461.944L812.927 461.458C797.817 427.931 811.539 426.312 811.539 426.312C820.672 427.551 816.499 451.897 815.65 456.381C815.562 456.859 815.509 457.098 815.509 457.098Z" fill="#ACC924"/>
<path d="M816.084 457.788L814.501 461.149L814.032 462.139L813.785 462.67L814.28 462.582C848.515 456.179 841.751 443.302 841.751 443.302C835.482 436.068 819.452 453.915 816.535 457.249L816.084 457.788Z" fill="#ACC924"/>
<path d="M813.13 433.627C812.225 442.329 812.433 451.111 813.749 459.76C813.749 459.955 813.838 460.176 813.882 460.432L813.405 461.414C813.334 461.016 813.298 460.742 813.298 460.742C810.496 443.355 813.13 433.627 813.13 433.627Z" fill="#6B9C28"/>
<path d="M825.889 432.787C830.805 415.71 837.127 408.316 837.127 408.316C832.809 415.563 829.38 423.304 826.915 431.372C832.762 423.514 840.27 417.043 848.904 412.42C854.828 395.802 861.53 388.904 861.53 388.904C856.626 396.076 852.646 403.837 849.682 412.004C854.306 409.611 859.169 407.711 864.191 406.335C869.243 404.936 874.01 402.661 878.276 399.614C880.857 382.475 886.012 374.348 886.012 374.348C882.655 382.283 880.28 390.599 878.939 399.11C888.019 392.46 894.571 382.873 899.275 373.145C893.775 356.837 894.854 346.897 894.854 346.897C895.343 355.528 896.96 364.058 899.664 372.269V372.34C901.682 368.029 903.436 363.599 904.916 359.074C906.627 353.819 908.056 348.476 909.195 343.067C901.538 327.944 901.237 318.004 901.237 318.004C902.863 326.359 905.602 334.459 909.381 342.086C910.866 335.024 911.876 327.871 912.404 320.675C912.411 320.466 912.475 320.264 912.589 320.089C912.703 319.915 912.862 319.775 913.05 319.684C913.096 313.291 912.543 306.907 911.397 300.617C911.397 300.617 913.722 307.1 913.651 319.631C913.871 319.703 914.059 319.846 914.186 320.039C914.313 320.232 914.371 320.463 914.35 320.692C913.824 327.997 912.802 335.256 911.29 342.422C917.128 336.216 922.146 329.288 926.224 321.807C926.224 321.807 922.935 331.199 911.061 343.545C909.911 348.995 908.471 354.38 906.746 359.676C905.304 364.121 903.6 368.476 901.644 372.72C908.13 367.513 913.911 361.484 918.841 354.785C918.841 354.785 914.358 363.629 901.069 373.958C895.322 385.951 888.063 395.139 879.513 401.25H879.814C887.808 400.158 895.593 397.871 902.908 394.467C902.908 394.467 895.128 399.986 879.089 402.002L878.461 402.082L878.7 401.825C874.386 404.802 869.604 407.038 864.553 408.44C859.655 409.771 854.913 411.621 850.407 413.959C858.222 414.787 866.117 414.414 873.819 412.853C873.819 412.853 865.234 416.391 849.381 414.507C840.64 419.242 833.109 425.931 827.374 434.052C835.314 434.316 843.246 433.356 850.893 431.204C850.893 431.204 842.653 435.307 826.923 434.697C825.439 436.841 824.078 439.067 822.847 441.365C819.65 447.387 817.291 453.817 815.836 460.477C822.929 456.599 829.471 451.79 835.288 446.176C835.288 446.176 829.726 453.747 815.703 461.273C815.235 463.59 815.093 464.978 815.084 465.014C815.073 465.29 814.955 465.551 814.756 465.742C814.556 465.933 814.291 466.04 814.015 466.039H813.873C813.635 465.971 813.429 465.819 813.294 465.611C813.159 465.403 813.104 465.153 813.139 464.908C814.319 456.326 817.041 448.03 821.176 440.419C822.584 437.778 824.158 435.229 825.889 432.787Z" fill="#799D2D"/>
<path d="M602.16 388.984C589.827 379.731 576.603 371.732 562.682 365.106C495.53 332.826 422.754 334.736 389.916 337.265C388.655 339.724 387.397 342.188 386.141 344.659L388.095 345.181L380.447 360.126L383.294 360.905L374.001 379.981L579.57 395.422L602.16 388.984Z" fill="#FFF6DE"/>
<path d="M380.456 360.125L383.303 360.903C396.221 361.513 414.85 362.672 437.113 365.254C495.83 371.984 537.519 383.322 537.545 383.26C537.572 383.198 500.552 373.134 448.342 366.227C421.234 362.645 397.971 360.965 380.456 360.125Z" fill="#F0D9BB"/>
<path d="M386.15 344.658C446.14 350.336 491.852 360.471 523.195 368.996C544.53 374.789 570.507 382.899 570.648 382.607C570.79 382.315 543.239 372.967 519.491 366.361C488.218 357.65 443.736 348.125 386.15 344.658Z" fill="#F0D9BB"/>
<path d="M602.16 388.984C614.493 379.731 627.717 371.732 641.638 365.106C708.79 332.826 781.601 334.736 814.395 337.265C815.656 339.724 816.915 342.188 818.17 344.659L816.216 345.181L823.864 360.126L821.017 360.905L830.283 379.981L624.75 395.422L602.16 388.984Z" fill="#FFF6DE"/>
<path d="M823.864 360.125L821.017 360.903C808.1 361.513 789.47 362.672 767.207 365.254C708.49 371.984 666.801 383.322 666.775 383.26C666.748 383.198 703.795 373.134 755.96 366.227C783.087 362.645 806.358 360.965 823.864 360.125Z" fill="#F0D9BB"/>
<path d="M818.17 344.658C758.18 350.336 712.468 360.471 681.125 368.996C659.79 374.789 633.813 382.899 633.672 382.607C633.53 382.315 661.125 372.967 684.829 366.361C716.102 357.65 760.585 348.125 818.17 344.658Z" fill="#F0D9BB"/>
<path d="M524.177 414.824H682.654V385.436H524.177V414.824Z" fill="#FFF6DE"/>
<path d="M602.788 418.132C614.615 418.132 624.202 415.25 624.202 411.694C624.202 408.138 614.615 405.256 602.788 405.256C590.961 405.256 581.373 408.138 581.373 411.694C581.373 415.25 590.961 418.132 602.788 418.132Z" fill="#049004"/>
<path d="M371.013 364.831V627.252C448.307 620.177 539.517 649.503 581.099 674.124H624.326C672.345 657.559 753.096 623.529 846.039 631.276V368.784C789.877 363.248 636.192 400.233 624.185 411.668C624.123 414.365 618.535 416.673 610.639 417.628L609.799 417.726L608.102 417.876C606.422 418.009 604.653 418.071 602.841 418.071C601.028 418.071 599.198 418.009 597.483 417.876C596.325 417.779 595.202 417.664 594.132 417.522C592.797 417.354 591.532 417.142 590.365 416.877C584.937 415.709 581.391 413.79 581.391 411.624H581.285C543.107 390.363 442.816 355.705 371.013 364.831Z" fill="#049004"/>
<path d="M675.52 565.448C670.407 565.939 666.91 563.264 666.456 558.546C666.326 557.19 666.529 555.309 667.043 553.235L682.88 492.99C684.555 486.426 688.136 483.127 694.338 482.533C700.757 481.917 704.836 484.372 707.791 490.547L734.937 546.726C735.902 548.768 736.315 550.206 736.471 551.833C736.904 556.334 733.785 559.862 728.997 560.321C724.373 560.764 721.722 558.884 719.762 553.927L714.438 541.959L686.095 544.677L683.134 557.275C682.112 562.627 679.873 565.031 675.52 565.448ZM688.465 531.642L709.41 529.634L695.936 498.58L695.555 498.616L688.465 531.642Z" fill="#F2E8D7"/>
<path d="M762.226 557.026C751.128 558.09 742.007 551.74 741.001 541.273C739.983 530.698 747.554 523.788 762.05 521.522L776.655 519.246L776.285 515.396C775.763 509.973 771.653 507.192 765.668 507.766C760.827 508.23 758.04 510.085 754.942 514.979C753.389 517.098 751.47 518.267 748.914 518.513C745.051 518.883 742.037 516.654 741.692 513.075C741.572 511.828 741.735 510.663 742.164 509.418C744.216 502.215 753.161 497.034 765.239 495.876C780.199 494.442 790.678 501.209 791.804 512.923L794.992 546.058C795.498 551.318 792.549 554.337 788.033 554.77C783.736 555.182 780.514 553.083 779.739 548.451L779.452 545.468L779.126 545.499C776.456 551.994 769.516 556.327 762.226 557.026ZM766.348 545.082C773.311 544.415 778.591 539.366 777.986 533.075L777.579 528.845L765.357 530.783C759.469 531.785 756.352 534.766 756.748 538.888C757.165 543.226 761.017 545.593 766.348 545.082Z" fill="#F2E8D7"/>
<path d="M581.32 411.65V674.089H581.426C581.426 677.626 591.02 680.536 602.841 680.536C614.662 680.536 624.22 677.653 624.22 674.089V411.695C624.167 414.401 618.544 416.727 610.613 417.655L609.773 417.753L608.075 417.903C606.395 418.036 604.627 418.097 602.814 418.097C601.002 418.097 599.172 418.036 597.456 417.903C596.298 417.806 595.166 417.691 594.096 417.549C592.77 417.363 591.506 417.151 590.339 416.904C584.945 415.727 581.426 413.808 581.426 411.65H581.32Z" fill="#06B306"/>
<path d="M589.738 457.841V634.345C593.946 634.345 597.35 637.192 597.35 640.703H608.243C608.243 637.166 611.647 634.345 615.847 634.345V457.841C611.647 457.841 608.243 454.993 608.243 451.482H597.341C597.341 454.993 593.937 457.841 589.738 457.841Z" fill="#A7D8B6"/>
<path d="M602.788 445.504C607.681 445.504 611.647 442.186 611.647 438.093C611.647 434 607.681 430.682 602.788 430.682C597.895 430.682 593.928 434 593.928 438.093C593.928 442.186 597.895 445.504 602.788 445.504Z" fill="#A7D8B6"/>
<path d="M602.788 661.504C607.681 661.504 611.647 658.186 611.647 654.093C611.647 650 607.681 646.682 602.788 646.682C597.895 646.682 593.928 650 593.928 654.093C593.928 658.186 597.895 661.504 602.788 661.504Z" fill="#A7D8B6"/>
<path d="M843.82 650.184L912.599 764.551C917.256 764.197 922.018 763.667 926.887 762.959C933.501 761.995 940.317 760.686 947.347 758.953C949.474 758.434 951.623 757.877 953.792 757.282C964.023 754.449 973.959 750.644 983.465 745.917C988.627 743.356 993.645 740.513 998.496 737.401L1000.26 736.286C1013.14 727.767 1024.72 717.445 1034.66 705.634C1036.59 703.352 1038.46 701.018 1040.26 698.63C1041.63 696.861 918.947 649.193 908.956 623.644C895.694 589.746 917.798 536.674 905.269 513.097C895.482 494.675 876.976 481.701 869.301 476.917L868.859 476.625C867.418 475.741 866.428 475.175 866.048 474.963L865.88 474.865L861.079 501.441L860.699 503.554L860.035 507.304L859.894 508.074L856.225 528.591L855.783 531.067L854.969 535.604L854.571 537.833L851.3 556.122L850.849 558.651L850.027 563.205L849.196 567.831L843.891 597.404L843.802 597.873C843.024 599.987 838.276 613.261 837.533 625.828C836.808 638.563 842.962 648.813 843.82 650.184Z" fill="#FFC38C"/>
<path d="M833.882 511.637C858.092 511.637 877.719 501.865 877.719 489.811C877.719 477.756 858.092 467.984 833.882 467.984C809.671 467.984 790.045 477.756 790.045 489.811C790.045 501.865 809.671 511.637 833.882 511.637Z" fill="#FFC38C"/>
<path d="M833.882 540.414C858.092 540.414 877.719 530.642 877.719 518.588C877.719 506.534 858.092 496.762 833.882 496.762C809.671 496.762 790.045 506.534 790.045 518.588C790.045 530.642 809.671 540.414 833.882 540.414Z" fill="#FFC38C"/>
<path d="M833.882 569.202C858.092 569.202 877.719 559.43 877.719 547.375C877.719 535.321 858.092 525.549 833.882 525.549C809.671 525.549 790.045 535.321 790.045 547.375C790.045 559.43 809.671 569.202 833.882 569.202Z" fill="#FFC38C"/>
<path d="M833.882 597.979C858.092 597.979 877.719 588.207 877.719 576.153C877.719 564.098 858.092 554.326 833.882 554.326C809.671 554.326 790.045 564.098 790.045 576.153C790.045 588.207 809.671 597.979 833.882 597.979Z" fill="#FFC38C"/>
<path d="M799.797 560.304C822.305 557.8 845.011 557.643 867.551 559.835C870.15 560.092 870.203 564.682 867.551 564.425C845.011 562.233 822.305 562.39 799.797 564.894C797.189 565.177 797.207 560.587 799.797 560.304Z" fill="#E0B19C"/>
<path d="M799.797 532.463C822.305 529.962 845.011 529.808 867.551 532.003C870.15 532.251 870.203 536.85 867.551 536.593C845.011 534.398 822.305 534.552 799.797 537.053C797.189 537.345 797.207 532.755 799.797 532.463Z" fill="#E0B19C"/>
<path d="M799.797 504.624C822.305 502.128 845.011 501.974 867.551 504.164C870.15 504.421 870.203 509.011 867.551 508.754C845.011 506.562 822.305 506.719 799.797 509.223C797.189 509.506 797.207 504.916 799.797 504.624Z" fill="#E0B19C"/>
<path d="M543.911 517.731C545.731 517.738 547.535 517.383 549.216 516.687C551.905 515.621 554.212 513.773 555.839 511.381C557.727 508.674 558.711 505.439 558.65 502.139L557.395 432.335C557.33 429.077 556.276 425.915 554.371 423.271C552.698 420.966 550.485 419.107 547.925 417.858C546.01 416.906 543.93 416.326 541.798 416.151C538.757 415.886 535.609 415.488 532.373 414.984C517.298 412.64 502.453 408.104 488.66 403.549C484.445 402.152 480.228 400.728 476.007 399.278C471.268 397.668 466.379 396.005 461.551 394.422C448.218 390.053 432.436 385.269 416.539 382.925C413.099 382.421 409.677 382.041 406.38 381.785C405.991 381.785 405.61 381.74 405.23 381.74C403.447 381.734 401.679 382.07 400.022 382.731C397.296 383.773 394.955 385.625 393.312 388.037C391.433 390.745 390.449 393.974 390.5 397.27L391.755 467.136C391.815 470.409 392.89 473.583 394.832 476.218C396.473 478.515 398.665 480.361 401.207 481.586C403.134 482.517 405.212 483.095 407.343 483.293C427.025 485.062 447.254 491.447 466.282 497.868L473.275 500.22C476.105 501.175 478.934 502.139 481.763 503.077C501.127 509.586 521.798 516.077 542.771 517.669C543.151 517.713 543.531 517.731 543.911 517.731Z" fill="white"/>
<path d="M394.797 397.234C395.216 420.511 395.634 443.799 396.053 467.099C396.096 469.48 396.878 471.788 398.289 473.706C399.518 475.434 401.164 476.824 403.073 477.747C404.523 478.446 406.086 478.88 407.688 479.03C427.67 480.798 447.652 487.077 467.643 493.816C472.798 495.541 477.953 497.301 483.107 499.025C503.107 505.747 523.098 511.884 543.098 513.396C544.632 513.533 546.177 513.293 547.598 512.698C549.502 511.952 551.135 510.648 552.284 508.957C553.679 506.997 554.41 504.641 554.371 502.236C553.947 478.971 553.528 455.7 553.115 432.423C553.063 430.033 552.283 427.716 550.879 425.781C549.622 424.062 547.965 422.674 546.051 421.74C544.608 421.024 543.041 420.589 541.436 420.457C538.2 420.169 534.958 419.768 531.71 419.255C516.909 416.955 502.108 412.534 487.307 407.652C478.271 404.663 469.235 401.461 460.207 398.525C445.442 393.687 430.685 389.381 415.92 387.232C412.631 386.754 409.342 386.385 406.052 386.126C404.268 385.993 402.48 386.331 400.867 387.107C399.255 387.883 397.875 389.07 396.866 390.548C395.485 392.501 394.761 394.842 394.797 397.234Z" fill="#413194"/>
<path d="M394.797 397.234C394.751 394.839 395.466 392.492 396.839 390.53C397.849 389.052 399.229 387.866 400.841 387.09C402.453 386.313 404.241 385.975 406.026 386.108C409.315 386.362 412.604 386.73 415.893 387.214C430.8 397.278 445.698 409.536 460.605 422.324L460.181 398.507C469.208 401.479 478.244 404.645 487.281 407.634C487.422 415.558 487.563 423.482 487.705 431.406C502.364 428.364 517.024 424.835 531.683 419.237C534.919 419.738 538.161 420.139 541.409 420.44C543.015 420.571 544.581 421.006 546.024 421.722C547.937 422.659 549.594 424.046 550.852 425.764C552.256 427.698 553.036 430.015 553.089 432.406C553.089 432.68 553.089 432.945 553.089 433.21C540.777 439.838 527.768 445.079 514.301 448.837C527.351 452.118 540.41 454.258 553.469 454.143C553.628 462.987 553.784 471.798 553.938 480.577C540.87 480.763 527.802 478.667 514.734 475.404C527.926 485.663 541.126 494.745 554.318 501.484C554.318 501.74 554.318 501.988 554.318 502.245C554.36 504.636 553.645 506.979 552.276 508.939C551.127 510.631 549.493 511.935 547.589 512.68C546.168 513.276 544.624 513.515 543.089 513.379C539.806 513.131 536.529 512.766 533.257 512.282C518.341 502.227 503.425 489.961 488.51 477.173L488.934 500.945C486.989 500.308 485.044 499.662 483.099 499.008C477.944 497.239 472.789 495.523 467.634 493.799C465.698 493.153 463.771 492.499 461.834 491.862L461.41 468.046C446.75 471.097 432.091 474.617 417.432 480.215C414.178 479.708 410.936 479.307 407.706 479.012C406.103 478.863 404.54 478.429 403.09 477.73C401.181 476.807 399.536 475.416 398.307 473.688C396.89 471.774 396.107 469.464 396.07 467.082V466.242C408.396 459.615 421.42 454.38 434.903 450.632C421.835 447.343 408.767 445.202 395.699 445.326L395.221 418.901C408.281 418.707 421.331 420.803 434.39 424.057C421.207 413.798 408.024 404.725 394.85 397.986C394.806 397.738 394.806 397.482 394.797 397.234Z" fill="white"/>
<path d="M395.274 424.056C416.954 423.756 438.599 429.752 460.305 436.88C457.039 434.085 453.771 431.323 450.499 428.593C432.613 413.638 414.726 399.984 396.839 390.565C397.996 388.866 399.643 387.561 401.561 386.824C421.295 398.047 441.03 414.063 460.756 430.981L462.418 432.458L466.573 436.049L465.955 400.452C471.109 402.221 476.264 403.99 481.427 405.697C481.634 417.553 481.843 429.41 482.055 441.266L486.175 440.444L487.838 440.072C507.219 436.04 526.608 431.158 545.989 421.739C547.902 422.676 549.558 424.063 550.817 425.781C533.248 435.005 515.689 440.267 498.129 444.291C494.917 445.016 491.71 445.709 488.51 446.369C510.18 453.506 531.834 459.538 553.531 459.299L553.823 475.412C532.152 475.704 510.499 469.708 488.793 462.58C492.064 465.374 495.332 468.137 498.598 470.866C516.493 485.821 534.38 499.476 552.267 508.895C551.118 510.586 549.484 511.89 547.581 512.635C527.837 501.43 508.085 485.405 488.342 468.479L486.653 467.002L482.471 463.411L483.107 498.981C477.953 497.212 472.798 495.496 467.643 493.772L467.007 458.167L462.931 458.998L461.269 459.37C441.87 463.402 422.471 468.284 403.073 477.703C401.164 476.779 399.519 475.389 398.289 473.661C415.849 464.437 433.417 459.184 450.977 455.151C454.189 454.426 457.396 453.733 460.597 453.073C438.917 445.936 417.272 439.913 395.566 440.152L395.274 424.056Z" fill="#E64732"/>
<path d="M183.623 704.696C191.317 712.398 199.802 719.266 208.937 725.187C222.81 734.099 237.843 741.059 253.614 745.872C259.173 747.601 264.83 748.997 270.554 750.055C274.869 750.851 279.083 751.441 283.198 751.824C288.619 752.302 294.064 752.435 299.502 752.222C301.518 752.145 303.507 752.021 305.47 751.851H305.691L368.803 646.911C368.803 646.911 375.991 636.086 375.177 622.378C374.364 608.67 368.891 594.396 368.803 594.131V594.087L364.161 564.673L363.391 559.808L362.666 555.245L362.242 552.592L359.439 534.904L359.024 532.251L358.308 527.697L357.865 524.876L354.691 504.774V504.677L353.966 500.131L353.542 497.478L349.245 470.283C349.245 470.283 345.708 472.193 340.554 475.687C330.89 482.24 315.541 494.347 307.362 509.744C294.833 533.321 316.938 586.393 303.684 620.291C293.631 646.106 182.332 703.413 183.623 704.696Z" fill="#FFC38C"/>
<path d="M378.749 508.268C402.96 508.268 422.586 498.496 422.586 486.442C422.586 474.387 402.96 464.615 378.749 464.615C354.539 464.615 334.913 474.387 334.913 486.442C334.913 498.496 354.539 508.268 378.749 508.268Z" fill="#FFC38C"/>
<path d="M378.749 537.045C402.96 537.045 422.586 527.273 422.586 515.219C422.586 503.165 402.96 493.393 378.749 493.393C354.539 493.393 334.913 503.165 334.913 515.219C334.913 527.273 354.539 537.045 378.749 537.045Z" fill="#FFC38C"/>
<path d="M378.749 565.832C402.96 565.832 422.586 556.06 422.586 544.006C422.586 531.952 402.96 522.18 378.749 522.18C354.539 522.18 334.913 531.952 334.913 544.006C334.913 556.06 354.539 565.832 378.749 565.832Z" fill="#FFC38C"/>
<path d="M378.749 594.61C402.96 594.61 422.586 584.838 422.586 572.783C422.586 560.729 402.96 550.957 378.749 550.957C354.539 550.957 334.913 560.729 334.913 572.783C334.913 584.838 354.539 594.61 378.749 594.61Z" fill="#FFC38C"/>
<path d="M412.834 556.935C390.327 554.431 367.62 554.274 345.08 556.466C342.481 556.723 342.428 561.312 345.08 561.056C367.62 558.864 390.327 559.021 412.834 561.525C415.442 561.808 415.425 557.218 412.834 556.935Z" fill="#E0B19C"/>
<path d="M412.834 529.094C390.326 526.593 367.62 526.439 345.08 528.634C342.481 528.882 342.428 533.481 345.08 533.224C367.62 531.029 390.326 531.183 412.834 533.684C415.442 533.976 415.425 529.386 412.834 529.094Z" fill="#E0B19C"/>
<path d="M412.834 501.255C390.326 498.758 367.62 498.604 345.08 500.795C342.481 501.052 342.428 505.641 345.08 505.385C367.62 503.193 390.327 503.35 412.834 505.854C415.442 506.137 415.425 501.547 412.834 501.255Z" fill="#E0B19C"/>
<path d="M543.796 216H601.195C616.26 216 630.709 221.217 641.362 230.502C652.015 239.787 658 252.381 658 265.513C658.01 272.366 656.383 279.146 653.222 285.422C650.061 291.697 645.436 297.329 639.64 301.961C640.905 309.82 646.046 329 646.046 329C646.046 329 624.563 316.799 617.068 313.082C611.894 314.399 606.532 315.066 601.142 315.064H543.796C536.334 315.062 528.945 313.779 522.052 311.287C515.159 308.796 508.896 305.145 503.622 300.543C498.347 295.942 494.165 290.48 491.313 284.469C488.461 278.459 486.995 272.017 487 265.513C487.002 252.383 492.987 239.792 503.637 230.507C514.288 221.222 528.733 216.004 543.796 216Z" fill="#92A838"/>
<path d="M505.293 279C503.438 279 502.344 277.867 502.344 275.914V253.883C502.344 251.949 503.438 250.816 505.293 250.816H514.609C519.902 250.816 523.223 253.531 523.223 257.848C523.223 260.934 520.918 263.512 517.93 263.961V264.117C521.758 264.41 524.57 267.203 524.57 270.934C524.57 275.895 520.84 279 514.824 279H505.293ZM508.242 262.535H512.48C515.625 262.535 517.422 261.148 517.422 258.766C517.422 256.5 515.84 255.211 513.086 255.211H508.242V262.535ZM508.242 274.605H513.32C516.719 274.605 518.555 273.16 518.555 270.465C518.555 267.828 516.66 266.422 513.184 266.422H508.242V274.605ZM537.051 279.449C530.723 279.449 526.68 275.387 526.68 268.512C526.68 261.734 530.781 257.613 537.051 257.613C543.32 257.613 547.422 261.715 547.422 268.512C547.422 275.406 543.379 279.449 537.051 279.449ZM537.051 275.094C539.844 275.094 541.621 272.73 541.621 268.531C541.621 264.371 539.824 261.969 537.051 261.969C534.277 261.969 532.461 264.371 532.461 268.531C532.461 272.73 534.238 275.094 537.051 275.094ZM553.223 279.41C551.562 279.41 550.371 278.395 550.371 276.441V260.504C550.371 258.727 551.406 257.633 553.125 257.633C554.844 257.633 555.977 258.727 555.977 260.523V261.695H556.094C557.207 259.098 559.316 257.672 562.539 257.672C567.188 257.672 569.805 260.602 569.805 265.504V276.441C569.805 278.395 568.613 279.41 566.953 279.41C565.273 279.41 564.102 278.395 564.102 276.441V266.695C564.102 263.961 562.812 262.398 560.254 262.398C557.695 262.398 556.074 264.273 556.074 266.988V276.441C556.074 278.395 554.902 279.41 553.223 279.41ZM576.328 255.465C574.609 255.465 573.281 254.156 573.281 252.516C573.281 250.855 574.609 249.566 576.328 249.566C578.047 249.566 579.375 250.855 579.375 252.516C579.375 254.156 578.047 255.465 576.328 255.465ZM576.328 257.633C577.988 257.633 579.16 258.668 579.16 260.621V280.211C579.16 284.117 576.895 286.422 573.184 286.422H573.086C570.898 286.422 569.609 285.562 569.609 284.039C569.609 282.965 570.215 282.34 571.484 282.105L571.738 282.066C572.969 281.852 573.457 281.168 573.457 279.859V260.621C573.457 258.668 574.648 257.633 576.328 257.633ZM592.637 279.449C586.309 279.449 582.266 275.387 582.266 268.512C582.266 261.734 586.367 257.613 592.637 257.613C598.906 257.613 603.008 261.715 603.008 268.512C603.008 275.406 598.965 279.449 592.637 279.449ZM592.637 275.094C595.43 275.094 597.207 272.73 597.207 268.531C597.207 264.371 595.41 261.969 592.637 261.969C589.863 261.969 588.047 264.371 588.047 268.531C588.047 272.73 589.824 275.094 592.637 275.094ZM613.398 279.391C608.867 279.391 605.859 276.441 605.859 271.559V260.621C605.859 258.668 607.051 257.633 608.711 257.633C610.391 257.633 611.562 258.668 611.562 260.621V270.367C611.562 273.16 612.949 274.645 615.469 274.645C618.008 274.645 619.59 272.828 619.59 270.055V260.621C619.59 258.668 620.781 257.633 622.441 257.633C624.121 257.633 625.293 258.668 625.293 260.621V276.52C625.293 278.414 624.18 279.41 622.539 279.41C620.898 279.41 619.785 278.414 619.785 276.52V275.23H619.668C618.633 277.867 616.562 279.391 613.398 279.391ZM631.855 279.41C630.137 279.41 629.004 278.336 629.004 276.441V260.504C629.004 258.688 630.117 257.633 631.758 257.633C633.359 257.633 634.453 258.688 634.453 260.504V261.871H634.57C635.117 259.273 636.836 257.73 638.926 257.73C639.688 257.73 640.293 257.906 640.703 258.258C641.25 258.688 641.523 259.391 641.523 260.367C641.523 261.266 641.25 261.949 640.703 262.418C640.156 262.887 639.336 263.141 638.223 263.16C635.625 263.199 634.707 264.664 634.707 267.145V276.441C634.707 278.336 633.594 279.41 631.855 279.41Z" fill="white"/>
<path d="M377.043 239.16H413.515C423.09 239.163 432.272 242.969 439.042 249.742C445.812 256.515 449.615 265.701 449.615 275.278C449.621 280.275 448.588 285.218 446.58 289.793C444.572 294.369 441.634 298.476 437.953 301.854C438.758 307.584 442.02 321.575 442.02 321.575C442.02 321.575 428.369 312.678 423.621 309.946C420.337 310.9 416.935 311.385 413.515 311.387H377.043C367.469 311.387 358.286 307.583 351.516 300.811C344.746 294.039 340.943 284.855 340.943 275.278C340.943 265.701 344.746 256.515 351.516 249.742C358.286 242.969 367.468 239.163 377.043 239.16Z" fill="#7134A8"/>
<path d="M363.764 289.334C362.094 289.334 361.109 288.314 361.109 286.574V266.061C361.109 264.303 362.094 263.283 363.764 263.283C365.434 263.283 366.418 264.303 366.418 266.061V273.936H377.844V266.061C377.844 264.303 378.828 263.283 380.498 263.283C382.168 263.283 383.152 264.303 383.152 266.061V286.574C383.152 288.314 382.168 289.334 380.498 289.334C378.828 289.334 377.844 288.314 377.844 286.574V278.312H366.418V286.574C366.418 288.314 365.434 289.334 363.764 289.334ZM395.58 289.404C389.885 289.404 386.246 285.748 386.246 279.561C386.246 273.461 389.938 269.752 395.58 269.752C401.223 269.752 404.914 273.443 404.914 279.561C404.914 285.766 401.275 289.404 395.58 289.404ZM395.58 285.484C398.094 285.484 399.693 283.357 399.693 279.578C399.693 275.834 398.076 273.672 395.58 273.672C393.084 273.672 391.449 275.834 391.449 279.578C391.449 283.357 393.049 285.484 395.58 285.484ZM410.258 289.369C408.764 289.369 407.691 288.455 407.691 286.697V265.938C407.691 264.18 408.764 263.248 410.258 263.248C411.77 263.248 412.824 264.18 412.824 265.938V286.697C412.824 288.455 411.77 289.369 410.258 289.369ZM421.859 289.299C418.273 289.299 415.549 286.979 415.549 283.586C415.549 280.158 418.186 278.172 422.896 277.891L427.643 277.609V276.361C427.643 274.604 426.412 273.584 424.479 273.584C422.914 273.584 421.965 274.094 420.822 275.57C420.26 276.203 419.609 276.52 418.783 276.52C417.535 276.52 416.639 275.711 416.639 274.551C416.639 274.146 416.727 273.777 416.902 273.391C417.781 271.141 420.805 269.752 424.707 269.752C429.541 269.752 432.688 272.248 432.688 276.045V286.785C432.688 288.49 431.65 289.369 430.191 289.369C428.803 289.369 427.836 288.596 427.73 287.084V286.117H427.625C426.57 288.121 424.215 289.299 421.859 289.299ZM423.547 285.59C425.797 285.59 427.643 284.131 427.643 282.092V280.721L423.67 280.967C421.754 281.107 420.664 281.969 420.664 283.305C420.664 284.711 421.824 285.59 423.547 285.59Z" fill="white"/>
<path d="M790.192 120H732.809C717.744 120 703.295 125.493 692.642 135.27C681.989 145.048 676.002 158.309 676 172.138C675.991 179.356 677.619 186.497 680.781 193.106C683.943 199.715 688.569 205.647 694.365 210.526C693.101 218.8 687.957 239 687.957 239C687.957 239 709.433 226.15 716.91 222.207C722.078 223.588 727.434 224.287 732.817 224.284H790.2C797.66 224.285 805.046 222.937 811.938 220.318C818.83 217.698 825.092 213.857 830.366 209.016C835.641 204.174 839.825 198.426 842.679 192.1C845.533 185.774 847.001 178.993 847 172.146C847.001 165.298 845.533 158.517 842.678 152.189C839.824 145.862 835.639 140.113 830.364 135.271C825.088 130.428 818.825 126.587 811.933 123.967C805.04 121.347 797.652 119.999 790.192 120Z" fill="#E64732"/>
<path d="M706.278 190.51C703.727 190.51 702.223 188.953 702.223 186.294V154.954C702.223 152.268 703.727 150.71 706.278 150.71C708.829 150.71 710.333 152.268 710.333 154.954V166.985H727.789V154.954C727.789 152.268 729.293 150.71 731.844 150.71C734.396 150.71 735.899 152.268 735.899 154.954V186.294C735.899 188.953 734.396 190.51 731.844 190.51C729.293 190.51 727.789 188.953 727.789 186.294V173.672H710.333V186.294C710.333 188.953 708.829 190.51 706.278 190.51ZM754.913 190.618C745.917 190.618 740.626 185.059 740.626 175.74C740.626 166.475 746.024 160.593 754.537 160.593C762.701 160.593 768.18 166.179 768.18 173.994C768.18 176.169 766.944 177.405 764.769 177.405H748.333V177.754C748.333 182.024 750.912 184.817 754.886 184.817C757.76 184.817 759.64 183.85 761.761 181.353C762.594 180.493 763.292 180.198 764.312 180.198C766.004 180.198 767.374 181.272 767.374 183.071C767.374 183.689 767.186 184.333 766.837 184.978C764.93 188.523 760.472 190.618 754.913 190.618ZM748.414 172.598H760.633C760.472 168.838 758.055 166.394 754.618 166.394C751.18 166.394 748.683 168.918 748.414 172.598ZM776.344 190.564C774.061 190.564 772.423 189.167 772.423 186.482V154.766C772.423 152.08 774.061 150.657 776.344 150.657C778.653 150.657 780.265 152.08 780.265 154.766V186.482C780.265 189.167 778.653 190.564 776.344 190.564ZM789.664 190.564C787.381 190.564 785.743 189.167 785.743 186.482V154.766C785.743 152.08 787.381 150.657 789.664 150.657C791.974 150.657 793.585 152.08 793.585 154.766V186.482C793.585 189.167 791.974 190.564 789.664 190.564ZM812.088 190.618C803.387 190.618 797.828 185.032 797.828 175.579C797.828 166.26 803.468 160.593 812.088 160.593C820.709 160.593 826.349 166.233 826.349 175.579C826.349 185.059 820.79 190.618 812.088 190.618ZM812.088 184.629C815.929 184.629 818.373 181.379 818.373 175.605C818.373 169.885 815.902 166.582 812.088 166.582C808.275 166.582 805.777 169.885 805.777 175.605C805.777 181.379 808.221 184.629 812.088 184.629Z" fill="white"/>
<path d="M1024.12 603.143H982.13C971.108 603.143 960.539 598.764 952.745 590.969C944.952 583.174 940.574 572.602 940.574 561.578C940.568 555.822 941.76 550.129 944.074 544.859C946.388 539.59 949.773 534.86 954.013 530.97C953.129 524.372 949.336 508.268 949.336 508.268C949.336 508.268 965.048 518.509 970.556 521.657C974.316 520.563 978.213 520.009 982.13 520.012H1024.12C1035.14 520.012 1045.71 524.391 1053.5 532.186C1061.3 539.981 1065.67 550.554 1065.67 561.578C1065.67 572.602 1061.3 583.174 1053.5 590.969C1045.71 598.764 1035.14 603.143 1024.12 603.143Z" fill="#7134A8"/>
<path d="M967.656 576.469C961.836 576.469 958.105 574.145 956.973 571.059C956.777 570.551 956.66 570.004 956.66 569.477C956.66 567.914 957.734 566.879 959.258 566.879C960.469 566.879 961.27 567.348 961.973 568.598C962.891 570.746 965.098 571.723 967.793 571.723C970.957 571.723 973.105 570.199 973.105 568.129C973.105 566.273 971.777 565.219 968.242 564.496L965.254 563.91C959.629 562.797 956.875 560.102 956.875 555.902C956.875 550.746 961.367 547.328 967.637 547.328C972.793 547.328 976.68 549.496 977.93 553.168C978.066 553.559 978.145 553.969 978.145 554.477C978.145 555.883 977.129 556.84 975.625 556.84C974.297 556.84 973.477 556.312 972.812 555.102C971.875 552.973 970.059 552.094 967.637 552.094C964.727 552.094 962.793 553.461 962.793 555.531C962.793 557.27 964.141 558.344 967.48 559.008L970.449 559.613C976.426 560.805 979.004 563.207 979.004 567.484C979.004 572.992 974.688 576.469 967.656 576.469ZM988.32 576.332C984.336 576.332 981.309 573.754 981.309 569.984C981.309 566.176 984.238 563.969 989.473 563.656L994.746 563.344V561.957C994.746 560.004 993.379 558.871 991.23 558.871C989.492 558.871 988.438 559.438 987.168 561.078C986.543 561.781 985.82 562.133 984.902 562.133C983.516 562.133 982.52 561.234 982.52 559.945C982.52 559.496 982.617 559.086 982.812 558.656C983.789 556.156 987.148 554.613 991.484 554.613C996.855 554.613 1000.35 557.387 1000.35 561.605V573.539C1000.35 575.434 999.199 576.41 997.578 576.41C996.035 576.41 994.961 575.551 994.844 573.871V572.797H994.727C993.555 575.023 990.938 576.332 988.32 576.332ZM990.195 572.211C992.695 572.211 994.746 570.59 994.746 568.324V566.801L990.332 567.074C988.203 567.23 986.992 568.188 986.992 569.672C986.992 571.234 988.281 572.211 990.195 572.211ZM1007.03 576.41C1005.37 576.41 1004.18 575.395 1004.18 573.441V550.375C1004.18 548.422 1005.37 547.387 1007.03 547.387C1008.71 547.387 1009.88 548.422 1009.88 550.375V573.441C1009.88 575.395 1008.71 576.41 1007.03 576.41ZM1021.17 576.391C1016.64 576.391 1013.63 573.441 1013.63 568.559V557.621C1013.63 555.668 1014.82 554.633 1016.48 554.633C1018.16 554.633 1019.34 555.668 1019.34 557.621V567.367C1019.34 570.16 1020.72 571.645 1023.24 571.645C1025.78 571.645 1027.36 569.828 1027.36 567.055V557.621C1027.36 555.668 1028.55 554.633 1030.21 554.633C1031.89 554.633 1033.07 555.668 1033.07 557.621V573.52C1033.07 575.414 1031.95 576.41 1030.31 576.41C1028.67 576.41 1027.56 575.414 1027.56 573.52V572.23H1027.44C1026.41 574.867 1024.34 576.391 1021.17 576.391ZM1038.3 570.648V559.359H1037.21C1035.86 559.359 1035 558.539 1035 557.211C1035 555.883 1035.86 555.062 1037.21 555.062H1038.3V552.738C1038.3 550.902 1039.38 549.77 1041.15 549.77C1042.93 549.77 1044 550.902 1044 552.738V555.062H1046.02C1047.36 555.062 1048.2 555.902 1048.2 557.211C1048.2 558.52 1047.36 559.359 1046.02 559.359H1044V569.379C1044 570.863 1044.51 571.488 1045.74 571.586L1046.11 571.625C1047.52 571.781 1048.28 572.367 1048.28 573.695C1048.28 575.375 1046.64 576.234 1044.24 576.234H1044.04C1040.23 576.234 1038.3 574.34 1038.3 570.648Z" fill="white"/>
<path d="M181.171 566H235.864C250.222 566 263.991 560.829 274.144 551.625C284.296 542.421 290 529.937 290 516.921C290.004 510.128 288.449 503.408 285.432 497.19C282.416 490.972 278.004 485.391 272.479 480.802C273.681 473.008 278.576 454 278.576 454C278.576 454 258.103 466.088 250.982 469.804C246.061 468.505 240.963 467.844 235.837 467.842H181.145C166.786 467.842 153.016 473.012 142.862 482.216C132.708 491.42 127.002 503.904 127 516.921C127.001 523.368 128.403 529.753 131.127 535.709C133.85 541.665 137.841 547.076 142.871 551.634C147.902 556.192 153.873 559.806 160.445 562.271C167.017 564.736 174.059 566.003 181.171 566Z" fill="#FFB300"/>
<path d="M173.883 534.562C163.852 534.562 157.758 528 157.758 517.078C157.758 506.18 163.969 499.594 173.695 499.594C180.023 499.594 184.922 502.406 187.242 507.281C187.711 508.172 187.945 509.086 187.945 509.93C187.945 511.781 186.703 512.977 184.828 512.977C183.234 512.977 182.227 512.273 181.453 510.633C179.906 507.188 177.141 505.453 173.766 505.453C168.422 505.453 164.977 509.93 164.977 517.055C164.977 524.273 168.375 528.727 173.789 528.727C177.352 528.727 180.023 527.109 181.547 523.711C182.273 522.117 183.164 521.484 184.664 521.484C186.656 521.484 187.969 522.75 187.969 524.625C187.969 525.422 187.781 526.172 187.43 526.992C185.32 531.68 180.281 534.562 173.883 534.562ZM195.984 505.758C193.922 505.758 192.328 504.188 192.328 502.219C192.328 500.227 193.922 498.68 195.984 498.68C198.047 498.68 199.641 500.227 199.641 502.219C199.641 504.188 198.047 505.758 195.984 505.758ZM195.984 534.492C193.852 534.492 192.562 533.156 192.562 530.93V511.945C192.562 509.719 193.852 508.359 195.984 508.359C198.094 508.359 199.406 509.719 199.406 511.945V530.93C199.406 533.156 198.094 534.492 195.984 534.492ZM211.406 534.398C206.625 534.398 202.992 531.305 202.992 526.781C202.992 522.211 206.508 519.562 212.789 519.188L219.117 518.812V517.148C219.117 514.805 217.477 513.445 214.898 513.445C212.812 513.445 211.547 514.125 210.023 516.094C209.273 516.938 208.406 517.359 207.305 517.359C205.641 517.359 204.445 516.281 204.445 514.734C204.445 514.195 204.562 513.703 204.797 513.188C205.969 510.188 210 508.336 215.203 508.336C221.648 508.336 225.844 511.664 225.844 516.727V531.047C225.844 533.32 224.461 534.492 222.516 534.492C220.664 534.492 219.375 533.461 219.234 531.445V530.156H219.094C217.688 532.828 214.547 534.398 211.406 534.398ZM213.656 529.453C216.656 529.453 219.117 527.508 219.117 524.789V522.961L213.82 523.289C211.266 523.477 209.812 524.625 209.812 526.406C209.812 528.281 211.359 529.453 213.656 529.453ZM241.805 534.539C234.211 534.539 229.359 529.664 229.359 521.414C229.359 513.281 234.281 508.336 241.805 508.336C249.328 508.336 254.25 513.258 254.25 521.414C254.25 529.688 249.398 534.539 241.805 534.539ZM241.805 529.312C245.156 529.312 247.289 526.477 247.289 521.438C247.289 516.445 245.133 513.562 241.805 513.562C238.477 513.562 236.297 516.445 236.297 521.438C236.297 526.477 238.43 529.312 241.805 529.312Z" fill="white"/>
<path d="M728.781 297.531C727.864 297.257 727.03 296.759 726.352 296.083C725.675 295.407 725.176 294.574 724.9 293.657L722.477 285.609L720.054 293.657C719.778 294.574 719.279 295.407 718.602 296.083C717.924 296.759 717.09 297.257 716.173 297.531L708.136 299.954L716.173 302.377C717.091 302.651 717.927 303.15 718.605 303.827C719.282 304.505 719.78 305.341 720.054 306.26L722.477 314.307L724.9 306.26C725.174 305.341 725.672 304.505 726.35 303.827C727.027 303.15 727.863 302.651 728.781 302.377L736.827 299.954L728.781 297.531Z" fill="#FFB300"/>
<path d="M194.277 621.866C193.383 621.598 192.568 621.112 191.908 620.451C191.247 619.79 190.761 618.976 190.493 618.081L188.141 610.219L185.781 618.045C185.513 618.939 185.028 619.753 184.37 620.414C183.711 621.074 182.898 621.561 182.005 621.831L174.18 624.218L182.014 626.58C182.906 626.849 183.717 627.335 184.376 627.994C185.035 628.652 185.52 629.464 185.789 630.356L188.15 638.192L190.502 630.356C190.771 629.463 191.258 628.65 191.919 627.991C192.579 627.332 193.392 626.847 194.286 626.58L202.111 624.218L194.277 621.866Z" fill="#FFB300"/>
<path d="M1023.86 639.906C1022.31 639.438 1020.9 638.593 1019.75 637.446C1018.61 636.3 1017.76 634.888 1017.29 633.335L1013.2 619.725L1009.11 633.335C1008.64 634.889 1007.8 636.303 1006.65 637.45C1005.5 638.597 1004.09 639.441 1002.54 639.906L988.92 644.01L1002.54 648.104C1004.09 648.569 1005.5 649.413 1006.65 650.56C1007.8 651.707 1008.64 653.121 1009.11 654.675L1013.2 668.286L1017.29 654.675C1017.76 653.123 1018.61 651.71 1019.75 650.564C1020.9 649.417 1022.31 648.572 1023.86 648.104L1037.48 644.01L1023.86 639.906Z" fill="#E64732"/>
<path d="M306.469 292.86C304.917 292.392 303.505 291.547 302.359 290.401C301.212 289.254 300.368 287.842 299.9 286.289L295.797 272.67L291.703 286.289C291.236 287.842 290.391 289.254 289.245 290.401C288.098 291.547 286.686 292.392 285.134 292.86L271.527 296.955L285.134 301.05C286.686 301.518 288.098 302.363 289.245 303.509C290.391 304.656 291.236 306.068 291.703 307.62L295.797 321.24L299.9 307.62C300.368 306.068 301.212 304.656 302.359 303.509C303.505 302.363 304.917 301.518 306.469 301.05L320.067 296.955L306.469 292.86Z" fill="#E64732"/>
<path d="M941.883 369.314C942.781 369.044 943.598 368.555 944.261 367.891C944.925 367.228 945.414 366.41 945.684 365.512L948.054 357.623L950.432 365.512C950.702 366.41 951.191 367.228 951.855 367.892C952.518 368.556 953.336 369.044 954.234 369.314L962.121 371.693L954.234 374.064C953.336 374.334 952.518 374.823 951.855 375.486C951.191 376.15 950.702 376.968 950.432 377.866L948.054 385.755L945.684 377.866C945.414 376.968 944.925 376.151 944.261 375.487C943.598 374.823 942.781 374.334 941.883 374.064L933.996 371.693L941.883 369.314Z" fill="#8E53C2"/>
<path d="M612.381 152.793C613.29 152.519 614.117 152.024 614.788 151.353C615.459 150.682 615.954 149.855 616.227 148.946L618.623 140.986L621.019 148.946C621.292 149.854 621.785 150.68 622.455 151.351C623.124 152.023 623.949 152.518 624.857 152.793L632.814 155.189L624.857 157.586C623.95 157.859 623.125 158.353 622.456 159.023C621.786 159.692 621.293 160.517 621.019 161.424L618.623 169.384L616.227 161.424C615.954 160.516 615.459 159.69 614.788 159.02C614.117 158.35 613.29 157.858 612.381 157.586L604.424 155.189L612.381 152.793Z" fill="#8E53C2"/>
</svg>
