<svg width="801" height="568" viewBox="0 0 801 568" fill="none" xmlns="http://www.w3.org/2000/svg">
<g clip-path="url(#clip0_3348_10399)">
<path d="M282.617 48.7501C281.881 48.8872 281.186 49.1899 280.584 49.6351C279.938 50.1133 279.379 50.7 278.933 51.3691C278.449 52.0877 278.074 52.8743 277.82 53.7031C277.549 54.5742 277.41 55.4809 277.407 56.3931V430.698C277.415 432.512 277.943 434.286 278.929 435.808C279.377 436.503 279.935 437.119 280.581 437.633C281.179 438.11 281.873 438.451 282.615 438.633L559.938 502.642C561.049 502.909 562.204 502.941 563.327 502.734C564.339 502.544 565.291 502.12 566.109 501.496C566.917 500.872 567.563 500.063 567.993 499.137C568.462 498.114 568.698 497.001 568.687 495.876V7.8191C568.696 6.68203 568.459 5.5565 567.993 4.5191C567.56 3.56519 566.916 2.72203 566.109 2.0531C565.299 1.38435 564.348 0.905948 563.328 0.653102C562.218 0.383245 561.063 0.349173 559.939 0.553096L282.617 48.7501Z" fill="#090814"/>
<path d="M289.021 58.245C288.27 58.3918 287.563 58.7063 286.951 59.165C286.295 59.6543 285.729 60.2539 285.279 60.937C284.792 61.6682 284.418 62.4681 284.169 63.31C283.904 64.1951 283.773 65.1151 283.783 66.039V424.43C283.771 426.269 284.292 428.072 285.283 429.622C285.734 430.334 286.299 430.966 286.955 431.495C287.562 431.988 288.268 432.344 289.025 432.539L548.53 490.41C549.631 490.648 550.77 490.648 551.872 490.41C552.87 490.194 553.803 489.744 554.592 489.095C555.382 488.447 556.006 487.62 556.412 486.683C556.858 485.647 557.074 484.526 557.047 483.398V23.498C557.072 22.358 556.855 21.2256 556.412 20.175C556.003 19.2105 555.383 18.3502 554.597 17.6578C553.812 16.9653 552.88 16.4586 551.872 16.175C550.784 15.8725 549.645 15.8043 548.53 15.975L289.021 58.245Z" fill="white"/>
<path d="M322.153 107.056C321.803 107.097 321.467 107.218 321.172 107.41C320.861 107.611 320.59 107.868 320.372 108.168C320.137 108.488 319.955 108.844 319.833 109.221C319.701 109.621 319.634 110.038 319.633 110.459V124.807C319.632 125.215 319.699 125.621 319.833 126.007C319.952 126.352 320.134 126.672 320.371 126.95C320.59 127.207 320.863 127.412 321.171 127.55C321.479 127.685 321.817 127.74 322.152 127.71L496.952 112.289C497.427 112.244 497.888 112.104 498.307 111.876C498.727 111.649 499.103 111.348 499.416 110.988C499.736 110.622 499.99 110.203 500.166 109.75C500.347 109.286 500.441 108.792 500.444 108.294V91.348C500.445 90.8677 500.352 90.3918 500.168 89.948C499.996 89.5358 499.741 89.1639 499.418 88.856C499.101 88.555 498.723 88.3264 498.309 88.186C497.872 88.0387 497.409 87.9888 496.951 88.04L322.153 107.056Z" fill="#2BB828"/>
<path d="M321.212 154.723C321.124 154.728 321.039 154.755 320.964 154.8C320.886 154.846 320.819 154.908 320.764 154.98C320.705 155.058 320.66 155.144 320.629 155.237C320.596 155.336 320.579 155.44 320.579 155.544V161.151C320.579 161.253 320.595 161.354 320.628 161.451C320.658 161.539 320.704 161.62 320.763 161.692C320.818 161.758 320.886 161.812 320.963 161.849C321.04 161.886 321.126 161.903 321.211 161.898L499.132 152.254C499.25 152.247 499.366 152.216 499.472 152.163C499.577 152.11 499.671 152.038 499.749 151.95C499.913 151.767 500.005 151.53 500.005 151.284V144.674C500.006 144.552 499.982 144.432 499.936 144.319C499.893 144.214 499.829 144.118 499.749 144.038C499.669 143.957 499.572 143.895 499.465 143.855C499.359 143.814 499.245 143.798 499.131 143.805L321.212 154.723Z" fill="#CCCCCC"/>
<path d="M321.212 172.958C321.125 172.962 321.04 172.987 320.964 173.031C320.886 173.076 320.818 173.137 320.764 173.208C320.705 173.285 320.66 173.371 320.629 173.462C320.596 173.561 320.58 173.664 320.58 173.768V179.373C320.58 179.475 320.596 179.577 320.629 179.673C320.659 179.763 320.704 179.847 320.764 179.921C320.819 179.988 320.887 180.043 320.964 180.081C321.041 180.119 321.126 180.138 321.212 180.134L499.133 173.723C499.251 173.719 499.367 173.691 499.473 173.64C499.578 173.589 499.672 173.518 499.75 173.432C499.915 173.252 500.006 173.016 500.006 172.772V166.163C500.006 166.041 499.983 165.92 499.937 165.807C499.894 165.701 499.83 165.604 499.75 165.522C499.671 165.442 499.577 165.379 499.473 165.336C499.365 165.293 499.249 165.273 499.133 165.278L321.212 172.958Z" fill="#CCCCCC"/>
<path d="M321.212 191.194C321.125 191.196 321.04 191.22 320.964 191.262C320.887 191.306 320.819 191.365 320.764 191.435C320.705 191.511 320.659 191.596 320.629 191.687C320.596 191.785 320.58 191.888 320.58 191.992V197.599C320.58 197.701 320.597 197.802 320.63 197.899C320.66 197.989 320.705 198.073 320.764 198.147C320.819 198.215 320.887 198.272 320.964 198.312C321.041 198.352 321.126 198.372 321.212 198.37L499.13 195.199C499.248 195.196 499.364 195.167 499.47 195.116C499.574 195.068 499.668 195 499.747 194.916C499.828 194.829 499.891 194.727 499.934 194.616C499.979 194.501 500.002 194.379 500.002 194.256V187.648C500.003 187.526 499.979 187.405 499.934 187.291C499.891 187.184 499.827 187.086 499.747 187.003C499.669 186.92 499.575 186.854 499.47 186.808C499.362 186.764 499.246 186.743 499.13 186.747L321.212 191.194Z" fill="#CCCCCC"/>
<path d="M320.893 227.616C320.806 227.615 320.721 227.635 320.645 227.675C320.567 227.716 320.499 227.772 320.445 227.84C320.386 227.914 320.342 227.998 320.313 228.088C320.28 228.185 320.264 228.286 320.264 228.388V233.988C320.263 234.092 320.28 234.195 320.313 234.293C320.343 234.383 320.389 234.467 320.448 234.541C320.502 234.611 320.57 234.67 320.648 234.713C320.724 234.757 320.811 234.781 320.9 234.783L498.7 238.083C498.816 238.085 498.932 238.063 499.039 238.017C499.143 237.972 499.237 237.907 499.316 237.825C499.396 237.741 499.459 237.643 499.503 237.535C499.548 237.422 499.572 237.301 499.572 237.178V230.572C499.572 230.449 499.548 230.327 499.503 230.212C499.46 230.101 499.396 230 499.316 229.912C499.237 229.828 499.143 229.76 499.039 229.712C498.932 229.663 498.817 229.637 498.7 229.635L320.893 227.616Z" fill="#CCCCCC"/>
<path d="M320.893 245.847C320.807 245.844 320.722 245.863 320.645 245.901C320.567 245.941 320.499 245.997 320.445 246.066C320.385 246.14 320.339 246.224 320.31 246.314C320.278 246.411 320.262 246.512 320.263 246.614V252.214C320.263 252.318 320.28 252.421 320.313 252.52C320.343 252.611 320.389 252.697 320.448 252.773C320.502 252.844 320.57 252.903 320.648 252.948C320.723 252.991 320.809 253.016 320.896 253.019L498.696 259.549C498.812 259.553 498.927 259.533 499.035 259.489C499.139 259.446 499.233 259.382 499.312 259.302C499.392 259.22 499.456 259.123 499.499 259.016C499.544 258.903 499.567 258.781 499.567 258.659V252.051C499.567 251.927 499.544 251.805 499.499 251.69C499.455 251.579 499.392 251.478 499.312 251.39C499.233 251.304 499.139 251.234 499.035 251.184C498.929 251.133 498.813 251.105 498.696 251.101L320.893 245.847Z" fill="#CCCCCC"/>
<path d="M320.893 264.076C320.808 264.073 320.724 264.091 320.648 264.129C320.571 264.166 320.502 264.219 320.448 264.285C320.388 264.357 320.343 264.439 320.313 264.527C320.28 264.624 320.263 264.725 320.263 264.827V270.427C320.263 270.531 320.28 270.635 320.313 270.734C320.343 270.826 320.389 270.913 320.448 270.99C320.502 271.062 320.57 271.122 320.648 271.168C320.724 271.216 320.81 271.245 320.9 271.252L498.7 281.017C498.813 281.024 498.927 281.006 499.034 280.966C499.14 280.925 499.237 280.862 499.317 280.781C499.397 280.7 499.461 280.604 499.504 280.498C499.55 280.385 499.573 280.265 499.573 280.143V273.535C499.572 273.291 499.48 273.056 499.317 272.875C499.238 272.788 499.144 272.717 499.04 272.665C498.934 272.612 498.819 272.582 498.701 272.576L320.893 264.076Z" fill="#CCCCCC"/>
<path d="M320.893 282.396C320.808 282.39 320.722 282.405 320.645 282.441C320.568 282.477 320.499 282.53 320.445 282.596C320.385 282.667 320.34 282.748 320.31 282.835C320.277 282.931 320.26 283.033 320.26 283.135V288.735C320.26 288.84 320.277 288.944 320.31 289.043C320.34 289.136 320.386 289.223 320.445 289.301C320.499 289.374 320.567 289.436 320.645 289.483C320.72 289.53 320.805 289.558 320.893 289.566L498.693 302.58C498.808 302.589 498.924 302.572 499.032 302.532C499.136 302.493 499.23 302.433 499.309 302.355C499.389 302.275 499.453 302.181 499.496 302.076C499.541 301.964 499.565 301.843 499.564 301.722V295.113C499.564 294.989 499.541 294.866 499.496 294.75C499.452 294.638 499.389 294.535 499.309 294.445C499.23 294.357 499.137 294.283 499.032 294.229C498.926 294.174 498.811 294.142 498.693 294.134L320.893 282.396Z" fill="#CCCCCC"/>
<path d="M320.893 300.624C320.808 300.616 320.723 300.631 320.645 300.665C320.568 300.701 320.499 300.753 320.445 300.818C320.386 300.887 320.34 300.966 320.31 301.052C320.276 301.149 320.259 301.25 320.26 301.352V306.952C320.26 307.057 320.277 307.161 320.31 307.261C320.34 307.355 320.385 307.443 320.444 307.522C320.498 307.596 320.566 307.659 320.644 307.708C320.719 307.755 320.804 307.783 320.892 307.791L498.692 324.045C498.806 324.056 498.922 324.042 499.031 324.004C499.134 323.967 499.229 323.909 499.308 323.832C499.388 323.754 499.452 323.66 499.495 323.556C499.54 323.444 499.564 323.324 499.563 323.203V316.594C499.563 316.469 499.54 316.346 499.495 316.229C499.451 316.116 499.388 316.011 499.308 315.92C499.23 315.83 499.136 315.755 499.031 315.699C498.926 315.643 498.81 315.609 498.692 315.599L320.893 300.624Z" fill="#CCCCCC"/>
<path d="M320.893 337.178C320.809 337.168 320.723 337.179 320.645 337.21C320.568 337.241 320.5 337.288 320.445 337.349C320.385 337.418 320.339 337.498 320.31 337.585C320.276 337.682 320.259 337.783 320.26 337.885V343.485C320.26 343.59 320.277 343.695 320.31 343.795C320.341 343.89 320.386 343.98 320.445 344.061C320.499 344.137 320.567 344.202 320.645 344.254C320.719 344.304 320.804 344.336 320.893 344.347L498.693 367.085C498.807 367.1 498.922 367.091 499.032 367.056C499.135 367.022 499.23 366.966 499.309 366.891C499.389 366.816 499.453 366.724 499.496 366.622C499.542 366.511 499.565 366.392 499.564 366.272V359.666C499.564 359.541 499.541 359.416 499.496 359.299C499.452 359.184 499.388 359.078 499.309 358.984C499.231 358.892 499.137 358.813 499.032 358.753C498.927 358.693 498.812 358.654 498.693 358.639L320.893 337.178Z" fill="#CCCCCC"/>
<path d="M320.893 355.407C320.809 355.395 320.724 355.404 320.645 355.435C320.568 355.466 320.5 355.513 320.445 355.575C320.385 355.642 320.339 355.72 320.31 355.804C320.276 355.9 320.259 356.002 320.26 356.104V361.704C320.26 361.81 320.276 361.915 320.309 362.015C320.34 362.111 320.385 362.201 320.444 362.283C320.498 362.361 320.566 362.429 320.644 362.483C320.718 362.535 320.803 362.569 320.892 362.583L498.692 388.557C498.805 388.574 498.921 388.566 499.031 388.534C499.134 388.503 499.228 388.449 499.308 388.377C499.389 388.303 499.452 388.212 499.495 388.111C499.541 388.001 499.564 387.882 499.563 387.762V381.15C499.563 381.024 499.539 380.9 499.495 380.782C499.451 380.666 499.387 380.558 499.308 380.463C499.23 380.369 499.136 380.289 499.031 380.227C498.927 380.165 498.812 380.125 498.692 380.107L320.893 355.407Z" fill="#CCCCCC"/>
<path d="M320.893 373.637C320.81 373.623 320.724 373.631 320.645 373.66C320.568 373.689 320.5 373.736 320.445 373.796C320.385 373.862 320.339 373.939 320.31 374.023C320.276 374.12 320.259 374.221 320.26 374.323V379.928C320.26 380.034 320.277 380.14 320.31 380.241C320.341 380.338 320.386 380.429 320.445 380.512C320.499 380.59 320.567 380.658 320.645 380.712C320.719 380.764 320.804 380.798 320.893 380.812L498.693 410.021C498.806 410.041 498.921 410.035 499.032 410.005C499.135 409.976 499.229 409.924 499.309 409.853C499.39 409.78 499.454 409.691 499.496 409.59C499.542 409.48 499.565 409.362 499.564 409.242V402.632C499.564 402.506 499.541 402.38 499.496 402.262C499.452 402.145 499.388 402.036 499.309 401.939C499.231 401.844 499.137 401.762 499.032 401.698C498.928 401.635 498.813 401.592 498.693 401.572L320.893 373.637Z" fill="#CCCCCC"/>
<path d="M611.603 253.235H686.458V252.173H612.665V202.796H611.603V253.235Z" fill="#090814"/>
<path d="M626.799 348.844H625.737V298.405H700.592V299.467H626.799V348.844Z" fill="#090814"/>
<path d="M725.742 215.457H650.887V165.018H651.949V214.39H725.742V215.457Z" fill="#090814"/>
<path d="M635.993 143.803C635.59 143.803 635.205 143.963 634.921 144.247C634.636 144.532 634.477 144.917 634.477 145.319C634.477 145.721 634.636 146.107 634.921 146.391C635.205 146.675 635.59 146.835 635.993 146.835H666.741C667.143 146.835 667.528 146.675 667.812 146.391C668.097 146.107 668.257 145.721 668.257 145.319C668.257 144.917 668.097 144.532 667.812 144.247C667.528 143.963 667.143 143.803 666.741 143.803H635.993Z" fill="#3F3D56"/>
<path d="M635.993 152.734C635.59 152.734 635.205 152.894 634.921 153.178C634.636 153.463 634.477 153.848 634.477 154.25C634.477 154.652 634.636 155.038 634.921 155.322C635.205 155.607 635.59 155.766 635.993 155.766H666.741C667.143 155.766 667.528 155.607 667.812 155.322C668.097 155.038 668.257 154.652 668.257 154.25C668.257 153.848 668.097 153.463 667.812 153.178C667.528 152.894 667.143 152.734 666.741 152.734H635.993Z" fill="#3F3D56"/>
<path d="M596.553 196.008C596.151 196.008 595.765 195.848 595.481 195.564C595.197 195.28 595.037 194.894 595.037 194.492C595.037 194.09 595.197 193.704 595.481 193.42C595.765 193.136 596.151 192.976 596.553 192.976H627.304C627.503 192.976 627.7 193.015 627.884 193.091C628.068 193.168 628.235 193.279 628.376 193.42C628.517 193.561 628.629 193.728 628.705 193.912C628.781 194.096 628.82 194.293 628.82 194.492C628.82 194.691 628.781 194.888 628.705 195.072C628.629 195.256 628.517 195.423 628.376 195.564C628.235 195.705 628.068 195.816 627.884 195.893C627.7 195.969 627.503 196.008 627.304 196.008H596.553Z" fill="#2F2E41"/>
<path d="M596.553 187.076C596.151 187.076 595.765 186.917 595.481 186.632C595.197 186.348 595.037 185.962 595.037 185.56C595.037 185.158 595.197 184.773 595.481 184.488C595.765 184.204 596.151 184.044 596.553 184.044H627.304C627.503 184.044 627.7 184.084 627.884 184.16C628.068 184.236 628.235 184.348 628.376 184.488C628.517 184.629 628.629 184.796 628.705 184.98C628.781 185.164 628.82 185.361 628.82 185.56C628.82 185.76 628.781 185.957 628.705 186.141C628.629 186.325 628.517 186.492 628.376 186.632C628.235 186.773 628.068 186.885 627.884 186.961C627.7 187.037 627.503 187.076 627.304 187.076H596.553Z" fill="#2F2E41"/>
<path d="M743.792 322.16C732.558 322.16 721.577 318.829 712.236 312.588C702.895 306.346 695.615 297.475 691.316 287.097C687.017 276.718 685.892 265.297 688.084 254.279C690.275 243.261 695.685 233.14 703.629 225.196C711.572 217.253 721.693 211.843 732.711 209.651C743.729 207.46 755.15 208.585 765.529 212.884C775.907 217.183 784.778 224.463 791.02 233.804C797.261 243.144 800.592 254.126 800.592 265.36C800.592 280.424 794.608 294.872 783.956 305.524C773.304 316.176 758.857 322.16 743.792 322.16ZM743.792 209.612C732.767 209.611 721.99 212.88 712.822 219.005C703.655 225.13 696.51 233.835 692.29 244.021C688.071 254.207 686.966 265.415 689.117 276.228C691.267 287.041 696.576 296.974 704.372 304.77C712.168 312.566 722.1 317.876 732.913 320.027C743.726 322.178 754.935 321.074 765.12 316.855C775.306 312.636 784.012 305.492 790.138 296.325C796.263 287.158 799.532 276.38 799.532 265.355C799.532 250.572 793.66 236.394 783.207 225.94C772.753 215.486 758.576 209.613 743.792 209.612Z" fill="#090814"/>
<path d="M720.964 221.823C724.482 221.823 727.335 218.971 727.335 215.452C727.335 211.933 724.482 209.081 720.964 209.081C717.445 209.081 714.593 211.933 714.593 215.452C714.593 218.971 717.445 221.823 720.964 221.823Z" fill="#2BB828"/>
<path d="M699 305.838C702.519 305.838 705.371 302.986 705.371 299.467C705.371 295.949 702.519 293.096 699 293.096C695.481 293.096 692.629 295.949 692.629 299.467C692.629 302.986 695.481 305.838 699 305.838Z" fill="#2BB828"/>
<path d="M688.58 259.601C692.099 259.601 694.951 256.749 694.951 253.23C694.951 249.712 692.099 246.859 688.58 246.859C685.061 246.859 682.209 249.712 682.209 253.23C682.209 256.749 685.061 259.601 688.58 259.601Z" fill="#2BB828"/>
<path d="M610.688 355.627C610.485 355.622 610.284 355.658 610.096 355.731C609.907 355.805 609.736 355.916 609.591 356.057C609.446 356.199 609.331 356.367 609.252 356.554C609.173 356.74 609.133 356.941 609.133 357.143C609.133 357.345 609.173 357.546 609.252 357.732C609.331 357.919 609.446 358.087 609.591 358.229C609.736 358.37 609.907 358.481 610.096 358.554C610.284 358.628 610.485 358.664 610.688 358.658H641.439C641.641 358.664 641.842 358.628 642.031 358.554C642.219 358.481 642.391 358.37 642.536 358.229C642.681 358.087 642.796 357.919 642.875 357.732C642.953 357.546 642.994 357.345 642.994 357.143C642.994 356.941 642.953 356.74 642.875 356.554C642.796 356.367 642.681 356.199 642.536 356.057C642.391 355.916 642.219 355.805 642.031 355.731C641.842 355.658 641.641 355.622 641.439 355.627H610.688Z" fill="#2F2E41"/>
<path d="M610.688 364.559C610.286 364.559 609.9 364.719 609.616 365.003C609.332 365.287 609.172 365.673 609.172 366.075C609.172 366.477 609.332 366.863 609.616 367.147C609.9 367.431 610.286 367.591 610.688 367.591H641.439C641.641 367.596 641.842 367.561 642.031 367.487C642.219 367.413 642.391 367.302 642.536 367.161C642.681 367.02 642.796 366.851 642.875 366.665C642.953 366.478 642.994 366.278 642.994 366.076C642.994 365.873 642.953 365.673 642.875 365.486C642.796 365.3 642.681 365.131 642.536 364.99C642.391 364.849 642.219 364.738 642.031 364.664C641.842 364.59 641.641 364.555 641.439 364.56L610.688 364.559Z" fill="#2F2E41"/>
<path d="M181.935 567.301L0 566.865V565.865L181.935 566.301V567.301Z" fill="#D6D6E3"/>
<path d="M147.366 382.005L138.251 364.039L127.763 369.361L136.878 387.327C136.385 388.889 136.207 390.533 136.356 392.164C136.505 393.795 136.976 395.38 137.744 396.827C140.585 402.427 146.644 405.059 151.28 402.708C155.916 400.357 157.367 393.908 154.526 388.308C153.811 386.834 152.81 385.516 151.58 384.433C150.351 383.349 148.918 382.521 147.366 381.997V382.005Z" fill="#ED9DA0"/>
<path d="M85.5 300.785L131.552 386.855L149.559 377.224L109.22 289.03" fill="#2BB828"/>
<path d="M110.656 320.957L123.207 379.25L68.5068 381.161C68.5068 381.161 75.6738 340.675 73.1298 333.678L110.656 320.957Z" fill="#ED9DA0"/>
<path d="M133.889 537.891H121.106V554.739H133.889V537.891Z" fill="#ED9DA0"/>
<path d="M118.519 564.715C118.036 564.377 117.63 563.94 117.327 563.434C117.025 562.927 116.833 562.363 116.765 561.777C116.783 561.04 116.953 560.315 117.264 559.647C117.576 558.979 118.022 558.383 118.575 557.895C118.606 557.504 119.004 552.661 119.89 551.795C119.564 550.774 119.641 549.668 120.104 548.701C120.294 548.431 120.543 548.209 120.833 548.051C121.122 547.893 121.444 547.804 121.774 547.79H121.807L121.824 547.819C121.846 547.857 124.002 551.604 127.248 551.933C129.108 552.124 130.971 551.165 132.784 549.088C132.848 548.934 133.361 546.405 133.692 544.73L133.705 544.663L151.385 553.956L161.719 556.816C162.309 556.979 162.835 557.319 163.227 557.789C163.62 558.259 163.859 558.838 163.913 559.448C163.968 560.058 163.834 560.67 163.532 561.203C163.229 561.735 162.771 562.162 162.219 562.427L157.21 564.835C155.103 565.844 152.797 566.37 150.461 566.373H123.289C121.557 566.383 119.874 565.801 118.519 564.722V564.715Z" fill="#090814"/>
<path d="M32.092 546.382L44.3662 549.953L49.0723 533.776L36.7981 530.205L32.092 546.382Z" fill="#ED9DA0"/>
<path d="M26.8204 555.239C26.4508 554.779 26.1827 554.246 26.0338 553.675C25.8848 553.104 25.8585 552.508 25.9564 551.926C26.1792 551.224 26.5449 550.575 27.0306 550.02C27.5162 549.466 28.1113 549.018 28.7784 548.704C28.9174 548.337 30.6524 543.798 31.7454 543.212C31.7176 542.141 32.1004 541.099 32.8154 540.301C33.0731 540.095 33.3747 539.951 33.6969 539.881C34.0191 539.81 34.3532 539.814 34.6734 539.893L34.7054 539.899L34.7134 539.932C34.7234 539.974 35.7484 544.174 38.7714 545.397C40.5054 546.097 42.5604 545.697 44.8814 544.211C44.9864 544.084 46.1814 541.796 46.9704 540.28L47.0014 540.216L61.3834 554.082L70.5074 559.715C71.0284 560.036 71.439 560.509 71.6843 561.07C71.9296 561.631 71.9979 562.253 71.8802 562.854C71.7625 563.454 71.4643 564.005 71.0255 564.432C70.5867 564.858 70.0282 565.141 69.4244 565.242L63.9414 566.155C61.6365 566.536 59.2756 566.396 57.0314 565.747L30.9424 558.159C29.2764 557.684 27.8229 556.654 26.8234 555.239H26.8204Z" fill="#090814"/>
<path d="M62.5952 351.519L117.295 352.793C117.295 352.793 150.536 448.611 149.264 539.568H103.635L100.925 433.979L92.9992 543.669L32.8652 540.206L62.5952 351.519Z" fill="#090814"/>
<path d="M114.916 244.501C114.916 240.907 113.985 237.374 112.212 234.247C110.44 231.121 107.887 228.507 104.802 226.662C101.718 224.817 98.2078 223.804 94.6147 223.72C91.0215 223.637 87.4683 224.487 84.3018 226.188C81.1354 227.888 78.464 230.38 76.5486 233.422C74.6332 236.463 73.5393 239.949 73.3737 243.539C73.208 247.129 73.9763 250.701 75.6035 253.906C77.2307 257.11 79.6612 259.838 82.6576 261.823C80.9377 266.107 78.6506 270.14 75.8576 273.816L96.3416 290.882L100.357 264.332C104.578 263.006 108.266 260.367 110.885 256.8C113.503 253.233 114.915 248.924 114.916 244.499V244.501Z" fill="#ED9DA0"/>
<path d="M100.309 274.3L76.774 268.575L61.689 287.891C58.0964 295.22 57.5293 303.668 60.11 311.412L72.619 348.945C72.619 348.945 110.784 348.308 119.053 326.045L121.424 321.106C123.014 317.793 123.676 314.11 123.34 310.451C123.003 306.791 121.681 303.291 119.513 300.324L100.309 274.3Z" fill="#2BB828"/>
<path d="M75.2577 398.371L75.6947 378.231L63.9357 377.976L63.4987 398.116C62.326 399.261 61.3931 400.628 60.7544 402.138C60.1157 403.647 59.784 405.269 59.7787 406.908C59.6427 413.186 63.7437 418.366 68.9397 418.479C74.1357 418.592 78.4587 413.591 78.5927 407.313C78.658 405.676 78.3967 404.042 77.8241 402.507C77.2516 400.972 76.3791 399.566 75.2577 398.371Z" fill="#ED9DA0"/>
<path d="M59.0244 297.573V395.191H79.4454L85.4814 298.397" fill="#2BB828"/>
<path d="M83.1738 247.574C83.1738 247.574 99.5418 242.14 95.5108 235.979C95.5108 235.979 112.884 239.005 113.332 235.979C113.78 232.953 113.332 213.562 89.7948 216.701C66.2578 219.84 69.3948 239.565 69.3948 239.565C69.3948 239.565 71.1148 258.634 83.7788 262.557C83.7758 262.558 73.9828 243.652 83.1738 247.574Z" fill="#090814"/>
<path d="M78.0141 227.842C78.0141 227.842 73.1801 224.351 67.5421 225.426C65.5671 225.802 63.4801 227.247 61.5981 228.966C57.8414 232.465 54.9549 236.794 53.1691 241.608C48.2401 254.528 37.8951 286.846 55.9931 290.808C78.6831 295.777 80.0931 247.779 80.0931 247.779L78.0141 227.842Z" fill="#090814"/>
<path d="M179.578 376.609C179.735 376.748 179.863 376.916 179.955 377.105C180.047 377.293 180.101 377.498 180.114 377.707C180.127 377.916 180.098 378.126 180.029 378.324C179.961 378.522 179.854 378.705 179.715 378.862L176.094 382.964L176.288 383.158L173.824 385.939L173.64 385.741L160.672 400.434C160.229 400.937 159.617 401.261 158.952 401.346C158.287 401.43 157.613 401.27 157.058 400.896L146.673 393.891C146.421 393.72 146.209 393.496 146.052 393.235C145.896 392.974 145.798 392.682 145.767 392.379C145.735 392.076 145.77 391.77 145.868 391.482C145.967 391.194 146.128 390.931 146.339 390.711L165.716 370.553C166.123 370.13 166.662 369.859 167.243 369.782C167.825 369.706 168.415 369.829 168.917 370.132L179.334 376.437C179.421 376.489 179.502 376.548 179.577 376.614L179.578 376.609Z" fill="#3F3D56"/>
<path d="M170.323 372.638L175.797 375.95C175.896 376.01 176.011 376.035 176.126 376.023C176.24 376.01 176.347 375.96 176.431 375.88C176.525 375.79 176.647 375.733 176.777 375.719C176.907 375.705 177.038 375.734 177.149 375.802L178.303 376.5C178.46 376.595 178.594 376.724 178.697 376.877C178.799 377.03 178.866 377.203 178.894 377.385C178.921 377.567 178.909 377.752 178.857 377.929C178.805 378.105 178.715 378.268 178.593 378.406L159.807 399.72C159.574 399.985 159.252 400.155 158.901 400.197C158.551 400.239 158.197 400.15 157.908 399.948L147.659 392.796C147.529 392.704 147.42 392.586 147.34 392.448C147.26 392.311 147.21 392.158 147.194 392C147.178 391.842 147.197 391.682 147.248 391.532C147.3 391.381 147.383 391.243 147.492 391.128L166.55 371.038C166.83 370.743 167.204 370.552 167.608 370.498C168.012 370.444 168.422 370.53 168.771 370.741L169.984 371.474C169.883 371.675 169.862 371.906 169.925 372.122C169.988 372.338 170.13 372.522 170.323 372.638Z" fill="#2BB828"/>
<path d="M250.623 324.055H175.06C174.169 324.056 173.314 324.411 172.684 325.042C172.053 325.672 171.699 326.527 171.697 327.418V357.682C171.698 358.574 172.053 359.429 172.683 360.059C173.314 360.689 174.169 361.044 175.06 361.045H180.401V371.924H180.601C182.751 371.922 184.813 371.067 186.333 369.546C187.854 368.026 188.709 365.964 188.711 363.814V361.045H250.625C251.517 361.044 252.372 360.689 253.002 360.059C253.633 359.429 253.987 358.574 253.988 357.682V327.418C253.987 326.526 253.632 325.671 253.001 325.041C252.37 324.41 251.515 324.056 250.623 324.055ZM253.59 357.682C253.589 358.469 253.276 359.223 252.72 359.779C252.164 360.335 251.41 360.648 250.623 360.649H188.313V363.814C188.31 365.825 187.524 367.756 186.12 369.196C184.716 370.636 182.806 371.472 180.796 371.526V360.649H175.06C174.274 360.648 173.52 360.335 172.963 359.779C172.407 359.223 172.094 358.469 172.093 357.682V327.418C172.094 326.632 172.407 325.878 172.963 325.321C173.52 324.765 174.274 324.452 175.06 324.451H250.622C251.409 324.452 252.163 324.765 252.719 325.321C253.275 325.878 253.588 326.632 253.589 327.418L253.59 357.682Z" fill="#3F3D56"/>
<path d="M235.689 332.713H189.996C189.407 332.67 188.824 332.853 188.366 333.225C187.907 333.596 187.607 334.128 187.527 334.713C187.525 334.74 187.525 334.768 187.527 334.795C187.584 335.397 187.875 335.953 188.337 336.343C188.8 336.733 189.397 336.925 190 336.879H235.693C235.996 336.931 236.307 336.916 236.604 336.835C236.901 336.754 237.176 336.609 237.411 336.411C237.646 336.212 237.835 335.965 237.965 335.686C238.095 335.407 238.162 335.103 238.162 334.795C238.162 334.488 238.095 334.184 237.965 333.905C237.835 333.626 237.646 333.378 237.411 333.18C237.176 332.981 236.901 332.837 236.604 332.756C236.307 332.675 235.996 332.66 235.693 332.711L235.689 332.713Z" fill="#2BB828"/>
<path d="M235.689 341.02H189.996C189.407 340.977 188.824 341.16 188.366 341.532C187.907 341.903 187.607 342.436 187.527 343.02C187.525 343.048 187.525 343.075 187.527 343.102C187.584 343.705 187.875 344.26 188.337 344.65C188.8 345.04 189.397 345.232 190 345.186H235.693C235.996 345.238 236.307 345.223 236.604 345.142C236.901 345.061 237.176 344.916 237.411 344.718C237.646 344.519 237.835 344.272 237.965 343.993C238.095 343.714 238.162 343.41 238.162 343.102C238.162 342.795 238.095 342.491 237.965 342.212C237.835 341.933 237.646 341.685 237.411 341.487C237.176 341.288 236.901 341.144 236.604 341.063C236.307 340.982 235.996 340.967 235.693 341.018L235.689 341.02Z" fill="#2BB828"/>
<path d="M235.689 349.328H189.996C189.407 349.286 188.824 349.468 188.366 349.84C187.907 350.211 187.607 350.744 187.527 351.328C187.525 351.356 187.525 351.383 187.527 351.41C187.584 352.013 187.875 352.568 188.337 352.958C188.8 353.348 189.397 353.541 190 353.494H235.693C235.996 353.546 236.307 353.531 236.604 353.45C236.901 353.369 237.176 353.224 237.411 353.026C237.646 352.827 237.835 352.58 237.965 352.301C238.095 352.022 238.162 351.718 238.162 351.41C238.162 351.103 238.095 350.799 237.965 350.52C237.835 350.241 237.646 349.993 237.411 349.795C237.176 349.597 236.901 349.452 236.604 349.371C236.307 349.29 235.996 349.275 235.693 349.326L235.689 349.328Z" fill="#2BB828"/>
<path d="M745.622 300.624C765.351 300.624 781.344 284.631 781.344 264.902C781.344 245.173 765.351 229.18 745.622 229.18C725.894 229.18 709.9 245.173 709.9 264.902C709.9 284.631 725.894 300.624 745.622 300.624Z" fill="#E6E6E6"/>
<path d="M727.537 272.418C723.72 271.983 720.764 268.326 720.437 264.618C720.051 260.204 722.622 256.011 726.148 253.534C729.946 251.075 734.354 249.721 738.878 249.624C747.551 249.192 756.075 252.002 762.792 257.506C766.124 260.273 769.235 263.798 770.414 268.055C770.979 269.886 771.018 271.84 770.526 273.692C770.034 275.545 769.03 277.221 767.631 278.531C766.895 279.166 766.036 279.641 765.107 279.927C764.179 280.213 763.201 280.303 762.236 280.192C759.936 279.822 757.771 278.86 755.957 277.399C752.372 274.793 749.429 271.162 745.057 269.799C741.857 268.799 737.699 269.679 735.742 272.575C735.298 273.238 735.01 273.993 734.9 274.783C734.859 274.951 734.885 275.129 734.97 275.28C735.056 275.431 735.195 275.543 735.361 275.595C735.529 275.64 735.709 275.618 735.861 275.531C736.013 275.445 736.125 275.302 736.173 275.134C736.687 271.487 741.173 270.125 744.319 270.958C748.908 272.173 751.988 276.267 755.753 278.869C757.702 280.322 759.998 281.238 762.412 281.527C764.505 281.691 766.582 281.053 768.222 279.742C769.755 278.432 770.91 276.737 771.566 274.83C772.223 272.924 772.358 270.877 771.957 268.901C771.133 264.347 768.068 260.443 764.705 257.421C757.886 251.359 749.034 248.089 739.913 248.262C735.177 248.237 730.518 249.453 726.398 251.788C724.411 252.932 722.719 254.523 721.454 256.435C720.189 258.347 719.387 260.527 719.112 262.803C718.934 264.859 719.373 266.921 720.371 268.727C721.369 270.533 722.882 272.001 724.717 272.945C725.603 273.365 726.554 273.633 727.53 273.739C728.378 273.834 728.373 272.513 727.537 272.418Z" fill="#3F3D56"/>
</g>
<defs>
<clipPath id="clip0_3348_10399">
<rect width="800.597" height="566.88" fill="white" transform="translate(0 0.420898)"/>
</clipPath>
</defs>
</svg>
