<svg width="869" height="573" viewBox="0 0 869 573" fill="none" xmlns="http://www.w3.org/2000/svg">
<g clip-path="url(#clip0_3305_9095)">
<path d="M803.873 572.07L804.825 570.312C792.071 563.414 776.199 554.831 767.909 540.744C759.736 526.858 759.553 508.001 767.43 491.533C774.134 477.518 786.448 464.961 803.041 455.22C806.314 453.299 809.75 451.478 813.073 449.717C821.104 445.46 829.409 441.059 836.257 434.814C845.689 426.213 852.825 411.779 847.506 398.923C845.757 394.819 842.892 391.288 839.237 388.731C835.582 386.174 831.283 384.693 826.828 384.456L826.716 386.453C830.797 386.669 834.735 388.025 838.084 390.367C841.433 392.709 844.059 395.942 845.663 399.701C850.606 411.648 843.825 425.206 834.909 433.336C828.249 439.41 820.057 443.751 812.136 447.95C808.794 449.721 805.339 451.552 802.028 453.496C785.09 463.439 772.502 476.293 765.626 490.67C757.465 507.73 757.68 527.307 766.185 541.759C774.758 556.325 790.902 565.056 803.873 572.07Z" fill="#F1F1F1"/>
<path d="M814.152 394.997C823.817 394.997 831.652 391.191 831.652 386.497C831.652 381.803 823.817 377.997 814.152 377.997C804.487 377.997 796.652 381.803 796.652 386.497C796.652 391.191 804.487 394.997 814.152 394.997Z" fill="#F1F1F1"/>
<path d="M800.152 450.997C809.817 450.997 817.652 447.191 817.652 442.497C817.652 437.803 809.817 433.997 800.152 433.997C790.487 433.997 782.652 437.803 782.652 442.497C782.652 447.191 790.487 450.997 800.152 450.997Z" fill="#F1F1F1"/>
<path d="M832.152 459.997C841.817 459.997 849.652 456.191 849.652 451.497C849.652 446.803 841.817 442.997 832.152 442.997C822.487 442.997 814.652 446.803 814.652 451.497C814.652 456.191 822.487 459.997 832.152 459.997Z" fill="#F1F1F1"/>
<path d="M782.152 506.997C791.817 506.997 799.652 503.191 799.652 498.497C799.652 493.803 791.817 489.997 782.152 489.997C772.487 489.997 764.652 493.803 764.652 498.497C764.652 503.191 772.487 506.997 782.152 506.997Z" fill="#F1F1F1"/>
<path d="M747.152 506.997C756.817 506.997 764.652 503.191 764.652 498.497C764.652 493.803 756.817 489.997 747.152 489.997C737.487 489.997 729.652 493.803 729.652 498.497C729.652 503.191 737.487 506.997 747.152 506.997Z" fill="#F1F1F1"/>
<path d="M590.743 348.464C591.905 348.336 593.026 347.954 594.025 347.346C595.025 346.738 595.879 345.919 596.527 344.945C597.175 343.971 597.602 342.867 597.778 341.711C597.953 340.554 597.873 339.373 597.543 338.251L620.681 321.723L606.892 316.414L587.033 332.923C585.184 333.602 583.649 334.937 582.719 336.673C581.789 338.408 581.527 340.425 581.985 342.341C582.442 344.257 583.586 345.938 585.2 347.067C586.814 348.195 588.786 348.692 590.743 348.464Z" fill="#FFB7B7"/>
<path d="M603.588 337.579L595.912 324.468L596.075 324.283L627.046 289.023L651.092 248.016L671.973 250.677L672.281 256.989L672.219 257.083L639.044 306.953L639.009 306.983L603.588 337.579Z" fill="#3F3D56"/>
<path d="M597.123 347.983L555.635 371.463L525.273 317.817L566.761 294.337L597.123 347.983Z" fill="#E5E5E5"/>
<path d="M565.615 314.755L543.368 327.346L545.532 331.168L567.778 318.577L565.615 314.755Z" fill="#2BB828"/>
<path d="M571.24 324.693L548.993 337.284L551.157 341.107L573.403 328.516L571.24 324.693Z" fill="#2BB828"/>
<path d="M576.865 334.632L554.618 347.223L556.782 351.045L579.028 338.454L576.865 334.632Z" fill="#2BB828"/>
<path d="M705.915 559.425H694.107L688.489 513.877L705.917 513.878L705.915 559.425Z" fill="#FFB7B7"/>
<path d="M708.927 570.872L670.851 570.871V570.389C670.851 566.458 672.412 562.689 675.192 559.91C677.971 557.131 681.74 555.569 685.671 555.569L708.927 555.57L708.927 570.872Z" fill="#2F2E41"/>
<path d="M604.285 559.039L592.8 556.296L597.913 510.689L614.864 514.737L604.285 559.039Z" fill="#FFB7B7"/>
<path d="M604.556 570.872L567.521 562.028L567.633 561.56C568.546 557.737 570.94 554.433 574.289 552.375C577.638 550.318 581.667 549.674 585.49 550.587L608.111 555.988L604.556 570.872Z" fill="#2F2E41"/>
<path d="M650.179 227.192V207.315C650.177 203.816 650.864 200.35 652.202 197.117C653.539 193.883 655.501 190.945 657.974 188.47C660.448 185.995 663.385 184.032 666.617 182.692C669.85 181.353 673.315 180.663 676.814 180.663C680.313 180.663 683.778 181.353 687.011 182.692C690.243 184.032 693.18 185.995 695.654 188.47C698.127 190.945 700.089 193.883 701.427 197.117C702.764 200.35 703.451 203.816 703.449 207.315V227.192C703.448 228.14 703.071 229.05 702.4 229.721C701.729 230.391 700.82 230.769 699.871 230.77H653.757C652.808 230.769 651.899 230.391 651.228 229.721C650.557 229.05 650.18 228.14 650.179 227.192Z" fill="#2F2E41"/>
<path d="M670.241 230.468C681.026 230.468 689.769 221.725 689.769 210.94C689.769 200.155 681.026 191.412 670.241 191.412C659.456 191.412 650.713 200.155 650.713 210.94C650.713 221.725 659.456 230.468 670.241 230.468Z" fill="#FFB7B7"/>
<path d="M643.878 208.905C643.884 203.319 646.106 197.963 650.056 194.013C654.006 190.063 659.362 187.841 664.948 187.835H668.923C674.509 187.841 679.865 190.063 683.815 194.013C687.765 197.963 689.987 203.319 689.993 208.905V209.302H681.591L678.726 201.278L678.153 209.302H673.811L672.365 205.254L672.076 209.302H643.878V208.905Z" fill="#2F2E41"/>
<path d="M681.631 314.007L631.91 312.114L629.13 279.585C626.986 273.631 626.952 268.519 629.027 264.392C630.812 261.001 633.811 258.409 637.424 257.134L648.304 243.994C649.703 242.305 651.461 240.948 653.45 240.021C655.438 239.094 657.608 238.62 659.802 238.635L688.069 238.828C688.751 238.418 692.883 236.318 701.034 239.851C709.876 243.684 707.823 256.995 707.801 257.129L707.78 257.254L707.683 257.336L688.88 273.171L681.631 314.007Z" fill="#3F3D56"/>
<path d="M632.306 308.619L608.787 351.499L590.956 546.581L611.102 552.734L646.764 400.129L688.15 548.404L712.3 549.009L695.857 377.898L681.487 311.649L632.306 308.619Z" fill="#2F2E41"/>
<path d="M695.141 378.038C696.012 377.257 696.7 376.294 697.159 375.218C697.617 374.141 697.833 372.978 697.793 371.809C697.753 370.64 697.457 369.493 696.926 368.451C696.395 367.409 695.642 366.496 694.72 365.776L703.902 338.864L689.6 342.58L683.074 367.566C681.967 369.195 681.496 371.174 681.751 373.127C682.006 375.08 682.968 376.871 684.456 378.162C685.943 379.453 687.853 380.154 689.822 380.131C691.791 380.108 693.684 379.363 695.141 378.038Z" fill="#FFB7B7"/>
<path d="M699.243 361.707L685.367 355.522L690.03 308.576L685.691 261.237L704.214 251.237L708.141 256.188L708.145 256.301L710.226 316.161L710.215 316.207L699.243 361.707Z" fill="#3F3D56"/>
<path d="M498.162 218.162H0V0H498.162L498.162 218.162Z" fill="white"/>
<path d="M498.162 218.162H0V0H498.162L498.162 218.162ZM4.81903 213.343H493.343V4.81902H4.81903V213.343Z" fill="#E5E5E5"/>
<path d="M249.285 175.642L163.756 111.579L79.3959 174.766L77.4648 172.189L163.756 107.556L248.877 171.313L333.465 78.746L333.805 78.609L419.13 44.23L420.333 47.217L335.348 81.458L249.285 175.642Z" fill="#3F3D56"/>
<path d="M78.43 183.137C83.7648 183.137 88.0894 178.812 88.0894 173.477C88.0894 168.143 83.7648 163.818 78.43 163.818C73.0952 163.818 68.7705 168.143 68.7705 173.477C68.7705 178.812 73.0952 183.137 78.43 183.137Z" fill="#2BB828"/>
<path d="M163.755 120.35C169.09 120.35 173.415 116.025 173.415 110.691C173.415 105.356 169.09 101.031 163.755 101.031C158.42 101.031 154.096 105.356 154.096 110.691C154.096 116.025 158.42 120.35 163.755 120.35Z" fill="#2BB828"/>
<path d="M249.081 183.137C254.416 183.137 258.741 178.812 258.741 173.477C258.741 168.143 254.416 163.818 249.081 163.818C243.747 163.818 239.422 168.143 239.422 173.477C239.422 178.812 243.747 183.137 249.081 183.137Z" fill="#2BB828"/>
<path d="M334.407 89.7618C339.741 89.7618 344.066 85.4371 344.066 80.1023C344.066 74.7676 339.741 70.4429 334.407 70.4429C329.072 70.4429 324.747 74.7676 324.747 80.1023C324.747 85.4371 329.072 89.7618 334.407 89.7618Z" fill="#2BB828"/>
<path d="M419.732 54.3438C425.066 54.3438 429.391 50.0192 429.391 44.6844C429.391 39.3496 425.066 35.0249 419.732 35.0249C414.397 35.0249 410.072 39.3496 410.072 44.6844C410.072 50.0192 414.397 54.3438 419.732 54.3438Z" fill="#2BB828"/>
<path d="M867.132 572.679H486.132C485.867 572.679 485.612 572.574 485.425 572.386C485.237 572.199 485.132 571.944 485.132 571.679C485.132 571.414 485.237 571.16 485.425 570.972C485.612 570.785 485.867 570.679 486.132 570.679H867.132C867.397 570.679 867.651 570.785 867.839 570.972C868.026 571.16 868.132 571.414 868.132 571.679C868.132 571.944 868.026 572.199 867.839 572.386C867.651 572.574 867.397 572.679 867.132 572.679Z" fill="#CBCBCB"/>
</g>
<defs>
<clipPath id="clip0_3305_9095">
<rect width="868.132" height="572.679" fill="white"/>
</clipPath>
</defs>
</svg>
