<svg width="838" height="659" viewBox="0 0 838 659" fill="none" xmlns="http://www.w3.org/2000/svg">
<g clip-path="url(#clip0_3416_416)">
<path d="M253.615 253.877C249.131 248.067 242.795 242.692 242.393 235.523C242.025 228.947 246.928 222.419 244.861 216.128C243.271 211.292 238.025 208.373 232.9 206.828C223.087 203.911 212.586 204.316 203.027 207.978L203.546 207.612C197.711 205.534 190.892 207.679 186.301 211.653C181.71 215.627 178.982 221.135 176.866 226.655C174.748 232.175 173.108 237.896 170.167 243.071C167.225 248.246 162.721 252.952 156.779 254.741C158.769 258.709 164.987 260.07 168.634 257.336C169.566 256.579 170.403 255.713 171.129 254.757C173.561 251.799 175.994 248.841 178.426 245.884C180.929 250.335 177.19 256.479 180.267 260.6C181.853 262.725 184.75 263.533 187.441 264.111C208.473 268.599 230.291 267.79 250.933 261.756C252.592 261.268 254.422 260.594 255.11 259.093C255.905 257.359 254.794 255.405 253.615 253.877Z" fill="#2F2E41"/>
<path d="M313.251 276.549C313.119 277.127 313.034 277.714 312.994 278.305L267.025 304.824L255.851 298.392L243.939 313.986L262.613 327.296C264.122 328.371 265.939 328.928 267.791 328.883C269.643 328.838 271.43 328.193 272.885 327.045L320.287 289.649C322.427 290.441 324.756 290.563 326.966 289.998C329.177 289.434 331.163 288.21 332.66 286.489C334.158 284.769 335.096 282.633 335.35 280.366C335.604 278.099 335.162 275.808 334.083 273.799C333.003 271.789 331.338 270.156 329.307 269.116C327.277 268.076 324.978 267.679 322.716 267.978C320.455 268.277 318.338 269.257 316.647 270.788C314.956 272.319 313.771 274.329 313.251 276.549Z" fill="#FFB7B7"/>
<path d="M265.486 306.08L250.629 325.336C250.206 325.884 249.67 326.334 249.058 326.656C248.445 326.978 247.771 327.165 247.08 327.202C246.389 327.24 245.698 327.129 245.054 326.875C244.41 326.622 243.828 326.233 243.348 325.735L226.529 308.269C223.737 306.09 221.924 302.894 221.486 299.38C221.048 295.866 222.021 292.322 224.192 289.525C226.364 286.728 229.555 284.906 233.068 284.459C236.581 284.012 240.127 284.976 242.93 287.14L264.025 298.936C264.629 299.274 265.153 299.738 265.561 300.297C265.97 300.855 266.253 301.496 266.392 302.173C266.53 302.851 266.521 303.551 266.365 304.225C266.209 304.9 265.909 305.532 265.486 306.08Z" fill="#008E00"/>
<path d="M245.04 641.589L258.159 641.588L264.4 590.984L245.037 590.985L245.04 641.589Z" fill="#FFB7B7"/>
<path d="M241.693 637.306L267.53 637.305H267.531C271.898 637.305 276.086 639.04 279.174 642.127C282.262 645.215 283.997 649.403 283.997 653.77V654.305L241.694 654.306L241.693 637.306Z" fill="#2F2E41"/>
<path d="M155.149 641.589L168.269 641.588L174.51 590.984L155.147 590.985L155.149 641.589Z" fill="#FFB7B7"/>
<path d="M151.803 637.306L177.64 637.305H177.641C182.008 637.305 186.195 639.04 189.283 642.128C192.371 645.215 194.106 649.403 194.106 653.77V654.305L151.803 654.306L151.803 637.306Z" fill="#2F2E41"/>
<path d="M237.162 246.723C238.528 234.275 229.545 223.077 217.098 221.711C204.65 220.344 193.452 229.327 192.085 241.775C190.719 254.222 199.702 265.421 212.15 266.787C224.597 268.153 235.795 259.17 237.162 246.723Z" fill="#FFB7B7"/>
<path d="M227.889 278.239L241.247 284.857C241.247 284.857 256.171 310.793 247.61 335.406C243.454 347.356 255.158 385.448 255.158 385.448C255.158 385.448 273.293 557.991 273.35 611.244C250.821 614.708 229.418 618.988 228.348 608.287C227.278 597.586 215.564 471.058 215.564 471.058C215.564 471.058 199.455 611.498 186.613 613.638C173.772 615.778 148.089 612.568 148.089 612.568C148.089 612.568 168.478 406.851 182.39 394.009L184.53 383.308L184.473 287.25L200.501 279.602L227.889 278.239Z" fill="#2F2E41"/>
<path d="M180.105 424.065C181.583 423.265 182.868 422.151 183.869 420.801C184.87 419.451 185.563 417.898 185.898 416.251C186.234 414.604 186.205 412.904 185.812 411.27C185.42 409.636 184.674 408.108 183.627 406.793L199.162 303.246L178.866 302.271L166.756 405.39C164.664 407.295 163.344 409.902 163.045 412.715C162.746 415.529 163.49 418.355 165.136 420.657C166.781 422.959 169.214 424.577 171.973 425.205C174.732 425.834 177.625 425.428 180.105 424.065Z" fill="#FFB7B7"/>
<path d="M198.721 329.191L174.448 327.658C173.757 327.615 173.084 327.423 172.474 327.096C171.864 326.769 171.332 326.314 170.914 325.762C170.496 325.211 170.202 324.576 170.051 323.901C169.9 323.225 169.897 322.525 170.041 321.848L175.099 298.134C175.342 294.602 176.975 291.309 179.642 288.98C182.308 286.65 185.79 285.472 189.323 285.706C192.856 285.939 196.153 287.564 198.49 290.225C200.826 292.885 202.013 296.364 201.788 299.898L203.823 323.981C203.881 324.671 203.789 325.365 203.555 326.016C203.321 326.667 202.949 327.26 202.464 327.754C201.98 328.249 201.395 328.633 200.749 328.881C200.103 329.129 199.411 329.235 198.721 329.191Z" fill="#008E00"/>
<path d="M238.387 229.51C237.503 225.502 234.633 222.181 231.327 219.749C225.877 215.74 219.194 213.77 212.441 214.18C205.688 214.591 199.292 217.357 194.368 221.997C191.617 224.427 189.634 227.606 188.66 231.146C188.196 232.915 188.171 234.77 188.588 236.551C189.005 238.332 189.851 239.984 191.052 241.363L191.505 241.647C191.094 239.905 192.448 238.164 194.064 237.395C195.746 236.778 197.501 236.385 199.285 236.225C201.984 235.715 204.542 234.631 206.786 233.048C209.031 231.464 210.909 229.417 212.294 227.045C213.32 229.964 214.96 232.63 217.103 234.863C219.245 237.096 221.841 238.844 224.715 239.99C227.712 241.162 235.943 242.773 238.796 241.285C242.435 239.388 239.27 233.518 238.387 229.51Z" fill="#2F2E41"/>
<path d="M71.5545 610.33C75.4777 611.709 79.6899 612.054 83.7853 611.333C87.8807 610.612 91.7214 608.848 94.9372 606.211C103.127 599.337 105.695 588.015 107.784 577.529L113.964 546.513L101.026 555.421C91.7213 561.827 82.2077 568.44 75.7658 577.719C69.324 586.998 66.5136 599.666 71.6879 609.707" fill="#008E00"/>
<path d="M73.5518 650.04C71.9234 638.177 70.248 626.159 71.3929 614.169C72.4076 603.519 75.6567 593.12 82.2713 584.589C85.7823 580.071 90.0545 576.199 94.8959 573.149C96.1581 572.352 97.32 574.352 96.0632 575.146C87.6861 580.44 81.2065 588.257 77.5588 597.471C73.5302 607.717 72.8833 618.887 73.5773 629.772C73.9967 636.354 74.888 642.893 75.7831 649.424C75.8538 649.72 75.8097 650.031 75.6597 650.295C75.5097 650.559 75.265 650.756 74.9751 650.847C74.6794 650.926 74.3642 650.886 74.0979 650.735C73.8316 650.584 73.6356 650.334 73.5526 650.039L73.5518 650.04Z" fill="#BFE3BF"/>
<path d="M85.2725 631.004C86.9548 633.562 89.2675 635.643 91.9879 637.048C94.7082 638.452 97.7444 639.132 100.804 639.023C108.668 638.649 115.222 633.163 121.121 627.952L138.573 612.544L127.023 611.991C118.717 611.593 110.196 611.22 102.285 613.784C94.3736 616.348 87.0774 622.51 85.631 630.7" fill="#008E00"/>
<path d="M68.949 656.86C76.7887 642.989 85.8814 627.572 102.13 622.645C106.647 621.28 111.384 620.79 116.085 621.204C117.567 621.332 117.197 623.616 115.718 623.488C107.838 622.834 99.9726 624.915 93.4466 629.381C87.1667 633.655 82.2769 639.598 78.1388 645.9C75.6037 649.76 73.333 653.784 71.0624 657.803C70.3368 659.087 68.215 658.16 68.949 656.86Z" fill="#BFE3BF"/>
<path d="M598.711 400.413C583.999 380.726 557.074 375.974 543.695 385.972C530.315 395.97 527.242 423.138 541.953 442.825C555.57 461.048 580.241 466.018 593.829 459.191C593.785 459.404 593.783 459.623 593.821 459.838L594.587 463.625C594.646 463.914 594.777 464.183 594.969 464.407C595.16 464.63 595.406 464.801 595.682 464.903C595.959 465.006 596.256 465.035 596.547 464.99C596.838 464.945 597.113 464.826 597.345 464.644L603.833 459.576C604.065 459.395 604.247 459.157 604.361 458.886C604.476 458.614 604.519 458.318 604.487 458.025C604.454 457.732 604.348 457.453 604.177 457.213C604.006 456.972 603.777 456.78 603.511 456.653L600.021 454.994C599.899 454.939 599.77 454.898 599.637 454.873C610.112 443.8 612.357 418.675 598.711 400.413Z" fill="#EA0000"/>
<path d="M566.531 392.98C573.728 394.123 580.21 397.985 584.641 403.769C589.072 409.554 591.114 416.818 590.343 424.064C590.185 425.724 592.779 425.713 592.936 424.064C593.677 416.254 591.439 408.453 586.67 402.224C581.901 395.996 574.953 391.801 567.22 390.48C565.589 390.203 564.887 392.7 566.531 392.98Z" fill="white"/>
<path d="M623.407 60.105C636.269 39.1627 630.739 12.3865 616.507 3.64555C602.274 -5.09541 575.892 2.08266 563.03 23.025C551.125 42.4098 555.619 67.1718 566.982 77.278C566.768 77.3159 566.563 77.3945 566.378 77.5095L563.141 79.6203C562.895 79.7812 562.693 80.0025 562.556 80.2632C562.419 80.5239 562.35 80.8153 562.358 81.1098C562.365 81.4043 562.447 81.6921 562.597 81.9458C562.746 82.1995 562.958 82.4108 563.213 82.5595L570.319 86.7163C570.573 86.8651 570.861 86.9464 571.156 86.9525C571.45 86.9586 571.741 86.8893 572.001 86.7513C572.262 86.6132 572.482 86.4109 572.642 86.1636C572.802 85.9162 572.896 85.6321 572.916 85.3382L573.169 81.4822C573.175 81.3477 573.165 81.2129 573.14 81.0808C587.298 86.7245 611.476 79.5319 623.407 60.105Z" fill="#0F29BD"/>
<path d="M617.712 27.4557C619.307 34.5653 618.112 42.0162 614.374 48.2704C610.635 54.5246 604.638 59.1046 597.62 61.0651C596.019 61.5312 596.987 63.9371 598.577 63.474C606.109 61.2789 612.532 56.3177 616.559 49.5852C620.585 42.8527 621.918 34.8467 620.289 27.1729C619.944 25.5541 617.364 25.8249 617.712 27.4557Z" fill="white"/>
<path d="M394.756 159.471C393.681 134.918 374.102 115.834 357.416 116.565C340.729 117.296 322.895 138.019 323.97 162.572C324.966 185.299 342.558 203.295 357.632 205.302C357.476 205.454 357.35 205.634 357.261 205.833L355.762 209.394C355.648 209.666 355.605 209.962 355.637 210.255C355.67 210.547 355.776 210.827 355.947 211.067C356.118 211.307 356.348 211.499 356.614 211.626C356.88 211.752 357.174 211.808 357.468 211.789L365.683 211.252C365.977 211.233 366.261 211.139 366.508 210.979C366.756 210.819 366.958 210.599 367.096 210.339C367.234 210.079 367.304 209.787 367.298 209.493C367.292 209.198 367.211 208.91 367.062 208.656L365.112 205.32C365.042 205.205 364.958 205.099 364.863 205.004C379.753 201.749 395.754 182.248 394.756 159.471Z" fill="#008E00"/>
<path d="M371.373 134.064C376.677 139.06 379.86 145.901 380.266 153.176C380.672 160.452 378.269 167.605 373.553 173.16C372.488 174.443 374.638 175.894 375.696 174.619C380.706 168.582 383.248 160.875 382.812 153.042C382.377 145.209 378.997 137.83 373.349 132.386C372.157 131.238 370.171 132.907 371.373 134.064Z" fill="white"/>
<path d="M471.267 322.353C464.835 321.948 458.59 320.024 453.045 316.74C447.5 313.455 442.813 308.903 439.367 303.457C438.401 301.914 437.14 300.217 437.809 298.317C438.042 297.588 438.515 296.96 439.151 296.535C439.787 296.11 440.548 295.914 441.311 295.978C443.282 296.218 444.554 298.146 444.797 299.993C445.072 302.089 443.594 303.735 441.768 304.513C437.307 306.416 432.806 303.476 429.173 301.129C420.893 295.781 411.786 290.944 401.753 290.335C392.47 289.771 382.516 293.411 377.353 301.461C376.45 302.869 378.692 304.17 379.591 302.769C384.712 294.786 395.063 291.918 404.064 293.152C409.428 293.999 414.607 295.757 419.377 298.351C421.851 299.635 424.251 301.058 426.601 302.554C428.838 304.115 431.21 305.475 433.687 306.616C437.818 308.313 443.288 308.181 446.174 304.273C448.866 300.628 446.786 294.559 442.282 293.534C441.295 293.339 440.274 293.393 439.312 293.689C438.35 293.986 437.476 294.517 436.77 295.235C436.063 295.952 435.546 296.834 435.264 297.8C434.982 298.767 434.944 299.788 435.154 300.773C435.604 302.92 437.22 305.02 438.471 306.775C442.231 312.064 447.129 316.442 452.805 319.586C458.48 322.731 464.789 324.562 471.267 324.945C472.934 325.028 472.93 322.435 471.267 322.353Z" fill="#CCCCCC"/>
<path d="M720.216 143.755C727.313 140.454 736.027 139.372 743.248 142.44C750.47 145.507 755.393 153.371 753.058 160.33C751.999 163.486 749.588 166.589 750.527 169.775C751.25 172.228 753.773 173.848 756.25 174.999C758.727 176.151 761.437 177.119 763.228 179.061C765.02 181.003 765.393 184.346 763.155 185.852C762.418 186.348 761.497 186.583 760.782 187.106C760.172 187.601 759.733 188.274 759.524 189.031C759.315 189.788 759.348 190.591 759.617 191.329C760.213 192.812 761.198 194.108 762.468 195.079C765.009 197.27 768.366 199.778 767.577 202.888C767.285 203.719 766.796 204.467 766.152 205.069C765.509 205.671 764.729 206.109 763.88 206.346C762.117 206.854 760.288 207.096 758.453 207.062L683.487 209.424C681.013 209.61 678.524 209.471 676.086 209.01C674.9 208.794 673.772 208.336 672.772 207.664C671.772 206.992 670.921 206.121 670.273 205.105C668.837 202.448 669.78 199.175 671.552 196.693C673.325 194.212 675.834 192.255 677.908 189.976C679.981 187.698 681.677 184.854 681.312 181.909C681.019 179.551 679.465 177.514 678.348 175.372C677.232 173.23 676.584 170.554 678.03 168.583C680.066 165.807 684.957 166.058 687.273 163.47C689.02 161.518 688.683 158.707 688.856 156.189C689.274 150.133 693.468 144.413 699.437 141.757C702.472 140.454 705.774 139.891 709.069 140.116C712.365 140.34 715.559 141.345 718.39 143.047L720.216 143.755Z" fill="#2F2E41"/>
<path d="M811.513 443.477V455.737L764.225 461.57L764.226 443.475L811.513 443.477Z" fill="#9E616A"/>
<path d="M823.397 440.351L823.396 479.882H822.896C818.815 479.881 814.902 478.26 812.016 475.375C809.131 472.489 807.51 468.576 807.51 464.495V464.494L807.511 440.35L823.397 440.351Z" fill="#2F2E41"/>
<path d="M753.056 464.332L750.046 476.216L702.773 470.262L707.216 452.722L753.056 464.332Z" fill="#9E616A"/>
<path d="M765.344 464.218L755.639 502.539L755.154 502.417C751.198 501.415 747.803 498.882 745.714 495.377C743.625 491.871 743.014 487.68 744.016 483.724L749.943 460.318L765.344 464.218Z" fill="#2F2E41"/>
<path d="M740.982 326.846L743.535 329.506C743.535 329.506 760.197 342.571 747.87 376.986L727.705 435.076L795.293 437.712L793.845 464.256C793.845 464.256 695.828 469.708 696.685 453.555C697.542 437.401 701.159 377.59 701.159 377.59L680.795 361.236L685.705 333.576L740.982 326.846Z" fill="#2F2E41"/>
<path d="M688.627 353.208L680.797 361.236L654.544 433.401C654.544 433.401 650.544 451.401 659.544 455.401C668.544 459.401 726.454 481.776 726.454 481.776L732.367 460.494L687.747 433.712L708.544 406.401L711.674 363.356L688.627 353.208Z" fill="#2F2E41"/>
<path d="M689.043 225.901L755.678 212.577L757.126 249.136L739.865 285.926L743.535 329.506L683.815 339.94L685.685 282.636C685.685 282.636 669.647 260.011 679.095 237.206L689.043 225.901Z" fill="#212121"/>
<path d="M837.629 139.176C837.963 140.71 837.957 142.299 837.61 143.831C837.263 145.363 836.585 146.8 835.623 148.041C834.661 149.283 833.438 150.298 832.041 151.015C830.644 151.733 829.107 152.136 827.537 152.195L763.638 226.292L748.781 208.262L816.264 141.097C816.339 138.453 817.382 135.93 819.193 134.004C821.005 132.078 823.46 130.883 826.094 130.646C828.727 130.41 831.356 131.147 833.482 132.719C835.608 134.291 837.084 136.588 837.629 139.176Z" fill="#9E616A"/>
<path d="M777.55 218.207C777.566 218.899 777.431 219.586 777.156 220.222C776.882 220.857 776.473 221.426 775.959 221.889L757.991 238.063C755.735 240.793 752.489 242.517 748.965 242.858C745.44 243.199 741.924 242.128 739.188 239.88C736.451 237.633 734.718 234.392 734.367 230.868C734.016 227.344 735.076 223.825 737.316 221.082L749.858 200.323C750.216 199.73 750.697 199.222 751.269 198.832C751.842 198.443 752.491 198.181 753.173 198.065C753.856 197.949 754.555 197.982 755.224 198.16C755.893 198.339 756.515 198.66 757.049 199.101L775.803 214.596C776.337 215.037 776.769 215.588 777.071 216.211C777.373 216.834 777.536 217.515 777.55 218.207Z" fill="#212121"/>
<path d="M584.559 313.309C584.459 311.742 584.704 310.172 585.277 308.709C585.849 307.247 586.735 305.928 587.873 304.845C589.01 303.762 590.372 302.942 591.86 302.442C593.349 301.942 594.93 301.775 596.49 301.952L670.785 238.281L682.767 258.336L605.97 314.616C605.499 317.218 604.09 319.556 602.01 321.189C599.93 322.821 597.323 323.634 594.684 323.473C592.045 323.312 589.556 322.188 587.69 320.315C585.824 318.442 584.71 315.949 584.559 313.309Z" fill="#9E616A"/>
<path d="M655.816 244.187C655.905 243.501 656.141 242.842 656.508 242.255C656.875 241.668 657.364 241.167 657.942 240.786L678.134 227.491C680.773 225.13 684.241 223.912 687.777 224.104C691.313 224.296 694.629 225.882 696.998 228.515C699.366 231.148 700.594 234.612 700.412 238.149C700.23 241.686 698.653 245.006 696.026 247.382L680.511 266.024C680.069 266.556 679.516 266.987 678.892 267.286C678.268 267.585 677.587 267.747 676.895 267.759C676.203 267.771 675.516 267.634 674.882 267.357C674.247 267.08 673.68 266.67 673.219 266.154L657.002 248.019C656.54 247.504 656.195 246.894 655.99 246.233C655.786 245.572 655.726 244.874 655.816 244.187Z" fill="#212121"/>
<path d="M717.444 208.843C731.009 208.843 742.005 197.846 742.005 184.282C742.005 170.717 731.009 159.721 717.444 159.721C703.879 159.721 692.883 170.717 692.883 184.282C692.883 197.846 703.879 208.843 717.444 208.843Z" fill="#9E616A"/>
<path d="M742.57 180.79C734.814 180.167 728.374 172.419 729.18 164.679C729.271 167.869 728.186 170.981 726.132 173.424C724.078 175.866 721.198 177.468 718.039 177.925C714.481 178.317 710.581 177.241 707.484 179.035C704.054 181.023 702.956 185.851 699.383 187.568C695.93 189.227 691.545 186.965 689.839 183.535C688.134 180.105 688.552 175.985 689.683 172.325C691.295 167.106 694.23 162.392 698.204 158.643C702.177 154.895 707.053 152.238 712.357 150.932C717.661 149.626 723.213 149.714 728.473 151.19C733.733 152.665 738.521 155.476 742.372 159.35C745.634 162.63 748.223 166.811 748.643 171.418C749.063 176.025 746.926 181.023 742.789 183.093L742.57 180.79Z" fill="#2F2E41"/>
<path d="M382 655.901H1C0.734784 655.901 0.480444 655.796 0.292908 655.609C0.105371 655.421 0 655.167 0 654.901C0 654.636 0.105371 654.382 0.292908 654.194C0.480444 654.007 0.734784 653.901 1 653.901H382C382.265 653.901 382.52 654.007 382.707 654.194C382.895 654.382 383 654.636 383 654.901C383 655.167 382.895 655.421 382.707 655.609C382.52 655.796 382.265 655.901 382 655.901Z" fill="#CACACA"/>
</g>
<defs>
<clipPath id="clip0_3416_416">
<rect width="837.865" height="658.418" fill="white"/>
</clipPath>
</defs>
</svg>
