<svg width="766" height="590" viewBox="0 0 766 590" fill="none" xmlns="http://www.w3.org/2000/svg">
<g clip-path="url(#clip0_3305_8929)">
<path d="M100.636 576.086H112.895L118.728 528.798L100.633 528.799L100.636 576.086Z" fill="#FFB8B8"/>
<path d="M97.5088 572.084L121.653 572.083H121.654C123.674 572.083 125.675 572.481 127.542 573.254C129.409 574.027 131.105 575.161 132.534 576.589C133.962 578.018 135.096 579.714 135.869 581.581C136.642 583.448 137.04 585.449 137.04 587.469V587.969L97.5096 587.971L97.5088 572.084Z" fill="#2F2E41"/>
<path d="M50.6358 576.086H62.8948L68.7278 528.798L50.6328 528.799L50.6358 576.086Z" fill="#FFB8B8"/>
<path d="M47.5088 572.084L71.6526 572.083H71.6536C73.6742 572.083 75.675 572.481 77.5417 573.254C79.4085 574.027 81.1047 575.161 82.5335 576.589C83.9623 578.018 85.0957 579.714 85.8689 581.581C86.6421 583.448 87.0401 585.449 87.0401 587.469V587.969L47.5096 587.971L47.5088 572.084Z" fill="#2F2E41"/>
<path d="M52.9939 555.783C51.8492 555.78 50.7486 555.342 49.9156 554.556C49.0827 553.771 48.58 552.698 48.5095 551.556L37.6416 373.829L110.78 381.721L121.565 541.033C121.635 542.118 121.312 543.192 120.654 544.058C119.996 544.923 119.047 545.522 117.983 545.745L103.472 548.734C102.885 548.855 102.279 548.858 101.691 548.741C101.103 548.625 100.544 548.392 100.047 548.057C99.55 547.722 99.125 547.29 98.797 546.789C98.4691 546.287 98.2447 545.725 98.137 545.135L80.406 447.936C80.3909 447.814 80.3291 447.704 80.2337 447.627C80.1384 447.551 80.0171 447.515 79.8955 447.526C79.7739 447.526 79.6569 447.573 79.568 447.656C79.4792 447.739 79.4252 447.852 79.4169 447.974L68.8311 548.3C68.7391 549.179 68.3897 550.012 67.8266 550.694C67.2634 551.376 66.5116 551.876 65.6653 552.133L54.3108 555.587C53.8839 555.717 53.4402 555.783 52.9939 555.783Z" fill="#2F2E41"/>
<path d="M54.3804 242.985C67.945 242.985 78.9414 231.989 78.9414 218.424C78.9414 204.859 67.945 193.863 54.3804 193.863C40.8157 193.863 29.8193 204.859 29.8193 218.424C29.8193 231.989 40.8157 242.985 54.3804 242.985Z" fill="#FFB8B8"/>
<path d="M37.0184 384.84L20.4273 295.668C18.6844 286.44 20.4443 276.894 25.3632 268.894C30.2822 260.894 38.0069 255.015 47.0284 252.406C52.1882 250.898 57.6099 250.507 62.9327 251.258C68.2555 252.009 73.3574 253.884 77.8989 256.76C82.4404 259.636 86.3173 263.446 89.2718 267.937C92.2263 272.428 94.1905 277.496 95.0338 282.805L110.892 382.656L37.0184 384.84Z" fill="#2BB828"/>
<path d="M47.6002 400.522C46.3734 399.712 45.3392 398.643 44.5703 397.39C43.8015 396.137 43.3167 394.731 43.1501 393.27C42.9836 391.81 43.1393 390.33 43.6063 388.936C44.0734 387.542 44.8403 386.268 45.8532 385.202L29.457 353.451L47.9219 355.422L60.6611 385.271C62.3382 387.091 63.2894 389.464 63.3343 391.938C63.3792 394.413 62.5148 396.818 60.9049 398.698C59.295 400.578 57.0514 401.802 54.5992 402.138C52.1471 402.475 49.6568 401.9 47.6002 400.522Z" fill="#FFB8B8"/>
<path d="M43.0384 379.626C42.409 379.566 41.7993 379.375 41.2488 379.064C40.6984 378.753 40.2194 378.33 39.8432 377.822L20.2912 351.39C13.6051 342.353 10.4289 331.196 11.3535 319.993L14.3945 283.08C14.1353 281.193 14.2505 279.274 14.7337 277.431C15.2168 275.589 16.0583 273.859 17.2101 272.342C18.362 270.825 19.8015 269.55 21.4464 268.589C23.0914 267.629 24.9095 267.002 26.7969 266.744C28.6842 266.487 30.6039 266.604 32.446 267.089C34.2881 267.574 36.0166 268.417 37.5326 269.57C39.0487 270.723 40.3227 272.164 41.2816 273.81C42.2406 275.456 42.8658 277.274 43.1215 279.162L41.3429 337.882L53.8803 367.6C54.2379 368.453 54.325 369.395 54.1297 370.299C53.9344 371.203 53.4663 372.025 52.7886 372.654L46.5153 378.451C45.8423 379.072 44.9959 379.473 44.0888 379.602C43.7409 379.651 43.3882 379.659 43.0384 379.626Z" fill="#2BB828"/>
<path d="M195.82 205.042C195.552 206.487 194.971 207.857 194.117 209.053C193.263 210.25 192.157 211.245 190.877 211.967C189.597 212.69 188.174 213.124 186.708 213.237C185.242 213.351 183.77 213.141 182.394 212.624L159.548 240.102L154.163 222.33L176.683 198.961C177.706 196.707 179.519 194.906 181.781 193.9C184.042 192.894 186.594 192.752 188.953 193.502C191.311 194.251 193.313 195.84 194.579 197.967C195.845 200.094 196.286 202.611 195.82 205.042Z" fill="#FFB8B8"/>
<path d="M178.356 217.39C178.546 217.993 178.607 218.629 178.536 219.257C178.464 219.885 178.261 220.491 177.94 221.035L161.223 249.346C155.509 259.026 146.473 266.301 135.796 269.818L100.619 281.409C98.9823 282.385 97.1692 283.028 95.2836 283.302C93.398 283.577 91.4768 283.477 89.6299 283.008C87.7831 282.539 86.0467 281.711 84.5202 280.57C82.9938 279.43 81.7071 277.999 80.7338 276.361C79.7606 274.723 79.1198 272.909 78.8482 271.023C78.5766 269.137 78.6795 267.216 79.151 265.37C79.6224 263.524 80.4533 261.789 81.5959 260.264C82.7385 258.739 84.1706 257.454 85.8101 256.483L140.576 235.227L163.054 212.095C163.7 211.433 164.534 210.985 165.442 210.813C166.351 210.64 167.291 210.751 168.134 211.129L175.918 214.646C176.753 215.024 177.452 215.647 177.924 216.432C178.105 216.733 178.25 217.055 178.356 217.39Z" fill="#2BB828"/>
<path opacity="0.1" d="M34.459 303.589L35.459 335.589L53.88 367.6L38.498 331.926L34.459 303.589Z" fill="black"/>
<path d="M57.1948 223.039C58.7374 223.24 60.3003 222.873 61.5933 222.009C62.8863 221.144 63.8216 219.839 64.2253 218.337C64.6147 216.608 65.4673 215.017 66.6918 213.736C67.9163 212.455 69.4665 211.531 71.1761 211.063C75.6816 210.034 81.1882 212.155 84.4896 208.741C85.1964 207.962 85.7078 207.026 85.9818 206.01C86.2557 204.994 86.2842 203.928 86.065 202.899C85.4569 199.582 83.084 197.075 80.5017 195.071C75.0675 190.873 68.4913 188.415 61.6356 188.021C58.087 187.918 54.5357 188.094 51.0148 188.549C47.3281 188.782 43.6817 189.448 40.1511 190.534C36.1288 192.052 32.554 194.559 29.7572 197.824C26.9603 201.089 25.0317 205.007 24.1494 209.215C23.3424 213.435 23.4663 217.781 24.5125 221.949C25.5587 226.117 27.5019 230.006 30.2065 233.345C33.4442 237.377 37.6191 240.555 42.3671 242.604C43.498 243.137 44.7941 243.203 45.9733 242.786C48.9306 241.611 48.4474 237.947 47.099 235.504C45.656 232.889 43.4356 230.358 44.5961 227.175C45.1777 225.7 46.2944 224.498 47.7232 223.809C50.6632 222.31 53.9515 222.665 57.112 223.03L57.1948 223.039Z" fill="#2F2E41"/>
<path d="M748.866 564H311.866C307.359 563.995 303.038 562.202 299.851 559.015C296.664 555.828 294.871 551.507 294.866 547V17C294.871 12.4929 296.664 8.17181 299.851 4.98479C303.038 1.79777 307.359 0.00507123 311.866 0H748.866C753.373 0.00507123 757.694 1.79777 760.881 4.98479C764.068 8.17181 765.861 12.4929 765.866 17V547C765.861 551.507 764.068 555.828 760.881 559.015C757.694 562.202 753.373 563.995 748.866 564ZM311.866 2C307.889 2.0045 304.077 3.58631 301.265 6.39838C298.452 9.21045 296.871 13.0231 296.866 17V547C296.871 550.977 298.452 554.79 301.265 557.602C304.077 560.414 307.889 561.996 311.866 562H748.866C752.843 561.996 756.656 560.414 759.468 557.602C762.28 554.79 763.862 550.977 763.866 547V17C763.862 13.0231 762.28 9.21045 759.468 6.39838C756.656 3.58631 752.843 2.0045 748.866 2H311.866Z" fill="#3F3D56"/>
<path d="M764.866 41.5903H295.866V43.5903H764.866V41.5903Z" fill="#3F3D56"/>
<path d="M318.866 30C323.284 30 326.866 26.4183 326.866 22C326.866 17.5817 323.284 14 318.866 14C314.448 14 310.866 17.5817 310.866 22C310.866 26.4183 314.448 30 318.866 30Z" fill="#2BB828"/>
<path d="M343.866 30C348.284 30 351.866 26.4183 351.866 22C351.866 17.5817 348.284 14 343.866 14C339.448 14 335.866 17.5817 335.866 22C335.866 26.4183 339.448 30 343.866 30Z" fill="#2BB828"/>
<path d="M368.866 30C373.284 30 376.866 26.4183 376.866 22C376.866 17.5817 373.284 14 368.866 14C364.448 14 360.866 17.5817 360.866 22C360.866 26.4183 364.448 30 368.866 30Z" fill="#2BB828"/>
<path d="M681.126 115H369.126C365.678 115 362.372 113.63 359.934 111.192C357.496 108.754 356.126 105.448 356.126 102C356.126 98.5522 357.496 95.2456 359.934 92.8076C362.372 90.3696 365.678 89 369.126 89H681.126C684.574 89 687.88 90.3696 690.318 92.8076C692.756 95.2456 694.126 98.5522 694.126 102C694.126 105.448 692.756 108.754 690.318 111.192C687.88 113.63 684.574 115 681.126 115ZM369.126 91C366.209 91 363.411 92.1589 361.348 94.2218C359.285 96.2847 358.126 99.0826 358.126 102C358.126 104.917 359.285 107.715 361.348 109.778C363.411 111.841 366.209 113 369.126 113H681.126C684.043 113 686.841 111.841 688.904 109.778C690.967 107.715 692.126 104.917 692.126 102C692.126 99.0826 690.967 96.2847 688.904 94.2218C686.841 92.1589 684.043 91 681.126 91H369.126Z" fill="#3F3D56"/>
<path d="M676.161 262.909H372.161C367.787 262.904 363.593 261.164 360.499 258.071C357.406 254.978 355.666 250.784 355.661 246.409V181.409C355.666 177.035 357.406 172.841 360.499 169.747C363.593 166.654 367.787 164.914 372.161 164.909H676.161C680.536 164.914 684.73 166.654 687.823 169.747C690.916 172.841 692.656 177.035 692.661 181.409V246.409C692.656 250.784 690.916 254.978 687.823 258.071C684.73 261.164 680.536 262.904 676.161 262.909Z" fill="#E6E6E6"/>
<path d="M676.161 388.91H372.161C367.787 388.905 363.593 387.165 360.499 384.071C357.406 380.978 355.666 376.784 355.661 372.41V307.41C355.666 303.035 357.406 298.841 360.499 295.748C363.592 292.654 367.787 290.914 372.161 290.909H676.161C680.536 290.914 684.73 292.654 687.823 295.748C690.916 298.841 692.656 303.035 692.661 307.41V372.41C692.656 376.784 690.916 380.978 687.823 384.071C684.73 387.165 680.536 388.905 676.161 388.91Z" fill="#E6E6E6"/>
<path d="M676.161 514.91H372.161C367.787 514.905 363.593 513.165 360.499 510.071C357.406 506.978 355.666 502.784 355.661 498.41V433.41C355.666 429.035 357.406 424.841 360.499 421.748C363.593 418.655 367.787 416.915 372.161 416.91H676.161C680.536 416.915 684.73 418.655 687.823 421.748C690.916 424.841 692.656 429.035 692.661 433.41V498.41C692.656 502.784 690.916 506.978 687.823 510.071C684.73 513.165 680.536 514.905 676.161 514.91Z" fill="#E6E6E6"/>
<path d="M502.161 254.909H198.161C193.787 254.904 189.593 253.164 186.499 250.071C183.406 246.978 181.666 242.784 181.661 238.409V173.409C181.666 169.035 183.406 164.841 186.499 161.747C189.593 158.654 193.787 156.914 198.161 156.909H502.161C506.536 156.914 510.73 158.654 513.823 161.747C516.916 164.841 518.656 169.035 518.661 173.409V238.409C518.656 242.784 516.916 246.978 513.823 250.071C510.73 253.164 506.536 254.904 502.161 254.909Z" fill="white"/>
<path d="M502.161 255.41H198.161C193.654 255.405 189.333 253.612 186.146 250.425C182.959 247.238 181.166 242.917 181.161 238.41V173.41C181.166 168.903 182.959 164.581 186.146 161.394C189.333 158.207 193.654 156.415 198.161 156.41H502.161C506.668 156.415 510.989 158.207 514.176 161.394C517.363 164.581 519.156 168.903 519.161 173.41V238.41C519.156 242.917 517.363 247.238 514.176 250.425C510.989 253.612 506.668 255.405 502.161 255.41ZM198.161 158.41C194.184 158.414 190.372 159.996 187.559 162.808C184.747 165.62 183.166 169.433 183.161 173.41V238.41C183.166 242.387 184.747 246.199 187.559 249.011C190.372 251.823 194.184 253.405 198.161 253.41H502.161C506.138 253.405 509.951 251.823 512.763 249.011C515.575 246.199 517.157 242.387 517.161 238.41V173.41C517.157 169.433 515.575 165.62 512.763 162.808C509.951 159.996 506.138 158.414 502.161 158.41H198.161Z" fill="#3F3D56"/>
<path d="M465.161 238.91H235.161C230.787 238.905 226.593 237.165 223.499 234.071C220.406 230.978 218.666 226.784 218.661 222.41V188.41C218.666 184.035 220.406 179.841 223.499 176.748C226.593 173.655 230.787 171.915 235.161 171.91H465.161C469.536 171.915 473.73 173.655 476.823 176.748C479.916 179.841 481.656 184.035 481.661 188.41V222.41C481.656 226.784 479.916 230.978 476.823 234.071C473.73 237.165 469.536 238.905 465.161 238.91Z" fill="#F2F2F2"/>
<path d="M284.656 220.584C295.554 220.584 304.388 211.749 304.388 200.851C304.388 189.954 295.554 181.119 284.656 181.119C273.758 181.119 264.924 189.954 264.924 200.851C264.924 211.749 273.758 220.584 284.656 220.584Z" fill="#FF6584"/>
<path d="M450.868 236.918L423.016 213.558L395.644 190.602C394.922 189.996 394.009 189.665 393.066 189.667C392.123 189.669 391.211 190.003 390.491 190.612L363.208 213.674L356.544 219.307L346.496 210.88L315.959 185.269C315.236 184.663 314.323 184.332 313.381 184.334C312.438 184.335 311.526 184.67 310.806 185.279L280.368 211.007L249.451 237.14C249.295 237.273 249.182 237.45 249.13 237.648C249.077 237.847 249.087 238.056 249.158 238.249C249.229 238.441 249.357 238.607 249.525 238.725C249.693 238.842 249.894 238.905 250.099 238.904L313.485 238.782L333.549 238.743L333.353 238.909L393.161 238.794L450.228 238.684C450.433 238.684 450.633 238.62 450.8 238.503C450.968 238.385 451.096 238.218 451.166 238.025C451.236 237.833 451.245 237.623 451.191 237.425C451.138 237.227 451.025 237.05 450.868 236.918Z" fill="#3F3D56"/>
<path d="M193 589.409H1C0.734784 589.409 0.480429 589.304 0.292892 589.116C0.105356 588.929 0 588.674 0 588.409C0 588.144 0.105356 587.89 0.292892 587.702C0.480429 587.515 0.734784 587.409 1 587.409H193C193.265 587.409 193.52 587.515 193.707 587.702C193.895 587.89 194 588.144 194 588.409C194 588.674 193.895 588.929 193.707 589.116C193.52 589.304 193.265 589.409 193 589.409Z" fill="#3F3D56"/>
</g>
<defs>
<clipPath id="clip0_3305_8929">
<rect width="765.866" height="589.409" fill="white"/>
</clipPath>
</defs>
</svg>
