<svg width="683" height="539" viewBox="0 0 683 539" fill="none" xmlns="http://www.w3.org/2000/svg">
<g clip-path="url(#clip0_3348_10456)">
<path d="M188.862 526.884L201.044 525.5L201.509 477.857L183.53 479.898L188.862 526.884Z" fill="#FFB8B8"/>
<path d="M225.82 534.147L187.535 538.491L185.856 523.699L209.35 521.033C213.273 520.588 217.212 521.72 220.301 524.179C223.389 526.638 225.375 530.224 225.82 534.147Z" fill="#2F2E41"/>
<path d="M63.5821 526.122H75.8421L81.6741 478.833L63.5801 478.835L63.5821 526.122Z" fill="#FFB8B8"/>
<path d="M99.4865 537.505L60.9557 537.507L60.9551 522.62L84.5989 522.619C88.5472 522.619 92.3338 524.187 95.1257 526.979C97.9177 529.771 99.4863 533.557 99.4865 537.505Z" fill="#2F2E41"/>
<path d="M151.544 314.655L158.544 337.424L196.544 419.655L206.544 497.655L183.544 498.655L169.544 426.655L121.544 374.655L79.5439 510.655L60.5439 508.655C60.5439 508.655 76.5439 332.655 98.5439 314.655C98.5439 314.655 134.544 297.655 151.544 314.655Z" fill="#2F2E41"/>
<path d="M120.493 216.409C134.057 216.409 145.054 205.413 145.054 191.848C145.054 178.283 134.057 167.287 120.493 167.287C106.928 167.287 95.9316 178.283 95.9316 191.848C95.9316 205.413 106.928 216.409 120.493 216.409Z" fill="#FFB8B8"/>
<path d="M154.043 319.155C154.043 319.155 157.043 217.155 115.043 224.155C73.0434 231.155 90.5434 329.655 90.5434 329.655C90.5434 329.655 99.5434 347.655 121.543 327.655C143.543 307.655 154.043 319.155 154.043 319.155Z" fill="#CCCCCC"/>
<path opacity="0.2" d="M96.0439 267.155L105.927 305.038L120.984 320.096L100.044 313.155L96.0439 267.155Z" fill="black"/>
<path d="M154.354 362.293C152.972 361.792 151.716 360.994 150.676 359.955C149.636 358.917 148.836 357.662 148.333 356.281C147.83 354.9 147.635 353.425 147.764 351.96C147.893 350.496 148.341 349.078 149.077 347.805L125.718 320.762L144.132 318.365L163.491 344.413C165.547 345.791 167.026 347.876 167.647 350.271C168.269 352.667 167.99 355.208 166.864 357.412C165.738 359.616 163.842 361.33 161.536 362.23C159.231 363.129 156.675 363.152 154.354 362.293Z" fill="#FFB8B8"/>
<path d="M125.914 244.931L128.544 296.655L159.544 336.655L146.544 346.655L104.544 304.655C104.544 304.655 89.5436 253.655 100.544 238.655C104.669 233.03 109.216 231.483 113.288 231.747C116.638 232.026 119.771 233.52 122.097 235.948C124.422 238.377 125.78 241.571 125.914 244.931Z" fill="#CCCCCC"/>
<path d="M117.571 217.655C117.688 217.55 117.78 217.419 117.837 217.273C117.895 217.126 117.918 216.968 117.904 216.811C117.89 216.654 117.84 216.503 117.757 216.369C117.675 216.235 117.562 216.122 117.428 216.039C115.247 214.688 113.47 212.775 112.284 210.5C111.097 208.225 110.546 205.673 110.686 203.112C110.827 200.55 111.655 198.074 113.084 195.943C114.512 193.812 116.488 192.105 118.804 191.001C126.025 187.558 135.81 190.237 141.148 183.621C142.234 182.205 143.001 180.573 143.399 178.833C143.796 177.094 143.814 175.29 143.451 173.544C142.299 167.295 137.601 162.654 132.341 159.474C125.878 155.567 118.45 153.549 110.899 153.647C103.348 153.745 95.9758 155.956 89.617 160.03C83.2583 164.103 78.1675 169.876 74.9216 176.695C71.6756 183.513 70.4042 191.105 71.2515 198.609C71.9306 204.623 73.7863 211.366 70.2102 216.249C67.0629 220.547 61.1221 221.352 55.9035 222.42C44.7104 224.711 33.9118 229.994 26.316 238.528C18.7201 247.063 14.6679 259.037 16.9581 270.23C19.2483 281.423 28.4361 291.26 39.7287 292.995C48.9203 294.407 58.4114 290.504 65.1612 284.107C71.9111 277.71 76.1776 269.071 78.8687 260.17C82.0629 249.604 83.3228 238.219 89.0895 228.808C94.7327 219.598 106.893 212.996 116.424 217.793C116.607 217.888 116.814 217.926 117.019 217.901C117.224 217.877 117.416 217.791 117.571 217.655Z" fill="#2F2E41"/>
<path d="M308 538.751H1C0.734784 538.751 0.480414 538.646 0.292877 538.458C0.105341 538.271 0 538.016 0 537.751C0 537.486 0.105341 537.231 0.292877 537.044C0.480414 536.856 0.734784 536.751 1 536.751H308C308.265 536.751 308.52 536.856 308.707 537.044C308.895 537.231 309 537.486 309 537.751C309 538.016 308.895 538.271 308.707 538.458C308.52 538.646 308.265 538.751 308 538.751Z" fill="#3F3D56"/>
<path d="M618.129 198.28C618.074 226.606 607.424 253.887 588.274 274.759C569.124 295.631 542.858 308.585 514.642 311.073C486.425 313.562 458.298 305.405 435.79 288.207C413.282 271.009 398.022 246.013 393.01 218.134C387.997 190.254 393.595 161.509 408.702 137.547C423.809 113.586 447.334 96.1426 474.65 88.6465C501.967 81.1504 531.099 84.1438 556.32 97.0383C581.542 109.933 601.027 131.795 610.946 158.328C611.193 158.994 611.435 159.661 611.669 160.333V160.34C612.717 163.297 613.639 166.309 614.436 169.376C616.896 178.813 618.137 188.527 618.129 198.28Z" fill="#3F3D56"/>
<path d="M491.413 121.217C486.28 118.441 480.581 116.874 474.751 116.636C468.92 116.397 463.112 117.493 457.769 119.84C453.065 121.888 448.112 125.56 446.543 132.192C452.89 128.446 461.105 134.364 462.738 143.858L462.357 143.963C461.495 150.539 463.42 157.698 467.148 161.775C467.426 159.936 468.109 158.181 469.149 156.638C470.189 155.095 471.56 153.804 473.162 152.857C475.901 151.056 478.931 149.748 481.022 146.653C483.5 142.984 484.13 137.622 485.114 132.73C486.099 127.838 487.967 122.58 491.413 121.217Z" fill="#2BB828"/>
<path d="M455.886 177.174C454.128 179.814 451.781 181.47 449.674 183.532C447.242 185.745 445.646 188.727 445.156 191.978C444.889 194.275 445.302 196.61 445.245 198.933C445.188 201.255 444.413 203.87 442.833 204.447C440.34 205.348 438.436 200.716 435.872 200.392C433.835 200.139 432.002 203.343 432.592 206.122C433.182 208.902 435.955 210.133 437.548 208.318C438.988 210.736 437.973 215.12 435.809 215.863C435.58 217.386 435.352 218.902 435.13 220.425C429.66 216.599 424.133 212.709 419.482 207.106C414.309 200.927 411.1 193.343 410.268 185.328C409.665 178.887 410.56 171.52 407.603 166.564C405.236 162.598 401.175 161.723 397.52 161.97C396.854 162.014 396.181 162.091 395.515 162.173C397.67 155.699 400.408 149.434 403.694 143.454C404.438 143.134 405.129 142.704 405.744 142.178C409.145 139.291 410.655 133.447 413.415 129.405C413.593 129.144 413.777 128.891 413.967 128.643C416.791 124.956 420.573 123.059 424.228 121.295C432.319 117.367 440.644 113.389 449.185 113.934L446.755 114.169C443.918 122.114 441.08 130.058 438.239 138.003C437.807 139.221 437.372 140.442 436.932 141.664C435.32 146.182 433.658 150.992 433.905 156.05C434.051 159.045 435.092 162.243 437.071 163.271C438.918 164.223 440.936 163.055 442.719 161.9C443.474 161.418 444.223 160.936 444.978 160.447C447.687 158.702 450.689 156.913 453.551 158.08C456.171 159.146 458.107 162.706 458.475 166.545C458.812 170.277 457.902 174.015 455.886 177.174Z" fill="#2BB828"/>
<path d="M472.002 231.414C464.088 226.542 456.175 221.669 448.261 216.797L448.396 216.451C443.475 218.325 441.433 227.071 442.246 234.223C443.059 241.376 445.816 247.769 447.209 254.738C449.087 264.275 448.378 274.141 445.156 283.312C455.562 271.636 464.771 258.946 472.645 245.433C473.745 243.73 474.583 241.871 475.132 239.919C475.712 237.839 475.505 235.618 474.55 233.681C473.902 232.725 473.027 231.946 472.002 231.414Z" fill="#2BB828"/>
<path d="M440.769 142.77C439.84 144.765 439.697 147.037 440.368 149.133C441.149 150.822 442.566 152.134 444.309 152.783L448.682 154.951C450.136 155.672 451.704 156.4 453.187 155.807C454.976 155.091 456.216 152.287 455.895 149.684C455.554 146.914 453.808 145.009 452.193 143.386C449.933 141.115 447.673 138.844 445.413 136.574L444.139 138.134C442.762 139.477 441.622 141.045 440.769 142.77Z" fill="#2BB828"/>
<path d="M594.689 172.383C596.656 172.847 598.623 173.31 600.59 173.773C600.248 180.417 596.954 186.566 592.538 188.793C590.698 189.719 588.648 190.062 587.125 191.794C585.748 193.368 585.05 195.817 584.409 198.159C583.286 202.245 582.163 206.332 581.04 210.418C579.834 214.822 578.286 219.715 575.151 221.301C572.46 222.665 569.383 220.996 567.314 218.198C565.246 215.4 563.983 211.637 562.758 207.969C562.834 211.967 560.975 215.888 558.342 217.278C555.702 218.668 552.491 217.411 550.727 214.308C549.458 212.081 548.931 209.143 547.687 206.884C546.444 204.625 543.836 203.331 542.478 205.45C541.583 206.859 541.697 209.016 541.253 210.806C541.029 211.994 540.441 213.082 539.57 213.921C538.699 214.759 537.588 215.305 536.392 215.482C535.293 215.457 534.21 215.208 533.21 214.751C532.209 214.294 531.312 213.638 530.574 212.823C526.688 208.848 524.158 203.747 523.346 198.248C522.795 195.611 522.865 192.883 523.549 190.278C524.33 187.809 526.214 185.906 528.086 186.375C529.317 183.773 526.887 180.322 524.698 180.626C522.502 180.931 520.782 183.285 518.98 185.093C517.184 186.902 514.672 188.215 512.863 186.42C512.904 187.076 512.681 187.722 512.246 188.216C511.81 188.709 511.196 189.008 510.539 189.049C510.474 189.053 510.409 189.054 510.344 189.053C509.141 188.708 508.024 188.116 507.063 187.314C502.92 184.732 497.659 186.445 494.715 191.331C496.555 183.501 499.252 174.515 504.906 172.675C507.216 171.92 509.735 172.542 511.918 171.235C515.782 168.919 516.563 160.168 513.225 156.557C513.65 159.971 513.568 163.956 511.765 166.292C509.963 168.627 506.181 167.104 506.41 163.652C506.358 164.137 506.155 164.594 505.828 164.957C505.501 165.319 505.068 165.569 504.59 165.671C504.113 165.772 503.615 165.72 503.169 165.521C502.723 165.323 502.352 164.988 502.107 164.566C500.908 162.738 501.01 159.749 501.86 157.566C502.737 155.589 503.994 153.804 505.559 152.312C508.574 149.083 511.632 145.815 515.122 143.784C518.619 141.753 522.654 141.068 526.157 143.086C528.004 144.152 529.628 145.929 531.513 146.868C531.956 147.143 532.448 147.328 532.963 147.412C533.477 147.496 534.003 147.479 534.51 147.36C535.018 147.241 535.497 147.023 535.92 146.719C536.344 146.415 536.703 146.031 536.978 145.588C536.999 145.554 537.02 145.519 537.04 145.484C538.442 143.022 537.782 139.367 538.303 136.29C539.235 130.852 544.673 128.307 547.688 131.899C545.435 131.321 543.106 133.986 542.827 137.216C542.541 140.446 544.172 143.708 546.355 144.685C550.023 146.309 553.614 142.223 556.387 138.441C559.281 134.481 562.179 130.524 565.081 126.569C565.544 125.895 566.064 125.262 566.635 124.677C567.544 123.792 568.756 123.284 570.025 123.258C571.294 123.232 572.525 123.69 573.469 124.538C576.401 126.93 577.778 131.835 580.183 135.211C583.673 140.116 588.896 141.309 593.756 142.261C597.379 142.965 601.005 143.674 604.633 144.387C607.051 148.885 609.16 153.543 610.946 158.328C604.294 161.361 598.652 166.239 594.689 172.383Z" fill="#2BB828"/>
<path d="M606.403 248.733C603.685 254.253 600.523 259.544 596.948 264.552C594.664 263.575 592.208 265.32 590.07 266.957C587.836 268.671 585.152 270.34 582.861 268.779C580.52 267.18 579.765 262.706 580.507 259.159C581.36 255.887 582.853 252.816 584.898 250.123C586.802 247.28 588.839 244.329 591.485 243.225C594.137 242.121 597.545 243.682 598.319 247.451L600.197 247.388C599.144 245.941 599.696 242.946 601.111 242.419C602.742 241.804 604.157 244.044 605.122 246.024C605.553 246.918 605.991 247.819 606.403 248.733Z" fill="#2BB828"/>
<path d="M534.466 221.93C530.429 222.184 527.231 217.214 525.106 212.324C522.981 207.435 521.042 201.843 517.399 199.355C515.317 197.932 512.944 197.737 510.687 197.048C509.406 196.725 508.221 196.101 507.23 195.228C506.238 194.355 505.469 193.259 504.986 192.03L502.425 190.995C498.843 192.786 495.562 195.125 492.702 197.928C489.433 201.4 487.397 205.851 486.908 210.595C486.419 215.721 488.226 221.437 491.601 223.362C494.268 224.884 497.374 223.925 500.075 225.318C503.451 227.058 505.455 232.114 506.213 237.105C506.972 242.097 506.78 247.285 507.322 252.333C507.865 257.381 509.361 262.634 512.456 265.221C516.33 268.459 522.014 265.769 523.752 259.875C524.605 256.985 524.575 253.723 525.213 250.722C526.336 245.438 529.366 241.517 531.769 237.182C534.172 232.848 536.064 226.96 534.466 221.93Z" fill="#2BB828"/>
<path d="M494.572 170.003C494.948 170.35 495.3 170.723 495.623 171.119C495.958 171.697 496.129 172.354 496.117 173.022C496.106 173.689 495.913 174.34 495.559 174.906C496.045 174.878 496.52 174.75 496.954 174.529C497.389 174.309 497.772 174 498.081 173.624C498.818 172.784 499.466 171.871 500.016 170.899C500.274 170.566 500.458 170.182 500.557 169.772C500.655 169.362 500.665 168.936 500.586 168.522C500.395 167.978 499.944 167.746 499.628 167.336C499.19 166.536 498.891 165.667 498.743 164.766C498.568 163.922 498.161 163.144 497.567 162.519C496.974 161.893 496.218 161.446 495.384 161.227L495.587 161.265C495.242 161.47 494.97 161.777 494.809 162.143C494.648 162.51 494.605 162.918 494.688 163.31C494.81 164.101 495.319 164.759 495.268 165.566C495.196 166.728 494.035 167.273 493.963 168.434C493.952 169.017 494.171 169.581 494.572 170.003Z" fill="#2BB828"/>
<path d="M487.655 150.268L487.673 150.265C487.797 150.152 487.913 150.029 488.018 149.898L487.655 150.268Z" fill="#6C63FF"/>
<path d="M488.866 155.72C489.351 155.294 489.709 154.743 489.903 154.128C490.096 153.512 490.116 152.856 489.962 152.229C489.669 150.909 488.631 150.021 487.673 150.265C487.395 150.547 487.051 150.753 486.671 150.865C486.292 150.976 485.89 150.99 485.504 150.904C484.912 150.751 484.262 150.359 483.749 150.805C483.455 151.138 483.25 151.539 483.151 151.972C482.961 152.555 482.771 153.139 482.581 153.722C482.491 153.931 482.467 154.162 482.513 154.385C482.55 154.474 482.609 154.553 482.684 154.613C482.759 154.673 482.849 154.712 482.944 154.728L486.365 155.736C486.757 155.917 487.185 156.009 487.617 156.006C488.049 156.003 488.476 155.906 488.866 155.72Z" fill="#2BB828"/>
<path d="M574.938 230.977C574.411 230.114 573.884 229.251 573.357 228.388C572.839 227.389 572.132 226.5 571.274 225.772C570.898 225.458 570.414 225.305 569.926 225.348C569.438 225.392 568.988 225.627 568.673 226.002L568.646 226.036L568.71 226.528C570.121 228.041 571.083 229.918 571.487 231.947C571.607 232.828 571.565 233.741 571.67 234.627C571.681 235.037 571.773 235.442 571.941 235.817C572.109 236.192 572.348 236.53 572.647 236.813C573.477 237.367 574.451 236.55 575.042 235.552C575.57 234.733 575.807 233.76 575.714 232.79C575.583 232.139 575.318 231.522 574.938 230.977Z" fill="#2BB828"/>
<path d="M583.206 232.1C583.306 231.292 583.241 230.473 583.013 229.691C582.975 228.634 583.255 227.589 583.818 226.693C584.376 225.847 584.799 224.92 585.072 223.944C585.186 223.499 585.165 223.03 585.011 222.597C584.837 222.206 584.415 222.027 584.172 222.337L584.691 222.671C583.99 222.546 583.271 222.581 582.586 222.773C582.195 222.923 581.846 223.164 581.568 223.477C581.291 223.79 581.093 224.166 580.991 224.571C580.905 225.204 580.765 225.829 580.572 226.437C580.263 227.073 579.664 227.285 579.288 227.843C579.031 228.338 578.901 228.889 578.911 229.446C578.92 230.003 579.068 230.55 579.34 231.036C579.813 231.831 580.564 232.422 581.448 232.694C582.082 232.921 582.916 232.933 583.206 232.1Z" fill="#2BB828"/>
<path d="M597.928 236.542C598.157 237.138 598.464 237.701 598.841 238.216C599.545 238.926 600.503 238.49 601.358 238.318C602.134 238.195 602.929 238.285 603.658 238.577C604.387 238.87 605.024 239.354 605.5 239.979C605.168 238.325 604.444 236.775 603.39 235.459C602.335 234.142 600.979 233.099 599.437 232.415C597.433 231.721 595.322 231.391 593.202 231.44L592.84 231.533C593.763 234.218 596.66 234.158 597.928 236.542Z" fill="#2BB828"/>
<path d="M535.57 242.036L535.576 242.048L535.681 241.845L535.57 242.036Z" fill="#6C63FF"/>
<path d="M533.336 246.359C532.849 247.243 532.43 248.163 532.083 249.112C531.624 250.647 531.32 252.225 531.175 253.822C531.062 254.729 531.027 255.889 531.596 256.331C531.759 256.439 531.956 256.485 532.15 256.458C532.344 256.432 532.522 256.336 532.651 256.188C532.967 255.853 533.225 255.469 533.416 255.05C534.534 253.125 535.401 251.066 535.998 248.921C536.621 246.646 536.473 244.229 535.575 242.047C534.829 243.485 534.083 244.922 533.336 246.359Z" fill="#2BB828"/>
<path d="M511.79 131.177C512.145 131.524 512.593 131.76 513.08 131.855C513.567 131.95 514.071 131.9 514.53 131.712C515.481 131.297 516.353 130.72 517.109 130.009C517.735 129.546 518.265 128.967 518.672 128.304C518.896 127.907 519.04 127.471 519.095 127.018C519.15 126.566 519.115 126.108 518.992 125.669C518.817 125.249 518.538 124.881 518.181 124.598C517.824 124.316 517.401 124.129 516.952 124.056C515.687 123.681 514.421 123.305 513.156 122.93L514.071 122.105C513.129 121.6 512.087 122.538 511.499 123.699C511.121 124.458 510.858 125.268 510.718 126.103C510.517 126.976 510.51 127.882 510.695 128.758C510.88 129.635 511.254 130.46 511.79 131.177Z" fill="#2BB828"/>
<path d="M534.132 123.677C534.489 124.07 534.982 124.313 535.511 124.356C536.04 124.399 536.566 124.239 536.982 123.909C537.339 123.64 537.637 123.299 537.854 122.908C538.071 122.517 538.203 122.084 538.242 121.639C538.332 120.643 537.839 119.537 537.137 119.451L537.297 118.519C535.943 118.274 534.277 118.225 533.551 119.87C533.306 120.5 533.231 121.183 533.333 121.851C533.435 122.519 533.711 123.149 534.132 123.677Z" fill="#2BB828"/>
<path d="M442.071 190.721C446.737 190.721 450.519 185.65 450.519 179.394C450.519 173.138 446.737 168.066 442.071 168.066C437.406 168.066 433.624 173.138 433.624 179.394C433.624 185.65 437.406 190.721 442.071 190.721Z" fill="#E6E6E6"/>
<path d="M596.441 330.986C600.474 329.912 603.138 326.767 602.391 323.961C601.644 321.156 597.769 319.752 593.736 320.826C589.703 321.9 587.039 325.045 587.786 327.851C588.534 330.656 592.409 332.06 596.441 330.986Z" fill="#E6E6E6"/>
<path d="M547.047 331.899C551.08 330.825 553.743 327.68 552.996 324.874C552.249 322.069 548.374 320.665 544.341 321.739C540.308 322.813 537.645 325.958 538.392 328.764C539.139 331.569 543.014 332.973 547.047 331.899Z" fill="#E6E6E6"/>
<path d="M605.216 289.889C609.249 288.815 611.912 285.67 611.165 282.864C610.418 280.059 606.543 278.655 602.51 279.729C598.477 280.803 595.814 283.948 596.561 286.754C597.308 289.559 601.183 290.963 605.216 289.889Z" fill="#E6E6E6"/>
<path d="M619.785 272.419C621.606 272.193 622.819 269.888 622.494 267.271C622.17 264.653 620.43 262.714 618.61 262.94C616.789 263.166 615.576 265.471 615.9 268.088C616.225 270.706 617.964 272.645 619.785 272.419Z" fill="#E6E6E6"/>
<path d="M623.473 241.414C625.294 241.188 626.507 238.883 626.183 236.265C625.858 233.648 624.119 231.709 622.298 231.934C620.477 232.16 619.264 234.465 619.589 237.083C619.913 239.7 621.652 241.639 623.473 241.414Z" fill="#E6E6E6"/>
<path d="M573.681 301.018C575.502 300.792 576.715 298.487 576.391 295.869C576.066 293.252 574.327 291.313 572.506 291.538C570.685 291.764 569.472 294.069 569.797 296.687C570.121 299.304 571.86 301.243 573.681 301.018Z" fill="#E6E6E6"/>
<path d="M598.655 310.057C600.476 309.831 601.689 307.526 601.364 304.908C601.04 302.291 599.301 300.352 597.48 300.578C595.659 300.803 594.446 303.108 594.77 305.726C595.095 308.343 596.834 310.282 598.655 310.057Z" fill="#E6E6E6"/>
<path d="M568.332 335.659C570.153 335.433 571.366 333.128 571.041 330.511C570.717 327.893 568.977 325.954 567.156 326.18C565.336 326.406 564.122 328.711 564.447 331.328C564.772 333.946 566.511 335.885 568.332 335.659Z" fill="#E6E6E6"/>
<path d="M350.911 289.504C354.944 288.43 357.608 285.285 356.86 282.48C356.113 279.674 352.238 278.271 348.205 279.345C344.173 280.419 341.509 283.564 342.256 286.369C343.003 289.175 346.878 290.578 350.911 289.504Z" fill="#E6E6E6"/>
<path d="M301.515 290.419C305.547 289.345 308.211 286.2 307.464 283.395C306.717 280.589 302.842 279.186 298.809 280.26C294.776 281.334 292.113 284.479 292.86 287.284C293.607 290.09 297.482 291.493 301.515 290.419Z" fill="#E6E6E6"/>
<path d="M359.688 248.406C363.721 247.332 366.385 244.187 365.638 241.381C364.891 238.576 361.016 237.172 356.983 238.246C352.95 239.32 350.286 242.465 351.034 245.271C351.781 248.076 355.656 249.48 359.688 248.406Z" fill="#E6E6E6"/>
<path d="M374.255 230.937C376.076 230.712 377.289 228.407 376.965 225.789C376.64 223.172 374.901 221.233 373.08 221.458C371.259 221.684 370.046 223.989 370.371 226.607C370.695 229.224 372.435 231.163 374.255 230.937Z" fill="#E6E6E6"/>
<path d="M377.944 199.932C379.765 199.706 380.978 197.401 380.653 194.784C380.329 192.166 378.59 190.227 376.769 190.453C374.948 190.679 373.735 192.984 374.059 195.601C374.384 198.219 376.123 200.158 377.944 199.932Z" fill="#E6E6E6"/>
<path d="M328.152 259.536C329.973 259.31 331.186 257.005 330.861 254.387C330.537 251.77 328.798 249.831 326.977 250.057C325.156 250.282 323.943 252.587 324.267 255.205C324.592 257.822 326.331 259.761 328.152 259.536Z" fill="#E6E6E6"/>
<path d="M353.125 268.575C354.946 268.349 356.159 266.044 355.834 263.427C355.51 260.809 353.77 258.87 351.949 259.096C350.129 259.322 348.915 261.627 349.24 264.244C349.565 266.862 351.304 268.801 353.125 268.575Z" fill="#E6E6E6"/>
<path d="M322.802 294.178C324.623 293.952 325.836 291.647 325.512 289.029C325.187 286.412 323.448 284.473 321.627 284.699C319.806 284.924 318.593 287.229 318.918 289.847C319.242 292.465 320.981 294.403 322.802 294.178Z" fill="#E6E6E6"/>
<path d="M651.018 99.5688C655.05 98.4948 657.714 95.3499 656.967 92.5444C656.22 89.7389 652.345 88.3353 648.312 89.4093C644.279 90.4833 641.615 93.6283 642.363 96.4338C643.11 99.2392 646.985 100.643 651.018 99.5688Z" fill="#E6E6E6"/>
<path d="M601.621 100.484C605.654 99.4098 608.318 96.2649 607.57 93.4594C606.823 90.6539 602.948 89.2503 598.915 90.3243C594.883 91.3984 592.219 94.5433 592.966 97.3488C593.713 100.154 597.588 101.558 601.621 100.484Z" fill="#E6E6E6"/>
<path d="M659.794 58.4692C663.827 57.3952 666.49 54.2502 665.743 51.4447C664.996 48.6393 661.121 47.2356 657.088 48.3097C653.055 49.3837 650.392 52.5287 651.139 55.3342C651.886 58.1396 655.761 59.5432 659.794 58.4692Z" fill="#E6E6E6"/>
<path d="M674.362 41.0019C676.183 40.7761 677.396 38.4712 677.071 35.8536C676.747 33.236 675.008 31.2971 673.187 31.5229C671.366 31.7486 670.153 34.0536 670.477 36.6712C670.802 39.2887 672.541 41.2277 674.362 41.0019Z" fill="#E6E6E6"/>
<path d="M678.049 9.99653C679.87 9.77076 681.083 7.46578 680.759 4.84822C680.434 2.23065 678.695 0.291719 676.874 0.517484C675.053 0.743248 673.84 3.04822 674.165 5.66578C674.489 8.28335 676.229 10.2223 678.049 9.99653Z" fill="#E6E6E6"/>
<path d="M628.257 69.6C630.078 69.3743 631.291 67.0693 630.967 64.4517C630.642 61.8342 628.903 59.8952 627.082 60.121C625.261 60.3468 624.048 62.6517 624.373 65.2693C624.697 67.8869 626.437 69.8258 628.257 69.6Z" fill="#E6E6E6"/>
<path d="M653.231 78.6396C655.052 78.4138 656.265 76.1089 655.941 73.4913C655.616 70.8737 653.877 68.9348 652.056 69.1606C650.235 69.3863 649.022 71.6913 649.346 74.3088C649.671 76.9264 651.41 78.8653 653.231 78.6396Z" fill="#E6E6E6"/>
<path d="M622.909 104.242C624.73 104.016 625.943 101.711 625.618 99.0938C625.294 96.4762 623.555 94.5373 621.734 94.7631C619.913 94.9889 618.7 97.2938 619.024 99.9114C619.349 102.529 621.088 104.468 622.909 104.242Z" fill="#E6E6E6"/>
<path d="M336.069 296.531C327.988 296.531 322.734 294.523 320.408 290.531C315.823 282.659 323.503 268.845 343.236 249.476L344.893 251.164C326.564 269.157 318.594 282.715 322.453 289.34C324.894 293.53 332.161 295.032 343.472 293.681C354.7 292.341 369.58 288.346 387.699 281.807C425 268.345 471.797 245.637 519.472 217.867C567.144 190.097 609.982 160.591 640.093 134.784C645.877 129.826 651.126 125.056 655.694 120.609C661.691 114.913 667.224 108.747 672.239 102.17C678.993 92.9988 681.272 85.9362 678.831 81.7452C674.753 74.7454 657.623 75.4036 630.594 83.6012L629.908 81.3366C658.907 72.5428 676.055 72.279 680.876 80.5544C683.871 85.6959 681.606 93.4406 674.144 103.573C669.052 110.254 663.435 116.518 657.345 122.304C652.741 126.787 647.455 131.59 641.633 136.58C611.416 162.478 568.455 192.072 520.662 219.911C472.869 247.752 425.933 270.524 388.502 284.033C370.215 290.633 355.159 294.67 343.752 296.031C341.203 296.349 338.638 296.516 336.069 296.531Z" fill="#3F3D56"/>
</g>
<defs>
<clipPath id="clip0_3348_10456">
<rect width="682.157" height="538.251" fill="white" transform="translate(0 0.499512)"/>
</clipPath>
</defs>
</svg>
