<svg width="1037" height="655" viewBox="0 0 1037 655" fill="none" xmlns="http://www.w3.org/2000/svg">
<path d="M283.071 35.6662C287.63 20.5612 297.999 6.70744 312.34 1.60112C326.681 -3.50519 347.68 4.27341 358.461 15.442C378.182 35.8716 382.995 106.055 369.446 128.233C366.751 128.085 357.451 127.975 354.724 127.869L350.865 114.501V127.737C329.575 127.053 307.41 127.482 285.234 127.924C283.246 112.222 278.511 50.7712 283.071 35.6662Z" fill="#2F2E41"/>
<path d="M493.831 269.375C491.916 269.109 490.08 268.409 488.453 267.325C486.826 266.241 485.447 264.8 484.414 263.102C483.381 261.405 482.718 259.492 482.473 257.5C482.228 255.507 482.406 253.483 482.995 251.57L445.417 222.269L468.396 213.706L500.558 242.844C503.584 244.085 506.068 246.437 507.538 249.455C509.007 252.472 509.361 255.945 508.532 259.215C507.703 262.485 505.748 265.326 503.039 267.199C500.33 269.071 497.054 269.846 493.831 269.375Z" fill="#9E616A"/>
<path d="M344.554 115.794L348.149 102.573C348.149 102.573 357.115 99.534 372.414 111.068C387.713 122.601 482.152 225.552 482.152 225.552L454.036 229.639L368.105 165.83L344.554 115.794Z" fill="#8F9194"/>
<path d="M932.891 620.789C990.404 590.263 1036.19 529.056 1034.93 461.946C981.161 508.9 913.148 534.571 842.923 534.419C815.84 534.258 785.734 531.148 764.685 548.864C751.588 559.886 744.723 577.348 742.691 594.736C740.659 612.125 742.94 629.711 745.217 647.067L743.804 651.185C808.229 655.78 875.379 651.315 932.891 620.789Z" fill="#008E00" fill-opacity="0.3"/>
<path d="M1033.58 461.783C1008.53 510.2 968.437 550.611 920.641 574.338C910.307 579.467 899.395 583.736 887.985 585.289C876.853 586.713 865.556 585.013 855.269 580.364C845.594 576.23 836.158 570.837 825.685 569.22C814.645 567.515 804.092 571.274 795.533 578.525C785.06 587.398 778.279 599.653 772.049 611.877C765.131 625.45 758.152 639.661 745.933 648.933C744.453 650.057 746.217 652.379 747.695 651.257C768.953 635.125 774.072 606.054 791.478 586.541C799.6 577.436 810.411 570.819 822.7 571.841C833.446 572.735 843.181 578.288 852.943 582.561C863.193 587.049 873.586 589.533 884.759 588.615C896.189 587.677 907.285 583.842 917.699 579.01C941.237 567.868 962.942 552.949 982.021 534.799C1003.91 514.21 1022.24 489.881 1036.23 462.865C1037.1 461.193 1034.44 460.122 1033.58 461.783Z" fill="white"/>
<path d="M936.568 567.477C941.577 575.312 949.103 581.04 957.801 583.64C966.498 586.24 975.802 585.541 984.05 581.669C985.716 580.88 984.614 578.151 982.946 578.941C975.272 582.562 966.605 583.212 958.511 580.774C950.416 578.336 943.427 572.971 938.804 565.646C937.797 564.056 935.567 565.896 936.568 567.477Z" fill="white"/>
<path d="M859.909 583.132C863.401 564.247 873.612 547.425 888.507 536.018C889.983 534.889 888.22 532.567 886.745 533.695C871.267 545.594 860.675 563.123 857.083 582.783C856.742 584.657 859.57 584.996 859.909 583.132Z" fill="white"/>
<path d="M1000.47 512.587C997.924 509.975 996.042 506.747 994.993 503.193C993.944 499.638 993.76 495.868 994.459 492.222C994.823 490.353 991.994 490.017 991.633 491.874C990.879 495.906 991.086 500.069 992.237 503.999C993.388 507.929 995.447 511.506 998.234 514.418C998.475 514.715 998.815 514.906 999.187 514.952C999.558 514.998 999.932 514.895 1000.23 514.664C1000.53 514.42 1000.72 514.065 1000.76 513.676C1000.81 513.287 1000.7 512.896 1000.47 512.587Z" fill="white"/>
<path d="M863.748 320.559C863.489 321.719 863.23 322.879 862.949 324.049C859.387 339.627 854.615 354.879 848.677 369.654C848.236 370.804 847.771 371.962 847.299 373.097C832.629 408.534 811.757 440.833 785.744 468.351C775.383 479.291 764.237 489.396 752.401 498.578C736.055 511.258 717.36 523.655 706.323 540.706C705.153 542.471 704.088 544.31 703.136 546.212L739.079 649.074C739.274 649.265 739.446 649.466 739.641 649.658L740.896 653.833C741.538 653.404 742.195 652.944 742.837 652.515C743.211 652.268 743.576 651.997 743.95 651.75C744.197 651.578 744.443 651.404 744.675 651.264C744.757 651.207 744.839 651.149 744.899 651.1C745.131 650.959 745.331 650.803 745.541 650.671C749.221 648.113 752.891 645.523 756.55 642.902C756.573 642.894 756.572 642.894 756.587 642.862C784.416 622.818 810.88 600.183 833.197 574.093C833.869 573.307 834.563 572.515 835.218 571.683C845.214 559.864 854.265 547.216 862.28 533.865C866.645 526.54 870.652 518.989 874.283 511.243C883.629 491.209 889.885 469.771 892.821 447.716C898.67 403.749 890.925 358.327 865.701 323.221C865.055 322.323 864.417 321.448 863.748 320.559Z" fill="#008E00" fill-opacity="0.3"/>
<path d="M862.573 321.264C870.615 375.6 862.008 432.957 837.589 481.814C832.309 492.377 826.069 502.614 817.858 510.994C809.795 519.098 799.79 524.81 788.884 527.536C778.765 530.29 768.107 531.889 758.807 537.152C749.006 542.7 742.757 552.305 740.123 563.452C736.9 577.09 738.585 591.119 740.69 604.778C743.028 619.944 745.688 635.659 741.303 650.709C740.771 652.532 743.524 653.283 744.055 651.462C751.685 625.277 738.933 598.863 741.528 572.389C742.739 560.037 747.539 547.988 757.943 541.113C767.041 535.102 778.03 533.443 788.299 530.746C799.082 527.915 808.82 523.394 817.21 515.669C825.792 507.766 832.43 497.761 837.947 487.385C850.286 463.759 858.975 438.263 863.695 411.832C869.244 381.697 869.791 350.797 865.315 320.47C865.038 318.593 862.297 319.399 862.573 321.264Z" fill="white"/>
<path d="M846.332 466.368C854.87 469.489 864.197 469.354 872.647 465.986C881.098 462.619 888.121 456.238 892.464 447.985C893.337 446.312 890.877 444.823 890.003 446.498C885.972 454.192 879.429 460.134 871.554 463.253C863.679 466.372 854.99 466.462 847.057 463.507C845.332 462.867 844.617 465.732 846.332 466.368Z" fill="white"/>
<path d="M794.192 526.842C786.042 509.579 784.451 489.756 789.736 471.328C790.261 469.502 787.508 468.751 786.984 470.575C781.518 489.763 783.214 510.387 791.733 528.332C792.547 530.042 795.001 528.543 794.192 526.842Z" fill="white"/>
<path d="M865.56 382.551C862.015 382.059 858.642 380.659 855.746 378.478C852.849 376.296 850.519 373.401 848.965 370.052C848.174 368.333 845.72 369.834 846.507 371.543C848.24 375.234 850.817 378.429 854.012 380.846C857.207 383.264 860.923 384.831 864.836 385.412C865.2 385.499 865.583 385.438 865.905 385.242C866.228 385.047 866.468 384.73 866.574 384.358C866.668 383.979 866.614 383.576 866.425 383.238C866.235 382.899 865.924 382.653 865.56 382.551Z" fill="white"/>
<path d="M241.157 135.378C191.89 91.9827 119.906 71.6576 60.8181 98.7361C123.225 132.209 172.23 187.547 199.162 254.96C209.458 280.998 218.302 311.072 242.141 324.432C256.974 332.745 275.121 332.599 291.34 327.846C307.56 323.093 322.292 314.127 336.822 305.253L341.023 305.021C320.269 241.458 290.423 178.773 241.157 135.378Z" fill="#008E00" fill-opacity="0.3"/>
<path d="M61.1927 100.09C113.829 105.455 165.157 128.335 204.643 165.032C213.179 172.966 221.175 181.787 226.951 192.132C232.506 202.261 235.351 213.751 235.19 225.409C235.249 236.282 234.098 247.411 236.7 258.079C239.441 269.325 246.846 277.998 256.582 283.412C268.496 290.037 281.988 291.817 295.241 293.081C309.956 294.485 325.262 295.7 338.203 303.846C339.771 304.833 341.152 302.246 339.587 301.261C317.072 287.089 289.292 293.385 265.261 284.212C254.047 279.931 244.007 272.112 240.177 259.932C236.829 249.28 238.006 237.803 238.037 226.793C238.07 215.233 236.269 204.307 231.148 193.944C225.909 183.343 218.228 174.179 209.924 166.053C190.961 147.772 169.351 132.704 145.885 121.401C119.172 108.347 90.5081 100.139 61.1326 97.1314C59.3143 96.946 59.3863 99.9056 61.1927 100.09Z" fill="white"/>
<path d="M192.413 152.4C197.437 144.576 199.622 135.15 198.577 125.805C197.533 116.461 193.327 107.807 186.71 101.389C185.367 100.095 183.369 102.204 184.714 103.499C190.886 109.464 194.804 117.526 195.759 126.229C196.715 134.933 194.646 143.704 189.926 150.962C188.902 152.54 191.395 153.969 192.413 152.4Z" fill="white"/>
<path d="M235.858 219.891C217.748 223.821 198.878 220.512 183.012 210.622C181.44 209.641 180.058 212.228 181.628 213.208C198.157 223.466 217.801 226.869 236.638 222.737C238.433 222.341 237.643 219.498 235.858 219.891Z" fill="white"/>
<path d="M119.055 112.268C117.718 115.716 115.578 118.766 112.827 121.142C110.076 123.518 106.801 125.147 103.294 125.882C101.495 126.253 102.287 129.096 104.074 128.727C107.944 127.896 111.56 126.093 114.605 123.474C117.65 120.856 120.032 117.502 121.542 113.706C121.714 113.361 121.752 112.961 121.65 112.587C121.547 112.213 121.312 111.894 120.991 111.695C120.661 111.506 120.272 111.46 119.91 111.567C119.547 111.675 119.24 111.926 119.055 112.268Z" fill="white"/>
<path d="M1.28687 317.417C2.4166 317.218 3.54635 317.02 4.69324 316.839C19.8951 314.25 35.2742 312.949 50.6787 312.948C51.8698 312.929 53.077 312.928 54.2661 312.943C91.3791 313.354 128.096 320.924 162.551 335.267C176.256 340.987 189.523 347.783 202.236 355.596C219.793 366.387 238.004 379.539 257.394 383.552C259.412 383.995 261.455 384.307 263.511 384.487L340.969 310.366C341.064 310.105 341.175 309.863 341.271 309.601L344.494 306.789C343.865 306.338 343.204 305.885 342.575 305.435C342.212 305.172 341.831 304.925 341.467 304.662C341.219 304.492 340.971 304.323 340.756 304.155C340.674 304.098 340.591 304.042 340.525 304.003C340.31 303.835 340.094 303.702 339.896 303.553C336.206 301.009 332.493 298.487 328.756 295.988C328.74 295.97 328.74 295.97 328.706 295.968C300.186 277.002 269.893 260.344 238.129 248.996C237.174 248.655 236.203 248.294 235.211 247.987C220.867 242.954 206.15 239.148 191.209 236.608C183.024 235.244 174.777 234.312 166.501 233.815C145.113 232.573 123.671 234.836 102.961 240.52C61.6761 251.858 24.3393 276.794 2.89785 314.518C2.35003 315.484 1.81843 316.433 1.28687 317.417Z" fill="#008E00" fill-opacity="0.3"/>
<path d="M2.36613 318.272C47.5013 289.616 101.736 275.762 154.519 280.352C165.931 281.345 177.424 283.384 188.028 288.029C198.33 292.639 207.257 300.033 213.881 309.443C220.226 318.087 225.754 327.693 234.01 334.583C242.713 341.846 253.648 344.138 264.559 342.367C277.908 340.201 289.712 333.179 301.026 325.894C313.588 317.806 326.513 309.198 341.563 307.603C343.387 307.41 342.992 304.48 341.171 304.673C314.986 307.448 296.452 329.859 271.951 337.574C260.518 341.174 247.973 341.215 237.86 333.886C229.016 327.477 223.308 317.576 216.956 308.766C210.286 299.515 202.52 291.919 192.428 286.849C182.105 281.663 170.664 279.153 159.327 277.862C133.598 275.133 107.615 276.626 82.3322 282.287C53.4423 288.581 25.8011 299.965 0.604491 315.948C-0.954626 316.938 0.817193 319.256 2.36613 318.272Z" fill="white"/>
<path d="M137.438 277.919C136.917 268.528 133.202 259.634 126.956 252.827C120.709 246.02 112.338 241.743 103.337 240.759C101.516 240.566 101.142 243.5 102.966 243.693C111.349 244.593 119.147 248.578 124.951 254.929C130.755 261.28 134.184 269.579 134.619 278.327C134.716 280.228 137.534 279.81 137.438 277.919Z" fill="white"/>
<path d="M211.219 304.619C199.035 319.09 182.052 328.257 163.655 330.29C161.832 330.49 162.227 333.42 164.047 333.221C183.187 331.067 200.843 321.491 213.489 306.403C214.694 304.964 212.417 303.188 211.219 304.619Z" fill="white"/>
<path d="M55.6204 291.784C56.5503 295.375 56.6077 299.149 55.7876 302.768C54.9675 306.386 53.2954 309.737 50.9216 312.518C49.7002 313.941 51.9789 315.715 53.1924 314.302C55.8013 311.216 57.6435 307.514 58.5582 303.517C59.4728 299.521 59.432 295.353 58.4394 291.377C58.376 290.994 58.1747 290.65 57.8765 290.416C57.5783 290.182 57.2054 290.074 56.8337 290.115C56.4607 290.171 56.1241 290.378 55.8969 290.691C55.6697 291.003 55.5703 291.396 55.6204 291.784Z" fill="white"/>
<path d="M764.579 395.121C764.375 391.384 762.904 387.844 760.428 385.127C757.951 382.41 754.629 380.692 751.051 380.278L530.865 354.454C528.753 354.203 526.615 354.414 524.586 355.074L474.076 371.512L445.095 380.953L391.611 398.356C388.382 399.41 385.582 401.549 383.649 404.436C381.715 407.323 380.758 410.795 380.928 414.309L389.956 637.372C390.148 640.997 391.524 644.446 393.856 647.149C396.189 649.852 399.338 651.647 402.784 652.238L627.604 652.748C628.66 652.926 629.731 652.985 630.799 652.924C632.355 652.846 633.891 652.52 635.352 651.957L767.096 651.011C770.166 649.836 772.789 647.663 774.577 644.816C776.365 641.968 777.222 638.598 777.021 635.204L764.579 395.121Z" fill="white"/>
<path d="M404.906 638.521L629.724 639.027C630.053 639.084 630.39 639.052 630.703 638.932L762.429 637.993C762.816 637.848 763.146 637.577 763.371 637.219C763.595 636.862 763.702 636.438 763.674 636.012L751.247 395.924C751.216 395.459 751.031 395.02 750.723 394.682C750.415 394.343 750.004 394.126 749.559 394.068L748.077 393.887L529.363 368.262C529.263 368.248 529.162 368.245 529.062 368.253C528.897 368.258 528.734 368.285 528.576 368.334L405.379 408.436L395.601 411.61C395.201 411.745 394.854 412.013 394.614 412.373C394.374 412.732 394.254 413.163 394.272 413.6L403.303 636.656C403.325 637.11 403.496 637.543 403.788 637.883C404.08 638.222 404.474 638.447 404.906 638.521Z" fill="#008E00"/>
<path d="M405.379 408.436L528.576 368.334C528.734 368.285 528.897 368.258 529.062 368.253C529.162 368.245 529.263 368.248 529.364 368.262L748.077 393.887L695.403 411.704L675.688 418.361L619.592 437.322C619.426 437.368 619.257 437.403 619.087 437.427C618.979 437.417 618.87 437.408 618.74 437.401L405.379 408.436Z" fill="#2F2E41"/>
<path d="M402.783 652.25L627.601 652.755C628.659 652.931 629.732 652.984 630.801 652.911C632.358 652.838 633.896 652.519 635.362 651.967L767.089 651.027C770.159 649.849 772.783 647.674 774.573 644.825C776.362 641.976 777.221 638.603 777.023 635.207L764.575 395.121C764.418 392.309 763.548 389.591 762.053 387.241C761.847 386.931 761.64 386.62 761.415 386.334C759.867 384.229 757.827 382.571 755.489 381.518C754.078 380.875 752.583 380.458 751.052 380.28L750.79 380.244L530.875 354.449C529.979 354.356 529.078 354.329 528.179 354.368C526.956 354.455 525.748 354.696 524.581 355.086L474.075 371.505L445.1 380.962L391.606 398.362C389.417 399.071 387.411 400.288 385.741 401.92C385.608 402.027 385.484 402.147 385.371 402.277C385.289 402.362 385.213 402.454 385.143 402.55C383.711 404.108 382.599 405.952 381.875 407.971C381.151 409.989 380.83 412.14 380.931 414.292L389.944 637.372C390.137 641 391.514 644.452 393.849 647.156C396.183 649.861 399.334 651.658 402.783 652.25ZM384.738 414.108C384.634 411.877 385.144 409.662 386.207 407.72C386.522 407.102 386.897 406.518 387.327 405.978C388.494 404.482 389.996 403.306 391.701 402.553C392.037 402.4 392.382 402.269 392.734 402.162L482.803 372.859L525.727 358.861C526.017 358.759 526.291 358.705 526.562 358.628C527.222 358.467 527.895 358.372 528.573 358.344C529.191 358.292 529.813 358.308 530.427 358.392L750.604 384.222C750.779 384.246 750.932 384.273 751.107 384.297C753.124 384.607 755.021 385.487 756.59 386.841C757.822 387.87 758.831 389.158 759.552 390.621C760.272 392.083 760.688 393.687 760.771 395.328L773.2 635.438C773.349 637.981 772.708 640.506 771.371 642.641C770.034 644.776 768.072 646.407 765.775 647.295L634.027 648.237C632.165 648.947 630.158 649.147 628.2 648.818L403.384 648.335C400.803 647.885 398.446 646.536 396.7 644.51C394.953 642.484 393.921 639.902 393.772 637.186L384.738 414.108Z" fill="#3F3D56"/>
<path d="M631.482 653.352C630.979 653.379 630.487 653.198 630.112 652.849C629.737 652.499 629.51 652.011 629.48 651.488L617.09 435.552C617.06 435.027 617.232 434.51 617.568 434.117C617.904 433.723 618.376 433.484 618.882 433.453L618.899 433.452C619.402 433.426 619.894 433.607 620.269 433.956C620.644 434.305 620.871 434.794 620.901 435.316L633.292 651.252C633.322 651.778 633.15 652.294 632.814 652.688C632.478 653.081 632.005 653.32 631.5 653.351L631.482 653.352Z" fill="#3F3D56"/>
<path d="M709.208 638.746L687.637 638.594L667.169 417.065C667.169 417.065 693.079 406.05 694.215 407.924C694.906 409.04 709.128 637.372 709.208 638.746Z" fill="#3F3D56"/>
<path d="M757.71 388.73L756.153 387.405C754.55 386.035 752.597 385.18 750.534 384.946L530.36 359.116C529.145 358.977 527.917 359.048 526.724 359.325L525.899 359.537L525.733 356.114L562.247 314.128C564.422 311.639 567.119 309.705 570.13 308.477C573.141 307.25 576.384 306.761 579.607 307.049L728.452 320.738C732.899 321.131 737.106 322.999 740.454 326.066C743.802 329.133 746.114 333.237 747.048 337.773L757.71 388.73Z" fill="#3F3D56"/>
<path d="M424.923 557.679C425.158 557.64 425.397 557.627 425.634 557.642L493.399 561.911C494.248 561.965 495.041 562.366 495.605 563.027C496.168 563.688 496.456 564.555 496.405 565.437C496.354 566.319 495.968 567.143 495.332 567.729C494.695 568.315 493.861 568.615 493.013 568.561L425.248 564.292C424.461 564.243 423.72 563.893 423.165 563.311C422.61 562.729 422.282 561.955 422.241 561.137C422.201 560.318 422.453 559.513 422.947 558.876C423.442 558.238 424.146 557.812 424.923 557.679Z" fill="white"/>
<path d="M426.059 582.424C426.294 582.384 426.532 582.372 426.77 582.387L494.535 586.656C495.383 586.709 496.176 587.11 496.74 587.772C497.304 588.433 497.592 589.3 497.54 590.181C497.489 591.063 497.103 591.888 496.467 592.474C495.831 593.06 494.997 593.359 494.149 593.306L426.384 589.037C425.597 588.987 424.855 588.638 424.301 588.056C423.746 587.473 423.417 586.699 423.377 585.881C423.337 585.063 423.588 584.258 424.083 583.62C424.578 582.982 425.281 582.556 426.059 582.424Z" fill="white"/>
<path d="M750.18 286.961L619.466 360.937L565.761 258.41L696.476 184.433L750.18 286.961Z" fill="white"/>
<path d="M750.18 286.961L619.466 360.937L565.761 258.41L696.476 184.433L750.18 286.961ZM620.561 357.077L746.467 285.822L695.381 188.293L569.475 259.548L620.561 357.077Z" fill="#E6E6E6"/>
<path d="M693.861 222.115L597.629 276.577L601.122 283.245L697.355 228.784L693.861 222.115Z" fill="#008E00"/>
<path d="M704.34 242.12L608.107 296.581L611.6 303.25L707.833 248.788L704.34 242.12Z" fill="#008E00"/>
<path d="M714.819 262.126L618.586 316.587L622.079 323.256L718.312 268.794L714.819 262.126Z" fill="#008E00"/>
<path d="M452.311 196.611C450.96 195.038 450.5 194.877 450.021 195.221L375.635 248.568C375.161 248.908 375.133 249.41 376.053 251.259C378.484 255.171 381.456 259.79 384.709 264.69L480.415 408.876C489.386 422.391 497.181 433.031 497.788 432.596L572.173 379.249C572.781 378.813 565.977 367.462 557.006 353.947L461.299 209.761C458.054 204.873 454.962 200.356 452.311 196.611Z" fill="white"/>
<path d="M462.22 210.106C460.529 207.642 458.918 205.356 457.478 203.365C455.745 200.98 454.325 199.089 453.247 197.737C452.892 197.297 452.587 196.92 452.311 196.611C450.96 195.038 450.5 194.877 450.021 195.221L375.635 248.568C375.161 248.908 375.133 249.41 376.053 251.259C376.242 251.639 376.475 252.084 376.752 252.597C377.581 254.119 378.778 256.17 380.312 258.706C382.879 262.929 386.256 268.206 389.817 273.571L480.702 410.492C484.83 416.71 488.831 422.478 491.968 426.742C497.191 433.841 497.575 433.566 498.155 433.149L572.541 379.802C573.122 379.386 573.505 379.111 568.974 371.516C566.253 366.954 562.486 361.018 558.359 354.8L467.473 217.878C465.691 215.193 463.913 212.562 462.22 210.106ZM390.883 272.807C387.332 267.458 383.963 262.193 381.411 257.992C379.882 255.476 378.698 253.432 377.884 251.932C377.423 251.139 377.02 250.31 376.679 249.454L450.447 196.55C451.096 197.186 451.698 197.871 452.248 198.601C452.782 199.264 453.401 200.062 454.105 200.995C454.805 201.932 455.586 202.993 456.446 204.179C459.318 208.15 462.854 213.288 466.408 218.642L557.293 355.564C565.919 368.558 570.888 377.123 571.502 378.913L497.724 431.824C496.332 430.592 490.393 422.723 481.768 409.728L390.883 272.807Z" fill="#E4E4E4"/>
<path d="M436.407 240.959L422.323 251.059C421.617 251.566 421.134 252.343 420.979 253.221C420.824 254.098 421.011 255.003 421.498 255.738L429.914 268.417C430.402 269.15 431.15 269.651 431.993 269.812C432.837 269.973 433.708 269.78 434.415 269.275L448.498 259.175C449.202 258.666 449.684 257.889 449.839 257.013C449.994 256.136 449.809 255.231 449.324 254.496L440.908 241.817C440.42 241.084 439.672 240.582 438.828 240.422C437.984 240.261 437.114 240.454 436.407 240.959Z" fill="#008E00"/>
<path d="M471.494 254.909L422.409 290.11C422.25 290.224 422.115 290.37 422.01 290.538C421.905 290.706 421.833 290.895 421.799 291.092C421.764 291.289 421.767 291.491 421.807 291.687C421.847 291.884 421.925 292.069 422.034 292.234C422.144 292.4 422.284 292.541 422.446 292.649C422.608 292.758 422.789 292.833 422.978 292.869C423.168 292.905 423.363 292.902 423.551 292.86C423.74 292.818 423.919 292.738 424.078 292.624L473.162 257.422C473.321 257.309 473.457 257.163 473.561 256.995C473.666 256.827 473.738 256.638 473.773 256.441C473.808 256.244 473.805 256.042 473.764 255.845C473.724 255.649 473.647 255.464 473.537 255.299C473.428 255.133 473.288 254.992 473.126 254.884C472.964 254.775 472.783 254.7 472.593 254.664C472.403 254.628 472.209 254.631 472.02 254.673C471.831 254.715 471.652 254.795 471.494 254.909Z" fill="#E4E4E4"/>
<path d="M444.962 282.631L426.319 296.001C426.161 296.115 426.025 296.261 425.92 296.429C425.815 296.597 425.743 296.785 425.709 296.983C425.674 297.18 425.677 297.382 425.717 297.578C425.758 297.774 425.835 297.96 425.945 298.125C426.054 298.29 426.194 298.431 426.356 298.54C426.518 298.649 426.699 298.724 426.889 298.76C427.078 298.796 427.273 298.793 427.462 298.751C427.65 298.709 427.829 298.629 427.988 298.515L446.631 285.145C446.952 284.915 447.171 284.562 447.242 284.164C447.312 283.765 447.227 283.354 447.006 283.021C446.785 282.688 446.445 282.459 446.062 282.386C445.679 282.313 445.283 282.401 444.962 282.631Z" fill="#E4E4E4"/>
<path d="M472.79 295.772L458.707 305.872C458.001 306.379 457.517 307.156 457.362 308.034C457.207 308.911 457.394 309.816 457.881 310.551L466.297 323.23C466.785 323.963 467.533 324.464 468.377 324.625C469.22 324.786 470.091 324.593 470.798 324.088L484.881 313.988C485.586 313.479 486.068 312.702 486.223 311.825C486.377 310.949 486.192 310.044 485.707 309.309L477.291 296.63C476.803 295.897 476.055 295.395 475.211 295.235C474.368 295.074 473.497 295.267 472.79 295.772Z" fill="#008E00"/>
<path d="M507.877 309.722L458.793 344.923C458.472 345.153 458.252 345.506 458.182 345.905C458.112 346.303 458.197 346.714 458.418 347.047C458.639 347.381 458.979 347.609 459.362 347.682C459.745 347.755 460.141 347.667 460.461 347.437L509.546 312.235C509.704 312.121 509.84 311.976 509.945 311.808C510.05 311.639 510.122 311.451 510.156 311.254C510.191 311.057 510.188 310.854 510.148 310.658C510.107 310.462 510.03 310.276 509.921 310.111C509.811 309.946 509.671 309.805 509.509 309.696C509.347 309.587 509.166 309.513 508.977 309.476C508.787 309.44 508.592 309.443 508.403 309.485C508.215 309.527 508.036 309.608 507.877 309.722Z" fill="#E4E4E4"/>
<path d="M481.346 337.444L462.703 350.814C462.382 351.044 462.163 351.397 462.092 351.796C462.022 352.194 462.107 352.605 462.328 352.938C462.549 353.272 462.889 353.5 463.272 353.573C463.655 353.646 464.051 353.558 464.371 353.328L483.014 339.958C483.173 339.844 483.309 339.699 483.414 339.53C483.518 339.362 483.59 339.174 483.625 338.977C483.66 338.779 483.657 338.577 483.617 338.381C483.576 338.185 483.499 337.999 483.389 337.834C483.28 337.669 483.14 337.528 482.978 337.419C482.816 337.31 482.635 337.235 482.445 337.199C482.255 337.163 482.061 337.166 481.872 337.208C481.683 337.25 481.505 337.33 481.346 337.444Z" fill="#E4E4E4"/>
<path d="M509.174 350.585L495.09 360.685C494.384 361.192 493.901 361.969 493.746 362.847C493.591 363.724 493.778 364.629 494.265 365.364L502.681 378.043C503.169 378.776 503.917 379.277 504.76 379.438C505.604 379.599 506.475 379.406 507.181 378.901L521.265 368.801C521.969 368.292 522.451 367.515 522.606 366.638C522.761 365.762 522.575 364.857 522.091 364.122L513.675 351.443C513.186 350.71 512.438 350.208 511.595 350.048C510.751 349.887 509.881 350.08 509.174 350.585Z" fill="#6C63FF"/>
<path d="M544.26 364.535L495.176 399.736C495.017 399.85 494.882 399.995 494.777 400.164C494.672 400.332 494.6 400.52 494.565 400.718C494.531 400.915 494.533 401.117 494.574 401.313C494.614 401.509 494.692 401.695 494.801 401.86C494.911 402.025 495.05 402.166 495.212 402.275C495.374 402.384 495.555 402.459 495.745 402.495C495.935 402.531 496.13 402.528 496.318 402.486C496.507 402.444 496.686 402.364 496.845 402.25L545.929 367.048C546.25 366.818 546.469 366.465 546.54 366.067C546.61 365.669 546.525 365.258 546.304 364.924C546.083 364.591 545.743 364.363 545.36 364.289C544.977 364.216 544.581 364.305 544.26 364.535Z" fill="#E4E4E4"/>
<path d="M517.729 392.257L499.086 405.627C498.928 405.741 498.792 405.887 498.687 406.055C498.582 406.223 498.511 406.411 498.476 406.609C498.441 406.806 498.444 407.008 498.484 407.204C498.525 407.4 498.602 407.586 498.712 407.751C498.821 407.916 498.961 408.057 499.123 408.166C499.285 408.275 499.466 408.35 499.656 408.386C499.845 408.422 500.04 408.419 500.229 408.377C500.417 408.335 500.596 408.255 500.755 408.141L519.398 394.771C519.719 394.541 519.938 394.188 520.009 393.79C520.079 393.391 519.994 392.98 519.773 392.647C519.552 392.314 519.212 392.085 518.829 392.012C518.446 391.939 518.05 392.027 517.729 392.257Z" fill="#E4E4E4"/>
<path d="M673.867 260.975C673.573 253.471 673.124 248.633 672.606 248.633H482.786C482.267 248.633 481.818 253.471 481.524 260.975C481.328 266.207 481.201 272.735 481.201 279.803V417.276L481.973 417.378L513.179 421.604L545.704 426.034L560.564 428.045L592.346 432.358L618.744 435.943C618.87 435.957 618.982 435.958 619.094 435.972C619.262 435.943 619.431 435.914 619.585 435.87L629.973 432.358L641.96 428.307L673.419 417.67L674.19 417.407V279.803C674.19 272.735 674.063 266.207 673.867 260.975Z" fill="white"/>
<path d="M674.498 257.726C674.4 255.773 674.302 254.2 674.19 252.946C674.111 251.637 673.933 250.336 673.657 249.056C673.349 247.832 672.998 247.832 672.606 247.832H482.786C482.393 247.832 482.043 247.832 481.734 249.056C481.463 250.401 481.285 251.764 481.201 253.136C481.103 254.36 481.005 255.875 480.907 257.726C480.599 263.628 480.43 271.468 480.43 279.803V417.16L481.201 417.276L481.973 417.378V279.803C481.973 272.546 482.099 266.396 482.281 261.544C482.315 257.484 482.629 253.433 483.22 249.42H672.185C672.777 253.428 673.091 257.475 673.124 261.529C673.293 266.382 673.419 272.531 673.419 279.803V417.67L674.961 417.145V279.803C674.961 271.468 674.793 263.628 674.498 257.726Z" fill="#E4E4E4"/>
<path d="M541.12 290.542H516.909C516.307 290.541 515.712 290.663 515.156 290.901C514.6 291.139 514.095 291.489 513.669 291.93C513.243 292.371 512.905 292.895 512.674 293.472C512.444 294.049 512.325 294.668 512.324 295.293V317.093C512.323 317.719 512.441 318.339 512.671 318.918C512.901 319.496 513.239 320.022 513.665 320.465C514.091 320.907 514.596 321.258 515.153 321.497C515.71 321.736 516.306 321.859 516.909 321.858H541.12C542.335 321.858 543.501 321.355 544.361 320.462C545.22 319.568 545.703 318.357 545.704 317.093V295.293C545.701 294.032 545.216 292.823 544.357 291.933C543.497 291.042 542.333 290.542 541.12 290.542Z" fill="#008E00"/>
<path d="M640.992 298.98H556.597C556.046 298.98 555.519 299.207 555.129 299.611C554.74 300.016 554.522 300.564 554.522 301.136C554.522 301.708 554.74 302.257 555.129 302.661C555.519 303.066 556.046 303.293 556.597 303.293H640.992C641.542 303.293 642.07 303.066 642.459 302.661C642.848 302.257 643.067 301.708 643.067 301.136C643.067 300.564 642.848 300.016 642.459 299.611C642.07 299.207 641.542 298.98 640.992 298.98Z" fill="#E4E4E4"/>
<path d="M588.644 309.107H556.597C556.046 309.107 555.519 309.335 555.129 309.739C554.74 310.143 554.522 310.692 554.522 311.264C554.522 311.836 554.74 312.385 555.129 312.789C555.519 313.193 556.046 313.421 556.597 313.421H588.644C589.195 313.421 589.722 313.193 590.112 312.789C590.501 312.385 590.719 311.836 590.719 311.264C590.719 310.692 590.501 310.143 590.112 309.739C589.722 309.335 589.195 309.107 588.644 309.107Z" fill="#E4E4E4"/>
<path d="M541.12 355.068H516.909C515.693 355.068 514.527 355.57 513.667 356.464C512.808 357.357 512.325 358.569 512.324 359.833V381.633C512.325 382.896 512.808 384.108 513.667 385.002C514.527 385.895 515.693 386.397 516.909 386.398H541.12C542.335 386.395 543.499 385.892 544.358 384.999C545.217 384.106 545.701 382.896 545.704 381.633V359.833C545.701 358.57 545.217 357.36 544.358 356.467C543.499 355.574 542.335 355.071 541.12 355.068Z" fill="#008E00"/>
<path d="M640.992 363.505H556.597C556.045 363.505 555.515 363.733 555.125 364.139C554.734 364.545 554.515 365.095 554.515 365.669C554.515 366.243 554.734 366.793 555.125 367.199C555.515 367.605 556.045 367.833 556.597 367.833H640.992C641.544 367.833 642.074 367.605 642.464 367.199C642.855 366.793 643.074 366.243 643.074 365.669C643.074 365.095 642.855 364.545 642.464 364.139C642.074 363.733 641.544 363.505 640.992 363.505Z" fill="#E4E4E4"/>
<path d="M588.645 373.633H556.597C556.045 373.633 555.515 373.861 555.125 374.266C554.734 374.672 554.515 375.223 554.515 375.797C554.515 376.37 554.734 376.921 555.125 377.327C555.515 377.733 556.045 377.96 556.597 377.96H588.645C589.197 377.96 589.726 377.733 590.117 377.327C590.507 376.921 590.727 376.37 590.727 375.797C590.727 375.223 590.507 374.672 590.117 374.266C589.726 373.861 589.197 373.633 588.645 373.633Z" fill="#E4E4E4"/>
<path d="M545.045 421.925C544.64 421.217 544.066 420.632 543.377 420.226C542.689 419.819 541.911 419.606 541.119 419.608H516.908C516.178 419.606 515.459 419.786 514.81 420.134C514.161 420.481 513.602 420.985 513.179 421.604L545.704 426.034V424.358C545.705 423.499 545.477 422.657 545.045 421.925Z" fill="#008E00"/>
<path d="M640.992 428.045H560.564L592.346 432.358H629.973L641.96 428.307C641.666 428.131 641.332 428.04 640.992 428.045Z" fill="#E4E4E4"/>
<path d="M759.244 390.041C759.091 390.144 758.926 390.227 758.754 390.289L751.786 392.635L695.401 411.71L675.69 418.354L674.961 418.602L673.419 419.127L641.96 429.764L629.973 433.816L619.585 437.327C619.431 437.371 619.263 437.4 619.094 437.429C618.982 437.415 618.87 437.415 618.744 437.4L592.346 433.816L560.564 429.502L545.704 427.491L513.179 423.061L481.973 418.835L481.201 418.733L480.43 418.617L387.329 405.983L386.544 405.866C386.362 405.849 386.186 405.794 386.025 405.706C385.65 405.531 385.339 405.235 385.137 404.863C384.935 404.491 384.853 404.061 384.904 403.637C384.94 403.281 385.071 402.943 385.282 402.66C385.366 402.573 385.436 402.485 385.52 402.413C385.59 402.369 385.675 402.281 385.759 402.238C386.135 401.968 386.595 401.854 387.048 401.917L391.703 402.558L480.43 414.609L481.201 414.711L481.973 414.813L527.942 421.065L545.045 423.382L590.061 429.502L618.814 433.407L630.38 429.502L667.166 417.072L673.419 414.959L674.19 414.697L674.961 414.435L694.209 407.935L751.464 388.569L756.595 386.835L757.59 386.5C758.019 386.359 758.481 386.38 758.897 386.558C759.312 386.737 759.653 387.062 759.861 387.476C759.912 387.574 759.954 387.677 759.987 387.782C760.113 388.192 760.109 388.632 759.975 389.039C759.841 389.446 759.585 389.797 759.244 390.041Z" fill="#3F3D56"/>
<path d="M565.651 527.078C564.42 527.078 563.19 526.979 561.974 526.782L421.214 503.932C416.381 503.132 411.896 500.824 408.352 497.314C404.809 493.805 402.375 489.259 401.373 484.28L385.663 405.023L386.631 405.145L621.94 434.712L587.534 512.525C585.599 516.865 582.511 520.541 578.635 523.119C574.758 525.697 570.253 527.071 565.651 527.078Z" fill="#3F3D56"/>
<path d="M321.314 618.903L338.455 615.187L332.829 544.694L307.53 550.178L321.314 618.903Z" fill="#9E616A"/>
<path d="M313.741 611.369L318.865 654.645L318.876 654.733L319.276 654.645L331.042 652.092L330.821 639.687L338.77 650.426L346.383 648.782V648.771L361.754 645.44L362.998 645.177L367.743 644.147L371.032 643.435C372.264 643.165 373.409 642.574 374.361 641.717C375.312 640.861 376.038 639.766 376.47 638.538C376.902 637.309 377.027 635.986 376.832 634.694C376.637 633.401 376.128 632.182 375.355 631.15C374.762 630.368 374.032 629.71 373.204 629.21C373.099 629.155 372.993 629.089 372.888 629.035H372.877C372.719 628.947 372.561 628.87 372.392 628.794L372.108 628.662L367.079 626.459L367.058 626.448L353.784 620.64L342.924 615.884L340.51 603.818L337.611 604.64L319.476 609.747L313.741 611.369Z" fill="#2F2E41"/>
<path d="M203.508 561.35L216.82 573.175L267.032 525.431L247.385 507.98L203.508 561.35Z" fill="#9E616A"/>
<path d="M184.187 589.656L193.496 581.881L190.194 594.983L215.245 617.236C215.976 617.892 216.826 618.389 217.744 618.699C218.437 618.932 219.158 619.059 219.886 619.076C221.035 619.105 222.175 618.856 223.215 618.348C224.255 617.84 225.168 617.087 225.88 616.149C226.592 615.212 227.084 614.114 227.318 612.945C227.552 611.775 227.52 610.564 227.226 609.409L219.024 577.275L226.733 567.907L224.333 566.029L209.349 554.241L204.61 550.516L174.746 581.257L184.187 589.656Z" fill="#2F2E41"/>
<path d="M270.843 279.875L353.367 276.576L356.473 189.542L286.741 191.87L270.843 279.875Z" fill="#9E616A"/>
<path d="M332.546 85.728C349.903 85.728 363.973 71.1025 363.973 53.0611C363.973 35.0197 349.903 20.3943 332.546 20.3943C315.189 20.3943 301.119 35.0197 301.119 53.0611C301.119 71.1025 315.189 85.728 332.546 85.728Z" fill="#9E616A"/>
<path d="M305.423 24.3717L341.609 5.53809C349.007 9.00322 355.378 14.4625 360.062 21.3497C364.746 28.237 367.572 36.3013 368.247 44.7065L369.149 55.9362L353.996 51.9269L352.336 37.5675L349.763 50.8068L342.77 48.9574L342.837 26.6645L335.839 48.9415L310.864 42.9771L305.423 24.3717Z" fill="#2F2E41"/>
<path d="M354.955 256.781C354.955 256.781 382.449 306.455 355.905 381.821L318.368 481.313L253.146 549.92L218.095 528.382L283.264 470.95L254.202 368.545C247.509 345.337 245.446 320.953 248.138 296.887C250.233 278.879 265.868 264.827 276.563 247.832C312.277 271.776 353.413 267.924 354.955 256.781Z" fill="#2F2E41"/>
<path d="M318.413 456.154L342.885 574.314L307.485 581.251L287.326 481.92L318.413 456.154Z" fill="#2F2E41"/>
<path d="M309.513 96.6509L350.146 97.2139L363.37 114.668C369.686 116.217 375.425 119.66 379.873 124.571C384.322 129.482 387.283 135.644 388.39 142.291L389.637 149.784C392.218 165.287 389.478 181.24 381.895 194.857L357.089 219.195L358.165 221.227C358.696 222.232 358.853 223.405 358.604 224.521C358.355 225.638 357.718 226.62 356.815 227.279C357.576 229.275 357.665 231.48 357.066 233.535L356.542 235.336C356.542 235.336 370.45 239.179 284.648 225.94C282.829 225.659 281.149 224.77 279.861 223.407C278.572 222.044 277.746 220.283 277.506 218.388C276.574 217.413 275.96 216.159 275.75 214.801C275.54 213.444 275.745 212.053 276.337 210.823L276.511 210.46L275.63 209.381C274.65 208.181 274.084 206.675 274.021 205.101C273.959 203.528 274.404 201.979 275.287 200.699L275.061 149.591C274.03 141.922 275.653 134.122 279.642 127.581C283.631 121.041 289.725 116.187 296.838 113.884L309.513 96.6509Z" fill="#8F9194"/>
<path d="M425.092 315.139C425.071 313.131 424.627 311.151 423.791 309.34C422.955 307.529 421.747 305.931 420.252 304.658C418.757 303.385 417.012 302.468 415.139 301.971C413.266 301.475 411.312 301.412 409.413 301.786L386.023 259.44L375.041 282.102L398.937 318.839C399.753 322.113 401.695 324.963 404.397 326.847C407.099 328.732 410.371 329.521 413.595 329.065C416.819 328.609 419.77 326.939 421.889 324.373C424.008 321.806 425.148 318.521 425.092 315.139Z" fill="#9E616A"/>
<path d="M296.669 142.384L283.606 144.479C283.606 144.479 279.61 153.357 288.755 170.549C297.9 187.74 384.673 297.739 384.673 297.739L392.008 269.232L341.571 172.789L296.669 142.384Z" fill="#8F9194"/>
</svg>
