<svg width="733" height="729" viewBox="0 0 733 729" fill="none" xmlns="http://www.w3.org/2000/svg">
<g clip-path="url(#clip0_3433_2)">
<path d="M226.953 520.418C226.143 519.191 225.074 518.157 223.821 517.388C222.567 516.62 221.161 516.135 219.7 515.969C218.24 515.803 216.76 515.959 215.366 516.426C213.973 516.893 212.698 517.66 211.633 518.674L179.879 502.283L181.853 520.748L211.704 533.481C213.525 535.158 215.897 536.109 218.372 536.153C220.847 536.198 223.252 535.333 225.131 533.723C227.011 532.112 228.235 529.869 228.57 527.416C228.906 524.964 228.331 522.474 226.953 520.418Z" fill="#FFB8B8"/>
<path d="M198.733 527.85C198.159 528.113 197.535 528.253 196.903 528.26C196.271 528.267 195.644 528.14 195.064 527.889L164.902 514.805C154.589 510.333 146.251 502.267 141.44 492.107L125.583 458.636C124.413 457.133 123.551 455.413 123.047 453.577C122.542 451.74 122.404 449.822 122.641 447.931C122.878 446.041 123.485 444.216 124.428 442.561C125.37 440.906 126.63 439.453 128.134 438.284C129.639 437.116 131.359 436.256 133.196 435.753C135.034 435.25 136.952 435.114 138.842 435.353C140.732 435.591 142.556 436.2 144.211 437.145C145.865 438.089 147.317 439.35 148.484 440.856L176.356 492.569L202.093 512.011C202.83 512.57 203.377 513.342 203.661 514.222C203.945 515.102 203.951 516.048 203.68 516.932L201.154 525.091C200.883 525.966 200.351 526.738 199.63 527.303C199.354 527.52 199.053 527.703 198.733 527.85Z" fill="#008E00"/>
<path d="M124.885 419.272C138.45 419.272 149.446 408.276 149.446 394.711C149.446 381.147 138.45 370.15 124.885 370.15C111.32 370.15 100.324 381.147 100.324 394.711C100.324 408.276 111.32 419.272 124.885 419.272Z" fill="#FFB8B8"/>
<path d="M134.833 716.908L147.093 716.907L152.925 669.619L134.831 669.62L134.833 716.908Z" fill="#FFB8B8"/>
<path d="M170.737 728.29L132.207 728.292L132.206 713.405L155.85 713.404C159.798 713.404 163.585 714.972 166.377 717.764C169.169 720.555 170.737 724.342 170.737 728.29Z" fill="#2F2E41"/>
<path d="M94.8331 716.908L107.093 716.907L112.925 669.619L94.8311 669.62L94.8331 716.908Z" fill="#FFB8B8"/>
<path d="M130.737 728.29L92.2066 728.292L92.2059 713.405L115.85 713.404C119.798 713.404 123.585 714.972 126.377 717.764C129.169 720.555 130.737 724.342 130.737 728.29Z" fill="#2F2E41"/>
<path d="M90.5524 703.372C90.13 702.89 89.8156 702.323 89.6302 701.709C89.4448 701.095 89.3927 700.449 89.4775 699.813L110.942 538.828L164.271 547.885L169.962 544.47L155.245 697.214C155.122 698.245 154.648 699.202 153.902 699.924C153.155 700.647 152.183 701.089 151.148 701.178L135.001 702.523C134.359 702.577 133.713 702.492 133.106 702.275C132.5 702.057 131.947 701.712 131.486 701.262C131.025 700.813 130.665 700.269 130.432 699.669C130.199 699.068 130.097 698.424 130.134 697.781L134.315 625.039C134.322 624.915 134.284 624.794 134.206 624.697C134.129 624.6 134.018 624.536 133.896 624.516C133.774 624.496 133.649 624.522 133.545 624.589C133.441 624.656 133.365 624.759 133.333 624.879L112.65 701.579C112.391 702.534 111.826 703.377 111.041 703.979C110.255 704.58 109.294 704.907 108.305 704.908H93.9382C93.297 704.908 92.6631 704.771 92.0792 704.506C91.4953 704.241 90.9747 703.855 90.5524 703.372Z" fill="#2F2E41"/>
<path d="M127.485 550.097C126.873 549.543 126.086 549.22 125.261 549.186C124.436 549.151 123.625 549.407 122.969 549.908L112.307 558.201C111.727 558.654 111.044 558.957 110.319 559.084C109.595 559.212 108.85 559.159 108.15 558.931C107.45 558.704 106.817 558.308 106.306 557.778C105.795 557.249 105.422 556.602 105.219 555.895C99.9897 537.579 88.141 491.477 91.06 459.028C92.7145 440.636 108.597 426.657 126.465 427.83C138.681 428.645 146.717 435.692 150.351 448.775C159.274 480.897 169.079 539.819 170.954 551.305C171.102 552.196 170.977 553.111 170.596 553.93C170.215 554.749 169.595 555.433 168.818 555.894C163.773 558.922 158.01 560.544 152.126 560.591C145.007 560.591 136.471 558.112 127.485 550.097Z" fill="#008E00"/>
<path d="M131.508 561.523C131.627 560.058 131.424 558.585 130.912 557.206C130.4 555.828 129.593 554.579 128.546 553.547C127.499 552.515 126.239 551.724 124.854 551.232C123.469 550.739 121.992 550.557 120.529 550.696L105.657 518.203L95.8156 533.951L111.447 562.392C111.845 564.835 113.125 567.047 115.045 568.61C116.964 570.172 119.391 570.975 121.863 570.868C124.336 570.761 126.684 569.751 128.461 568.028C130.239 566.306 131.323 563.991 131.508 561.523Z" fill="#FFB8B8"/>
<path d="M104.715 549.956C104.101 549.809 103.524 549.534 103.022 549.149C102.521 548.764 102.106 548.278 101.804 547.723L86.1452 518.814C80.79 508.93 79.207 497.438 81.6908 486.475L89.8693 450.352C89.8762 448.446 90.2585 446.561 90.9945 444.804C91.7305 443.046 92.8058 441.451 94.1587 440.11C95.5116 438.768 97.1158 437.707 98.8793 436.985C100.643 436.264 102.531 435.898 104.437 435.907C106.342 435.917 108.227 436.301 109.983 437.04C111.739 437.778 113.333 438.855 114.673 440.21C116.013 441.565 117.072 443.17 117.791 444.935C118.51 446.699 118.874 448.588 118.862 450.493L108.881 508.386L117.134 539.566C117.369 540.461 117.323 541.406 117.003 542.274C116.683 543.141 116.105 543.89 115.346 544.418L108.323 549.279C107.569 549.8 106.675 550.079 105.759 550.079C105.407 550.079 105.057 550.038 104.715 549.956Z" fill="#008E00"/>
<path opacity="0.2" d="M116.869 474.908L107.869 512.908L120.869 544.908L111.869 513.908L116.869 474.908Z" fill="black"/>
<path d="M122.067 419.288C113.059 419.492 104.158 413.89 100.095 405.46C98.111 401.183 97.2898 396.459 97.7142 391.763C98.1386 387.068 99.7936 382.567 102.512 378.715C105.226 375.044 108.932 372.223 113.193 370.583C117.455 368.944 122.095 368.554 126.571 369.459C131.525 366.306 137.285 364.184 143.057 364.724C148.83 365.264 154.539 368.856 156.698 374.495C158.857 380.133 156.538 387.565 151.17 389.856C147.729 391.325 143.843 390.613 140.17 390.02C136.498 389.428 132.492 389.042 129.296 391.028C126.099 393.014 124.663 398.34 127.525 400.824C129.055 402.235 130.138 404.063 130.641 406.082C131.144 408.102 131.044 410.225 130.354 412.188C128.915 416.088 124.989 419.222 122.067 419.288Z" fill="#2F2E41"/>
<path d="M592.434 172.947H588.435V63.4019C588.435 55.0759 586.795 46.8314 583.609 39.1391C580.423 31.4468 575.752 24.4574 569.865 18.57C563.978 12.6826 556.988 8.01245 549.296 4.8262C541.604 1.63995 533.359 9.19266e-06 525.033 1.33483e-10H292.946C276.131 -3.44781e-05 260.005 6.67974 248.115 18.5699C236.224 30.46 229.544 46.5865 229.544 63.4017V664.376C229.544 681.191 236.224 697.318 248.114 709.208C260.004 721.098 276.131 727.778 292.946 727.778H525.033C541.848 727.778 557.975 721.098 569.865 709.208C581.755 697.318 588.435 681.192 588.435 664.376V250.924H592.434L592.434 172.947Z" fill="#3F3F3F"/>
<path d="M574.94 63.8444V663.934C574.94 676.492 569.951 688.536 561.071 697.416C552.192 706.295 540.148 711.284 527.59 711.284H294.39C281.832 711.284 269.789 706.295 260.909 697.416C252.029 688.536 247.04 676.492 247.04 663.934V63.8444C247.04 51.2864 252.029 39.2429 260.909 30.3631C269.789 21.4833 281.832 16.4946 294.39 16.4944H322.68C321.29 19.9104 320.761 23.6156 321.138 27.2842C321.516 30.9527 322.79 34.4722 324.847 37.5331C326.905 40.5939 329.683 43.1022 332.937 44.8375C336.191 46.5727 339.822 47.4817 343.51 47.4844H476.47C480.158 47.4816 483.789 46.5727 487.043 44.8374C490.297 43.1022 493.075 40.5938 495.133 37.533C497.19 34.4722 498.464 30.9527 498.841 27.2841C499.219 23.6156 498.69 19.9104 497.3 16.4944H527.59C540.148 16.4946 552.191 21.4833 561.071 30.3631C569.951 39.2429 574.94 51.2864 574.94 63.8444Z" fill="white"/>
<path d="M547.29 351.994C546.443 349.651 544.896 347.625 542.858 346.192C540.819 344.758 538.389 343.988 535.898 343.984H286.083C284.493 343.983 282.919 344.296 281.45 344.904C279.981 345.512 278.646 346.404 277.522 347.528C276.398 348.652 275.507 349.987 274.899 351.455C274.291 352.924 273.978 354.498 273.979 356.088V547.793C273.983 551.002 275.26 554.078 277.529 556.347C279.798 558.616 282.874 559.893 286.083 559.897H535.898C539.106 559.893 542.183 558.616 544.452 556.347C546.72 554.078 547.997 551.002 548.002 547.793V356.088C548.004 354.693 547.763 353.307 547.29 351.994Z" fill="#F2F2F2"/>
<path d="M547.29 111.191C546.443 108.848 544.896 106.822 542.858 105.389C540.819 103.955 538.389 103.185 535.898 103.181H286.083C284.493 103.18 282.919 103.493 281.45 104.101C279.981 104.709 278.646 105.601 277.522 106.725C276.398 107.849 275.507 109.183 274.899 110.652C274.291 112.121 273.978 113.695 273.979 115.285V306.99C273.983 310.199 275.26 313.275 277.529 315.544C279.798 317.813 282.874 319.089 286.083 319.094H535.898C539.106 319.089 542.183 317.813 544.452 315.544C546.72 313.275 547.997 310.199 548.002 306.99V115.285C548.004 113.889 547.763 112.504 547.29 111.191Z" fill="white"/>
<path d="M547.29 111.191C546.443 108.848 544.896 106.822 542.858 105.389C540.819 103.955 538.389 103.185 535.898 103.181H286.083C284.493 103.18 282.919 103.493 281.45 104.101C279.981 104.709 278.646 105.601 277.522 106.725C276.398 107.849 275.507 109.183 274.899 110.652C274.291 112.121 273.978 113.695 273.979 115.285V306.99C273.983 310.199 275.26 313.275 277.529 315.544C279.798 317.813 282.874 319.089 286.083 319.094H535.898C539.106 319.089 542.183 317.813 544.452 315.544C546.72 313.275 547.997 310.199 548.002 306.99V115.285C548.004 113.889 547.763 112.504 547.29 111.191ZM546.578 306.99C546.574 309.821 545.448 312.536 543.446 314.538C541.444 316.54 538.729 317.667 535.898 317.67H286.083C283.251 317.667 280.537 316.54 278.534 314.538C276.532 312.536 275.406 309.821 275.403 306.99V115.285C275.406 112.454 276.532 109.739 278.534 107.737C280.537 105.735 283.251 104.608 286.083 104.605H535.898C538.729 104.608 541.444 105.735 543.446 107.737C545.448 109.739 546.574 112.454 546.578 115.285V306.99Z" fill="#3F3D56"/>
<path d="M528.735 128.977V262.838C528.735 263.28 528.648 263.719 528.479 264.127C528.31 264.536 528.062 264.908 527.749 265.221C527.436 265.534 527.065 265.782 526.656 265.951C526.247 266.121 525.809 266.208 525.367 266.208H298.127C297.965 266.209 297.803 266.197 297.643 266.171C296.842 266.055 296.109 265.655 295.579 265.043C295.048 264.431 294.756 263.648 294.756 262.838V128.977C294.756 128.534 294.843 128.096 295.012 127.687C295.182 127.278 295.43 126.907 295.742 126.594C296.055 126.281 296.426 126.033 296.835 125.863C297.244 125.694 297.682 125.607 298.124 125.606H525.365C525.807 125.606 526.245 125.693 526.654 125.862C527.063 126.032 527.434 126.28 527.747 126.592C528.06 126.905 528.309 127.276 528.478 127.685C528.647 128.094 528.735 128.532 528.735 128.974V128.977Z" fill="#E6E6E6"/>
<path d="M352.037 205.198C368.366 205.198 381.604 191.96 381.604 175.631C381.604 159.302 368.366 146.064 352.037 146.064C335.708 146.064 322.47 159.302 322.47 175.631C322.47 191.96 335.708 205.198 352.037 205.198Z" fill="#008E00"/>
<path d="M444.755 266.745H299.71C299.528 266.747 299.347 266.733 299.168 266.702L367.767 147.877C368.186 147.137 368.794 146.522 369.528 146.093C370.263 145.665 371.098 145.439 371.948 145.439C372.798 145.439 373.633 145.665 374.368 146.093C375.102 146.522 375.71 147.137 376.128 147.877L422.167 227.618L424.373 231.433L444.755 266.745Z" fill="#3F3D56"/>
<path opacity="0.2" d="M444.755 266.745H395.233L419.543 231.433L421.293 228.89L422.168 227.618L424.373 231.433L444.755 266.745Z" fill="black"/>
<path d="M525.515 266.745H400.063L424.373 231.433L426.122 228.89L457.801 182.872C459.878 179.856 464.874 179.668 467.315 182.303C467.479 182.483 467.632 182.673 467.772 182.872L525.515 266.745Z" fill="#3F3D56"/>
<path d="M482.705 363.191C481.859 360.847 480.311 358.822 478.273 357.388C476.235 355.955 473.805 355.184 471.313 355.181H221.498C219.908 355.18 218.334 355.493 216.865 356.101C215.396 356.709 214.062 357.601 212.938 358.725C211.814 359.849 210.922 361.183 210.314 362.652C209.706 364.121 209.393 365.695 209.394 367.285V558.99C209.398 562.199 210.675 565.275 212.944 567.544C215.213 569.813 218.289 571.089 221.498 571.094H471.313C474.522 571.089 477.598 569.813 479.867 567.544C482.136 565.275 483.413 562.199 483.417 558.99V367.285C483.42 365.889 483.179 364.504 482.705 363.191Z" fill="white"/>
<path d="M482.705 363.191C481.859 360.847 480.311 358.822 478.273 357.388C476.235 355.955 473.805 355.184 471.313 355.181H221.498C219.908 355.18 218.334 355.493 216.865 356.101C215.396 356.709 214.062 357.601 212.938 358.725C211.814 359.849 210.922 361.183 210.314 362.652C209.706 364.121 209.393 365.695 209.394 367.285V558.99C209.398 562.199 210.675 565.275 212.944 567.544C215.213 569.813 218.289 571.089 221.498 571.094H471.313C474.522 571.089 477.598 569.813 479.867 567.544C482.136 565.275 483.413 562.199 483.417 558.99V367.285C483.42 365.889 483.179 364.504 482.705 363.191ZM481.993 558.99C481.99 561.821 480.863 564.536 478.861 566.538C476.859 568.54 474.145 569.666 471.313 569.67H221.498C218.667 569.666 215.952 568.54 213.95 566.538C211.948 564.536 210.821 561.821 210.818 558.99V367.285C210.821 364.453 211.948 361.739 213.95 359.737C215.952 357.735 218.667 356.608 221.498 356.605H471.313C474.145 356.608 476.859 357.735 478.861 359.737C480.863 361.739 481.99 364.453 481.993 367.285L481.993 558.99Z" fill="#3F3D56"/>
<path d="M464.15 380.977V514.838C464.15 515.28 464.063 515.719 463.894 516.127C463.725 516.536 463.477 516.908 463.164 517.221C462.852 517.534 462.48 517.782 462.072 517.951C461.663 518.121 461.225 518.208 460.782 518.208H233.542C233.38 518.209 233.219 518.197 233.059 518.171C232.257 518.055 231.524 517.655 230.994 517.043C230.464 516.431 230.172 515.648 230.172 514.838V380.977C230.172 380.534 230.259 380.096 230.428 379.687C230.597 379.278 230.845 378.907 231.158 378.594C231.47 378.281 231.842 378.033 232.25 377.863C232.659 377.694 233.097 377.607 233.54 377.606H460.78C461.223 377.606 461.661 377.693 462.07 377.862C462.478 378.032 462.85 378.28 463.163 378.592C463.476 378.905 463.724 379.276 463.893 379.685C464.063 380.094 464.15 380.532 464.15 380.974V380.977Z" fill="#E6E6E6"/>
<path d="M287.452 457.198C303.782 457.198 317.019 443.96 317.019 427.631C317.019 411.302 303.782 398.065 287.452 398.065C271.123 398.065 257.886 411.302 257.886 427.631C257.886 443.96 271.123 457.198 287.452 457.198Z" fill="#008E00"/>
<path d="M380.17 518.745H235.125C234.943 518.747 234.762 518.733 234.583 518.702L303.183 399.877C303.601 399.137 304.209 398.522 304.943 398.093C305.678 397.665 306.513 397.439 307.363 397.439C308.213 397.439 309.048 397.665 309.783 398.093C310.517 398.522 311.125 399.137 311.544 399.877L357.583 479.618L359.788 483.433L380.17 518.745Z" fill="#3F3D56"/>
<path opacity="0.2" d="M380.17 518.745H330.648L354.958 483.433L356.708 480.89L357.583 479.618L359.789 483.433L380.17 518.745Z" fill="black"/>
<path d="M460.93 518.745H335.478L359.788 483.433L361.538 480.89L393.216 434.872C395.293 431.856 400.289 431.668 402.731 434.303C402.895 434.483 403.047 434.673 403.187 434.872L460.93 518.745Z" fill="#3F3D56"/>
<path d="M370.842 643.586H298.842C293.935 643.586 289.23 641.637 285.76 638.168C282.291 634.698 280.342 629.993 280.342 625.086C280.342 620.18 282.291 615.474 285.76 612.005C289.23 608.535 293.935 606.586 298.842 606.586H370.842C375.748 606.586 380.454 608.535 383.923 612.005C387.393 615.474 389.342 620.18 389.342 625.086C389.342 629.993 387.393 634.698 383.923 638.168C380.454 641.637 375.748 643.586 370.842 643.586Z" fill="#008E00"/>
<path d="M513.922 643.586H441.922C437.015 643.586 432.31 641.637 428.84 638.168C425.371 634.698 423.422 629.993 423.422 625.086C423.422 620.18 425.371 615.474 428.84 612.005C432.31 608.535 437.015 606.586 441.922 606.586H513.922C518.828 606.586 523.534 608.535 527.003 612.005C530.473 615.474 532.422 620.18 532.422 625.086C532.422 629.993 530.473 634.698 527.003 638.168C523.534 641.637 518.828 643.586 513.922 643.586Z" fill="#F2F2F2"/>
</g>
<defs>
<clipPath id="clip0_3433_2">
<rect width="733" height="728.586" fill="white"/>
</clipPath>
</defs>
</svg>
