<svg width="795" height="459" viewBox="0 0 795 459" fill="none" xmlns="http://www.w3.org/2000/svg">
<g clip-path="url(#clip0_3305_9185)">
<path d="M366.763 435.232C365.59 435.231 364.437 434.926 363.416 434.347L169.92 324.951C168.347 324.059 167.193 322.58 166.709 320.838C166.225 319.096 166.452 317.233 167.34 315.658L319.743 46.0922C320.184 45.3125 320.773 44.6272 321.479 44.0755C322.184 43.5238 322.992 43.1165 323.855 42.8769C324.718 42.6373 325.619 42.5701 326.508 42.6791C327.397 42.7881 328.256 43.0712 329.035 43.5121L522.531 152.908C524.104 153.799 525.259 155.278 525.743 157.02C526.227 158.762 526 160.625 525.112 162.2L372.709 431.766C372.27 432.547 371.681 433.233 370.975 433.785C370.269 434.337 369.461 434.744 368.597 434.981C368 435.148 367.383 435.232 366.763 435.232Z" fill="#E6E6E6"/>
<path d="M314.346 56.6535L313.568 58.0288L518.067 173.645L518.844 172.269L314.346 56.6535Z" fill="white"/>
<path d="M300.35 81.4094L299.572 82.7847L504.071 198.401L504.848 197.025L300.35 81.4094Z" fill="white"/>
<path d="M286.354 106.166L285.576 107.541L490.075 223.157L490.852 221.782L286.354 106.166Z" fill="white"/>
<path d="M272.358 130.922L271.58 132.297L476.079 247.913L476.856 246.538L272.358 130.922Z" fill="white"/>
<path d="M258.362 155.677L257.584 157.053L462.082 272.669L462.86 271.293L258.362 155.677Z" fill="white"/>
<path d="M244.365 180.434L243.588 181.809L448.086 297.425L448.864 296.05L244.365 180.434Z" fill="white"/>
<path d="M230.369 205.19L229.592 206.565L434.09 322.181L434.868 320.806L230.369 205.19Z" fill="white"/>
<path d="M216.373 229.945L215.596 231.321L420.094 346.937L420.872 345.561L216.373 229.945Z" fill="white"/>
<path d="M202.376 254.702L201.599 256.077L406.097 371.693L406.875 370.318L202.376 254.702Z" fill="white"/>
<path d="M188.38 279.458L187.603 280.833L392.101 396.449L392.879 395.074L188.38 279.458Z" fill="white"/>
<path d="M174.384 304.214L173.606 305.589L378.105 421.205L378.882 419.829L174.384 304.214Z" fill="white"/>
<path d="M348.763 394.232C347.59 394.231 346.437 393.926 345.416 393.347L151.92 283.951C150.347 283.059 149.193 281.58 148.709 279.838C148.225 278.096 148.452 276.233 149.34 274.658L301.743 5.09222C302.184 4.31249 302.773 3.62719 303.479 3.0755C304.184 2.52381 304.992 2.11652 305.855 1.87692C306.718 1.63732 307.619 1.5701 308.508 1.67909C309.397 1.78808 310.256 2.07117 311.035 2.51215L504.531 111.908C506.104 112.799 507.259 114.278 507.743 116.02C508.227 117.762 508 119.625 507.112 121.2L354.709 390.766C354.27 391.547 353.681 392.233 352.975 392.785C352.269 393.337 351.461 393.744 350.597 393.981C350 394.148 349.383 394.232 348.763 394.232Z" fill="#F2F2F2"/>
<path d="M296.346 15.6535L295.568 17.0288L500.067 132.645L500.844 131.269L296.346 15.6535Z" fill="white"/>
<path d="M282.35 40.4094L281.572 41.7847L486.071 157.401L486.848 156.025L282.35 40.4094Z" fill="white"/>
<path d="M268.354 65.1657L267.576 66.541L472.075 182.157L472.852 180.782L268.354 65.1657Z" fill="white"/>
<path d="M254.358 89.9216L253.58 91.2969L458.078 206.913L458.856 205.537L254.358 89.9216Z" fill="white"/>
<path d="M240.362 114.677L239.584 116.053L444.082 231.669L444.86 230.293L240.362 114.677Z" fill="white"/>
<path d="M269.778 139L269 140.375L473.498 255.991L474.276 254.616L269.778 139Z" fill="white"/>
<path d="M212.369 164.19L211.592 165.565L416.09 281.181L416.868 279.806L212.369 164.19Z" fill="white"/>
<path d="M198.373 188.945L197.596 190.321L402.094 305.937L402.872 304.561L198.373 188.945Z" fill="white"/>
<path d="M184.376 213.702L183.599 215.077L388.097 330.693L388.875 329.318L184.376 213.702Z" fill="white"/>
<path d="M170.38 238.458L169.603 239.833L374.101 355.449L374.879 354.074L170.38 238.458Z" fill="white"/>
<path d="M156.384 263.214L155.606 264.589L360.105 380.205L360.882 378.829L156.384 263.214Z" fill="white"/>
<path d="M329.48 0H20.2432V430H329.48C330.591 430 331.656 429.559 332.442 428.773C333.227 427.988 333.668 426.923 333.668 425.812V4.18831C333.668 3.07751 333.227 2.01222 332.442 1.22676C331.656 0.441306 330.591 2.38685e-05 329.48 0ZM37.6944 418.133C36.1758 418.133 34.6912 417.683 33.4285 416.839C32.1657 415.995 31.1815 414.796 30.6004 413.393C30.0192 411.99 29.8671 410.446 30.1634 408.957C30.4597 407.467 31.191 406.099 32.2649 405.025C33.3387 403.951 34.7069 403.22 36.1964 402.924C37.6859 402.627 39.2298 402.779 40.6329 403.36C42.036 403.942 43.2352 404.926 44.0789 406.189C44.9227 407.451 45.373 408.936 45.373 410.455C45.373 411.463 45.1744 412.461 44.7885 413.393C44.4026 414.325 43.837 415.171 43.124 415.884C42.411 416.597 41.5645 417.163 40.6329 417.549C39.7013 417.935 38.7028 418.133 37.6944 418.133ZM37.6944 379.042C36.1758 379.042 34.6912 378.592 33.4285 377.748C32.1657 376.904 31.1815 375.705 30.6004 374.302C30.0192 372.899 29.8671 371.355 30.1634 369.866C30.4597 368.376 31.191 367.008 32.2649 365.934C33.3387 364.86 34.7069 364.129 36.1964 363.833C37.6859 363.536 39.2298 363.688 40.6329 364.27C42.036 364.851 43.2352 365.835 44.0789 367.098C44.9227 368.36 45.373 369.845 45.373 371.364C45.373 372.372 45.1744 373.371 44.7885 374.302C44.4027 375.234 43.8371 376.08 43.124 376.793C42.411 377.506 41.5645 378.072 40.6329 378.458C39.7013 378.844 38.7028 379.042 37.6944 379.042ZM37.6944 339.951C36.1758 339.951 34.6912 339.501 33.4285 338.657C32.1657 337.813 31.1815 336.614 30.6004 335.211C30.0192 333.808 29.8671 332.264 30.1634 330.775C30.4597 329.285 31.191 327.917 32.2649 326.843C33.3387 325.769 34.7069 325.038 36.1964 324.742C37.6859 324.445 39.2298 324.597 40.6329 325.179C42.036 325.76 43.2352 326.744 44.0789 328.007C44.9227 329.27 45.373 330.754 45.373 332.273C45.373 333.281 45.1744 334.28 44.7885 335.211C44.4026 336.143 43.837 336.989 43.124 337.702C42.411 338.415 41.5645 338.981 40.6329 339.367C39.7013 339.753 38.7028 339.951 37.6944 339.951ZM37.6944 300.86C36.1758 300.86 34.6912 300.41 33.4285 299.566C32.1657 298.723 31.1815 297.523 30.6004 296.12C30.0192 294.717 29.8671 293.173 30.1634 291.684C30.4597 290.194 31.191 288.826 32.2649 287.752C33.3387 286.678 34.7069 285.947 36.1964 285.651C37.6859 285.355 39.2298 285.507 40.6329 286.088C42.036 286.669 43.2352 287.653 44.0789 288.916C44.9227 290.179 45.373 291.663 45.373 293.182C45.373 294.19 45.1744 295.189 44.7885 296.12C44.4026 297.052 43.837 297.898 43.124 298.611C42.411 299.324 41.5645 299.89 40.6329 300.276C39.7013 300.662 38.7028 300.86 37.6944 300.86ZM37.6944 261.77C36.1758 261.77 34.6912 261.319 33.4285 260.475C32.1657 259.632 31.1815 258.432 30.6004 257.029C30.0192 255.626 29.8671 254.082 30.1634 252.593C30.4597 251.103 31.191 249.735 32.2649 248.661C33.3387 247.587 34.7069 246.856 36.1964 246.56C37.6859 246.264 39.2298 246.416 40.6329 246.997C42.036 247.578 43.2352 248.562 44.0789 249.825C44.9227 251.088 45.373 252.572 45.373 254.091C45.373 255.099 45.1744 256.098 44.7885 257.029C44.4026 257.961 43.837 258.807 43.124 259.521C42.411 260.234 41.5645 260.799 40.6329 261.185C39.7013 261.571 38.7028 261.77 37.6944 261.77ZM37.6944 222.679C36.1758 222.679 34.6912 222.228 33.4285 221.384C32.1657 220.541 31.1815 219.342 30.6004 217.938C30.0192 216.535 29.8671 214.991 30.1634 213.502C30.4597 212.012 31.191 210.644 32.2649 209.57C33.3387 208.497 34.7069 207.765 36.1964 207.469C37.6859 207.173 39.2298 207.325 40.6329 207.906C42.036 208.487 43.2352 209.471 44.0789 210.734C44.9227 211.997 45.373 213.481 45.373 215C45.373 216.008 45.1744 217.007 44.7885 217.938C44.4026 218.87 43.837 219.717 43.124 220.43C42.411 221.143 41.5645 221.708 40.6329 222.094C39.7013 222.48 38.7028 222.679 37.6944 222.679ZM37.6944 183.588C36.1758 183.588 34.6912 183.137 33.4285 182.294C32.1657 181.45 31.1815 180.251 30.6004 178.848C30.0192 177.444 29.8671 175.901 30.1634 174.411C30.4597 172.922 31.191 171.553 32.2649 170.48C33.3387 169.406 34.7069 168.674 36.1964 168.378C37.6859 168.082 39.2298 168.234 40.6329 168.815C42.036 169.396 43.2352 170.38 44.0789 171.643C44.9227 172.906 45.373 174.39 45.373 175.909C45.373 176.917 45.1744 177.916 44.7885 178.848C44.4026 179.779 43.837 180.626 43.124 181.339C42.411 182.052 41.5645 182.617 40.6329 183.003C39.7013 183.389 38.7028 183.588 37.6944 183.588ZM37.6944 144.497C36.1758 144.497 34.6912 144.046 33.4285 143.203C32.1657 142.359 31.1815 141.16 30.6004 139.757C30.0192 138.354 29.8671 136.81 30.1634 135.32C30.4597 133.831 31.191 132.462 32.2649 131.389C33.3387 130.315 34.7069 129.583 36.1964 129.287C37.6859 128.991 39.2298 129.143 40.6329 129.724C42.036 130.305 43.2352 131.289 44.0789 132.552C44.9227 133.815 45.373 135.299 45.373 136.818C45.373 137.827 45.1744 138.825 44.7885 139.757C44.4026 140.688 43.837 141.535 43.124 142.248C42.411 142.961 41.5645 143.526 40.6329 143.912C39.7013 144.298 38.7028 144.497 37.6944 144.497ZM37.6944 105.406C36.1758 105.406 34.6912 104.956 33.4285 104.112C32.1657 103.268 31.1815 102.069 30.6004 100.666C30.0192 99.2627 29.8671 97.7187 30.1634 96.2292C30.4597 94.7398 31.191 93.3716 32.2649 92.2977C33.3387 91.2238 34.7069 90.4925 36.1964 90.1963C37.6859 89.9 39.2298 90.052 40.6329 90.6332C42.036 91.2144 43.2352 92.1986 44.0789 93.4613C44.9227 94.724 45.373 96.2086 45.373 97.7273C45.373 98.7356 45.1744 99.7341 44.7885 100.666C44.4026 101.597 43.837 102.444 43.124 103.157C42.411 103.87 41.5645 104.435 40.6329 104.821C39.7013 105.207 38.7028 105.406 37.6944 105.406ZM37.6944 66.3149C36.1758 66.3149 34.6912 65.8646 33.4285 65.0209C32.1657 64.1771 31.1815 62.9779 30.6004 61.5748C30.0192 60.1718 29.8671 58.6279 30.1634 57.1384C30.4597 55.6489 31.191 54.2807 32.2649 53.2068C33.3387 52.1329 34.7069 51.4016 36.1964 51.1053C37.6859 50.809 39.2298 50.9611 40.6329 51.5423C42.036 52.1234 43.2352 53.1076 44.0789 54.3704C44.9227 55.6331 45.373 57.1177 45.373 58.6364C45.373 59.6447 45.1744 60.6432 44.7885 61.5748C44.4026 62.5064 43.837 63.3529 43.124 64.0659C42.411 64.779 41.5645 65.3446 40.6329 65.7305C39.7013 66.1164 38.7028 66.3149 37.6944 66.3149ZM37.6944 27.224C36.1758 27.224 34.6912 26.7737 33.4285 25.93C32.1657 25.0862 31.1815 23.887 30.6004 22.4839C30.0192 21.0809 29.8671 19.5369 30.1634 18.0474C30.4597 16.5579 31.191 15.1898 32.2649 14.1159C33.3387 13.042 34.7069 12.3107 36.1964 12.0144C37.6859 11.7181 39.2298 11.8702 40.6329 12.4514C42.036 13.0325 43.2352 14.0167 44.0789 15.2795C44.9227 16.5422 45.373 18.0268 45.373 19.5455C45.373 20.5538 45.1744 21.5523 44.7885 22.4839C44.4026 23.4155 43.837 24.262 43.124 24.975C42.411 25.6881 41.5645 26.2537 40.6329 26.6395C39.7013 27.0254 38.7028 27.224 37.6944 27.224Z" fill="#2C4B24"/>
<path d="M20.2435 23.7339C18.1715 23.7339 0 23.6361 0 20.2437C0 16.8513 18.1715 16.7534 20.2435 16.7534V18.1495C9.54069 18.1495 2.60081 19.3476 1.48318 20.2437C2.60081 21.1398 9.54069 22.3378 20.2435 22.3378C30.9225 22.3378 37.8552 21.1448 38.9962 20.2498C38.4532 19.8664 36.235 19.0627 30.2855 18.5483L30.4057 17.1577C40.487 18.0289 40.487 19.638 40.487 20.2437C40.487 23.6361 22.3155 23.7339 20.2435 23.7339Z" fill="#2F2E41"/>
<path d="M20.2435 62.1265C18.1715 62.1265 0 62.0287 0 58.6362C0 55.2438 18.1715 55.146 20.2435 55.146V56.5421C9.54069 56.5421 2.60081 57.7402 1.48318 58.6363C2.60081 59.5324 9.54069 60.7304 20.2435 60.7304C30.9225 60.7304 37.8552 59.5374 38.9962 58.6424C38.4532 58.259 36.235 57.4553 30.2855 56.9409L30.4057 55.5503C40.487 56.4215 40.487 58.0306 40.487 58.6363C40.487 62.0287 22.3155 62.1265 20.2435 62.1265Z" fill="#2F2E41"/>
<path d="M20.2435 101.217C18.1715 101.217 0 101.119 0 97.7271C0 94.3346 18.1715 94.2368 20.2435 94.2368V95.6329C9.54069 95.6329 2.60081 96.831 1.48318 97.7271C2.60081 98.6231 9.54069 99.8212 20.2435 99.8212C30.9225 99.8212 37.8552 98.6282 38.9962 97.7332C38.4532 97.3498 36.235 96.546 30.2855 96.0317L30.4057 94.6411C40.487 95.5123 40.487 97.1214 40.487 97.7271C40.487 101.12 22.3155 101.217 20.2435 101.217Z" fill="#2F2E41"/>
<path d="M20.2435 140.309C18.1715 140.309 0 140.211 0 136.818C0 133.426 18.1715 133.328 20.2435 133.328V134.724C9.54069 134.724 2.60081 135.922 1.48318 136.818C2.60081 137.714 9.54069 138.913 20.2435 138.913C30.9225 138.913 37.8552 137.72 38.9962 136.825C38.4532 136.441 36.235 135.637 30.2855 135.123L30.4057 133.732C40.487 134.604 40.487 136.213 40.487 136.818C40.487 140.211 22.3155 140.309 20.2435 140.309Z" fill="#2F2E41"/>
<path d="M20.2435 179.399C18.1715 179.399 0 179.302 0 175.909C0 172.517 18.1715 172.419 20.2435 172.419V173.815C9.54069 173.815 2.60081 175.013 1.48318 175.909C2.60081 176.805 9.54069 178.003 20.2435 178.003C30.9225 178.003 37.8552 176.81 38.9962 175.915C38.4532 175.532 36.235 174.728 30.2855 174.214L30.4057 172.823C40.487 173.694 40.487 175.304 40.487 175.909C40.487 179.302 22.3155 179.399 20.2435 179.399Z" fill="#2F2E41"/>
<path d="M20.2435 218.49C18.1715 218.49 0 218.392 0 215C0 211.608 18.1715 211.51 20.2435 211.51V212.906C9.54069 212.906 2.60081 214.104 1.48318 215C2.60081 215.896 9.54069 217.094 20.2435 217.094C30.9225 217.094 37.8552 215.901 38.9962 215.006C38.4532 214.623 36.235 213.819 30.2855 213.305L30.4057 211.914C40.487 212.785 40.487 214.394 40.487 215C40.487 218.392 22.3155 218.49 20.2435 218.49Z" fill="#2F2E41"/>
<path d="M20.2435 257.581C18.1715 257.581 0 257.483 0 254.091C0 250.698 18.1715 250.601 20.2435 250.601V251.997C9.54069 251.997 2.60081 253.195 1.48318 254.091C2.60081 254.987 9.54069 256.185 20.2435 256.185C30.9225 256.185 37.8552 254.992 38.9962 254.097C38.4532 253.714 36.235 252.91 30.2855 252.396L30.4057 251.005C40.487 251.876 40.487 253.485 40.487 254.091C40.487 257.483 22.3155 257.581 20.2435 257.581Z" fill="#2F2E41"/>
<path d="M20.2435 296.672C18.1715 296.672 0 296.574 0 293.182C0 289.789 18.1715 289.691 20.2435 289.691V291.088C9.54069 291.088 2.60081 292.286 1.48318 293.182C2.60081 294.078 9.54069 295.276 20.2435 295.276C30.9225 295.276 37.8552 294.083 38.9962 293.188C38.4532 292.804 36.235 292.001 30.2855 291.486L30.4057 290.096C40.487 290.967 40.487 292.576 40.487 293.182C40.487 296.574 22.3155 296.672 20.2435 296.672Z" fill="#2F2E41"/>
<path d="M20.2435 335.763C18.1715 335.763 0 335.665 0 332.273C0 328.88 18.1715 328.782 20.2435 328.782V330.178C9.54069 330.178 2.60081 331.376 1.48318 332.273C2.60081 333.169 9.54069 334.367 20.2435 334.367C30.9225 334.367 37.8552 333.174 38.9962 332.279C38.4532 331.895 36.235 331.091 30.2855 330.577L30.4057 329.186C40.487 330.058 40.487 331.667 40.487 332.273C40.487 335.665 22.3155 335.763 20.2435 335.763Z" fill="#2F2E41"/>
<path d="M20.2435 374.854C18.1715 374.854 0 374.756 0 371.364C0 367.971 18.1715 367.874 20.2435 367.874V369.27C9.54069 369.27 2.60081 370.468 1.48318 371.364C2.60081 372.26 9.54069 373.458 20.2435 373.458C30.9225 373.458 37.8552 372.265 38.9962 371.37C38.4532 370.986 36.235 370.183 30.2855 369.668L30.4057 368.278C40.487 369.149 40.487 370.758 40.487 371.364C40.487 374.756 22.3155 374.854 20.2435 374.854Z" fill="#2F2E41"/>
<path d="M20.2435 413.945C18.1715 413.945 0 413.847 0 410.455C0 407.062 18.1715 406.964 20.2435 406.964V408.36C9.54069 408.36 2.60081 409.558 1.48318 410.455C2.60081 411.351 9.54069 412.549 20.2435 412.549C30.9225 412.549 37.8552 411.356 38.9962 410.461C38.4532 410.077 36.235 409.274 30.2855 408.759L30.4057 407.369C40.487 408.24 40.487 409.849 40.487 410.455C40.487 413.847 22.3155 413.945 20.2435 413.945Z" fill="#2F2E41"/>
<path d="M266.307 164.391H112.736C111.533 164.39 110.379 163.911 109.529 163.061C108.678 162.21 108.2 161.057 108.198 159.854V99.8215C108.2 98.6186 108.678 97.4653 109.529 96.6147C110.379 95.764 111.533 95.2856 112.736 95.2842H266.307C267.51 95.2855 268.663 95.764 269.514 96.6147C270.365 97.4653 270.843 98.6186 270.844 99.8215V159.854C270.843 161.057 270.365 162.21 269.514 163.061C268.663 163.912 267.51 164.39 266.307 164.391Z" fill="white"/>
<path d="M209.066 115.876H169.976C169.05 115.876 168.162 115.509 167.508 114.854C166.853 114.2 166.485 113.312 166.485 112.386C166.485 111.461 166.853 110.573 167.508 109.918C168.162 109.264 169.05 108.896 169.976 108.896H209.067C209.992 108.896 210.88 109.264 211.535 109.918C212.189 110.573 212.557 111.461 212.557 112.386C212.557 113.312 212.189 114.2 211.535 114.854C210.88 115.509 209.992 115.876 209.066 115.876Z" fill="#2BB828"/>
<path d="M230.706 133.328H148.336C147.41 133.328 146.523 132.96 145.868 132.305C145.213 131.651 144.846 130.763 144.846 129.837C144.846 128.912 145.213 128.024 145.868 127.369C146.523 126.715 147.41 126.347 148.336 126.347H230.706C231.632 126.347 232.52 126.715 233.174 127.369C233.829 128.024 234.196 128.912 234.196 129.837C234.196 130.763 233.829 131.651 233.174 132.305C232.52 132.96 231.632 133.328 230.706 133.328Z" fill="#2BB828"/>
<path d="M230.706 150.779H148.336C147.41 150.779 146.523 150.412 145.868 149.757C145.213 149.102 144.846 148.215 144.846 147.289C144.846 146.363 145.213 145.476 145.868 144.821C146.523 144.167 147.41 143.799 148.336 143.799H230.706C231.632 143.799 232.52 144.167 233.174 144.821C233.829 145.476 234.196 146.363 234.196 147.289C234.196 148.215 233.829 149.102 233.174 149.757C232.52 150.412 231.632 150.779 230.706 150.779Z" fill="#2BB828"/>
<path d="M629.629 144.93C631.81 144.93 633.947 144.315 635.793 143.154C637.64 141.993 639.121 140.334 640.066 138.368C641.01 136.403 641.381 134.21 641.134 132.043C640.887 129.876 640.033 127.823 638.67 126.12C632.968 118.994 620.484 120.085 615.49 112.446C611.258 105.972 615.166 97.082 620.802 91.7857C631.837 81.4173 649.5 78.8694 663.015 85.6968C676.529 92.5242 684.959 108.254 683.161 123.288C682.475 129.015 680.887 135.964 685.331 139.64C689.276 142.902 695.105 141.051 700.06 139.766C707.407 137.914 715.068 137.673 722.518 139.06C729.967 140.447 737.029 143.429 743.218 147.801C753.742 155.343 761.412 167.525 761.417 180.473C761.422 193.42 752.604 206.468 739.985 209.367C727.615 212.209 714.865 205.3 706.115 196.106C697.365 186.913 691.357 175.478 683.383 165.605C675.408 155.731 664.374 147.035 651.684 146.806C644.331 146.673 636.282 149.261 630.042 145.37" fill="#2F2E41"/>
<path d="M635.083 150.085C648.648 150.085 659.645 139.089 659.645 125.524C659.645 111.96 648.648 100.963 635.083 100.963C621.519 100.963 610.522 111.96 610.522 125.524C610.522 139.089 621.519 150.085 635.083 150.085Z" fill="#FFB8B8"/>
<path d="M582.838 288.458C582.405 287.053 582.285 285.57 582.487 284.114C582.689 282.658 583.208 281.264 584.007 280.03C584.806 278.796 585.866 277.752 587.112 276.972C588.358 276.192 589.76 275.695 591.219 275.515L598.721 240.577L611.732 253.826L602.613 284.973C602.752 287.444 601.98 289.881 600.443 291.821C598.906 293.761 596.711 295.069 594.273 295.499C591.836 295.929 589.325 295.449 587.218 294.151C585.11 292.854 583.552 290.828 582.838 288.458Z" fill="#FFB8B8"/>
<path d="M708.994 440.209L696.945 442.469L660.62 323.16L686.404 319.823L708.994 440.209Z" fill="#FFB8B8"/>
<path d="M687.689 440.644L710.928 436.284L713.673 450.915L675.803 458.02C675.442 456.099 675.464 454.125 675.866 452.212C676.268 450.299 677.043 448.484 678.147 446.87C679.251 445.257 680.662 443.876 682.299 442.808C683.936 441.739 685.768 441.004 687.689 440.644Z" fill="#2F2E41"/>
<path d="M630.033 446.634L617.774 446.633L615.941 336.146L642.035 336.147L630.033 446.634Z" fill="#FFB8B8"/>
<path d="M609.017 443.13H632.661V458.017H594.13C594.13 456.062 594.515 454.126 595.263 452.32C596.011 450.514 597.108 448.873 598.49 447.491C599.873 446.108 601.514 445.012 603.32 444.264C605.126 443.515 607.062 443.13 609.017 443.13Z" fill="#2F2E41"/>
<path d="M610.3 351.183L611.426 297.186C611.34 296.426 602.483 214.619 599.183 193.716C595.829 172.474 613.159 161.583 613.334 161.475C614.11 161.157 614.811 160.888 615.512 160.63C623.709 157.528 632.616 156.809 641.205 158.554C649.794 160.299 657.714 164.439 664.051 170.494C670.612 176.548 675.355 184.311 677.747 192.912C680.14 201.512 680.087 210.61 677.595 219.182L671.481 240.346C702.8 296.966 709.226 321.331 709.288 321.571L709.307 321.644L709.303 321.72C708.18 344.175 614.819 350.871 610.846 351.146L610.3 351.183Z" fill="#2BB828"/>
<path d="M603.017 183.616L581.859 267.131L619.72 271.585L603.017 183.616Z" fill="#2BB828"/>
<path d="M654.163 252.647C654.422 251.2 654.995 249.827 655.842 248.626C656.688 247.424 657.788 246.422 659.064 245.692C660.34 244.961 661.76 244.519 663.225 244.397C664.69 244.275 666.164 244.475 667.543 244.984L690.223 217.369L695.715 235.108L673.336 258.612C672.327 260.872 670.524 262.684 668.269 263.704C666.014 264.724 663.463 264.881 661.1 264.145C658.737 263.41 656.725 261.834 655.447 259.714C654.168 257.595 653.711 255.081 654.163 252.647Z" fill="#FFB8B8"/>
<path d="M683.782 252.715L664.041 239.943L682.83 220.049L631.885 204.543L644.992 166.359L661.116 168.663L702.104 199.023C707.315 202.913 710.793 208.692 711.789 215.118C712.786 221.544 711.222 228.105 707.434 233.391L707.345 233.485L683.782 252.715Z" fill="#2BB828"/>
<path d="M612.968 111.565C623.537 118.016 635.452 121.942 647.785 123.037L644.115 118.639C646.788 119.628 649.6 120.186 652.447 120.294C655.29 120.25 658.27 119.155 659.884 116.813C660.603 115.649 661.031 114.328 661.13 112.963C661.229 111.598 660.996 110.229 660.452 108.973C659.333 106.469 657.592 104.292 655.395 102.65C651.5 99.5689 646.903 97.4991 642.014 96.6253C637.125 95.7516 632.095 96.1009 627.374 97.6423C624.135 98.6101 621.235 100.471 619.005 103.011C616.89 105.62 612.276 107.967 613.359 111.147L612.968 111.565Z" fill="#2F2E41"/>
<path d="M793.044 458.829H488.75C488.434 458.829 488.132 458.703 487.908 458.48C487.685 458.257 487.56 457.954 487.56 457.638C487.56 457.322 487.685 457.019 487.908 456.796C488.132 456.573 488.434 456.447 488.75 456.447H793.044C793.359 456.448 793.661 456.574 793.884 456.797C794.107 457.02 794.232 457.323 794.232 457.638C794.232 457.953 794.107 458.255 793.884 458.479C793.661 458.702 793.359 458.828 793.044 458.829Z" fill="#3F3D56"/>
</g>
<defs>
<clipPath id="clip0_3305_9185">
<rect width="794.235" height="458.828" fill="white"/>
</clipPath>
</defs>
</svg>
