<svg width="892" height="501" viewBox="0 0 892 501" fill="none" xmlns="http://www.w3.org/2000/svg">
<g clip-path="url(#clip0_3305_9128)">
<path d="M831.58 471.597C831.338 480.616 829.827 489.557 827.092 498.154C827.031 498.354 826.964 498.55 826.898 498.75H810.15C810.167 498.571 810.186 498.371 810.203 498.154C811.32 485.316 804.94 408.112 797.242 394.75C797.917 395.834 832.879 430.805 831.58 471.597Z" fill="#F1F1F1"/>
<path d="M830.323 498.154C830.183 498.354 830.037 498.554 829.888 498.75H817.323C817.418 498.58 817.529 498.381 817.657 498.154C819.732 494.408 825.876 483.208 831.579 471.597C837.705 459.12 843.33 446.169 842.856 441.481C843.003 442.538 847.244 474.766 830.323 498.154Z" fill="#F1F1F1"/>
<path d="M46.3504 478.584C46.5299 485.282 47.6521 491.922 49.6839 498.308C49.7289 498.456 49.7789 498.602 49.8276 498.75H62.2664C62.2534 498.617 62.2399 498.469 62.2268 498.308C61.3975 488.773 66.1355 431.434 71.8529 421.51C71.3519 422.315 45.386 448.288 46.3504 478.584Z" fill="#F1F1F1"/>
<path d="M47.2834 498.308C47.3875 498.456 47.4956 498.604 47.6064 498.75H56.9383C56.8676 498.624 56.7856 498.476 56.6906 498.308C55.1491 495.526 50.5863 487.207 46.351 478.584C41.8012 469.317 37.6236 459.698 37.9754 456.217C37.8663 457.002 34.7167 480.937 47.2834 498.308Z" fill="#F1F1F1"/>
<path d="M654.047 351.25C560.1 311.436 475.105 312.949 395.047 337.25C271.694 315.707 187.228 319.04 133.047 351.25V251.25H654.047V351.25Z" fill="#CBCBCB"/>
<path d="M654.047 323.75C567.495 284.533 481.047 282.001 393.297 323.75C303.419 297.872 216.533 298.142 132.547 323.75V19.75C221.841 -6.90096 308.701 -6.26052 393.297 19.75C482.658 -6.17068 569.653 -6.99276 654.047 19.75V323.75Z" fill="#E5E5E5"/>
<path d="M156.002 57.4758L153.091 50.0242C154.232 49.5784 181.498 39.0373 221.514 33.6604C258.51 28.6882 313.63 27.5012 366.127 50.0749L362.967 57.4246C312.225 35.6062 258.736 36.7551 222.797 41.5598C183.681 46.7908 156.274 57.3694 156.002 57.4758Z" fill="white"/>
<path d="M156.002 85.476L153.091 78.0243C154.232 77.5785 181.498 67.0375 221.514 61.6606C258.51 56.6889 313.63 55.5018 366.127 78.0751L362.967 85.4247C312.225 63.6064 258.736 64.7543 222.797 69.56C183.681 74.7909 156.274 85.3696 156.002 85.476Z" fill="white"/>
<path d="M156.002 113.476L153.091 106.024C154.232 105.578 181.498 95.0374 221.514 89.6604C258.51 84.6882 313.63 83.5012 366.127 106.075L362.967 113.425C312.225 91.6062 258.736 92.7541 222.797 97.5598C183.681 102.791 156.274 113.369 156.002 113.476Z" fill="white"/>
<path d="M156.002 141.476L153.091 134.024C154.232 133.579 181.498 123.038 221.514 117.661C258.51 112.689 313.63 111.501 366.127 134.075L362.967 141.425C312.225 119.606 258.736 120.755 222.797 125.56C183.681 130.791 156.274 141.37 156.002 141.476Z" fill="white"/>
<path d="M156.002 169.476L153.091 162.024C154.232 161.578 181.498 151.037 221.514 145.66C258.51 140.688 313.63 139.501 366.127 162.075L362.967 169.425C312.225 147.606 258.736 148.755 222.797 153.56C183.681 158.791 156.274 169.369 156.002 169.476Z" fill="white"/>
<path d="M156.002 197.476L153.091 190.024C154.232 189.578 181.498 179.037 221.514 173.66C258.51 168.689 313.63 167.501 366.127 190.075L362.967 197.425C312.225 175.606 258.736 176.755 222.797 181.56C183.681 186.791 156.274 197.369 156.002 197.476Z" fill="white"/>
<path d="M417.002 256.476L414.091 249.024C415.232 248.578 442.498 238.037 482.514 232.66C519.51 227.689 574.63 226.501 627.127 249.075L623.967 256.425C573.225 234.606 519.736 235.755 483.797 240.56C444.681 245.791 417.274 256.369 417.002 256.476Z" fill="#2BB828"/>
<path d="M414.547 202.739V49.8091L417.354 48.9321C488.498 26.709 559.296 26.7134 627.782 48.9453L630.547 49.8428V202.535L625.135 200.492C553.865 173.594 484.874 173.578 420.079 200.445L414.547 202.739ZM520.11 172.289C553.595 172.289 587.741 178.53 622.547 191.014V55.6699C557.433 35.1353 490.17 35.1465 422.547 55.7026V190.828C453.618 178.587 486.714 172.298 520.11 172.289Z" fill="white"/>
<path d="M622.713 252.514L623.761 227.063L659.707 155.593C660.72 153.561 662.373 151.918 664.411 150.917C665.659 150.294 667.018 149.927 668.41 149.836C669.801 149.745 671.197 149.932 672.515 150.387C674.042 150.914 675.426 151.786 676.561 152.936C677.695 154.085 678.549 155.481 679.055 157.015C679.272 157.677 679.424 158.359 679.51 159.05C679.766 161.103 679.403 163.184 678.468 165.029L642.473 236.595L622.713 252.514Z" fill="#2BB828"/>
<path d="M668.887 150.315L629.868 227.895L626.893 226.399L664.632 151.365C665.954 150.703 667.408 150.345 668.887 150.315Z" fill="#3F3D56"/>
<path d="M679.014 159.114L641.482 233.737L638.507 232.24L677.446 154.821C677.925 155.552 678.306 156.342 678.58 157.172C678.787 157.804 678.932 158.454 679.014 159.114Z" fill="#3F3D56"/>
<path d="M675.278 152.454L635.827 230.892L632.852 229.396L672.352 150.86C672.773 151.004 673.183 151.177 673.581 151.377C674.18 151.679 674.749 152.04 675.278 152.454Z" fill="#3F3D56"/>
<path d="M627.226 248.237L623.256 251.434L623.589 243.005C624.952 243.478 626.427 245.53 627.226 248.237Z" fill="#3F3D56"/>
<path d="M235.674 340.104L230.922 325.688L235.985 278.287C236.124 276.941 236.701 275.678 237.628 274.692C238.193 274.083 238.875 273.593 239.632 273.251C240.389 272.908 241.207 272.72 242.037 272.698C242.999 272.671 243.954 272.867 244.828 273.271C245.702 273.674 246.471 274.274 247.075 275.023C247.334 275.347 247.562 275.695 247.755 276.063C248.328 277.154 248.562 278.391 248.428 279.616L243.358 327.081L235.674 340.104Z" fill="#2BB828"/>
<path d="M239.999 273.418L234.503 324.872L232.53 324.662L237.846 274.896C238.445 274.25 239.18 273.745 239.999 273.418Z" fill="#3F3D56"/>
<path d="M247.492 276.202L242.206 325.695L240.232 325.484L245.717 274.137C246.137 274.444 246.516 274.805 246.843 275.21C247.09 275.519 247.308 275.852 247.492 276.202Z" fill="#3F3D56"/>
<path d="M244.011 273.272L238.455 325.294L236.481 325.084L242.045 272.996C242.31 272.988 242.575 272.998 242.839 273.027C243.237 273.069 243.629 273.152 244.011 273.272Z" fill="#3F3D56"/>
<path d="M237.295 336.772L235.751 339.388L234.169 334.617C235.028 334.595 236.282 335.43 237.295 336.772Z" fill="#3F3D56"/>
<path d="M750.44 323.199C749.898 324.146 749.176 324.976 748.313 325.644C747.451 326.312 746.465 326.803 745.413 327.089C743.287 327.669 741.019 327.38 739.107 326.286C737.195 325.193 735.795 323.385 735.216 321.259C734.637 319.134 734.926 316.866 736.02 314.954C736.038 314.921 736.057 314.889 736.076 314.857C736.308 314.468 736.569 314.097 736.858 313.747L729.872 263.952L729.663 262.46L728.243 252.299L728.034 250.834L728.807 250.87L742.343 251.489L745.973 251.653L746.428 260.922L749.002 313.038C750.347 314.324 751.22 316.026 751.481 317.869C751.742 319.712 751.375 321.589 750.44 323.199Z" fill="#FFB8B8"/>
<path d="M729.703 262.911L746.891 261.334C747.783 261.25 748.604 260.817 749.178 260.129C749.751 259.441 750.029 258.554 749.951 257.662L746.767 221.919C746.46 218.477 744.798 215.297 742.146 213.08C739.494 210.863 736.071 209.79 732.628 210.098C729.185 210.405 726.006 212.067 723.789 214.719C721.572 217.37 720.499 220.794 720.807 224.237C720.829 224.483 720.858 224.728 720.893 224.973L726.048 260.032C726.166 260.835 726.569 261.569 727.183 262.1C727.797 262.631 728.582 262.924 729.393 262.926C729.497 262.927 729.6 262.922 729.703 262.911Z" fill="#CBCBCB"/>
<path d="M742.731 234.035C744.469 229.111 744.55 223.753 742.96 218.779C741.37 213.804 738.198 209.486 733.926 206.483C727.444 202.048 718.575 200.456 709.023 211.827C697.465 225.709 689.221 242.041 684.917 259.585L724.033 265.953C724.033 265.953 737.335 249.692 742.731 234.035Z" fill="#CBCBCB"/>
<path d="M679.466 490.205H668.313L663.008 447.188H679.467L679.466 490.205Z" fill="#FFB8B8"/>
<path d="M646.808 500.56H681.858V487.018H660.35C656.758 487.018 653.314 488.445 650.774 490.984C648.234 493.524 646.808 496.969 646.808 500.56Z" fill="#2F2E41"/>
<path d="M771.155 480.478L760.567 483.979L742.027 444.801L757.656 439.635L771.155 480.478Z" fill="#FFB8B8"/>
<path d="M743.395 500.56L776.675 489.56L772.425 476.702L752.003 483.452C748.593 484.579 745.77 487.015 744.156 490.223C742.542 493.432 742.268 497.15 743.395 500.56Z" fill="#2F2E41"/>
<path d="M718.176 195.204C730.515 195.204 740.518 185.201 740.518 172.861C740.518 160.522 730.515 150.519 718.176 150.519C705.836 150.519 695.833 160.522 695.833 172.861C695.833 185.201 705.836 195.204 718.176 195.204Z" fill="#FFB8B8"/>
<path d="M698.614 478.231L708.97 409.874C709.081 409.144 709.441 408.476 709.99 407.982C710.539 407.489 711.242 407.202 711.979 407.17C712.716 407.138 713.442 407.362 714.031 407.806C714.621 408.249 715.039 408.884 715.212 409.601L730.984 474.744C731.233 475.742 731.845 476.612 732.702 477.181C733.558 477.751 734.596 477.98 735.613 477.824L779.118 470.832C779.695 470.739 780.245 470.524 780.732 470.201C781.219 469.878 781.631 469.455 781.941 468.959C782.251 468.464 782.451 467.908 782.527 467.329C782.604 466.749 782.556 466.16 782.387 465.601L725.658 278.572C725.497 278.04 725.478 277.476 725.603 276.934L727.491 268.747C727.699 267.86 727.603 266.928 727.219 266.102C726.836 265.275 726.186 264.601 725.374 264.186C717.649 260.245 698.084 252.05 683.319 261.026C682.84 261.318 682.425 261.705 682.1 262.163C681.775 262.621 681.546 263.14 681.428 263.689L637.112 471.977C636.992 472.544 636.993 473.129 637.115 473.695C637.237 474.261 637.479 474.795 637.823 475.26C638.166 475.726 638.605 476.114 639.11 476.398C639.615 476.682 640.174 476.855 640.751 476.907L694.201 481.693C694.322 481.704 694.443 481.71 694.565 481.71C695.543 481.708 696.489 481.356 697.231 480.718C697.973 480.08 698.463 479.198 698.611 478.23L698.614 478.231Z" fill="#2F2E41"/>
<path d="M732.991 157.076C731.307 156.063 729.813 154.763 728.575 153.237C727.964 152.465 727.562 151.55 727.407 150.578C727.253 149.606 727.351 148.611 727.693 147.688C728.821 145.197 732.175 144.413 734.775 145.258C737.375 146.103 739.383 148.144 741.282 150.109C742.955 151.838 744.676 153.65 745.467 155.923C746.257 158.196 745.852 161.079 743.878 162.459C741.941 163.813 739.155 163.259 737.292 161.805C735.533 160.216 734.13 158.272 733.176 156.101L732.991 157.076Z" fill="#2F2E41"/>
<path d="M740.559 150.71C740.682 144.415 747.858 139.9 754.055 141.016C760.253 142.132 765.016 147.416 767.4 153.243C772.438 165.556 768.657 179.605 763.803 191.995C758.949 204.386 752.941 216.956 753.65 230.241C754.129 237.421 756.539 244.339 760.624 250.263C764.709 256.188 770.319 260.899 776.86 263.899C769.867 267.069 761.507 263.794 755.629 258.852C742.577 247.877 737.539 228.336 743.657 212.418C746.674 204.567 751.992 197.85 756.144 190.535C760.296 183.22 763.342 174.6 761.198 166.466C759.054 158.333 749.932 151.748 742.133 154.895L740.559 150.71Z" fill="#2F2E41"/>
<path d="M716.836 182.776C718.783 179.485 720.747 175.164 717.189 172.286C716.415 171.689 715.529 171.253 714.584 171.003C713.639 170.753 712.653 170.695 711.685 170.831C707.672 171.315 703.301 171.514 699.415 170.056C697.958 169.554 696.617 168.765 695.47 167.735C694.324 166.705 693.397 165.456 692.743 164.06C690.742 159.308 693.249 153.533 697.441 150.53C700.006 148.759 703.037 147.785 706.154 147.73C709.27 147.674 712.334 148.541 714.96 150.22C720.391 147.821 726.979 148.888 731.914 152.19C736.848 155.492 740.223 160.78 742.057 166.426C743.747 171.286 744.038 176.523 742.897 181.541C741.979 185.031 740.234 188.249 737.808 190.921C735.383 193.594 732.349 195.643 728.964 196.895C727.646 197.415 726.214 197.58 724.812 197.372C723.41 197.164 722.087 196.592 720.976 195.712C719.169 194.092 717.782 192.059 716.933 189.787C716.192 187.297 715.796 184.534 716.836 182.776Z" fill="#2F2E41"/>
<path d="M650.555 202.712C650.667 203.203 650.739 203.702 650.773 204.204L689.85 226.747L699.348 221.279L709.473 234.535L693.599 245.85C692.317 246.764 690.772 247.238 689.197 247.199C687.623 247.161 686.103 246.613 684.866 245.637L644.568 213.847C642.749 214.521 640.768 214.625 638.888 214.145C637.008 213.666 635.319 212.625 634.046 211.162C632.772 209.699 631.974 207.883 631.758 205.955C631.542 204.027 631.918 202.079 632.836 200.37C633.754 198.661 635.17 197.273 636.897 196.388C638.624 195.504 640.579 195.167 642.502 195.421C644.425 195.675 646.225 196.509 647.663 197.812C649.1 199.114 650.107 200.823 650.55 202.712L650.555 202.712Z" fill="#FFB8B8"/>
<path d="M691.157 227.816L703.787 244.184C704.147 244.65 704.602 245.032 705.122 245.305C705.642 245.579 706.216 245.737 706.802 245.769C707.389 245.801 707.976 245.707 708.523 245.492C709.071 245.277 709.565 244.947 709.973 244.524L724.27 229.677C725.473 228.787 726.488 227.669 727.258 226.386C728.028 225.103 728.537 223.681 728.756 222.201C728.975 220.722 728.9 219.213 728.535 217.762C728.17 216.311 727.523 214.947 726.629 213.747C725.736 212.547 724.615 211.535 723.33 210.769C722.045 210.003 720.622 209.498 719.141 209.283C717.661 209.068 716.153 209.147 714.703 209.516C713.253 209.885 711.89 210.536 710.693 211.433C710.569 211.525 710.447 211.619 710.328 211.716L692.396 221.743C691.883 222.03 691.437 222.424 691.09 222.899C690.743 223.374 690.503 223.918 690.385 224.495C690.267 225.071 690.275 225.666 690.407 226.239C690.54 226.812 690.795 227.35 691.154 227.816H691.157Z" fill="#CBCBCB"/>
<path d="M208.552 488.809L220.675 488.808L226.443 442.047L208.55 442.048L208.552 488.809Z" fill="#A0616A"/>
<path d="M205.459 484.851L229.334 484.85H229.335C233.37 484.85 237.24 486.453 240.094 489.306C242.947 492.16 244.55 496.029 244.55 500.065V500.559L205.46 500.56L205.459 484.851Z" fill="#2F2E41"/>
<path d="M114.156 483.561L126.143 485.373L138.836 439.999L123.121 437.325L114.156 483.561Z" fill="#A0616A"/>
<path d="M111.69 479.185L135.297 482.753C139.286 483.357 142.874 485.52 145.269 488.768C147.664 492.016 148.67 496.082 148.067 500.072L147.993 500.561L109.342 494.718L111.69 479.185Z" fill="#2F2E41"/>
<path d="M151.535 257.07L164.996 260.597L164.101 282.421L163.99 322.155C165.316 323.072 166.332 324.37 166.904 325.878C167.477 327.385 167.578 329.031 167.195 330.597C166.811 332.164 165.961 333.576 164.758 334.649C163.554 335.722 162.053 336.404 160.453 336.605C158.853 336.806 157.23 336.517 155.798 335.775C154.366 335.033 153.193 333.875 152.434 332.452C151.675 331.029 151.366 329.41 151.548 327.808C151.729 326.205 152.393 324.696 153.451 323.479L149.314 283.599L151.535 257.07Z" fill="#A0616A"/>
<path d="M149.192 232.073C149.266 229.964 149.946 227.921 151.151 226.188C152.355 224.455 154.034 223.106 155.985 222.301C157.811 221.484 159.836 221.218 161.812 221.536C163.787 221.853 165.627 222.741 167.105 224.09C168.167 225.039 169.01 226.208 169.574 227.517C170.137 228.825 170.409 230.24 170.37 231.664C170.405 244.449 167.519 263.084 167.49 263.27L167.444 263.567L147.769 270.193L149.192 232.073Z" fill="#CBCBCB"/>
<path d="M184.372 268.365L214.466 260.575L228.376 307.425L228.871 481.959L205.858 481.815L196.238 340.552L134.929 471.082L110.207 468.115L164.1 328.191C164.1 328.191 161.134 303.469 170.528 291.108L168.55 278.253L184.372 268.365Z" fill="#2F2E41"/>
<path d="M164.081 280.021C163.66 279.509 163.355 278.913 163.185 278.273C163.015 277.633 162.985 276.964 163.097 276.311L149.37 235.131C148.729 233.206 148.661 231.136 149.174 229.173C149.687 227.21 150.759 225.438 152.26 224.073L158.219 218.656L162.257 202.503L185.467 208.176L183.555 215.826L194.059 213.916L216.184 263.194L169.937 281.679L167.66 281.714C166.975 281.716 166.298 281.564 165.679 281.271C165.06 280.978 164.514 280.551 164.081 280.021Z" fill="#CBCBCB"/>
<path d="M196.296 245.251L209.557 241.036L220.466 259.959L241.612 293.6C243.223 293.666 244.776 294.22 246.065 295.188C247.355 296.156 248.32 297.493 248.833 299.021C249.346 300.55 249.383 302.198 248.939 303.749C248.495 305.299 247.591 306.678 246.346 307.703C245.102 308.728 243.575 309.351 241.969 309.489C240.362 309.628 238.751 309.276 237.35 308.479C235.948 307.682 234.821 306.479 234.118 305.028C233.415 303.576 233.169 301.946 233.413 300.352L208.6 268.859L196.296 245.251Z" fill="#A0616A"/>
<path d="M180.954 225.376C179.889 223.554 179.372 221.464 179.464 219.356C179.555 217.247 180.252 215.21 181.471 213.488C182.578 211.821 184.148 210.514 185.987 209.727C187.826 208.94 189.855 208.706 191.825 209.055C193.231 209.289 194.568 209.828 195.744 210.632C196.919 211.436 197.906 212.487 198.634 213.712C205.497 224.497 213.019 241.79 213.094 241.963L213.213 242.238L200.127 258.354L180.954 225.376Z" fill="#CBCBCB"/>
<path d="M179.43 199.497C189.614 199.497 197.871 191.241 197.871 181.056C197.871 170.871 189.614 162.615 179.43 162.615C169.245 162.615 160.988 170.871 160.988 181.056C160.988 191.241 169.245 199.497 179.43 199.497Z" fill="#A0616A"/>
<path d="M146.84 173.277C156.65 173.277 164.603 165.324 164.603 155.514C164.603 145.703 156.65 137.75 146.84 137.75C137.029 137.75 129.076 145.703 129.076 155.514C129.076 165.324 137.029 173.277 146.84 173.277Z" fill="#2F2E41"/>
<path d="M131.517 170.223C133.816 171.885 136.48 172.972 139.285 173.393C142.091 173.814 144.956 173.557 147.642 172.644C150.328 171.731 152.756 170.188 154.723 168.144C156.69 166.1 158.139 163.614 158.949 160.896C158.643 163.332 157.834 165.679 156.575 167.787C155.316 169.895 153.634 171.72 151.634 173.145C149.634 174.57 147.361 175.566 144.957 176.068C142.553 176.57 140.072 176.569 137.669 176.064C135.265 175.559 132.993 174.561 130.995 173.133C128.997 171.705 127.317 169.879 126.06 167.769C124.804 165.659 123.998 163.311 123.695 160.875C123.391 158.438 123.596 155.964 124.297 153.611C123.899 156.773 124.359 159.984 125.63 162.907C126.9 165.83 128.934 168.357 131.517 170.223Z" fill="#2F2E41"/>
<path d="M201.621 170.243C198.52 164.691 197.333 162.372 193.334 158.996C189.799 156.01 185.449 155.133 181.941 157.962C177.792 156.169 173.174 155.763 168.775 156.803C164.375 157.843 160.429 160.275 157.521 163.737C154.614 167.199 152.901 171.506 152.637 176.019C152.372 180.532 153.571 185.01 156.054 188.787C158.537 192.565 162.172 195.441 166.42 196.988C170.668 198.535 175.301 198.67 179.632 197.374C183.963 196.078 187.76 193.419 190.46 189.793C193.16 186.167 194.618 181.767 194.617 177.246C194.614 176.452 194.566 175.659 194.474 174.871C197.523 174.442 198.571 170.671 201.621 170.243Z" fill="#2F2E41"/>
<path d="M382 500.75H1C0.734784 500.75 0.480429 500.645 0.292892 500.457C0.105356 500.27 0 500.015 0 499.75C0 499.485 0.105356 499.23 0.292892 499.043C0.480429 498.855 0.734784 498.75 1 498.75H382C382.265 498.75 382.52 498.855 382.707 499.043C382.895 499.23 383 499.485 383 499.75C383 500.015 382.895 500.27 382.707 500.457C382.52 500.645 382.265 500.75 382 500.75Z" fill="#CBCBCB"/>
<path d="M891 500.75H510C509.735 500.75 509.48 500.645 509.293 500.457C509.105 500.27 509 500.015 509 499.75C509 499.485 509.105 499.23 509.293 499.043C509.48 498.855 509.735 498.75 510 498.75H891C891.265 498.75 891.52 498.855 891.707 499.043C891.895 499.23 892 499.485 892 499.75C892 500.015 891.895 500.27 891.707 500.457C891.52 500.645 891.265 500.75 891 500.75Z" fill="#CBCBCB"/>
<path d="M394.297 19.75H392.297V322.788H394.297V19.75Z" fill="#CBCBCB"/>
</g>
<defs>
<clipPath id="clip0_3305_9128">
<rect width="892" height="500.75" fill="white"/>
</clipPath>
</defs>
</svg>
