<svg width="1024" height="1024" viewBox="0 0 1024 1024" fill="none" xmlns="http://www.w3.org/2000/svg">
<rect width="1024" height="1024" fill="url(#paint0_linear_1326_95)"/>
<g filter="url(#filter0_d_1326_95)">
<rect x="169" y="270" width="380" height="480" rx="50" fill="url(#paint1_linear_1326_95)" fill-opacity="0.9" shape-rendering="crispEdges"/>
</g>
<g filter="url(#filter1_d_1326_95)">
<rect x="475" y="267" width="380" height="480" rx="50" fill="url(#paint2_linear_1326_95)" fill-opacity="0.9" shape-rendering="crispEdges"/>
</g>
<g filter="url(#filter2_d_1326_95)">
<rect x="366" y="222" width="445" height="570" rx="70" fill="url(#paint3_linear_1326_95)" fill-opacity="0.8" shape-rendering="crispEdges"/>
</g>
<g filter="url(#filter3_d_1326_95)">
<rect x="211" y="224" width="445" height="570" rx="70" fill="url(#paint4_linear_1326_95)" fill-opacity="0.8" shape-rendering="crispEdges"/>
</g>
<g filter="url(#filter4_d_1326_95)">
<rect x="256" y="187" width="510" height="650" rx="80" fill="url(#paint5_linear_1326_95)" fill-opacity="0.7" shape-rendering="crispEdges"/>
</g>
<g filter="url(#filter5_d_1326_95)">
<path d="M361.643 464.612C351.605 464.612 345.521 458.853 345.521 449.154C345.521 447.032 346.129 442.789 347.65 439.152L392.367 315.792C396.929 303.062 404.23 297 416.397 297C429.477 297 437.082 303.062 441.644 315.792L486.361 439.152C487.577 443.092 488.186 447.032 488.186 449.154C488.186 458.853 482.407 464.612 472.063 464.612C464.155 464.612 458.984 460.065 456.245 450.064L445.295 420.057H388.107L377.766 450.064C375.027 460.368 369.856 464.612 361.643 464.612ZM395.104 394.899H438.603L417.614 331.25H415.789L395.104 394.899ZM553.282 349.436C542.028 349.436 534.118 341.252 534.118 330.643C534.118 320.339 542.028 312.155 553.282 312.155H658.227C668.874 312.155 677.088 320.339 677.088 330.643C677.088 341.252 668.874 349.436 658.227 349.436H553.282ZM553.282 455.216C542.028 455.216 534.118 447.032 534.118 436.424C534.118 426.119 542.028 417.935 553.282 417.935H658.227C668.874 417.935 677.088 426.119 677.088 436.424C677.088 447.032 668.874 455.216 658.227 455.216H553.282ZM344 718V570.089C344 543.417 359.209 529.777 385.066 529.777H637.239C664.007 529.777 678 543.417 678 570.089V714.968H644.539L583.701 645.257C578.226 638.892 570.317 636.467 562.713 636.467C555.716 636.467 548.415 639.195 541.418 645.257L479.06 700.42L454.117 677.688C448.337 672.535 441.644 670.11 435.561 670.11C429.477 670.11 423.393 672.232 417.614 677.688L377.461 718H344ZM456.55 645.257C474.497 645.257 489.403 630.101 489.403 612.523C489.403 594.337 474.497 580.394 456.55 579.788C438.299 579.181 423.698 594.337 423.698 612.523C423.698 630.101 438.299 645.257 456.55 645.257Z" fill="url(#paint6_linear_1326_95)"/>
</g>
<g filter="url(#filter6_i_1326_95)">
<path d="M361.643 464.612C351.605 464.612 345.521 458.853 345.521 449.154C345.521 447.032 346.129 442.789 347.65 439.152L392.367 315.792C396.929 303.062 404.23 297 416.397 297C429.477 297 437.082 303.062 441.644 315.792L486.361 439.152C487.577 443.092 488.186 447.032 488.186 449.154C488.186 458.853 482.407 464.612 472.063 464.612C464.155 464.612 458.984 460.065 456.245 450.064L445.295 420.057H388.107L377.766 450.064C375.027 460.368 369.856 464.612 361.643 464.612ZM395.104 394.899H438.603L417.614 331.25H415.789L395.104 394.899ZM553.282 349.436C542.028 349.436 534.118 341.252 534.118 330.643C534.118 320.339 542.028 312.155 553.282 312.155H658.227C668.874 312.155 677.088 320.339 677.088 330.643C677.088 341.252 668.874 349.436 658.227 349.436H553.282ZM553.282 455.216C542.028 455.216 534.118 447.032 534.118 436.424C534.118 426.119 542.028 417.935 553.282 417.935H658.227C668.874 417.935 677.088 426.119 677.088 436.424C677.088 447.032 668.874 455.216 658.227 455.216H553.282ZM344 718V570.089C344 543.417 359.209 529.777 385.066 529.777H637.239C664.007 529.777 678 543.417 678 570.089V714.968H644.539L583.701 645.257C578.226 638.892 570.317 636.467 562.713 636.467C555.716 636.467 548.415 639.195 541.418 645.257L479.06 700.42L454.117 677.688C448.337 672.535 441.644 670.11 435.561 670.11C429.477 670.11 423.393 672.232 417.614 677.688L377.461 718H344ZM456.55 645.257C474.497 645.257 489.403 630.101 489.403 612.523C489.403 594.337 474.497 580.394 456.55 579.788C438.299 579.181 423.698 594.337 423.698 612.523C423.698 630.101 438.299 645.257 456.55 645.257Z" fill="url(#paint7_linear_1326_95)"/>
</g>
<defs>
<filter id="filter0_d_1326_95" x="153.9" y="263.9" width="410.2" height="510.2" filterUnits="userSpaceOnUse" color-interpolation-filters="sRGB">
<feFlood flood-opacity="0" result="BackgroundImageFix"/>
<feColorMatrix in="SourceAlpha" type="matrix" values="0 0 0 0 0 0 0 0 0 0 0 0 0 0 0 0 0 0 127 0" result="hardAlpha"/>
<feOffset dy="9"/>
<feGaussianBlur stdDeviation="7.55"/>
<feComposite in2="hardAlpha" operator="out"/>
<feColorMatrix type="matrix" values="0 0 0 0 0 0 0 0 0 0 0 0 0 0 0 0 0 0 0.25 0"/>
<feBlend mode="normal" in2="BackgroundImageFix" result="effect1_dropShadow_1326_95"/>
<feBlend mode="normal" in="BackgroundImageFix" in2="effect1_dropShadow_1326_95" result="BackgroundImageFix"/>
<feBlend mode="normal" in="SourceGraphic" in2="BackgroundImageFix" result="shape"/>
</filter>
<filter id="filter1_d_1326_95" x="459.9" y="260.9" width="410.2" height="510.2" filterUnits="userSpaceOnUse" color-interpolation-filters="sRGB">
<feFlood flood-opacity="0" result="BackgroundImageFix"/>
<feColorMatrix in="SourceAlpha" type="matrix" values="0 0 0 0 0 0 0 0 0 0 0 0 0 0 0 0 0 0 127 0" result="hardAlpha"/>
<feOffset dy="9"/>
<feGaussianBlur stdDeviation="7.55"/>
<feComposite in2="hardAlpha" operator="out"/>
<feColorMatrix type="matrix" values="0 0 0 0 0 0 0 0 0 0 0 0 0 0 0 0 0 0 0.25 0"/>
<feBlend mode="normal" in2="BackgroundImageFix" result="effect1_dropShadow_1326_95"/>
<feBlend mode="normal" in="BackgroundImageFix" in2="effect1_dropShadow_1326_95" result="BackgroundImageFix"/>
<feBlend mode="normal" in="SourceGraphic" in2="BackgroundImageFix" result="shape"/>
</filter>
<filter id="filter2_d_1326_95" x="350.9" y="215.9" width="475.2" height="600.2" filterUnits="userSpaceOnUse" color-interpolation-filters="sRGB">
<feFlood flood-opacity="0" result="BackgroundImageFix"/>
<feColorMatrix in="SourceAlpha" type="matrix" values="0 0 0 0 0 0 0 0 0 0 0 0 0 0 0 0 0 0 127 0" result="hardAlpha"/>
<feOffset dy="9"/>
<feGaussianBlur stdDeviation="7.55"/>
<feComposite in2="hardAlpha" operator="out"/>
<feColorMatrix type="matrix" values="0 0 0 0 0 0 0 0 0 0 0 0 0 0 0 0 0 0 0.25 0"/>
<feBlend mode="normal" in2="BackgroundImageFix" result="effect1_dropShadow_1326_95"/>
<feBlend mode="normal" in="BackgroundImageFix" in2="effect1_dropShadow_1326_95" result="BackgroundImageFix"/>
<feBlend mode="normal" in="SourceGraphic" in2="BackgroundImageFix" result="shape"/>
</filter>
<filter id="filter3_d_1326_95" x="195.9" y="217.9" width="475.2" height="600.2" filterUnits="userSpaceOnUse" color-interpolation-filters="sRGB">
<feFlood flood-opacity="0" result="BackgroundImageFix"/>
<feColorMatrix in="SourceAlpha" type="matrix" values="0 0 0 0 0 0 0 0 0 0 0 0 0 0 0 0 0 0 127 0" result="hardAlpha"/>
<feOffset dy="9"/>
<feGaussianBlur stdDeviation="7.55"/>
<feComposite in2="hardAlpha" operator="out"/>
<feColorMatrix type="matrix" values="0 0 0 0 0 0 0 0 0 0 0 0 0 0 0 0 0 0 0.25 0"/>
<feBlend mode="normal" in2="BackgroundImageFix" result="effect1_dropShadow_1326_95"/>
<feBlend mode="normal" in="BackgroundImageFix" in2="effect1_dropShadow_1326_95" result="BackgroundImageFix"/>
<feBlend mode="normal" in="SourceGraphic" in2="BackgroundImageFix" result="shape"/>
</filter>
<filter id="filter4_d_1326_95" x="240.9" y="180.9" width="540.2" height="680.2" filterUnits="userSpaceOnUse" color-interpolation-filters="sRGB">
<feFlood flood-opacity="0" result="BackgroundImageFix"/>
<feColorMatrix in="SourceAlpha" type="matrix" values="0 0 0 0 0 0 0 0 0 0 0 0 0 0 0 0 0 0 127 0" result="hardAlpha"/>
<feOffset dy="9"/>
<feGaussianBlur stdDeviation="7.55"/>
<feComposite in2="hardAlpha" operator="out"/>
<feColorMatrix type="matrix" values="0 0 0 0 0 0 0 0 0 0 0 0 0 0 0 0 0 0 0.25 0"/>
<feBlend mode="normal" in2="BackgroundImageFix" result="effect1_dropShadow_1326_95"/>
<feBlend mode="normal" in="BackgroundImageFix" in2="effect1_dropShadow_1326_95" result="BackgroundImageFix"/>
<feBlend mode="normal" in="SourceGraphic" in2="BackgroundImageFix" result="shape"/>
</filter>
<filter id="filter5_d_1326_95" x="340" y="297" width="342" height="429" filterUnits="userSpaceOnUse" color-interpolation-filters="sRGB">
<feFlood flood-opacity="0" result="BackgroundImageFix"/>
<feColorMatrix in="SourceAlpha" type="matrix" values="0 0 0 0 0 0 0 0 0 0 0 0 0 0 0 0 0 0 127 0" result="hardAlpha"/>
<feOffset dy="4"/>
<feGaussianBlur stdDeviation="2"/>
<feComposite in2="hardAlpha" operator="out"/>
<feColorMatrix type="matrix" values="0 0 0 0 0 0 0 0 0 0 0 0 0 0 0 0 0 0 0.25 0"/>
<feBlend mode="normal" in2="BackgroundImageFix" result="effect1_dropShadow_1326_95"/>
<feBlend mode="normal" in="SourceGraphic" in2="effect1_dropShadow_1326_95" result="shape"/>
</filter>
<filter id="filter6_i_1326_95" x="344" y="297" width="334" height="425" filterUnits="userSpaceOnUse" color-interpolation-filters="sRGB">
<feFlood flood-opacity="0" result="BackgroundImageFix"/>
<feBlend mode="normal" in="SourceGraphic" in2="BackgroundImageFix" result="shape"/>
<feColorMatrix in="SourceAlpha" type="matrix" values="0 0 0 0 0 0 0 0 0 0 0 0 0 0 0 0 0 0 127 0" result="hardAlpha"/>
<feOffset dy="4"/>
<feGaussianBlur stdDeviation="2"/>
<feComposite in2="hardAlpha" operator="arithmetic" k2="-1" k3="1"/>
<feColorMatrix type="matrix" values="0 0 0 0 0 0 0 0 0 0 0 0 0 0 0 0 0 0 0.25 0"/>
<feBlend mode="normal" in2="shape" result="effect1_innerShadow_1326_95"/>
</filter>
<linearGradient id="paint0_linear_1326_95" x1="512" y1="0" x2="512" y2="1024" gradientUnits="userSpaceOnUse">
<stop stop-color="#434343"/>
<stop offset="1"/>
</linearGradient>
<linearGradient id="paint1_linear_1326_95" x1="359" y1="270" x2="359" y2="750" gradientUnits="userSpaceOnUse">
<stop stop-color="#06B9FA"/>
<stop offset="1" stop-color="#0179FF"/>
</linearGradient>
<linearGradient id="paint2_linear_1326_95" x1="665" y1="267" x2="665" y2="747" gradientUnits="userSpaceOnUse">
<stop stop-color="#06B9FA"/>
<stop offset="1" stop-color="#0179FF"/>
</linearGradient>
<linearGradient id="paint3_linear_1326_95" x1="588.5" y1="222" x2="588.5" y2="792" gradientUnits="userSpaceOnUse">
<stop stop-color="#06B9FA"/>
<stop offset="1" stop-color="#0179FF"/>
</linearGradient>
<linearGradient id="paint4_linear_1326_95" x1="433.5" y1="224" x2="433.5" y2="794" gradientUnits="userSpaceOnUse">
<stop stop-color="#06B9FA"/>
<stop offset="1" stop-color="#0179FF"/>
</linearGradient>
<linearGradient id="paint5_linear_1326_95" x1="511" y1="187" x2="511" y2="837" gradientUnits="userSpaceOnUse">
<stop stop-color="#06B9FA"/>
<stop offset="1" stop-color="#0179FF"/>
</linearGradient>
<linearGradient id="paint6_linear_1326_95" x1="511" y1="297" x2="511" y2="718" gradientUnits="userSpaceOnUse">
<stop stop-color="#404040"/>
<stop offset="1" stop-color="#020202"/>
</linearGradient>
<linearGradient id="paint7_linear_1326_95" x1="511" y1="297" x2="511" y2="718" gradientUnits="userSpaceOnUse">
<stop stop-color="#404040"/>
<stop offset="1" stop-color="#020202"/>
</linearGradient>
</defs>
</svg>
