<svg width="683" height="539" viewBox="0 0 683 539" fill="none" xmlns="http://www.w3.org/2000/svg">
<g clip-path="url(#clip0_3416_263)">
<path d="M188.862 526.385L201.044 525.001L201.509 477.358L183.53 479.399L188.862 526.385Z" fill="#FFB8B8"/>
<path d="M225.82 533.647L187.535 537.992L185.856 523.2L209.35 520.534C213.273 520.089 217.212 521.22 220.301 523.679C223.389 526.139 225.375 529.724 225.82 533.647Z" fill="#2F2E41"/>
<path d="M63.5821 525.623H75.8421L81.6741 478.334L63.5801 478.336L63.5821 525.623Z" fill="#FFB8B8"/>
<path d="M99.4865 537.006L60.9557 537.008L60.9551 522.121L84.5989 522.12C88.5472 522.119 92.3338 523.688 95.1257 526.479C97.9177 529.271 99.4863 533.058 99.4865 537.006Z" fill="#2F2E41"/>
<path d="M151.543 314.156L158.543 336.925L196.543 419.156L206.543 497.156L183.543 498.156L169.543 426.156L121.543 374.156L79.5435 510.156L60.5435 508.156C60.5435 508.156 76.5435 332.156 98.5435 314.156C98.5435 314.156 134.543 297.156 151.543 314.156Z" fill="#2F2E41"/>
<path d="M120.492 215.91C134.057 215.91 145.053 204.913 145.053 191.349C145.053 177.784 134.057 166.788 120.492 166.788C106.928 166.788 95.9312 177.784 95.9312 191.349C95.9312 204.913 106.928 215.91 120.492 215.91Z" fill="#FFB8B8"/>
<path d="M154.043 318.656C154.043 318.656 157.043 216.656 115.043 223.656C73.0434 230.656 90.5434 329.156 90.5434 329.156C90.5434 329.156 99.5434 347.156 121.543 327.156C143.543 307.156 154.043 318.656 154.043 318.656Z" fill="#008E00"/>
<path opacity="0.2" d="M96.0439 266.656L105.927 304.539L120.984 319.597L100.044 312.656L96.0439 266.656Z" fill="black"/>
<path d="M154.354 361.794C152.972 361.293 151.716 360.495 150.676 359.456C149.636 358.417 148.836 357.163 148.333 355.782C147.83 354.4 147.635 352.925 147.764 351.461C147.893 349.997 148.341 348.578 149.077 347.305L125.718 320.262L144.132 317.865L163.491 343.914C165.547 345.292 167.026 347.376 167.647 349.772C168.269 352.168 167.99 354.708 166.864 356.912C165.738 359.116 163.842 360.83 161.536 361.73C159.231 362.63 156.675 362.652 154.354 361.794Z" fill="#FFB8B8"/>
<path d="M125.914 244.431L128.544 296.155L159.544 336.155L146.544 346.155L104.544 304.155C104.544 304.155 89.5436 253.155 100.544 238.155C104.669 232.53 109.216 230.984 113.288 231.247C116.638 231.526 119.771 233.021 122.097 235.449C124.422 237.877 125.78 241.072 125.914 244.431Z" fill="#008E00"/>
<path d="M117.571 217.156C117.688 217.051 117.78 216.92 117.837 216.773C117.895 216.627 117.918 216.469 117.904 216.312C117.89 216.155 117.84 216.003 117.757 215.869C117.675 215.735 117.562 215.622 117.428 215.539C115.247 214.189 113.47 212.275 112.284 210.001C111.097 207.726 110.546 205.174 110.686 202.612C110.827 200.051 111.655 197.574 113.084 195.443C114.512 193.312 116.488 191.605 118.804 190.502C126.025 187.059 135.81 189.737 141.148 183.121C142.234 181.706 143.001 180.073 143.399 178.334C143.796 176.595 143.814 174.791 143.451 173.044C142.299 166.795 137.601 162.155 132.341 158.975C125.878 155.068 118.45 153.049 110.899 153.147C103.348 153.246 95.9758 155.457 89.617 159.53C83.2583 163.604 78.1675 169.377 74.9216 176.195C71.6756 183.014 70.4042 190.605 71.2515 198.109C71.9306 204.123 73.7863 210.867 70.2102 215.75C67.0629 220.047 61.1221 220.853 55.9035 221.921C44.7104 224.211 33.9118 229.495 26.316 238.029C18.7201 246.563 14.6679 258.537 16.9581 269.73C19.2483 280.923 28.4361 290.76 39.7287 292.495C48.9203 293.908 58.4114 290.004 65.1612 283.607C71.9111 277.21 76.1776 268.572 78.8687 259.67C82.0629 249.105 83.3228 237.72 89.0895 228.308C94.7327 219.099 106.893 212.497 116.424 217.293C116.607 217.388 116.814 217.426 117.019 217.402C117.224 217.377 117.416 217.292 117.571 217.156Z" fill="#2F2E41"/>
<path d="M308 538.251H1C0.734784 538.251 0.480414 538.146 0.292877 537.958C0.105341 537.771 0 537.516 0 537.251C0 536.986 0.105341 536.731 0.292877 536.544C0.480414 536.356 0.734784 536.251 1 536.251H308C308.265 536.251 308.52 536.356 308.707 536.544C308.895 536.731 309 536.986 309 537.251C309 537.516 308.895 537.771 308.707 537.958C308.52 538.146 308.265 538.251 308 538.251Z" fill="#3F3D56"/>
<path d="M618.129 197.78C618.074 226.106 607.424 253.387 588.274 274.259C569.124 295.131 542.858 308.085 514.642 310.573C486.425 313.062 458.298 304.905 435.79 287.707C413.282 270.509 398.022 245.513 393.01 217.634C387.997 189.754 393.595 161.009 408.702 137.047C423.809 113.086 447.334 95.6426 474.65 88.1465C501.967 80.6504 531.099 83.6438 556.32 96.5383C581.542 109.433 601.027 131.295 610.946 157.828C611.193 158.494 611.435 159.161 611.669 159.833V159.84C612.717 162.797 613.639 165.809 614.436 168.876C616.896 178.313 618.137 188.027 618.129 197.78Z" fill="#1C3F63"/>
<path d="M491.413 120.717C486.28 117.941 480.581 116.375 474.75 116.136C468.92 115.897 463.112 116.994 457.769 119.341C453.065 121.388 448.112 125.06 446.542 131.692C452.889 127.947 461.105 133.865 462.738 143.358L462.357 143.463C461.494 150.039 463.42 157.198 467.148 161.276C467.425 159.436 468.109 157.681 469.149 156.138C470.189 154.596 471.56 153.304 473.161 152.357C475.9 150.557 478.93 149.249 481.021 146.154C483.5 142.485 484.129 137.122 485.114 132.23C486.098 127.338 487.966 122.08 491.413 120.717Z" fill="#008E00"/>
<path d="M455.887 176.674C454.129 179.314 451.781 180.97 449.674 183.033C447.242 185.245 445.647 188.228 445.156 191.479C444.89 193.776 445.302 196.111 445.245 198.433C445.188 200.756 444.414 203.37 442.834 203.948C440.34 204.849 438.436 200.216 435.873 199.893C433.836 199.639 432.002 202.844 432.592 205.623C433.182 208.402 435.955 209.633 437.548 207.818C438.988 210.236 437.973 214.621 435.809 215.363C435.581 216.886 435.352 218.403 435.13 219.926C429.66 216.099 424.134 212.21 419.482 206.606C414.309 200.428 411.101 192.844 410.268 184.829C409.666 178.388 410.56 171.021 407.604 166.065C405.237 162.099 401.175 161.223 397.52 161.471C396.854 161.515 396.182 161.591 395.515 161.674C397.671 155.2 400.408 148.934 403.694 142.954C404.438 142.635 405.129 142.205 405.744 141.679C409.145 138.792 410.656 132.947 413.416 128.905C413.594 128.645 413.778 128.391 413.968 128.144C416.792 124.457 420.574 122.56 424.229 120.796C432.319 116.868 440.644 112.889 449.186 113.435L446.755 113.669C443.919 121.614 441.08 129.559 438.24 137.503C437.808 138.722 437.372 139.942 436.932 141.165C435.321 145.683 433.658 150.493 433.906 155.55C434.052 158.545 435.092 161.743 437.072 162.771C438.919 163.723 440.936 162.556 442.719 161.401C443.475 160.918 444.223 160.436 444.978 159.948C447.688 158.203 450.689 156.413 453.551 157.581C456.172 158.647 458.107 162.207 458.475 166.046C458.813 169.777 457.902 173.516 455.887 176.674Z" fill="#008E00"/>
<path d="M472.002 230.914C464.088 226.042 456.174 221.17 448.261 216.297L448.395 215.951C443.475 217.825 441.432 226.571 442.245 233.724C443.059 240.876 445.816 247.27 447.209 254.239C449.087 263.776 448.378 273.642 445.156 282.812C455.561 271.136 464.77 258.447 472.645 244.933C473.745 243.23 474.583 241.372 475.131 239.42C475.712 237.34 475.505 235.118 474.55 233.181C473.902 232.226 473.026 231.447 472.002 230.914Z" fill="#008E00"/>
<path d="M440.77 142.27C439.841 144.266 439.697 146.538 440.369 148.634C441.15 150.323 442.566 151.635 444.31 152.284L448.682 154.451C450.137 155.172 451.705 155.901 453.188 155.307C454.976 154.592 456.216 151.788 455.896 149.185C455.554 146.415 453.808 144.509 452.193 142.886C449.933 140.616 447.673 138.345 445.413 136.074L444.14 137.634C442.762 138.978 441.623 140.546 440.77 142.27Z" fill="#008E00"/>
<path d="M594.689 171.884C596.656 172.347 598.623 172.81 600.59 173.273C600.248 179.917 596.954 186.066 592.538 188.293C590.698 189.22 588.648 189.562 587.125 191.295C585.748 192.868 585.05 195.318 584.409 197.659C583.286 201.746 582.163 205.832 581.04 209.919C579.834 214.323 578.286 219.215 575.151 220.802C572.46 222.166 569.383 220.497 567.314 217.699C565.246 214.9 563.983 211.137 562.758 207.47C562.834 211.467 560.975 215.389 558.342 216.778C555.702 218.168 552.491 216.912 550.727 213.809C549.458 211.581 548.931 208.643 547.687 206.384C546.444 204.125 543.836 202.831 542.478 204.95C541.583 206.359 541.697 208.517 541.253 210.306C541.029 211.494 540.441 212.583 539.57 213.421C538.699 214.259 537.588 214.805 536.392 214.983C535.293 214.958 534.21 214.709 533.21 214.252C532.209 213.795 531.312 213.139 530.574 212.324C526.688 208.349 524.158 203.247 523.346 197.748C522.795 195.112 522.865 192.383 523.549 189.778C524.33 187.31 526.214 185.406 528.086 185.876C529.317 183.274 526.887 179.822 524.698 180.127C522.502 180.431 520.782 182.785 518.98 184.594C517.184 186.402 514.672 187.716 512.863 185.92C512.904 186.577 512.681 187.223 512.246 187.716C511.81 188.209 511.196 188.509 510.539 188.549C510.474 188.553 510.409 188.555 510.344 188.554C509.141 188.208 508.024 187.616 507.063 186.815C502.92 184.232 497.659 185.946 494.715 190.832C496.555 183.001 499.252 174.016 504.906 172.176C507.216 171.42 509.735 172.042 511.918 170.735C515.782 168.419 516.563 159.668 513.225 156.058C513.65 159.472 513.568 163.457 511.765 165.792C509.963 168.127 506.181 166.604 506.41 163.152C506.358 163.638 506.155 164.095 505.828 164.457C505.501 164.82 505.068 165.07 504.59 165.171C504.113 165.273 503.615 165.22 503.169 165.022C502.723 164.823 502.352 164.489 502.107 164.066C500.908 162.239 501.01 159.25 501.86 157.067C502.737 155.09 503.994 153.305 505.559 151.813C508.574 148.583 511.632 145.315 515.122 143.284C518.619 141.254 522.654 140.569 526.157 142.586C528.004 143.652 529.628 145.429 531.513 146.368C531.956 146.643 532.448 146.828 532.963 146.912C533.477 146.997 534.003 146.979 534.51 146.86C535.018 146.741 535.497 146.524 535.92 146.22C536.344 145.916 536.703 145.531 536.978 145.089C536.999 145.054 537.02 145.02 537.04 144.985C538.442 142.523 537.782 138.868 538.303 135.79C539.235 130.352 544.673 127.808 547.688 131.399C545.435 130.822 543.106 133.487 542.827 136.717C542.541 139.947 544.172 143.208 546.355 144.185C550.023 145.81 553.614 141.723 556.387 137.941C559.281 133.982 562.179 130.024 565.081 126.069C565.544 125.396 566.064 124.763 566.635 124.178C567.544 123.292 568.756 122.785 570.025 122.759C571.294 122.733 572.525 123.19 573.469 124.038C576.401 126.431 577.778 131.336 580.183 134.712C583.673 139.617 588.896 140.81 593.756 141.762C597.379 142.466 601.005 143.174 604.633 143.887C607.051 148.386 609.16 153.044 610.946 157.828C604.294 160.862 598.652 165.74 594.689 171.884Z" fill="#008E00"/>
<path d="M606.403 248.234C603.684 253.754 600.522 259.044 596.948 264.053C594.664 263.076 592.208 264.821 590.069 266.458C587.836 268.171 585.152 269.84 582.861 268.279C580.519 266.68 579.764 262.207 580.507 258.659C581.36 255.387 582.852 252.316 584.898 249.623C586.801 246.78 588.838 243.83 591.484 242.726C594.137 241.621 597.544 243.182 598.319 246.952L600.197 246.888C599.143 245.441 599.696 242.446 601.111 241.92C602.741 241.304 604.157 243.544 605.121 245.524C605.553 246.419 605.99 247.32 606.403 248.234Z" fill="#008E00"/>
<path d="M534.466 221.43C530.429 221.684 527.231 216.714 525.106 211.825C522.981 206.935 521.042 201.344 517.399 198.855C515.317 197.433 512.944 197.238 510.687 196.549C509.406 196.225 508.221 195.601 507.23 194.729C506.238 193.856 505.469 192.759 504.986 191.53L502.425 190.496C498.843 192.286 495.562 194.626 492.702 197.429C489.433 200.901 487.397 205.352 486.908 210.095C486.419 215.221 488.226 220.937 491.601 222.863C494.268 224.384 497.374 223.425 500.075 224.818C503.451 226.559 505.455 231.614 506.213 236.606C506.972 241.598 506.78 246.785 507.322 251.834C507.865 256.882 509.361 262.135 512.456 264.722C516.33 267.959 522.014 265.269 523.752 259.376C524.605 256.485 524.575 253.223 525.213 250.223C526.336 244.938 529.366 241.018 531.769 236.683C534.172 232.348 536.064 226.461 534.466 221.43Z" fill="#008E00"/>
<path d="M494.572 169.504C494.949 169.85 495.3 170.223 495.624 170.62C495.958 171.197 496.129 171.855 496.118 172.522C496.107 173.189 495.913 173.841 495.559 174.406C496.045 174.379 496.521 174.25 496.955 174.03C497.389 173.809 497.773 173.501 498.082 173.124C498.819 172.285 499.467 171.372 500.016 170.399C500.274 170.066 500.459 169.682 500.557 169.272C500.655 168.863 500.665 168.437 500.586 168.023C500.396 167.478 499.945 167.246 499.629 166.837C499.19 166.036 498.891 165.168 498.744 164.267C498.568 163.423 498.161 162.645 497.568 162.019C496.974 161.394 496.218 160.946 495.385 160.727L495.587 160.766C495.243 160.97 494.971 161.277 494.81 161.644C494.648 162.01 494.606 162.418 494.688 162.81C494.811 163.602 495.32 164.259 495.269 165.067C495.196 166.228 494.036 166.773 493.964 167.935C493.953 168.517 494.171 169.081 494.572 169.504Z" fill="#008E00"/>
<path d="M487.655 149.769L487.673 149.765C487.797 149.652 487.913 149.53 488.018 149.398L487.655 149.769Z" fill="#6C63FF"/>
<path d="M488.866 155.22C489.351 154.795 489.709 154.244 489.903 153.628C490.096 153.013 490.116 152.356 489.962 151.73C489.669 150.409 488.631 149.522 487.673 149.765C487.395 150.047 487.051 150.253 486.671 150.365C486.292 150.477 485.89 150.49 485.504 150.404C484.912 150.252 484.262 149.859 483.749 150.305C483.455 150.638 483.25 151.04 483.151 151.473C482.961 152.056 482.771 152.639 482.581 153.222C482.491 153.431 482.467 153.663 482.513 153.886C482.55 153.975 482.609 154.053 482.684 154.113C482.759 154.173 482.849 154.213 482.944 154.228L486.365 155.236C486.757 155.417 487.185 155.51 487.617 155.507C488.049 155.504 488.476 155.406 488.866 155.22Z" fill="#008E00"/>
<path d="M574.938 230.477C574.411 229.614 573.884 228.752 573.357 227.889C572.839 226.889 572.131 226.001 571.273 225.273C570.898 224.958 570.413 224.806 569.925 224.849C569.438 224.892 568.987 225.127 568.673 225.502L568.645 225.536L568.709 226.029C570.12 227.542 571.082 229.418 571.486 231.447C571.606 232.329 571.565 233.242 571.67 234.127C571.681 234.538 571.773 234.942 571.94 235.318C572.108 235.693 572.348 236.031 572.646 236.313C573.476 236.868 574.451 236.05 575.041 235.053C575.569 234.234 575.806 233.26 575.714 232.29C575.582 231.639 575.318 231.022 574.938 230.477Z" fill="#008E00"/>
<path d="M583.205 231.601C583.306 230.793 583.24 229.973 583.012 229.191C582.975 228.134 583.255 227.09 583.817 226.193C584.375 225.348 584.799 224.42 585.071 223.444C585.186 223 585.165 222.531 585.011 222.098C584.837 221.706 584.414 221.527 584.172 221.838L584.69 222.172C583.99 222.047 583.27 222.082 582.585 222.274C582.195 222.423 581.846 222.665 581.568 222.978C581.29 223.291 581.092 223.666 580.99 224.072C580.904 224.705 580.764 225.329 580.572 225.938C580.262 226.574 579.663 226.785 579.287 227.343C579.03 227.838 578.901 228.389 578.91 228.947C578.919 229.504 579.067 230.05 579.34 230.536C579.813 231.331 580.564 231.922 581.448 232.194C582.081 232.421 582.915 232.433 583.205 231.601Z" fill="#008E00"/>
<path d="M597.928 236.043C598.157 236.638 598.464 237.201 598.841 237.717C599.545 238.427 600.503 237.991 601.358 237.818C602.134 237.696 602.929 237.785 603.658 238.078C604.387 238.37 605.024 238.854 605.5 239.479C605.168 237.825 604.444 236.275 603.39 234.959C602.335 233.643 600.979 232.599 599.437 231.915C597.433 231.222 595.322 230.892 593.202 230.94L592.84 231.033C593.763 233.719 596.66 233.659 597.928 236.043Z" fill="#008E00"/>
<path d="M535.57 241.536L535.576 241.548L535.681 241.345L535.57 241.536Z" fill="#6C63FF"/>
<path d="M533.337 245.859C532.85 246.744 532.431 247.664 532.084 248.612C531.624 250.148 531.32 251.726 531.176 253.322C531.062 254.23 531.027 255.389 531.596 255.831C531.759 255.94 531.957 255.985 532.151 255.959C532.345 255.932 532.523 255.836 532.651 255.688C532.967 255.354 533.226 254.97 533.416 254.551C534.534 252.626 535.402 250.566 535.999 248.422C536.622 246.147 536.473 243.729 535.576 241.548C534.83 242.985 534.083 244.422 533.337 245.859Z" fill="#008E00"/>
<path d="M511.79 130.678C512.145 131.025 512.593 131.26 513.08 131.355C513.567 131.45 514.071 131.401 514.53 131.213C515.481 130.797 516.353 130.221 517.109 129.51C517.735 129.047 518.265 128.468 518.672 127.804C518.896 127.408 519.04 126.971 519.095 126.519C519.15 126.067 519.115 125.608 518.992 125.17C518.817 124.75 518.538 124.381 518.181 124.099C517.824 123.816 517.401 123.63 516.952 123.556C515.687 123.181 514.421 122.806 513.156 122.431L514.071 121.605C513.129 121.1 512.087 122.038 511.499 123.2C511.121 123.958 510.858 124.768 510.718 125.604C510.517 126.477 510.51 127.383 510.695 128.259C510.88 129.135 511.254 129.961 511.79 130.678Z" fill="#008E00"/>
<path d="M534.132 123.177C534.489 123.571 534.982 123.813 535.511 123.856C536.04 123.899 536.566 123.74 536.981 123.409C537.339 123.141 537.636 122.8 537.853 122.409C538.07 122.017 538.203 121.585 538.242 121.139C538.331 120.144 537.839 119.038 537.136 118.952L537.297 118.019C535.943 117.775 534.276 117.726 533.551 119.37C533.306 120 533.231 120.683 533.333 121.352C533.435 122.02 533.71 122.649 534.132 123.177Z" fill="#008E00"/>
<path d="M442.072 190.222C446.737 190.222 450.519 185.15 450.519 178.894C450.519 172.638 446.737 167.567 442.072 167.567C437.407 167.567 433.625 172.638 433.625 178.894C433.625 185.15 437.407 190.222 442.072 190.222Z" fill="#E6E6E6"/>
<path d="M596.441 330.486C600.474 329.412 603.138 326.267 602.391 323.462C601.644 320.656 597.769 319.253 593.736 320.327C589.703 321.401 587.039 324.546 587.786 327.351C588.534 330.157 592.409 331.56 596.441 330.486Z" fill="#7C957C"/>
<path d="M547.047 331.399C551.08 330.325 553.743 327.18 552.996 324.375C552.249 321.569 548.374 320.166 544.341 321.24C540.308 322.314 537.645 325.459 538.392 328.264C539.139 331.07 543.014 332.473 547.047 331.399Z" fill="#7C957C"/>
<path d="M605.216 289.389C609.249 288.315 611.912 285.17 611.165 282.365C610.418 279.559 606.543 278.156 602.51 279.23C598.477 280.304 595.814 283.449 596.561 286.254C597.308 289.06 601.183 290.463 605.216 289.389Z" fill="#7C957C"/>
<path d="M619.785 271.919C621.606 271.694 622.819 269.389 622.494 266.771C622.17 264.154 620.43 262.215 618.61 262.44C616.789 262.666 615.576 264.971 615.9 267.589C616.225 270.206 617.964 272.145 619.785 271.919Z" fill="#7C957C"/>
<path d="M623.473 240.914C625.294 240.688 626.507 238.383 626.183 235.766C625.858 233.148 624.119 231.209 622.298 231.435C620.477 231.661 619.264 233.966 619.589 236.583C619.913 239.201 621.652 241.14 623.473 240.914Z" fill="#7C957C"/>
<path d="M573.681 300.518C575.502 300.292 576.715 297.987 576.391 295.37C576.066 292.752 574.327 290.813 572.506 291.039C570.685 291.265 569.472 293.57 569.797 296.187C570.121 298.805 571.86 300.744 573.681 300.518Z" fill="#7C957C"/>
<path d="M598.655 309.557C600.476 309.331 601.689 307.026 601.364 304.409C601.04 301.791 599.301 299.852 597.48 300.078C595.659 300.304 594.446 302.609 594.77 305.226C595.095 307.844 596.834 309.783 598.655 309.557Z" fill="#7C957C"/>
<path d="M568.332 335.16C570.153 334.934 571.366 332.629 571.042 330.011C570.717 327.394 568.978 325.455 567.157 325.681C565.336 325.906 564.123 328.211 564.447 330.829C564.772 333.446 566.511 335.385 568.332 335.16Z" fill="#7C957C"/>
<path d="M350.912 289.005C354.944 287.931 357.608 284.786 356.861 281.98C356.114 279.175 352.239 277.771 348.206 278.845C344.173 279.919 341.509 283.064 342.257 285.87C343.004 288.675 346.879 290.079 350.912 289.005Z" fill="#7C957C"/>
<path d="M301.515 289.92C305.548 288.846 308.212 285.701 307.464 282.895C306.717 280.09 302.842 278.686 298.809 279.76C294.777 280.834 292.113 283.979 292.86 286.785C293.607 289.59 297.482 290.994 301.515 289.92Z" fill="#7C957C"/>
<path d="M359.688 247.906C363.721 246.832 366.385 243.687 365.638 240.882C364.891 238.076 361.016 236.673 356.983 237.747C352.95 238.821 350.286 241.966 351.034 244.771C351.781 247.577 355.656 248.98 359.688 247.906Z" fill="#7C957C"/>
<path d="M374.256 230.438C376.077 230.212 377.29 227.907 376.965 225.29C376.641 222.672 374.902 220.733 373.081 220.959C371.26 221.185 370.047 223.49 370.371 226.107C370.696 228.725 372.435 230.664 374.256 230.438Z" fill="#7C957C"/>
<path d="M377.944 199.433C379.765 199.207 380.978 196.902 380.653 194.284C380.329 191.667 378.59 189.728 376.769 189.954C374.948 190.179 373.735 192.484 374.059 195.102C374.384 197.719 376.123 199.658 377.944 199.433Z" fill="#7C957C"/>
<path d="M328.152 259.036C329.972 258.81 331.186 256.505 330.861 253.888C330.536 251.27 328.797 249.331 326.976 249.557C325.155 249.783 323.942 252.088 324.267 254.705C324.591 257.323 326.331 259.262 328.152 259.036Z" fill="#7C957C"/>
<path d="M353.125 268.076C354.946 267.85 356.159 265.545 355.835 262.927C355.51 260.31 353.771 258.371 351.95 258.597C350.129 258.822 348.916 261.127 349.24 263.745C349.565 266.362 351.304 268.301 353.125 268.076Z" fill="#7C957C"/>
<path d="M322.803 293.678C324.624 293.452 325.837 291.147 325.512 288.529C325.188 285.912 323.449 283.973 321.628 284.199C319.807 284.424 318.594 286.729 318.918 289.347C319.243 291.965 320.982 293.903 322.803 293.678Z" fill="#7C957C"/>
<path d="M651.018 99.0693C655.05 97.9953 657.714 94.8503 656.967 92.0449C656.22 89.2394 652.345 87.8358 648.312 88.9098C644.279 89.9838 641.615 93.1288 642.363 95.9342C643.11 98.7397 646.985 100.143 651.018 99.0693Z" fill="#7C957C"/>
<path d="M601.621 99.9843C605.654 98.9103 608.318 95.7653 607.57 92.9599C606.823 90.1544 602.948 88.7508 598.915 89.8248C594.883 90.8989 592.219 94.0438 592.966 96.8493C593.713 99.6547 597.588 101.058 601.621 99.9843Z" fill="#7C957C"/>
<path d="M659.794 57.9697C663.827 56.8956 666.49 53.7507 665.743 50.9452C664.996 48.1397 661.121 46.7361 657.088 47.8102C653.055 48.8842 650.392 52.0292 651.139 54.8346C651.886 57.6401 655.761 59.0437 659.794 57.9697Z" fill="#7C957C"/>
<path d="M674.362 40.5024C676.183 40.2766 677.396 37.9717 677.071 35.3541C676.747 32.7365 675.008 30.7976 673.187 31.0234C671.366 31.2491 670.153 33.5541 670.477 36.1717C670.802 38.7892 672.541 40.7282 674.362 40.5024Z" fill="#7C957C"/>
<path d="M678.049 9.49701C679.87 9.27125 681.083 6.96627 680.759 4.34871C680.434 1.73114 678.695 -0.207792 676.874 0.017972C675.053 0.243736 673.84 2.54871 674.165 5.16627C674.489 7.78384 676.229 9.72278 678.049 9.49701Z" fill="#7C957C"/>
<path d="M628.257 69.1005C630.078 68.8748 631.291 66.5698 630.967 63.9522C630.642 61.3347 628.903 59.3957 627.082 59.6215C625.261 59.8473 624.048 62.1522 624.373 64.7698C624.697 67.3874 626.437 69.3263 628.257 69.1005Z" fill="#7C957C"/>
<path d="M653.231 78.1401C655.052 77.9143 656.265 75.6093 655.941 72.9918C655.616 70.3742 653.877 68.4353 652.056 68.661C650.235 68.8868 649.022 71.1918 649.346 73.8093C649.671 76.4269 651.41 78.3658 653.231 78.1401Z" fill="#7C957C"/>
<path d="M622.909 103.743C624.73 103.517 625.943 101.212 625.618 98.5943C625.294 95.9767 623.555 94.0378 621.734 94.2636C619.913 94.4893 618.7 96.7943 619.024 99.4119C619.349 102.029 621.088 103.968 622.909 103.743Z" fill="#7C957C"/>
<path d="M336.069 296.032C327.988 296.032 322.734 294.024 320.408 290.031C315.823 282.159 323.503 268.346 343.236 248.976L344.893 250.664C326.564 268.658 318.594 282.215 322.453 288.84C324.894 293.031 332.161 294.533 343.472 293.182C354.7 291.841 369.58 287.846 387.699 281.307C425 267.845 471.797 245.138 519.472 217.367C567.144 189.598 609.982 160.091 640.093 134.284C645.877 129.326 651.126 124.557 655.694 120.109C661.691 114.413 667.224 108.247 672.239 101.67C678.993 92.4993 681.272 85.4367 678.831 81.2457C674.753 74.2459 657.623 74.9041 630.594 83.1017L629.908 80.8371C658.907 72.0433 676.055 71.7795 680.876 80.0549C683.871 85.1964 681.606 92.9411 674.144 103.074C669.052 109.755 663.435 116.018 657.345 121.805C652.741 126.287 647.455 131.09 641.633 136.081C611.416 161.978 568.455 191.573 520.662 219.412C472.869 247.252 425.933 270.024 388.502 283.533C370.215 290.133 355.159 294.17 343.752 295.531C341.203 295.849 338.638 296.016 336.069 296.032Z" fill="#3F3D56"/>
</g>
<defs>
<clipPath id="clip0_3416_263">
<rect width="682.157" height="538.251" fill="white"/>
</clipPath>
</defs>
</svg>
