<svg width="543" height="402" viewBox="0 0 543 402" fill="none" xmlns="http://www.w3.org/2000/svg">
<g clip-path="url(#clip0_3429_3)">
<path d="M491.688 400.138H376.553V396.607C376.553 393.541 377.771 390.601 379.941 388.433C382.11 386.265 385.052 385.047 388.119 385.047H480.121C483.189 385.047 486.131 386.265 488.3 388.433C490.469 390.601 491.688 393.541 491.688 396.607V400.138Z" fill="#3F3D56"/>
<path d="M431.426 385.752L434.927 384.343C398.292 293.462 401.821 178.809 432.79 80.457C436.468 69.0616 436.734 56.8399 433.553 45.2957C430.372 33.7515 423.884 23.3883 414.887 15.4811C396.912 -0.550059 372.131 -4.45537 350.211 5.2881C328.574 14.9072 325.591 31.6623 325.591 48.3359H329.366C329.366 30.5377 333.172 16.9921 351.745 8.73518C372.29 -0.39624 395.521 3.26638 412.374 18.2963C420.824 25.7228 426.918 35.4563 429.906 46.2991C432.893 57.1419 432.644 68.621 429.189 79.3241C397.863 178.812 394.54 294.253 431.426 385.752Z" fill="#3F3D56"/>
<path d="M328.423 103.983C335.72 103.983 341.635 98.071 341.635 90.7785C341.635 83.4859 335.72 77.5741 328.423 77.5741C321.126 77.5741 315.21 83.4859 315.21 90.7785C315.21 98.071 321.126 103.983 328.423 103.983Z" fill="#FFD61E"/>
<path d="M308.075 113.797V88.7783H311.967V113.797C313.084 114.249 314.009 115.074 314.583 116.132C315.157 117.19 315.346 118.415 315.116 119.597C314.885 120.778 314.251 121.843 313.322 122.609C312.392 123.374 311.225 123.793 310.021 123.793C308.816 123.793 307.65 123.374 306.72 122.609C305.791 121.843 305.156 120.778 304.926 119.597C304.696 118.415 304.885 117.19 305.459 116.132C306.033 115.074 306.958 114.249 308.075 113.797Z" fill="#9E616A"/>
<path d="M289.258 69.557C289.265 63.8057 291.554 58.2919 295.623 54.2251C299.692 50.1583 305.209 47.8707 310.964 47.8641H346.825C352.582 47.8641 358.103 50.1496 362.174 54.2178C366.244 58.2861 368.531 63.8037 368.531 69.557C368.531 75.3104 366.244 80.828 362.174 84.8962C358.103 88.9644 352.582 91.25 346.825 91.25H310.964C305.209 91.2434 299.692 88.9558 295.623 84.889C291.554 80.8222 289.265 75.3083 289.258 69.557Z" fill="#3A3A3A"/>
<path d="M238.73 203.893C242.331 157.855 260.741 135.92 248.953 122.164C237.661 108.988 205.855 111.709 185.429 124.353C130.334 158.456 110.15 294.377 181.048 360.785C248.419 423.889 376.101 403.678 404.476 352.028C411.097 339.976 416.357 318.85 406.667 306.055C382.609 274.29 295.143 331.826 256.254 295.839C233.207 274.512 236.754 229.159 238.73 203.893Z" fill="#3F3D56"/>
<path d="M280.845 181.021C279.507 181.636 278.462 182.749 277.932 184.122C277.403 185.496 277.43 187.022 278.009 188.376C278.131 188.649 278.275 188.912 278.441 189.161L266.615 204.942L272.516 213.756L286.377 190.388C287.359 189.623 288.06 188.554 288.37 187.349C288.68 186.143 288.583 184.869 288.093 183.725C287.807 183.077 287.397 182.491 286.885 182.001C286.373 181.511 285.77 181.127 285.11 180.87C284.449 180.613 283.745 180.489 283.036 180.504C282.328 180.52 281.629 180.674 280.98 180.959C280.935 180.979 280.89 181 280.845 181.021Z" fill="#FFB6B6"/>
<path d="M280.836 208.229C281.61 208.914 279.463 209.761 277.192 208.426C276.542 208.039 276.265 207.878 276.192 207.98C276.009 208.236 277.075 210.119 276.791 214.3C276.615 216.796 272.468 221.488 267.759 226.063C261.392 232.251 253.988 238.22 253.988 238.22L251.389 236.141L224.132 214.3L219.532 207.937C219.953 205.424 220.586 202.951 221.423 200.545C222.576 197.213 223.947 193.962 225.526 190.81C226.373 189.095 227.242 187.461 228.075 185.957L242.678 202.04L254.915 215.511C254.915 215.511 258.478 209.776 261.238 208.214C261.59 207.989 261.991 207.852 262.407 207.813C265.196 207.681 265.364 206.163 262.129 202.858C258.895 199.552 262.976 202.639 265.853 201.749C268.73 200.858 265.853 201.749 266.459 199.523C267.065 197.297 275.133 192.831 275.133 192.831L275.469 193.13L281.566 198.509L283.311 200.048C283.311 200.048 281.405 205.273 280.88 206.375C280.354 207.477 280.069 207.535 280.836 208.229Z" fill="#008E00"/>
<path d="M441.556 309.599L441.853 301.55L410.93 296.574L410.491 308.453L441.556 309.599Z" fill="#FFB6B6"/>
<path d="M435.943 312.022L435.649 299.135L441.162 299.338L450.062 287.424C450.501 286.835 451.118 286.403 451.821 286.189C452.524 285.975 453.276 285.992 453.969 286.236C454.662 286.48 455.259 286.94 455.672 287.547C456.086 288.154 456.294 288.877 456.267 289.611L455.702 304.92L450.151 307.358L455.566 308.59L455.353 314.362L435.943 312.022Z" fill="#2F2E41"/>
<path d="M267.516 312.733L365.462 315.215C365.462 315.215 407.758 317.656 417.682 311.204L428.147 309.884L428.714 294.521C428.714 294.521 422.314 294.569 418.635 292.855C414.956 291.142 417.513 289.046 414.005 291.107C410.497 293.168 410.868 293.416 408.156 292.469C405.444 291.522 281.072 272.576 281.072 272.576L267.516 312.733Z" fill="#2F2E41"/>
<path d="M396.582 306.066L402.278 300.368L382.995 275.7L374.589 284.111L396.582 306.066Z" fill="#FFB6B6"/>
<path d="M390.818 301.109L399.374 291.461L403.277 295.358L417.909 292.673C418.632 292.54 419.378 292.642 420.039 292.963C420.699 293.284 421.24 293.808 421.582 294.458C421.924 295.108 422.049 295.85 421.938 296.576C421.828 297.302 421.489 297.974 420.969 298.494L410.137 309.333L404.409 307.347L407.54 311.931L403.456 316.017L390.818 301.109Z" fill="#2F2E41"/>
<path d="M228.874 259.123L229.848 281.744C230.994 308.375 260.338 324.492 283.093 310.588C283.512 310.332 283.933 310.066 284.355 309.792C284.355 309.792 292.982 307.476 292.72 303.81C292.458 300.143 294.565 298.359 296.43 299.359C298.295 300.359 322.713 265.725 322.713 265.725C322.713 265.725 373.445 291.017 384.637 296.971C384.637 296.971 395.16 280.527 394.397 280.7C393.634 280.872 331.635 237.504 331.635 237.504C331.635 237.504 321.535 227.288 309.005 234.033C308.744 235.024 308.968 235.058 308.968 235.058L267.579 268.763L261.731 257.664L228.874 259.123Z" fill="#2F2E41"/>
<path d="M267.897 230.843C267.819 231.888 267.67 232.926 267.452 233.951C267.154 235.435 266.673 236.876 266.021 238.242C266.021 238.242 266.021 239.767 263.1 244.875C260.18 249.984 263.831 247.794 266.021 251.589C268.212 255.376 266.021 253.632 263.59 256.069C262.89 256.779 262.392 257.663 262.15 258.629C261.907 259.595 261.928 260.609 262.21 261.564C262.21 261.564 230.842 261.586 225.001 259.397C219.159 257.208 217.831 244.876 223.066 243.657C228.294 242.438 221.481 241.227 218.407 238.417C215.333 235.608 221.481 231.011 221.481 231.011C221.481 231.011 218.948 226.64 219.159 211.965C219.189 210.615 219.314 209.269 219.532 207.937C219.953 205.424 220.586 202.951 221.423 200.545C222.576 197.214 223.947 193.962 225.526 190.81C226.373 189.095 227.242 187.461 228.075 185.957C228.206 185.724 228.33 185.498 228.462 185.271C230.046 182.469 231.492 180.178 232.448 178.711C233.186 177.573 233.631 176.931 233.631 176.931L238.947 167.692L256.69 176.004L255.682 189.599L258.741 199.851L260.15 204.573L261.238 208.214L262.918 213.855C262.918 213.855 262.458 213.877 263.005 214.628C265.527 217.979 267.162 221.912 267.759 226.063C267.969 227.647 268.015 229.249 267.897 230.843Z" fill="#008E00"/>
<path d="M319.137 232.308L318.804 232.2L276.337 218.533L291.986 167.225C292.297 166.203 292.837 165.266 293.564 164.483C294.291 163.7 295.186 163.092 296.182 162.705C297.178 162.318 298.249 162.162 299.315 162.249C300.38 162.336 301.412 162.663 302.332 163.207L329.47 179.231C331.618 180.498 333.252 182.479 334.087 184.828C334.922 187.177 334.905 189.745 334.038 192.082L319.137 232.308Z" fill="#2F2E41"/>
<path d="M319.309 235.57L276.501 221.793L292.149 170.484C292.461 169.463 293.001 168.525 293.728 167.742C294.455 166.959 295.35 166.351 296.346 165.964C297.342 165.577 298.413 165.421 299.479 165.508C300.544 165.595 301.575 165.923 302.496 166.466L330.929 180.654C335.201 183.175 335.101 189.702 333.117 195.057L319.309 235.57Z" fill="#008E00"/>
<path d="M315.023 239.283C314.038 239.839 312.947 240.184 311.821 240.296C310.694 240.408 309.557 240.285 308.481 239.934L281.119 231.127C279.02 230.442 277.272 228.963 276.248 227.007C275.225 225.051 275.008 222.773 275.643 220.659L289.361 175.681C289.635 174.782 290.086 173.947 290.687 173.225C291.288 172.503 292.028 171.908 292.862 171.475C293.696 171.042 294.609 170.78 295.546 170.705C296.483 170.629 297.425 170.741 298.318 171.034L326.674 180.339C328.025 180.782 329.273 181.492 330.345 182.425C331.418 183.359 332.292 184.498 332.916 185.775C333.54 187.051 333.902 188.44 333.981 189.859C334.059 191.278 333.852 192.699 333.372 194.036L318.704 234.904C318.046 236.759 316.738 238.315 315.023 239.283Z" fill="#3F3D56"/>
<g clip-path="url(#clip1_3429_3)">
<g filter="url(#filter0_d_3429_3)">
<path d="M311.544 205.664C313.4 206.294 315.109 205.894 316.302 204.556L316.367 204.578L315.848 206.108C315.652 206.684 315.893 207.153 316.403 207.326C316.924 207.503 317.404 207.266 317.599 206.691L321.089 196.412C321.28 195.848 321.051 195.347 320.53 195.17C320.02 194.997 319.533 195.255 319.341 195.819L318.822 197.35L318.756 197.327C318.614 195.572 317.451 194.149 315.66 193.541C312.719 192.542 309.925 194.317 308.694 197.942C307.46 201.578 308.603 204.665 311.544 205.664ZM312.516 204.227C310.4 203.508 309.64 201.326 310.572 198.58C311.504 195.834 313.444 194.543 315.56 195.262C317.677 195.98 318.454 198.254 317.537 200.956C316.612 203.681 314.654 204.953 312.516 204.227Z" fill="#EFEFEF"/>
<path d="M292.919 199.34C293.494 199.536 293.85 199.415 294.263 198.877L303.173 187.642L303.227 187.661L303.467 202.002C303.467 202.679 303.675 202.992 304.24 203.184C304.815 203.379 305.302 203.157 305.486 202.615C305.549 202.43 305.575 202.245 305.566 201.988L305.078 186.703C305.053 185.957 304.722 185.469 304.028 185.233C303.355 185.005 302.788 185.176 302.325 185.757L292.624 197.606C292.46 197.805 292.368 197.967 292.306 198.152C292.122 198.694 292.355 199.149 292.919 199.34ZM296.768 195.454L303.585 197.769C304.03 197.92 304.524 197.676 304.675 197.231C304.83 196.775 304.582 196.292 304.137 196.141L297.321 193.826C296.876 193.675 296.386 193.908 296.231 194.364C296.08 194.809 296.323 195.303 296.768 195.454Z" fill="#EFEFEF"/>
</g>
</g>
<path d="M255.686 167.85C266.51 167.85 275.285 159.081 275.285 148.264C275.285 137.446 266.51 128.677 255.686 128.677C244.863 128.677 236.088 137.446 236.088 148.264C236.088 159.081 244.863 167.85 255.686 167.85Z" fill="#FFB6B6"/>
<path d="M189.415 168.145C191.213 171.629 194.162 174.384 197.761 175.943C199.198 176.597 200.708 177.075 202.259 177.366C202.698 175.628 203.4 173.967 204.341 172.442C204.027 174.161 204.027 175.923 204.341 177.643C206.704 177.836 209.082 177.541 211.326 176.777C213.53 176.027 215.53 174.775 217.165 173.119C218.801 171.463 220.028 169.449 220.748 167.237C222.31 162.045 220.628 156.5 220.496 151.08C220.359 145.661 222.934 139.178 228.318 138.508C232.417 137.996 231.911 138.393 234.856 141.288C230.736 145.863 240.781 166.125 246.172 165.23C249.22 164.723 251.462 162.305 252.065 162.389C255.151 169.943 245.867 180.657 253.231 184.175L252.684 183.452C248.83 177.088 260.235 166.34 256.381 159.976C255.306 158.195 254.189 156.108 254.854 154.139C255.485 152.266 258.68 151.674 259.355 153.378C258.259 149.472 261.318 144.887 265.382 144.489C268.992 144.133 268.784 145.161 272.226 146.099C272.666 144.617 273.3 143.2 274.111 141.884C273.836 143.385 273.802 144.921 274.011 146.433C275.252 146.581 276.508 146.315 277.583 145.677C280.762 143.773 280.856 138.857 278.673 135.865C276.485 132.872 272.821 131.395 269.286 130.277C269.253 122.805 249.137 119.229 245.437 126.175C245.057 120.551 238.605 116.762 233.048 117.717C227.491 118.673 223.106 123.126 220.433 128.09C217.761 133.05 216.434 138.604 214.478 143.887C212.521 149.17 209.725 154.438 205.04 157.573C200.356 160.704 193.394 160.988 189.483 156.93C188.591 158.663 188.12 160.581 188.108 162.529C188.096 164.478 188.544 166.402 189.415 168.145Z" fill="#2F2E41"/>
<path d="M209.524 257.713C209.93 257.389 210.369 257.111 210.836 256.883C218.337 253.152 241.665 243.466 259.905 243.864C295.001 244.628 339.665 283.338 329.27 309.333C321.36 329.113 282.038 340.366 253.334 331.366C213.121 318.757 197.249 267.495 209.524 257.713Z" fill="#3F3D56"/>
<path d="M63.827 400.213C52.3591 398.05 42.208 346.416 64.7707 320.986C72.5011 312.274 82.1436 308.481 94.97 304.952C168.794 284.64 225.102 303.999 232.669 308.725C240.218 313.441 253.454 384.496 236.529 394.553C227.006 400.212 208.132 403.042 198.78 396.44C185.02 386.725 208.116 361.527 197.836 344.566C186.17 325.318 124.739 318.835 93.9407 337.963C61.0818 358.372 128.859 412.474 63.827 400.213Z" fill="#9DC79D"/>
<path d="M140.5 312.423H96.6883C85.873 302.064 78.1401 292.081 84.3312 283.794C84.3312 281.412 85.278 279.128 86.9634 277.443C88.6488 275.759 90.9347 274.813 93.3181 274.813H143.87C146.253 274.813 148.539 275.759 150.224 277.443C151.91 279.128 152.857 281.412 152.857 283.794C155.214 293.237 151.003 302.781 140.5 312.423Z" fill="#A0616A"/>
<path d="M132.631 263.506C132.216 263.525 131.804 263.416 131.453 263.193C131.101 262.971 130.826 262.646 130.666 262.262C130.505 261.878 130.467 261.454 130.555 261.048C130.644 260.642 130.855 260.272 131.161 259.99L131.3 259.437C131.281 259.393 131.263 259.349 131.244 259.305C130.826 258.316 130.124 257.473 129.227 256.882C128.331 256.291 127.28 255.978 126.205 255.982C125.131 255.986 124.082 256.307 123.19 256.905C122.298 257.502 121.603 258.351 121.191 259.342C119.547 263.3 117.453 267.265 116.938 271.449C116.711 273.299 116.807 275.174 117.221 276.991C113.359 268.572 111.354 259.421 111.341 250.159C111.34 247.835 111.469 245.513 111.728 243.203C111.942 241.309 112.238 239.429 112.617 237.563C114.687 227.435 119.131 217.943 125.585 209.865C128.708 208.161 131.234 205.542 132.823 202.36C133.398 201.216 133.805 199.995 134.03 198.735C133.678 198.781 132.701 193.418 132.967 193.089C132.476 192.344 131.597 191.974 131.061 191.247C128.394 187.633 124.719 188.264 122.801 193.175C118.703 195.243 118.663 198.671 121.178 201.967C122.777 204.065 122.997 206.903 124.401 209.149C124.256 209.334 124.106 209.513 123.962 209.697C121.322 213.09 119.021 216.732 117.093 220.573C117.562 216.27 117.002 211.918 115.459 207.873C113.896 204.104 110.965 200.929 108.385 197.671C105.285 193.756 98.9289 195.465 98.3828 200.426C98.3775 200.474 98.3724 200.522 98.3674 200.57C98.7507 200.787 99.1259 201.016 99.493 201.259C99.9542 201.567 100.312 202.007 100.518 202.521C100.725 203.035 100.771 203.6 100.651 204.141C100.531 204.683 100.251 205.175 99.8459 205.554C99.4411 205.933 98.9312 206.181 98.3831 206.265L98.3269 206.274C98.4635 207.655 98.7049 209.023 99.049 210.367C95.7384 223.162 102.886 227.823 113.091 228.032C113.316 228.147 113.536 228.263 113.761 228.372C111.823 233.861 110.608 239.578 110.145 245.379C109.883 248.802 109.899 252.24 110.191 255.661L110.174 255.539C109.435 251.736 107.405 248.304 104.427 245.824C100.004 242.193 93.7549 240.855 88.9834 237.937C88.4763 237.611 87.8867 237.438 87.284 237.436C86.6814 237.435 86.091 237.606 85.5823 237.928C85.0736 238.251 84.6679 238.713 84.4131 239.259C84.1583 239.804 84.0649 240.412 84.1441 241.009C84.1505 241.051 84.157 241.094 84.1636 241.136C84.8749 241.426 85.5674 241.759 86.2372 242.135C86.6205 242.351 86.9958 242.58 87.3629 242.823C87.824 243.131 88.1814 243.571 88.3881 244.085C88.5948 244.6 88.6412 245.165 88.5212 245.706C88.4013 246.247 88.1205 246.739 87.7158 247.118C87.311 247.497 86.8012 247.745 86.253 247.83L86.1968 247.838C86.1564 247.844 86.1217 247.85 86.0813 247.856C87.2967 250.756 89.0024 253.425 91.1239 255.747C93.1939 266.917 102.085 267.977 111.595 264.724H111.601C112.644 269.256 114.156 273.667 116.112 277.886H132.228C132.286 277.707 132.337 277.522 132.389 277.343C130.898 277.437 129.4 277.348 127.93 277.078C129.126 275.611 130.322 274.134 131.517 272.667C131.544 272.64 131.569 272.611 131.592 272.581C132.199 271.83 132.811 271.086 133.418 270.335L133.418 270.334C133.45 268.034 133.186 265.739 132.631 263.506Z" fill="#43AB43"/>
<path d="M187.599 310.077C187.866 310.855 188.373 311.528 189.047 312C189.721 312.472 190.527 312.718 191.35 312.703L207.422 312.29C208.251 312.274 209.052 311.99 209.706 311.481C210.36 310.972 210.832 310.265 211.051 309.466L213.325 285.16C214.132 285.525 215.011 285.706 215.896 285.688C217.45 285.649 218.925 284.995 219.997 283.869C221.068 282.743 221.648 281.238 221.609 279.685C221.57 278.132 220.915 276.658 219.789 275.587C218.662 274.516 217.156 273.937 215.602 273.976C215.248 273.975 214.895 274.011 214.549 274.085C214.172 273.678 213.715 273.354 213.206 273.135C212.696 272.915 212.147 272.805 211.592 272.81L186.869 273.448C186.664 273.456 186.46 273.481 186.259 273.524C185.717 273.625 185.203 273.841 184.751 274.157C184.299 274.473 183.921 274.883 183.641 275.357C183.361 275.832 183.185 276.362 183.127 276.91C183.069 277.458 183.129 278.012 183.303 278.535L187.599 310.077ZM213.792 283.51L215.41 277.718C215.594 277.048 215.599 276.343 215.423 275.671C215.501 275.671 215.57 275.634 215.649 275.634C216.758 275.611 217.832 276.029 218.633 276.796C219.435 277.563 219.9 278.616 219.926 279.725C219.952 280.834 219.537 281.908 218.772 282.711C218.007 283.515 216.955 283.982 215.845 284.012C215.128 284.034 214.418 283.861 213.792 283.51Z" fill="#FFB6B6"/>
<path d="M186.259 273.524C186.786 276.534 192.708 278.65 199.828 278.282C206.376 277.98 211.73 275.683 212.711 272.959C212.348 272.852 211.97 272.802 211.592 272.81L186.869 273.448C186.664 273.456 186.46 273.481 186.259 273.524Z" fill="white"/>
<path d="M304.447 209.096C302.975 209.15 301.582 209.776 300.565 210.84C299.547 211.904 298.985 213.324 298.999 214.796C299.006 215.095 299.039 215.393 299.095 215.687L282.108 225.71L284.164 236.114L305.949 219.869C307.15 219.54 308.208 218.823 308.959 217.829C309.709 216.836 310.109 215.622 310.097 214.378C310.083 213.669 309.929 212.971 309.645 212.322C309.361 211.673 308.952 211.087 308.441 210.596C307.93 210.105 307.328 209.719 306.668 209.461C306.008 209.203 305.304 209.077 304.595 209.091C304.546 209.092 304.496 209.094 304.447 209.096Z" fill="#FFB6B6"/>
<path d="M290.531 232.991C290.077 232.383 289.882 232.128 289.778 232.198C289.512 232.358 289.768 234.508 287.897 238.254C285.263 243.517 257.648 251.578 257.648 251.578L254.248 245.357L239.293 218.019L234.138 196.106C233.957 195.342 233.87 194.559 233.877 193.774C238.473 190.542 243.354 187.734 248.459 185.385C250.499 186.542 252.054 188.394 252.84 190.602L263.135 219.45L267.243 230.968C267.243 230.968 274.489 225.789 277.118 226.74C279.742 227.697 280.488 226.355 278.773 222.062C277.057 217.769 279.632 222.188 282.628 222.469C285.631 222.754 282.628 222.469 284.046 220.647C285.465 218.825 294.633 217.8 294.633 217.8L294.828 218.207L298.381 225.511L299.398 227.61C299.398 227.61 295.632 231.695 294.723 232.509C293.81 233.329 293.528 233.272 293.975 234.206C294.416 235.136 292.11 235.094 290.531 232.991Z" fill="#008E00"/>
</g>
<defs>
<filter id="filter0_d_3429_3" x="288.244" y="185.135" width="36.9119" height="30.248" filterUnits="userSpaceOnUse" color-interpolation-filters="sRGB">
<feFlood flood-opacity="0" result="BackgroundImageFix"/>
<feColorMatrix in="SourceAlpha" type="matrix" values="0 0 0 0 0 0 0 0 0 0 0 0 0 0 0 0 0 0 127 0" result="hardAlpha"/>
<feOffset dy="4"/>
<feGaussianBlur stdDeviation="2"/>
<feComposite in2="hardAlpha" operator="out"/>
<feColorMatrix type="matrix" values="0 0 0 0 0 0 0 0 0 0 0 0 0 0 0 0 0 0 0.25 0"/>
<feBlend mode="normal" in2="BackgroundImageFix" result="effect1_dropShadow_3429_3"/>
<feBlend mode="normal" in="SourceGraphic" in2="effect1_dropShadow_3429_3" result="shape"/>
</filter>
<clipPath id="clip0_3429_3">
<rect width="543" height="402" fill="white"/>
</clipPath>
<clipPath id="clip1_3429_3">
<rect width="26.7644" height="16.9527" fill="white" transform="translate(297.45 183) rotate(18.7534)"/>
</clipPath>
</defs>
</svg>
